%TF.GenerationSoftware,KiCad,Pcbnew,(5.1.12)-1*%
%TF.CreationDate,2025-06-01T13:41:53+02:00*%
%TF.ProjectId,telecommande,74656c65-636f-46d6-9d61-6e64652e6b69,rev?*%
%TF.SameCoordinates,Original*%
%TF.FileFunction,Soldermask,Top*%
%TF.FilePolarity,Negative*%
%FSLAX46Y46*%
G04 Gerber Fmt 4.6, Leading zero omitted, Abs format (unit mm)*
G04 Created by KiCad (PCBNEW (5.1.12)-1) date 2025-06-01 13:41:53*
%MOMM*%
%LPD*%
G01*
G04 APERTURE LIST*
%ADD10C,3.200000*%
%ADD11O,1.700000X1.700000*%
%ADD12R,1.700000X1.700000*%
%ADD13O,2.400000X1.600000*%
%ADD14R,2.400000X1.600000*%
%ADD15R,1.000000X1.500000*%
%ADD16C,0.100000*%
%ADD17O,1.600000X1.600000*%
%ADD18C,1.600000*%
%ADD19O,2.200000X2.200000*%
%ADD20R,2.200000X2.200000*%
%ADD21C,1.500000*%
%ADD22O,1.905000X2.000000*%
%ADD23R,1.905000X2.000000*%
%ADD24R,1.500000X1.500000*%
%ADD25R,1.400000X1.600000*%
%ADD26C,3.000000*%
%ADD27R,3.000000X3.000000*%
%ADD28C,1.800000*%
%ADD29R,1.800000X1.800000*%
G04 APERTURE END LIST*
D10*
%TO.C,H2*%
X121000000Y-121000000D03*
%TD*%
%TO.C,H1*%
X84000000Y-72000000D03*
%TD*%
D11*
%TO.C,J1*%
X114300000Y-72136000D03*
X111760000Y-72136000D03*
X109220000Y-72136000D03*
X106680000Y-72136000D03*
X104140000Y-72136000D03*
X101600000Y-72136000D03*
X99060000Y-72136000D03*
D12*
X96520000Y-72136000D03*
%TD*%
%TO.C,R1*%
G36*
G01*
X98660000Y-75749999D02*
X98660000Y-76650001D01*
G75*
G02*
X98410001Y-76900000I-249999J0D01*
G01*
X97709999Y-76900000D01*
G75*
G02*
X97460000Y-76650001I0J249999D01*
G01*
X97460000Y-75749999D01*
G75*
G02*
X97709999Y-75500000I249999J0D01*
G01*
X98410001Y-75500000D01*
G75*
G02*
X98660000Y-75749999I0J-249999D01*
G01*
G37*
G36*
G01*
X100660000Y-75749999D02*
X100660000Y-76650001D01*
G75*
G02*
X100410001Y-76900000I-249999J0D01*
G01*
X99709999Y-76900000D01*
G75*
G02*
X99460000Y-76650001I0J249999D01*
G01*
X99460000Y-75749999D01*
G75*
G02*
X99709999Y-75500000I249999J0D01*
G01*
X100410001Y-75500000D01*
G75*
G02*
X100660000Y-75749999I0J-249999D01*
G01*
G37*
%TD*%
D13*
%TO.C,U3*%
X123190000Y-75946000D03*
X115570000Y-83566000D03*
X123190000Y-78486000D03*
X115570000Y-81026000D03*
X123190000Y-81026000D03*
X115570000Y-78486000D03*
X123190000Y-83566000D03*
D14*
X115570000Y-75946000D03*
%TD*%
D15*
%TO.C,JP1*%
X120396000Y-72390000D03*
D16*
G36*
X119096000Y-73139398D02*
G01*
X119071466Y-73139398D01*
X119022635Y-73134588D01*
X118974510Y-73125016D01*
X118927555Y-73110772D01*
X118882222Y-73091995D01*
X118838949Y-73068864D01*
X118798150Y-73041604D01*
X118760221Y-73010476D01*
X118725524Y-72975779D01*
X118694396Y-72937850D01*
X118667136Y-72897051D01*
X118644005Y-72853778D01*
X118625228Y-72808445D01*
X118610984Y-72761490D01*
X118601412Y-72713365D01*
X118596602Y-72664534D01*
X118596602Y-72640000D01*
X118596000Y-72640000D01*
X118596000Y-72140000D01*
X118596602Y-72140000D01*
X118596602Y-72115466D01*
X118601412Y-72066635D01*
X118610984Y-72018510D01*
X118625228Y-71971555D01*
X118644005Y-71926222D01*
X118667136Y-71882949D01*
X118694396Y-71842150D01*
X118725524Y-71804221D01*
X118760221Y-71769524D01*
X118798150Y-71738396D01*
X118838949Y-71711136D01*
X118882222Y-71688005D01*
X118927555Y-71669228D01*
X118974510Y-71654984D01*
X119022635Y-71645412D01*
X119071466Y-71640602D01*
X119096000Y-71640602D01*
X119096000Y-71640000D01*
X119646000Y-71640000D01*
X119646000Y-73140000D01*
X119096000Y-73140000D01*
X119096000Y-73139398D01*
G37*
G36*
X121146000Y-71640000D02*
G01*
X121696000Y-71640000D01*
X121696000Y-71640602D01*
X121720534Y-71640602D01*
X121769365Y-71645412D01*
X121817490Y-71654984D01*
X121864445Y-71669228D01*
X121909778Y-71688005D01*
X121953051Y-71711136D01*
X121993850Y-71738396D01*
X122031779Y-71769524D01*
X122066476Y-71804221D01*
X122097604Y-71842150D01*
X122124864Y-71882949D01*
X122147995Y-71926222D01*
X122166772Y-71971555D01*
X122181016Y-72018510D01*
X122190588Y-72066635D01*
X122195398Y-72115466D01*
X122195398Y-72140000D01*
X122196000Y-72140000D01*
X122196000Y-72640000D01*
X122195398Y-72640000D01*
X122195398Y-72664534D01*
X122190588Y-72713365D01*
X122181016Y-72761490D01*
X122166772Y-72808445D01*
X122147995Y-72853778D01*
X122124864Y-72897051D01*
X122097604Y-72937850D01*
X122066476Y-72975779D01*
X122031779Y-73010476D01*
X121993850Y-73041604D01*
X121953051Y-73068864D01*
X121909778Y-73091995D01*
X121864445Y-73110772D01*
X121817490Y-73125016D01*
X121769365Y-73134588D01*
X121720534Y-73139398D01*
X121696000Y-73139398D01*
X121696000Y-73140000D01*
X121146000Y-73140000D01*
X121146000Y-71640000D01*
G37*
%TD*%
D17*
%TO.C,R2*%
X120650000Y-98044000D03*
D18*
X123190000Y-98044000D03*
%TD*%
D19*
%TO.C,D5*%
X115824000Y-120142000D03*
D20*
X115824000Y-116332000D03*
%TD*%
D19*
%TO.C,D1*%
X115824000Y-112268000D03*
D20*
X115824000Y-99568000D03*
%TD*%
%TO.C,R6*%
G36*
G01*
X118980000Y-110039999D02*
X118980000Y-110940001D01*
G75*
G02*
X118730001Y-111190000I-249999J0D01*
G01*
X118029999Y-111190000D01*
G75*
G02*
X117780000Y-110940001I0J249999D01*
G01*
X117780000Y-110039999D01*
G75*
G02*
X118029999Y-109790000I249999J0D01*
G01*
X118730001Y-109790000D01*
G75*
G02*
X118980000Y-110039999I0J-249999D01*
G01*
G37*
G36*
G01*
X120980000Y-110039999D02*
X120980000Y-110940001D01*
G75*
G02*
X120730001Y-111190000I-249999J0D01*
G01*
X120029999Y-111190000D01*
G75*
G02*
X119780000Y-110940001I0J249999D01*
G01*
X119780000Y-110039999D01*
G75*
G02*
X120029999Y-109790000I249999J0D01*
G01*
X120730001Y-109790000D01*
G75*
G02*
X120980000Y-110039999I0J-249999D01*
G01*
G37*
%TD*%
D19*
%TO.C,D7*%
X105664000Y-116332000D03*
D20*
X95504000Y-116332000D03*
%TD*%
D19*
%TO.C,D3*%
X94742000Y-102870000D03*
D20*
X94742000Y-113030000D03*
%TD*%
D21*
%TO.C,Y1*%
X99314000Y-103960000D03*
X99314000Y-99060000D03*
%TD*%
D22*
%TO.C,U4*%
X103124000Y-121158000D03*
X100584000Y-121158000D03*
D23*
X98044000Y-121158000D03*
%TD*%
D13*
%TO.C,U2*%
X111506000Y-80264000D03*
X103886000Y-113284000D03*
X111506000Y-82804000D03*
X103886000Y-110744000D03*
X111506000Y-85344000D03*
X103886000Y-108204000D03*
X111506000Y-87884000D03*
X103886000Y-105664000D03*
X111506000Y-90424000D03*
X103886000Y-103124000D03*
X111506000Y-92964000D03*
X103886000Y-100584000D03*
X111506000Y-95504000D03*
X103886000Y-98044000D03*
X111506000Y-98044000D03*
X103886000Y-95504000D03*
X111506000Y-100584000D03*
X103886000Y-92964000D03*
X111506000Y-103124000D03*
X103886000Y-90424000D03*
X111506000Y-105664000D03*
X103886000Y-87884000D03*
X111506000Y-108204000D03*
X103886000Y-85344000D03*
X111506000Y-110744000D03*
X103886000Y-82804000D03*
X111506000Y-113284000D03*
D14*
X103886000Y-80264000D03*
%TD*%
D24*
%TO.C,U1*%
X107696000Y-120650000D03*
D21*
X112776000Y-120650000D03*
X110236000Y-120650000D03*
%TD*%
D25*
%TO.C,SW1*%
X120106000Y-94678000D03*
X120106000Y-86678000D03*
X115606000Y-94678000D03*
X115606000Y-86678000D03*
%TD*%
%TO.C,R7*%
G36*
G01*
X118980000Y-107499999D02*
X118980000Y-108400001D01*
G75*
G02*
X118730001Y-108650000I-249999J0D01*
G01*
X118029999Y-108650000D01*
G75*
G02*
X117780000Y-108400001I0J249999D01*
G01*
X117780000Y-107499999D01*
G75*
G02*
X118029999Y-107250000I249999J0D01*
G01*
X118730001Y-107250000D01*
G75*
G02*
X118980000Y-107499999I0J-249999D01*
G01*
G37*
G36*
G01*
X120980000Y-107499999D02*
X120980000Y-108400001D01*
G75*
G02*
X120730001Y-108650000I-249999J0D01*
G01*
X120029999Y-108650000D01*
G75*
G02*
X119780000Y-108400001I0J249999D01*
G01*
X119780000Y-107499999D01*
G75*
G02*
X120029999Y-107250000I249999J0D01*
G01*
X120730001Y-107250000D01*
G75*
G02*
X120980000Y-107499999I0J-249999D01*
G01*
G37*
%TD*%
%TO.C,R4*%
G36*
G01*
X118980000Y-102419999D02*
X118980000Y-103320001D01*
G75*
G02*
X118730001Y-103570000I-249999J0D01*
G01*
X118029999Y-103570000D01*
G75*
G02*
X117780000Y-103320001I0J249999D01*
G01*
X117780000Y-102419999D01*
G75*
G02*
X118029999Y-102170000I249999J0D01*
G01*
X118730001Y-102170000D01*
G75*
G02*
X118980000Y-102419999I0J-249999D01*
G01*
G37*
G36*
G01*
X120980000Y-102419999D02*
X120980000Y-103320001D01*
G75*
G02*
X120730001Y-103570000I-249999J0D01*
G01*
X120029999Y-103570000D01*
G75*
G02*
X119780000Y-103320001I0J249999D01*
G01*
X119780000Y-102419999D01*
G75*
G02*
X120029999Y-102170000I249999J0D01*
G01*
X120730001Y-102170000D01*
G75*
G02*
X120980000Y-102419999I0J-249999D01*
G01*
G37*
%TD*%
D17*
%TO.C,R3*%
X123190000Y-86360000D03*
D18*
X123190000Y-88900000D03*
%TD*%
D24*
%TO.C,Q1*%
X100076000Y-89154000D03*
D21*
X100076000Y-84074000D03*
X100076000Y-86614000D03*
%TD*%
%TO.C,K1*%
X86614000Y-87122000D03*
X86614000Y-92202000D03*
X86614000Y-94742000D03*
X86614000Y-97282000D03*
X81534000Y-97282000D03*
X81534000Y-94742000D03*
X81534000Y-92202000D03*
G36*
G01*
X80784000Y-87621500D02*
X80784000Y-86622500D01*
G75*
G02*
X81034500Y-86372000I250500J0D01*
G01*
X82033500Y-86372000D01*
G75*
G02*
X82284000Y-86622500I0J-250500D01*
G01*
X82284000Y-87621500D01*
G75*
G02*
X82033500Y-87872000I-250500J0D01*
G01*
X81034500Y-87872000D01*
G75*
G02*
X80784000Y-87621500I0J250500D01*
G01*
G37*
%TD*%
D12*
%TO.C,J8*%
X99060000Y-111760000D03*
%TD*%
D26*
%TO.C,J7*%
X84074000Y-104394000D03*
D27*
X84074000Y-109474000D03*
%TD*%
D26*
%TO.C,J6*%
X84074000Y-114808000D03*
D27*
X84074000Y-119888000D03*
%TD*%
D11*
%TO.C,J5*%
X123190000Y-115570000D03*
X123190000Y-113030000D03*
X123190000Y-110490000D03*
X123190000Y-107950000D03*
X123190000Y-105410000D03*
D12*
X123190000Y-102870000D03*
%TD*%
D11*
%TO.C,J4*%
X89916000Y-111760000D03*
X89916000Y-114300000D03*
X89916000Y-116840000D03*
D12*
X89916000Y-119380000D03*
%TD*%
D11*
%TO.C,J3*%
X89916000Y-78994000D03*
X89916000Y-81534000D03*
X89916000Y-84074000D03*
D12*
X89916000Y-86614000D03*
%TD*%
D11*
%TO.C,J2*%
X82550000Y-78740000D03*
D12*
X85090000Y-78740000D03*
%TD*%
D19*
%TO.C,D6*%
X85852000Y-83312000D03*
D20*
X83312000Y-83312000D03*
%TD*%
D28*
%TO.C,D4*%
X109728000Y-76200000D03*
D29*
X107188000Y-76200000D03*
%TD*%
D19*
%TO.C,D2*%
X100584000Y-81280000D03*
D20*
X100584000Y-78740000D03*
%TD*%
D18*
%TO.C,C3*%
X97536000Y-91734000D03*
X97536000Y-94234000D03*
%TD*%
%TO.C,C2*%
X100584000Y-91734000D03*
X100584000Y-94234000D03*
%TD*%
M02*
