%TF.GenerationSoftware,KiCad,Pcbnew,(5.1.12)-1*%
%TF.CreationDate,2025-06-01T13:41:53+02:00*%
%TF.ProjectId,telecommande,74656c65-636f-46d6-9d61-6e64652e6b69,rev?*%
%TF.SameCoordinates,Original*%
%TF.FileFunction,Copper,L1,Top*%
%TF.FilePolarity,Positive*%
%FSLAX46Y46*%
G04 Gerber Fmt 4.6, Leading zero omitted, Abs format (unit mm)*
G04 Created by KiCad (PCBNEW (5.1.12)-1) date 2025-06-01 13:41:53*
%MOMM*%
%LPD*%
G01*
G04 APERTURE LIST*
%TA.AperFunction,ComponentPad*%
%ADD10O,1.700000X1.700000*%
%TD*%
%TA.AperFunction,ComponentPad*%
%ADD11R,1.700000X1.700000*%
%TD*%
%TA.AperFunction,ComponentPad*%
%ADD12O,2.400000X1.600000*%
%TD*%
%TA.AperFunction,ComponentPad*%
%ADD13R,2.400000X1.600000*%
%TD*%
%TA.AperFunction,SMDPad,CuDef*%
%ADD14R,1.000000X1.500000*%
%TD*%
%TA.AperFunction,SMDPad,CuDef*%
%ADD15C,0.100000*%
%TD*%
%TA.AperFunction,ComponentPad*%
%ADD16O,1.600000X1.600000*%
%TD*%
%TA.AperFunction,ComponentPad*%
%ADD17C,1.600000*%
%TD*%
%TA.AperFunction,ComponentPad*%
%ADD18O,2.200000X2.200000*%
%TD*%
%TA.AperFunction,ComponentPad*%
%ADD19R,2.200000X2.200000*%
%TD*%
%TA.AperFunction,ComponentPad*%
%ADD20C,1.500000*%
%TD*%
%TA.AperFunction,ComponentPad*%
%ADD21O,1.905000X2.000000*%
%TD*%
%TA.AperFunction,ComponentPad*%
%ADD22R,1.905000X2.000000*%
%TD*%
%TA.AperFunction,ComponentPad*%
%ADD23R,1.500000X1.500000*%
%TD*%
%TA.AperFunction,SMDPad,CuDef*%
%ADD24R,1.400000X1.600000*%
%TD*%
%TA.AperFunction,ComponentPad*%
%ADD25C,3.000000*%
%TD*%
%TA.AperFunction,ComponentPad*%
%ADD26R,3.000000X3.000000*%
%TD*%
%TA.AperFunction,ComponentPad*%
%ADD27C,1.800000*%
%TD*%
%TA.AperFunction,ComponentPad*%
%ADD28R,1.800000X1.800000*%
%TD*%
%TA.AperFunction,ViaPad*%
%ADD29C,0.800000*%
%TD*%
%TA.AperFunction,Conductor*%
%ADD30C,0.450000*%
%TD*%
%TA.AperFunction,Conductor*%
%ADD31C,0.300000*%
%TD*%
%TA.AperFunction,Conductor*%
%ADD32C,0.254000*%
%TD*%
%TA.AperFunction,Conductor*%
%ADD33C,0.100000*%
%TD*%
G04 APERTURE END LIST*
D10*
%TO.P,J1,8*%
%TO.N,N/C*%
X114300000Y-72136000D03*
%TO.P,J1,7*%
X111760000Y-72136000D03*
%TO.P,J1,6*%
X109220000Y-72136000D03*
%TO.P,J1,5*%
%TO.N,/PGC*%
X106680000Y-72136000D03*
%TO.P,J1,4*%
%TO.N,/PGD*%
X104140000Y-72136000D03*
%TO.P,J1,3*%
%TO.N,GND*%
X101600000Y-72136000D03*
%TO.P,J1,2*%
%TO.N,/TVDD*%
X99060000Y-72136000D03*
D11*
%TO.P,J1,1*%
%TO.N,/MCLR*%
X96520000Y-72136000D03*
%TD*%
%TO.P,R1,2*%
%TO.N,/LED*%
%TA.AperFunction,SMDPad,CuDef*%
G36*
G01*
X98660000Y-75749999D02*
X98660000Y-76650001D01*
G75*
G02*
X98410001Y-76900000I-249999J0D01*
G01*
X97709999Y-76900000D01*
G75*
G02*
X97460000Y-76650001I0J249999D01*
G01*
X97460000Y-75749999D01*
G75*
G02*
X97709999Y-75500000I249999J0D01*
G01*
X98410001Y-75500000D01*
G75*
G02*
X98660000Y-75749999I0J-249999D01*
G01*
G37*
%TD.AperFunction*%
%TO.P,R1,1*%
%TO.N,Net-(D4-Pad1)*%
%TA.AperFunction,SMDPad,CuDef*%
G36*
G01*
X100660000Y-75749999D02*
X100660000Y-76650001D01*
G75*
G02*
X100410001Y-76900000I-249999J0D01*
G01*
X99709999Y-76900000D01*
G75*
G02*
X99460000Y-76650001I0J249999D01*
G01*
X99460000Y-75749999D01*
G75*
G02*
X99709999Y-75500000I249999J0D01*
G01*
X100410001Y-75500000D01*
G75*
G02*
X100660000Y-75749999I0J-249999D01*
G01*
G37*
%TD.AperFunction*%
%TD*%
D12*
%TO.P,U3,8*%
%TO.N,/VDD*%
X123190000Y-75946000D03*
%TO.P,U3,4*%
%TO.N,GND*%
X115570000Y-83566000D03*
%TO.P,U3,7*%
%TO.N,Net-(JP1-Pad2)*%
X123190000Y-78486000D03*
%TO.P,U3,3*%
%TO.N,GND*%
X115570000Y-81026000D03*
%TO.P,U3,6*%
%TO.N,Net-(R2-Pad2)*%
X123190000Y-81026000D03*
%TO.P,U3,2*%
%TO.N,GND*%
X115570000Y-78486000D03*
%TO.P,U3,5*%
%TO.N,Net-(R3-Pad2)*%
X123190000Y-83566000D03*
D13*
%TO.P,U3,1*%
%TO.N,N/C*%
X115570000Y-75946000D03*
%TD*%
D14*
%TO.P,JP1,2*%
%TO.N,Net-(JP1-Pad2)*%
X120396000Y-72390000D03*
%TA.AperFunction,SMDPad,CuDef*%
D15*
%TO.P,JP1,3*%
%TO.N,GND*%
G36*
X119096000Y-73139398D02*
G01*
X119071466Y-73139398D01*
X119022635Y-73134588D01*
X118974510Y-73125016D01*
X118927555Y-73110772D01*
X118882222Y-73091995D01*
X118838949Y-73068864D01*
X118798150Y-73041604D01*
X118760221Y-73010476D01*
X118725524Y-72975779D01*
X118694396Y-72937850D01*
X118667136Y-72897051D01*
X118644005Y-72853778D01*
X118625228Y-72808445D01*
X118610984Y-72761490D01*
X118601412Y-72713365D01*
X118596602Y-72664534D01*
X118596602Y-72640000D01*
X118596000Y-72640000D01*
X118596000Y-72140000D01*
X118596602Y-72140000D01*
X118596602Y-72115466D01*
X118601412Y-72066635D01*
X118610984Y-72018510D01*
X118625228Y-71971555D01*
X118644005Y-71926222D01*
X118667136Y-71882949D01*
X118694396Y-71842150D01*
X118725524Y-71804221D01*
X118760221Y-71769524D01*
X118798150Y-71738396D01*
X118838949Y-71711136D01*
X118882222Y-71688005D01*
X118927555Y-71669228D01*
X118974510Y-71654984D01*
X119022635Y-71645412D01*
X119071466Y-71640602D01*
X119096000Y-71640602D01*
X119096000Y-71640000D01*
X119646000Y-71640000D01*
X119646000Y-73140000D01*
X119096000Y-73140000D01*
X119096000Y-73139398D01*
G37*
%TD.AperFunction*%
%TA.AperFunction,SMDPad,CuDef*%
%TO.P,JP1,1*%
%TO.N,/VDD*%
G36*
X121146000Y-71640000D02*
G01*
X121696000Y-71640000D01*
X121696000Y-71640602D01*
X121720534Y-71640602D01*
X121769365Y-71645412D01*
X121817490Y-71654984D01*
X121864445Y-71669228D01*
X121909778Y-71688005D01*
X121953051Y-71711136D01*
X121993850Y-71738396D01*
X122031779Y-71769524D01*
X122066476Y-71804221D01*
X122097604Y-71842150D01*
X122124864Y-71882949D01*
X122147995Y-71926222D01*
X122166772Y-71971555D01*
X122181016Y-72018510D01*
X122190588Y-72066635D01*
X122195398Y-72115466D01*
X122195398Y-72140000D01*
X122196000Y-72140000D01*
X122196000Y-72640000D01*
X122195398Y-72640000D01*
X122195398Y-72664534D01*
X122190588Y-72713365D01*
X122181016Y-72761490D01*
X122166772Y-72808445D01*
X122147995Y-72853778D01*
X122124864Y-72897051D01*
X122097604Y-72937850D01*
X122066476Y-72975779D01*
X122031779Y-73010476D01*
X121993850Y-73041604D01*
X121953051Y-73068864D01*
X121909778Y-73091995D01*
X121864445Y-73110772D01*
X121817490Y-73125016D01*
X121769365Y-73134588D01*
X121720534Y-73139398D01*
X121696000Y-73139398D01*
X121696000Y-73140000D01*
X121146000Y-73140000D01*
X121146000Y-71640000D01*
G37*
%TD.AperFunction*%
%TD*%
D16*
%TO.P,R2,2*%
%TO.N,Net-(R2-Pad2)*%
X120650000Y-98044000D03*
D17*
%TO.P,R2,1*%
%TO.N,/SCL*%
X123190000Y-98044000D03*
%TD*%
D18*
%TO.P,D5,2*%
%TO.N,/VCC*%
X115824000Y-120142000D03*
D19*
%TO.P,D5,1*%
%TO.N,/12VR*%
X115824000Y-116332000D03*
%TD*%
D18*
%TO.P,D1,2*%
%TO.N,/VCC*%
X115824000Y-112268000D03*
D19*
%TO.P,D1,1*%
%TO.N,/VDD*%
X115824000Y-99568000D03*
%TD*%
%TO.P,R6,2*%
%TO.N,Net-(R6-Pad2)*%
%TA.AperFunction,SMDPad,CuDef*%
G36*
G01*
X118980000Y-110039999D02*
X118980000Y-110940001D01*
G75*
G02*
X118730001Y-111190000I-249999J0D01*
G01*
X118029999Y-111190000D01*
G75*
G02*
X117780000Y-110940001I0J249999D01*
G01*
X117780000Y-110039999D01*
G75*
G02*
X118029999Y-109790000I249999J0D01*
G01*
X118730001Y-109790000D01*
G75*
G02*
X118980000Y-110039999I0J-249999D01*
G01*
G37*
%TD.AperFunction*%
%TO.P,R6,1*%
%TO.N,/TX1*%
%TA.AperFunction,SMDPad,CuDef*%
G36*
G01*
X120980000Y-110039999D02*
X120980000Y-110940001D01*
G75*
G02*
X120730001Y-111190000I-249999J0D01*
G01*
X120029999Y-111190000D01*
G75*
G02*
X119780000Y-110940001I0J249999D01*
G01*
X119780000Y-110039999D01*
G75*
G02*
X120029999Y-109790000I249999J0D01*
G01*
X120730001Y-109790000D01*
G75*
G02*
X120980000Y-110039999I0J-249999D01*
G01*
G37*
%TD.AperFunction*%
%TD*%
D18*
%TO.P,D7,2*%
%TO.N,/12VR*%
X105664000Y-116332000D03*
D19*
%TO.P,D7,1*%
%TO.N,Net-(C8-Pad1)*%
X95504000Y-116332000D03*
%TD*%
D18*
%TO.P,D3,2*%
%TO.N,Net-(D3-Pad2)*%
X94742000Y-102870000D03*
D19*
%TO.P,D3,1*%
%TO.N,Net-(C8-Pad1)*%
X94742000Y-113030000D03*
%TD*%
D20*
%TO.P,Y1,2*%
%TO.N,Net-(C3-Pad1)*%
X99314000Y-103960000D03*
%TO.P,Y1,1*%
%TO.N,Net-(C2-Pad1)*%
X99314000Y-99060000D03*
%TD*%
D21*
%TO.P,U4,3*%
%TO.N,/12VR*%
X103124000Y-121158000D03*
%TO.P,U4,2*%
%TO.N,GND*%
X100584000Y-121158000D03*
D22*
%TO.P,U4,1*%
%TO.N,Net-(C8-Pad1)*%
X98044000Y-121158000D03*
%TD*%
D12*
%TO.P,U2,28*%
%TO.N,/PGD*%
X111506000Y-80264000D03*
%TO.P,U2,14*%
%TO.N,/SCL*%
X103886000Y-113284000D03*
%TO.P,U2,27*%
%TO.N,/PGC*%
X111506000Y-82804000D03*
%TO.P,U2,13*%
%TO.N,Net-(R5-Pad2)*%
X103886000Y-110744000D03*
%TO.P,U2,26*%
%TO.N,N/C*%
X111506000Y-85344000D03*
%TO.P,U2,12*%
%TO.N,Net-(R4-Pad2)*%
X103886000Y-108204000D03*
%TO.P,U2,25*%
%TO.N,/RX*%
X111506000Y-87884000D03*
%TO.P,U2,11*%
%TO.N,/LED*%
X103886000Y-105664000D03*
%TO.P,U2,24*%
%TO.N,N/C*%
X111506000Y-90424000D03*
%TO.P,U2,10*%
%TO.N,Net-(C3-Pad1)*%
X103886000Y-103124000D03*
%TO.P,U2,23*%
%TO.N,/Bp1*%
X111506000Y-92964000D03*
%TO.P,U2,9*%
%TO.N,Net-(C2-Pad1)*%
X103886000Y-100584000D03*
%TO.P,U2,22*%
%TO.N,N/C*%
X111506000Y-95504000D03*
%TO.P,U2,8*%
%TO.N,GND*%
X103886000Y-98044000D03*
%TO.P,U2,21*%
%TO.N,N/C*%
X111506000Y-98044000D03*
%TO.P,U2,7*%
%TO.N,/Rel1*%
X103886000Y-95504000D03*
%TO.P,U2,20*%
%TO.N,/VDD*%
X111506000Y-100584000D03*
%TO.P,U2,6*%
%TO.N,Net-(C5-Pad1)*%
X103886000Y-92964000D03*
%TO.P,U2,19*%
%TO.N,GND*%
X111506000Y-103124000D03*
%TO.P,U2,5*%
%TO.N,N/C*%
X103886000Y-90424000D03*
%TO.P,U2,18*%
%TO.N,Net-(R7-Pad2)*%
X111506000Y-105664000D03*
%TO.P,U2,4*%
%TO.N,N/C*%
X103886000Y-87884000D03*
%TO.P,U2,17*%
%TO.N,Net-(R6-Pad2)*%
X111506000Y-108204000D03*
%TO.P,U2,3*%
%TO.N,N/C*%
X103886000Y-85344000D03*
%TO.P,U2,16*%
X111506000Y-110744000D03*
%TO.P,U2,2*%
X103886000Y-82804000D03*
%TO.P,U2,15*%
%TO.N,/SDA*%
X111506000Y-113284000D03*
D13*
%TO.P,U2,1*%
%TO.N,/MCLR*%
X103886000Y-80264000D03*
%TD*%
D23*
%TO.P,U1,1*%
%TO.N,/VCC*%
X107696000Y-120650000D03*
D20*
%TO.P,U1,3*%
%TO.N,/12VR*%
X112776000Y-120650000D03*
%TO.P,U1,2*%
%TO.N,GND*%
X110236000Y-120650000D03*
%TD*%
D24*
%TO.P,SW1,3*%
%TO.N,GND*%
X120106000Y-94678000D03*
%TO.P,SW1,4*%
X120106000Y-86678000D03*
%TO.P,SW1,1*%
%TO.N,/Bp1*%
X115606000Y-94678000D03*
%TO.P,SW1,2*%
X115606000Y-86678000D03*
%TD*%
%TO.P,R7,2*%
%TO.N,Net-(R7-Pad2)*%
%TA.AperFunction,SMDPad,CuDef*%
G36*
G01*
X118980000Y-107499999D02*
X118980000Y-108400001D01*
G75*
G02*
X118730001Y-108650000I-249999J0D01*
G01*
X118029999Y-108650000D01*
G75*
G02*
X117780000Y-108400001I0J249999D01*
G01*
X117780000Y-107499999D01*
G75*
G02*
X118029999Y-107250000I249999J0D01*
G01*
X118730001Y-107250000D01*
G75*
G02*
X118980000Y-107499999I0J-249999D01*
G01*
G37*
%TD.AperFunction*%
%TO.P,R7,1*%
%TO.N,/RX1*%
%TA.AperFunction,SMDPad,CuDef*%
G36*
G01*
X120980000Y-107499999D02*
X120980000Y-108400001D01*
G75*
G02*
X120730001Y-108650000I-249999J0D01*
G01*
X120029999Y-108650000D01*
G75*
G02*
X119780000Y-108400001I0J249999D01*
G01*
X119780000Y-107499999D01*
G75*
G02*
X120029999Y-107250000I249999J0D01*
G01*
X120730001Y-107250000D01*
G75*
G02*
X120980000Y-107499999I0J-249999D01*
G01*
G37*
%TD.AperFunction*%
%TD*%
%TO.P,R4,2*%
%TO.N,Net-(R4-Pad2)*%
%TA.AperFunction,SMDPad,CuDef*%
G36*
G01*
X118980000Y-102419999D02*
X118980000Y-103320001D01*
G75*
G02*
X118730001Y-103570000I-249999J0D01*
G01*
X118029999Y-103570000D01*
G75*
G02*
X117780000Y-103320001I0J249999D01*
G01*
X117780000Y-102419999D01*
G75*
G02*
X118029999Y-102170000I249999J0D01*
G01*
X118730001Y-102170000D01*
G75*
G02*
X118980000Y-102419999I0J-249999D01*
G01*
G37*
%TD.AperFunction*%
%TO.P,R4,1*%
%TO.N,/RTS*%
%TA.AperFunction,SMDPad,CuDef*%
G36*
G01*
X120980000Y-102419999D02*
X120980000Y-103320001D01*
G75*
G02*
X120730001Y-103570000I-249999J0D01*
G01*
X120029999Y-103570000D01*
G75*
G02*
X119780000Y-103320001I0J249999D01*
G01*
X119780000Y-102419999D01*
G75*
G02*
X120029999Y-102170000I249999J0D01*
G01*
X120730001Y-102170000D01*
G75*
G02*
X120980000Y-102419999I0J-249999D01*
G01*
G37*
%TD.AperFunction*%
%TD*%
D16*
%TO.P,R3,2*%
%TO.N,Net-(R3-Pad2)*%
X123190000Y-86360000D03*
D17*
%TO.P,R3,1*%
%TO.N,/SDA*%
X123190000Y-88900000D03*
%TD*%
D23*
%TO.P,Q1,1*%
%TO.N,Net-(C7-Pad2)*%
X100076000Y-89154000D03*
D20*
%TO.P,Q1,3*%
%TO.N,GND*%
X100076000Y-84074000D03*
%TO.P,Q1,2*%
%TO.N,/Rel1*%
X100076000Y-86614000D03*
%TD*%
%TO.P,K1,12*%
%TO.N,Net-(C7-Pad2)*%
X86614000Y-87122000D03*
%TO.P,K1,10*%
%TO.N,N/C*%
X86614000Y-92202000D03*
%TO.P,K1,9*%
X86614000Y-94742000D03*
%TO.P,K1,8*%
X86614000Y-97282000D03*
%TO.P,K1,5*%
%TO.N,Net-(J7-Pad1)*%
X81534000Y-97282000D03*
%TO.P,K1,4*%
%TO.N,Net-(J7-Pad2)*%
X81534000Y-94742000D03*
%TO.P,K1,3*%
%TO.N,N/C*%
X81534000Y-92202000D03*
%TO.P,K1,1*%
%TO.N,/12VR*%
%TA.AperFunction,ComponentPad*%
G36*
G01*
X80784000Y-87621500D02*
X80784000Y-86622500D01*
G75*
G02*
X81034500Y-86372000I250500J0D01*
G01*
X82033500Y-86372000D01*
G75*
G02*
X82284000Y-86622500I0J-250500D01*
G01*
X82284000Y-87621500D01*
G75*
G02*
X82033500Y-87872000I-250500J0D01*
G01*
X81034500Y-87872000D01*
G75*
G02*
X80784000Y-87621500I0J250500D01*
G01*
G37*
%TD.AperFunction*%
%TD*%
D11*
%TO.P,J8,1*%
%TO.N,/RX*%
X99060000Y-111760000D03*
%TD*%
D25*
%TO.P,J7,2*%
%TO.N,Net-(J7-Pad2)*%
X84074000Y-104394000D03*
D26*
%TO.P,J7,1*%
%TO.N,Net-(J7-Pad1)*%
X84074000Y-109474000D03*
%TD*%
D25*
%TO.P,J6,2*%
%TO.N,/ANT*%
X84074000Y-114808000D03*
D26*
%TO.P,J6,1*%
%TO.N,GND*%
X84074000Y-119888000D03*
%TD*%
D10*
%TO.P,J5,6*%
%TO.N,N/C*%
X123190000Y-115570000D03*
%TO.P,J5,5*%
%TO.N,GND*%
X123190000Y-113030000D03*
%TO.P,J5,4*%
%TO.N,/TX1*%
X123190000Y-110490000D03*
%TO.P,J5,3*%
%TO.N,/RX1*%
X123190000Y-107950000D03*
%TO.P,J5,2*%
%TO.N,/CTS*%
X123190000Y-105410000D03*
D11*
%TO.P,J5,1*%
%TO.N,/RTS*%
X123190000Y-102870000D03*
%TD*%
D10*
%TO.P,J4,4*%
%TO.N,/VDD*%
X89916000Y-111760000D03*
%TO.P,J4,3*%
%TO.N,/RX*%
X89916000Y-114300000D03*
%TO.P,J4,2*%
X89916000Y-116840000D03*
D11*
%TO.P,J4,1*%
%TO.N,GND*%
X89916000Y-119380000D03*
%TD*%
D10*
%TO.P,J3,4*%
%TO.N,/ANT*%
X89916000Y-78994000D03*
%TO.P,J3,3*%
%TO.N,GND*%
X89916000Y-81534000D03*
%TO.P,J3,2*%
X89916000Y-84074000D03*
D11*
%TO.P,J3,1*%
%TO.N,/VDD*%
X89916000Y-86614000D03*
%TD*%
D10*
%TO.P,J2,2*%
%TO.N,GND*%
X82550000Y-78740000D03*
D11*
%TO.P,J2,1*%
%TO.N,Net-(D3-Pad2)*%
X85090000Y-78740000D03*
%TD*%
D18*
%TO.P,D6,2*%
%TO.N,Net-(C7-Pad2)*%
X85852000Y-83312000D03*
D19*
%TO.P,D6,1*%
%TO.N,/12VR*%
X83312000Y-83312000D03*
%TD*%
D27*
%TO.P,D4,2*%
%TO.N,/VDD*%
X109728000Y-76200000D03*
D28*
%TO.P,D4,1*%
%TO.N,Net-(D4-Pad1)*%
X107188000Y-76200000D03*
%TD*%
D18*
%TO.P,D2,2*%
%TO.N,/TVDD*%
X100584000Y-81280000D03*
D19*
%TO.P,D2,1*%
%TO.N,/VDD*%
X100584000Y-78740000D03*
%TD*%
D17*
%TO.P,C3,2*%
%TO.N,GND*%
X97536000Y-91734000D03*
%TO.P,C3,1*%
%TO.N,Net-(C3-Pad1)*%
X97536000Y-94234000D03*
%TD*%
%TO.P,C2,2*%
%TO.N,GND*%
X100584000Y-91734000D03*
%TO.P,C2,1*%
%TO.N,Net-(C2-Pad1)*%
X100584000Y-94234000D03*
%TD*%
D29*
%TO.N,GND*%
X120142000Y-92710000D03*
X117348000Y-71374000D03*
%TO.N,Net-(D4-Pad1)*%
X101854000Y-76200000D03*
%TO.N,Net-(R5-Pad2)*%
X115570000Y-109982000D03*
%TO.N,/VDD*%
X96774000Y-83058000D03*
%TD*%
D30*
%TO.N,GND*%
X122174000Y-113030000D02*
X123190000Y-113030000D01*
X116840000Y-118364000D02*
X122174000Y-113030000D01*
X112522000Y-118364000D02*
X116840000Y-118364000D01*
X110236000Y-120650000D02*
X112522000Y-118364000D01*
X104394000Y-98044000D02*
X104902000Y-98044000D01*
X120142000Y-94642000D02*
X120106000Y-94678000D01*
X120142000Y-92710000D02*
X120142000Y-94642000D01*
X101600000Y-70612000D02*
X91694000Y-70612000D01*
X101600000Y-72136000D02*
X101600000Y-70612000D01*
X119096000Y-72390000D02*
X118364000Y-72390000D01*
X116586000Y-70612000D02*
X101600000Y-70612000D01*
X117348000Y-71374000D02*
X116586000Y-70612000D01*
X118364000Y-72390000D02*
X117348000Y-71374000D01*
%TO.N,Net-(D3-Pad2)*%
X85090000Y-78740000D02*
X85090000Y-78486000D01*
X94742000Y-96266000D02*
X93218000Y-94742000D01*
X93218000Y-94742000D02*
X93218000Y-77978000D01*
X94742000Y-102870000D02*
X94742000Y-96266000D01*
X91186000Y-75946000D02*
X93218000Y-77978000D01*
X87630000Y-75946000D02*
X91186000Y-75946000D01*
X85090000Y-78486000D02*
X87630000Y-75946000D01*
D31*
%TO.N,Net-(D4-Pad1)*%
X101854000Y-76200000D02*
X100060000Y-76200000D01*
%TO.N,/PGC*%
X113538000Y-81788000D02*
X113538000Y-76962000D01*
X113538000Y-76962000D02*
X110744000Y-74168000D01*
X110744000Y-74168000D02*
X107696000Y-74168000D01*
X106680000Y-73152000D02*
X106680000Y-72136000D01*
X107696000Y-74168000D02*
X106680000Y-73152000D01*
X112522000Y-82804000D02*
X113538000Y-81788000D01*
X111506000Y-82804000D02*
X112522000Y-82804000D01*
%TO.N,/PGD*%
X104140000Y-76200000D02*
X104140000Y-72136000D01*
X108204000Y-80264000D02*
X104140000Y-76200000D01*
X111506000Y-80264000D02*
X108204000Y-80264000D01*
%TO.N,/MCLR*%
X96520000Y-73152000D02*
X97282000Y-73914000D01*
X97282000Y-73914000D02*
X102362000Y-73914000D01*
X102362000Y-73914000D02*
X103124000Y-74676000D01*
X96520000Y-72136000D02*
X96520000Y-73152000D01*
X103886000Y-78740000D02*
X103124000Y-77978000D01*
X103886000Y-80264000D02*
X103886000Y-78740000D01*
X103124000Y-74676000D02*
X103124000Y-77978000D01*
D30*
%TO.N,/ANT*%
X88138000Y-80772000D02*
X89916000Y-78994000D01*
X88138000Y-89154000D02*
X88138000Y-80772000D01*
X88646000Y-89662000D02*
X88138000Y-89154000D01*
X88646000Y-98044000D02*
X88646000Y-89662000D01*
X87376000Y-99314000D02*
X88646000Y-98044000D01*
X87376000Y-113030000D02*
X87376000Y-99314000D01*
X85598000Y-114808000D02*
X87376000Y-113030000D01*
X84074000Y-114808000D02*
X85598000Y-114808000D01*
D31*
%TO.N,/RX*%
X111506000Y-87884000D02*
X109474000Y-87884000D01*
X109474000Y-87884000D02*
X107188000Y-90170000D01*
X107188000Y-90170000D02*
X107188000Y-103378000D01*
X107188000Y-103378000D02*
X106172000Y-104394000D01*
X106172000Y-104394000D02*
X106172000Y-106426000D01*
X106172000Y-106426000D02*
X105664000Y-106934000D01*
X105664000Y-106934000D02*
X100076000Y-106934000D01*
X99060000Y-107950000D02*
X99060000Y-111760000D01*
X100076000Y-106934000D02*
X99060000Y-107950000D01*
%TO.N,/TX1*%
X120888000Y-110490000D02*
X123190000Y-110490000D01*
%TO.N,/RX1*%
X120888000Y-107950000D02*
X123190000Y-107950000D01*
%TO.N,/RTS*%
X120126000Y-102870000D02*
X123190000Y-102870000D01*
D30*
%TO.N,Net-(J7-Pad2)*%
X84074000Y-104394000D02*
X84074000Y-96774000D01*
X82042000Y-94742000D02*
X81534000Y-94742000D01*
X84074000Y-96774000D02*
X82042000Y-94742000D01*
%TO.N,Net-(J7-Pad1)*%
X84074000Y-109474000D02*
X83820000Y-109474000D01*
X81534000Y-107188000D02*
X81534000Y-97282000D01*
X83820000Y-109474000D02*
X81534000Y-107188000D01*
D31*
%TO.N,/Rel1*%
X103632000Y-95504000D02*
X104394000Y-95504000D01*
X103886000Y-95504000D02*
X102870000Y-95504000D01*
X100195990Y-86733990D02*
X100076000Y-86614000D01*
X106172000Y-94488000D02*
X105156000Y-95504000D01*
X106172000Y-87122000D02*
X106172000Y-94488000D01*
X105664000Y-86614000D02*
X106172000Y-87122000D01*
X100076000Y-86614000D02*
X105664000Y-86614000D01*
X103886000Y-95504000D02*
X105156000Y-95504000D01*
%TO.N,/LED*%
X98298000Y-105664000D02*
X103886000Y-105664000D01*
X96774000Y-104140000D02*
X98298000Y-105664000D01*
X96774000Y-97536000D02*
X96774000Y-104140000D01*
X95504000Y-96266000D02*
X96774000Y-97536000D01*
X95504000Y-77724000D02*
X95504000Y-96266000D01*
X97028000Y-76200000D02*
X95504000Y-77724000D01*
X98060000Y-76200000D02*
X97028000Y-76200000D01*
%TO.N,Net-(R2-Pad2)*%
X120650000Y-98044000D02*
X119380000Y-98044000D01*
X119380000Y-98044000D02*
X118110000Y-96774000D01*
X118110000Y-96774000D02*
X118110000Y-83312000D01*
X120396000Y-81026000D02*
X123190000Y-81026000D01*
X118110000Y-83312000D02*
X120396000Y-81026000D01*
%TO.N,/SDA*%
X112030000Y-113268000D02*
X112014000Y-113284000D01*
%TO.N,Net-(R4-Pad2)*%
X104648000Y-108204000D02*
X104394000Y-108204000D01*
X118126000Y-102870000D02*
X118110000Y-102870000D01*
X114300000Y-104394000D02*
X115824000Y-102870000D01*
X108458000Y-104394000D02*
X114300000Y-104394000D01*
X107696000Y-105156000D02*
X108458000Y-104394000D01*
X107696000Y-106934000D02*
X107696000Y-105156000D01*
X106426000Y-108204000D02*
X107696000Y-106934000D01*
X118380000Y-102870000D02*
X115824000Y-102870000D01*
X103886000Y-108204000D02*
X106426000Y-108204000D01*
%TO.N,Net-(R5-Pad2)*%
X107950000Y-110744000D02*
X103886000Y-110744000D01*
X109220000Y-109474000D02*
X107950000Y-110744000D01*
X114046000Y-109474000D02*
X109220000Y-109474000D01*
X114554000Y-109982000D02*
X114046000Y-109474000D01*
X115570000Y-109982000D02*
X114554000Y-109982000D01*
%TO.N,Net-(R6-Pad2)*%
X118110000Y-110490000D02*
X118380000Y-110490000D01*
X115824000Y-108204000D02*
X118110000Y-110490000D01*
X111506000Y-108204000D02*
X115824000Y-108204000D01*
%TO.N,Net-(R7-Pad2)*%
X118126000Y-107950000D02*
X116840000Y-107950000D01*
X116840000Y-107950000D02*
X115062000Y-106172000D01*
X115062000Y-106172000D02*
X114046000Y-106172000D01*
X114046000Y-106172000D02*
X113538000Y-105664000D01*
X111506000Y-105664000D02*
X113538000Y-105664000D01*
%TO.N,/Bp1*%
X115606000Y-93762000D02*
X115606000Y-94678000D01*
X115388000Y-92964000D02*
X115606000Y-93182000D01*
X111506000Y-92964000D02*
X115388000Y-92964000D01*
X115606000Y-93182000D02*
X115606000Y-94678000D01*
X115606000Y-86678000D02*
X115606000Y-93182000D01*
D30*
%TO.N,/VDD*%
X116332000Y-99568000D02*
X116078000Y-99568000D01*
X123190000Y-73184000D02*
X122396000Y-72390000D01*
X123190000Y-75946000D02*
X123190000Y-73184000D01*
X121696000Y-72390000D02*
X122396000Y-72390000D01*
X89916000Y-111760000D02*
X89916000Y-98552000D01*
X89916000Y-98552000D02*
X89916000Y-86614000D01*
X96774000Y-83058000D02*
X96774000Y-80010000D01*
X98044000Y-78740000D02*
X100584000Y-78740000D01*
X96774000Y-80010000D02*
X98044000Y-78740000D01*
D31*
%TO.N,Net-(JP1-Pad2)*%
X121412000Y-78486000D02*
X123190000Y-78486000D01*
X120396000Y-77470000D02*
X121412000Y-78486000D01*
X120396000Y-72390000D02*
X120396000Y-77470000D01*
%TD*%
D32*
%TO.N,GND*%
X82019369Y-70941331D02*
X81850890Y-71348075D01*
X81765000Y-71779872D01*
X81765000Y-72220128D01*
X81850890Y-72651925D01*
X82019369Y-73058669D01*
X82263962Y-73424729D01*
X82575271Y-73736038D01*
X82941331Y-73980631D01*
X83348075Y-74149110D01*
X83779872Y-74235000D01*
X84220128Y-74235000D01*
X84651925Y-74149110D01*
X85058669Y-73980631D01*
X85424729Y-73736038D01*
X85736038Y-73424729D01*
X85980631Y-73058669D01*
X86149110Y-72651925D01*
X86235000Y-72220128D01*
X86235000Y-71779872D01*
X86149110Y-71348075D01*
X85980631Y-70941331D01*
X85792652Y-70660000D01*
X95547427Y-70660000D01*
X95545518Y-70660188D01*
X95425820Y-70696498D01*
X95315506Y-70755463D01*
X95218815Y-70834815D01*
X95139463Y-70931506D01*
X95080498Y-71041820D01*
X95044188Y-71161518D01*
X95031928Y-71286000D01*
X95031928Y-72986000D01*
X95044188Y-73110482D01*
X95080498Y-73230180D01*
X95139463Y-73340494D01*
X95218815Y-73437185D01*
X95315506Y-73516537D01*
X95425820Y-73575502D01*
X95545518Y-73611812D01*
X95670000Y-73624072D01*
X95891910Y-73624072D01*
X95904690Y-73639644D01*
X95937655Y-73679812D01*
X95937659Y-73679816D01*
X95962237Y-73709764D01*
X95992185Y-73734342D01*
X96699653Y-74441810D01*
X96724236Y-74471764D01*
X96843767Y-74569862D01*
X96929082Y-74615463D01*
X96980140Y-74642754D01*
X97128113Y-74687642D01*
X97200949Y-74694815D01*
X97243439Y-74699000D01*
X97243444Y-74699000D01*
X97282000Y-74702797D01*
X97320556Y-74699000D01*
X102036843Y-74699000D01*
X102339000Y-75001157D01*
X102339000Y-75280618D01*
X102155898Y-75204774D01*
X101955939Y-75165000D01*
X101752061Y-75165000D01*
X101552102Y-75204774D01*
X101363744Y-75282795D01*
X101215386Y-75381925D01*
X101148405Y-75256613D01*
X101037962Y-75122038D01*
X100903387Y-75011595D01*
X100749851Y-74929528D01*
X100583255Y-74878992D01*
X100410001Y-74861928D01*
X99709999Y-74861928D01*
X99536745Y-74878992D01*
X99370149Y-74929528D01*
X99216613Y-75011595D01*
X99082038Y-75122038D01*
X99060000Y-75148891D01*
X99037962Y-75122038D01*
X98903387Y-75011595D01*
X98749851Y-74929528D01*
X98583255Y-74878992D01*
X98410001Y-74861928D01*
X97709999Y-74861928D01*
X97536745Y-74878992D01*
X97370149Y-74929528D01*
X97216613Y-75011595D01*
X97082038Y-75122038D01*
X96971595Y-75256613D01*
X96889528Y-75410149D01*
X96884934Y-75425293D01*
X96874112Y-75426359D01*
X96839672Y-75436806D01*
X96726140Y-75471246D01*
X96589767Y-75544138D01*
X96550036Y-75576745D01*
X96500187Y-75617655D01*
X96500184Y-75617658D01*
X96470236Y-75642236D01*
X96445658Y-75672184D01*
X94976190Y-77141653D01*
X94946236Y-77166236D01*
X94848138Y-77285768D01*
X94775246Y-77422141D01*
X94730359Y-77570114D01*
X94719000Y-77685440D01*
X94719000Y-77685447D01*
X94715203Y-77724000D01*
X94719000Y-77762553D01*
X94719001Y-95026778D01*
X94078000Y-94385777D01*
X94078000Y-78020239D01*
X94082160Y-77978000D01*
X94078000Y-77935761D01*
X94078000Y-77935754D01*
X94065556Y-77809411D01*
X94016381Y-77647300D01*
X93936524Y-77497898D01*
X93829054Y-77366946D01*
X93796241Y-77340017D01*
X91823988Y-75367765D01*
X91797054Y-75334946D01*
X91666102Y-75227476D01*
X91516700Y-75147619D01*
X91354589Y-75098444D01*
X91228246Y-75086000D01*
X91228239Y-75086000D01*
X91186000Y-75081840D01*
X91143761Y-75086000D01*
X87672238Y-75086000D01*
X87629999Y-75081840D01*
X87587760Y-75086000D01*
X87587754Y-75086000D01*
X87492538Y-75095378D01*
X87461409Y-75098444D01*
X87385950Y-75121335D01*
X87299300Y-75147619D01*
X87149898Y-75227476D01*
X87018946Y-75334946D01*
X86992012Y-75367765D01*
X85107849Y-77251928D01*
X84240000Y-77251928D01*
X84115518Y-77264188D01*
X83995820Y-77300498D01*
X83885506Y-77359463D01*
X83788815Y-77438815D01*
X83709463Y-77535506D01*
X83650498Y-77645820D01*
X83626034Y-77726466D01*
X83550269Y-77642412D01*
X83316920Y-77468359D01*
X83054099Y-77343175D01*
X82906890Y-77298524D01*
X82677000Y-77419845D01*
X82677000Y-78613000D01*
X82697000Y-78613000D01*
X82697000Y-78867000D01*
X82677000Y-78867000D01*
X82677000Y-80060155D01*
X82906890Y-80181476D01*
X83054099Y-80136825D01*
X83316920Y-80011641D01*
X83550269Y-79837588D01*
X83626034Y-79753534D01*
X83650498Y-79834180D01*
X83709463Y-79944494D01*
X83788815Y-80041185D01*
X83885506Y-80120537D01*
X83995820Y-80179502D01*
X84115518Y-80215812D01*
X84240000Y-80228072D01*
X85940000Y-80228072D01*
X86064482Y-80215812D01*
X86184180Y-80179502D01*
X86294494Y-80120537D01*
X86391185Y-80041185D01*
X86470537Y-79944494D01*
X86529502Y-79834180D01*
X86565812Y-79714482D01*
X86578072Y-79590000D01*
X86578072Y-78214151D01*
X87986223Y-76806000D01*
X90829777Y-76806000D01*
X92358001Y-78334225D01*
X92358000Y-94699761D01*
X92353840Y-94742000D01*
X92358000Y-94784239D01*
X92358000Y-94784245D01*
X92364293Y-94848138D01*
X92370444Y-94910589D01*
X92383064Y-94952192D01*
X92419619Y-95072699D01*
X92499476Y-95222101D01*
X92606946Y-95353054D01*
X92639765Y-95379988D01*
X93882001Y-96622224D01*
X93882000Y-101357967D01*
X93636002Y-101522337D01*
X93394337Y-101764002D01*
X93204463Y-102048169D01*
X93073675Y-102363919D01*
X93007000Y-102699117D01*
X93007000Y-103040883D01*
X93073675Y-103376081D01*
X93204463Y-103691831D01*
X93394337Y-103975998D01*
X93636002Y-104217663D01*
X93920169Y-104407537D01*
X94235919Y-104538325D01*
X94571117Y-104605000D01*
X94912883Y-104605000D01*
X95248081Y-104538325D01*
X95563831Y-104407537D01*
X95847998Y-104217663D01*
X95989001Y-104076660D01*
X95989001Y-104101437D01*
X95985203Y-104140000D01*
X96000359Y-104293886D01*
X96045246Y-104441859D01*
X96076397Y-104500138D01*
X96118139Y-104578233D01*
X96158690Y-104627644D01*
X96191655Y-104667812D01*
X96191659Y-104667816D01*
X96216237Y-104697764D01*
X96246185Y-104722342D01*
X97715658Y-106191816D01*
X97740236Y-106221764D01*
X97770184Y-106246342D01*
X97770187Y-106246345D01*
X97799559Y-106270450D01*
X97859767Y-106319862D01*
X97996140Y-106392754D01*
X98105741Y-106426001D01*
X98144112Y-106437641D01*
X98158490Y-106439057D01*
X98259439Y-106449000D01*
X98259446Y-106449000D01*
X98297999Y-106452797D01*
X98336552Y-106449000D01*
X99450842Y-106449000D01*
X98532190Y-107367653D01*
X98502236Y-107392236D01*
X98404138Y-107511768D01*
X98331246Y-107648141D01*
X98286359Y-107796114D01*
X98275000Y-107911440D01*
X98275000Y-107911447D01*
X98271203Y-107950000D01*
X98275000Y-107988553D01*
X98275001Y-110271928D01*
X98210000Y-110271928D01*
X98085518Y-110284188D01*
X97965820Y-110320498D01*
X97855506Y-110379463D01*
X97758815Y-110458815D01*
X97679463Y-110555506D01*
X97620498Y-110665820D01*
X97584188Y-110785518D01*
X97571928Y-110910000D01*
X97571928Y-112610000D01*
X97584188Y-112734482D01*
X97620498Y-112854180D01*
X97679463Y-112964494D01*
X97758815Y-113061185D01*
X97855506Y-113140537D01*
X97965820Y-113199502D01*
X98085518Y-113235812D01*
X98210000Y-113248072D01*
X99910000Y-113248072D01*
X100034482Y-113235812D01*
X100154180Y-113199502D01*
X100264494Y-113140537D01*
X100361185Y-113061185D01*
X100440537Y-112964494D01*
X100499502Y-112854180D01*
X100535812Y-112734482D01*
X100548072Y-112610000D01*
X100548072Y-110910000D01*
X100535812Y-110785518D01*
X100499502Y-110665820D01*
X100440537Y-110555506D01*
X100361185Y-110458815D01*
X100264494Y-110379463D01*
X100154180Y-110320498D01*
X100034482Y-110284188D01*
X99910000Y-110271928D01*
X99845000Y-110271928D01*
X99845000Y-108275157D01*
X100401158Y-107719000D01*
X102133552Y-107719000D01*
X102071764Y-107922691D01*
X102044057Y-108204000D01*
X102071764Y-108485309D01*
X102153818Y-108755808D01*
X102287068Y-109005101D01*
X102466392Y-109223608D01*
X102684899Y-109402932D01*
X102817858Y-109474000D01*
X102684899Y-109545068D01*
X102466392Y-109724392D01*
X102287068Y-109942899D01*
X102153818Y-110192192D01*
X102071764Y-110462691D01*
X102044057Y-110744000D01*
X102071764Y-111025309D01*
X102153818Y-111295808D01*
X102287068Y-111545101D01*
X102466392Y-111763608D01*
X102684899Y-111942932D01*
X102817858Y-112014000D01*
X102684899Y-112085068D01*
X102466392Y-112264392D01*
X102287068Y-112482899D01*
X102153818Y-112732192D01*
X102071764Y-113002691D01*
X102044057Y-113284000D01*
X102071764Y-113565309D01*
X102153818Y-113835808D01*
X102287068Y-114085101D01*
X102466392Y-114303608D01*
X102684899Y-114482932D01*
X102934192Y-114616182D01*
X103204691Y-114698236D01*
X103415508Y-114719000D01*
X104356492Y-114719000D01*
X104567309Y-114698236D01*
X104837808Y-114616182D01*
X105087101Y-114482932D01*
X105305608Y-114303608D01*
X105484932Y-114085101D01*
X105618182Y-113835808D01*
X105700236Y-113565309D01*
X105727943Y-113284000D01*
X105700236Y-113002691D01*
X105618182Y-112732192D01*
X105484932Y-112482899D01*
X105305608Y-112264392D01*
X105087101Y-112085068D01*
X104954142Y-112014000D01*
X105087101Y-111942932D01*
X105305608Y-111763608D01*
X105484932Y-111545101D01*
X105493538Y-111529000D01*
X107911447Y-111529000D01*
X107950000Y-111532797D01*
X107988553Y-111529000D01*
X107988561Y-111529000D01*
X108103887Y-111517641D01*
X108251860Y-111472754D01*
X108388233Y-111399862D01*
X108507764Y-111301764D01*
X108532347Y-111271810D01*
X109545158Y-110259000D01*
X109753552Y-110259000D01*
X109691764Y-110462691D01*
X109664057Y-110744000D01*
X109691764Y-111025309D01*
X109773818Y-111295808D01*
X109907068Y-111545101D01*
X110086392Y-111763608D01*
X110304899Y-111942932D01*
X110437858Y-112014000D01*
X110304899Y-112085068D01*
X110086392Y-112264392D01*
X109907068Y-112482899D01*
X109773818Y-112732192D01*
X109691764Y-113002691D01*
X109664057Y-113284000D01*
X109691764Y-113565309D01*
X109773818Y-113835808D01*
X109907068Y-114085101D01*
X110086392Y-114303608D01*
X110304899Y-114482932D01*
X110554192Y-114616182D01*
X110824691Y-114698236D01*
X111035508Y-114719000D01*
X111976492Y-114719000D01*
X112187309Y-114698236D01*
X112457808Y-114616182D01*
X112707101Y-114482932D01*
X112925608Y-114303608D01*
X113104932Y-114085101D01*
X113238182Y-113835808D01*
X113320236Y-113565309D01*
X113347943Y-113284000D01*
X113320236Y-113002691D01*
X113238182Y-112732192D01*
X113104932Y-112482899D01*
X112925608Y-112264392D01*
X112707101Y-112085068D01*
X112574142Y-112014000D01*
X112707101Y-111942932D01*
X112925608Y-111763608D01*
X113104932Y-111545101D01*
X113238182Y-111295808D01*
X113320236Y-111025309D01*
X113347943Y-110744000D01*
X113320236Y-110462691D01*
X113258448Y-110259000D01*
X113720843Y-110259000D01*
X113971653Y-110509810D01*
X113996236Y-110539764D01*
X114115767Y-110637862D01*
X114252140Y-110710754D01*
X114361738Y-110744000D01*
X114400112Y-110755641D01*
X114414490Y-110757057D01*
X114515439Y-110767000D01*
X114515446Y-110767000D01*
X114553999Y-110770797D01*
X114592552Y-110767000D01*
X114891289Y-110767000D01*
X114910226Y-110785937D01*
X114914686Y-110788917D01*
X114718002Y-110920337D01*
X114476337Y-111162002D01*
X114286463Y-111446169D01*
X114155675Y-111761919D01*
X114089000Y-112097117D01*
X114089000Y-112438883D01*
X114155675Y-112774081D01*
X114286463Y-113089831D01*
X114476337Y-113373998D01*
X114718002Y-113615663D01*
X115002169Y-113805537D01*
X115317919Y-113936325D01*
X115653117Y-114003000D01*
X115994883Y-114003000D01*
X116330081Y-113936325D01*
X116645831Y-113805537D01*
X116929998Y-113615663D01*
X117171663Y-113373998D01*
X117361537Y-113089831D01*
X117492325Y-112774081D01*
X117559000Y-112438883D01*
X117559000Y-112097117D01*
X117492325Y-111761919D01*
X117417108Y-111580330D01*
X117536613Y-111678405D01*
X117690149Y-111760472D01*
X117856745Y-111811008D01*
X118029999Y-111828072D01*
X118730001Y-111828072D01*
X118903255Y-111811008D01*
X119069851Y-111760472D01*
X119223387Y-111678405D01*
X119357962Y-111567962D01*
X119380000Y-111541109D01*
X119402038Y-111567962D01*
X119536613Y-111678405D01*
X119690149Y-111760472D01*
X119856745Y-111811008D01*
X120029999Y-111828072D01*
X120730001Y-111828072D01*
X120903255Y-111811008D01*
X121069851Y-111760472D01*
X121223387Y-111678405D01*
X121357962Y-111567962D01*
X121468405Y-111433387D01*
X121550472Y-111279851D01*
X121551944Y-111275000D01*
X121928526Y-111275000D01*
X122036525Y-111436632D01*
X122243368Y-111643475D01*
X122425534Y-111765195D01*
X122308645Y-111834822D01*
X122092412Y-112029731D01*
X121918359Y-112263080D01*
X121793175Y-112525901D01*
X121748524Y-112673110D01*
X121869845Y-112903000D01*
X123063000Y-112903000D01*
X123063000Y-112883000D01*
X123317000Y-112883000D01*
X123317000Y-112903000D01*
X123337000Y-112903000D01*
X123337000Y-113157000D01*
X123317000Y-113157000D01*
X123317000Y-113177000D01*
X123063000Y-113177000D01*
X123063000Y-113157000D01*
X121869845Y-113157000D01*
X121748524Y-113386890D01*
X121793175Y-113534099D01*
X121918359Y-113796920D01*
X122092412Y-114030269D01*
X122308645Y-114225178D01*
X122425534Y-114294805D01*
X122243368Y-114416525D01*
X122036525Y-114623368D01*
X121874010Y-114866589D01*
X121762068Y-115136842D01*
X121705000Y-115423740D01*
X121705000Y-115716260D01*
X121762068Y-116003158D01*
X121874010Y-116273411D01*
X122036525Y-116516632D01*
X122243368Y-116723475D01*
X122486589Y-116885990D01*
X122756842Y-116997932D01*
X123043740Y-117055000D01*
X123336260Y-117055000D01*
X123623158Y-116997932D01*
X123893411Y-116885990D01*
X124136632Y-116723475D01*
X124340001Y-116520106D01*
X124340001Y-122340000D01*
X122792652Y-122340000D01*
X122980631Y-122058669D01*
X123149110Y-121651925D01*
X123235000Y-121220128D01*
X123235000Y-120779872D01*
X123149110Y-120348075D01*
X122980631Y-119941331D01*
X122736038Y-119575271D01*
X122424729Y-119263962D01*
X122058669Y-119019369D01*
X121651925Y-118850890D01*
X121220128Y-118765000D01*
X120779872Y-118765000D01*
X120348075Y-118850890D01*
X119941331Y-119019369D01*
X119575271Y-119263962D01*
X119263962Y-119575271D01*
X119019369Y-119941331D01*
X118850890Y-120348075D01*
X118765000Y-120779872D01*
X118765000Y-121220128D01*
X118850890Y-121651925D01*
X119019369Y-122058669D01*
X119207348Y-122340000D01*
X104243998Y-122340000D01*
X104251963Y-122333463D01*
X104450345Y-122091734D01*
X104597755Y-121815948D01*
X104688530Y-121516703D01*
X104711500Y-121283485D01*
X104711500Y-121032514D01*
X104688530Y-120799296D01*
X104597755Y-120500051D01*
X104450345Y-120224265D01*
X104251963Y-119982537D01*
X104151392Y-119900000D01*
X106307928Y-119900000D01*
X106307928Y-121400000D01*
X106320188Y-121524482D01*
X106356498Y-121644180D01*
X106415463Y-121754494D01*
X106494815Y-121851185D01*
X106591506Y-121930537D01*
X106701820Y-121989502D01*
X106821518Y-122025812D01*
X106946000Y-122038072D01*
X108446000Y-122038072D01*
X108570482Y-122025812D01*
X108690180Y-121989502D01*
X108800494Y-121930537D01*
X108897185Y-121851185D01*
X108976537Y-121754494D01*
X109035502Y-121644180D01*
X109046782Y-121606993D01*
X109458612Y-121606993D01*
X109524137Y-121845860D01*
X109771116Y-121961760D01*
X110035960Y-122027250D01*
X110308492Y-122039812D01*
X110578238Y-121998965D01*
X110834832Y-121906277D01*
X110947863Y-121845860D01*
X111013388Y-121606993D01*
X110236000Y-120829605D01*
X109458612Y-121606993D01*
X109046782Y-121606993D01*
X109071812Y-121524482D01*
X109084072Y-121400000D01*
X109084072Y-121373914D01*
X109279007Y-121427388D01*
X110056395Y-120650000D01*
X110415605Y-120650000D01*
X111192993Y-121427388D01*
X111431860Y-121361863D01*
X111506164Y-121203523D01*
X111548629Y-121306043D01*
X111700201Y-121532886D01*
X111893114Y-121725799D01*
X112119957Y-121877371D01*
X112372011Y-121981775D01*
X112639589Y-122035000D01*
X112912411Y-122035000D01*
X113179989Y-121981775D01*
X113432043Y-121877371D01*
X113658886Y-121725799D01*
X113851799Y-121532886D01*
X114003371Y-121306043D01*
X114107775Y-121053989D01*
X114161000Y-120786411D01*
X114161000Y-120660937D01*
X114286463Y-120963831D01*
X114476337Y-121247998D01*
X114718002Y-121489663D01*
X115002169Y-121679537D01*
X115317919Y-121810325D01*
X115653117Y-121877000D01*
X115994883Y-121877000D01*
X116330081Y-121810325D01*
X116645831Y-121679537D01*
X116929998Y-121489663D01*
X117171663Y-121247998D01*
X117361537Y-120963831D01*
X117492325Y-120648081D01*
X117559000Y-120312883D01*
X117559000Y-119971117D01*
X117492325Y-119635919D01*
X117361537Y-119320169D01*
X117171663Y-119036002D01*
X116929998Y-118794337D01*
X116645831Y-118604463D01*
X116330081Y-118473675D01*
X115994883Y-118407000D01*
X115653117Y-118407000D01*
X115317919Y-118473675D01*
X115002169Y-118604463D01*
X114718002Y-118794337D01*
X114476337Y-119036002D01*
X114286463Y-119320169D01*
X114155675Y-119635919D01*
X114089000Y-119971117D01*
X114089000Y-120200684D01*
X114003371Y-119993957D01*
X113851799Y-119767114D01*
X113658886Y-119574201D01*
X113432043Y-119422629D01*
X113179989Y-119318225D01*
X112912411Y-119265000D01*
X112639589Y-119265000D01*
X112372011Y-119318225D01*
X112119957Y-119422629D01*
X111893114Y-119574201D01*
X111700201Y-119767114D01*
X111548629Y-119993957D01*
X111507489Y-120093279D01*
X111492277Y-120051168D01*
X111431860Y-119938137D01*
X111192993Y-119872612D01*
X110415605Y-120650000D01*
X110056395Y-120650000D01*
X109279007Y-119872612D01*
X109084072Y-119926086D01*
X109084072Y-119900000D01*
X109071812Y-119775518D01*
X109046783Y-119693007D01*
X109458612Y-119693007D01*
X110236000Y-120470395D01*
X111013388Y-119693007D01*
X110947863Y-119454140D01*
X110700884Y-119338240D01*
X110436040Y-119272750D01*
X110163508Y-119260188D01*
X109893762Y-119301035D01*
X109637168Y-119393723D01*
X109524137Y-119454140D01*
X109458612Y-119693007D01*
X109046783Y-119693007D01*
X109035502Y-119655820D01*
X108976537Y-119545506D01*
X108897185Y-119448815D01*
X108800494Y-119369463D01*
X108690180Y-119310498D01*
X108570482Y-119274188D01*
X108446000Y-119261928D01*
X106946000Y-119261928D01*
X106821518Y-119274188D01*
X106701820Y-119310498D01*
X106591506Y-119369463D01*
X106494815Y-119448815D01*
X106415463Y-119545506D01*
X106356498Y-119655820D01*
X106320188Y-119775518D01*
X106307928Y-119900000D01*
X104151392Y-119900000D01*
X104010234Y-119784155D01*
X103734448Y-119636745D01*
X103435203Y-119545970D01*
X103124000Y-119515319D01*
X102812796Y-119545970D01*
X102513551Y-119636745D01*
X102237765Y-119784155D01*
X101996037Y-119982537D01*
X101848838Y-120161900D01*
X101693437Y-119976685D01*
X101450923Y-119782031D01*
X101175094Y-119638429D01*
X100956980Y-119567437D01*
X100711000Y-119687406D01*
X100711000Y-121031000D01*
X100731000Y-121031000D01*
X100731000Y-121285000D01*
X100711000Y-121285000D01*
X100711000Y-121305000D01*
X100457000Y-121305000D01*
X100457000Y-121285000D01*
X100437000Y-121285000D01*
X100437000Y-121031000D01*
X100457000Y-121031000D01*
X100457000Y-119687406D01*
X100211020Y-119567437D01*
X99992906Y-119638429D01*
X99717077Y-119782031D01*
X99576059Y-119895219D01*
X99527037Y-119803506D01*
X99447685Y-119706815D01*
X99350994Y-119627463D01*
X99240680Y-119568498D01*
X99120982Y-119532188D01*
X98996500Y-119519928D01*
X97091500Y-119519928D01*
X96967018Y-119532188D01*
X96847320Y-119568498D01*
X96737006Y-119627463D01*
X96640315Y-119706815D01*
X96560963Y-119803506D01*
X96501998Y-119913820D01*
X96465688Y-120033518D01*
X96453428Y-120158000D01*
X96453428Y-122158000D01*
X96465688Y-122282482D01*
X96483136Y-122340000D01*
X80660000Y-122340000D01*
X80660000Y-121388000D01*
X81935928Y-121388000D01*
X81948188Y-121512482D01*
X81984498Y-121632180D01*
X82043463Y-121742494D01*
X82122815Y-121839185D01*
X82219506Y-121918537D01*
X82329820Y-121977502D01*
X82449518Y-122013812D01*
X82574000Y-122026072D01*
X83788250Y-122023000D01*
X83947000Y-121864250D01*
X83947000Y-120015000D01*
X84201000Y-120015000D01*
X84201000Y-121864250D01*
X84359750Y-122023000D01*
X85574000Y-122026072D01*
X85698482Y-122013812D01*
X85818180Y-121977502D01*
X85928494Y-121918537D01*
X86025185Y-121839185D01*
X86104537Y-121742494D01*
X86163502Y-121632180D01*
X86199812Y-121512482D01*
X86212072Y-121388000D01*
X86209143Y-120230000D01*
X88427928Y-120230000D01*
X88440188Y-120354482D01*
X88476498Y-120474180D01*
X88535463Y-120584494D01*
X88614815Y-120681185D01*
X88711506Y-120760537D01*
X88821820Y-120819502D01*
X88941518Y-120855812D01*
X89066000Y-120868072D01*
X89630250Y-120865000D01*
X89789000Y-120706250D01*
X89789000Y-119507000D01*
X90043000Y-119507000D01*
X90043000Y-120706250D01*
X90201750Y-120865000D01*
X90766000Y-120868072D01*
X90890482Y-120855812D01*
X91010180Y-120819502D01*
X91120494Y-120760537D01*
X91217185Y-120681185D01*
X91296537Y-120584494D01*
X91355502Y-120474180D01*
X91391812Y-120354482D01*
X91404072Y-120230000D01*
X91401000Y-119665750D01*
X91242250Y-119507000D01*
X90043000Y-119507000D01*
X89789000Y-119507000D01*
X88589750Y-119507000D01*
X88431000Y-119665750D01*
X88427928Y-120230000D01*
X86209143Y-120230000D01*
X86209000Y-120173750D01*
X86050250Y-120015000D01*
X84201000Y-120015000D01*
X83947000Y-120015000D01*
X82097750Y-120015000D01*
X81939000Y-120173750D01*
X81935928Y-121388000D01*
X80660000Y-121388000D01*
X80660000Y-118388000D01*
X81935928Y-118388000D01*
X81939000Y-119602250D01*
X82097750Y-119761000D01*
X83947000Y-119761000D01*
X83947000Y-117911750D01*
X84201000Y-117911750D01*
X84201000Y-119761000D01*
X86050250Y-119761000D01*
X86209000Y-119602250D01*
X86212072Y-118388000D01*
X86199812Y-118263518D01*
X86163502Y-118143820D01*
X86104537Y-118033506D01*
X86025185Y-117936815D01*
X85928494Y-117857463D01*
X85818180Y-117798498D01*
X85698482Y-117762188D01*
X85574000Y-117749928D01*
X84359750Y-117753000D01*
X84201000Y-117911750D01*
X83947000Y-117911750D01*
X83788250Y-117753000D01*
X82574000Y-117749928D01*
X82449518Y-117762188D01*
X82329820Y-117798498D01*
X82219506Y-117857463D01*
X82122815Y-117936815D01*
X82043463Y-118033506D01*
X81984498Y-118143820D01*
X81948188Y-118263518D01*
X81935928Y-118388000D01*
X80660000Y-118388000D01*
X80660000Y-98363736D01*
X80674001Y-98373092D01*
X80674000Y-107145761D01*
X80669840Y-107188000D01*
X80674000Y-107230239D01*
X80674000Y-107230245D01*
X80675610Y-107246589D01*
X80686444Y-107356589D01*
X80700492Y-107402899D01*
X80735619Y-107518699D01*
X80815476Y-107668101D01*
X80922946Y-107799054D01*
X80955765Y-107825988D01*
X81935928Y-108806151D01*
X81935928Y-110974000D01*
X81948188Y-111098482D01*
X81984498Y-111218180D01*
X82043463Y-111328494D01*
X82122815Y-111425185D01*
X82219506Y-111504537D01*
X82329820Y-111563502D01*
X82449518Y-111599812D01*
X82574000Y-111612072D01*
X85574000Y-111612072D01*
X85698482Y-111599812D01*
X85818180Y-111563502D01*
X85928494Y-111504537D01*
X86025185Y-111425185D01*
X86104537Y-111328494D01*
X86163502Y-111218180D01*
X86199812Y-111098482D01*
X86212072Y-110974000D01*
X86212072Y-107974000D01*
X86199812Y-107849518D01*
X86163502Y-107729820D01*
X86104537Y-107619506D01*
X86025185Y-107522815D01*
X85928494Y-107443463D01*
X85818180Y-107384498D01*
X85698482Y-107348188D01*
X85574000Y-107335928D01*
X82898151Y-107335928D01*
X82394000Y-106831777D01*
X82394000Y-105722601D01*
X82415637Y-105754983D01*
X82713017Y-106052363D01*
X83062698Y-106286012D01*
X83451244Y-106446953D01*
X83863721Y-106529000D01*
X84284279Y-106529000D01*
X84696756Y-106446953D01*
X85085302Y-106286012D01*
X85434983Y-106052363D01*
X85732363Y-105754983D01*
X85966012Y-105405302D01*
X86126953Y-105016756D01*
X86209000Y-104604279D01*
X86209000Y-104183721D01*
X86126953Y-103771244D01*
X85966012Y-103382698D01*
X85732363Y-103033017D01*
X85434983Y-102735637D01*
X85085302Y-102501988D01*
X84934000Y-102439317D01*
X84934000Y-96816239D01*
X84938160Y-96774000D01*
X84934000Y-96731761D01*
X84934000Y-96731754D01*
X84923004Y-96620114D01*
X84921556Y-96605410D01*
X84884611Y-96483619D01*
X84872381Y-96443300D01*
X84792524Y-96293898D01*
X84685054Y-96162946D01*
X84652241Y-96136017D01*
X82868641Y-94352418D01*
X82865775Y-94338011D01*
X82761371Y-94085957D01*
X82609799Y-93859114D01*
X82416886Y-93666201D01*
X82190043Y-93514629D01*
X82087127Y-93472000D01*
X82190043Y-93429371D01*
X82416886Y-93277799D01*
X82609799Y-93084886D01*
X82761371Y-92858043D01*
X82865775Y-92605989D01*
X82919000Y-92338411D01*
X82919000Y-92065589D01*
X82865775Y-91798011D01*
X82761371Y-91545957D01*
X82609799Y-91319114D01*
X82416886Y-91126201D01*
X82190043Y-90974629D01*
X81937989Y-90870225D01*
X81670411Y-90817000D01*
X81397589Y-90817000D01*
X81130011Y-90870225D01*
X80877957Y-90974629D01*
X80660000Y-91120264D01*
X80660000Y-88424015D01*
X80694458Y-88442433D01*
X80861148Y-88492998D01*
X81034500Y-88510072D01*
X82033500Y-88510072D01*
X82206852Y-88492998D01*
X82373542Y-88442433D01*
X82527164Y-88360321D01*
X82661815Y-88249815D01*
X82772321Y-88115164D01*
X82854433Y-87961542D01*
X82904998Y-87794852D01*
X82922072Y-87621500D01*
X82922072Y-86622500D01*
X82904998Y-86449148D01*
X82854433Y-86282458D01*
X82772321Y-86128836D01*
X82661815Y-85994185D01*
X82527164Y-85883679D01*
X82373542Y-85801567D01*
X82206852Y-85751002D01*
X82033500Y-85733928D01*
X81034500Y-85733928D01*
X80861148Y-85751002D01*
X80694458Y-85801567D01*
X80660000Y-85819985D01*
X80660000Y-82212000D01*
X81573928Y-82212000D01*
X81573928Y-84412000D01*
X81586188Y-84536482D01*
X81622498Y-84656180D01*
X81681463Y-84766494D01*
X81760815Y-84863185D01*
X81857506Y-84942537D01*
X81967820Y-85001502D01*
X82087518Y-85037812D01*
X82212000Y-85050072D01*
X84412000Y-85050072D01*
X84536482Y-85037812D01*
X84656180Y-85001502D01*
X84766494Y-84942537D01*
X84863185Y-84863185D01*
X84929557Y-84782310D01*
X85030169Y-84849537D01*
X85345919Y-84980325D01*
X85681117Y-85047000D01*
X86022883Y-85047000D01*
X86358081Y-84980325D01*
X86673831Y-84849537D01*
X86957998Y-84659663D01*
X87199663Y-84417998D01*
X87278001Y-84300757D01*
X87278000Y-85899946D01*
X87270043Y-85894629D01*
X87017989Y-85790225D01*
X86750411Y-85737000D01*
X86477589Y-85737000D01*
X86210011Y-85790225D01*
X85957957Y-85894629D01*
X85731114Y-86046201D01*
X85538201Y-86239114D01*
X85386629Y-86465957D01*
X85282225Y-86718011D01*
X85229000Y-86985589D01*
X85229000Y-87258411D01*
X85282225Y-87525989D01*
X85386629Y-87778043D01*
X85538201Y-88004886D01*
X85731114Y-88197799D01*
X85957957Y-88349371D01*
X86210011Y-88453775D01*
X86477589Y-88507000D01*
X86750411Y-88507000D01*
X87017989Y-88453775D01*
X87270043Y-88349371D01*
X87278000Y-88344054D01*
X87278000Y-89111761D01*
X87273840Y-89154000D01*
X87278000Y-89196239D01*
X87278000Y-89196245D01*
X87288755Y-89305441D01*
X87290444Y-89322589D01*
X87305361Y-89371764D01*
X87339619Y-89484699D01*
X87419476Y-89634101D01*
X87526946Y-89765054D01*
X87559765Y-89791988D01*
X87786001Y-90018223D01*
X87786001Y-91463090D01*
X87689799Y-91319114D01*
X87496886Y-91126201D01*
X87270043Y-90974629D01*
X87017989Y-90870225D01*
X86750411Y-90817000D01*
X86477589Y-90817000D01*
X86210011Y-90870225D01*
X85957957Y-90974629D01*
X85731114Y-91126201D01*
X85538201Y-91319114D01*
X85386629Y-91545957D01*
X85282225Y-91798011D01*
X85229000Y-92065589D01*
X85229000Y-92338411D01*
X85282225Y-92605989D01*
X85386629Y-92858043D01*
X85538201Y-93084886D01*
X85731114Y-93277799D01*
X85957957Y-93429371D01*
X86060873Y-93472000D01*
X85957957Y-93514629D01*
X85731114Y-93666201D01*
X85538201Y-93859114D01*
X85386629Y-94085957D01*
X85282225Y-94338011D01*
X85229000Y-94605589D01*
X85229000Y-94878411D01*
X85282225Y-95145989D01*
X85386629Y-95398043D01*
X85538201Y-95624886D01*
X85731114Y-95817799D01*
X85957957Y-95969371D01*
X86060873Y-96012000D01*
X85957957Y-96054629D01*
X85731114Y-96206201D01*
X85538201Y-96399114D01*
X85386629Y-96625957D01*
X85282225Y-96878011D01*
X85229000Y-97145589D01*
X85229000Y-97418411D01*
X85282225Y-97685989D01*
X85386629Y-97938043D01*
X85538201Y-98164886D01*
X85731114Y-98357799D01*
X85957957Y-98509371D01*
X86210011Y-98613775D01*
X86477589Y-98667000D01*
X86750411Y-98667000D01*
X86820773Y-98653004D01*
X86797760Y-98676017D01*
X86764947Y-98702946D01*
X86738018Y-98735759D01*
X86738016Y-98735761D01*
X86657477Y-98833898D01*
X86577620Y-98983300D01*
X86528444Y-99145411D01*
X86511840Y-99314000D01*
X86516001Y-99356249D01*
X86516000Y-112673776D01*
X85736527Y-113453249D01*
X85732363Y-113447017D01*
X85434983Y-113149637D01*
X85085302Y-112915988D01*
X84696756Y-112755047D01*
X84284279Y-112673000D01*
X83863721Y-112673000D01*
X83451244Y-112755047D01*
X83062698Y-112915988D01*
X82713017Y-113149637D01*
X82415637Y-113447017D01*
X82181988Y-113796698D01*
X82021047Y-114185244D01*
X81939000Y-114597721D01*
X81939000Y-115018279D01*
X82021047Y-115430756D01*
X82181988Y-115819302D01*
X82415637Y-116168983D01*
X82713017Y-116466363D01*
X83062698Y-116700012D01*
X83451244Y-116860953D01*
X83863721Y-116943000D01*
X84284279Y-116943000D01*
X84696756Y-116860953D01*
X85085302Y-116700012D01*
X85434983Y-116466363D01*
X85732363Y-116168983D01*
X85966012Y-115819302D01*
X86092014Y-115515107D01*
X86209054Y-115419054D01*
X86235988Y-115386235D01*
X87954242Y-113667982D01*
X87987054Y-113641054D01*
X88094524Y-113510102D01*
X88167273Y-113373998D01*
X88174381Y-113360701D01*
X88223556Y-113198590D01*
X88240161Y-113030000D01*
X88236000Y-112987754D01*
X88236000Y-99670223D01*
X89056001Y-98850223D01*
X89056000Y-110548639D01*
X88969368Y-110606525D01*
X88762525Y-110813368D01*
X88600010Y-111056589D01*
X88488068Y-111326842D01*
X88431000Y-111613740D01*
X88431000Y-111906260D01*
X88488068Y-112193158D01*
X88600010Y-112463411D01*
X88762525Y-112706632D01*
X88969368Y-112913475D01*
X89143760Y-113030000D01*
X88969368Y-113146525D01*
X88762525Y-113353368D01*
X88600010Y-113596589D01*
X88488068Y-113866842D01*
X88431000Y-114153740D01*
X88431000Y-114446260D01*
X88488068Y-114733158D01*
X88600010Y-115003411D01*
X88762525Y-115246632D01*
X88969368Y-115453475D01*
X89143760Y-115570000D01*
X88969368Y-115686525D01*
X88762525Y-115893368D01*
X88600010Y-116136589D01*
X88488068Y-116406842D01*
X88431000Y-116693740D01*
X88431000Y-116986260D01*
X88488068Y-117273158D01*
X88600010Y-117543411D01*
X88762525Y-117786632D01*
X88894380Y-117918487D01*
X88821820Y-117940498D01*
X88711506Y-117999463D01*
X88614815Y-118078815D01*
X88535463Y-118175506D01*
X88476498Y-118285820D01*
X88440188Y-118405518D01*
X88427928Y-118530000D01*
X88431000Y-119094250D01*
X88589750Y-119253000D01*
X89789000Y-119253000D01*
X89789000Y-119233000D01*
X90043000Y-119233000D01*
X90043000Y-119253000D01*
X91242250Y-119253000D01*
X91401000Y-119094250D01*
X91404072Y-118530000D01*
X91391812Y-118405518D01*
X91355502Y-118285820D01*
X91296537Y-118175506D01*
X91217185Y-118078815D01*
X91120494Y-117999463D01*
X91010180Y-117940498D01*
X90937620Y-117918487D01*
X91069475Y-117786632D01*
X91231990Y-117543411D01*
X91343932Y-117273158D01*
X91401000Y-116986260D01*
X91401000Y-116693740D01*
X91343932Y-116406842D01*
X91231990Y-116136589D01*
X91069475Y-115893368D01*
X90862632Y-115686525D01*
X90688240Y-115570000D01*
X90862632Y-115453475D01*
X91069475Y-115246632D01*
X91231990Y-115003411D01*
X91343932Y-114733158D01*
X91401000Y-114446260D01*
X91401000Y-114153740D01*
X91343932Y-113866842D01*
X91231990Y-113596589D01*
X91069475Y-113353368D01*
X90862632Y-113146525D01*
X90688240Y-113030000D01*
X90862632Y-112913475D01*
X91069475Y-112706632D01*
X91231990Y-112463411D01*
X91343932Y-112193158D01*
X91396277Y-111930000D01*
X93003928Y-111930000D01*
X93003928Y-114130000D01*
X93016188Y-114254482D01*
X93052498Y-114374180D01*
X93111463Y-114484494D01*
X93190815Y-114581185D01*
X93287506Y-114660537D01*
X93397820Y-114719502D01*
X93517518Y-114755812D01*
X93642000Y-114768072D01*
X93968342Y-114768072D01*
X93952815Y-114780815D01*
X93873463Y-114877506D01*
X93814498Y-114987820D01*
X93778188Y-115107518D01*
X93765928Y-115232000D01*
X93765928Y-117432000D01*
X93778188Y-117556482D01*
X93814498Y-117676180D01*
X93873463Y-117786494D01*
X93952815Y-117883185D01*
X94049506Y-117962537D01*
X94159820Y-118021502D01*
X94279518Y-118057812D01*
X94404000Y-118070072D01*
X96604000Y-118070072D01*
X96728482Y-118057812D01*
X96848180Y-118021502D01*
X96958494Y-117962537D01*
X97055185Y-117883185D01*
X97134537Y-117786494D01*
X97193502Y-117676180D01*
X97229812Y-117556482D01*
X97242072Y-117432000D01*
X97242072Y-116161117D01*
X103929000Y-116161117D01*
X103929000Y-116502883D01*
X103995675Y-116838081D01*
X104126463Y-117153831D01*
X104316337Y-117437998D01*
X104558002Y-117679663D01*
X104842169Y-117869537D01*
X105157919Y-118000325D01*
X105493117Y-118067000D01*
X105834883Y-118067000D01*
X106170081Y-118000325D01*
X106485831Y-117869537D01*
X106769998Y-117679663D01*
X107011663Y-117437998D01*
X107201537Y-117153831D01*
X107332325Y-116838081D01*
X107399000Y-116502883D01*
X107399000Y-116161117D01*
X107332325Y-115825919D01*
X107201537Y-115510169D01*
X107015671Y-115232000D01*
X114085928Y-115232000D01*
X114085928Y-117432000D01*
X114098188Y-117556482D01*
X114134498Y-117676180D01*
X114193463Y-117786494D01*
X114272815Y-117883185D01*
X114369506Y-117962537D01*
X114479820Y-118021502D01*
X114599518Y-118057812D01*
X114724000Y-118070072D01*
X116924000Y-118070072D01*
X117048482Y-118057812D01*
X117168180Y-118021502D01*
X117278494Y-117962537D01*
X117375185Y-117883185D01*
X117454537Y-117786494D01*
X117513502Y-117676180D01*
X117549812Y-117556482D01*
X117562072Y-117432000D01*
X117562072Y-115232000D01*
X117549812Y-115107518D01*
X117513502Y-114987820D01*
X117454537Y-114877506D01*
X117375185Y-114780815D01*
X117278494Y-114701463D01*
X117168180Y-114642498D01*
X117048482Y-114606188D01*
X116924000Y-114593928D01*
X114724000Y-114593928D01*
X114599518Y-114606188D01*
X114479820Y-114642498D01*
X114369506Y-114701463D01*
X114272815Y-114780815D01*
X114193463Y-114877506D01*
X114134498Y-114987820D01*
X114098188Y-115107518D01*
X114085928Y-115232000D01*
X107015671Y-115232000D01*
X107011663Y-115226002D01*
X106769998Y-114984337D01*
X106485831Y-114794463D01*
X106170081Y-114663675D01*
X105834883Y-114597000D01*
X105493117Y-114597000D01*
X105157919Y-114663675D01*
X104842169Y-114794463D01*
X104558002Y-114984337D01*
X104316337Y-115226002D01*
X104126463Y-115510169D01*
X103995675Y-115825919D01*
X103929000Y-116161117D01*
X97242072Y-116161117D01*
X97242072Y-115232000D01*
X97229812Y-115107518D01*
X97193502Y-114987820D01*
X97134537Y-114877506D01*
X97055185Y-114780815D01*
X96958494Y-114701463D01*
X96848180Y-114642498D01*
X96728482Y-114606188D01*
X96604000Y-114593928D01*
X96277658Y-114593928D01*
X96293185Y-114581185D01*
X96372537Y-114484494D01*
X96431502Y-114374180D01*
X96467812Y-114254482D01*
X96480072Y-114130000D01*
X96480072Y-111930000D01*
X96467812Y-111805518D01*
X96431502Y-111685820D01*
X96372537Y-111575506D01*
X96293185Y-111478815D01*
X96196494Y-111399463D01*
X96086180Y-111340498D01*
X95966482Y-111304188D01*
X95842000Y-111291928D01*
X93642000Y-111291928D01*
X93517518Y-111304188D01*
X93397820Y-111340498D01*
X93287506Y-111399463D01*
X93190815Y-111478815D01*
X93111463Y-111575506D01*
X93052498Y-111685820D01*
X93016188Y-111805518D01*
X93003928Y-111930000D01*
X91396277Y-111930000D01*
X91401000Y-111906260D01*
X91401000Y-111613740D01*
X91343932Y-111326842D01*
X91231990Y-111056589D01*
X91069475Y-110813368D01*
X90862632Y-110606525D01*
X90776000Y-110548639D01*
X90776000Y-88101087D01*
X90890482Y-88089812D01*
X91010180Y-88053502D01*
X91120494Y-87994537D01*
X91217185Y-87915185D01*
X91296537Y-87818494D01*
X91355502Y-87708180D01*
X91391812Y-87588482D01*
X91404072Y-87464000D01*
X91404072Y-85764000D01*
X91391812Y-85639518D01*
X91355502Y-85519820D01*
X91296537Y-85409506D01*
X91217185Y-85312815D01*
X91120494Y-85233463D01*
X91010180Y-85174498D01*
X90929534Y-85150034D01*
X91013588Y-85074269D01*
X91187641Y-84840920D01*
X91312825Y-84578099D01*
X91357476Y-84430890D01*
X91236155Y-84201000D01*
X90043000Y-84201000D01*
X90043000Y-84221000D01*
X89789000Y-84221000D01*
X89789000Y-84201000D01*
X89769000Y-84201000D01*
X89769000Y-83947000D01*
X89789000Y-83947000D01*
X89789000Y-81661000D01*
X90043000Y-81661000D01*
X90043000Y-83947000D01*
X91236155Y-83947000D01*
X91357476Y-83717110D01*
X91312825Y-83569901D01*
X91187641Y-83307080D01*
X91013588Y-83073731D01*
X90797355Y-82878822D01*
X90671745Y-82804000D01*
X90797355Y-82729178D01*
X91013588Y-82534269D01*
X91187641Y-82300920D01*
X91312825Y-82038099D01*
X91357476Y-81890890D01*
X91236155Y-81661000D01*
X90043000Y-81661000D01*
X89789000Y-81661000D01*
X89769000Y-81661000D01*
X89769000Y-81407000D01*
X89789000Y-81407000D01*
X89789000Y-81387000D01*
X90043000Y-81387000D01*
X90043000Y-81407000D01*
X91236155Y-81407000D01*
X91357476Y-81177110D01*
X91312825Y-81029901D01*
X91187641Y-80767080D01*
X91013588Y-80533731D01*
X90797355Y-80338822D01*
X90680466Y-80269195D01*
X90862632Y-80147475D01*
X91069475Y-79940632D01*
X91231990Y-79697411D01*
X91343932Y-79427158D01*
X91401000Y-79140260D01*
X91401000Y-78847740D01*
X91343932Y-78560842D01*
X91231990Y-78290589D01*
X91069475Y-78047368D01*
X90862632Y-77840525D01*
X90619411Y-77678010D01*
X90349158Y-77566068D01*
X90062260Y-77509000D01*
X89769740Y-77509000D01*
X89482842Y-77566068D01*
X89212589Y-77678010D01*
X88969368Y-77840525D01*
X88762525Y-78047368D01*
X88600010Y-78290589D01*
X88488068Y-78560842D01*
X88431000Y-78847740D01*
X88431000Y-79140260D01*
X88451327Y-79242450D01*
X87559760Y-80134017D01*
X87526947Y-80160946D01*
X87500018Y-80193759D01*
X87500016Y-80193761D01*
X87419477Y-80291898D01*
X87339620Y-80441300D01*
X87290444Y-80603411D01*
X87273840Y-80772000D01*
X87278001Y-80814249D01*
X87278001Y-82323243D01*
X87199663Y-82206002D01*
X86957998Y-81964337D01*
X86673831Y-81774463D01*
X86358081Y-81643675D01*
X86022883Y-81577000D01*
X85681117Y-81577000D01*
X85345919Y-81643675D01*
X85030169Y-81774463D01*
X84929557Y-81841690D01*
X84863185Y-81760815D01*
X84766494Y-81681463D01*
X84656180Y-81622498D01*
X84536482Y-81586188D01*
X84412000Y-81573928D01*
X82212000Y-81573928D01*
X82087518Y-81586188D01*
X81967820Y-81622498D01*
X81857506Y-81681463D01*
X81760815Y-81760815D01*
X81681463Y-81857506D01*
X81622498Y-81967820D01*
X81586188Y-82087518D01*
X81573928Y-82212000D01*
X80660000Y-82212000D01*
X80660000Y-79096891D01*
X81108519Y-79096891D01*
X81205843Y-79371252D01*
X81354822Y-79621355D01*
X81549731Y-79837588D01*
X81783080Y-80011641D01*
X82045901Y-80136825D01*
X82193110Y-80181476D01*
X82423000Y-80060155D01*
X82423000Y-78867000D01*
X81229186Y-78867000D01*
X81108519Y-79096891D01*
X80660000Y-79096891D01*
X80660000Y-78383109D01*
X81108519Y-78383109D01*
X81229186Y-78613000D01*
X82423000Y-78613000D01*
X82423000Y-77419845D01*
X82193110Y-77298524D01*
X82045901Y-77343175D01*
X81783080Y-77468359D01*
X81549731Y-77642412D01*
X81354822Y-77858645D01*
X81205843Y-78108748D01*
X81108519Y-78383109D01*
X80660000Y-78383109D01*
X80660000Y-70660000D01*
X82207348Y-70660000D01*
X82019369Y-70941331D01*
%TA.AperFunction,Conductor*%
D33*
G36*
X82019369Y-70941331D02*
G01*
X81850890Y-71348075D01*
X81765000Y-71779872D01*
X81765000Y-72220128D01*
X81850890Y-72651925D01*
X82019369Y-73058669D01*
X82263962Y-73424729D01*
X82575271Y-73736038D01*
X82941331Y-73980631D01*
X83348075Y-74149110D01*
X83779872Y-74235000D01*
X84220128Y-74235000D01*
X84651925Y-74149110D01*
X85058669Y-73980631D01*
X85424729Y-73736038D01*
X85736038Y-73424729D01*
X85980631Y-73058669D01*
X86149110Y-72651925D01*
X86235000Y-72220128D01*
X86235000Y-71779872D01*
X86149110Y-71348075D01*
X85980631Y-70941331D01*
X85792652Y-70660000D01*
X95547427Y-70660000D01*
X95545518Y-70660188D01*
X95425820Y-70696498D01*
X95315506Y-70755463D01*
X95218815Y-70834815D01*
X95139463Y-70931506D01*
X95080498Y-71041820D01*
X95044188Y-71161518D01*
X95031928Y-71286000D01*
X95031928Y-72986000D01*
X95044188Y-73110482D01*
X95080498Y-73230180D01*
X95139463Y-73340494D01*
X95218815Y-73437185D01*
X95315506Y-73516537D01*
X95425820Y-73575502D01*
X95545518Y-73611812D01*
X95670000Y-73624072D01*
X95891910Y-73624072D01*
X95904690Y-73639644D01*
X95937655Y-73679812D01*
X95937659Y-73679816D01*
X95962237Y-73709764D01*
X95992185Y-73734342D01*
X96699653Y-74441810D01*
X96724236Y-74471764D01*
X96843767Y-74569862D01*
X96929082Y-74615463D01*
X96980140Y-74642754D01*
X97128113Y-74687642D01*
X97200949Y-74694815D01*
X97243439Y-74699000D01*
X97243444Y-74699000D01*
X97282000Y-74702797D01*
X97320556Y-74699000D01*
X102036843Y-74699000D01*
X102339000Y-75001157D01*
X102339000Y-75280618D01*
X102155898Y-75204774D01*
X101955939Y-75165000D01*
X101752061Y-75165000D01*
X101552102Y-75204774D01*
X101363744Y-75282795D01*
X101215386Y-75381925D01*
X101148405Y-75256613D01*
X101037962Y-75122038D01*
X100903387Y-75011595D01*
X100749851Y-74929528D01*
X100583255Y-74878992D01*
X100410001Y-74861928D01*
X99709999Y-74861928D01*
X99536745Y-74878992D01*
X99370149Y-74929528D01*
X99216613Y-75011595D01*
X99082038Y-75122038D01*
X99060000Y-75148891D01*
X99037962Y-75122038D01*
X98903387Y-75011595D01*
X98749851Y-74929528D01*
X98583255Y-74878992D01*
X98410001Y-74861928D01*
X97709999Y-74861928D01*
X97536745Y-74878992D01*
X97370149Y-74929528D01*
X97216613Y-75011595D01*
X97082038Y-75122038D01*
X96971595Y-75256613D01*
X96889528Y-75410149D01*
X96884934Y-75425293D01*
X96874112Y-75426359D01*
X96839672Y-75436806D01*
X96726140Y-75471246D01*
X96589767Y-75544138D01*
X96550036Y-75576745D01*
X96500187Y-75617655D01*
X96500184Y-75617658D01*
X96470236Y-75642236D01*
X96445658Y-75672184D01*
X94976190Y-77141653D01*
X94946236Y-77166236D01*
X94848138Y-77285768D01*
X94775246Y-77422141D01*
X94730359Y-77570114D01*
X94719000Y-77685440D01*
X94719000Y-77685447D01*
X94715203Y-77724000D01*
X94719000Y-77762553D01*
X94719001Y-95026778D01*
X94078000Y-94385777D01*
X94078000Y-78020239D01*
X94082160Y-77978000D01*
X94078000Y-77935761D01*
X94078000Y-77935754D01*
X94065556Y-77809411D01*
X94016381Y-77647300D01*
X93936524Y-77497898D01*
X93829054Y-77366946D01*
X93796241Y-77340017D01*
X91823988Y-75367765D01*
X91797054Y-75334946D01*
X91666102Y-75227476D01*
X91516700Y-75147619D01*
X91354589Y-75098444D01*
X91228246Y-75086000D01*
X91228239Y-75086000D01*
X91186000Y-75081840D01*
X91143761Y-75086000D01*
X87672238Y-75086000D01*
X87629999Y-75081840D01*
X87587760Y-75086000D01*
X87587754Y-75086000D01*
X87492538Y-75095378D01*
X87461409Y-75098444D01*
X87385950Y-75121335D01*
X87299300Y-75147619D01*
X87149898Y-75227476D01*
X87018946Y-75334946D01*
X86992012Y-75367765D01*
X85107849Y-77251928D01*
X84240000Y-77251928D01*
X84115518Y-77264188D01*
X83995820Y-77300498D01*
X83885506Y-77359463D01*
X83788815Y-77438815D01*
X83709463Y-77535506D01*
X83650498Y-77645820D01*
X83626034Y-77726466D01*
X83550269Y-77642412D01*
X83316920Y-77468359D01*
X83054099Y-77343175D01*
X82906890Y-77298524D01*
X82677000Y-77419845D01*
X82677000Y-78613000D01*
X82697000Y-78613000D01*
X82697000Y-78867000D01*
X82677000Y-78867000D01*
X82677000Y-80060155D01*
X82906890Y-80181476D01*
X83054099Y-80136825D01*
X83316920Y-80011641D01*
X83550269Y-79837588D01*
X83626034Y-79753534D01*
X83650498Y-79834180D01*
X83709463Y-79944494D01*
X83788815Y-80041185D01*
X83885506Y-80120537D01*
X83995820Y-80179502D01*
X84115518Y-80215812D01*
X84240000Y-80228072D01*
X85940000Y-80228072D01*
X86064482Y-80215812D01*
X86184180Y-80179502D01*
X86294494Y-80120537D01*
X86391185Y-80041185D01*
X86470537Y-79944494D01*
X86529502Y-79834180D01*
X86565812Y-79714482D01*
X86578072Y-79590000D01*
X86578072Y-78214151D01*
X87986223Y-76806000D01*
X90829777Y-76806000D01*
X92358001Y-78334225D01*
X92358000Y-94699761D01*
X92353840Y-94742000D01*
X92358000Y-94784239D01*
X92358000Y-94784245D01*
X92364293Y-94848138D01*
X92370444Y-94910589D01*
X92383064Y-94952192D01*
X92419619Y-95072699D01*
X92499476Y-95222101D01*
X92606946Y-95353054D01*
X92639765Y-95379988D01*
X93882001Y-96622224D01*
X93882000Y-101357967D01*
X93636002Y-101522337D01*
X93394337Y-101764002D01*
X93204463Y-102048169D01*
X93073675Y-102363919D01*
X93007000Y-102699117D01*
X93007000Y-103040883D01*
X93073675Y-103376081D01*
X93204463Y-103691831D01*
X93394337Y-103975998D01*
X93636002Y-104217663D01*
X93920169Y-104407537D01*
X94235919Y-104538325D01*
X94571117Y-104605000D01*
X94912883Y-104605000D01*
X95248081Y-104538325D01*
X95563831Y-104407537D01*
X95847998Y-104217663D01*
X95989001Y-104076660D01*
X95989001Y-104101437D01*
X95985203Y-104140000D01*
X96000359Y-104293886D01*
X96045246Y-104441859D01*
X96076397Y-104500138D01*
X96118139Y-104578233D01*
X96158690Y-104627644D01*
X96191655Y-104667812D01*
X96191659Y-104667816D01*
X96216237Y-104697764D01*
X96246185Y-104722342D01*
X97715658Y-106191816D01*
X97740236Y-106221764D01*
X97770184Y-106246342D01*
X97770187Y-106246345D01*
X97799559Y-106270450D01*
X97859767Y-106319862D01*
X97996140Y-106392754D01*
X98105741Y-106426001D01*
X98144112Y-106437641D01*
X98158490Y-106439057D01*
X98259439Y-106449000D01*
X98259446Y-106449000D01*
X98297999Y-106452797D01*
X98336552Y-106449000D01*
X99450842Y-106449000D01*
X98532190Y-107367653D01*
X98502236Y-107392236D01*
X98404138Y-107511768D01*
X98331246Y-107648141D01*
X98286359Y-107796114D01*
X98275000Y-107911440D01*
X98275000Y-107911447D01*
X98271203Y-107950000D01*
X98275000Y-107988553D01*
X98275001Y-110271928D01*
X98210000Y-110271928D01*
X98085518Y-110284188D01*
X97965820Y-110320498D01*
X97855506Y-110379463D01*
X97758815Y-110458815D01*
X97679463Y-110555506D01*
X97620498Y-110665820D01*
X97584188Y-110785518D01*
X97571928Y-110910000D01*
X97571928Y-112610000D01*
X97584188Y-112734482D01*
X97620498Y-112854180D01*
X97679463Y-112964494D01*
X97758815Y-113061185D01*
X97855506Y-113140537D01*
X97965820Y-113199502D01*
X98085518Y-113235812D01*
X98210000Y-113248072D01*
X99910000Y-113248072D01*
X100034482Y-113235812D01*
X100154180Y-113199502D01*
X100264494Y-113140537D01*
X100361185Y-113061185D01*
X100440537Y-112964494D01*
X100499502Y-112854180D01*
X100535812Y-112734482D01*
X100548072Y-112610000D01*
X100548072Y-110910000D01*
X100535812Y-110785518D01*
X100499502Y-110665820D01*
X100440537Y-110555506D01*
X100361185Y-110458815D01*
X100264494Y-110379463D01*
X100154180Y-110320498D01*
X100034482Y-110284188D01*
X99910000Y-110271928D01*
X99845000Y-110271928D01*
X99845000Y-108275157D01*
X100401158Y-107719000D01*
X102133552Y-107719000D01*
X102071764Y-107922691D01*
X102044057Y-108204000D01*
X102071764Y-108485309D01*
X102153818Y-108755808D01*
X102287068Y-109005101D01*
X102466392Y-109223608D01*
X102684899Y-109402932D01*
X102817858Y-109474000D01*
X102684899Y-109545068D01*
X102466392Y-109724392D01*
X102287068Y-109942899D01*
X102153818Y-110192192D01*
X102071764Y-110462691D01*
X102044057Y-110744000D01*
X102071764Y-111025309D01*
X102153818Y-111295808D01*
X102287068Y-111545101D01*
X102466392Y-111763608D01*
X102684899Y-111942932D01*
X102817858Y-112014000D01*
X102684899Y-112085068D01*
X102466392Y-112264392D01*
X102287068Y-112482899D01*
X102153818Y-112732192D01*
X102071764Y-113002691D01*
X102044057Y-113284000D01*
X102071764Y-113565309D01*
X102153818Y-113835808D01*
X102287068Y-114085101D01*
X102466392Y-114303608D01*
X102684899Y-114482932D01*
X102934192Y-114616182D01*
X103204691Y-114698236D01*
X103415508Y-114719000D01*
X104356492Y-114719000D01*
X104567309Y-114698236D01*
X104837808Y-114616182D01*
X105087101Y-114482932D01*
X105305608Y-114303608D01*
X105484932Y-114085101D01*
X105618182Y-113835808D01*
X105700236Y-113565309D01*
X105727943Y-113284000D01*
X105700236Y-113002691D01*
X105618182Y-112732192D01*
X105484932Y-112482899D01*
X105305608Y-112264392D01*
X105087101Y-112085068D01*
X104954142Y-112014000D01*
X105087101Y-111942932D01*
X105305608Y-111763608D01*
X105484932Y-111545101D01*
X105493538Y-111529000D01*
X107911447Y-111529000D01*
X107950000Y-111532797D01*
X107988553Y-111529000D01*
X107988561Y-111529000D01*
X108103887Y-111517641D01*
X108251860Y-111472754D01*
X108388233Y-111399862D01*
X108507764Y-111301764D01*
X108532347Y-111271810D01*
X109545158Y-110259000D01*
X109753552Y-110259000D01*
X109691764Y-110462691D01*
X109664057Y-110744000D01*
X109691764Y-111025309D01*
X109773818Y-111295808D01*
X109907068Y-111545101D01*
X110086392Y-111763608D01*
X110304899Y-111942932D01*
X110437858Y-112014000D01*
X110304899Y-112085068D01*
X110086392Y-112264392D01*
X109907068Y-112482899D01*
X109773818Y-112732192D01*
X109691764Y-113002691D01*
X109664057Y-113284000D01*
X109691764Y-113565309D01*
X109773818Y-113835808D01*
X109907068Y-114085101D01*
X110086392Y-114303608D01*
X110304899Y-114482932D01*
X110554192Y-114616182D01*
X110824691Y-114698236D01*
X111035508Y-114719000D01*
X111976492Y-114719000D01*
X112187309Y-114698236D01*
X112457808Y-114616182D01*
X112707101Y-114482932D01*
X112925608Y-114303608D01*
X113104932Y-114085101D01*
X113238182Y-113835808D01*
X113320236Y-113565309D01*
X113347943Y-113284000D01*
X113320236Y-113002691D01*
X113238182Y-112732192D01*
X113104932Y-112482899D01*
X112925608Y-112264392D01*
X112707101Y-112085068D01*
X112574142Y-112014000D01*
X112707101Y-111942932D01*
X112925608Y-111763608D01*
X113104932Y-111545101D01*
X113238182Y-111295808D01*
X113320236Y-111025309D01*
X113347943Y-110744000D01*
X113320236Y-110462691D01*
X113258448Y-110259000D01*
X113720843Y-110259000D01*
X113971653Y-110509810D01*
X113996236Y-110539764D01*
X114115767Y-110637862D01*
X114252140Y-110710754D01*
X114361738Y-110744000D01*
X114400112Y-110755641D01*
X114414490Y-110757057D01*
X114515439Y-110767000D01*
X114515446Y-110767000D01*
X114553999Y-110770797D01*
X114592552Y-110767000D01*
X114891289Y-110767000D01*
X114910226Y-110785937D01*
X114914686Y-110788917D01*
X114718002Y-110920337D01*
X114476337Y-111162002D01*
X114286463Y-111446169D01*
X114155675Y-111761919D01*
X114089000Y-112097117D01*
X114089000Y-112438883D01*
X114155675Y-112774081D01*
X114286463Y-113089831D01*
X114476337Y-113373998D01*
X114718002Y-113615663D01*
X115002169Y-113805537D01*
X115317919Y-113936325D01*
X115653117Y-114003000D01*
X115994883Y-114003000D01*
X116330081Y-113936325D01*
X116645831Y-113805537D01*
X116929998Y-113615663D01*
X117171663Y-113373998D01*
X117361537Y-113089831D01*
X117492325Y-112774081D01*
X117559000Y-112438883D01*
X117559000Y-112097117D01*
X117492325Y-111761919D01*
X117417108Y-111580330D01*
X117536613Y-111678405D01*
X117690149Y-111760472D01*
X117856745Y-111811008D01*
X118029999Y-111828072D01*
X118730001Y-111828072D01*
X118903255Y-111811008D01*
X119069851Y-111760472D01*
X119223387Y-111678405D01*
X119357962Y-111567962D01*
X119380000Y-111541109D01*
X119402038Y-111567962D01*
X119536613Y-111678405D01*
X119690149Y-111760472D01*
X119856745Y-111811008D01*
X120029999Y-111828072D01*
X120730001Y-111828072D01*
X120903255Y-111811008D01*
X121069851Y-111760472D01*
X121223387Y-111678405D01*
X121357962Y-111567962D01*
X121468405Y-111433387D01*
X121550472Y-111279851D01*
X121551944Y-111275000D01*
X121928526Y-111275000D01*
X122036525Y-111436632D01*
X122243368Y-111643475D01*
X122425534Y-111765195D01*
X122308645Y-111834822D01*
X122092412Y-112029731D01*
X121918359Y-112263080D01*
X121793175Y-112525901D01*
X121748524Y-112673110D01*
X121869845Y-112903000D01*
X123063000Y-112903000D01*
X123063000Y-112883000D01*
X123317000Y-112883000D01*
X123317000Y-112903000D01*
X123337000Y-112903000D01*
X123337000Y-113157000D01*
X123317000Y-113157000D01*
X123317000Y-113177000D01*
X123063000Y-113177000D01*
X123063000Y-113157000D01*
X121869845Y-113157000D01*
X121748524Y-113386890D01*
X121793175Y-113534099D01*
X121918359Y-113796920D01*
X122092412Y-114030269D01*
X122308645Y-114225178D01*
X122425534Y-114294805D01*
X122243368Y-114416525D01*
X122036525Y-114623368D01*
X121874010Y-114866589D01*
X121762068Y-115136842D01*
X121705000Y-115423740D01*
X121705000Y-115716260D01*
X121762068Y-116003158D01*
X121874010Y-116273411D01*
X122036525Y-116516632D01*
X122243368Y-116723475D01*
X122486589Y-116885990D01*
X122756842Y-116997932D01*
X123043740Y-117055000D01*
X123336260Y-117055000D01*
X123623158Y-116997932D01*
X123893411Y-116885990D01*
X124136632Y-116723475D01*
X124340001Y-116520106D01*
X124340001Y-122340000D01*
X122792652Y-122340000D01*
X122980631Y-122058669D01*
X123149110Y-121651925D01*
X123235000Y-121220128D01*
X123235000Y-120779872D01*
X123149110Y-120348075D01*
X122980631Y-119941331D01*
X122736038Y-119575271D01*
X122424729Y-119263962D01*
X122058669Y-119019369D01*
X121651925Y-118850890D01*
X121220128Y-118765000D01*
X120779872Y-118765000D01*
X120348075Y-118850890D01*
X119941331Y-119019369D01*
X119575271Y-119263962D01*
X119263962Y-119575271D01*
X119019369Y-119941331D01*
X118850890Y-120348075D01*
X118765000Y-120779872D01*
X118765000Y-121220128D01*
X118850890Y-121651925D01*
X119019369Y-122058669D01*
X119207348Y-122340000D01*
X104243998Y-122340000D01*
X104251963Y-122333463D01*
X104450345Y-122091734D01*
X104597755Y-121815948D01*
X104688530Y-121516703D01*
X104711500Y-121283485D01*
X104711500Y-121032514D01*
X104688530Y-120799296D01*
X104597755Y-120500051D01*
X104450345Y-120224265D01*
X104251963Y-119982537D01*
X104151392Y-119900000D01*
X106307928Y-119900000D01*
X106307928Y-121400000D01*
X106320188Y-121524482D01*
X106356498Y-121644180D01*
X106415463Y-121754494D01*
X106494815Y-121851185D01*
X106591506Y-121930537D01*
X106701820Y-121989502D01*
X106821518Y-122025812D01*
X106946000Y-122038072D01*
X108446000Y-122038072D01*
X108570482Y-122025812D01*
X108690180Y-121989502D01*
X108800494Y-121930537D01*
X108897185Y-121851185D01*
X108976537Y-121754494D01*
X109035502Y-121644180D01*
X109046782Y-121606993D01*
X109458612Y-121606993D01*
X109524137Y-121845860D01*
X109771116Y-121961760D01*
X110035960Y-122027250D01*
X110308492Y-122039812D01*
X110578238Y-121998965D01*
X110834832Y-121906277D01*
X110947863Y-121845860D01*
X111013388Y-121606993D01*
X110236000Y-120829605D01*
X109458612Y-121606993D01*
X109046782Y-121606993D01*
X109071812Y-121524482D01*
X109084072Y-121400000D01*
X109084072Y-121373914D01*
X109279007Y-121427388D01*
X110056395Y-120650000D01*
X110415605Y-120650000D01*
X111192993Y-121427388D01*
X111431860Y-121361863D01*
X111506164Y-121203523D01*
X111548629Y-121306043D01*
X111700201Y-121532886D01*
X111893114Y-121725799D01*
X112119957Y-121877371D01*
X112372011Y-121981775D01*
X112639589Y-122035000D01*
X112912411Y-122035000D01*
X113179989Y-121981775D01*
X113432043Y-121877371D01*
X113658886Y-121725799D01*
X113851799Y-121532886D01*
X114003371Y-121306043D01*
X114107775Y-121053989D01*
X114161000Y-120786411D01*
X114161000Y-120660937D01*
X114286463Y-120963831D01*
X114476337Y-121247998D01*
X114718002Y-121489663D01*
X115002169Y-121679537D01*
X115317919Y-121810325D01*
X115653117Y-121877000D01*
X115994883Y-121877000D01*
X116330081Y-121810325D01*
X116645831Y-121679537D01*
X116929998Y-121489663D01*
X117171663Y-121247998D01*
X117361537Y-120963831D01*
X117492325Y-120648081D01*
X117559000Y-120312883D01*
X117559000Y-119971117D01*
X117492325Y-119635919D01*
X117361537Y-119320169D01*
X117171663Y-119036002D01*
X116929998Y-118794337D01*
X116645831Y-118604463D01*
X116330081Y-118473675D01*
X115994883Y-118407000D01*
X115653117Y-118407000D01*
X115317919Y-118473675D01*
X115002169Y-118604463D01*
X114718002Y-118794337D01*
X114476337Y-119036002D01*
X114286463Y-119320169D01*
X114155675Y-119635919D01*
X114089000Y-119971117D01*
X114089000Y-120200684D01*
X114003371Y-119993957D01*
X113851799Y-119767114D01*
X113658886Y-119574201D01*
X113432043Y-119422629D01*
X113179989Y-119318225D01*
X112912411Y-119265000D01*
X112639589Y-119265000D01*
X112372011Y-119318225D01*
X112119957Y-119422629D01*
X111893114Y-119574201D01*
X111700201Y-119767114D01*
X111548629Y-119993957D01*
X111507489Y-120093279D01*
X111492277Y-120051168D01*
X111431860Y-119938137D01*
X111192993Y-119872612D01*
X110415605Y-120650000D01*
X110056395Y-120650000D01*
X109279007Y-119872612D01*
X109084072Y-119926086D01*
X109084072Y-119900000D01*
X109071812Y-119775518D01*
X109046783Y-119693007D01*
X109458612Y-119693007D01*
X110236000Y-120470395D01*
X111013388Y-119693007D01*
X110947863Y-119454140D01*
X110700884Y-119338240D01*
X110436040Y-119272750D01*
X110163508Y-119260188D01*
X109893762Y-119301035D01*
X109637168Y-119393723D01*
X109524137Y-119454140D01*
X109458612Y-119693007D01*
X109046783Y-119693007D01*
X109035502Y-119655820D01*
X108976537Y-119545506D01*
X108897185Y-119448815D01*
X108800494Y-119369463D01*
X108690180Y-119310498D01*
X108570482Y-119274188D01*
X108446000Y-119261928D01*
X106946000Y-119261928D01*
X106821518Y-119274188D01*
X106701820Y-119310498D01*
X106591506Y-119369463D01*
X106494815Y-119448815D01*
X106415463Y-119545506D01*
X106356498Y-119655820D01*
X106320188Y-119775518D01*
X106307928Y-119900000D01*
X104151392Y-119900000D01*
X104010234Y-119784155D01*
X103734448Y-119636745D01*
X103435203Y-119545970D01*
X103124000Y-119515319D01*
X102812796Y-119545970D01*
X102513551Y-119636745D01*
X102237765Y-119784155D01*
X101996037Y-119982537D01*
X101848838Y-120161900D01*
X101693437Y-119976685D01*
X101450923Y-119782031D01*
X101175094Y-119638429D01*
X100956980Y-119567437D01*
X100711000Y-119687406D01*
X100711000Y-121031000D01*
X100731000Y-121031000D01*
X100731000Y-121285000D01*
X100711000Y-121285000D01*
X100711000Y-121305000D01*
X100457000Y-121305000D01*
X100457000Y-121285000D01*
X100437000Y-121285000D01*
X100437000Y-121031000D01*
X100457000Y-121031000D01*
X100457000Y-119687406D01*
X100211020Y-119567437D01*
X99992906Y-119638429D01*
X99717077Y-119782031D01*
X99576059Y-119895219D01*
X99527037Y-119803506D01*
X99447685Y-119706815D01*
X99350994Y-119627463D01*
X99240680Y-119568498D01*
X99120982Y-119532188D01*
X98996500Y-119519928D01*
X97091500Y-119519928D01*
X96967018Y-119532188D01*
X96847320Y-119568498D01*
X96737006Y-119627463D01*
X96640315Y-119706815D01*
X96560963Y-119803506D01*
X96501998Y-119913820D01*
X96465688Y-120033518D01*
X96453428Y-120158000D01*
X96453428Y-122158000D01*
X96465688Y-122282482D01*
X96483136Y-122340000D01*
X80660000Y-122340000D01*
X80660000Y-121388000D01*
X81935928Y-121388000D01*
X81948188Y-121512482D01*
X81984498Y-121632180D01*
X82043463Y-121742494D01*
X82122815Y-121839185D01*
X82219506Y-121918537D01*
X82329820Y-121977502D01*
X82449518Y-122013812D01*
X82574000Y-122026072D01*
X83788250Y-122023000D01*
X83947000Y-121864250D01*
X83947000Y-120015000D01*
X84201000Y-120015000D01*
X84201000Y-121864250D01*
X84359750Y-122023000D01*
X85574000Y-122026072D01*
X85698482Y-122013812D01*
X85818180Y-121977502D01*
X85928494Y-121918537D01*
X86025185Y-121839185D01*
X86104537Y-121742494D01*
X86163502Y-121632180D01*
X86199812Y-121512482D01*
X86212072Y-121388000D01*
X86209143Y-120230000D01*
X88427928Y-120230000D01*
X88440188Y-120354482D01*
X88476498Y-120474180D01*
X88535463Y-120584494D01*
X88614815Y-120681185D01*
X88711506Y-120760537D01*
X88821820Y-120819502D01*
X88941518Y-120855812D01*
X89066000Y-120868072D01*
X89630250Y-120865000D01*
X89789000Y-120706250D01*
X89789000Y-119507000D01*
X90043000Y-119507000D01*
X90043000Y-120706250D01*
X90201750Y-120865000D01*
X90766000Y-120868072D01*
X90890482Y-120855812D01*
X91010180Y-120819502D01*
X91120494Y-120760537D01*
X91217185Y-120681185D01*
X91296537Y-120584494D01*
X91355502Y-120474180D01*
X91391812Y-120354482D01*
X91404072Y-120230000D01*
X91401000Y-119665750D01*
X91242250Y-119507000D01*
X90043000Y-119507000D01*
X89789000Y-119507000D01*
X88589750Y-119507000D01*
X88431000Y-119665750D01*
X88427928Y-120230000D01*
X86209143Y-120230000D01*
X86209000Y-120173750D01*
X86050250Y-120015000D01*
X84201000Y-120015000D01*
X83947000Y-120015000D01*
X82097750Y-120015000D01*
X81939000Y-120173750D01*
X81935928Y-121388000D01*
X80660000Y-121388000D01*
X80660000Y-118388000D01*
X81935928Y-118388000D01*
X81939000Y-119602250D01*
X82097750Y-119761000D01*
X83947000Y-119761000D01*
X83947000Y-117911750D01*
X84201000Y-117911750D01*
X84201000Y-119761000D01*
X86050250Y-119761000D01*
X86209000Y-119602250D01*
X86212072Y-118388000D01*
X86199812Y-118263518D01*
X86163502Y-118143820D01*
X86104537Y-118033506D01*
X86025185Y-117936815D01*
X85928494Y-117857463D01*
X85818180Y-117798498D01*
X85698482Y-117762188D01*
X85574000Y-117749928D01*
X84359750Y-117753000D01*
X84201000Y-117911750D01*
X83947000Y-117911750D01*
X83788250Y-117753000D01*
X82574000Y-117749928D01*
X82449518Y-117762188D01*
X82329820Y-117798498D01*
X82219506Y-117857463D01*
X82122815Y-117936815D01*
X82043463Y-118033506D01*
X81984498Y-118143820D01*
X81948188Y-118263518D01*
X81935928Y-118388000D01*
X80660000Y-118388000D01*
X80660000Y-98363736D01*
X80674001Y-98373092D01*
X80674000Y-107145761D01*
X80669840Y-107188000D01*
X80674000Y-107230239D01*
X80674000Y-107230245D01*
X80675610Y-107246589D01*
X80686444Y-107356589D01*
X80700492Y-107402899D01*
X80735619Y-107518699D01*
X80815476Y-107668101D01*
X80922946Y-107799054D01*
X80955765Y-107825988D01*
X81935928Y-108806151D01*
X81935928Y-110974000D01*
X81948188Y-111098482D01*
X81984498Y-111218180D01*
X82043463Y-111328494D01*
X82122815Y-111425185D01*
X82219506Y-111504537D01*
X82329820Y-111563502D01*
X82449518Y-111599812D01*
X82574000Y-111612072D01*
X85574000Y-111612072D01*
X85698482Y-111599812D01*
X85818180Y-111563502D01*
X85928494Y-111504537D01*
X86025185Y-111425185D01*
X86104537Y-111328494D01*
X86163502Y-111218180D01*
X86199812Y-111098482D01*
X86212072Y-110974000D01*
X86212072Y-107974000D01*
X86199812Y-107849518D01*
X86163502Y-107729820D01*
X86104537Y-107619506D01*
X86025185Y-107522815D01*
X85928494Y-107443463D01*
X85818180Y-107384498D01*
X85698482Y-107348188D01*
X85574000Y-107335928D01*
X82898151Y-107335928D01*
X82394000Y-106831777D01*
X82394000Y-105722601D01*
X82415637Y-105754983D01*
X82713017Y-106052363D01*
X83062698Y-106286012D01*
X83451244Y-106446953D01*
X83863721Y-106529000D01*
X84284279Y-106529000D01*
X84696756Y-106446953D01*
X85085302Y-106286012D01*
X85434983Y-106052363D01*
X85732363Y-105754983D01*
X85966012Y-105405302D01*
X86126953Y-105016756D01*
X86209000Y-104604279D01*
X86209000Y-104183721D01*
X86126953Y-103771244D01*
X85966012Y-103382698D01*
X85732363Y-103033017D01*
X85434983Y-102735637D01*
X85085302Y-102501988D01*
X84934000Y-102439317D01*
X84934000Y-96816239D01*
X84938160Y-96774000D01*
X84934000Y-96731761D01*
X84934000Y-96731754D01*
X84923004Y-96620114D01*
X84921556Y-96605410D01*
X84884611Y-96483619D01*
X84872381Y-96443300D01*
X84792524Y-96293898D01*
X84685054Y-96162946D01*
X84652241Y-96136017D01*
X82868641Y-94352418D01*
X82865775Y-94338011D01*
X82761371Y-94085957D01*
X82609799Y-93859114D01*
X82416886Y-93666201D01*
X82190043Y-93514629D01*
X82087127Y-93472000D01*
X82190043Y-93429371D01*
X82416886Y-93277799D01*
X82609799Y-93084886D01*
X82761371Y-92858043D01*
X82865775Y-92605989D01*
X82919000Y-92338411D01*
X82919000Y-92065589D01*
X82865775Y-91798011D01*
X82761371Y-91545957D01*
X82609799Y-91319114D01*
X82416886Y-91126201D01*
X82190043Y-90974629D01*
X81937989Y-90870225D01*
X81670411Y-90817000D01*
X81397589Y-90817000D01*
X81130011Y-90870225D01*
X80877957Y-90974629D01*
X80660000Y-91120264D01*
X80660000Y-88424015D01*
X80694458Y-88442433D01*
X80861148Y-88492998D01*
X81034500Y-88510072D01*
X82033500Y-88510072D01*
X82206852Y-88492998D01*
X82373542Y-88442433D01*
X82527164Y-88360321D01*
X82661815Y-88249815D01*
X82772321Y-88115164D01*
X82854433Y-87961542D01*
X82904998Y-87794852D01*
X82922072Y-87621500D01*
X82922072Y-86622500D01*
X82904998Y-86449148D01*
X82854433Y-86282458D01*
X82772321Y-86128836D01*
X82661815Y-85994185D01*
X82527164Y-85883679D01*
X82373542Y-85801567D01*
X82206852Y-85751002D01*
X82033500Y-85733928D01*
X81034500Y-85733928D01*
X80861148Y-85751002D01*
X80694458Y-85801567D01*
X80660000Y-85819985D01*
X80660000Y-82212000D01*
X81573928Y-82212000D01*
X81573928Y-84412000D01*
X81586188Y-84536482D01*
X81622498Y-84656180D01*
X81681463Y-84766494D01*
X81760815Y-84863185D01*
X81857506Y-84942537D01*
X81967820Y-85001502D01*
X82087518Y-85037812D01*
X82212000Y-85050072D01*
X84412000Y-85050072D01*
X84536482Y-85037812D01*
X84656180Y-85001502D01*
X84766494Y-84942537D01*
X84863185Y-84863185D01*
X84929557Y-84782310D01*
X85030169Y-84849537D01*
X85345919Y-84980325D01*
X85681117Y-85047000D01*
X86022883Y-85047000D01*
X86358081Y-84980325D01*
X86673831Y-84849537D01*
X86957998Y-84659663D01*
X87199663Y-84417998D01*
X87278001Y-84300757D01*
X87278000Y-85899946D01*
X87270043Y-85894629D01*
X87017989Y-85790225D01*
X86750411Y-85737000D01*
X86477589Y-85737000D01*
X86210011Y-85790225D01*
X85957957Y-85894629D01*
X85731114Y-86046201D01*
X85538201Y-86239114D01*
X85386629Y-86465957D01*
X85282225Y-86718011D01*
X85229000Y-86985589D01*
X85229000Y-87258411D01*
X85282225Y-87525989D01*
X85386629Y-87778043D01*
X85538201Y-88004886D01*
X85731114Y-88197799D01*
X85957957Y-88349371D01*
X86210011Y-88453775D01*
X86477589Y-88507000D01*
X86750411Y-88507000D01*
X87017989Y-88453775D01*
X87270043Y-88349371D01*
X87278000Y-88344054D01*
X87278000Y-89111761D01*
X87273840Y-89154000D01*
X87278000Y-89196239D01*
X87278000Y-89196245D01*
X87288755Y-89305441D01*
X87290444Y-89322589D01*
X87305361Y-89371764D01*
X87339619Y-89484699D01*
X87419476Y-89634101D01*
X87526946Y-89765054D01*
X87559765Y-89791988D01*
X87786001Y-90018223D01*
X87786001Y-91463090D01*
X87689799Y-91319114D01*
X87496886Y-91126201D01*
X87270043Y-90974629D01*
X87017989Y-90870225D01*
X86750411Y-90817000D01*
X86477589Y-90817000D01*
X86210011Y-90870225D01*
X85957957Y-90974629D01*
X85731114Y-91126201D01*
X85538201Y-91319114D01*
X85386629Y-91545957D01*
X85282225Y-91798011D01*
X85229000Y-92065589D01*
X85229000Y-92338411D01*
X85282225Y-92605989D01*
X85386629Y-92858043D01*
X85538201Y-93084886D01*
X85731114Y-93277799D01*
X85957957Y-93429371D01*
X86060873Y-93472000D01*
X85957957Y-93514629D01*
X85731114Y-93666201D01*
X85538201Y-93859114D01*
X85386629Y-94085957D01*
X85282225Y-94338011D01*
X85229000Y-94605589D01*
X85229000Y-94878411D01*
X85282225Y-95145989D01*
X85386629Y-95398043D01*
X85538201Y-95624886D01*
X85731114Y-95817799D01*
X85957957Y-95969371D01*
X86060873Y-96012000D01*
X85957957Y-96054629D01*
X85731114Y-96206201D01*
X85538201Y-96399114D01*
X85386629Y-96625957D01*
X85282225Y-96878011D01*
X85229000Y-97145589D01*
X85229000Y-97418411D01*
X85282225Y-97685989D01*
X85386629Y-97938043D01*
X85538201Y-98164886D01*
X85731114Y-98357799D01*
X85957957Y-98509371D01*
X86210011Y-98613775D01*
X86477589Y-98667000D01*
X86750411Y-98667000D01*
X86820773Y-98653004D01*
X86797760Y-98676017D01*
X86764947Y-98702946D01*
X86738018Y-98735759D01*
X86738016Y-98735761D01*
X86657477Y-98833898D01*
X86577620Y-98983300D01*
X86528444Y-99145411D01*
X86511840Y-99314000D01*
X86516001Y-99356249D01*
X86516000Y-112673776D01*
X85736527Y-113453249D01*
X85732363Y-113447017D01*
X85434983Y-113149637D01*
X85085302Y-112915988D01*
X84696756Y-112755047D01*
X84284279Y-112673000D01*
X83863721Y-112673000D01*
X83451244Y-112755047D01*
X83062698Y-112915988D01*
X82713017Y-113149637D01*
X82415637Y-113447017D01*
X82181988Y-113796698D01*
X82021047Y-114185244D01*
X81939000Y-114597721D01*
X81939000Y-115018279D01*
X82021047Y-115430756D01*
X82181988Y-115819302D01*
X82415637Y-116168983D01*
X82713017Y-116466363D01*
X83062698Y-116700012D01*
X83451244Y-116860953D01*
X83863721Y-116943000D01*
X84284279Y-116943000D01*
X84696756Y-116860953D01*
X85085302Y-116700012D01*
X85434983Y-116466363D01*
X85732363Y-116168983D01*
X85966012Y-115819302D01*
X86092014Y-115515107D01*
X86209054Y-115419054D01*
X86235988Y-115386235D01*
X87954242Y-113667982D01*
X87987054Y-113641054D01*
X88094524Y-113510102D01*
X88167273Y-113373998D01*
X88174381Y-113360701D01*
X88223556Y-113198590D01*
X88240161Y-113030000D01*
X88236000Y-112987754D01*
X88236000Y-99670223D01*
X89056001Y-98850223D01*
X89056000Y-110548639D01*
X88969368Y-110606525D01*
X88762525Y-110813368D01*
X88600010Y-111056589D01*
X88488068Y-111326842D01*
X88431000Y-111613740D01*
X88431000Y-111906260D01*
X88488068Y-112193158D01*
X88600010Y-112463411D01*
X88762525Y-112706632D01*
X88969368Y-112913475D01*
X89143760Y-113030000D01*
X88969368Y-113146525D01*
X88762525Y-113353368D01*
X88600010Y-113596589D01*
X88488068Y-113866842D01*
X88431000Y-114153740D01*
X88431000Y-114446260D01*
X88488068Y-114733158D01*
X88600010Y-115003411D01*
X88762525Y-115246632D01*
X88969368Y-115453475D01*
X89143760Y-115570000D01*
X88969368Y-115686525D01*
X88762525Y-115893368D01*
X88600010Y-116136589D01*
X88488068Y-116406842D01*
X88431000Y-116693740D01*
X88431000Y-116986260D01*
X88488068Y-117273158D01*
X88600010Y-117543411D01*
X88762525Y-117786632D01*
X88894380Y-117918487D01*
X88821820Y-117940498D01*
X88711506Y-117999463D01*
X88614815Y-118078815D01*
X88535463Y-118175506D01*
X88476498Y-118285820D01*
X88440188Y-118405518D01*
X88427928Y-118530000D01*
X88431000Y-119094250D01*
X88589750Y-119253000D01*
X89789000Y-119253000D01*
X89789000Y-119233000D01*
X90043000Y-119233000D01*
X90043000Y-119253000D01*
X91242250Y-119253000D01*
X91401000Y-119094250D01*
X91404072Y-118530000D01*
X91391812Y-118405518D01*
X91355502Y-118285820D01*
X91296537Y-118175506D01*
X91217185Y-118078815D01*
X91120494Y-117999463D01*
X91010180Y-117940498D01*
X90937620Y-117918487D01*
X91069475Y-117786632D01*
X91231990Y-117543411D01*
X91343932Y-117273158D01*
X91401000Y-116986260D01*
X91401000Y-116693740D01*
X91343932Y-116406842D01*
X91231990Y-116136589D01*
X91069475Y-115893368D01*
X90862632Y-115686525D01*
X90688240Y-115570000D01*
X90862632Y-115453475D01*
X91069475Y-115246632D01*
X91231990Y-115003411D01*
X91343932Y-114733158D01*
X91401000Y-114446260D01*
X91401000Y-114153740D01*
X91343932Y-113866842D01*
X91231990Y-113596589D01*
X91069475Y-113353368D01*
X90862632Y-113146525D01*
X90688240Y-113030000D01*
X90862632Y-112913475D01*
X91069475Y-112706632D01*
X91231990Y-112463411D01*
X91343932Y-112193158D01*
X91396277Y-111930000D01*
X93003928Y-111930000D01*
X93003928Y-114130000D01*
X93016188Y-114254482D01*
X93052498Y-114374180D01*
X93111463Y-114484494D01*
X93190815Y-114581185D01*
X93287506Y-114660537D01*
X93397820Y-114719502D01*
X93517518Y-114755812D01*
X93642000Y-114768072D01*
X93968342Y-114768072D01*
X93952815Y-114780815D01*
X93873463Y-114877506D01*
X93814498Y-114987820D01*
X93778188Y-115107518D01*
X93765928Y-115232000D01*
X93765928Y-117432000D01*
X93778188Y-117556482D01*
X93814498Y-117676180D01*
X93873463Y-117786494D01*
X93952815Y-117883185D01*
X94049506Y-117962537D01*
X94159820Y-118021502D01*
X94279518Y-118057812D01*
X94404000Y-118070072D01*
X96604000Y-118070072D01*
X96728482Y-118057812D01*
X96848180Y-118021502D01*
X96958494Y-117962537D01*
X97055185Y-117883185D01*
X97134537Y-117786494D01*
X97193502Y-117676180D01*
X97229812Y-117556482D01*
X97242072Y-117432000D01*
X97242072Y-116161117D01*
X103929000Y-116161117D01*
X103929000Y-116502883D01*
X103995675Y-116838081D01*
X104126463Y-117153831D01*
X104316337Y-117437998D01*
X104558002Y-117679663D01*
X104842169Y-117869537D01*
X105157919Y-118000325D01*
X105493117Y-118067000D01*
X105834883Y-118067000D01*
X106170081Y-118000325D01*
X106485831Y-117869537D01*
X106769998Y-117679663D01*
X107011663Y-117437998D01*
X107201537Y-117153831D01*
X107332325Y-116838081D01*
X107399000Y-116502883D01*
X107399000Y-116161117D01*
X107332325Y-115825919D01*
X107201537Y-115510169D01*
X107015671Y-115232000D01*
X114085928Y-115232000D01*
X114085928Y-117432000D01*
X114098188Y-117556482D01*
X114134498Y-117676180D01*
X114193463Y-117786494D01*
X114272815Y-117883185D01*
X114369506Y-117962537D01*
X114479820Y-118021502D01*
X114599518Y-118057812D01*
X114724000Y-118070072D01*
X116924000Y-118070072D01*
X117048482Y-118057812D01*
X117168180Y-118021502D01*
X117278494Y-117962537D01*
X117375185Y-117883185D01*
X117454537Y-117786494D01*
X117513502Y-117676180D01*
X117549812Y-117556482D01*
X117562072Y-117432000D01*
X117562072Y-115232000D01*
X117549812Y-115107518D01*
X117513502Y-114987820D01*
X117454537Y-114877506D01*
X117375185Y-114780815D01*
X117278494Y-114701463D01*
X117168180Y-114642498D01*
X117048482Y-114606188D01*
X116924000Y-114593928D01*
X114724000Y-114593928D01*
X114599518Y-114606188D01*
X114479820Y-114642498D01*
X114369506Y-114701463D01*
X114272815Y-114780815D01*
X114193463Y-114877506D01*
X114134498Y-114987820D01*
X114098188Y-115107518D01*
X114085928Y-115232000D01*
X107015671Y-115232000D01*
X107011663Y-115226002D01*
X106769998Y-114984337D01*
X106485831Y-114794463D01*
X106170081Y-114663675D01*
X105834883Y-114597000D01*
X105493117Y-114597000D01*
X105157919Y-114663675D01*
X104842169Y-114794463D01*
X104558002Y-114984337D01*
X104316337Y-115226002D01*
X104126463Y-115510169D01*
X103995675Y-115825919D01*
X103929000Y-116161117D01*
X97242072Y-116161117D01*
X97242072Y-115232000D01*
X97229812Y-115107518D01*
X97193502Y-114987820D01*
X97134537Y-114877506D01*
X97055185Y-114780815D01*
X96958494Y-114701463D01*
X96848180Y-114642498D01*
X96728482Y-114606188D01*
X96604000Y-114593928D01*
X96277658Y-114593928D01*
X96293185Y-114581185D01*
X96372537Y-114484494D01*
X96431502Y-114374180D01*
X96467812Y-114254482D01*
X96480072Y-114130000D01*
X96480072Y-111930000D01*
X96467812Y-111805518D01*
X96431502Y-111685820D01*
X96372537Y-111575506D01*
X96293185Y-111478815D01*
X96196494Y-111399463D01*
X96086180Y-111340498D01*
X95966482Y-111304188D01*
X95842000Y-111291928D01*
X93642000Y-111291928D01*
X93517518Y-111304188D01*
X93397820Y-111340498D01*
X93287506Y-111399463D01*
X93190815Y-111478815D01*
X93111463Y-111575506D01*
X93052498Y-111685820D01*
X93016188Y-111805518D01*
X93003928Y-111930000D01*
X91396277Y-111930000D01*
X91401000Y-111906260D01*
X91401000Y-111613740D01*
X91343932Y-111326842D01*
X91231990Y-111056589D01*
X91069475Y-110813368D01*
X90862632Y-110606525D01*
X90776000Y-110548639D01*
X90776000Y-88101087D01*
X90890482Y-88089812D01*
X91010180Y-88053502D01*
X91120494Y-87994537D01*
X91217185Y-87915185D01*
X91296537Y-87818494D01*
X91355502Y-87708180D01*
X91391812Y-87588482D01*
X91404072Y-87464000D01*
X91404072Y-85764000D01*
X91391812Y-85639518D01*
X91355502Y-85519820D01*
X91296537Y-85409506D01*
X91217185Y-85312815D01*
X91120494Y-85233463D01*
X91010180Y-85174498D01*
X90929534Y-85150034D01*
X91013588Y-85074269D01*
X91187641Y-84840920D01*
X91312825Y-84578099D01*
X91357476Y-84430890D01*
X91236155Y-84201000D01*
X90043000Y-84201000D01*
X90043000Y-84221000D01*
X89789000Y-84221000D01*
X89789000Y-84201000D01*
X89769000Y-84201000D01*
X89769000Y-83947000D01*
X89789000Y-83947000D01*
X89789000Y-81661000D01*
X90043000Y-81661000D01*
X90043000Y-83947000D01*
X91236155Y-83947000D01*
X91357476Y-83717110D01*
X91312825Y-83569901D01*
X91187641Y-83307080D01*
X91013588Y-83073731D01*
X90797355Y-82878822D01*
X90671745Y-82804000D01*
X90797355Y-82729178D01*
X91013588Y-82534269D01*
X91187641Y-82300920D01*
X91312825Y-82038099D01*
X91357476Y-81890890D01*
X91236155Y-81661000D01*
X90043000Y-81661000D01*
X89789000Y-81661000D01*
X89769000Y-81661000D01*
X89769000Y-81407000D01*
X89789000Y-81407000D01*
X89789000Y-81387000D01*
X90043000Y-81387000D01*
X90043000Y-81407000D01*
X91236155Y-81407000D01*
X91357476Y-81177110D01*
X91312825Y-81029901D01*
X91187641Y-80767080D01*
X91013588Y-80533731D01*
X90797355Y-80338822D01*
X90680466Y-80269195D01*
X90862632Y-80147475D01*
X91069475Y-79940632D01*
X91231990Y-79697411D01*
X91343932Y-79427158D01*
X91401000Y-79140260D01*
X91401000Y-78847740D01*
X91343932Y-78560842D01*
X91231990Y-78290589D01*
X91069475Y-78047368D01*
X90862632Y-77840525D01*
X90619411Y-77678010D01*
X90349158Y-77566068D01*
X90062260Y-77509000D01*
X89769740Y-77509000D01*
X89482842Y-77566068D01*
X89212589Y-77678010D01*
X88969368Y-77840525D01*
X88762525Y-78047368D01*
X88600010Y-78290589D01*
X88488068Y-78560842D01*
X88431000Y-78847740D01*
X88431000Y-79140260D01*
X88451327Y-79242450D01*
X87559760Y-80134017D01*
X87526947Y-80160946D01*
X87500018Y-80193759D01*
X87500016Y-80193761D01*
X87419477Y-80291898D01*
X87339620Y-80441300D01*
X87290444Y-80603411D01*
X87273840Y-80772000D01*
X87278001Y-80814249D01*
X87278001Y-82323243D01*
X87199663Y-82206002D01*
X86957998Y-81964337D01*
X86673831Y-81774463D01*
X86358081Y-81643675D01*
X86022883Y-81577000D01*
X85681117Y-81577000D01*
X85345919Y-81643675D01*
X85030169Y-81774463D01*
X84929557Y-81841690D01*
X84863185Y-81760815D01*
X84766494Y-81681463D01*
X84656180Y-81622498D01*
X84536482Y-81586188D01*
X84412000Y-81573928D01*
X82212000Y-81573928D01*
X82087518Y-81586188D01*
X81967820Y-81622498D01*
X81857506Y-81681463D01*
X81760815Y-81760815D01*
X81681463Y-81857506D01*
X81622498Y-81967820D01*
X81586188Y-82087518D01*
X81573928Y-82212000D01*
X80660000Y-82212000D01*
X80660000Y-79096891D01*
X81108519Y-79096891D01*
X81205843Y-79371252D01*
X81354822Y-79621355D01*
X81549731Y-79837588D01*
X81783080Y-80011641D01*
X82045901Y-80136825D01*
X82193110Y-80181476D01*
X82423000Y-80060155D01*
X82423000Y-78867000D01*
X81229186Y-78867000D01*
X81108519Y-79096891D01*
X80660000Y-79096891D01*
X80660000Y-78383109D01*
X81108519Y-78383109D01*
X81229186Y-78613000D01*
X82423000Y-78613000D01*
X82423000Y-77419845D01*
X82193110Y-77298524D01*
X82045901Y-77343175D01*
X81783080Y-77468359D01*
X81549731Y-77642412D01*
X81354822Y-77858645D01*
X81205843Y-78108748D01*
X81108519Y-78383109D01*
X80660000Y-78383109D01*
X80660000Y-70660000D01*
X82207348Y-70660000D01*
X82019369Y-70941331D01*
G37*
%TD.AperFunction*%
D32*
X124340000Y-74719754D02*
X124141808Y-74613818D01*
X124050000Y-74585969D01*
X124050000Y-73226246D01*
X124054161Y-73184000D01*
X124037556Y-73015410D01*
X123988381Y-72853299D01*
X123942387Y-72767252D01*
X123908524Y-72703898D01*
X123801054Y-72572946D01*
X123768240Y-72546016D01*
X123033988Y-71811764D01*
X123007054Y-71778946D01*
X122876102Y-71671476D01*
X122726700Y-71591619D01*
X122682715Y-71578276D01*
X122667498Y-71549808D01*
X122613042Y-71468309D01*
X122533690Y-71371618D01*
X122464382Y-71302310D01*
X122367691Y-71222958D01*
X122286192Y-71168502D01*
X122175875Y-71109536D01*
X122085319Y-71072027D01*
X121965623Y-71035718D01*
X121869490Y-71016596D01*
X121745009Y-71004336D01*
X121720450Y-71004336D01*
X121696000Y-71001928D01*
X121146000Y-71001928D01*
X121021518Y-71014188D01*
X121021000Y-71014345D01*
X121020482Y-71014188D01*
X120896000Y-71001928D01*
X119896000Y-71001928D01*
X119771518Y-71014188D01*
X119651820Y-71050498D01*
X119541506Y-71109463D01*
X119444815Y-71188815D01*
X119365463Y-71285506D01*
X119306498Y-71395820D01*
X119270188Y-71515518D01*
X119257928Y-71640000D01*
X119257928Y-73140000D01*
X119270188Y-73264482D01*
X119306498Y-73384180D01*
X119365463Y-73494494D01*
X119444815Y-73591185D01*
X119541506Y-73670537D01*
X119611000Y-73707683D01*
X119611001Y-77431437D01*
X119607203Y-77470000D01*
X119622359Y-77623886D01*
X119667246Y-77771859D01*
X119687318Y-77809411D01*
X119740139Y-77908233D01*
X119775403Y-77951202D01*
X119813655Y-77997812D01*
X119813659Y-77997816D01*
X119838237Y-78027764D01*
X119868185Y-78052342D01*
X120829657Y-79013815D01*
X120854236Y-79043764D01*
X120884184Y-79068342D01*
X120884187Y-79068345D01*
X120887057Y-79070700D01*
X120973767Y-79141862D01*
X121090999Y-79204523D01*
X121110140Y-79214754D01*
X121258113Y-79259642D01*
X121333026Y-79267020D01*
X121373439Y-79271000D01*
X121373444Y-79271000D01*
X121412000Y-79274797D01*
X121450555Y-79271000D01*
X121582462Y-79271000D01*
X121591068Y-79287101D01*
X121770392Y-79505608D01*
X121988899Y-79684932D01*
X122121858Y-79756000D01*
X121988899Y-79827068D01*
X121770392Y-80006392D01*
X121591068Y-80224899D01*
X121582462Y-80241000D01*
X120434552Y-80241000D01*
X120395999Y-80237203D01*
X120357446Y-80241000D01*
X120357439Y-80241000D01*
X120256490Y-80250943D01*
X120242112Y-80252359D01*
X120114120Y-80291185D01*
X120094140Y-80297246D01*
X119957767Y-80370138D01*
X119899587Y-80417886D01*
X119868187Y-80443655D01*
X119868184Y-80443658D01*
X119838236Y-80468236D01*
X119813658Y-80498184D01*
X117582185Y-82729658D01*
X117552237Y-82754236D01*
X117527659Y-82784184D01*
X117527655Y-82784188D01*
X117511396Y-82804000D01*
X117454139Y-82873767D01*
X117415177Y-82946660D01*
X117381246Y-83010141D01*
X117343930Y-83133156D01*
X117233715Y-82874354D01*
X117074500Y-82641105D01*
X116872839Y-82443399D01*
X116647441Y-82296000D01*
X116872839Y-82148601D01*
X117074500Y-81950895D01*
X117233715Y-81717646D01*
X117344367Y-81457818D01*
X117361904Y-81375039D01*
X117239915Y-81153000D01*
X115697000Y-81153000D01*
X115697000Y-83439000D01*
X115717000Y-83439000D01*
X115717000Y-83693000D01*
X115697000Y-83693000D01*
X115697000Y-85001000D01*
X116097000Y-85001000D01*
X116374514Y-84948650D01*
X116636483Y-84843166D01*
X116872839Y-84688601D01*
X117074500Y-84490895D01*
X117233715Y-84257646D01*
X117325001Y-84043292D01*
X117325000Y-96735447D01*
X117321203Y-96774000D01*
X117325000Y-96812553D01*
X117325000Y-96812560D01*
X117336359Y-96927886D01*
X117381246Y-97075859D01*
X117454138Y-97212232D01*
X117552236Y-97331764D01*
X117582190Y-97356347D01*
X118797658Y-98571815D01*
X118822236Y-98601764D01*
X118852184Y-98626342D01*
X118852187Y-98626345D01*
X118881559Y-98650450D01*
X118941767Y-98699862D01*
X119078140Y-98772754D01*
X119191672Y-98807194D01*
X119226112Y-98817641D01*
X119240490Y-98819057D01*
X119341439Y-98829000D01*
X119341446Y-98829000D01*
X119379999Y-98832797D01*
X119418552Y-98829000D01*
X119448661Y-98829000D01*
X119535363Y-98958759D01*
X119735241Y-99158637D01*
X119970273Y-99315680D01*
X120231426Y-99423853D01*
X120508665Y-99479000D01*
X120791335Y-99479000D01*
X121068574Y-99423853D01*
X121329727Y-99315680D01*
X121564759Y-99158637D01*
X121764637Y-98958759D01*
X121920000Y-98726241D01*
X122075363Y-98958759D01*
X122275241Y-99158637D01*
X122510273Y-99315680D01*
X122771426Y-99423853D01*
X123048665Y-99479000D01*
X123331335Y-99479000D01*
X123608574Y-99423853D01*
X123869727Y-99315680D01*
X124104759Y-99158637D01*
X124304637Y-98958759D01*
X124340001Y-98905834D01*
X124340001Y-101460335D01*
X124284180Y-101430498D01*
X124164482Y-101394188D01*
X124040000Y-101381928D01*
X122340000Y-101381928D01*
X122215518Y-101394188D01*
X122095820Y-101430498D01*
X121985506Y-101489463D01*
X121888815Y-101568815D01*
X121809463Y-101665506D01*
X121750498Y-101775820D01*
X121714188Y-101895518D01*
X121701928Y-102020000D01*
X121701928Y-102085000D01*
X121551944Y-102085000D01*
X121550472Y-102080149D01*
X121468405Y-101926613D01*
X121357962Y-101792038D01*
X121223387Y-101681595D01*
X121069851Y-101599528D01*
X120903255Y-101548992D01*
X120730001Y-101531928D01*
X120029999Y-101531928D01*
X119856745Y-101548992D01*
X119690149Y-101599528D01*
X119536613Y-101681595D01*
X119402038Y-101792038D01*
X119380000Y-101818891D01*
X119357962Y-101792038D01*
X119223387Y-101681595D01*
X119069851Y-101599528D01*
X118903255Y-101548992D01*
X118730001Y-101531928D01*
X118029999Y-101531928D01*
X117856745Y-101548992D01*
X117690149Y-101599528D01*
X117536613Y-101681595D01*
X117402038Y-101792038D01*
X117291595Y-101926613D01*
X117209528Y-102080149D01*
X117208056Y-102085000D01*
X115862552Y-102085000D01*
X115823999Y-102081203D01*
X115785446Y-102085000D01*
X115785439Y-102085000D01*
X115684490Y-102094943D01*
X115670112Y-102096359D01*
X115635672Y-102106806D01*
X115522140Y-102141246D01*
X115385767Y-102214138D01*
X115346036Y-102246745D01*
X115296187Y-102287655D01*
X115296184Y-102287658D01*
X115266236Y-102312236D01*
X115241658Y-102342184D01*
X113974843Y-103609000D01*
X113257719Y-103609000D01*
X113280367Y-103555818D01*
X113297904Y-103473039D01*
X113175915Y-103251000D01*
X111633000Y-103251000D01*
X111633000Y-103271000D01*
X111379000Y-103271000D01*
X111379000Y-103251000D01*
X109836085Y-103251000D01*
X109714096Y-103473039D01*
X109731633Y-103555818D01*
X109754281Y-103609000D01*
X108496556Y-103609000D01*
X108458000Y-103605203D01*
X108419444Y-103609000D01*
X108419439Y-103609000D01*
X108379026Y-103612980D01*
X108304113Y-103620358D01*
X108173925Y-103659851D01*
X108156140Y-103665246D01*
X108019767Y-103738138D01*
X107900236Y-103836236D01*
X107875655Y-103866188D01*
X107168185Y-104573658D01*
X107138237Y-104598236D01*
X107113659Y-104628184D01*
X107113655Y-104628188D01*
X107100357Y-104644392D01*
X107040139Y-104717767D01*
X107001177Y-104790660D01*
X106967246Y-104854141D01*
X106957000Y-104887918D01*
X106957000Y-104719157D01*
X107715815Y-103960343D01*
X107745764Y-103935764D01*
X107843862Y-103816233D01*
X107916754Y-103679860D01*
X107927741Y-103643641D01*
X107961642Y-103531887D01*
X107969020Y-103456974D01*
X107973000Y-103416561D01*
X107973000Y-103416556D01*
X107976797Y-103378000D01*
X107973000Y-103339445D01*
X107973000Y-90495157D01*
X109799158Y-88669000D01*
X109898462Y-88669000D01*
X109907068Y-88685101D01*
X110086392Y-88903608D01*
X110304899Y-89082932D01*
X110437858Y-89154000D01*
X110304899Y-89225068D01*
X110086392Y-89404392D01*
X109907068Y-89622899D01*
X109773818Y-89872192D01*
X109691764Y-90142691D01*
X109664057Y-90424000D01*
X109691764Y-90705309D01*
X109773818Y-90975808D01*
X109907068Y-91225101D01*
X110086392Y-91443608D01*
X110304899Y-91622932D01*
X110437858Y-91694000D01*
X110304899Y-91765068D01*
X110086392Y-91944392D01*
X109907068Y-92162899D01*
X109773818Y-92412192D01*
X109691764Y-92682691D01*
X109664057Y-92964000D01*
X109691764Y-93245309D01*
X109773818Y-93515808D01*
X109907068Y-93765101D01*
X110086392Y-93983608D01*
X110304899Y-94162932D01*
X110437858Y-94234000D01*
X110304899Y-94305068D01*
X110086392Y-94484392D01*
X109907068Y-94702899D01*
X109773818Y-94952192D01*
X109691764Y-95222691D01*
X109664057Y-95504000D01*
X109691764Y-95785309D01*
X109773818Y-96055808D01*
X109907068Y-96305101D01*
X110086392Y-96523608D01*
X110304899Y-96702932D01*
X110437858Y-96774000D01*
X110304899Y-96845068D01*
X110086392Y-97024392D01*
X109907068Y-97242899D01*
X109773818Y-97492192D01*
X109691764Y-97762691D01*
X109664057Y-98044000D01*
X109691764Y-98325309D01*
X109773818Y-98595808D01*
X109907068Y-98845101D01*
X110086392Y-99063608D01*
X110304899Y-99242932D01*
X110437858Y-99314000D01*
X110304899Y-99385068D01*
X110086392Y-99564392D01*
X109907068Y-99782899D01*
X109773818Y-100032192D01*
X109691764Y-100302691D01*
X109664057Y-100584000D01*
X109691764Y-100865309D01*
X109773818Y-101135808D01*
X109907068Y-101385101D01*
X110086392Y-101603608D01*
X110304899Y-101782932D01*
X110432741Y-101851265D01*
X110203161Y-102001399D01*
X110001500Y-102199105D01*
X109842285Y-102432354D01*
X109731633Y-102692182D01*
X109714096Y-102774961D01*
X109836085Y-102997000D01*
X111379000Y-102997000D01*
X111379000Y-102977000D01*
X111633000Y-102977000D01*
X111633000Y-102997000D01*
X113175915Y-102997000D01*
X113297904Y-102774961D01*
X113280367Y-102692182D01*
X113169715Y-102432354D01*
X113010500Y-102199105D01*
X112808839Y-102001399D01*
X112579259Y-101851265D01*
X112707101Y-101782932D01*
X112925608Y-101603608D01*
X113104932Y-101385101D01*
X113238182Y-101135808D01*
X113320236Y-100865309D01*
X113347943Y-100584000D01*
X113320236Y-100302691D01*
X113238182Y-100032192D01*
X113104932Y-99782899D01*
X112925608Y-99564392D01*
X112707101Y-99385068D01*
X112574142Y-99314000D01*
X112707101Y-99242932D01*
X112925608Y-99063608D01*
X113104932Y-98845101D01*
X113238182Y-98595808D01*
X113276951Y-98468000D01*
X114085928Y-98468000D01*
X114085928Y-100668000D01*
X114098188Y-100792482D01*
X114134498Y-100912180D01*
X114193463Y-101022494D01*
X114272815Y-101119185D01*
X114369506Y-101198537D01*
X114479820Y-101257502D01*
X114599518Y-101293812D01*
X114724000Y-101306072D01*
X116924000Y-101306072D01*
X117048482Y-101293812D01*
X117168180Y-101257502D01*
X117278494Y-101198537D01*
X117375185Y-101119185D01*
X117454537Y-101022494D01*
X117513502Y-100912180D01*
X117549812Y-100792482D01*
X117562072Y-100668000D01*
X117562072Y-98468000D01*
X117549812Y-98343518D01*
X117513502Y-98223820D01*
X117454537Y-98113506D01*
X117375185Y-98016815D01*
X117278494Y-97937463D01*
X117168180Y-97878498D01*
X117048482Y-97842188D01*
X116924000Y-97829928D01*
X114724000Y-97829928D01*
X114599518Y-97842188D01*
X114479820Y-97878498D01*
X114369506Y-97937463D01*
X114272815Y-98016815D01*
X114193463Y-98113506D01*
X114134498Y-98223820D01*
X114098188Y-98343518D01*
X114085928Y-98468000D01*
X113276951Y-98468000D01*
X113320236Y-98325309D01*
X113347943Y-98044000D01*
X113320236Y-97762691D01*
X113238182Y-97492192D01*
X113104932Y-97242899D01*
X112925608Y-97024392D01*
X112707101Y-96845068D01*
X112574142Y-96774000D01*
X112707101Y-96702932D01*
X112925608Y-96523608D01*
X113104932Y-96305101D01*
X113238182Y-96055808D01*
X113320236Y-95785309D01*
X113347943Y-95504000D01*
X113320236Y-95222691D01*
X113238182Y-94952192D01*
X113104932Y-94702899D01*
X112925608Y-94484392D01*
X112707101Y-94305068D01*
X112574142Y-94234000D01*
X112707101Y-94162932D01*
X112925608Y-93983608D01*
X113104932Y-93765101D01*
X113113538Y-93749000D01*
X114281559Y-93749000D01*
X114280188Y-93753518D01*
X114267928Y-93878000D01*
X114267928Y-95478000D01*
X114280188Y-95602482D01*
X114316498Y-95722180D01*
X114375463Y-95832494D01*
X114454815Y-95929185D01*
X114551506Y-96008537D01*
X114661820Y-96067502D01*
X114781518Y-96103812D01*
X114906000Y-96116072D01*
X116306000Y-96116072D01*
X116430482Y-96103812D01*
X116550180Y-96067502D01*
X116660494Y-96008537D01*
X116757185Y-95929185D01*
X116836537Y-95832494D01*
X116895502Y-95722180D01*
X116931812Y-95602482D01*
X116944072Y-95478000D01*
X116944072Y-93878000D01*
X116931812Y-93753518D01*
X116895502Y-93633820D01*
X116836537Y-93523506D01*
X116757185Y-93426815D01*
X116660494Y-93347463D01*
X116550180Y-93288498D01*
X116430482Y-93252188D01*
X116391000Y-93248299D01*
X116391000Y-93220556D01*
X116394797Y-93182000D01*
X116391000Y-93143440D01*
X116391000Y-88107701D01*
X116430482Y-88103812D01*
X116550180Y-88067502D01*
X116660494Y-88008537D01*
X116757185Y-87929185D01*
X116836537Y-87832494D01*
X116895502Y-87722180D01*
X116931812Y-87602482D01*
X116944072Y-87478000D01*
X116944072Y-85878000D01*
X116931812Y-85753518D01*
X116895502Y-85633820D01*
X116836537Y-85523506D01*
X116757185Y-85426815D01*
X116660494Y-85347463D01*
X116550180Y-85288498D01*
X116430482Y-85252188D01*
X116306000Y-85239928D01*
X114906000Y-85239928D01*
X114781518Y-85252188D01*
X114661820Y-85288498D01*
X114551506Y-85347463D01*
X114454815Y-85426815D01*
X114375463Y-85523506D01*
X114316498Y-85633820D01*
X114280188Y-85753518D01*
X114267928Y-85878000D01*
X114267928Y-87478000D01*
X114280188Y-87602482D01*
X114316498Y-87722180D01*
X114375463Y-87832494D01*
X114454815Y-87929185D01*
X114551506Y-88008537D01*
X114661820Y-88067502D01*
X114781518Y-88103812D01*
X114821000Y-88107701D01*
X114821001Y-92179000D01*
X113113538Y-92179000D01*
X113104932Y-92162899D01*
X112925608Y-91944392D01*
X112707101Y-91765068D01*
X112574142Y-91694000D01*
X112707101Y-91622932D01*
X112925608Y-91443608D01*
X113104932Y-91225101D01*
X113238182Y-90975808D01*
X113320236Y-90705309D01*
X113347943Y-90424000D01*
X113320236Y-90142691D01*
X113238182Y-89872192D01*
X113104932Y-89622899D01*
X112925608Y-89404392D01*
X112707101Y-89225068D01*
X112574142Y-89154000D01*
X112707101Y-89082932D01*
X112925608Y-88903608D01*
X113104932Y-88685101D01*
X113238182Y-88435808D01*
X113320236Y-88165309D01*
X113347943Y-87884000D01*
X113320236Y-87602691D01*
X113238182Y-87332192D01*
X113104932Y-87082899D01*
X112925608Y-86864392D01*
X112707101Y-86685068D01*
X112574142Y-86614000D01*
X112707101Y-86542932D01*
X112925608Y-86363608D01*
X113104932Y-86145101D01*
X113238182Y-85895808D01*
X113320236Y-85625309D01*
X113347943Y-85344000D01*
X113320236Y-85062691D01*
X113238182Y-84792192D01*
X113104932Y-84542899D01*
X112925608Y-84324392D01*
X112707101Y-84145068D01*
X112574142Y-84074000D01*
X112707101Y-84002932D01*
X112814198Y-83915039D01*
X113778096Y-83915039D01*
X113795633Y-83997818D01*
X113906285Y-84257646D01*
X114065500Y-84490895D01*
X114267161Y-84688601D01*
X114503517Y-84843166D01*
X114765486Y-84948650D01*
X115043000Y-85001000D01*
X115443000Y-85001000D01*
X115443000Y-83693000D01*
X113900085Y-83693000D01*
X113778096Y-83915039D01*
X112814198Y-83915039D01*
X112925608Y-83823608D01*
X113104932Y-83605101D01*
X113238182Y-83355808D01*
X113306907Y-83129251D01*
X114065817Y-82370341D01*
X114095764Y-82345764D01*
X114193862Y-82226233D01*
X114246292Y-82128142D01*
X114267161Y-82148601D01*
X114492559Y-82296000D01*
X114267161Y-82443399D01*
X114065500Y-82641105D01*
X113906285Y-82874354D01*
X113795633Y-83134182D01*
X113778096Y-83216961D01*
X113900085Y-83439000D01*
X115443000Y-83439000D01*
X115443000Y-81153000D01*
X115423000Y-81153000D01*
X115423000Y-80899000D01*
X115443000Y-80899000D01*
X115443000Y-78613000D01*
X115697000Y-78613000D01*
X115697000Y-80899000D01*
X117239915Y-80899000D01*
X117361904Y-80676961D01*
X117344367Y-80594182D01*
X117233715Y-80334354D01*
X117074500Y-80101105D01*
X116872839Y-79903399D01*
X116647441Y-79756000D01*
X116872839Y-79608601D01*
X117074500Y-79410895D01*
X117233715Y-79177646D01*
X117344367Y-78917818D01*
X117361904Y-78835039D01*
X117239915Y-78613000D01*
X115697000Y-78613000D01*
X115443000Y-78613000D01*
X115423000Y-78613000D01*
X115423000Y-78359000D01*
X115443000Y-78359000D01*
X115443000Y-78339000D01*
X115697000Y-78339000D01*
X115697000Y-78359000D01*
X117239915Y-78359000D01*
X117361904Y-78136961D01*
X117344367Y-78054182D01*
X117233715Y-77794354D01*
X117074500Y-77561105D01*
X116882613Y-77372981D01*
X116894482Y-77371812D01*
X117014180Y-77335502D01*
X117124494Y-77276537D01*
X117221185Y-77197185D01*
X117300537Y-77100494D01*
X117359502Y-76990180D01*
X117395812Y-76870482D01*
X117408072Y-76746000D01*
X117408072Y-75146000D01*
X117395812Y-75021518D01*
X117359502Y-74901820D01*
X117300537Y-74791506D01*
X117221185Y-74694815D01*
X117124494Y-74615463D01*
X117014180Y-74556498D01*
X116894482Y-74520188D01*
X116770000Y-74507928D01*
X114370000Y-74507928D01*
X114245518Y-74520188D01*
X114125820Y-74556498D01*
X114015506Y-74615463D01*
X113918815Y-74694815D01*
X113839463Y-74791506D01*
X113780498Y-74901820D01*
X113744188Y-75021518D01*
X113731928Y-75146000D01*
X113731928Y-76045771D01*
X111326347Y-73640190D01*
X111301764Y-73610236D01*
X111182233Y-73512138D01*
X111114858Y-73476126D01*
X111326842Y-73563932D01*
X111613740Y-73621000D01*
X111906260Y-73621000D01*
X112193158Y-73563932D01*
X112463411Y-73451990D01*
X112706632Y-73289475D01*
X112913475Y-73082632D01*
X113030000Y-72908240D01*
X113146525Y-73082632D01*
X113353368Y-73289475D01*
X113596589Y-73451990D01*
X113866842Y-73563932D01*
X114153740Y-73621000D01*
X114446260Y-73621000D01*
X114733158Y-73563932D01*
X115003411Y-73451990D01*
X115246632Y-73289475D01*
X115453475Y-73082632D01*
X115615990Y-72839411D01*
X115727932Y-72569158D01*
X115785000Y-72282260D01*
X115785000Y-71989740D01*
X115727932Y-71702842D01*
X115615990Y-71432589D01*
X115453475Y-71189368D01*
X115246632Y-70982525D01*
X115003411Y-70820010D01*
X114733158Y-70708068D01*
X114491506Y-70660000D01*
X124340000Y-70660000D01*
X124340000Y-74719754D01*
%TA.AperFunction,Conductor*%
D33*
G36*
X124340000Y-74719754D02*
G01*
X124141808Y-74613818D01*
X124050000Y-74585969D01*
X124050000Y-73226246D01*
X124054161Y-73184000D01*
X124037556Y-73015410D01*
X123988381Y-72853299D01*
X123942387Y-72767252D01*
X123908524Y-72703898D01*
X123801054Y-72572946D01*
X123768240Y-72546016D01*
X123033988Y-71811764D01*
X123007054Y-71778946D01*
X122876102Y-71671476D01*
X122726700Y-71591619D01*
X122682715Y-71578276D01*
X122667498Y-71549808D01*
X122613042Y-71468309D01*
X122533690Y-71371618D01*
X122464382Y-71302310D01*
X122367691Y-71222958D01*
X122286192Y-71168502D01*
X122175875Y-71109536D01*
X122085319Y-71072027D01*
X121965623Y-71035718D01*
X121869490Y-71016596D01*
X121745009Y-71004336D01*
X121720450Y-71004336D01*
X121696000Y-71001928D01*
X121146000Y-71001928D01*
X121021518Y-71014188D01*
X121021000Y-71014345D01*
X121020482Y-71014188D01*
X120896000Y-71001928D01*
X119896000Y-71001928D01*
X119771518Y-71014188D01*
X119651820Y-71050498D01*
X119541506Y-71109463D01*
X119444815Y-71188815D01*
X119365463Y-71285506D01*
X119306498Y-71395820D01*
X119270188Y-71515518D01*
X119257928Y-71640000D01*
X119257928Y-73140000D01*
X119270188Y-73264482D01*
X119306498Y-73384180D01*
X119365463Y-73494494D01*
X119444815Y-73591185D01*
X119541506Y-73670537D01*
X119611000Y-73707683D01*
X119611001Y-77431437D01*
X119607203Y-77470000D01*
X119622359Y-77623886D01*
X119667246Y-77771859D01*
X119687318Y-77809411D01*
X119740139Y-77908233D01*
X119775403Y-77951202D01*
X119813655Y-77997812D01*
X119813659Y-77997816D01*
X119838237Y-78027764D01*
X119868185Y-78052342D01*
X120829657Y-79013815D01*
X120854236Y-79043764D01*
X120884184Y-79068342D01*
X120884187Y-79068345D01*
X120887057Y-79070700D01*
X120973767Y-79141862D01*
X121090999Y-79204523D01*
X121110140Y-79214754D01*
X121258113Y-79259642D01*
X121333026Y-79267020D01*
X121373439Y-79271000D01*
X121373444Y-79271000D01*
X121412000Y-79274797D01*
X121450555Y-79271000D01*
X121582462Y-79271000D01*
X121591068Y-79287101D01*
X121770392Y-79505608D01*
X121988899Y-79684932D01*
X122121858Y-79756000D01*
X121988899Y-79827068D01*
X121770392Y-80006392D01*
X121591068Y-80224899D01*
X121582462Y-80241000D01*
X120434552Y-80241000D01*
X120395999Y-80237203D01*
X120357446Y-80241000D01*
X120357439Y-80241000D01*
X120256490Y-80250943D01*
X120242112Y-80252359D01*
X120114120Y-80291185D01*
X120094140Y-80297246D01*
X119957767Y-80370138D01*
X119899587Y-80417886D01*
X119868187Y-80443655D01*
X119868184Y-80443658D01*
X119838236Y-80468236D01*
X119813658Y-80498184D01*
X117582185Y-82729658D01*
X117552237Y-82754236D01*
X117527659Y-82784184D01*
X117527655Y-82784188D01*
X117511396Y-82804000D01*
X117454139Y-82873767D01*
X117415177Y-82946660D01*
X117381246Y-83010141D01*
X117343930Y-83133156D01*
X117233715Y-82874354D01*
X117074500Y-82641105D01*
X116872839Y-82443399D01*
X116647441Y-82296000D01*
X116872839Y-82148601D01*
X117074500Y-81950895D01*
X117233715Y-81717646D01*
X117344367Y-81457818D01*
X117361904Y-81375039D01*
X117239915Y-81153000D01*
X115697000Y-81153000D01*
X115697000Y-83439000D01*
X115717000Y-83439000D01*
X115717000Y-83693000D01*
X115697000Y-83693000D01*
X115697000Y-85001000D01*
X116097000Y-85001000D01*
X116374514Y-84948650D01*
X116636483Y-84843166D01*
X116872839Y-84688601D01*
X117074500Y-84490895D01*
X117233715Y-84257646D01*
X117325001Y-84043292D01*
X117325000Y-96735447D01*
X117321203Y-96774000D01*
X117325000Y-96812553D01*
X117325000Y-96812560D01*
X117336359Y-96927886D01*
X117381246Y-97075859D01*
X117454138Y-97212232D01*
X117552236Y-97331764D01*
X117582190Y-97356347D01*
X118797658Y-98571815D01*
X118822236Y-98601764D01*
X118852184Y-98626342D01*
X118852187Y-98626345D01*
X118881559Y-98650450D01*
X118941767Y-98699862D01*
X119078140Y-98772754D01*
X119191672Y-98807194D01*
X119226112Y-98817641D01*
X119240490Y-98819057D01*
X119341439Y-98829000D01*
X119341446Y-98829000D01*
X119379999Y-98832797D01*
X119418552Y-98829000D01*
X119448661Y-98829000D01*
X119535363Y-98958759D01*
X119735241Y-99158637D01*
X119970273Y-99315680D01*
X120231426Y-99423853D01*
X120508665Y-99479000D01*
X120791335Y-99479000D01*
X121068574Y-99423853D01*
X121329727Y-99315680D01*
X121564759Y-99158637D01*
X121764637Y-98958759D01*
X121920000Y-98726241D01*
X122075363Y-98958759D01*
X122275241Y-99158637D01*
X122510273Y-99315680D01*
X122771426Y-99423853D01*
X123048665Y-99479000D01*
X123331335Y-99479000D01*
X123608574Y-99423853D01*
X123869727Y-99315680D01*
X124104759Y-99158637D01*
X124304637Y-98958759D01*
X124340001Y-98905834D01*
X124340001Y-101460335D01*
X124284180Y-101430498D01*
X124164482Y-101394188D01*
X124040000Y-101381928D01*
X122340000Y-101381928D01*
X122215518Y-101394188D01*
X122095820Y-101430498D01*
X121985506Y-101489463D01*
X121888815Y-101568815D01*
X121809463Y-101665506D01*
X121750498Y-101775820D01*
X121714188Y-101895518D01*
X121701928Y-102020000D01*
X121701928Y-102085000D01*
X121551944Y-102085000D01*
X121550472Y-102080149D01*
X121468405Y-101926613D01*
X121357962Y-101792038D01*
X121223387Y-101681595D01*
X121069851Y-101599528D01*
X120903255Y-101548992D01*
X120730001Y-101531928D01*
X120029999Y-101531928D01*
X119856745Y-101548992D01*
X119690149Y-101599528D01*
X119536613Y-101681595D01*
X119402038Y-101792038D01*
X119380000Y-101818891D01*
X119357962Y-101792038D01*
X119223387Y-101681595D01*
X119069851Y-101599528D01*
X118903255Y-101548992D01*
X118730001Y-101531928D01*
X118029999Y-101531928D01*
X117856745Y-101548992D01*
X117690149Y-101599528D01*
X117536613Y-101681595D01*
X117402038Y-101792038D01*
X117291595Y-101926613D01*
X117209528Y-102080149D01*
X117208056Y-102085000D01*
X115862552Y-102085000D01*
X115823999Y-102081203D01*
X115785446Y-102085000D01*
X115785439Y-102085000D01*
X115684490Y-102094943D01*
X115670112Y-102096359D01*
X115635672Y-102106806D01*
X115522140Y-102141246D01*
X115385767Y-102214138D01*
X115346036Y-102246745D01*
X115296187Y-102287655D01*
X115296184Y-102287658D01*
X115266236Y-102312236D01*
X115241658Y-102342184D01*
X113974843Y-103609000D01*
X113257719Y-103609000D01*
X113280367Y-103555818D01*
X113297904Y-103473039D01*
X113175915Y-103251000D01*
X111633000Y-103251000D01*
X111633000Y-103271000D01*
X111379000Y-103271000D01*
X111379000Y-103251000D01*
X109836085Y-103251000D01*
X109714096Y-103473039D01*
X109731633Y-103555818D01*
X109754281Y-103609000D01*
X108496556Y-103609000D01*
X108458000Y-103605203D01*
X108419444Y-103609000D01*
X108419439Y-103609000D01*
X108379026Y-103612980D01*
X108304113Y-103620358D01*
X108173925Y-103659851D01*
X108156140Y-103665246D01*
X108019767Y-103738138D01*
X107900236Y-103836236D01*
X107875655Y-103866188D01*
X107168185Y-104573658D01*
X107138237Y-104598236D01*
X107113659Y-104628184D01*
X107113655Y-104628188D01*
X107100357Y-104644392D01*
X107040139Y-104717767D01*
X107001177Y-104790660D01*
X106967246Y-104854141D01*
X106957000Y-104887918D01*
X106957000Y-104719157D01*
X107715815Y-103960343D01*
X107745764Y-103935764D01*
X107843862Y-103816233D01*
X107916754Y-103679860D01*
X107927741Y-103643641D01*
X107961642Y-103531887D01*
X107969020Y-103456974D01*
X107973000Y-103416561D01*
X107973000Y-103416556D01*
X107976797Y-103378000D01*
X107973000Y-103339445D01*
X107973000Y-90495157D01*
X109799158Y-88669000D01*
X109898462Y-88669000D01*
X109907068Y-88685101D01*
X110086392Y-88903608D01*
X110304899Y-89082932D01*
X110437858Y-89154000D01*
X110304899Y-89225068D01*
X110086392Y-89404392D01*
X109907068Y-89622899D01*
X109773818Y-89872192D01*
X109691764Y-90142691D01*
X109664057Y-90424000D01*
X109691764Y-90705309D01*
X109773818Y-90975808D01*
X109907068Y-91225101D01*
X110086392Y-91443608D01*
X110304899Y-91622932D01*
X110437858Y-91694000D01*
X110304899Y-91765068D01*
X110086392Y-91944392D01*
X109907068Y-92162899D01*
X109773818Y-92412192D01*
X109691764Y-92682691D01*
X109664057Y-92964000D01*
X109691764Y-93245309D01*
X109773818Y-93515808D01*
X109907068Y-93765101D01*
X110086392Y-93983608D01*
X110304899Y-94162932D01*
X110437858Y-94234000D01*
X110304899Y-94305068D01*
X110086392Y-94484392D01*
X109907068Y-94702899D01*
X109773818Y-94952192D01*
X109691764Y-95222691D01*
X109664057Y-95504000D01*
X109691764Y-95785309D01*
X109773818Y-96055808D01*
X109907068Y-96305101D01*
X110086392Y-96523608D01*
X110304899Y-96702932D01*
X110437858Y-96774000D01*
X110304899Y-96845068D01*
X110086392Y-97024392D01*
X109907068Y-97242899D01*
X109773818Y-97492192D01*
X109691764Y-97762691D01*
X109664057Y-98044000D01*
X109691764Y-98325309D01*
X109773818Y-98595808D01*
X109907068Y-98845101D01*
X110086392Y-99063608D01*
X110304899Y-99242932D01*
X110437858Y-99314000D01*
X110304899Y-99385068D01*
X110086392Y-99564392D01*
X109907068Y-99782899D01*
X109773818Y-100032192D01*
X109691764Y-100302691D01*
X109664057Y-100584000D01*
X109691764Y-100865309D01*
X109773818Y-101135808D01*
X109907068Y-101385101D01*
X110086392Y-101603608D01*
X110304899Y-101782932D01*
X110432741Y-101851265D01*
X110203161Y-102001399D01*
X110001500Y-102199105D01*
X109842285Y-102432354D01*
X109731633Y-102692182D01*
X109714096Y-102774961D01*
X109836085Y-102997000D01*
X111379000Y-102997000D01*
X111379000Y-102977000D01*
X111633000Y-102977000D01*
X111633000Y-102997000D01*
X113175915Y-102997000D01*
X113297904Y-102774961D01*
X113280367Y-102692182D01*
X113169715Y-102432354D01*
X113010500Y-102199105D01*
X112808839Y-102001399D01*
X112579259Y-101851265D01*
X112707101Y-101782932D01*
X112925608Y-101603608D01*
X113104932Y-101385101D01*
X113238182Y-101135808D01*
X113320236Y-100865309D01*
X113347943Y-100584000D01*
X113320236Y-100302691D01*
X113238182Y-100032192D01*
X113104932Y-99782899D01*
X112925608Y-99564392D01*
X112707101Y-99385068D01*
X112574142Y-99314000D01*
X112707101Y-99242932D01*
X112925608Y-99063608D01*
X113104932Y-98845101D01*
X113238182Y-98595808D01*
X113276951Y-98468000D01*
X114085928Y-98468000D01*
X114085928Y-100668000D01*
X114098188Y-100792482D01*
X114134498Y-100912180D01*
X114193463Y-101022494D01*
X114272815Y-101119185D01*
X114369506Y-101198537D01*
X114479820Y-101257502D01*
X114599518Y-101293812D01*
X114724000Y-101306072D01*
X116924000Y-101306072D01*
X117048482Y-101293812D01*
X117168180Y-101257502D01*
X117278494Y-101198537D01*
X117375185Y-101119185D01*
X117454537Y-101022494D01*
X117513502Y-100912180D01*
X117549812Y-100792482D01*
X117562072Y-100668000D01*
X117562072Y-98468000D01*
X117549812Y-98343518D01*
X117513502Y-98223820D01*
X117454537Y-98113506D01*
X117375185Y-98016815D01*
X117278494Y-97937463D01*
X117168180Y-97878498D01*
X117048482Y-97842188D01*
X116924000Y-97829928D01*
X114724000Y-97829928D01*
X114599518Y-97842188D01*
X114479820Y-97878498D01*
X114369506Y-97937463D01*
X114272815Y-98016815D01*
X114193463Y-98113506D01*
X114134498Y-98223820D01*
X114098188Y-98343518D01*
X114085928Y-98468000D01*
X113276951Y-98468000D01*
X113320236Y-98325309D01*
X113347943Y-98044000D01*
X113320236Y-97762691D01*
X113238182Y-97492192D01*
X113104932Y-97242899D01*
X112925608Y-97024392D01*
X112707101Y-96845068D01*
X112574142Y-96774000D01*
X112707101Y-96702932D01*
X112925608Y-96523608D01*
X113104932Y-96305101D01*
X113238182Y-96055808D01*
X113320236Y-95785309D01*
X113347943Y-95504000D01*
X113320236Y-95222691D01*
X113238182Y-94952192D01*
X113104932Y-94702899D01*
X112925608Y-94484392D01*
X112707101Y-94305068D01*
X112574142Y-94234000D01*
X112707101Y-94162932D01*
X112925608Y-93983608D01*
X113104932Y-93765101D01*
X113113538Y-93749000D01*
X114281559Y-93749000D01*
X114280188Y-93753518D01*
X114267928Y-93878000D01*
X114267928Y-95478000D01*
X114280188Y-95602482D01*
X114316498Y-95722180D01*
X114375463Y-95832494D01*
X114454815Y-95929185D01*
X114551506Y-96008537D01*
X114661820Y-96067502D01*
X114781518Y-96103812D01*
X114906000Y-96116072D01*
X116306000Y-96116072D01*
X116430482Y-96103812D01*
X116550180Y-96067502D01*
X116660494Y-96008537D01*
X116757185Y-95929185D01*
X116836537Y-95832494D01*
X116895502Y-95722180D01*
X116931812Y-95602482D01*
X116944072Y-95478000D01*
X116944072Y-93878000D01*
X116931812Y-93753518D01*
X116895502Y-93633820D01*
X116836537Y-93523506D01*
X116757185Y-93426815D01*
X116660494Y-93347463D01*
X116550180Y-93288498D01*
X116430482Y-93252188D01*
X116391000Y-93248299D01*
X116391000Y-93220556D01*
X116394797Y-93182000D01*
X116391000Y-93143440D01*
X116391000Y-88107701D01*
X116430482Y-88103812D01*
X116550180Y-88067502D01*
X116660494Y-88008537D01*
X116757185Y-87929185D01*
X116836537Y-87832494D01*
X116895502Y-87722180D01*
X116931812Y-87602482D01*
X116944072Y-87478000D01*
X116944072Y-85878000D01*
X116931812Y-85753518D01*
X116895502Y-85633820D01*
X116836537Y-85523506D01*
X116757185Y-85426815D01*
X116660494Y-85347463D01*
X116550180Y-85288498D01*
X116430482Y-85252188D01*
X116306000Y-85239928D01*
X114906000Y-85239928D01*
X114781518Y-85252188D01*
X114661820Y-85288498D01*
X114551506Y-85347463D01*
X114454815Y-85426815D01*
X114375463Y-85523506D01*
X114316498Y-85633820D01*
X114280188Y-85753518D01*
X114267928Y-85878000D01*
X114267928Y-87478000D01*
X114280188Y-87602482D01*
X114316498Y-87722180D01*
X114375463Y-87832494D01*
X114454815Y-87929185D01*
X114551506Y-88008537D01*
X114661820Y-88067502D01*
X114781518Y-88103812D01*
X114821000Y-88107701D01*
X114821001Y-92179000D01*
X113113538Y-92179000D01*
X113104932Y-92162899D01*
X112925608Y-91944392D01*
X112707101Y-91765068D01*
X112574142Y-91694000D01*
X112707101Y-91622932D01*
X112925608Y-91443608D01*
X113104932Y-91225101D01*
X113238182Y-90975808D01*
X113320236Y-90705309D01*
X113347943Y-90424000D01*
X113320236Y-90142691D01*
X113238182Y-89872192D01*
X113104932Y-89622899D01*
X112925608Y-89404392D01*
X112707101Y-89225068D01*
X112574142Y-89154000D01*
X112707101Y-89082932D01*
X112925608Y-88903608D01*
X113104932Y-88685101D01*
X113238182Y-88435808D01*
X113320236Y-88165309D01*
X113347943Y-87884000D01*
X113320236Y-87602691D01*
X113238182Y-87332192D01*
X113104932Y-87082899D01*
X112925608Y-86864392D01*
X112707101Y-86685068D01*
X112574142Y-86614000D01*
X112707101Y-86542932D01*
X112925608Y-86363608D01*
X113104932Y-86145101D01*
X113238182Y-85895808D01*
X113320236Y-85625309D01*
X113347943Y-85344000D01*
X113320236Y-85062691D01*
X113238182Y-84792192D01*
X113104932Y-84542899D01*
X112925608Y-84324392D01*
X112707101Y-84145068D01*
X112574142Y-84074000D01*
X112707101Y-84002932D01*
X112814198Y-83915039D01*
X113778096Y-83915039D01*
X113795633Y-83997818D01*
X113906285Y-84257646D01*
X114065500Y-84490895D01*
X114267161Y-84688601D01*
X114503517Y-84843166D01*
X114765486Y-84948650D01*
X115043000Y-85001000D01*
X115443000Y-85001000D01*
X115443000Y-83693000D01*
X113900085Y-83693000D01*
X113778096Y-83915039D01*
X112814198Y-83915039D01*
X112925608Y-83823608D01*
X113104932Y-83605101D01*
X113238182Y-83355808D01*
X113306907Y-83129251D01*
X114065817Y-82370341D01*
X114095764Y-82345764D01*
X114193862Y-82226233D01*
X114246292Y-82128142D01*
X114267161Y-82148601D01*
X114492559Y-82296000D01*
X114267161Y-82443399D01*
X114065500Y-82641105D01*
X113906285Y-82874354D01*
X113795633Y-83134182D01*
X113778096Y-83216961D01*
X113900085Y-83439000D01*
X115443000Y-83439000D01*
X115443000Y-81153000D01*
X115423000Y-81153000D01*
X115423000Y-80899000D01*
X115443000Y-80899000D01*
X115443000Y-78613000D01*
X115697000Y-78613000D01*
X115697000Y-80899000D01*
X117239915Y-80899000D01*
X117361904Y-80676961D01*
X117344367Y-80594182D01*
X117233715Y-80334354D01*
X117074500Y-80101105D01*
X116872839Y-79903399D01*
X116647441Y-79756000D01*
X116872839Y-79608601D01*
X117074500Y-79410895D01*
X117233715Y-79177646D01*
X117344367Y-78917818D01*
X117361904Y-78835039D01*
X117239915Y-78613000D01*
X115697000Y-78613000D01*
X115443000Y-78613000D01*
X115423000Y-78613000D01*
X115423000Y-78359000D01*
X115443000Y-78359000D01*
X115443000Y-78339000D01*
X115697000Y-78339000D01*
X115697000Y-78359000D01*
X117239915Y-78359000D01*
X117361904Y-78136961D01*
X117344367Y-78054182D01*
X117233715Y-77794354D01*
X117074500Y-77561105D01*
X116882613Y-77372981D01*
X116894482Y-77371812D01*
X117014180Y-77335502D01*
X117124494Y-77276537D01*
X117221185Y-77197185D01*
X117300537Y-77100494D01*
X117359502Y-76990180D01*
X117395812Y-76870482D01*
X117408072Y-76746000D01*
X117408072Y-75146000D01*
X117395812Y-75021518D01*
X117359502Y-74901820D01*
X117300537Y-74791506D01*
X117221185Y-74694815D01*
X117124494Y-74615463D01*
X117014180Y-74556498D01*
X116894482Y-74520188D01*
X116770000Y-74507928D01*
X114370000Y-74507928D01*
X114245518Y-74520188D01*
X114125820Y-74556498D01*
X114015506Y-74615463D01*
X113918815Y-74694815D01*
X113839463Y-74791506D01*
X113780498Y-74901820D01*
X113744188Y-75021518D01*
X113731928Y-75146000D01*
X113731928Y-76045771D01*
X111326347Y-73640190D01*
X111301764Y-73610236D01*
X111182233Y-73512138D01*
X111114858Y-73476126D01*
X111326842Y-73563932D01*
X111613740Y-73621000D01*
X111906260Y-73621000D01*
X112193158Y-73563932D01*
X112463411Y-73451990D01*
X112706632Y-73289475D01*
X112913475Y-73082632D01*
X113030000Y-72908240D01*
X113146525Y-73082632D01*
X113353368Y-73289475D01*
X113596589Y-73451990D01*
X113866842Y-73563932D01*
X114153740Y-73621000D01*
X114446260Y-73621000D01*
X114733158Y-73563932D01*
X115003411Y-73451990D01*
X115246632Y-73289475D01*
X115453475Y-73082632D01*
X115615990Y-72839411D01*
X115727932Y-72569158D01*
X115785000Y-72282260D01*
X115785000Y-71989740D01*
X115727932Y-71702842D01*
X115615990Y-71432589D01*
X115453475Y-71189368D01*
X115246632Y-70982525D01*
X115003411Y-70820010D01*
X114733158Y-70708068D01*
X114491506Y-70660000D01*
X124340000Y-70660000D01*
X124340000Y-74719754D01*
G37*
%TD.AperFunction*%
D32*
X98845928Y-79840000D02*
X98858188Y-79964482D01*
X98894498Y-80084180D01*
X98953463Y-80194494D01*
X99032815Y-80291185D01*
X99113690Y-80357557D01*
X99046463Y-80458169D01*
X98915675Y-80773919D01*
X98849000Y-81109117D01*
X98849000Y-81450883D01*
X98915675Y-81786081D01*
X99046463Y-82101831D01*
X99236337Y-82385998D01*
X99478002Y-82627663D01*
X99662341Y-82750834D01*
X99477168Y-82817723D01*
X99364137Y-82878140D01*
X99298612Y-83117007D01*
X100076000Y-83894395D01*
X100853388Y-83117007D01*
X100821757Y-83001698D01*
X101090081Y-82948325D01*
X101405831Y-82817537D01*
X101689998Y-82627663D01*
X101931663Y-82385998D01*
X102121537Y-82101831D01*
X102252325Y-81786081D01*
X102296190Y-81565554D01*
X102331506Y-81594537D01*
X102441820Y-81653502D01*
X102561518Y-81689812D01*
X102579482Y-81691581D01*
X102466392Y-81784392D01*
X102287068Y-82002899D01*
X102153818Y-82252192D01*
X102071764Y-82522691D01*
X102044057Y-82804000D01*
X102071764Y-83085309D01*
X102153818Y-83355808D01*
X102287068Y-83605101D01*
X102466392Y-83823608D01*
X102684899Y-84002932D01*
X102817858Y-84074000D01*
X102684899Y-84145068D01*
X102466392Y-84324392D01*
X102287068Y-84542899D01*
X102153818Y-84792192D01*
X102071764Y-85062691D01*
X102044057Y-85344000D01*
X102071764Y-85625309D01*
X102133552Y-85829000D01*
X101217204Y-85829000D01*
X101151799Y-85731114D01*
X100958886Y-85538201D01*
X100732043Y-85386629D01*
X100632721Y-85345489D01*
X100674832Y-85330277D01*
X100787863Y-85269860D01*
X100853388Y-85030993D01*
X100076000Y-84253605D01*
X99298612Y-85030993D01*
X99364137Y-85269860D01*
X99522477Y-85344164D01*
X99419957Y-85386629D01*
X99193114Y-85538201D01*
X99000201Y-85731114D01*
X98848629Y-85957957D01*
X98744225Y-86210011D01*
X98691000Y-86477589D01*
X98691000Y-86750411D01*
X98744225Y-87017989D01*
X98848629Y-87270043D01*
X99000201Y-87496886D01*
X99193114Y-87689799D01*
X99309483Y-87767555D01*
X99201518Y-87778188D01*
X99081820Y-87814498D01*
X98971506Y-87873463D01*
X98874815Y-87952815D01*
X98795463Y-88049506D01*
X98736498Y-88159820D01*
X98700188Y-88279518D01*
X98687928Y-88404000D01*
X98687928Y-89904000D01*
X98700188Y-90028482D01*
X98736498Y-90148180D01*
X98795463Y-90258494D01*
X98874815Y-90355185D01*
X98971506Y-90434537D01*
X99081820Y-90493502D01*
X99201518Y-90529812D01*
X99326000Y-90542072D01*
X99829358Y-90542072D01*
X99770903Y-90741298D01*
X100584000Y-91554395D01*
X101397097Y-90741298D01*
X101325514Y-90497329D01*
X101184998Y-90430841D01*
X101277185Y-90355185D01*
X101356537Y-90258494D01*
X101415502Y-90148180D01*
X101451812Y-90028482D01*
X101464072Y-89904000D01*
X101464072Y-88404000D01*
X101451812Y-88279518D01*
X101415502Y-88159820D01*
X101356537Y-88049506D01*
X101277185Y-87952815D01*
X101180494Y-87873463D01*
X101070180Y-87814498D01*
X100950482Y-87778188D01*
X100842517Y-87767555D01*
X100958886Y-87689799D01*
X101151799Y-87496886D01*
X101217204Y-87399000D01*
X102133552Y-87399000D01*
X102071764Y-87602691D01*
X102044057Y-87884000D01*
X102071764Y-88165309D01*
X102153818Y-88435808D01*
X102287068Y-88685101D01*
X102466392Y-88903608D01*
X102684899Y-89082932D01*
X102817858Y-89154000D01*
X102684899Y-89225068D01*
X102466392Y-89404392D01*
X102287068Y-89622899D01*
X102153818Y-89872192D01*
X102071764Y-90142691D01*
X102044057Y-90424000D01*
X102071764Y-90705309D01*
X102153818Y-90975808D01*
X102287068Y-91225101D01*
X102466392Y-91443608D01*
X102684899Y-91622932D01*
X102817858Y-91694000D01*
X102684899Y-91765068D01*
X102466392Y-91944392D01*
X102287068Y-92162899D01*
X102153818Y-92412192D01*
X102071764Y-92682691D01*
X102044057Y-92964000D01*
X102071764Y-93245309D01*
X102153818Y-93515808D01*
X102287068Y-93765101D01*
X102466392Y-93983608D01*
X102684899Y-94162932D01*
X102817858Y-94234000D01*
X102684899Y-94305068D01*
X102466392Y-94484392D01*
X102287068Y-94702899D01*
X102153818Y-94952192D01*
X102071764Y-95222691D01*
X102044057Y-95504000D01*
X102071764Y-95785309D01*
X102153818Y-96055808D01*
X102287068Y-96305101D01*
X102466392Y-96523608D01*
X102684899Y-96702932D01*
X102812741Y-96771265D01*
X102583161Y-96921399D01*
X102381500Y-97119105D01*
X102222285Y-97352354D01*
X102111633Y-97612182D01*
X102094096Y-97694961D01*
X102216085Y-97917000D01*
X103759000Y-97917000D01*
X103759000Y-97897000D01*
X104013000Y-97897000D01*
X104013000Y-97917000D01*
X105555915Y-97917000D01*
X105677904Y-97694961D01*
X105660367Y-97612182D01*
X105549715Y-97352354D01*
X105390500Y-97119105D01*
X105188839Y-96921399D01*
X104959259Y-96771265D01*
X105087101Y-96702932D01*
X105305608Y-96523608D01*
X105484932Y-96305101D01*
X105549897Y-96183560D01*
X105594233Y-96159862D01*
X105713764Y-96061764D01*
X105738347Y-96031810D01*
X106403000Y-95367157D01*
X106403001Y-103052841D01*
X105644190Y-103811653D01*
X105614236Y-103836236D01*
X105516138Y-103955768D01*
X105443246Y-104092141D01*
X105398359Y-104240114D01*
X105387000Y-104355440D01*
X105387000Y-104355447D01*
X105383203Y-104394000D01*
X105387000Y-104432553D01*
X105387000Y-104743569D01*
X105305608Y-104644392D01*
X105087101Y-104465068D01*
X104954142Y-104394000D01*
X105087101Y-104322932D01*
X105305608Y-104143608D01*
X105484932Y-103925101D01*
X105618182Y-103675808D01*
X105700236Y-103405309D01*
X105727943Y-103124000D01*
X105700236Y-102842691D01*
X105618182Y-102572192D01*
X105484932Y-102322899D01*
X105305608Y-102104392D01*
X105087101Y-101925068D01*
X104954142Y-101854000D01*
X105087101Y-101782932D01*
X105305608Y-101603608D01*
X105484932Y-101385101D01*
X105618182Y-101135808D01*
X105700236Y-100865309D01*
X105727943Y-100584000D01*
X105700236Y-100302691D01*
X105618182Y-100032192D01*
X105484932Y-99782899D01*
X105305608Y-99564392D01*
X105087101Y-99385068D01*
X104959259Y-99316735D01*
X105188839Y-99166601D01*
X105390500Y-98968895D01*
X105549715Y-98735646D01*
X105660367Y-98475818D01*
X105677904Y-98393039D01*
X105555915Y-98171000D01*
X104013000Y-98171000D01*
X104013000Y-98191000D01*
X103759000Y-98191000D01*
X103759000Y-98171000D01*
X102216085Y-98171000D01*
X102094096Y-98393039D01*
X102111633Y-98475818D01*
X102222285Y-98735646D01*
X102381500Y-98968895D01*
X102583161Y-99166601D01*
X102812741Y-99316735D01*
X102684899Y-99385068D01*
X102466392Y-99564392D01*
X102287068Y-99782899D01*
X102153818Y-100032192D01*
X102071764Y-100302691D01*
X102044057Y-100584000D01*
X102071764Y-100865309D01*
X102153818Y-101135808D01*
X102287068Y-101385101D01*
X102466392Y-101603608D01*
X102684899Y-101782932D01*
X102817858Y-101854000D01*
X102684899Y-101925068D01*
X102466392Y-102104392D01*
X102287068Y-102322899D01*
X102153818Y-102572192D01*
X102071764Y-102842691D01*
X102044057Y-103124000D01*
X102071764Y-103405309D01*
X102153818Y-103675808D01*
X102287068Y-103925101D01*
X102466392Y-104143608D01*
X102684899Y-104322932D01*
X102817858Y-104394000D01*
X102684899Y-104465068D01*
X102466392Y-104644392D01*
X102287068Y-104862899D01*
X102278462Y-104879000D01*
X100353685Y-104879000D01*
X100389799Y-104842886D01*
X100541371Y-104616043D01*
X100645775Y-104363989D01*
X100699000Y-104096411D01*
X100699000Y-103823589D01*
X100645775Y-103556011D01*
X100541371Y-103303957D01*
X100389799Y-103077114D01*
X100196886Y-102884201D01*
X99970043Y-102732629D01*
X99717989Y-102628225D01*
X99450411Y-102575000D01*
X99177589Y-102575000D01*
X98910011Y-102628225D01*
X98657957Y-102732629D01*
X98431114Y-102884201D01*
X98238201Y-103077114D01*
X98086629Y-103303957D01*
X97982225Y-103556011D01*
X97929000Y-103823589D01*
X97929000Y-104096411D01*
X97950958Y-104206801D01*
X97559000Y-103814843D01*
X97559000Y-98923589D01*
X97929000Y-98923589D01*
X97929000Y-99196411D01*
X97982225Y-99463989D01*
X98086629Y-99716043D01*
X98238201Y-99942886D01*
X98431114Y-100135799D01*
X98657957Y-100287371D01*
X98910011Y-100391775D01*
X99177589Y-100445000D01*
X99450411Y-100445000D01*
X99717989Y-100391775D01*
X99970043Y-100287371D01*
X100196886Y-100135799D01*
X100389799Y-99942886D01*
X100541371Y-99716043D01*
X100645775Y-99463989D01*
X100699000Y-99196411D01*
X100699000Y-98923589D01*
X100645775Y-98656011D01*
X100541371Y-98403957D01*
X100389799Y-98177114D01*
X100196886Y-97984201D01*
X99970043Y-97832629D01*
X99717989Y-97728225D01*
X99450411Y-97675000D01*
X99177589Y-97675000D01*
X98910011Y-97728225D01*
X98657957Y-97832629D01*
X98431114Y-97984201D01*
X98238201Y-98177114D01*
X98086629Y-98403957D01*
X97982225Y-98656011D01*
X97929000Y-98923589D01*
X97559000Y-98923589D01*
X97559000Y-97574552D01*
X97562797Y-97535999D01*
X97559000Y-97497446D01*
X97559000Y-97497439D01*
X97547641Y-97382113D01*
X97502754Y-97234140D01*
X97429862Y-97097767D01*
X97331764Y-96978236D01*
X97301817Y-96953659D01*
X96289000Y-95940843D01*
X96289000Y-94950663D01*
X96421363Y-95148759D01*
X96621241Y-95348637D01*
X96856273Y-95505680D01*
X97117426Y-95613853D01*
X97394665Y-95669000D01*
X97677335Y-95669000D01*
X97954574Y-95613853D01*
X98215727Y-95505680D01*
X98450759Y-95348637D01*
X98650637Y-95148759D01*
X98807680Y-94913727D01*
X98915853Y-94652574D01*
X98971000Y-94375335D01*
X98971000Y-94092665D01*
X99149000Y-94092665D01*
X99149000Y-94375335D01*
X99204147Y-94652574D01*
X99312320Y-94913727D01*
X99469363Y-95148759D01*
X99669241Y-95348637D01*
X99904273Y-95505680D01*
X100165426Y-95613853D01*
X100442665Y-95669000D01*
X100725335Y-95669000D01*
X101002574Y-95613853D01*
X101263727Y-95505680D01*
X101498759Y-95348637D01*
X101698637Y-95148759D01*
X101855680Y-94913727D01*
X101963853Y-94652574D01*
X102019000Y-94375335D01*
X102019000Y-94092665D01*
X101963853Y-93815426D01*
X101855680Y-93554273D01*
X101698637Y-93319241D01*
X101498759Y-93119363D01*
X101298131Y-92985308D01*
X101325514Y-92970671D01*
X101397097Y-92726702D01*
X100584000Y-91913605D01*
X99770903Y-92726702D01*
X99842486Y-92970671D01*
X99871341Y-92984324D01*
X99669241Y-93119363D01*
X99469363Y-93319241D01*
X99312320Y-93554273D01*
X99204147Y-93815426D01*
X99149000Y-94092665D01*
X98971000Y-94092665D01*
X98915853Y-93815426D01*
X98807680Y-93554273D01*
X98650637Y-93319241D01*
X98450759Y-93119363D01*
X98250131Y-92985308D01*
X98277514Y-92970671D01*
X98349097Y-92726702D01*
X97536000Y-91913605D01*
X96722903Y-92726702D01*
X96794486Y-92970671D01*
X96823341Y-92984324D01*
X96621241Y-93119363D01*
X96421363Y-93319241D01*
X96289000Y-93517337D01*
X96289000Y-92456190D01*
X96299329Y-92475514D01*
X96543298Y-92547097D01*
X97356395Y-91734000D01*
X97715605Y-91734000D01*
X98528702Y-92547097D01*
X98772671Y-92475514D01*
X98893571Y-92220004D01*
X98962300Y-91945816D01*
X98969265Y-91804512D01*
X99143783Y-91804512D01*
X99185213Y-92084130D01*
X99280397Y-92350292D01*
X99347329Y-92475514D01*
X99591298Y-92547097D01*
X100404395Y-91734000D01*
X100763605Y-91734000D01*
X101576702Y-92547097D01*
X101820671Y-92475514D01*
X101941571Y-92220004D01*
X102010300Y-91945816D01*
X102024217Y-91663488D01*
X101982787Y-91383870D01*
X101887603Y-91117708D01*
X101820671Y-90992486D01*
X101576702Y-90920903D01*
X100763605Y-91734000D01*
X100404395Y-91734000D01*
X99591298Y-90920903D01*
X99347329Y-90992486D01*
X99226429Y-91247996D01*
X99157700Y-91522184D01*
X99143783Y-91804512D01*
X98969265Y-91804512D01*
X98976217Y-91663488D01*
X98934787Y-91383870D01*
X98839603Y-91117708D01*
X98772671Y-90992486D01*
X98528702Y-90920903D01*
X97715605Y-91734000D01*
X97356395Y-91734000D01*
X96543298Y-90920903D01*
X96299329Y-90992486D01*
X96289000Y-91014315D01*
X96289000Y-90741298D01*
X96722903Y-90741298D01*
X97536000Y-91554395D01*
X98349097Y-90741298D01*
X98277514Y-90497329D01*
X98022004Y-90376429D01*
X97747816Y-90307700D01*
X97465488Y-90293783D01*
X97185870Y-90335213D01*
X96919708Y-90430397D01*
X96794486Y-90497329D01*
X96722903Y-90741298D01*
X96289000Y-90741298D01*
X96289000Y-84146492D01*
X98686188Y-84146492D01*
X98727035Y-84416238D01*
X98819723Y-84672832D01*
X98880140Y-84785863D01*
X99119007Y-84851388D01*
X99896395Y-84074000D01*
X100255605Y-84074000D01*
X101032993Y-84851388D01*
X101271860Y-84785863D01*
X101387760Y-84538884D01*
X101453250Y-84274040D01*
X101465812Y-84001508D01*
X101424965Y-83731762D01*
X101332277Y-83475168D01*
X101271860Y-83362137D01*
X101032993Y-83296612D01*
X100255605Y-84074000D01*
X99896395Y-84074000D01*
X99119007Y-83296612D01*
X98880140Y-83362137D01*
X98764240Y-83609116D01*
X98698750Y-83873960D01*
X98686188Y-84146492D01*
X96289000Y-84146492D01*
X96289000Y-83977382D01*
X96472102Y-84053226D01*
X96672061Y-84093000D01*
X96875939Y-84093000D01*
X97075898Y-84053226D01*
X97264256Y-83975205D01*
X97433774Y-83861937D01*
X97577937Y-83717774D01*
X97691205Y-83548256D01*
X97769226Y-83359898D01*
X97809000Y-83159939D01*
X97809000Y-82956061D01*
X97769226Y-82756102D01*
X97691205Y-82567744D01*
X97634000Y-82482130D01*
X97634000Y-80366223D01*
X98400224Y-79600000D01*
X98845928Y-79600000D01*
X98845928Y-79840000D01*
%TA.AperFunction,Conductor*%
D33*
G36*
X98845928Y-79840000D02*
G01*
X98858188Y-79964482D01*
X98894498Y-80084180D01*
X98953463Y-80194494D01*
X99032815Y-80291185D01*
X99113690Y-80357557D01*
X99046463Y-80458169D01*
X98915675Y-80773919D01*
X98849000Y-81109117D01*
X98849000Y-81450883D01*
X98915675Y-81786081D01*
X99046463Y-82101831D01*
X99236337Y-82385998D01*
X99478002Y-82627663D01*
X99662341Y-82750834D01*
X99477168Y-82817723D01*
X99364137Y-82878140D01*
X99298612Y-83117007D01*
X100076000Y-83894395D01*
X100853388Y-83117007D01*
X100821757Y-83001698D01*
X101090081Y-82948325D01*
X101405831Y-82817537D01*
X101689998Y-82627663D01*
X101931663Y-82385998D01*
X102121537Y-82101831D01*
X102252325Y-81786081D01*
X102296190Y-81565554D01*
X102331506Y-81594537D01*
X102441820Y-81653502D01*
X102561518Y-81689812D01*
X102579482Y-81691581D01*
X102466392Y-81784392D01*
X102287068Y-82002899D01*
X102153818Y-82252192D01*
X102071764Y-82522691D01*
X102044057Y-82804000D01*
X102071764Y-83085309D01*
X102153818Y-83355808D01*
X102287068Y-83605101D01*
X102466392Y-83823608D01*
X102684899Y-84002932D01*
X102817858Y-84074000D01*
X102684899Y-84145068D01*
X102466392Y-84324392D01*
X102287068Y-84542899D01*
X102153818Y-84792192D01*
X102071764Y-85062691D01*
X102044057Y-85344000D01*
X102071764Y-85625309D01*
X102133552Y-85829000D01*
X101217204Y-85829000D01*
X101151799Y-85731114D01*
X100958886Y-85538201D01*
X100732043Y-85386629D01*
X100632721Y-85345489D01*
X100674832Y-85330277D01*
X100787863Y-85269860D01*
X100853388Y-85030993D01*
X100076000Y-84253605D01*
X99298612Y-85030993D01*
X99364137Y-85269860D01*
X99522477Y-85344164D01*
X99419957Y-85386629D01*
X99193114Y-85538201D01*
X99000201Y-85731114D01*
X98848629Y-85957957D01*
X98744225Y-86210011D01*
X98691000Y-86477589D01*
X98691000Y-86750411D01*
X98744225Y-87017989D01*
X98848629Y-87270043D01*
X99000201Y-87496886D01*
X99193114Y-87689799D01*
X99309483Y-87767555D01*
X99201518Y-87778188D01*
X99081820Y-87814498D01*
X98971506Y-87873463D01*
X98874815Y-87952815D01*
X98795463Y-88049506D01*
X98736498Y-88159820D01*
X98700188Y-88279518D01*
X98687928Y-88404000D01*
X98687928Y-89904000D01*
X98700188Y-90028482D01*
X98736498Y-90148180D01*
X98795463Y-90258494D01*
X98874815Y-90355185D01*
X98971506Y-90434537D01*
X99081820Y-90493502D01*
X99201518Y-90529812D01*
X99326000Y-90542072D01*
X99829358Y-90542072D01*
X99770903Y-90741298D01*
X100584000Y-91554395D01*
X101397097Y-90741298D01*
X101325514Y-90497329D01*
X101184998Y-90430841D01*
X101277185Y-90355185D01*
X101356537Y-90258494D01*
X101415502Y-90148180D01*
X101451812Y-90028482D01*
X101464072Y-89904000D01*
X101464072Y-88404000D01*
X101451812Y-88279518D01*
X101415502Y-88159820D01*
X101356537Y-88049506D01*
X101277185Y-87952815D01*
X101180494Y-87873463D01*
X101070180Y-87814498D01*
X100950482Y-87778188D01*
X100842517Y-87767555D01*
X100958886Y-87689799D01*
X101151799Y-87496886D01*
X101217204Y-87399000D01*
X102133552Y-87399000D01*
X102071764Y-87602691D01*
X102044057Y-87884000D01*
X102071764Y-88165309D01*
X102153818Y-88435808D01*
X102287068Y-88685101D01*
X102466392Y-88903608D01*
X102684899Y-89082932D01*
X102817858Y-89154000D01*
X102684899Y-89225068D01*
X102466392Y-89404392D01*
X102287068Y-89622899D01*
X102153818Y-89872192D01*
X102071764Y-90142691D01*
X102044057Y-90424000D01*
X102071764Y-90705309D01*
X102153818Y-90975808D01*
X102287068Y-91225101D01*
X102466392Y-91443608D01*
X102684899Y-91622932D01*
X102817858Y-91694000D01*
X102684899Y-91765068D01*
X102466392Y-91944392D01*
X102287068Y-92162899D01*
X102153818Y-92412192D01*
X102071764Y-92682691D01*
X102044057Y-92964000D01*
X102071764Y-93245309D01*
X102153818Y-93515808D01*
X102287068Y-93765101D01*
X102466392Y-93983608D01*
X102684899Y-94162932D01*
X102817858Y-94234000D01*
X102684899Y-94305068D01*
X102466392Y-94484392D01*
X102287068Y-94702899D01*
X102153818Y-94952192D01*
X102071764Y-95222691D01*
X102044057Y-95504000D01*
X102071764Y-95785309D01*
X102153818Y-96055808D01*
X102287068Y-96305101D01*
X102466392Y-96523608D01*
X102684899Y-96702932D01*
X102812741Y-96771265D01*
X102583161Y-96921399D01*
X102381500Y-97119105D01*
X102222285Y-97352354D01*
X102111633Y-97612182D01*
X102094096Y-97694961D01*
X102216085Y-97917000D01*
X103759000Y-97917000D01*
X103759000Y-97897000D01*
X104013000Y-97897000D01*
X104013000Y-97917000D01*
X105555915Y-97917000D01*
X105677904Y-97694961D01*
X105660367Y-97612182D01*
X105549715Y-97352354D01*
X105390500Y-97119105D01*
X105188839Y-96921399D01*
X104959259Y-96771265D01*
X105087101Y-96702932D01*
X105305608Y-96523608D01*
X105484932Y-96305101D01*
X105549897Y-96183560D01*
X105594233Y-96159862D01*
X105713764Y-96061764D01*
X105738347Y-96031810D01*
X106403000Y-95367157D01*
X106403001Y-103052841D01*
X105644190Y-103811653D01*
X105614236Y-103836236D01*
X105516138Y-103955768D01*
X105443246Y-104092141D01*
X105398359Y-104240114D01*
X105387000Y-104355440D01*
X105387000Y-104355447D01*
X105383203Y-104394000D01*
X105387000Y-104432553D01*
X105387000Y-104743569D01*
X105305608Y-104644392D01*
X105087101Y-104465068D01*
X104954142Y-104394000D01*
X105087101Y-104322932D01*
X105305608Y-104143608D01*
X105484932Y-103925101D01*
X105618182Y-103675808D01*
X105700236Y-103405309D01*
X105727943Y-103124000D01*
X105700236Y-102842691D01*
X105618182Y-102572192D01*
X105484932Y-102322899D01*
X105305608Y-102104392D01*
X105087101Y-101925068D01*
X104954142Y-101854000D01*
X105087101Y-101782932D01*
X105305608Y-101603608D01*
X105484932Y-101385101D01*
X105618182Y-101135808D01*
X105700236Y-100865309D01*
X105727943Y-100584000D01*
X105700236Y-100302691D01*
X105618182Y-100032192D01*
X105484932Y-99782899D01*
X105305608Y-99564392D01*
X105087101Y-99385068D01*
X104959259Y-99316735D01*
X105188839Y-99166601D01*
X105390500Y-98968895D01*
X105549715Y-98735646D01*
X105660367Y-98475818D01*
X105677904Y-98393039D01*
X105555915Y-98171000D01*
X104013000Y-98171000D01*
X104013000Y-98191000D01*
X103759000Y-98191000D01*
X103759000Y-98171000D01*
X102216085Y-98171000D01*
X102094096Y-98393039D01*
X102111633Y-98475818D01*
X102222285Y-98735646D01*
X102381500Y-98968895D01*
X102583161Y-99166601D01*
X102812741Y-99316735D01*
X102684899Y-99385068D01*
X102466392Y-99564392D01*
X102287068Y-99782899D01*
X102153818Y-100032192D01*
X102071764Y-100302691D01*
X102044057Y-100584000D01*
X102071764Y-100865309D01*
X102153818Y-101135808D01*
X102287068Y-101385101D01*
X102466392Y-101603608D01*
X102684899Y-101782932D01*
X102817858Y-101854000D01*
X102684899Y-101925068D01*
X102466392Y-102104392D01*
X102287068Y-102322899D01*
X102153818Y-102572192D01*
X102071764Y-102842691D01*
X102044057Y-103124000D01*
X102071764Y-103405309D01*
X102153818Y-103675808D01*
X102287068Y-103925101D01*
X102466392Y-104143608D01*
X102684899Y-104322932D01*
X102817858Y-104394000D01*
X102684899Y-104465068D01*
X102466392Y-104644392D01*
X102287068Y-104862899D01*
X102278462Y-104879000D01*
X100353685Y-104879000D01*
X100389799Y-104842886D01*
X100541371Y-104616043D01*
X100645775Y-104363989D01*
X100699000Y-104096411D01*
X100699000Y-103823589D01*
X100645775Y-103556011D01*
X100541371Y-103303957D01*
X100389799Y-103077114D01*
X100196886Y-102884201D01*
X99970043Y-102732629D01*
X99717989Y-102628225D01*
X99450411Y-102575000D01*
X99177589Y-102575000D01*
X98910011Y-102628225D01*
X98657957Y-102732629D01*
X98431114Y-102884201D01*
X98238201Y-103077114D01*
X98086629Y-103303957D01*
X97982225Y-103556011D01*
X97929000Y-103823589D01*
X97929000Y-104096411D01*
X97950958Y-104206801D01*
X97559000Y-103814843D01*
X97559000Y-98923589D01*
X97929000Y-98923589D01*
X97929000Y-99196411D01*
X97982225Y-99463989D01*
X98086629Y-99716043D01*
X98238201Y-99942886D01*
X98431114Y-100135799D01*
X98657957Y-100287371D01*
X98910011Y-100391775D01*
X99177589Y-100445000D01*
X99450411Y-100445000D01*
X99717989Y-100391775D01*
X99970043Y-100287371D01*
X100196886Y-100135799D01*
X100389799Y-99942886D01*
X100541371Y-99716043D01*
X100645775Y-99463989D01*
X100699000Y-99196411D01*
X100699000Y-98923589D01*
X100645775Y-98656011D01*
X100541371Y-98403957D01*
X100389799Y-98177114D01*
X100196886Y-97984201D01*
X99970043Y-97832629D01*
X99717989Y-97728225D01*
X99450411Y-97675000D01*
X99177589Y-97675000D01*
X98910011Y-97728225D01*
X98657957Y-97832629D01*
X98431114Y-97984201D01*
X98238201Y-98177114D01*
X98086629Y-98403957D01*
X97982225Y-98656011D01*
X97929000Y-98923589D01*
X97559000Y-98923589D01*
X97559000Y-97574552D01*
X97562797Y-97535999D01*
X97559000Y-97497446D01*
X97559000Y-97497439D01*
X97547641Y-97382113D01*
X97502754Y-97234140D01*
X97429862Y-97097767D01*
X97331764Y-96978236D01*
X97301817Y-96953659D01*
X96289000Y-95940843D01*
X96289000Y-94950663D01*
X96421363Y-95148759D01*
X96621241Y-95348637D01*
X96856273Y-95505680D01*
X97117426Y-95613853D01*
X97394665Y-95669000D01*
X97677335Y-95669000D01*
X97954574Y-95613853D01*
X98215727Y-95505680D01*
X98450759Y-95348637D01*
X98650637Y-95148759D01*
X98807680Y-94913727D01*
X98915853Y-94652574D01*
X98971000Y-94375335D01*
X98971000Y-94092665D01*
X99149000Y-94092665D01*
X99149000Y-94375335D01*
X99204147Y-94652574D01*
X99312320Y-94913727D01*
X99469363Y-95148759D01*
X99669241Y-95348637D01*
X99904273Y-95505680D01*
X100165426Y-95613853D01*
X100442665Y-95669000D01*
X100725335Y-95669000D01*
X101002574Y-95613853D01*
X101263727Y-95505680D01*
X101498759Y-95348637D01*
X101698637Y-95148759D01*
X101855680Y-94913727D01*
X101963853Y-94652574D01*
X102019000Y-94375335D01*
X102019000Y-94092665D01*
X101963853Y-93815426D01*
X101855680Y-93554273D01*
X101698637Y-93319241D01*
X101498759Y-93119363D01*
X101298131Y-92985308D01*
X101325514Y-92970671D01*
X101397097Y-92726702D01*
X100584000Y-91913605D01*
X99770903Y-92726702D01*
X99842486Y-92970671D01*
X99871341Y-92984324D01*
X99669241Y-93119363D01*
X99469363Y-93319241D01*
X99312320Y-93554273D01*
X99204147Y-93815426D01*
X99149000Y-94092665D01*
X98971000Y-94092665D01*
X98915853Y-93815426D01*
X98807680Y-93554273D01*
X98650637Y-93319241D01*
X98450759Y-93119363D01*
X98250131Y-92985308D01*
X98277514Y-92970671D01*
X98349097Y-92726702D01*
X97536000Y-91913605D01*
X96722903Y-92726702D01*
X96794486Y-92970671D01*
X96823341Y-92984324D01*
X96621241Y-93119363D01*
X96421363Y-93319241D01*
X96289000Y-93517337D01*
X96289000Y-92456190D01*
X96299329Y-92475514D01*
X96543298Y-92547097D01*
X97356395Y-91734000D01*
X97715605Y-91734000D01*
X98528702Y-92547097D01*
X98772671Y-92475514D01*
X98893571Y-92220004D01*
X98962300Y-91945816D01*
X98969265Y-91804512D01*
X99143783Y-91804512D01*
X99185213Y-92084130D01*
X99280397Y-92350292D01*
X99347329Y-92475514D01*
X99591298Y-92547097D01*
X100404395Y-91734000D01*
X100763605Y-91734000D01*
X101576702Y-92547097D01*
X101820671Y-92475514D01*
X101941571Y-92220004D01*
X102010300Y-91945816D01*
X102024217Y-91663488D01*
X101982787Y-91383870D01*
X101887603Y-91117708D01*
X101820671Y-90992486D01*
X101576702Y-90920903D01*
X100763605Y-91734000D01*
X100404395Y-91734000D01*
X99591298Y-90920903D01*
X99347329Y-90992486D01*
X99226429Y-91247996D01*
X99157700Y-91522184D01*
X99143783Y-91804512D01*
X98969265Y-91804512D01*
X98976217Y-91663488D01*
X98934787Y-91383870D01*
X98839603Y-91117708D01*
X98772671Y-90992486D01*
X98528702Y-90920903D01*
X97715605Y-91734000D01*
X97356395Y-91734000D01*
X96543298Y-90920903D01*
X96299329Y-90992486D01*
X96289000Y-91014315D01*
X96289000Y-90741298D01*
X96722903Y-90741298D01*
X97536000Y-91554395D01*
X98349097Y-90741298D01*
X98277514Y-90497329D01*
X98022004Y-90376429D01*
X97747816Y-90307700D01*
X97465488Y-90293783D01*
X97185870Y-90335213D01*
X96919708Y-90430397D01*
X96794486Y-90497329D01*
X96722903Y-90741298D01*
X96289000Y-90741298D01*
X96289000Y-84146492D01*
X98686188Y-84146492D01*
X98727035Y-84416238D01*
X98819723Y-84672832D01*
X98880140Y-84785863D01*
X99119007Y-84851388D01*
X99896395Y-84074000D01*
X100255605Y-84074000D01*
X101032993Y-84851388D01*
X101271860Y-84785863D01*
X101387760Y-84538884D01*
X101453250Y-84274040D01*
X101465812Y-84001508D01*
X101424965Y-83731762D01*
X101332277Y-83475168D01*
X101271860Y-83362137D01*
X101032993Y-83296612D01*
X100255605Y-84074000D01*
X99896395Y-84074000D01*
X99119007Y-83296612D01*
X98880140Y-83362137D01*
X98764240Y-83609116D01*
X98698750Y-83873960D01*
X98686188Y-84146492D01*
X96289000Y-84146492D01*
X96289000Y-83977382D01*
X96472102Y-84053226D01*
X96672061Y-84093000D01*
X96875939Y-84093000D01*
X97075898Y-84053226D01*
X97264256Y-83975205D01*
X97433774Y-83861937D01*
X97577937Y-83717774D01*
X97691205Y-83548256D01*
X97769226Y-83359898D01*
X97809000Y-83159939D01*
X97809000Y-82956061D01*
X97769226Y-82756102D01*
X97691205Y-82567744D01*
X97634000Y-82482130D01*
X97634000Y-80366223D01*
X98400224Y-79600000D01*
X98845928Y-79600000D01*
X98845928Y-79840000D01*
G37*
%TD.AperFunction*%
D32*
X121591068Y-81827101D02*
X121770392Y-82045608D01*
X121988899Y-82224932D01*
X122121858Y-82296000D01*
X121988899Y-82367068D01*
X121770392Y-82546392D01*
X121591068Y-82764899D01*
X121457818Y-83014192D01*
X121375764Y-83284691D01*
X121348057Y-83566000D01*
X121375764Y-83847309D01*
X121457818Y-84117808D01*
X121591068Y-84367101D01*
X121770392Y-84585608D01*
X121988899Y-84764932D01*
X122238192Y-84898182D01*
X122508691Y-84980236D01*
X122719508Y-85001000D01*
X122721082Y-85001000D01*
X122510273Y-85088320D01*
X122275241Y-85245363D01*
X122075363Y-85445241D01*
X121918320Y-85680273D01*
X121810147Y-85941426D01*
X121755000Y-86218665D01*
X121755000Y-86501335D01*
X121810147Y-86778574D01*
X121918320Y-87039727D01*
X122075363Y-87274759D01*
X122275241Y-87474637D01*
X122507759Y-87630000D01*
X122275241Y-87785363D01*
X122075363Y-87985241D01*
X121918320Y-88220273D01*
X121810147Y-88481426D01*
X121755000Y-88758665D01*
X121755000Y-89041335D01*
X121810147Y-89318574D01*
X121918320Y-89579727D01*
X122075363Y-89814759D01*
X122275241Y-90014637D01*
X122510273Y-90171680D01*
X122771426Y-90279853D01*
X123048665Y-90335000D01*
X123331335Y-90335000D01*
X123608574Y-90279853D01*
X123869727Y-90171680D01*
X124104759Y-90014637D01*
X124304637Y-89814759D01*
X124340000Y-89761834D01*
X124340001Y-97182166D01*
X124304637Y-97129241D01*
X124104759Y-96929363D01*
X123869727Y-96772320D01*
X123608574Y-96664147D01*
X123331335Y-96609000D01*
X123048665Y-96609000D01*
X122771426Y-96664147D01*
X122510273Y-96772320D01*
X122275241Y-96929363D01*
X122075363Y-97129241D01*
X121920000Y-97361759D01*
X121764637Y-97129241D01*
X121564759Y-96929363D01*
X121329727Y-96772320D01*
X121068574Y-96664147D01*
X120791335Y-96609000D01*
X120508665Y-96609000D01*
X120231426Y-96664147D01*
X119970273Y-96772320D01*
X119735241Y-96929363D01*
X119555381Y-97109223D01*
X118895000Y-96448843D01*
X118895000Y-95856300D01*
X118954815Y-95929185D01*
X119051506Y-96008537D01*
X119161820Y-96067502D01*
X119281518Y-96103812D01*
X119406000Y-96116072D01*
X119820250Y-96113000D01*
X119979000Y-95954250D01*
X119979000Y-94805000D01*
X120233000Y-94805000D01*
X120233000Y-95954250D01*
X120391750Y-96113000D01*
X120806000Y-96116072D01*
X120930482Y-96103812D01*
X121050180Y-96067502D01*
X121160494Y-96008537D01*
X121257185Y-95929185D01*
X121336537Y-95832494D01*
X121395502Y-95722180D01*
X121431812Y-95602482D01*
X121444072Y-95478000D01*
X121441000Y-94963750D01*
X121282250Y-94805000D01*
X120233000Y-94805000D01*
X119979000Y-94805000D01*
X119959000Y-94805000D01*
X119959000Y-94551000D01*
X119979000Y-94551000D01*
X119979000Y-93401750D01*
X120233000Y-93401750D01*
X120233000Y-94551000D01*
X121282250Y-94551000D01*
X121441000Y-94392250D01*
X121444072Y-93878000D01*
X121431812Y-93753518D01*
X121395502Y-93633820D01*
X121336537Y-93523506D01*
X121257185Y-93426815D01*
X121160494Y-93347463D01*
X121050180Y-93288498D01*
X120930482Y-93252188D01*
X120806000Y-93239928D01*
X120391750Y-93243000D01*
X120233000Y-93401750D01*
X119979000Y-93401750D01*
X119820250Y-93243000D01*
X119406000Y-93239928D01*
X119281518Y-93252188D01*
X119161820Y-93288498D01*
X119051506Y-93347463D01*
X118954815Y-93426815D01*
X118895000Y-93499700D01*
X118895000Y-87856300D01*
X118954815Y-87929185D01*
X119051506Y-88008537D01*
X119161820Y-88067502D01*
X119281518Y-88103812D01*
X119406000Y-88116072D01*
X119820250Y-88113000D01*
X119979000Y-87954250D01*
X119979000Y-86805000D01*
X120233000Y-86805000D01*
X120233000Y-87954250D01*
X120391750Y-88113000D01*
X120806000Y-88116072D01*
X120930482Y-88103812D01*
X121050180Y-88067502D01*
X121160494Y-88008537D01*
X121257185Y-87929185D01*
X121336537Y-87832494D01*
X121395502Y-87722180D01*
X121431812Y-87602482D01*
X121444072Y-87478000D01*
X121441000Y-86963750D01*
X121282250Y-86805000D01*
X120233000Y-86805000D01*
X119979000Y-86805000D01*
X119959000Y-86805000D01*
X119959000Y-86551000D01*
X119979000Y-86551000D01*
X119979000Y-85401750D01*
X120233000Y-85401750D01*
X120233000Y-86551000D01*
X121282250Y-86551000D01*
X121441000Y-86392250D01*
X121444072Y-85878000D01*
X121431812Y-85753518D01*
X121395502Y-85633820D01*
X121336537Y-85523506D01*
X121257185Y-85426815D01*
X121160494Y-85347463D01*
X121050180Y-85288498D01*
X120930482Y-85252188D01*
X120806000Y-85239928D01*
X120391750Y-85243000D01*
X120233000Y-85401750D01*
X119979000Y-85401750D01*
X119820250Y-85243000D01*
X119406000Y-85239928D01*
X119281518Y-85252188D01*
X119161820Y-85288498D01*
X119051506Y-85347463D01*
X118954815Y-85426815D01*
X118895000Y-85499700D01*
X118895000Y-83637157D01*
X120721158Y-81811000D01*
X121582462Y-81811000D01*
X121591068Y-81827101D01*
%TA.AperFunction,Conductor*%
D33*
G36*
X121591068Y-81827101D02*
G01*
X121770392Y-82045608D01*
X121988899Y-82224932D01*
X122121858Y-82296000D01*
X121988899Y-82367068D01*
X121770392Y-82546392D01*
X121591068Y-82764899D01*
X121457818Y-83014192D01*
X121375764Y-83284691D01*
X121348057Y-83566000D01*
X121375764Y-83847309D01*
X121457818Y-84117808D01*
X121591068Y-84367101D01*
X121770392Y-84585608D01*
X121988899Y-84764932D01*
X122238192Y-84898182D01*
X122508691Y-84980236D01*
X122719508Y-85001000D01*
X122721082Y-85001000D01*
X122510273Y-85088320D01*
X122275241Y-85245363D01*
X122075363Y-85445241D01*
X121918320Y-85680273D01*
X121810147Y-85941426D01*
X121755000Y-86218665D01*
X121755000Y-86501335D01*
X121810147Y-86778574D01*
X121918320Y-87039727D01*
X122075363Y-87274759D01*
X122275241Y-87474637D01*
X122507759Y-87630000D01*
X122275241Y-87785363D01*
X122075363Y-87985241D01*
X121918320Y-88220273D01*
X121810147Y-88481426D01*
X121755000Y-88758665D01*
X121755000Y-89041335D01*
X121810147Y-89318574D01*
X121918320Y-89579727D01*
X122075363Y-89814759D01*
X122275241Y-90014637D01*
X122510273Y-90171680D01*
X122771426Y-90279853D01*
X123048665Y-90335000D01*
X123331335Y-90335000D01*
X123608574Y-90279853D01*
X123869727Y-90171680D01*
X124104759Y-90014637D01*
X124304637Y-89814759D01*
X124340000Y-89761834D01*
X124340001Y-97182166D01*
X124304637Y-97129241D01*
X124104759Y-96929363D01*
X123869727Y-96772320D01*
X123608574Y-96664147D01*
X123331335Y-96609000D01*
X123048665Y-96609000D01*
X122771426Y-96664147D01*
X122510273Y-96772320D01*
X122275241Y-96929363D01*
X122075363Y-97129241D01*
X121920000Y-97361759D01*
X121764637Y-97129241D01*
X121564759Y-96929363D01*
X121329727Y-96772320D01*
X121068574Y-96664147D01*
X120791335Y-96609000D01*
X120508665Y-96609000D01*
X120231426Y-96664147D01*
X119970273Y-96772320D01*
X119735241Y-96929363D01*
X119555381Y-97109223D01*
X118895000Y-96448843D01*
X118895000Y-95856300D01*
X118954815Y-95929185D01*
X119051506Y-96008537D01*
X119161820Y-96067502D01*
X119281518Y-96103812D01*
X119406000Y-96116072D01*
X119820250Y-96113000D01*
X119979000Y-95954250D01*
X119979000Y-94805000D01*
X120233000Y-94805000D01*
X120233000Y-95954250D01*
X120391750Y-96113000D01*
X120806000Y-96116072D01*
X120930482Y-96103812D01*
X121050180Y-96067502D01*
X121160494Y-96008537D01*
X121257185Y-95929185D01*
X121336537Y-95832494D01*
X121395502Y-95722180D01*
X121431812Y-95602482D01*
X121444072Y-95478000D01*
X121441000Y-94963750D01*
X121282250Y-94805000D01*
X120233000Y-94805000D01*
X119979000Y-94805000D01*
X119959000Y-94805000D01*
X119959000Y-94551000D01*
X119979000Y-94551000D01*
X119979000Y-93401750D01*
X120233000Y-93401750D01*
X120233000Y-94551000D01*
X121282250Y-94551000D01*
X121441000Y-94392250D01*
X121444072Y-93878000D01*
X121431812Y-93753518D01*
X121395502Y-93633820D01*
X121336537Y-93523506D01*
X121257185Y-93426815D01*
X121160494Y-93347463D01*
X121050180Y-93288498D01*
X120930482Y-93252188D01*
X120806000Y-93239928D01*
X120391750Y-93243000D01*
X120233000Y-93401750D01*
X119979000Y-93401750D01*
X119820250Y-93243000D01*
X119406000Y-93239928D01*
X119281518Y-93252188D01*
X119161820Y-93288498D01*
X119051506Y-93347463D01*
X118954815Y-93426815D01*
X118895000Y-93499700D01*
X118895000Y-87856300D01*
X118954815Y-87929185D01*
X119051506Y-88008537D01*
X119161820Y-88067502D01*
X119281518Y-88103812D01*
X119406000Y-88116072D01*
X119820250Y-88113000D01*
X119979000Y-87954250D01*
X119979000Y-86805000D01*
X120233000Y-86805000D01*
X120233000Y-87954250D01*
X120391750Y-88113000D01*
X120806000Y-88116072D01*
X120930482Y-88103812D01*
X121050180Y-88067502D01*
X121160494Y-88008537D01*
X121257185Y-87929185D01*
X121336537Y-87832494D01*
X121395502Y-87722180D01*
X121431812Y-87602482D01*
X121444072Y-87478000D01*
X121441000Y-86963750D01*
X121282250Y-86805000D01*
X120233000Y-86805000D01*
X119979000Y-86805000D01*
X119959000Y-86805000D01*
X119959000Y-86551000D01*
X119979000Y-86551000D01*
X119979000Y-85401750D01*
X120233000Y-85401750D01*
X120233000Y-86551000D01*
X121282250Y-86551000D01*
X121441000Y-86392250D01*
X121444072Y-85878000D01*
X121431812Y-85753518D01*
X121395502Y-85633820D01*
X121336537Y-85523506D01*
X121257185Y-85426815D01*
X121160494Y-85347463D01*
X121050180Y-85288498D01*
X120930482Y-85252188D01*
X120806000Y-85239928D01*
X120391750Y-85243000D01*
X120233000Y-85401750D01*
X119979000Y-85401750D01*
X119820250Y-85243000D01*
X119406000Y-85239928D01*
X119281518Y-85252188D01*
X119161820Y-85288498D01*
X119051506Y-85347463D01*
X118954815Y-85426815D01*
X118895000Y-85499700D01*
X118895000Y-83637157D01*
X120721158Y-81811000D01*
X121582462Y-81811000D01*
X121591068Y-81827101D01*
G37*
%TD.AperFunction*%
D32*
X101727000Y-72009000D02*
X101747000Y-72009000D01*
X101747000Y-72263000D01*
X101727000Y-72263000D01*
X101727000Y-72283000D01*
X101473000Y-72283000D01*
X101473000Y-72263000D01*
X101453000Y-72263000D01*
X101453000Y-72009000D01*
X101473000Y-72009000D01*
X101473000Y-71989000D01*
X101727000Y-71989000D01*
X101727000Y-72009000D01*
%TA.AperFunction,Conductor*%
D33*
G36*
X101727000Y-72009000D02*
G01*
X101747000Y-72009000D01*
X101747000Y-72263000D01*
X101727000Y-72263000D01*
X101727000Y-72283000D01*
X101473000Y-72283000D01*
X101473000Y-72263000D01*
X101453000Y-72263000D01*
X101453000Y-72009000D01*
X101473000Y-72009000D01*
X101473000Y-71989000D01*
X101727000Y-71989000D01*
X101727000Y-72009000D01*
G37*
%TD.AperFunction*%
%TD*%
M02*
