%TF.GenerationSoftware,KiCad,Pcbnew,(5.1.12)-1*%
%TF.CreationDate,2025-05-30T10:09:50+02:00*%
%TF.ProjectId,telecommande,74656c65-636f-46d6-9d61-6e64652e6b69,rev?*%
%TF.SameCoordinates,Original*%
%TF.FileFunction,Copper,L2,Bot*%
%TF.FilePolarity,Positive*%
%FSLAX46Y46*%
G04 Gerber Fmt 4.6, Leading zero omitted, Abs format (unit mm)*
G04 Created by KiCad (PCBNEW (5.1.12)-1) date 2025-05-30 10:09:50*
%MOMM*%
%LPD*%
G01*
G04 APERTURE LIST*
%TA.AperFunction,ComponentPad*%
%ADD10O,1.700000X1.700000*%
%TD*%
%TA.AperFunction,ComponentPad*%
%ADD11R,1.700000X1.700000*%
%TD*%
%TA.AperFunction,ComponentPad*%
%ADD12O,2.400000X1.600000*%
%TD*%
%TA.AperFunction,ComponentPad*%
%ADD13R,2.400000X1.600000*%
%TD*%
%TA.AperFunction,ComponentPad*%
%ADD14O,1.600000X1.600000*%
%TD*%
%TA.AperFunction,ComponentPad*%
%ADD15C,1.600000*%
%TD*%
%TA.AperFunction,ComponentPad*%
%ADD16O,2.200000X2.200000*%
%TD*%
%TA.AperFunction,ComponentPad*%
%ADD17R,2.200000X2.200000*%
%TD*%
%TA.AperFunction,ComponentPad*%
%ADD18C,1.500000*%
%TD*%
%TA.AperFunction,ComponentPad*%
%ADD19O,1.905000X2.000000*%
%TD*%
%TA.AperFunction,ComponentPad*%
%ADD20R,1.905000X2.000000*%
%TD*%
%TA.AperFunction,ComponentPad*%
%ADD21R,1.500000X1.500000*%
%TD*%
%TA.AperFunction,ComponentPad*%
%ADD22C,3.000000*%
%TD*%
%TA.AperFunction,ComponentPad*%
%ADD23R,3.000000X3.000000*%
%TD*%
%TA.AperFunction,ComponentPad*%
%ADD24C,1.800000*%
%TD*%
%TA.AperFunction,ComponentPad*%
%ADD25R,1.800000X1.800000*%
%TD*%
%TA.AperFunction,ViaPad*%
%ADD26C,0.800000*%
%TD*%
%TA.AperFunction,Conductor*%
%ADD27C,0.450000*%
%TD*%
%TA.AperFunction,Conductor*%
%ADD28C,0.300000*%
%TD*%
%TA.AperFunction,Conductor*%
%ADD29C,0.254000*%
%TD*%
%TA.AperFunction,Conductor*%
%ADD30C,0.100000*%
%TD*%
G04 APERTURE END LIST*
D10*
%TO.P,J1,8*%
%TO.N,N/C*%
X114300000Y-72136000D03*
%TO.P,J1,7*%
X111760000Y-72136000D03*
%TO.P,J1,6*%
X109220000Y-72136000D03*
%TO.P,J1,5*%
%TO.N,/PGC*%
X106680000Y-72136000D03*
%TO.P,J1,4*%
%TO.N,/PGD*%
X104140000Y-72136000D03*
%TO.P,J1,3*%
%TO.N,GND*%
X101600000Y-72136000D03*
%TO.P,J1,2*%
%TO.N,/TVDD*%
X99060000Y-72136000D03*
D11*
%TO.P,J1,1*%
%TO.N,/MCLR*%
X96520000Y-72136000D03*
%TD*%
D12*
%TO.P,U3,8*%
%TO.N,/VDD*%
X123190000Y-75946000D03*
%TO.P,U3,4*%
%TO.N,GND*%
X115570000Y-83566000D03*
%TO.P,U3,7*%
%TO.N,Net-(JP1-Pad2)*%
X123190000Y-78486000D03*
%TO.P,U3,3*%
%TO.N,GND*%
X115570000Y-81026000D03*
%TO.P,U3,6*%
%TO.N,Net-(R2-Pad2)*%
X123190000Y-81026000D03*
%TO.P,U3,2*%
%TO.N,GND*%
X115570000Y-78486000D03*
%TO.P,U3,5*%
%TO.N,Net-(R3-Pad2)*%
X123190000Y-83566000D03*
D13*
%TO.P,U3,1*%
%TO.N,N/C*%
X115570000Y-75946000D03*
%TD*%
D14*
%TO.P,R2,2*%
%TO.N,Net-(R2-Pad2)*%
X120650000Y-98044000D03*
D15*
%TO.P,R2,1*%
%TO.N,/SCL*%
X123190000Y-98044000D03*
%TD*%
D16*
%TO.P,D5,2*%
%TO.N,/VCC*%
X115824000Y-120142000D03*
D17*
%TO.P,D5,1*%
%TO.N,/12VR*%
X115824000Y-116332000D03*
%TD*%
D16*
%TO.P,D1,2*%
%TO.N,/VCC*%
X115824000Y-112268000D03*
D17*
%TO.P,D1,1*%
%TO.N,/VDD*%
X115824000Y-99568000D03*
%TD*%
%TO.P,R5,2*%
%TO.N,Net-(R5-Pad2)*%
%TA.AperFunction,SMDPad,CuDef*%
G36*
G01*
X118980000Y-105213999D02*
X118980000Y-106114001D01*
G75*
G02*
X118730001Y-106364000I-249999J0D01*
G01*
X118029999Y-106364000D01*
G75*
G02*
X117780000Y-106114001I0J249999D01*
G01*
X117780000Y-105213999D01*
G75*
G02*
X118029999Y-104964000I249999J0D01*
G01*
X118730001Y-104964000D01*
G75*
G02*
X118980000Y-105213999I0J-249999D01*
G01*
G37*
%TD.AperFunction*%
%TO.P,R5,1*%
%TO.N,/CTS*%
%TA.AperFunction,SMDPad,CuDef*%
G36*
G01*
X120980000Y-105213999D02*
X120980000Y-106114001D01*
G75*
G02*
X120730001Y-106364000I-249999J0D01*
G01*
X120029999Y-106364000D01*
G75*
G02*
X119780000Y-106114001I0J249999D01*
G01*
X119780000Y-105213999D01*
G75*
G02*
X120029999Y-104964000I249999J0D01*
G01*
X120730001Y-104964000D01*
G75*
G02*
X120980000Y-105213999I0J-249999D01*
G01*
G37*
%TD.AperFunction*%
%TD*%
D16*
%TO.P,D7,2*%
%TO.N,/12VR*%
X105664000Y-116332000D03*
D17*
%TO.P,D7,1*%
%TO.N,Net-(C8-Pad1)*%
X95504000Y-116332000D03*
%TD*%
D16*
%TO.P,D3,2*%
%TO.N,Net-(D3-Pad2)*%
X94742000Y-102870000D03*
D17*
%TO.P,D3,1*%
%TO.N,Net-(C8-Pad1)*%
X94742000Y-113030000D03*
%TD*%
D18*
%TO.P,Y1,2*%
%TO.N,Net-(C3-Pad1)*%
X99314000Y-103960000D03*
%TO.P,Y1,1*%
%TO.N,Net-(C2-Pad1)*%
X99314000Y-99060000D03*
%TD*%
D19*
%TO.P,U4,3*%
%TO.N,/12VR*%
X103124000Y-121158000D03*
%TO.P,U4,2*%
%TO.N,GND*%
X100584000Y-121158000D03*
D20*
%TO.P,U4,1*%
%TO.N,Net-(C8-Pad1)*%
X98044000Y-121158000D03*
%TD*%
D12*
%TO.P,U2,28*%
%TO.N,/PGD*%
X111506000Y-80264000D03*
%TO.P,U2,14*%
%TO.N,/SCL*%
X103886000Y-113284000D03*
%TO.P,U2,27*%
%TO.N,/PGC*%
X111506000Y-82804000D03*
%TO.P,U2,13*%
%TO.N,Net-(R5-Pad2)*%
X103886000Y-110744000D03*
%TO.P,U2,26*%
%TO.N,N/C*%
X111506000Y-85344000D03*
%TO.P,U2,12*%
%TO.N,Net-(R4-Pad2)*%
X103886000Y-108204000D03*
%TO.P,U2,25*%
%TO.N,/RX*%
X111506000Y-87884000D03*
%TO.P,U2,11*%
%TO.N,/LED*%
X103886000Y-105664000D03*
%TO.P,U2,24*%
%TO.N,N/C*%
X111506000Y-90424000D03*
%TO.P,U2,10*%
%TO.N,Net-(C3-Pad1)*%
X103886000Y-103124000D03*
%TO.P,U2,23*%
%TO.N,/Bp1*%
X111506000Y-92964000D03*
%TO.P,U2,9*%
%TO.N,Net-(C2-Pad1)*%
X103886000Y-100584000D03*
%TO.P,U2,22*%
%TO.N,N/C*%
X111506000Y-95504000D03*
%TO.P,U2,8*%
%TO.N,GND*%
X103886000Y-98044000D03*
%TO.P,U2,21*%
%TO.N,N/C*%
X111506000Y-98044000D03*
%TO.P,U2,7*%
%TO.N,/Rel1*%
X103886000Y-95504000D03*
%TO.P,U2,20*%
%TO.N,/VDD*%
X111506000Y-100584000D03*
%TO.P,U2,6*%
%TO.N,Net-(C5-Pad1)*%
X103886000Y-92964000D03*
%TO.P,U2,19*%
%TO.N,GND*%
X111506000Y-103124000D03*
%TO.P,U2,5*%
%TO.N,N/C*%
X103886000Y-90424000D03*
%TO.P,U2,18*%
%TO.N,Net-(R7-Pad2)*%
X111506000Y-105664000D03*
%TO.P,U2,4*%
%TO.N,N/C*%
X103886000Y-87884000D03*
%TO.P,U2,17*%
%TO.N,Net-(R6-Pad2)*%
X111506000Y-108204000D03*
%TO.P,U2,3*%
%TO.N,N/C*%
X103886000Y-85344000D03*
%TO.P,U2,16*%
X111506000Y-110744000D03*
%TO.P,U2,2*%
X103886000Y-82804000D03*
%TO.P,U2,15*%
%TO.N,/SDA*%
X111506000Y-113284000D03*
D13*
%TO.P,U2,1*%
%TO.N,/MCLR*%
X103886000Y-80264000D03*
%TD*%
D21*
%TO.P,U1,1*%
%TO.N,/VCC*%
X107696000Y-120650000D03*
D18*
%TO.P,U1,3*%
%TO.N,/12VR*%
X112776000Y-120650000D03*
%TO.P,U1,2*%
%TO.N,GND*%
X110236000Y-120650000D03*
%TD*%
%TO.P,R9,2*%
%TO.N,/SDA*%
%TA.AperFunction,SMDPad,CuDef*%
G36*
G01*
X108515999Y-107080000D02*
X109416001Y-107080000D01*
G75*
G02*
X109666000Y-107329999I0J-249999D01*
G01*
X109666000Y-108030001D01*
G75*
G02*
X109416001Y-108280000I-249999J0D01*
G01*
X108515999Y-108280000D01*
G75*
G02*
X108266000Y-108030001I0J249999D01*
G01*
X108266000Y-107329999D01*
G75*
G02*
X108515999Y-107080000I249999J0D01*
G01*
G37*
%TD.AperFunction*%
%TO.P,R9,1*%
%TO.N,/VDD*%
%TA.AperFunction,SMDPad,CuDef*%
G36*
G01*
X108515999Y-105080000D02*
X109416001Y-105080000D01*
G75*
G02*
X109666000Y-105329999I0J-249999D01*
G01*
X109666000Y-106030001D01*
G75*
G02*
X109416001Y-106280000I-249999J0D01*
G01*
X108515999Y-106280000D01*
G75*
G02*
X108266000Y-106030001I0J249999D01*
G01*
X108266000Y-105329999D01*
G75*
G02*
X108515999Y-105080000I249999J0D01*
G01*
G37*
%TD.AperFunction*%
%TD*%
%TO.P,R8,2*%
%TO.N,/SCL*%
%TA.AperFunction,SMDPad,CuDef*%
G36*
G01*
X105975999Y-107080000D02*
X106876001Y-107080000D01*
G75*
G02*
X107126000Y-107329999I0J-249999D01*
G01*
X107126000Y-108030001D01*
G75*
G02*
X106876001Y-108280000I-249999J0D01*
G01*
X105975999Y-108280000D01*
G75*
G02*
X105726000Y-108030001I0J249999D01*
G01*
X105726000Y-107329999D01*
G75*
G02*
X105975999Y-107080000I249999J0D01*
G01*
G37*
%TD.AperFunction*%
%TO.P,R8,1*%
%TO.N,/VDD*%
%TA.AperFunction,SMDPad,CuDef*%
G36*
G01*
X105975999Y-105080000D02*
X106876001Y-105080000D01*
G75*
G02*
X107126000Y-105329999I0J-249999D01*
G01*
X107126000Y-106030001D01*
G75*
G02*
X106876001Y-106280000I-249999J0D01*
G01*
X105975999Y-106280000D01*
G75*
G02*
X105726000Y-106030001I0J249999D01*
G01*
X105726000Y-105329999D01*
G75*
G02*
X105975999Y-105080000I249999J0D01*
G01*
G37*
%TD.AperFunction*%
%TD*%
D14*
%TO.P,R3,2*%
%TO.N,Net-(R3-Pad2)*%
X123190000Y-86360000D03*
D15*
%TO.P,R3,1*%
%TO.N,/SDA*%
X123190000Y-88900000D03*
%TD*%
D21*
%TO.P,Q1,1*%
%TO.N,Net-(C7-Pad2)*%
X96520000Y-88900000D03*
D18*
%TO.P,Q1,3*%
%TO.N,GND*%
X96520000Y-83820000D03*
%TO.P,Q1,2*%
%TO.N,/Rel1*%
X96520000Y-86360000D03*
%TD*%
%TO.P,K1,12*%
%TO.N,Net-(C7-Pad2)*%
X86614000Y-87122000D03*
%TO.P,K1,10*%
%TO.N,N/C*%
X86614000Y-92202000D03*
%TO.P,K1,9*%
X86614000Y-94742000D03*
%TO.P,K1,8*%
X86614000Y-97282000D03*
%TO.P,K1,5*%
%TO.N,Net-(J7-Pad1)*%
X81534000Y-97282000D03*
%TO.P,K1,4*%
%TO.N,Net-(J7-Pad2)*%
X81534000Y-94742000D03*
%TO.P,K1,3*%
%TO.N,N/C*%
X81534000Y-92202000D03*
%TO.P,K1,1*%
%TO.N,/12VR*%
%TA.AperFunction,ComponentPad*%
G36*
G01*
X80784000Y-87621500D02*
X80784000Y-86622500D01*
G75*
G02*
X81034500Y-86372000I250500J0D01*
G01*
X82033500Y-86372000D01*
G75*
G02*
X82284000Y-86622500I0J-250500D01*
G01*
X82284000Y-87621500D01*
G75*
G02*
X82033500Y-87872000I-250500J0D01*
G01*
X81034500Y-87872000D01*
G75*
G02*
X80784000Y-87621500I0J250500D01*
G01*
G37*
%TD.AperFunction*%
%TD*%
D11*
%TO.P,J8,1*%
%TO.N,/RX*%
X100584000Y-87884000D03*
%TD*%
D22*
%TO.P,J7,2*%
%TO.N,Net-(J7-Pad2)*%
X84074000Y-104394000D03*
D23*
%TO.P,J7,1*%
%TO.N,Net-(J7-Pad1)*%
X84074000Y-109474000D03*
%TD*%
D22*
%TO.P,J6,2*%
%TO.N,/ANT*%
X84074000Y-114808000D03*
D23*
%TO.P,J6,1*%
%TO.N,GND*%
X84074000Y-119888000D03*
%TD*%
D10*
%TO.P,J5,6*%
%TO.N,N/C*%
X123190000Y-115570000D03*
%TO.P,J5,5*%
%TO.N,GND*%
X123190000Y-113030000D03*
%TO.P,J5,4*%
%TO.N,/TX1*%
X123190000Y-110490000D03*
%TO.P,J5,3*%
%TO.N,/RX1*%
X123190000Y-107950000D03*
%TO.P,J5,2*%
%TO.N,/CTS*%
X123190000Y-105410000D03*
D11*
%TO.P,J5,1*%
%TO.N,/RTS*%
X123190000Y-102870000D03*
%TD*%
D10*
%TO.P,J4,4*%
%TO.N,/VCC*%
X89916000Y-111760000D03*
%TO.P,J4,3*%
%TO.N,/RX*%
X89916000Y-114300000D03*
%TO.P,J4,2*%
X89916000Y-116840000D03*
D11*
%TO.P,J4,1*%
%TO.N,GND*%
X89916000Y-119380000D03*
%TD*%
D10*
%TO.P,J3,4*%
%TO.N,/ANT*%
X89916000Y-78994000D03*
%TO.P,J3,3*%
%TO.N,GND*%
X89916000Y-81534000D03*
%TO.P,J3,2*%
X89916000Y-84074000D03*
D11*
%TO.P,J3,1*%
%TO.N,/VCC*%
X89916000Y-86614000D03*
%TD*%
D10*
%TO.P,J2,2*%
%TO.N,GND*%
X82550000Y-78740000D03*
D11*
%TO.P,J2,1*%
%TO.N,Net-(D3-Pad2)*%
X85090000Y-78740000D03*
%TD*%
D16*
%TO.P,D6,2*%
%TO.N,Net-(C7-Pad2)*%
X85852000Y-83312000D03*
D17*
%TO.P,D6,1*%
%TO.N,/12VR*%
X83312000Y-83312000D03*
%TD*%
D24*
%TO.P,D4,2*%
%TO.N,/VDD*%
X109728000Y-76200000D03*
D25*
%TO.P,D4,1*%
%TO.N,Net-(D4-Pad1)*%
X107188000Y-76200000D03*
%TD*%
D16*
%TO.P,D2,2*%
%TO.N,/TVDD*%
X98298000Y-80518000D03*
D17*
%TO.P,D2,1*%
%TO.N,/VDD*%
X100838000Y-80518000D03*
%TD*%
%TO.P,C8,2*%
%TO.N,GND*%
%TA.AperFunction,SMDPad,CuDef*%
G36*
G01*
X99002000Y-119601000D02*
X99002000Y-118651000D01*
G75*
G02*
X99252000Y-118401000I250000J0D01*
G01*
X99927000Y-118401000D01*
G75*
G02*
X100177000Y-118651000I0J-250000D01*
G01*
X100177000Y-119601000D01*
G75*
G02*
X99927000Y-119851000I-250000J0D01*
G01*
X99252000Y-119851000D01*
G75*
G02*
X99002000Y-119601000I0J250000D01*
G01*
G37*
%TD.AperFunction*%
%TO.P,C8,1*%
%TO.N,Net-(C8-Pad1)*%
%TA.AperFunction,SMDPad,CuDef*%
G36*
G01*
X96927000Y-119601000D02*
X96927000Y-118651000D01*
G75*
G02*
X97177000Y-118401000I250000J0D01*
G01*
X97852000Y-118401000D01*
G75*
G02*
X98102000Y-118651000I0J-250000D01*
G01*
X98102000Y-119601000D01*
G75*
G02*
X97852000Y-119851000I-250000J0D01*
G01*
X97177000Y-119851000D01*
G75*
G02*
X96927000Y-119601000I0J250000D01*
G01*
G37*
%TD.AperFunction*%
%TD*%
%TO.P,C7,2*%
%TO.N,Net-(C7-Pad2)*%
%TA.AperFunction,SMDPad,CuDef*%
G36*
G01*
X84778000Y-87597000D02*
X84778000Y-86647000D01*
G75*
G02*
X85028000Y-86397000I250000J0D01*
G01*
X85703000Y-86397000D01*
G75*
G02*
X85953000Y-86647000I0J-250000D01*
G01*
X85953000Y-87597000D01*
G75*
G02*
X85703000Y-87847000I-250000J0D01*
G01*
X85028000Y-87847000D01*
G75*
G02*
X84778000Y-87597000I0J250000D01*
G01*
G37*
%TD.AperFunction*%
%TO.P,C7,1*%
%TO.N,/12VR*%
%TA.AperFunction,SMDPad,CuDef*%
G36*
G01*
X82703000Y-87597000D02*
X82703000Y-86647000D01*
G75*
G02*
X82953000Y-86397000I250000J0D01*
G01*
X83628000Y-86397000D01*
G75*
G02*
X83878000Y-86647000I0J-250000D01*
G01*
X83878000Y-87597000D01*
G75*
G02*
X83628000Y-87847000I-250000J0D01*
G01*
X82953000Y-87847000D01*
G75*
G02*
X82703000Y-87597000I0J250000D01*
G01*
G37*
%TD.AperFunction*%
%TD*%
%TO.P,C6,2*%
%TO.N,GND*%
%TA.AperFunction,SMDPad,CuDef*%
G36*
G01*
X117036000Y-97503000D02*
X117036000Y-96553000D01*
G75*
G02*
X117286000Y-96303000I250000J0D01*
G01*
X117961000Y-96303000D01*
G75*
G02*
X118211000Y-96553000I0J-250000D01*
G01*
X118211000Y-97503000D01*
G75*
G02*
X117961000Y-97753000I-250000J0D01*
G01*
X117286000Y-97753000D01*
G75*
G02*
X117036000Y-97503000I0J250000D01*
G01*
G37*
%TD.AperFunction*%
%TO.P,C6,1*%
%TO.N,/VDD*%
%TA.AperFunction,SMDPad,CuDef*%
G36*
G01*
X114961000Y-97503000D02*
X114961000Y-96553000D01*
G75*
G02*
X115211000Y-96303000I250000J0D01*
G01*
X115886000Y-96303000D01*
G75*
G02*
X116136000Y-96553000I0J-250000D01*
G01*
X116136000Y-97503000D01*
G75*
G02*
X115886000Y-97753000I-250000J0D01*
G01*
X115211000Y-97753000D01*
G75*
G02*
X114961000Y-97503000I0J250000D01*
G01*
G37*
%TD.AperFunction*%
%TD*%
%TO.P,C5,2*%
%TO.N,GND*%
%TA.AperFunction,SMDPad,CuDef*%
G36*
G01*
X106459000Y-94430000D02*
X107409000Y-94430000D01*
G75*
G02*
X107659000Y-94680000I0J-250000D01*
G01*
X107659000Y-95355000D01*
G75*
G02*
X107409000Y-95605000I-250000J0D01*
G01*
X106459000Y-95605000D01*
G75*
G02*
X106209000Y-95355000I0J250000D01*
G01*
X106209000Y-94680000D01*
G75*
G02*
X106459000Y-94430000I250000J0D01*
G01*
G37*
%TD.AperFunction*%
%TO.P,C5,1*%
%TO.N,Net-(C5-Pad1)*%
%TA.AperFunction,SMDPad,CuDef*%
G36*
G01*
X106459000Y-92355000D02*
X107409000Y-92355000D01*
G75*
G02*
X107659000Y-92605000I0J-250000D01*
G01*
X107659000Y-93280000D01*
G75*
G02*
X107409000Y-93530000I-250000J0D01*
G01*
X106459000Y-93530000D01*
G75*
G02*
X106209000Y-93280000I0J250000D01*
G01*
X106209000Y-92605000D01*
G75*
G02*
X106459000Y-92355000I250000J0D01*
G01*
G37*
%TD.AperFunction*%
%TD*%
%TO.P,C4,2*%
%TO.N,GND*%
%TA.AperFunction,SMDPad,CuDef*%
G36*
G01*
X109416000Y-119093000D02*
X109416000Y-118143000D01*
G75*
G02*
X109666000Y-117893000I250000J0D01*
G01*
X110341000Y-117893000D01*
G75*
G02*
X110591000Y-118143000I0J-250000D01*
G01*
X110591000Y-119093000D01*
G75*
G02*
X110341000Y-119343000I-250000J0D01*
G01*
X109666000Y-119343000D01*
G75*
G02*
X109416000Y-119093000I0J250000D01*
G01*
G37*
%TD.AperFunction*%
%TO.P,C4,1*%
%TO.N,/VCC*%
%TA.AperFunction,SMDPad,CuDef*%
G36*
G01*
X107341000Y-119093000D02*
X107341000Y-118143000D01*
G75*
G02*
X107591000Y-117893000I250000J0D01*
G01*
X108266000Y-117893000D01*
G75*
G02*
X108516000Y-118143000I0J-250000D01*
G01*
X108516000Y-119093000D01*
G75*
G02*
X108266000Y-119343000I-250000J0D01*
G01*
X107591000Y-119343000D01*
G75*
G02*
X107341000Y-119093000I0J250000D01*
G01*
G37*
%TD.AperFunction*%
%TD*%
D15*
%TO.P,C3,2*%
%TO.N,GND*%
X97536000Y-91734000D03*
%TO.P,C3,1*%
%TO.N,Net-(C3-Pad1)*%
X97536000Y-94234000D03*
%TD*%
%TO.P,C2,2*%
%TO.N,GND*%
X100584000Y-91734000D03*
%TO.P,C2,1*%
%TO.N,Net-(C2-Pad1)*%
X100584000Y-94234000D03*
%TD*%
%TO.P,C1,2*%
%TO.N,GND*%
%TA.AperFunction,SMDPad,CuDef*%
G36*
G01*
X101404000Y-118651000D02*
X101404000Y-119601000D01*
G75*
G02*
X101154000Y-119851000I-250000J0D01*
G01*
X100479000Y-119851000D01*
G75*
G02*
X100229000Y-119601000I0J250000D01*
G01*
X100229000Y-118651000D01*
G75*
G02*
X100479000Y-118401000I250000J0D01*
G01*
X101154000Y-118401000D01*
G75*
G02*
X101404000Y-118651000I0J-250000D01*
G01*
G37*
%TD.AperFunction*%
%TO.P,C1,1*%
%TO.N,/12VR*%
%TA.AperFunction,SMDPad,CuDef*%
G36*
G01*
X103479000Y-118651000D02*
X103479000Y-119601000D01*
G75*
G02*
X103229000Y-119851000I-250000J0D01*
G01*
X102554000Y-119851000D01*
G75*
G02*
X102304000Y-119601000I0J250000D01*
G01*
X102304000Y-118651000D01*
G75*
G02*
X102554000Y-118401000I250000J0D01*
G01*
X103229000Y-118401000D01*
G75*
G02*
X103479000Y-118651000I0J-250000D01*
G01*
G37*
%TD.AperFunction*%
%TD*%
D26*
%TO.N,GND*%
X120142000Y-92710000D03*
%TO.N,Net-(D4-Pad1)*%
X101854000Y-76200000D03*
%TO.N,/RX*%
X87630000Y-100330000D03*
%TO.N,/LED*%
X95504000Y-81280000D03*
%TO.N,Net-(R5-Pad2)*%
X115570000Y-109982000D03*
%TD*%
D27*
%TO.N,GND*%
X100584000Y-121158000D02*
X100584000Y-120396000D01*
X99589500Y-119126000D02*
X100816500Y-119126000D01*
X82550000Y-76708000D02*
X82550000Y-78740000D01*
X83058000Y-76200000D02*
X82550000Y-76708000D01*
X85852000Y-76200000D02*
X83058000Y-76200000D01*
X91445001Y-70606999D02*
X85852000Y-76200000D01*
X100070999Y-70606999D02*
X99562999Y-70606999D01*
X99562999Y-70606999D02*
X91445001Y-70606999D01*
X115310999Y-70606999D02*
X115564999Y-70606999D01*
X100070999Y-70606999D02*
X115310999Y-70606999D01*
X115564999Y-70606999D02*
X116586000Y-71628000D01*
X116586000Y-72390000D02*
X116586000Y-71628000D01*
X100816500Y-119126000D02*
X100816500Y-119655500D01*
X100584000Y-119888000D02*
X100584000Y-121158000D01*
X100816500Y-119655500D02*
X100584000Y-119888000D01*
X99589500Y-119126000D02*
X99589500Y-119655500D01*
X100584000Y-120650000D02*
X100584000Y-121158000D01*
X99589500Y-119655500D02*
X100584000Y-120650000D01*
%TO.N,/12VR*%
X103124000Y-121158000D02*
X103886000Y-121158000D01*
X103124000Y-119358500D02*
X102891500Y-119126000D01*
X103124000Y-121158000D02*
X103124000Y-119358500D01*
X102891500Y-119126000D02*
X102891500Y-118893500D01*
X102891500Y-118893500D02*
X101600000Y-117602000D01*
X101600000Y-117602000D02*
X101600000Y-112268000D01*
X101600000Y-112268000D02*
X100838000Y-111506000D01*
X100838000Y-111506000D02*
X97282000Y-111506000D01*
X97282000Y-111506000D02*
X88900000Y-103124000D01*
X88900000Y-103124000D02*
X88138000Y-103124000D01*
X88138000Y-103124000D02*
X83566000Y-98552000D01*
X83566000Y-98552000D02*
X83566000Y-90170000D01*
X83290500Y-89894500D02*
X83290500Y-87122000D01*
X83566000Y-90170000D02*
X83290500Y-89894500D01*
X112776000Y-120650000D02*
X112776000Y-118110000D01*
X110998000Y-116332000D02*
X105664000Y-116332000D01*
X112776000Y-118110000D02*
X110998000Y-116332000D01*
X115824000Y-116840000D02*
X115316000Y-116840000D01*
X112776000Y-119380000D02*
X112776000Y-120650000D01*
X115316000Y-116840000D02*
X112776000Y-119380000D01*
X83312000Y-87100500D02*
X83290500Y-87122000D01*
X83312000Y-83312000D02*
X83312000Y-87100500D01*
X81534000Y-87122000D02*
X83290500Y-87122000D01*
X105664000Y-116353500D02*
X102891500Y-119126000D01*
X105664000Y-116332000D02*
X105664000Y-116353500D01*
D28*
%TO.N,Net-(C2-Pad1)*%
X101346000Y-100584000D02*
X104394000Y-100584000D01*
X100838000Y-100584000D02*
X101346000Y-100584000D01*
X99314000Y-99060000D02*
X100838000Y-100584000D01*
X99314000Y-99060000D02*
X99314000Y-97282000D01*
X100584000Y-96012000D02*
X100584000Y-94234000D01*
X99314000Y-97282000D02*
X100584000Y-96012000D01*
%TO.N,Net-(C3-Pad1)*%
X104394000Y-103124000D02*
X102108000Y-103124000D01*
X102108000Y-103124000D02*
X101272000Y-103960000D01*
X101272000Y-103960000D02*
X100510000Y-103960000D01*
X100510000Y-103960000D02*
X99314000Y-103960000D01*
X100510000Y-103960000D02*
X99822000Y-103960000D01*
X97536000Y-102182000D02*
X99314000Y-103960000D01*
X97536000Y-94234000D02*
X97536000Y-102182000D01*
D27*
%TO.N,/VCC*%
X107928500Y-120417500D02*
X107696000Y-120650000D01*
X107928500Y-118618000D02*
X107928500Y-120417500D01*
X115824000Y-120904000D02*
X114554000Y-122174000D01*
X109220000Y-122174000D02*
X107696000Y-120650000D01*
X114554000Y-122174000D02*
X109220000Y-122174000D01*
X118110000Y-118364000D02*
X115824000Y-120650000D01*
X118110000Y-112776000D02*
X118110000Y-118364000D01*
X117602000Y-112268000D02*
X118110000Y-112776000D01*
X115824000Y-112268000D02*
X117602000Y-112268000D01*
D28*
%TO.N,Net-(C5-Pad1)*%
X106912500Y-92964000D02*
X106934000Y-92942500D01*
X103907500Y-92942500D02*
X103886000Y-92964000D01*
X106934000Y-92942500D02*
X103907500Y-92942500D01*
D27*
%TO.N,Net-(C7-Pad2)*%
X86614000Y-88392000D02*
X86614000Y-87122000D01*
X87630000Y-89408000D02*
X86614000Y-88392000D01*
X96520000Y-88900000D02*
X91948000Y-88900000D01*
X91440000Y-89408000D02*
X87630000Y-89408000D01*
X91948000Y-88900000D02*
X91440000Y-89408000D01*
X85365500Y-87122000D02*
X85365500Y-85830500D01*
X85852000Y-85344000D02*
X85852000Y-83312000D01*
X85365500Y-85830500D02*
X85852000Y-85344000D01*
X85365500Y-87122000D02*
X86614000Y-87122000D01*
%TO.N,Net-(C8-Pad1)*%
X95504000Y-113792000D02*
X94742000Y-113030000D01*
X95504000Y-116332000D02*
X95504000Y-113792000D01*
X98044000Y-119655500D02*
X97514500Y-119126000D01*
X97514500Y-116818500D02*
X97514500Y-119126000D01*
X97028000Y-116332000D02*
X97514500Y-116818500D01*
X95504000Y-116332000D02*
X97028000Y-116332000D01*
X98044000Y-121158000D02*
X98044000Y-119655500D01*
%TO.N,/TVDD*%
X99060000Y-73152000D02*
X98044000Y-74168000D01*
X98044000Y-74168000D02*
X97028000Y-74168000D01*
X97028000Y-74168000D02*
X95758000Y-75438000D01*
X95758000Y-75438000D02*
X95758000Y-78740000D01*
X97536000Y-80518000D02*
X98298000Y-80518000D01*
X95758000Y-78740000D02*
X97536000Y-80518000D01*
X99060000Y-72136000D02*
X99060000Y-73152000D01*
D28*
%TO.N,Net-(D4-Pad1)*%
X101854000Y-76200000D02*
X101854000Y-76200000D01*
X101854000Y-76200000D02*
X107188000Y-76200000D01*
%TO.N,/RX*%
X100584000Y-87884000D02*
X98552000Y-89916000D01*
X98552000Y-89916000D02*
X98044000Y-90424000D01*
X98044000Y-90424000D02*
X95250000Y-90424000D01*
X95250000Y-90424000D02*
X91186000Y-94488000D01*
X91186000Y-94488000D02*
X90424000Y-95250000D01*
X90424000Y-95250000D02*
X89154000Y-96520000D01*
X89154000Y-96520000D02*
X89154000Y-98806000D01*
X89154000Y-98806000D02*
X87630000Y-100330000D01*
X89916000Y-114300000D02*
X89916000Y-116840000D01*
%TO.N,/CTS*%
X120888000Y-105664000D02*
X121666000Y-105664000D01*
X121920000Y-105410000D02*
X123190000Y-105410000D01*
X121666000Y-105664000D02*
X121920000Y-105410000D01*
%TO.N,/LED*%
X100330000Y-84074000D02*
X99060000Y-82804000D01*
X106426000Y-84074000D02*
X100330000Y-84074000D01*
X108458000Y-86106000D02*
X106426000Y-84074000D01*
X108458000Y-98298000D02*
X108458000Y-86106000D01*
X108009010Y-98746990D02*
X108458000Y-98298000D01*
X108009010Y-102302990D02*
X108009010Y-98746990D01*
X104648000Y-105664000D02*
X108009010Y-102302990D01*
X104394000Y-105664000D02*
X104648000Y-105664000D01*
X95504000Y-81280000D02*
X96266000Y-81280000D01*
X97790000Y-82804000D02*
X99060000Y-82804000D01*
X96266000Y-81280000D02*
X97790000Y-82804000D01*
%TO.N,/SCL*%
X104394000Y-113284000D02*
X105410000Y-113284000D01*
X106172000Y-113284000D02*
X104394000Y-113284000D01*
X106426000Y-107680000D02*
X106426000Y-113284000D01*
X104394000Y-113284000D02*
X106426000Y-113284000D01*
X123190000Y-98044000D02*
X123190000Y-98552000D01*
X121920000Y-99314000D02*
X123190000Y-98044000D01*
X114173000Y-113665000D02*
X114173000Y-106807000D01*
X121666000Y-99314000D02*
X121920000Y-99314000D01*
X113030000Y-114808000D02*
X114173000Y-113665000D01*
X109728000Y-114808000D02*
X113030000Y-114808000D01*
X114173000Y-106807000D02*
X121666000Y-99314000D01*
X108204000Y-113284000D02*
X109728000Y-114808000D01*
X106426000Y-113284000D02*
X108204000Y-113284000D01*
%TO.N,Net-(R3-Pad2)*%
X123190000Y-83566000D02*
X123190000Y-86360000D01*
%TO.N,/SDA*%
X110744000Y-113284000D02*
X112014000Y-113284000D01*
X108966000Y-111506000D02*
X109601000Y-112141000D01*
X108966000Y-107680000D02*
X108966000Y-111506000D01*
X109601000Y-112141000D02*
X110744000Y-113284000D01*
X109474000Y-112014000D02*
X109601000Y-112141000D01*
X113030000Y-113284000D02*
X111506000Y-113284000D01*
X113538000Y-112776000D02*
X113030000Y-113284000D01*
X113538000Y-103886000D02*
X113538000Y-112776000D01*
X115570000Y-101854000D02*
X113538000Y-103886000D01*
X117094000Y-101854000D02*
X115570000Y-101854000D01*
X119126000Y-99822000D02*
X117094000Y-101854000D01*
X119126000Y-95504000D02*
X119126000Y-99822000D01*
X123190000Y-91440000D02*
X119126000Y-95504000D01*
X123190000Y-88900000D02*
X123190000Y-91440000D01*
%TO.N,Net-(R5-Pad2)*%
X117602000Y-105664000D02*
X118380000Y-105664000D01*
X115570000Y-107696000D02*
X117602000Y-105664000D01*
X115570000Y-109982000D02*
X115570000Y-107696000D01*
D27*
%TO.N,/VDD*%
X115548500Y-98784500D02*
X116332000Y-99568000D01*
X107442000Y-78486000D02*
X102108000Y-78486000D01*
X100838000Y-79756000D02*
X100838000Y-80518000D01*
X102108000Y-78486000D02*
X100838000Y-79756000D01*
X113538000Y-100584000D02*
X114554000Y-99568000D01*
X109728000Y-76200000D02*
X111760000Y-76200000D01*
X119888000Y-74168000D02*
X121666000Y-75946000D01*
X121666000Y-75946000D02*
X123190000Y-75946000D01*
X113792000Y-74168000D02*
X119888000Y-74168000D01*
X111760000Y-76200000D02*
X113792000Y-74168000D01*
X113538000Y-100584000D02*
X111506000Y-100584000D01*
X109474000Y-84836000D02*
X109474000Y-100076000D01*
X107442000Y-82804000D02*
X109474000Y-84836000D01*
X107442000Y-78486000D02*
X107442000Y-82804000D01*
X109474000Y-101346000D02*
X109474000Y-101854000D01*
X111506000Y-100584000D02*
X109474000Y-100584000D01*
X109474000Y-100584000D02*
X109474000Y-101854000D01*
X109474000Y-100076000D02*
X109474000Y-100584000D01*
X108966000Y-105680000D02*
X108966000Y-103378000D01*
X109474000Y-102870000D02*
X109474000Y-101854000D01*
X108966000Y-103378000D02*
X109474000Y-102870000D01*
X108966000Y-105680000D02*
X106426000Y-105680000D01*
X115548500Y-97028000D02*
X115548500Y-97768500D01*
X115824000Y-98044000D02*
X115824000Y-99568000D01*
X115548500Y-97768500D02*
X115824000Y-98044000D01*
X114554000Y-99568000D02*
X115824000Y-99568000D01*
X109728000Y-76200000D02*
X109728000Y-77978000D01*
X109220000Y-78486000D02*
X107442000Y-78486000D01*
X109728000Y-77978000D02*
X109220000Y-78486000D01*
%TD*%
D29*
%TO.N,GND*%
X110717610Y-117267834D02*
X110715482Y-117267188D01*
X110591000Y-117254928D01*
X110289250Y-117258000D01*
X110130500Y-117416750D01*
X110130500Y-118491000D01*
X111067250Y-118491000D01*
X111226000Y-118332250D01*
X111229072Y-117893000D01*
X111216812Y-117768518D01*
X111216166Y-117766390D01*
X111916001Y-118466225D01*
X111916001Y-119337750D01*
X111916000Y-119337755D01*
X111916000Y-119337761D01*
X111911840Y-119380000D01*
X111916000Y-119422244D01*
X111916000Y-119558909D01*
X111893114Y-119574201D01*
X111700201Y-119767114D01*
X111548629Y-119993957D01*
X111507489Y-120093279D01*
X111492277Y-120051168D01*
X111431860Y-119938137D01*
X111192993Y-119872612D01*
X110415605Y-120650000D01*
X110429748Y-120664143D01*
X110250143Y-120843748D01*
X110236000Y-120829605D01*
X110221858Y-120843748D01*
X110042253Y-120664143D01*
X110056395Y-120650000D01*
X110042253Y-120635858D01*
X110221858Y-120456253D01*
X110236000Y-120470395D01*
X110747207Y-119959188D01*
X110835180Y-119932502D01*
X110945494Y-119873537D01*
X111042185Y-119794185D01*
X111121537Y-119697494D01*
X111180502Y-119587180D01*
X111216812Y-119467482D01*
X111229072Y-119343000D01*
X111226000Y-118903750D01*
X111067250Y-118745000D01*
X110130500Y-118745000D01*
X110130500Y-118765000D01*
X109876500Y-118765000D01*
X109876500Y-118745000D01*
X109856500Y-118745000D01*
X109856500Y-118491000D01*
X109876500Y-118491000D01*
X109876500Y-117416750D01*
X109717750Y-117258000D01*
X109416000Y-117254928D01*
X109291518Y-117267188D01*
X109171820Y-117303498D01*
X109061506Y-117362463D01*
X108964815Y-117441815D01*
X108899342Y-117521594D01*
X108893962Y-117515038D01*
X108759386Y-117404595D01*
X108605850Y-117322528D01*
X108439254Y-117271992D01*
X108266000Y-117254928D01*
X107591000Y-117254928D01*
X107417746Y-117271992D01*
X107251150Y-117322528D01*
X107097614Y-117404595D01*
X106963038Y-117515038D01*
X106852595Y-117649614D01*
X106770528Y-117803150D01*
X106719992Y-117969746D01*
X106702928Y-118143000D01*
X106702928Y-119093000D01*
X106719992Y-119266254D01*
X106730751Y-119301722D01*
X106701820Y-119310498D01*
X106591506Y-119369463D01*
X106494815Y-119448815D01*
X106415463Y-119545506D01*
X106356498Y-119655820D01*
X106320188Y-119775518D01*
X106307928Y-119900000D01*
X106307928Y-121400000D01*
X106320188Y-121524482D01*
X106356498Y-121644180D01*
X106415463Y-121754494D01*
X106494815Y-121851185D01*
X106591506Y-121930537D01*
X106701820Y-121989502D01*
X106821518Y-122025812D01*
X106946000Y-122038072D01*
X107867849Y-122038072D01*
X108169777Y-122340000D01*
X104243998Y-122340000D01*
X104251963Y-122333463D01*
X104450345Y-122091734D01*
X104597755Y-121815948D01*
X104688530Y-121516703D01*
X104694609Y-121454982D01*
X104733556Y-121326589D01*
X104750161Y-121158000D01*
X104733556Y-120989411D01*
X104694609Y-120861018D01*
X104688530Y-120799296D01*
X104597755Y-120500051D01*
X104450345Y-120224265D01*
X104251963Y-119982537D01*
X104079709Y-119841172D01*
X104100008Y-119774254D01*
X104117072Y-119601000D01*
X104117072Y-119116651D01*
X105220876Y-118012848D01*
X105493117Y-118067000D01*
X105834883Y-118067000D01*
X106170081Y-118000325D01*
X106485831Y-117869537D01*
X106769998Y-117679663D01*
X107011663Y-117437998D01*
X107176033Y-117192000D01*
X110641777Y-117192000D01*
X110717610Y-117267834D01*
%TA.AperFunction,Conductor*%
D30*
G36*
X110717610Y-117267834D02*
G01*
X110715482Y-117267188D01*
X110591000Y-117254928D01*
X110289250Y-117258000D01*
X110130500Y-117416750D01*
X110130500Y-118491000D01*
X111067250Y-118491000D01*
X111226000Y-118332250D01*
X111229072Y-117893000D01*
X111216812Y-117768518D01*
X111216166Y-117766390D01*
X111916001Y-118466225D01*
X111916001Y-119337750D01*
X111916000Y-119337755D01*
X111916000Y-119337761D01*
X111911840Y-119380000D01*
X111916000Y-119422244D01*
X111916000Y-119558909D01*
X111893114Y-119574201D01*
X111700201Y-119767114D01*
X111548629Y-119993957D01*
X111507489Y-120093279D01*
X111492277Y-120051168D01*
X111431860Y-119938137D01*
X111192993Y-119872612D01*
X110415605Y-120650000D01*
X110429748Y-120664143D01*
X110250143Y-120843748D01*
X110236000Y-120829605D01*
X110221858Y-120843748D01*
X110042253Y-120664143D01*
X110056395Y-120650000D01*
X110042253Y-120635858D01*
X110221858Y-120456253D01*
X110236000Y-120470395D01*
X110747207Y-119959188D01*
X110835180Y-119932502D01*
X110945494Y-119873537D01*
X111042185Y-119794185D01*
X111121537Y-119697494D01*
X111180502Y-119587180D01*
X111216812Y-119467482D01*
X111229072Y-119343000D01*
X111226000Y-118903750D01*
X111067250Y-118745000D01*
X110130500Y-118745000D01*
X110130500Y-118765000D01*
X109876500Y-118765000D01*
X109876500Y-118745000D01*
X109856500Y-118745000D01*
X109856500Y-118491000D01*
X109876500Y-118491000D01*
X109876500Y-117416750D01*
X109717750Y-117258000D01*
X109416000Y-117254928D01*
X109291518Y-117267188D01*
X109171820Y-117303498D01*
X109061506Y-117362463D01*
X108964815Y-117441815D01*
X108899342Y-117521594D01*
X108893962Y-117515038D01*
X108759386Y-117404595D01*
X108605850Y-117322528D01*
X108439254Y-117271992D01*
X108266000Y-117254928D01*
X107591000Y-117254928D01*
X107417746Y-117271992D01*
X107251150Y-117322528D01*
X107097614Y-117404595D01*
X106963038Y-117515038D01*
X106852595Y-117649614D01*
X106770528Y-117803150D01*
X106719992Y-117969746D01*
X106702928Y-118143000D01*
X106702928Y-119093000D01*
X106719992Y-119266254D01*
X106730751Y-119301722D01*
X106701820Y-119310498D01*
X106591506Y-119369463D01*
X106494815Y-119448815D01*
X106415463Y-119545506D01*
X106356498Y-119655820D01*
X106320188Y-119775518D01*
X106307928Y-119900000D01*
X106307928Y-121400000D01*
X106320188Y-121524482D01*
X106356498Y-121644180D01*
X106415463Y-121754494D01*
X106494815Y-121851185D01*
X106591506Y-121930537D01*
X106701820Y-121989502D01*
X106821518Y-122025812D01*
X106946000Y-122038072D01*
X107867849Y-122038072D01*
X108169777Y-122340000D01*
X104243998Y-122340000D01*
X104251963Y-122333463D01*
X104450345Y-122091734D01*
X104597755Y-121815948D01*
X104688530Y-121516703D01*
X104694609Y-121454982D01*
X104733556Y-121326589D01*
X104750161Y-121158000D01*
X104733556Y-120989411D01*
X104694609Y-120861018D01*
X104688530Y-120799296D01*
X104597755Y-120500051D01*
X104450345Y-120224265D01*
X104251963Y-119982537D01*
X104079709Y-119841172D01*
X104100008Y-119774254D01*
X104117072Y-119601000D01*
X104117072Y-119116651D01*
X105220876Y-118012848D01*
X105493117Y-118067000D01*
X105834883Y-118067000D01*
X106170081Y-118000325D01*
X106485831Y-117869537D01*
X106769998Y-117679663D01*
X107011663Y-117437998D01*
X107176033Y-117192000D01*
X110641777Y-117192000D01*
X110717610Y-117267834D01*
G37*
%TD.AperFunction*%
D29*
X122036525Y-106356632D02*
X122243368Y-106563475D01*
X122417760Y-106680000D01*
X122243368Y-106796525D01*
X122036525Y-107003368D01*
X121874010Y-107246589D01*
X121762068Y-107516842D01*
X121705000Y-107803740D01*
X121705000Y-108096260D01*
X121762068Y-108383158D01*
X121874010Y-108653411D01*
X122036525Y-108896632D01*
X122243368Y-109103475D01*
X122417760Y-109220000D01*
X122243368Y-109336525D01*
X122036525Y-109543368D01*
X121874010Y-109786589D01*
X121762068Y-110056842D01*
X121705000Y-110343740D01*
X121705000Y-110636260D01*
X121762068Y-110923158D01*
X121874010Y-111193411D01*
X122036525Y-111436632D01*
X122243368Y-111643475D01*
X122425534Y-111765195D01*
X122308645Y-111834822D01*
X122092412Y-112029731D01*
X121918359Y-112263080D01*
X121793175Y-112525901D01*
X121748524Y-112673110D01*
X121869845Y-112903000D01*
X123063000Y-112903000D01*
X123063000Y-112883000D01*
X123317000Y-112883000D01*
X123317000Y-112903000D01*
X123337000Y-112903000D01*
X123337000Y-113157000D01*
X123317000Y-113157000D01*
X123317000Y-113177000D01*
X123063000Y-113177000D01*
X123063000Y-113157000D01*
X121869845Y-113157000D01*
X121748524Y-113386890D01*
X121793175Y-113534099D01*
X121918359Y-113796920D01*
X122092412Y-114030269D01*
X122308645Y-114225178D01*
X122425534Y-114294805D01*
X122243368Y-114416525D01*
X122036525Y-114623368D01*
X121874010Y-114866589D01*
X121762068Y-115136842D01*
X121705000Y-115423740D01*
X121705000Y-115716260D01*
X121762068Y-116003158D01*
X121874010Y-116273411D01*
X122036525Y-116516632D01*
X122243368Y-116723475D01*
X122486589Y-116885990D01*
X122756842Y-116997932D01*
X123043740Y-117055000D01*
X123336260Y-117055000D01*
X123623158Y-116997932D01*
X123893411Y-116885990D01*
X124136632Y-116723475D01*
X124340001Y-116520106D01*
X124340001Y-122340000D01*
X122672383Y-122340000D01*
X122892012Y-122011302D01*
X123052953Y-121622756D01*
X123135000Y-121210279D01*
X123135000Y-120789721D01*
X123052953Y-120377244D01*
X122892012Y-119988698D01*
X122658363Y-119639017D01*
X122360983Y-119341637D01*
X122011302Y-119107988D01*
X121622756Y-118947047D01*
X121210279Y-118865000D01*
X120789721Y-118865000D01*
X120377244Y-118947047D01*
X119988698Y-119107988D01*
X119639017Y-119341637D01*
X119341637Y-119639017D01*
X119107988Y-119988698D01*
X118947047Y-120377244D01*
X118865000Y-120789721D01*
X118865000Y-121210279D01*
X118947047Y-121622756D01*
X119107988Y-122011302D01*
X119327617Y-122340000D01*
X115604223Y-122340000D01*
X116085186Y-121859038D01*
X116330081Y-121810325D01*
X116645831Y-121679537D01*
X116929998Y-121489663D01*
X117171663Y-121247998D01*
X117361537Y-120963831D01*
X117492325Y-120648081D01*
X117559000Y-120312883D01*
X117559000Y-120131223D01*
X118688241Y-119001983D01*
X118721054Y-118975054D01*
X118828524Y-118844102D01*
X118908381Y-118694700D01*
X118957556Y-118532589D01*
X118970000Y-118406246D01*
X118970000Y-118406240D01*
X118974160Y-118364001D01*
X118970000Y-118321762D01*
X118970000Y-112818238D01*
X118974160Y-112775999D01*
X118970000Y-112733760D01*
X118970000Y-112733754D01*
X118959598Y-112628139D01*
X118957556Y-112607409D01*
X118924670Y-112499000D01*
X118908381Y-112445300D01*
X118828524Y-112295898D01*
X118721054Y-112164946D01*
X118688231Y-112138009D01*
X118239988Y-111689765D01*
X118213054Y-111656946D01*
X118082102Y-111549476D01*
X117932700Y-111469619D01*
X117770589Y-111420444D01*
X117644246Y-111408000D01*
X117644239Y-111408000D01*
X117602000Y-111403840D01*
X117559761Y-111408000D01*
X117336033Y-111408000D01*
X117171663Y-111162002D01*
X116929998Y-110920337D01*
X116645831Y-110730463D01*
X116386462Y-110623029D01*
X116487205Y-110472256D01*
X116565226Y-110283898D01*
X116605000Y-110083939D01*
X116605000Y-109880061D01*
X116565226Y-109680102D01*
X116487205Y-109491744D01*
X116373937Y-109322226D01*
X116355000Y-109303289D01*
X116355000Y-108021157D01*
X117529550Y-106846608D01*
X117536613Y-106852405D01*
X117690149Y-106934472D01*
X117856745Y-106985008D01*
X118029999Y-107002072D01*
X118730001Y-107002072D01*
X118903255Y-106985008D01*
X119069851Y-106934472D01*
X119223387Y-106852405D01*
X119357962Y-106741962D01*
X119380000Y-106715109D01*
X119402038Y-106741962D01*
X119536613Y-106852405D01*
X119690149Y-106934472D01*
X119856745Y-106985008D01*
X120029999Y-107002072D01*
X120730001Y-107002072D01*
X120903255Y-106985008D01*
X121069851Y-106934472D01*
X121223387Y-106852405D01*
X121357962Y-106741962D01*
X121468405Y-106607387D01*
X121550472Y-106453851D01*
X121551944Y-106449000D01*
X121627447Y-106449000D01*
X121666000Y-106452797D01*
X121704553Y-106449000D01*
X121704561Y-106449000D01*
X121819887Y-106437641D01*
X121967860Y-106392754D01*
X122036240Y-106356205D01*
X122036525Y-106356632D01*
%TA.AperFunction,Conductor*%
D30*
G36*
X122036525Y-106356632D02*
G01*
X122243368Y-106563475D01*
X122417760Y-106680000D01*
X122243368Y-106796525D01*
X122036525Y-107003368D01*
X121874010Y-107246589D01*
X121762068Y-107516842D01*
X121705000Y-107803740D01*
X121705000Y-108096260D01*
X121762068Y-108383158D01*
X121874010Y-108653411D01*
X122036525Y-108896632D01*
X122243368Y-109103475D01*
X122417760Y-109220000D01*
X122243368Y-109336525D01*
X122036525Y-109543368D01*
X121874010Y-109786589D01*
X121762068Y-110056842D01*
X121705000Y-110343740D01*
X121705000Y-110636260D01*
X121762068Y-110923158D01*
X121874010Y-111193411D01*
X122036525Y-111436632D01*
X122243368Y-111643475D01*
X122425534Y-111765195D01*
X122308645Y-111834822D01*
X122092412Y-112029731D01*
X121918359Y-112263080D01*
X121793175Y-112525901D01*
X121748524Y-112673110D01*
X121869845Y-112903000D01*
X123063000Y-112903000D01*
X123063000Y-112883000D01*
X123317000Y-112883000D01*
X123317000Y-112903000D01*
X123337000Y-112903000D01*
X123337000Y-113157000D01*
X123317000Y-113157000D01*
X123317000Y-113177000D01*
X123063000Y-113177000D01*
X123063000Y-113157000D01*
X121869845Y-113157000D01*
X121748524Y-113386890D01*
X121793175Y-113534099D01*
X121918359Y-113796920D01*
X122092412Y-114030269D01*
X122308645Y-114225178D01*
X122425534Y-114294805D01*
X122243368Y-114416525D01*
X122036525Y-114623368D01*
X121874010Y-114866589D01*
X121762068Y-115136842D01*
X121705000Y-115423740D01*
X121705000Y-115716260D01*
X121762068Y-116003158D01*
X121874010Y-116273411D01*
X122036525Y-116516632D01*
X122243368Y-116723475D01*
X122486589Y-116885990D01*
X122756842Y-116997932D01*
X123043740Y-117055000D01*
X123336260Y-117055000D01*
X123623158Y-116997932D01*
X123893411Y-116885990D01*
X124136632Y-116723475D01*
X124340001Y-116520106D01*
X124340001Y-122340000D01*
X122672383Y-122340000D01*
X122892012Y-122011302D01*
X123052953Y-121622756D01*
X123135000Y-121210279D01*
X123135000Y-120789721D01*
X123052953Y-120377244D01*
X122892012Y-119988698D01*
X122658363Y-119639017D01*
X122360983Y-119341637D01*
X122011302Y-119107988D01*
X121622756Y-118947047D01*
X121210279Y-118865000D01*
X120789721Y-118865000D01*
X120377244Y-118947047D01*
X119988698Y-119107988D01*
X119639017Y-119341637D01*
X119341637Y-119639017D01*
X119107988Y-119988698D01*
X118947047Y-120377244D01*
X118865000Y-120789721D01*
X118865000Y-121210279D01*
X118947047Y-121622756D01*
X119107988Y-122011302D01*
X119327617Y-122340000D01*
X115604223Y-122340000D01*
X116085186Y-121859038D01*
X116330081Y-121810325D01*
X116645831Y-121679537D01*
X116929998Y-121489663D01*
X117171663Y-121247998D01*
X117361537Y-120963831D01*
X117492325Y-120648081D01*
X117559000Y-120312883D01*
X117559000Y-120131223D01*
X118688241Y-119001983D01*
X118721054Y-118975054D01*
X118828524Y-118844102D01*
X118908381Y-118694700D01*
X118957556Y-118532589D01*
X118970000Y-118406246D01*
X118970000Y-118406240D01*
X118974160Y-118364001D01*
X118970000Y-118321762D01*
X118970000Y-112818238D01*
X118974160Y-112775999D01*
X118970000Y-112733760D01*
X118970000Y-112733754D01*
X118959598Y-112628139D01*
X118957556Y-112607409D01*
X118924670Y-112499000D01*
X118908381Y-112445300D01*
X118828524Y-112295898D01*
X118721054Y-112164946D01*
X118688231Y-112138009D01*
X118239988Y-111689765D01*
X118213054Y-111656946D01*
X118082102Y-111549476D01*
X117932700Y-111469619D01*
X117770589Y-111420444D01*
X117644246Y-111408000D01*
X117644239Y-111408000D01*
X117602000Y-111403840D01*
X117559761Y-111408000D01*
X117336033Y-111408000D01*
X117171663Y-111162002D01*
X116929998Y-110920337D01*
X116645831Y-110730463D01*
X116386462Y-110623029D01*
X116487205Y-110472256D01*
X116565226Y-110283898D01*
X116605000Y-110083939D01*
X116605000Y-109880061D01*
X116565226Y-109680102D01*
X116487205Y-109491744D01*
X116373937Y-109322226D01*
X116355000Y-109303289D01*
X116355000Y-108021157D01*
X117529550Y-106846608D01*
X117536613Y-106852405D01*
X117690149Y-106934472D01*
X117856745Y-106985008D01*
X118029999Y-107002072D01*
X118730001Y-107002072D01*
X118903255Y-106985008D01*
X119069851Y-106934472D01*
X119223387Y-106852405D01*
X119357962Y-106741962D01*
X119380000Y-106715109D01*
X119402038Y-106741962D01*
X119536613Y-106852405D01*
X119690149Y-106934472D01*
X119856745Y-106985008D01*
X120029999Y-107002072D01*
X120730001Y-107002072D01*
X120903255Y-106985008D01*
X121069851Y-106934472D01*
X121223387Y-106852405D01*
X121357962Y-106741962D01*
X121468405Y-106607387D01*
X121550472Y-106453851D01*
X121551944Y-106449000D01*
X121627447Y-106449000D01*
X121666000Y-106452797D01*
X121704553Y-106449000D01*
X121704561Y-106449000D01*
X121819887Y-106437641D01*
X121967860Y-106392754D01*
X122036240Y-106356205D01*
X122036525Y-106356632D01*
G37*
%TD.AperFunction*%
D29*
X82706000Y-98509761D02*
X82701840Y-98552000D01*
X82706000Y-98594239D01*
X82706000Y-98594245D01*
X82712084Y-98656011D01*
X82718444Y-98720589D01*
X82729835Y-98758141D01*
X82767619Y-98882699D01*
X82847476Y-99032101D01*
X82954946Y-99163054D01*
X82987765Y-99189988D01*
X87500012Y-103702235D01*
X87526946Y-103735054D01*
X87657898Y-103842524D01*
X87807300Y-103922381D01*
X87893950Y-103948665D01*
X87969409Y-103971556D01*
X88000538Y-103974622D01*
X88095754Y-103984000D01*
X88095760Y-103984000D01*
X88137999Y-103988160D01*
X88180238Y-103984000D01*
X88543777Y-103984000D01*
X95852764Y-111292988D01*
X95842000Y-111291928D01*
X93642000Y-111291928D01*
X93517518Y-111304188D01*
X93397820Y-111340498D01*
X93287506Y-111399463D01*
X93190815Y-111478815D01*
X93111463Y-111575506D01*
X93052498Y-111685820D01*
X93016188Y-111805518D01*
X93003928Y-111930000D01*
X93003928Y-114130000D01*
X93016188Y-114254482D01*
X93052498Y-114374180D01*
X93111463Y-114484494D01*
X93190815Y-114581185D01*
X93287506Y-114660537D01*
X93397820Y-114719502D01*
X93517518Y-114755812D01*
X93642000Y-114768072D01*
X93968342Y-114768072D01*
X93952815Y-114780815D01*
X93873463Y-114877506D01*
X93814498Y-114987820D01*
X93778188Y-115107518D01*
X93765928Y-115232000D01*
X93765928Y-117432000D01*
X93778188Y-117556482D01*
X93814498Y-117676180D01*
X93873463Y-117786494D01*
X93952815Y-117883185D01*
X94049506Y-117962537D01*
X94159820Y-118021502D01*
X94279518Y-118057812D01*
X94404000Y-118070072D01*
X96510438Y-118070072D01*
X96438595Y-118157614D01*
X96356528Y-118311150D01*
X96305992Y-118477746D01*
X96288928Y-118651000D01*
X96288928Y-119601000D01*
X96305992Y-119774254D01*
X96356528Y-119940850D01*
X96438595Y-120094386D01*
X96457433Y-120117340D01*
X96453428Y-120158000D01*
X96453428Y-122158000D01*
X96465688Y-122282482D01*
X96483136Y-122340000D01*
X80660000Y-122340000D01*
X80660000Y-121388000D01*
X81935928Y-121388000D01*
X81948188Y-121512482D01*
X81984498Y-121632180D01*
X82043463Y-121742494D01*
X82122815Y-121839185D01*
X82219506Y-121918537D01*
X82329820Y-121977502D01*
X82449518Y-122013812D01*
X82574000Y-122026072D01*
X83788250Y-122023000D01*
X83947000Y-121864250D01*
X83947000Y-120015000D01*
X84201000Y-120015000D01*
X84201000Y-121864250D01*
X84359750Y-122023000D01*
X85574000Y-122026072D01*
X85698482Y-122013812D01*
X85818180Y-121977502D01*
X85928494Y-121918537D01*
X86025185Y-121839185D01*
X86104537Y-121742494D01*
X86163502Y-121632180D01*
X86199812Y-121512482D01*
X86212072Y-121388000D01*
X86209143Y-120230000D01*
X88427928Y-120230000D01*
X88440188Y-120354482D01*
X88476498Y-120474180D01*
X88535463Y-120584494D01*
X88614815Y-120681185D01*
X88711506Y-120760537D01*
X88821820Y-120819502D01*
X88941518Y-120855812D01*
X89066000Y-120868072D01*
X89630250Y-120865000D01*
X89789000Y-120706250D01*
X89789000Y-119507000D01*
X90043000Y-119507000D01*
X90043000Y-120706250D01*
X90201750Y-120865000D01*
X90766000Y-120868072D01*
X90890482Y-120855812D01*
X91010180Y-120819502D01*
X91120494Y-120760537D01*
X91217185Y-120681185D01*
X91296537Y-120584494D01*
X91355502Y-120474180D01*
X91391812Y-120354482D01*
X91404072Y-120230000D01*
X91401000Y-119665750D01*
X91242250Y-119507000D01*
X90043000Y-119507000D01*
X89789000Y-119507000D01*
X88589750Y-119507000D01*
X88431000Y-119665750D01*
X88427928Y-120230000D01*
X86209143Y-120230000D01*
X86209000Y-120173750D01*
X86050250Y-120015000D01*
X84201000Y-120015000D01*
X83947000Y-120015000D01*
X82097750Y-120015000D01*
X81939000Y-120173750D01*
X81935928Y-121388000D01*
X80660000Y-121388000D01*
X80660000Y-118388000D01*
X81935928Y-118388000D01*
X81939000Y-119602250D01*
X82097750Y-119761000D01*
X83947000Y-119761000D01*
X83947000Y-117911750D01*
X84201000Y-117911750D01*
X84201000Y-119761000D01*
X86050250Y-119761000D01*
X86209000Y-119602250D01*
X86211712Y-118530000D01*
X88427928Y-118530000D01*
X88431000Y-119094250D01*
X88589750Y-119253000D01*
X89789000Y-119253000D01*
X89789000Y-119233000D01*
X90043000Y-119233000D01*
X90043000Y-119253000D01*
X91242250Y-119253000D01*
X91401000Y-119094250D01*
X91404072Y-118530000D01*
X91391812Y-118405518D01*
X91355502Y-118285820D01*
X91296537Y-118175506D01*
X91217185Y-118078815D01*
X91120494Y-117999463D01*
X91010180Y-117940498D01*
X90937620Y-117918487D01*
X91069475Y-117786632D01*
X91231990Y-117543411D01*
X91343932Y-117273158D01*
X91401000Y-116986260D01*
X91401000Y-116693740D01*
X91343932Y-116406842D01*
X91231990Y-116136589D01*
X91069475Y-115893368D01*
X90862632Y-115686525D01*
X90701000Y-115578526D01*
X90701000Y-115561474D01*
X90862632Y-115453475D01*
X91069475Y-115246632D01*
X91231990Y-115003411D01*
X91343932Y-114733158D01*
X91401000Y-114446260D01*
X91401000Y-114153740D01*
X91343932Y-113866842D01*
X91231990Y-113596589D01*
X91069475Y-113353368D01*
X90862632Y-113146525D01*
X90688240Y-113030000D01*
X90862632Y-112913475D01*
X91069475Y-112706632D01*
X91231990Y-112463411D01*
X91343932Y-112193158D01*
X91401000Y-111906260D01*
X91401000Y-111613740D01*
X91343932Y-111326842D01*
X91231990Y-111056589D01*
X91069475Y-110813368D01*
X90862632Y-110606525D01*
X90619411Y-110444010D01*
X90349158Y-110332068D01*
X90062260Y-110275000D01*
X89769740Y-110275000D01*
X89482842Y-110332068D01*
X89212589Y-110444010D01*
X88969368Y-110606525D01*
X88762525Y-110813368D01*
X88600010Y-111056589D01*
X88488068Y-111326842D01*
X88431000Y-111613740D01*
X88431000Y-111906260D01*
X88488068Y-112193158D01*
X88600010Y-112463411D01*
X88762525Y-112706632D01*
X88969368Y-112913475D01*
X89143760Y-113030000D01*
X88969368Y-113146525D01*
X88762525Y-113353368D01*
X88600010Y-113596589D01*
X88488068Y-113866842D01*
X88431000Y-114153740D01*
X88431000Y-114446260D01*
X88488068Y-114733158D01*
X88600010Y-115003411D01*
X88762525Y-115246632D01*
X88969368Y-115453475D01*
X89131000Y-115561474D01*
X89131001Y-115578526D01*
X88969368Y-115686525D01*
X88762525Y-115893368D01*
X88600010Y-116136589D01*
X88488068Y-116406842D01*
X88431000Y-116693740D01*
X88431000Y-116986260D01*
X88488068Y-117273158D01*
X88600010Y-117543411D01*
X88762525Y-117786632D01*
X88894380Y-117918487D01*
X88821820Y-117940498D01*
X88711506Y-117999463D01*
X88614815Y-118078815D01*
X88535463Y-118175506D01*
X88476498Y-118285820D01*
X88440188Y-118405518D01*
X88427928Y-118530000D01*
X86211712Y-118530000D01*
X86212072Y-118388000D01*
X86199812Y-118263518D01*
X86163502Y-118143820D01*
X86104537Y-118033506D01*
X86025185Y-117936815D01*
X85928494Y-117857463D01*
X85818180Y-117798498D01*
X85698482Y-117762188D01*
X85574000Y-117749928D01*
X84359750Y-117753000D01*
X84201000Y-117911750D01*
X83947000Y-117911750D01*
X83788250Y-117753000D01*
X82574000Y-117749928D01*
X82449518Y-117762188D01*
X82329820Y-117798498D01*
X82219506Y-117857463D01*
X82122815Y-117936815D01*
X82043463Y-118033506D01*
X81984498Y-118143820D01*
X81948188Y-118263518D01*
X81935928Y-118388000D01*
X80660000Y-118388000D01*
X80660000Y-114597721D01*
X81939000Y-114597721D01*
X81939000Y-115018279D01*
X82021047Y-115430756D01*
X82181988Y-115819302D01*
X82415637Y-116168983D01*
X82713017Y-116466363D01*
X83062698Y-116700012D01*
X83451244Y-116860953D01*
X83863721Y-116943000D01*
X84284279Y-116943000D01*
X84696756Y-116860953D01*
X85085302Y-116700012D01*
X85434983Y-116466363D01*
X85732363Y-116168983D01*
X85966012Y-115819302D01*
X86126953Y-115430756D01*
X86209000Y-115018279D01*
X86209000Y-114597721D01*
X86126953Y-114185244D01*
X85966012Y-113796698D01*
X85732363Y-113447017D01*
X85434983Y-113149637D01*
X85085302Y-112915988D01*
X84696756Y-112755047D01*
X84284279Y-112673000D01*
X83863721Y-112673000D01*
X83451244Y-112755047D01*
X83062698Y-112915988D01*
X82713017Y-113149637D01*
X82415637Y-113447017D01*
X82181988Y-113796698D01*
X82021047Y-114185244D01*
X81939000Y-114597721D01*
X80660000Y-114597721D01*
X80660000Y-107974000D01*
X81935928Y-107974000D01*
X81935928Y-110974000D01*
X81948188Y-111098482D01*
X81984498Y-111218180D01*
X82043463Y-111328494D01*
X82122815Y-111425185D01*
X82219506Y-111504537D01*
X82329820Y-111563502D01*
X82449518Y-111599812D01*
X82574000Y-111612072D01*
X85574000Y-111612072D01*
X85698482Y-111599812D01*
X85818180Y-111563502D01*
X85928494Y-111504537D01*
X86025185Y-111425185D01*
X86104537Y-111328494D01*
X86163502Y-111218180D01*
X86199812Y-111098482D01*
X86212072Y-110974000D01*
X86212072Y-107974000D01*
X86199812Y-107849518D01*
X86163502Y-107729820D01*
X86104537Y-107619506D01*
X86025185Y-107522815D01*
X85928494Y-107443463D01*
X85818180Y-107384498D01*
X85698482Y-107348188D01*
X85574000Y-107335928D01*
X82574000Y-107335928D01*
X82449518Y-107348188D01*
X82329820Y-107384498D01*
X82219506Y-107443463D01*
X82122815Y-107522815D01*
X82043463Y-107619506D01*
X81984498Y-107729820D01*
X81948188Y-107849518D01*
X81935928Y-107974000D01*
X80660000Y-107974000D01*
X80660000Y-104183721D01*
X81939000Y-104183721D01*
X81939000Y-104604279D01*
X82021047Y-105016756D01*
X82181988Y-105405302D01*
X82415637Y-105754983D01*
X82713017Y-106052363D01*
X83062698Y-106286012D01*
X83451244Y-106446953D01*
X83863721Y-106529000D01*
X84284279Y-106529000D01*
X84696756Y-106446953D01*
X85085302Y-106286012D01*
X85434983Y-106052363D01*
X85732363Y-105754983D01*
X85966012Y-105405302D01*
X86126953Y-105016756D01*
X86209000Y-104604279D01*
X86209000Y-104183721D01*
X86126953Y-103771244D01*
X85966012Y-103382698D01*
X85732363Y-103033017D01*
X85434983Y-102735637D01*
X85085302Y-102501988D01*
X84696756Y-102341047D01*
X84284279Y-102259000D01*
X83863721Y-102259000D01*
X83451244Y-102341047D01*
X83062698Y-102501988D01*
X82713017Y-102735637D01*
X82415637Y-103033017D01*
X82181988Y-103382698D01*
X82021047Y-103771244D01*
X81939000Y-104183721D01*
X80660000Y-104183721D01*
X80660000Y-98363736D01*
X80877957Y-98509371D01*
X81130011Y-98613775D01*
X81397589Y-98667000D01*
X81670411Y-98667000D01*
X81937989Y-98613775D01*
X82190043Y-98509371D01*
X82416886Y-98357799D01*
X82609799Y-98164886D01*
X82706000Y-98020911D01*
X82706000Y-98509761D01*
%TA.AperFunction,Conductor*%
D30*
G36*
X82706000Y-98509761D02*
G01*
X82701840Y-98552000D01*
X82706000Y-98594239D01*
X82706000Y-98594245D01*
X82712084Y-98656011D01*
X82718444Y-98720589D01*
X82729835Y-98758141D01*
X82767619Y-98882699D01*
X82847476Y-99032101D01*
X82954946Y-99163054D01*
X82987765Y-99189988D01*
X87500012Y-103702235D01*
X87526946Y-103735054D01*
X87657898Y-103842524D01*
X87807300Y-103922381D01*
X87893950Y-103948665D01*
X87969409Y-103971556D01*
X88000538Y-103974622D01*
X88095754Y-103984000D01*
X88095760Y-103984000D01*
X88137999Y-103988160D01*
X88180238Y-103984000D01*
X88543777Y-103984000D01*
X95852764Y-111292988D01*
X95842000Y-111291928D01*
X93642000Y-111291928D01*
X93517518Y-111304188D01*
X93397820Y-111340498D01*
X93287506Y-111399463D01*
X93190815Y-111478815D01*
X93111463Y-111575506D01*
X93052498Y-111685820D01*
X93016188Y-111805518D01*
X93003928Y-111930000D01*
X93003928Y-114130000D01*
X93016188Y-114254482D01*
X93052498Y-114374180D01*
X93111463Y-114484494D01*
X93190815Y-114581185D01*
X93287506Y-114660537D01*
X93397820Y-114719502D01*
X93517518Y-114755812D01*
X93642000Y-114768072D01*
X93968342Y-114768072D01*
X93952815Y-114780815D01*
X93873463Y-114877506D01*
X93814498Y-114987820D01*
X93778188Y-115107518D01*
X93765928Y-115232000D01*
X93765928Y-117432000D01*
X93778188Y-117556482D01*
X93814498Y-117676180D01*
X93873463Y-117786494D01*
X93952815Y-117883185D01*
X94049506Y-117962537D01*
X94159820Y-118021502D01*
X94279518Y-118057812D01*
X94404000Y-118070072D01*
X96510438Y-118070072D01*
X96438595Y-118157614D01*
X96356528Y-118311150D01*
X96305992Y-118477746D01*
X96288928Y-118651000D01*
X96288928Y-119601000D01*
X96305992Y-119774254D01*
X96356528Y-119940850D01*
X96438595Y-120094386D01*
X96457433Y-120117340D01*
X96453428Y-120158000D01*
X96453428Y-122158000D01*
X96465688Y-122282482D01*
X96483136Y-122340000D01*
X80660000Y-122340000D01*
X80660000Y-121388000D01*
X81935928Y-121388000D01*
X81948188Y-121512482D01*
X81984498Y-121632180D01*
X82043463Y-121742494D01*
X82122815Y-121839185D01*
X82219506Y-121918537D01*
X82329820Y-121977502D01*
X82449518Y-122013812D01*
X82574000Y-122026072D01*
X83788250Y-122023000D01*
X83947000Y-121864250D01*
X83947000Y-120015000D01*
X84201000Y-120015000D01*
X84201000Y-121864250D01*
X84359750Y-122023000D01*
X85574000Y-122026072D01*
X85698482Y-122013812D01*
X85818180Y-121977502D01*
X85928494Y-121918537D01*
X86025185Y-121839185D01*
X86104537Y-121742494D01*
X86163502Y-121632180D01*
X86199812Y-121512482D01*
X86212072Y-121388000D01*
X86209143Y-120230000D01*
X88427928Y-120230000D01*
X88440188Y-120354482D01*
X88476498Y-120474180D01*
X88535463Y-120584494D01*
X88614815Y-120681185D01*
X88711506Y-120760537D01*
X88821820Y-120819502D01*
X88941518Y-120855812D01*
X89066000Y-120868072D01*
X89630250Y-120865000D01*
X89789000Y-120706250D01*
X89789000Y-119507000D01*
X90043000Y-119507000D01*
X90043000Y-120706250D01*
X90201750Y-120865000D01*
X90766000Y-120868072D01*
X90890482Y-120855812D01*
X91010180Y-120819502D01*
X91120494Y-120760537D01*
X91217185Y-120681185D01*
X91296537Y-120584494D01*
X91355502Y-120474180D01*
X91391812Y-120354482D01*
X91404072Y-120230000D01*
X91401000Y-119665750D01*
X91242250Y-119507000D01*
X90043000Y-119507000D01*
X89789000Y-119507000D01*
X88589750Y-119507000D01*
X88431000Y-119665750D01*
X88427928Y-120230000D01*
X86209143Y-120230000D01*
X86209000Y-120173750D01*
X86050250Y-120015000D01*
X84201000Y-120015000D01*
X83947000Y-120015000D01*
X82097750Y-120015000D01*
X81939000Y-120173750D01*
X81935928Y-121388000D01*
X80660000Y-121388000D01*
X80660000Y-118388000D01*
X81935928Y-118388000D01*
X81939000Y-119602250D01*
X82097750Y-119761000D01*
X83947000Y-119761000D01*
X83947000Y-117911750D01*
X84201000Y-117911750D01*
X84201000Y-119761000D01*
X86050250Y-119761000D01*
X86209000Y-119602250D01*
X86211712Y-118530000D01*
X88427928Y-118530000D01*
X88431000Y-119094250D01*
X88589750Y-119253000D01*
X89789000Y-119253000D01*
X89789000Y-119233000D01*
X90043000Y-119233000D01*
X90043000Y-119253000D01*
X91242250Y-119253000D01*
X91401000Y-119094250D01*
X91404072Y-118530000D01*
X91391812Y-118405518D01*
X91355502Y-118285820D01*
X91296537Y-118175506D01*
X91217185Y-118078815D01*
X91120494Y-117999463D01*
X91010180Y-117940498D01*
X90937620Y-117918487D01*
X91069475Y-117786632D01*
X91231990Y-117543411D01*
X91343932Y-117273158D01*
X91401000Y-116986260D01*
X91401000Y-116693740D01*
X91343932Y-116406842D01*
X91231990Y-116136589D01*
X91069475Y-115893368D01*
X90862632Y-115686525D01*
X90701000Y-115578526D01*
X90701000Y-115561474D01*
X90862632Y-115453475D01*
X91069475Y-115246632D01*
X91231990Y-115003411D01*
X91343932Y-114733158D01*
X91401000Y-114446260D01*
X91401000Y-114153740D01*
X91343932Y-113866842D01*
X91231990Y-113596589D01*
X91069475Y-113353368D01*
X90862632Y-113146525D01*
X90688240Y-113030000D01*
X90862632Y-112913475D01*
X91069475Y-112706632D01*
X91231990Y-112463411D01*
X91343932Y-112193158D01*
X91401000Y-111906260D01*
X91401000Y-111613740D01*
X91343932Y-111326842D01*
X91231990Y-111056589D01*
X91069475Y-110813368D01*
X90862632Y-110606525D01*
X90619411Y-110444010D01*
X90349158Y-110332068D01*
X90062260Y-110275000D01*
X89769740Y-110275000D01*
X89482842Y-110332068D01*
X89212589Y-110444010D01*
X88969368Y-110606525D01*
X88762525Y-110813368D01*
X88600010Y-111056589D01*
X88488068Y-111326842D01*
X88431000Y-111613740D01*
X88431000Y-111906260D01*
X88488068Y-112193158D01*
X88600010Y-112463411D01*
X88762525Y-112706632D01*
X88969368Y-112913475D01*
X89143760Y-113030000D01*
X88969368Y-113146525D01*
X88762525Y-113353368D01*
X88600010Y-113596589D01*
X88488068Y-113866842D01*
X88431000Y-114153740D01*
X88431000Y-114446260D01*
X88488068Y-114733158D01*
X88600010Y-115003411D01*
X88762525Y-115246632D01*
X88969368Y-115453475D01*
X89131000Y-115561474D01*
X89131001Y-115578526D01*
X88969368Y-115686525D01*
X88762525Y-115893368D01*
X88600010Y-116136589D01*
X88488068Y-116406842D01*
X88431000Y-116693740D01*
X88431000Y-116986260D01*
X88488068Y-117273158D01*
X88600010Y-117543411D01*
X88762525Y-117786632D01*
X88894380Y-117918487D01*
X88821820Y-117940498D01*
X88711506Y-117999463D01*
X88614815Y-118078815D01*
X88535463Y-118175506D01*
X88476498Y-118285820D01*
X88440188Y-118405518D01*
X88427928Y-118530000D01*
X86211712Y-118530000D01*
X86212072Y-118388000D01*
X86199812Y-118263518D01*
X86163502Y-118143820D01*
X86104537Y-118033506D01*
X86025185Y-117936815D01*
X85928494Y-117857463D01*
X85818180Y-117798498D01*
X85698482Y-117762188D01*
X85574000Y-117749928D01*
X84359750Y-117753000D01*
X84201000Y-117911750D01*
X83947000Y-117911750D01*
X83788250Y-117753000D01*
X82574000Y-117749928D01*
X82449518Y-117762188D01*
X82329820Y-117798498D01*
X82219506Y-117857463D01*
X82122815Y-117936815D01*
X82043463Y-118033506D01*
X81984498Y-118143820D01*
X81948188Y-118263518D01*
X81935928Y-118388000D01*
X80660000Y-118388000D01*
X80660000Y-114597721D01*
X81939000Y-114597721D01*
X81939000Y-115018279D01*
X82021047Y-115430756D01*
X82181988Y-115819302D01*
X82415637Y-116168983D01*
X82713017Y-116466363D01*
X83062698Y-116700012D01*
X83451244Y-116860953D01*
X83863721Y-116943000D01*
X84284279Y-116943000D01*
X84696756Y-116860953D01*
X85085302Y-116700012D01*
X85434983Y-116466363D01*
X85732363Y-116168983D01*
X85966012Y-115819302D01*
X86126953Y-115430756D01*
X86209000Y-115018279D01*
X86209000Y-114597721D01*
X86126953Y-114185244D01*
X85966012Y-113796698D01*
X85732363Y-113447017D01*
X85434983Y-113149637D01*
X85085302Y-112915988D01*
X84696756Y-112755047D01*
X84284279Y-112673000D01*
X83863721Y-112673000D01*
X83451244Y-112755047D01*
X83062698Y-112915988D01*
X82713017Y-113149637D01*
X82415637Y-113447017D01*
X82181988Y-113796698D01*
X82021047Y-114185244D01*
X81939000Y-114597721D01*
X80660000Y-114597721D01*
X80660000Y-107974000D01*
X81935928Y-107974000D01*
X81935928Y-110974000D01*
X81948188Y-111098482D01*
X81984498Y-111218180D01*
X82043463Y-111328494D01*
X82122815Y-111425185D01*
X82219506Y-111504537D01*
X82329820Y-111563502D01*
X82449518Y-111599812D01*
X82574000Y-111612072D01*
X85574000Y-111612072D01*
X85698482Y-111599812D01*
X85818180Y-111563502D01*
X85928494Y-111504537D01*
X86025185Y-111425185D01*
X86104537Y-111328494D01*
X86163502Y-111218180D01*
X86199812Y-111098482D01*
X86212072Y-110974000D01*
X86212072Y-107974000D01*
X86199812Y-107849518D01*
X86163502Y-107729820D01*
X86104537Y-107619506D01*
X86025185Y-107522815D01*
X85928494Y-107443463D01*
X85818180Y-107384498D01*
X85698482Y-107348188D01*
X85574000Y-107335928D01*
X82574000Y-107335928D01*
X82449518Y-107348188D01*
X82329820Y-107384498D01*
X82219506Y-107443463D01*
X82122815Y-107522815D01*
X82043463Y-107619506D01*
X81984498Y-107729820D01*
X81948188Y-107849518D01*
X81935928Y-107974000D01*
X80660000Y-107974000D01*
X80660000Y-104183721D01*
X81939000Y-104183721D01*
X81939000Y-104604279D01*
X82021047Y-105016756D01*
X82181988Y-105405302D01*
X82415637Y-105754983D01*
X82713017Y-106052363D01*
X83062698Y-106286012D01*
X83451244Y-106446953D01*
X83863721Y-106529000D01*
X84284279Y-106529000D01*
X84696756Y-106446953D01*
X85085302Y-106286012D01*
X85434983Y-106052363D01*
X85732363Y-105754983D01*
X85966012Y-105405302D01*
X86126953Y-105016756D01*
X86209000Y-104604279D01*
X86209000Y-104183721D01*
X86126953Y-103771244D01*
X85966012Y-103382698D01*
X85732363Y-103033017D01*
X85434983Y-102735637D01*
X85085302Y-102501988D01*
X84696756Y-102341047D01*
X84284279Y-102259000D01*
X83863721Y-102259000D01*
X83451244Y-102341047D01*
X83062698Y-102501988D01*
X82713017Y-102735637D01*
X82415637Y-103033017D01*
X82181988Y-103382698D01*
X82021047Y-103771244D01*
X81939000Y-104183721D01*
X80660000Y-104183721D01*
X80660000Y-98363736D01*
X80877957Y-98509371D01*
X81130011Y-98613775D01*
X81397589Y-98667000D01*
X81670411Y-98667000D01*
X81937989Y-98613775D01*
X82190043Y-98509371D01*
X82416886Y-98357799D01*
X82609799Y-98164886D01*
X82706000Y-98020911D01*
X82706000Y-98509761D01*
G37*
%TD.AperFunction*%
D29*
X100711000Y-121031000D02*
X100731000Y-121031000D01*
X100731000Y-121285000D01*
X100711000Y-121285000D01*
X100711000Y-121305000D01*
X100457000Y-121305000D01*
X100457000Y-121285000D01*
X100437000Y-121285000D01*
X100437000Y-121031000D01*
X100457000Y-121031000D01*
X100457000Y-121011000D01*
X100711000Y-121011000D01*
X100711000Y-121031000D01*
%TA.AperFunction,Conductor*%
D30*
G36*
X100711000Y-121031000D02*
G01*
X100731000Y-121031000D01*
X100731000Y-121285000D01*
X100711000Y-121285000D01*
X100711000Y-121305000D01*
X100457000Y-121305000D01*
X100457000Y-121285000D01*
X100437000Y-121285000D01*
X100437000Y-121031000D01*
X100457000Y-121031000D01*
X100457000Y-121011000D01*
X100711000Y-121011000D01*
X100711000Y-121031000D01*
G37*
%TD.AperFunction*%
D29*
X96644015Y-112084239D02*
X96670946Y-112117054D01*
X96801898Y-112224524D01*
X96951300Y-112304381D01*
X97061367Y-112337769D01*
X97113410Y-112353556D01*
X97130558Y-112355245D01*
X97239754Y-112366000D01*
X97239760Y-112366000D01*
X97281999Y-112370160D01*
X97324238Y-112366000D01*
X100481777Y-112366000D01*
X100740001Y-112624225D01*
X100740000Y-117559761D01*
X100735840Y-117602000D01*
X100740000Y-117644239D01*
X100740000Y-117644245D01*
X100743784Y-117682660D01*
X100751992Y-117766000D01*
X100689498Y-117766000D01*
X100689498Y-117924748D01*
X100530750Y-117766000D01*
X100229000Y-117762928D01*
X100203000Y-117765489D01*
X100177000Y-117762928D01*
X99875250Y-117766000D01*
X99716500Y-117924750D01*
X99716500Y-118024528D01*
X99698463Y-118046506D01*
X99639498Y-118156820D01*
X99603188Y-118276518D01*
X99590928Y-118401000D01*
X99594000Y-118840250D01*
X99716500Y-118962750D01*
X99716500Y-118999000D01*
X100689500Y-118999000D01*
X100689500Y-118979000D01*
X100943500Y-118979000D01*
X100943500Y-118999000D01*
X100963500Y-118999000D01*
X100963500Y-119253000D01*
X100943500Y-119253000D01*
X100943500Y-119273000D01*
X100689500Y-119273000D01*
X100689500Y-119253000D01*
X99716500Y-119253000D01*
X99716500Y-119273000D01*
X99462500Y-119273000D01*
X99462500Y-119253000D01*
X99442500Y-119253000D01*
X99442500Y-118999000D01*
X99462500Y-118999000D01*
X99462500Y-117924750D01*
X99303750Y-117766000D01*
X99002000Y-117762928D01*
X98877518Y-117775188D01*
X98757820Y-117811498D01*
X98647506Y-117870463D01*
X98550815Y-117949815D01*
X98485342Y-118029594D01*
X98479962Y-118023038D01*
X98374500Y-117936488D01*
X98374500Y-116860739D01*
X98378660Y-116818500D01*
X98374500Y-116776261D01*
X98374500Y-116776254D01*
X98362056Y-116649911D01*
X98312881Y-116487800D01*
X98233024Y-116338398D01*
X98125554Y-116207446D01*
X98092736Y-116180513D01*
X97665988Y-115753765D01*
X97639054Y-115720946D01*
X97508102Y-115613476D01*
X97358700Y-115533619D01*
X97242072Y-115498241D01*
X97242072Y-115232000D01*
X97229812Y-115107518D01*
X97193502Y-114987820D01*
X97134537Y-114877506D01*
X97055185Y-114780815D01*
X96958494Y-114701463D01*
X96848180Y-114642498D01*
X96728482Y-114606188D01*
X96604000Y-114593928D01*
X96364000Y-114593928D01*
X96364000Y-114494896D01*
X96372537Y-114484494D01*
X96431502Y-114374180D01*
X96467812Y-114254482D01*
X96480072Y-114130000D01*
X96480072Y-111930000D01*
X96479012Y-111919236D01*
X96644015Y-112084239D01*
%TA.AperFunction,Conductor*%
D30*
G36*
X96644015Y-112084239D02*
G01*
X96670946Y-112117054D01*
X96801898Y-112224524D01*
X96951300Y-112304381D01*
X97061367Y-112337769D01*
X97113410Y-112353556D01*
X97130558Y-112355245D01*
X97239754Y-112366000D01*
X97239760Y-112366000D01*
X97281999Y-112370160D01*
X97324238Y-112366000D01*
X100481777Y-112366000D01*
X100740001Y-112624225D01*
X100740000Y-117559761D01*
X100735840Y-117602000D01*
X100740000Y-117644239D01*
X100740000Y-117644245D01*
X100743784Y-117682660D01*
X100751992Y-117766000D01*
X100689498Y-117766000D01*
X100689498Y-117924748D01*
X100530750Y-117766000D01*
X100229000Y-117762928D01*
X100203000Y-117765489D01*
X100177000Y-117762928D01*
X99875250Y-117766000D01*
X99716500Y-117924750D01*
X99716500Y-118024528D01*
X99698463Y-118046506D01*
X99639498Y-118156820D01*
X99603188Y-118276518D01*
X99590928Y-118401000D01*
X99594000Y-118840250D01*
X99716500Y-118962750D01*
X99716500Y-118999000D01*
X100689500Y-118999000D01*
X100689500Y-118979000D01*
X100943500Y-118979000D01*
X100943500Y-118999000D01*
X100963500Y-118999000D01*
X100963500Y-119253000D01*
X100943500Y-119253000D01*
X100943500Y-119273000D01*
X100689500Y-119273000D01*
X100689500Y-119253000D01*
X99716500Y-119253000D01*
X99716500Y-119273000D01*
X99462500Y-119273000D01*
X99462500Y-119253000D01*
X99442500Y-119253000D01*
X99442500Y-118999000D01*
X99462500Y-118999000D01*
X99462500Y-117924750D01*
X99303750Y-117766000D01*
X99002000Y-117762928D01*
X98877518Y-117775188D01*
X98757820Y-117811498D01*
X98647506Y-117870463D01*
X98550815Y-117949815D01*
X98485342Y-118029594D01*
X98479962Y-118023038D01*
X98374500Y-117936488D01*
X98374500Y-116860739D01*
X98378660Y-116818500D01*
X98374500Y-116776261D01*
X98374500Y-116776254D01*
X98362056Y-116649911D01*
X98312881Y-116487800D01*
X98233024Y-116338398D01*
X98125554Y-116207446D01*
X98092736Y-116180513D01*
X97665988Y-115753765D01*
X97639054Y-115720946D01*
X97508102Y-115613476D01*
X97358700Y-115533619D01*
X97242072Y-115498241D01*
X97242072Y-115232000D01*
X97229812Y-115107518D01*
X97193502Y-114987820D01*
X97134537Y-114877506D01*
X97055185Y-114780815D01*
X96958494Y-114701463D01*
X96848180Y-114642498D01*
X96728482Y-114606188D01*
X96604000Y-114593928D01*
X96364000Y-114593928D01*
X96364000Y-114494896D01*
X96372537Y-114484494D01*
X96431502Y-114374180D01*
X96467812Y-114254482D01*
X96480072Y-114130000D01*
X96480072Y-111930000D01*
X96479012Y-111919236D01*
X96644015Y-112084239D01*
G37*
%TD.AperFunction*%
D29*
X102153818Y-88435808D02*
X102287068Y-88685101D01*
X102466392Y-88903608D01*
X102684899Y-89082932D01*
X102817858Y-89154000D01*
X102684899Y-89225068D01*
X102466392Y-89404392D01*
X102287068Y-89622899D01*
X102153818Y-89872192D01*
X102071764Y-90142691D01*
X102044057Y-90424000D01*
X102071764Y-90705309D01*
X102153818Y-90975808D01*
X102287068Y-91225101D01*
X102466392Y-91443608D01*
X102684899Y-91622932D01*
X102817858Y-91694000D01*
X102684899Y-91765068D01*
X102466392Y-91944392D01*
X102287068Y-92162899D01*
X102153818Y-92412192D01*
X102071764Y-92682691D01*
X102044057Y-92964000D01*
X102071764Y-93245309D01*
X102153818Y-93515808D01*
X102287068Y-93765101D01*
X102466392Y-93983608D01*
X102684899Y-94162932D01*
X102817858Y-94234000D01*
X102684899Y-94305068D01*
X102466392Y-94484392D01*
X102287068Y-94702899D01*
X102153818Y-94952192D01*
X102071764Y-95222691D01*
X102044057Y-95504000D01*
X102071764Y-95785309D01*
X102153818Y-96055808D01*
X102287068Y-96305101D01*
X102466392Y-96523608D01*
X102684899Y-96702932D01*
X102812741Y-96771265D01*
X102583161Y-96921399D01*
X102381500Y-97119105D01*
X102222285Y-97352354D01*
X102111633Y-97612182D01*
X102094096Y-97694961D01*
X102216085Y-97917000D01*
X103759000Y-97917000D01*
X103759000Y-97897000D01*
X104013000Y-97897000D01*
X104013000Y-97917000D01*
X105555915Y-97917000D01*
X105677904Y-97694961D01*
X105660367Y-97612182D01*
X105549715Y-97352354D01*
X105390500Y-97119105D01*
X105188839Y-96921399D01*
X104959259Y-96771265D01*
X105087101Y-96702932D01*
X105305608Y-96523608D01*
X105484932Y-96305101D01*
X105618182Y-96055808D01*
X105658645Y-95922418D01*
X105678463Y-95959494D01*
X105757815Y-96056185D01*
X105854506Y-96135537D01*
X105964820Y-96194502D01*
X106084518Y-96230812D01*
X106209000Y-96243072D01*
X106648250Y-96240000D01*
X106807000Y-96081250D01*
X106807000Y-95144500D01*
X106787000Y-95144500D01*
X106787000Y-94890500D01*
X106807000Y-94890500D01*
X106807000Y-94870500D01*
X107061000Y-94870500D01*
X107061000Y-94890500D01*
X107081000Y-94890500D01*
X107081000Y-95144500D01*
X107061000Y-95144500D01*
X107061000Y-96081250D01*
X107219750Y-96240000D01*
X107659000Y-96243072D01*
X107673000Y-96241693D01*
X107673000Y-97972843D01*
X107481196Y-98164647D01*
X107451247Y-98189226D01*
X107426669Y-98219174D01*
X107426665Y-98219178D01*
X107393700Y-98259346D01*
X107353149Y-98308757D01*
X107326936Y-98357799D01*
X107280256Y-98445131D01*
X107235369Y-98593104D01*
X107220213Y-98746990D01*
X107224011Y-98785553D01*
X107224010Y-101977832D01*
X105658305Y-103543537D01*
X105700236Y-103405309D01*
X105727943Y-103124000D01*
X105700236Y-102842691D01*
X105618182Y-102572192D01*
X105484932Y-102322899D01*
X105305608Y-102104392D01*
X105087101Y-101925068D01*
X104954142Y-101854000D01*
X105087101Y-101782932D01*
X105305608Y-101603608D01*
X105484932Y-101385101D01*
X105618182Y-101135808D01*
X105700236Y-100865309D01*
X105727943Y-100584000D01*
X105700236Y-100302691D01*
X105618182Y-100032192D01*
X105484932Y-99782899D01*
X105305608Y-99564392D01*
X105087101Y-99385068D01*
X104959259Y-99316735D01*
X105188839Y-99166601D01*
X105390500Y-98968895D01*
X105549715Y-98735646D01*
X105660367Y-98475818D01*
X105677904Y-98393039D01*
X105555915Y-98171000D01*
X104013000Y-98171000D01*
X104013000Y-98191000D01*
X103759000Y-98191000D01*
X103759000Y-98171000D01*
X102216085Y-98171000D01*
X102094096Y-98393039D01*
X102111633Y-98475818D01*
X102222285Y-98735646D01*
X102381500Y-98968895D01*
X102583161Y-99166601D01*
X102812741Y-99316735D01*
X102684899Y-99385068D01*
X102466392Y-99564392D01*
X102287068Y-99782899D01*
X102278462Y-99799000D01*
X101163158Y-99799000D01*
X100676033Y-99311875D01*
X100699000Y-99196411D01*
X100699000Y-98923589D01*
X100645775Y-98656011D01*
X100541371Y-98403957D01*
X100389799Y-98177114D01*
X100196886Y-97984201D01*
X100099000Y-97918796D01*
X100099000Y-97607157D01*
X101111817Y-96594341D01*
X101141764Y-96569764D01*
X101239862Y-96450233D01*
X101312754Y-96313860D01*
X101353225Y-96180444D01*
X101357641Y-96165888D01*
X101365977Y-96081250D01*
X101369000Y-96050561D01*
X101369000Y-96050554D01*
X101372797Y-96012001D01*
X101369000Y-95973448D01*
X101369000Y-95435339D01*
X101498759Y-95348637D01*
X101698637Y-95148759D01*
X101855680Y-94913727D01*
X101963853Y-94652574D01*
X102019000Y-94375335D01*
X102019000Y-94092665D01*
X101963853Y-93815426D01*
X101855680Y-93554273D01*
X101698637Y-93319241D01*
X101498759Y-93119363D01*
X101298131Y-92985308D01*
X101325514Y-92970671D01*
X101397097Y-92726702D01*
X100584000Y-91913605D01*
X99770903Y-92726702D01*
X99842486Y-92970671D01*
X99871341Y-92984324D01*
X99669241Y-93119363D01*
X99469363Y-93319241D01*
X99312320Y-93554273D01*
X99204147Y-93815426D01*
X99149000Y-94092665D01*
X99149000Y-94375335D01*
X99204147Y-94652574D01*
X99312320Y-94913727D01*
X99469363Y-95148759D01*
X99669241Y-95348637D01*
X99799000Y-95435339D01*
X99799000Y-95686842D01*
X98786185Y-96699658D01*
X98756237Y-96724236D01*
X98731659Y-96754184D01*
X98731655Y-96754188D01*
X98721277Y-96766834D01*
X98658139Y-96843767D01*
X98619177Y-96916660D01*
X98585246Y-96980141D01*
X98540359Y-97128114D01*
X98525203Y-97282000D01*
X98529001Y-97320562D01*
X98529001Y-97918795D01*
X98431114Y-97984201D01*
X98321000Y-98094315D01*
X98321000Y-95435339D01*
X98450759Y-95348637D01*
X98650637Y-95148759D01*
X98807680Y-94913727D01*
X98915853Y-94652574D01*
X98971000Y-94375335D01*
X98971000Y-94092665D01*
X98915853Y-93815426D01*
X98807680Y-93554273D01*
X98650637Y-93319241D01*
X98450759Y-93119363D01*
X98250131Y-92985308D01*
X98277514Y-92970671D01*
X98349097Y-92726702D01*
X97536000Y-91913605D01*
X96722903Y-92726702D01*
X96794486Y-92970671D01*
X96823341Y-92984324D01*
X96621241Y-93119363D01*
X96421363Y-93319241D01*
X96264320Y-93554273D01*
X96156147Y-93815426D01*
X96101000Y-94092665D01*
X96101000Y-94375335D01*
X96156147Y-94652574D01*
X96264320Y-94913727D01*
X96421363Y-95148759D01*
X96621241Y-95348637D01*
X96751000Y-95435339D01*
X96751001Y-102143437D01*
X96747203Y-102182000D01*
X96762359Y-102335886D01*
X96807246Y-102483859D01*
X96823271Y-102513839D01*
X96880139Y-102620233D01*
X96920690Y-102669644D01*
X96953655Y-102709812D01*
X96953659Y-102709816D01*
X96978237Y-102739764D01*
X97008185Y-102764342D01*
X97951968Y-103708125D01*
X97929000Y-103823589D01*
X97929000Y-104096411D01*
X97982225Y-104363989D01*
X98086629Y-104616043D01*
X98238201Y-104842886D01*
X98431114Y-105035799D01*
X98657957Y-105187371D01*
X98910011Y-105291775D01*
X99177589Y-105345000D01*
X99450411Y-105345000D01*
X99717989Y-105291775D01*
X99970043Y-105187371D01*
X100196886Y-105035799D01*
X100389799Y-104842886D01*
X100455204Y-104745000D01*
X101233447Y-104745000D01*
X101272000Y-104748797D01*
X101310553Y-104745000D01*
X101310561Y-104745000D01*
X101425887Y-104733641D01*
X101573860Y-104688754D01*
X101710233Y-104615862D01*
X101829764Y-104517764D01*
X101854347Y-104487810D01*
X102345661Y-103996496D01*
X102466392Y-104143608D01*
X102684899Y-104322932D01*
X102817858Y-104394000D01*
X102684899Y-104465068D01*
X102466392Y-104644392D01*
X102287068Y-104862899D01*
X102153818Y-105112192D01*
X102071764Y-105382691D01*
X102044057Y-105664000D01*
X102071764Y-105945309D01*
X102153818Y-106215808D01*
X102287068Y-106465101D01*
X102466392Y-106683608D01*
X102684899Y-106862932D01*
X102817858Y-106934000D01*
X102684899Y-107005068D01*
X102466392Y-107184392D01*
X102287068Y-107402899D01*
X102153818Y-107652192D01*
X102071764Y-107922691D01*
X102044057Y-108204000D01*
X102071764Y-108485309D01*
X102153818Y-108755808D01*
X102287068Y-109005101D01*
X102466392Y-109223608D01*
X102684899Y-109402932D01*
X102817858Y-109474000D01*
X102684899Y-109545068D01*
X102466392Y-109724392D01*
X102287068Y-109942899D01*
X102153818Y-110192192D01*
X102071764Y-110462691D01*
X102044057Y-110744000D01*
X102071764Y-111025309D01*
X102153818Y-111295808D01*
X102287068Y-111545101D01*
X102466392Y-111763608D01*
X102684899Y-111942932D01*
X102817858Y-112014000D01*
X102684899Y-112085068D01*
X102466392Y-112264392D01*
X102464083Y-112267206D01*
X102447556Y-112099410D01*
X102398381Y-111937299D01*
X102357124Y-111860114D01*
X102318524Y-111787898D01*
X102211054Y-111656946D01*
X102178240Y-111630016D01*
X101475988Y-110927764D01*
X101449054Y-110894946D01*
X101318102Y-110787476D01*
X101168700Y-110707619D01*
X101006589Y-110658444D01*
X100880246Y-110646000D01*
X100880239Y-110646000D01*
X100838000Y-110641840D01*
X100795761Y-110646000D01*
X97638224Y-110646000D01*
X89691341Y-102699117D01*
X93007000Y-102699117D01*
X93007000Y-103040883D01*
X93073675Y-103376081D01*
X93204463Y-103691831D01*
X93394337Y-103975998D01*
X93636002Y-104217663D01*
X93920169Y-104407537D01*
X94235919Y-104538325D01*
X94571117Y-104605000D01*
X94912883Y-104605000D01*
X95248081Y-104538325D01*
X95563831Y-104407537D01*
X95847998Y-104217663D01*
X96089663Y-103975998D01*
X96279537Y-103691831D01*
X96410325Y-103376081D01*
X96477000Y-103040883D01*
X96477000Y-102699117D01*
X96410325Y-102363919D01*
X96279537Y-102048169D01*
X96089663Y-101764002D01*
X95847998Y-101522337D01*
X95563831Y-101332463D01*
X95248081Y-101201675D01*
X94912883Y-101135000D01*
X94571117Y-101135000D01*
X94235919Y-101201675D01*
X93920169Y-101332463D01*
X93636002Y-101522337D01*
X93394337Y-101764002D01*
X93204463Y-102048169D01*
X93073675Y-102363919D01*
X93007000Y-102699117D01*
X89691341Y-102699117D01*
X89537988Y-102545765D01*
X89511054Y-102512946D01*
X89380102Y-102405476D01*
X89230700Y-102325619D01*
X89068589Y-102276444D01*
X88942246Y-102264000D01*
X88942239Y-102264000D01*
X88900000Y-102259840D01*
X88857761Y-102264000D01*
X88494223Y-102264000D01*
X87595223Y-101365000D01*
X87731939Y-101365000D01*
X87931898Y-101325226D01*
X88120256Y-101247205D01*
X88289774Y-101133937D01*
X88433937Y-100989774D01*
X88547205Y-100820256D01*
X88625226Y-100631898D01*
X88665000Y-100431939D01*
X88665000Y-100405157D01*
X89681816Y-99388342D01*
X89711764Y-99363764D01*
X89743052Y-99325641D01*
X89768198Y-99295000D01*
X89809862Y-99244233D01*
X89882754Y-99107860D01*
X89918579Y-98989760D01*
X89927641Y-98959888D01*
X89934371Y-98891556D01*
X89939000Y-98844561D01*
X89939000Y-98844554D01*
X89942797Y-98806001D01*
X89939000Y-98767448D01*
X89939000Y-96845157D01*
X91006345Y-95777813D01*
X91006350Y-95777807D01*
X91768345Y-95015812D01*
X95575158Y-91209000D01*
X96196881Y-91209000D01*
X96178429Y-91247996D01*
X96109700Y-91522184D01*
X96095783Y-91804512D01*
X96137213Y-92084130D01*
X96232397Y-92350292D01*
X96299329Y-92475514D01*
X96543298Y-92547097D01*
X97356395Y-91734000D01*
X97342253Y-91719858D01*
X97521858Y-91540253D01*
X97536000Y-91554395D01*
X97550143Y-91540253D01*
X97729748Y-91719858D01*
X97715605Y-91734000D01*
X98528702Y-92547097D01*
X98772671Y-92475514D01*
X98893571Y-92220004D01*
X98962300Y-91945816D01*
X98969265Y-91804512D01*
X99143783Y-91804512D01*
X99185213Y-92084130D01*
X99280397Y-92350292D01*
X99347329Y-92475514D01*
X99591298Y-92547097D01*
X100404395Y-91734000D01*
X100763605Y-91734000D01*
X101576702Y-92547097D01*
X101820671Y-92475514D01*
X101941571Y-92220004D01*
X102010300Y-91945816D01*
X102024217Y-91663488D01*
X101982787Y-91383870D01*
X101887603Y-91117708D01*
X101820671Y-90992486D01*
X101576702Y-90920903D01*
X100763605Y-91734000D01*
X100404395Y-91734000D01*
X99591298Y-90920903D01*
X99347329Y-90992486D01*
X99226429Y-91247996D01*
X99157700Y-91522184D01*
X99143783Y-91804512D01*
X98969265Y-91804512D01*
X98976217Y-91663488D01*
X98934787Y-91383870D01*
X98839603Y-91117708D01*
X98772671Y-90992486D01*
X98628092Y-90950065D01*
X98836859Y-90741298D01*
X99770903Y-90741298D01*
X100584000Y-91554395D01*
X101397097Y-90741298D01*
X101325514Y-90497329D01*
X101070004Y-90376429D01*
X100795816Y-90307700D01*
X100513488Y-90293783D01*
X100233870Y-90335213D01*
X99967708Y-90430397D01*
X99842486Y-90497329D01*
X99770903Y-90741298D01*
X98836859Y-90741298D01*
X99134345Y-90443812D01*
X100206086Y-89372072D01*
X101434000Y-89372072D01*
X101558482Y-89359812D01*
X101678180Y-89323502D01*
X101788494Y-89264537D01*
X101885185Y-89185185D01*
X101964537Y-89088494D01*
X102023502Y-88978180D01*
X102059812Y-88858482D01*
X102072072Y-88734000D01*
X102072072Y-88166324D01*
X102153818Y-88435808D01*
%TA.AperFunction,Conductor*%
D30*
G36*
X102153818Y-88435808D02*
G01*
X102287068Y-88685101D01*
X102466392Y-88903608D01*
X102684899Y-89082932D01*
X102817858Y-89154000D01*
X102684899Y-89225068D01*
X102466392Y-89404392D01*
X102287068Y-89622899D01*
X102153818Y-89872192D01*
X102071764Y-90142691D01*
X102044057Y-90424000D01*
X102071764Y-90705309D01*
X102153818Y-90975808D01*
X102287068Y-91225101D01*
X102466392Y-91443608D01*
X102684899Y-91622932D01*
X102817858Y-91694000D01*
X102684899Y-91765068D01*
X102466392Y-91944392D01*
X102287068Y-92162899D01*
X102153818Y-92412192D01*
X102071764Y-92682691D01*
X102044057Y-92964000D01*
X102071764Y-93245309D01*
X102153818Y-93515808D01*
X102287068Y-93765101D01*
X102466392Y-93983608D01*
X102684899Y-94162932D01*
X102817858Y-94234000D01*
X102684899Y-94305068D01*
X102466392Y-94484392D01*
X102287068Y-94702899D01*
X102153818Y-94952192D01*
X102071764Y-95222691D01*
X102044057Y-95504000D01*
X102071764Y-95785309D01*
X102153818Y-96055808D01*
X102287068Y-96305101D01*
X102466392Y-96523608D01*
X102684899Y-96702932D01*
X102812741Y-96771265D01*
X102583161Y-96921399D01*
X102381500Y-97119105D01*
X102222285Y-97352354D01*
X102111633Y-97612182D01*
X102094096Y-97694961D01*
X102216085Y-97917000D01*
X103759000Y-97917000D01*
X103759000Y-97897000D01*
X104013000Y-97897000D01*
X104013000Y-97917000D01*
X105555915Y-97917000D01*
X105677904Y-97694961D01*
X105660367Y-97612182D01*
X105549715Y-97352354D01*
X105390500Y-97119105D01*
X105188839Y-96921399D01*
X104959259Y-96771265D01*
X105087101Y-96702932D01*
X105305608Y-96523608D01*
X105484932Y-96305101D01*
X105618182Y-96055808D01*
X105658645Y-95922418D01*
X105678463Y-95959494D01*
X105757815Y-96056185D01*
X105854506Y-96135537D01*
X105964820Y-96194502D01*
X106084518Y-96230812D01*
X106209000Y-96243072D01*
X106648250Y-96240000D01*
X106807000Y-96081250D01*
X106807000Y-95144500D01*
X106787000Y-95144500D01*
X106787000Y-94890500D01*
X106807000Y-94890500D01*
X106807000Y-94870500D01*
X107061000Y-94870500D01*
X107061000Y-94890500D01*
X107081000Y-94890500D01*
X107081000Y-95144500D01*
X107061000Y-95144500D01*
X107061000Y-96081250D01*
X107219750Y-96240000D01*
X107659000Y-96243072D01*
X107673000Y-96241693D01*
X107673000Y-97972843D01*
X107481196Y-98164647D01*
X107451247Y-98189226D01*
X107426669Y-98219174D01*
X107426665Y-98219178D01*
X107393700Y-98259346D01*
X107353149Y-98308757D01*
X107326936Y-98357799D01*
X107280256Y-98445131D01*
X107235369Y-98593104D01*
X107220213Y-98746990D01*
X107224011Y-98785553D01*
X107224010Y-101977832D01*
X105658305Y-103543537D01*
X105700236Y-103405309D01*
X105727943Y-103124000D01*
X105700236Y-102842691D01*
X105618182Y-102572192D01*
X105484932Y-102322899D01*
X105305608Y-102104392D01*
X105087101Y-101925068D01*
X104954142Y-101854000D01*
X105087101Y-101782932D01*
X105305608Y-101603608D01*
X105484932Y-101385101D01*
X105618182Y-101135808D01*
X105700236Y-100865309D01*
X105727943Y-100584000D01*
X105700236Y-100302691D01*
X105618182Y-100032192D01*
X105484932Y-99782899D01*
X105305608Y-99564392D01*
X105087101Y-99385068D01*
X104959259Y-99316735D01*
X105188839Y-99166601D01*
X105390500Y-98968895D01*
X105549715Y-98735646D01*
X105660367Y-98475818D01*
X105677904Y-98393039D01*
X105555915Y-98171000D01*
X104013000Y-98171000D01*
X104013000Y-98191000D01*
X103759000Y-98191000D01*
X103759000Y-98171000D01*
X102216085Y-98171000D01*
X102094096Y-98393039D01*
X102111633Y-98475818D01*
X102222285Y-98735646D01*
X102381500Y-98968895D01*
X102583161Y-99166601D01*
X102812741Y-99316735D01*
X102684899Y-99385068D01*
X102466392Y-99564392D01*
X102287068Y-99782899D01*
X102278462Y-99799000D01*
X101163158Y-99799000D01*
X100676033Y-99311875D01*
X100699000Y-99196411D01*
X100699000Y-98923589D01*
X100645775Y-98656011D01*
X100541371Y-98403957D01*
X100389799Y-98177114D01*
X100196886Y-97984201D01*
X100099000Y-97918796D01*
X100099000Y-97607157D01*
X101111817Y-96594341D01*
X101141764Y-96569764D01*
X101239862Y-96450233D01*
X101312754Y-96313860D01*
X101353225Y-96180444D01*
X101357641Y-96165888D01*
X101365977Y-96081250D01*
X101369000Y-96050561D01*
X101369000Y-96050554D01*
X101372797Y-96012001D01*
X101369000Y-95973448D01*
X101369000Y-95435339D01*
X101498759Y-95348637D01*
X101698637Y-95148759D01*
X101855680Y-94913727D01*
X101963853Y-94652574D01*
X102019000Y-94375335D01*
X102019000Y-94092665D01*
X101963853Y-93815426D01*
X101855680Y-93554273D01*
X101698637Y-93319241D01*
X101498759Y-93119363D01*
X101298131Y-92985308D01*
X101325514Y-92970671D01*
X101397097Y-92726702D01*
X100584000Y-91913605D01*
X99770903Y-92726702D01*
X99842486Y-92970671D01*
X99871341Y-92984324D01*
X99669241Y-93119363D01*
X99469363Y-93319241D01*
X99312320Y-93554273D01*
X99204147Y-93815426D01*
X99149000Y-94092665D01*
X99149000Y-94375335D01*
X99204147Y-94652574D01*
X99312320Y-94913727D01*
X99469363Y-95148759D01*
X99669241Y-95348637D01*
X99799000Y-95435339D01*
X99799000Y-95686842D01*
X98786185Y-96699658D01*
X98756237Y-96724236D01*
X98731659Y-96754184D01*
X98731655Y-96754188D01*
X98721277Y-96766834D01*
X98658139Y-96843767D01*
X98619177Y-96916660D01*
X98585246Y-96980141D01*
X98540359Y-97128114D01*
X98525203Y-97282000D01*
X98529001Y-97320562D01*
X98529001Y-97918795D01*
X98431114Y-97984201D01*
X98321000Y-98094315D01*
X98321000Y-95435339D01*
X98450759Y-95348637D01*
X98650637Y-95148759D01*
X98807680Y-94913727D01*
X98915853Y-94652574D01*
X98971000Y-94375335D01*
X98971000Y-94092665D01*
X98915853Y-93815426D01*
X98807680Y-93554273D01*
X98650637Y-93319241D01*
X98450759Y-93119363D01*
X98250131Y-92985308D01*
X98277514Y-92970671D01*
X98349097Y-92726702D01*
X97536000Y-91913605D01*
X96722903Y-92726702D01*
X96794486Y-92970671D01*
X96823341Y-92984324D01*
X96621241Y-93119363D01*
X96421363Y-93319241D01*
X96264320Y-93554273D01*
X96156147Y-93815426D01*
X96101000Y-94092665D01*
X96101000Y-94375335D01*
X96156147Y-94652574D01*
X96264320Y-94913727D01*
X96421363Y-95148759D01*
X96621241Y-95348637D01*
X96751000Y-95435339D01*
X96751001Y-102143437D01*
X96747203Y-102182000D01*
X96762359Y-102335886D01*
X96807246Y-102483859D01*
X96823271Y-102513839D01*
X96880139Y-102620233D01*
X96920690Y-102669644D01*
X96953655Y-102709812D01*
X96953659Y-102709816D01*
X96978237Y-102739764D01*
X97008185Y-102764342D01*
X97951968Y-103708125D01*
X97929000Y-103823589D01*
X97929000Y-104096411D01*
X97982225Y-104363989D01*
X98086629Y-104616043D01*
X98238201Y-104842886D01*
X98431114Y-105035799D01*
X98657957Y-105187371D01*
X98910011Y-105291775D01*
X99177589Y-105345000D01*
X99450411Y-105345000D01*
X99717989Y-105291775D01*
X99970043Y-105187371D01*
X100196886Y-105035799D01*
X100389799Y-104842886D01*
X100455204Y-104745000D01*
X101233447Y-104745000D01*
X101272000Y-104748797D01*
X101310553Y-104745000D01*
X101310561Y-104745000D01*
X101425887Y-104733641D01*
X101573860Y-104688754D01*
X101710233Y-104615862D01*
X101829764Y-104517764D01*
X101854347Y-104487810D01*
X102345661Y-103996496D01*
X102466392Y-104143608D01*
X102684899Y-104322932D01*
X102817858Y-104394000D01*
X102684899Y-104465068D01*
X102466392Y-104644392D01*
X102287068Y-104862899D01*
X102153818Y-105112192D01*
X102071764Y-105382691D01*
X102044057Y-105664000D01*
X102071764Y-105945309D01*
X102153818Y-106215808D01*
X102287068Y-106465101D01*
X102466392Y-106683608D01*
X102684899Y-106862932D01*
X102817858Y-106934000D01*
X102684899Y-107005068D01*
X102466392Y-107184392D01*
X102287068Y-107402899D01*
X102153818Y-107652192D01*
X102071764Y-107922691D01*
X102044057Y-108204000D01*
X102071764Y-108485309D01*
X102153818Y-108755808D01*
X102287068Y-109005101D01*
X102466392Y-109223608D01*
X102684899Y-109402932D01*
X102817858Y-109474000D01*
X102684899Y-109545068D01*
X102466392Y-109724392D01*
X102287068Y-109942899D01*
X102153818Y-110192192D01*
X102071764Y-110462691D01*
X102044057Y-110744000D01*
X102071764Y-111025309D01*
X102153818Y-111295808D01*
X102287068Y-111545101D01*
X102466392Y-111763608D01*
X102684899Y-111942932D01*
X102817858Y-112014000D01*
X102684899Y-112085068D01*
X102466392Y-112264392D01*
X102464083Y-112267206D01*
X102447556Y-112099410D01*
X102398381Y-111937299D01*
X102357124Y-111860114D01*
X102318524Y-111787898D01*
X102211054Y-111656946D01*
X102178240Y-111630016D01*
X101475988Y-110927764D01*
X101449054Y-110894946D01*
X101318102Y-110787476D01*
X101168700Y-110707619D01*
X101006589Y-110658444D01*
X100880246Y-110646000D01*
X100880239Y-110646000D01*
X100838000Y-110641840D01*
X100795761Y-110646000D01*
X97638224Y-110646000D01*
X89691341Y-102699117D01*
X93007000Y-102699117D01*
X93007000Y-103040883D01*
X93073675Y-103376081D01*
X93204463Y-103691831D01*
X93394337Y-103975998D01*
X93636002Y-104217663D01*
X93920169Y-104407537D01*
X94235919Y-104538325D01*
X94571117Y-104605000D01*
X94912883Y-104605000D01*
X95248081Y-104538325D01*
X95563831Y-104407537D01*
X95847998Y-104217663D01*
X96089663Y-103975998D01*
X96279537Y-103691831D01*
X96410325Y-103376081D01*
X96477000Y-103040883D01*
X96477000Y-102699117D01*
X96410325Y-102363919D01*
X96279537Y-102048169D01*
X96089663Y-101764002D01*
X95847998Y-101522337D01*
X95563831Y-101332463D01*
X95248081Y-101201675D01*
X94912883Y-101135000D01*
X94571117Y-101135000D01*
X94235919Y-101201675D01*
X93920169Y-101332463D01*
X93636002Y-101522337D01*
X93394337Y-101764002D01*
X93204463Y-102048169D01*
X93073675Y-102363919D01*
X93007000Y-102699117D01*
X89691341Y-102699117D01*
X89537988Y-102545765D01*
X89511054Y-102512946D01*
X89380102Y-102405476D01*
X89230700Y-102325619D01*
X89068589Y-102276444D01*
X88942246Y-102264000D01*
X88942239Y-102264000D01*
X88900000Y-102259840D01*
X88857761Y-102264000D01*
X88494223Y-102264000D01*
X87595223Y-101365000D01*
X87731939Y-101365000D01*
X87931898Y-101325226D01*
X88120256Y-101247205D01*
X88289774Y-101133937D01*
X88433937Y-100989774D01*
X88547205Y-100820256D01*
X88625226Y-100631898D01*
X88665000Y-100431939D01*
X88665000Y-100405157D01*
X89681816Y-99388342D01*
X89711764Y-99363764D01*
X89743052Y-99325641D01*
X89768198Y-99295000D01*
X89809862Y-99244233D01*
X89882754Y-99107860D01*
X89918579Y-98989760D01*
X89927641Y-98959888D01*
X89934371Y-98891556D01*
X89939000Y-98844561D01*
X89939000Y-98844554D01*
X89942797Y-98806001D01*
X89939000Y-98767448D01*
X89939000Y-96845157D01*
X91006345Y-95777813D01*
X91006350Y-95777807D01*
X91768345Y-95015812D01*
X95575158Y-91209000D01*
X96196881Y-91209000D01*
X96178429Y-91247996D01*
X96109700Y-91522184D01*
X96095783Y-91804512D01*
X96137213Y-92084130D01*
X96232397Y-92350292D01*
X96299329Y-92475514D01*
X96543298Y-92547097D01*
X97356395Y-91734000D01*
X97342253Y-91719858D01*
X97521858Y-91540253D01*
X97536000Y-91554395D01*
X97550143Y-91540253D01*
X97729748Y-91719858D01*
X97715605Y-91734000D01*
X98528702Y-92547097D01*
X98772671Y-92475514D01*
X98893571Y-92220004D01*
X98962300Y-91945816D01*
X98969265Y-91804512D01*
X99143783Y-91804512D01*
X99185213Y-92084130D01*
X99280397Y-92350292D01*
X99347329Y-92475514D01*
X99591298Y-92547097D01*
X100404395Y-91734000D01*
X100763605Y-91734000D01*
X101576702Y-92547097D01*
X101820671Y-92475514D01*
X101941571Y-92220004D01*
X102010300Y-91945816D01*
X102024217Y-91663488D01*
X101982787Y-91383870D01*
X101887603Y-91117708D01*
X101820671Y-90992486D01*
X101576702Y-90920903D01*
X100763605Y-91734000D01*
X100404395Y-91734000D01*
X99591298Y-90920903D01*
X99347329Y-90992486D01*
X99226429Y-91247996D01*
X99157700Y-91522184D01*
X99143783Y-91804512D01*
X98969265Y-91804512D01*
X98976217Y-91663488D01*
X98934787Y-91383870D01*
X98839603Y-91117708D01*
X98772671Y-90992486D01*
X98628092Y-90950065D01*
X98836859Y-90741298D01*
X99770903Y-90741298D01*
X100584000Y-91554395D01*
X101397097Y-90741298D01*
X101325514Y-90497329D01*
X101070004Y-90376429D01*
X100795816Y-90307700D01*
X100513488Y-90293783D01*
X100233870Y-90335213D01*
X99967708Y-90430397D01*
X99842486Y-90497329D01*
X99770903Y-90741298D01*
X98836859Y-90741298D01*
X99134345Y-90443812D01*
X100206086Y-89372072D01*
X101434000Y-89372072D01*
X101558482Y-89359812D01*
X101678180Y-89323502D01*
X101788494Y-89264537D01*
X101885185Y-89185185D01*
X101964537Y-89088494D01*
X102023502Y-88978180D01*
X102059812Y-88858482D01*
X102072072Y-88734000D01*
X102072072Y-88166324D01*
X102153818Y-88435808D01*
G37*
%TD.AperFunction*%
D29*
X111633000Y-102997000D02*
X111653000Y-102997000D01*
X111653000Y-103251000D01*
X111633000Y-103251000D01*
X111633000Y-103271000D01*
X111379000Y-103271000D01*
X111379000Y-103251000D01*
X111359000Y-103251000D01*
X111359000Y-102997000D01*
X111379000Y-102997000D01*
X111379000Y-102977000D01*
X111633000Y-102977000D01*
X111633000Y-102997000D01*
%TA.AperFunction,Conductor*%
D30*
G36*
X111633000Y-102997000D02*
G01*
X111653000Y-102997000D01*
X111653000Y-103251000D01*
X111633000Y-103251000D01*
X111633000Y-103271000D01*
X111379000Y-103271000D01*
X111379000Y-103251000D01*
X111359000Y-103251000D01*
X111359000Y-102997000D01*
X111379000Y-102997000D01*
X111379000Y-102977000D01*
X111633000Y-102977000D01*
X111633000Y-102997000D01*
G37*
%TD.AperFunction*%
D29*
X121028017Y-76524241D02*
X121054946Y-76557054D01*
X121185898Y-76664524D01*
X121283259Y-76716564D01*
X121335299Y-76744381D01*
X121497410Y-76793556D01*
X121640782Y-76807677D01*
X121770392Y-76965608D01*
X121988899Y-77144932D01*
X122121858Y-77216000D01*
X121988899Y-77287068D01*
X121770392Y-77466392D01*
X121591068Y-77684899D01*
X121457818Y-77934192D01*
X121375764Y-78204691D01*
X121348057Y-78486000D01*
X121375764Y-78767309D01*
X121457818Y-79037808D01*
X121591068Y-79287101D01*
X121770392Y-79505608D01*
X121988899Y-79684932D01*
X122121858Y-79756000D01*
X121988899Y-79827068D01*
X121770392Y-80006392D01*
X121591068Y-80224899D01*
X121457818Y-80474192D01*
X121375764Y-80744691D01*
X121348057Y-81026000D01*
X121375764Y-81307309D01*
X121457818Y-81577808D01*
X121591068Y-81827101D01*
X121770392Y-82045608D01*
X121988899Y-82224932D01*
X122121858Y-82296000D01*
X121988899Y-82367068D01*
X121770392Y-82546392D01*
X121591068Y-82764899D01*
X121457818Y-83014192D01*
X121375764Y-83284691D01*
X121348057Y-83566000D01*
X121375764Y-83847309D01*
X121457818Y-84117808D01*
X121591068Y-84367101D01*
X121770392Y-84585608D01*
X121988899Y-84764932D01*
X122238192Y-84898182D01*
X122405000Y-84948782D01*
X122405001Y-85158661D01*
X122275241Y-85245363D01*
X122075363Y-85445241D01*
X121918320Y-85680273D01*
X121810147Y-85941426D01*
X121755000Y-86218665D01*
X121755000Y-86501335D01*
X121810147Y-86778574D01*
X121918320Y-87039727D01*
X122075363Y-87274759D01*
X122275241Y-87474637D01*
X122507759Y-87630000D01*
X122275241Y-87785363D01*
X122075363Y-87985241D01*
X121918320Y-88220273D01*
X121810147Y-88481426D01*
X121755000Y-88758665D01*
X121755000Y-89041335D01*
X121810147Y-89318574D01*
X121918320Y-89579727D01*
X122075363Y-89814759D01*
X122275241Y-90014637D01*
X122405000Y-90101339D01*
X122405001Y-91114841D01*
X118598190Y-94921653D01*
X118568236Y-94946236D01*
X118470138Y-95065768D01*
X118397246Y-95202141D01*
X118352359Y-95350114D01*
X118341000Y-95465440D01*
X118341000Y-95465447D01*
X118337203Y-95504000D01*
X118341000Y-95542553D01*
X118341000Y-95678862D01*
X118335482Y-95677188D01*
X118211000Y-95664928D01*
X117909250Y-95668000D01*
X117750500Y-95826750D01*
X117750500Y-96901000D01*
X117770500Y-96901000D01*
X117770500Y-97155000D01*
X117750500Y-97155000D01*
X117750500Y-98229250D01*
X117909250Y-98388000D01*
X118211000Y-98391072D01*
X118335482Y-98378812D01*
X118341001Y-98377138D01*
X118341001Y-99496841D01*
X117562072Y-100275770D01*
X117562072Y-98468000D01*
X117549812Y-98343518D01*
X117513502Y-98223820D01*
X117496500Y-98192012D01*
X117496500Y-97155000D01*
X117476500Y-97155000D01*
X117476500Y-96901000D01*
X117496500Y-96901000D01*
X117496500Y-95826750D01*
X117337750Y-95668000D01*
X117036000Y-95664928D01*
X116911518Y-95677188D01*
X116791820Y-95713498D01*
X116681506Y-95772463D01*
X116584815Y-95851815D01*
X116519342Y-95931594D01*
X116513962Y-95925038D01*
X116379386Y-95814595D01*
X116225850Y-95732528D01*
X116059254Y-95681992D01*
X115886000Y-95664928D01*
X115211000Y-95664928D01*
X115037746Y-95681992D01*
X114871150Y-95732528D01*
X114717614Y-95814595D01*
X114583038Y-95925038D01*
X114472595Y-96059614D01*
X114390528Y-96213150D01*
X114339992Y-96379746D01*
X114322928Y-96553000D01*
X114322928Y-97503000D01*
X114339992Y-97676254D01*
X114390528Y-97842850D01*
X114425190Y-97907699D01*
X114369506Y-97937463D01*
X114272815Y-98016815D01*
X114193463Y-98113506D01*
X114134498Y-98223820D01*
X114098188Y-98343518D01*
X114085928Y-98468000D01*
X114085928Y-98843046D01*
X114073898Y-98849476D01*
X113942946Y-98956946D01*
X113916016Y-98989760D01*
X113181777Y-99724000D01*
X113056595Y-99724000D01*
X112925608Y-99564392D01*
X112707101Y-99385068D01*
X112574142Y-99314000D01*
X112707101Y-99242932D01*
X112925608Y-99063608D01*
X113104932Y-98845101D01*
X113238182Y-98595808D01*
X113320236Y-98325309D01*
X113347943Y-98044000D01*
X113320236Y-97762691D01*
X113238182Y-97492192D01*
X113104932Y-97242899D01*
X112925608Y-97024392D01*
X112707101Y-96845068D01*
X112574142Y-96774000D01*
X112707101Y-96702932D01*
X112925608Y-96523608D01*
X113104932Y-96305101D01*
X113238182Y-96055808D01*
X113320236Y-95785309D01*
X113347943Y-95504000D01*
X113320236Y-95222691D01*
X113238182Y-94952192D01*
X113104932Y-94702899D01*
X112925608Y-94484392D01*
X112707101Y-94305068D01*
X112574142Y-94234000D01*
X112707101Y-94162932D01*
X112925608Y-93983608D01*
X113104932Y-93765101D01*
X113238182Y-93515808D01*
X113320236Y-93245309D01*
X113347943Y-92964000D01*
X113320236Y-92682691D01*
X113238182Y-92412192D01*
X113104932Y-92162899D01*
X112925608Y-91944392D01*
X112707101Y-91765068D01*
X112574142Y-91694000D01*
X112707101Y-91622932D01*
X112925608Y-91443608D01*
X113104932Y-91225101D01*
X113238182Y-90975808D01*
X113320236Y-90705309D01*
X113347943Y-90424000D01*
X113320236Y-90142691D01*
X113238182Y-89872192D01*
X113104932Y-89622899D01*
X112925608Y-89404392D01*
X112707101Y-89225068D01*
X112574142Y-89154000D01*
X112707101Y-89082932D01*
X112925608Y-88903608D01*
X113104932Y-88685101D01*
X113238182Y-88435808D01*
X113320236Y-88165309D01*
X113347943Y-87884000D01*
X113320236Y-87602691D01*
X113238182Y-87332192D01*
X113104932Y-87082899D01*
X112925608Y-86864392D01*
X112707101Y-86685068D01*
X112574142Y-86614000D01*
X112707101Y-86542932D01*
X112925608Y-86363608D01*
X113104932Y-86145101D01*
X113238182Y-85895808D01*
X113320236Y-85625309D01*
X113347943Y-85344000D01*
X113320236Y-85062691D01*
X113238182Y-84792192D01*
X113104932Y-84542899D01*
X112925608Y-84324392D01*
X112707101Y-84145068D01*
X112574142Y-84074000D01*
X112707101Y-84002932D01*
X112814198Y-83915039D01*
X113778096Y-83915039D01*
X113795633Y-83997818D01*
X113906285Y-84257646D01*
X114065500Y-84490895D01*
X114267161Y-84688601D01*
X114503517Y-84843166D01*
X114765486Y-84948650D01*
X115043000Y-85001000D01*
X115443000Y-85001000D01*
X115443000Y-83693000D01*
X115697000Y-83693000D01*
X115697000Y-85001000D01*
X116097000Y-85001000D01*
X116374514Y-84948650D01*
X116636483Y-84843166D01*
X116872839Y-84688601D01*
X117074500Y-84490895D01*
X117233715Y-84257646D01*
X117344367Y-83997818D01*
X117361904Y-83915039D01*
X117239915Y-83693000D01*
X115697000Y-83693000D01*
X115443000Y-83693000D01*
X113900085Y-83693000D01*
X113778096Y-83915039D01*
X112814198Y-83915039D01*
X112925608Y-83823608D01*
X113104932Y-83605101D01*
X113238182Y-83355808D01*
X113320236Y-83085309D01*
X113347943Y-82804000D01*
X113320236Y-82522691D01*
X113238182Y-82252192D01*
X113104932Y-82002899D01*
X112925608Y-81784392D01*
X112707101Y-81605068D01*
X112574142Y-81534000D01*
X112707101Y-81462932D01*
X112814198Y-81375039D01*
X113778096Y-81375039D01*
X113795633Y-81457818D01*
X113906285Y-81717646D01*
X114065500Y-81950895D01*
X114267161Y-82148601D01*
X114492559Y-82296000D01*
X114267161Y-82443399D01*
X114065500Y-82641105D01*
X113906285Y-82874354D01*
X113795633Y-83134182D01*
X113778096Y-83216961D01*
X113900085Y-83439000D01*
X115443000Y-83439000D01*
X115443000Y-81153000D01*
X115697000Y-81153000D01*
X115697000Y-83439000D01*
X117239915Y-83439000D01*
X117361904Y-83216961D01*
X117344367Y-83134182D01*
X117233715Y-82874354D01*
X117074500Y-82641105D01*
X116872839Y-82443399D01*
X116647441Y-82296000D01*
X116872839Y-82148601D01*
X117074500Y-81950895D01*
X117233715Y-81717646D01*
X117344367Y-81457818D01*
X117361904Y-81375039D01*
X117239915Y-81153000D01*
X115697000Y-81153000D01*
X115443000Y-81153000D01*
X113900085Y-81153000D01*
X113778096Y-81375039D01*
X112814198Y-81375039D01*
X112925608Y-81283608D01*
X113104932Y-81065101D01*
X113238182Y-80815808D01*
X113320236Y-80545309D01*
X113347943Y-80264000D01*
X113320236Y-79982691D01*
X113238182Y-79712192D01*
X113104932Y-79462899D01*
X112925608Y-79244392D01*
X112707101Y-79065068D01*
X112457808Y-78931818D01*
X112187309Y-78849764D01*
X112037806Y-78835039D01*
X113778096Y-78835039D01*
X113795633Y-78917818D01*
X113906285Y-79177646D01*
X114065500Y-79410895D01*
X114267161Y-79608601D01*
X114492559Y-79756000D01*
X114267161Y-79903399D01*
X114065500Y-80101105D01*
X113906285Y-80334354D01*
X113795633Y-80594182D01*
X113778096Y-80676961D01*
X113900085Y-80899000D01*
X115443000Y-80899000D01*
X115443000Y-78613000D01*
X115697000Y-78613000D01*
X115697000Y-80899000D01*
X117239915Y-80899000D01*
X117361904Y-80676961D01*
X117344367Y-80594182D01*
X117233715Y-80334354D01*
X117074500Y-80101105D01*
X116872839Y-79903399D01*
X116647441Y-79756000D01*
X116872839Y-79608601D01*
X117074500Y-79410895D01*
X117233715Y-79177646D01*
X117344367Y-78917818D01*
X117361904Y-78835039D01*
X117239915Y-78613000D01*
X115697000Y-78613000D01*
X115443000Y-78613000D01*
X113900085Y-78613000D01*
X113778096Y-78835039D01*
X112037806Y-78835039D01*
X111976492Y-78829000D01*
X111035508Y-78829000D01*
X110824691Y-78849764D01*
X110554192Y-78931818D01*
X110304899Y-79065068D01*
X110086392Y-79244392D01*
X109907068Y-79462899D01*
X109773818Y-79712192D01*
X109691764Y-79982691D01*
X109664057Y-80264000D01*
X109691764Y-80545309D01*
X109773818Y-80815808D01*
X109907068Y-81065101D01*
X110086392Y-81283608D01*
X110304899Y-81462932D01*
X110437858Y-81534000D01*
X110304899Y-81605068D01*
X110086392Y-81784392D01*
X109907068Y-82002899D01*
X109773818Y-82252192D01*
X109691764Y-82522691D01*
X109664057Y-82804000D01*
X109691764Y-83085309D01*
X109773818Y-83355808D01*
X109907068Y-83605101D01*
X110086392Y-83823608D01*
X110304899Y-84002932D01*
X110437858Y-84074000D01*
X110304899Y-84145068D01*
X110134360Y-84285026D01*
X110085054Y-84224946D01*
X110052242Y-84198018D01*
X108302000Y-82447777D01*
X108302000Y-79346000D01*
X109177761Y-79346000D01*
X109220000Y-79350160D01*
X109262239Y-79346000D01*
X109262246Y-79346000D01*
X109388589Y-79333556D01*
X109550700Y-79284381D01*
X109700102Y-79204524D01*
X109831054Y-79097054D01*
X109857988Y-79064235D01*
X110306230Y-78615992D01*
X110339054Y-78589054D01*
X110446524Y-78458102D01*
X110526381Y-78308700D01*
X110557931Y-78204691D01*
X110575556Y-78146591D01*
X110579946Y-78102016D01*
X110588000Y-78020246D01*
X110588000Y-78020240D01*
X110592160Y-77978001D01*
X110588000Y-77935762D01*
X110588000Y-77471495D01*
X110706505Y-77392312D01*
X110920312Y-77178505D01*
X110999495Y-77060000D01*
X111717761Y-77060000D01*
X111760000Y-77064160D01*
X111802239Y-77060000D01*
X111802246Y-77060000D01*
X111928589Y-77047556D01*
X112090700Y-76998381D01*
X112240102Y-76918524D01*
X112371054Y-76811054D01*
X112397988Y-76778235D01*
X113731928Y-75444296D01*
X113731928Y-76746000D01*
X113744188Y-76870482D01*
X113780498Y-76990180D01*
X113839463Y-77100494D01*
X113918815Y-77197185D01*
X114015506Y-77276537D01*
X114125820Y-77335502D01*
X114245518Y-77371812D01*
X114257387Y-77372981D01*
X114065500Y-77561105D01*
X113906285Y-77794354D01*
X113795633Y-78054182D01*
X113778096Y-78136961D01*
X113900085Y-78359000D01*
X115443000Y-78359000D01*
X115443000Y-78339000D01*
X115697000Y-78339000D01*
X115697000Y-78359000D01*
X117239915Y-78359000D01*
X117361904Y-78136961D01*
X117344367Y-78054182D01*
X117233715Y-77794354D01*
X117074500Y-77561105D01*
X116882613Y-77372981D01*
X116894482Y-77371812D01*
X117014180Y-77335502D01*
X117124494Y-77276537D01*
X117221185Y-77197185D01*
X117300537Y-77100494D01*
X117359502Y-76990180D01*
X117395812Y-76870482D01*
X117408072Y-76746000D01*
X117408072Y-75146000D01*
X117396450Y-75028000D01*
X119531777Y-75028000D01*
X121028017Y-76524241D01*
%TA.AperFunction,Conductor*%
D30*
G36*
X121028017Y-76524241D02*
G01*
X121054946Y-76557054D01*
X121185898Y-76664524D01*
X121283259Y-76716564D01*
X121335299Y-76744381D01*
X121497410Y-76793556D01*
X121640782Y-76807677D01*
X121770392Y-76965608D01*
X121988899Y-77144932D01*
X122121858Y-77216000D01*
X121988899Y-77287068D01*
X121770392Y-77466392D01*
X121591068Y-77684899D01*
X121457818Y-77934192D01*
X121375764Y-78204691D01*
X121348057Y-78486000D01*
X121375764Y-78767309D01*
X121457818Y-79037808D01*
X121591068Y-79287101D01*
X121770392Y-79505608D01*
X121988899Y-79684932D01*
X122121858Y-79756000D01*
X121988899Y-79827068D01*
X121770392Y-80006392D01*
X121591068Y-80224899D01*
X121457818Y-80474192D01*
X121375764Y-80744691D01*
X121348057Y-81026000D01*
X121375764Y-81307309D01*
X121457818Y-81577808D01*
X121591068Y-81827101D01*
X121770392Y-82045608D01*
X121988899Y-82224932D01*
X122121858Y-82296000D01*
X121988899Y-82367068D01*
X121770392Y-82546392D01*
X121591068Y-82764899D01*
X121457818Y-83014192D01*
X121375764Y-83284691D01*
X121348057Y-83566000D01*
X121375764Y-83847309D01*
X121457818Y-84117808D01*
X121591068Y-84367101D01*
X121770392Y-84585608D01*
X121988899Y-84764932D01*
X122238192Y-84898182D01*
X122405000Y-84948782D01*
X122405001Y-85158661D01*
X122275241Y-85245363D01*
X122075363Y-85445241D01*
X121918320Y-85680273D01*
X121810147Y-85941426D01*
X121755000Y-86218665D01*
X121755000Y-86501335D01*
X121810147Y-86778574D01*
X121918320Y-87039727D01*
X122075363Y-87274759D01*
X122275241Y-87474637D01*
X122507759Y-87630000D01*
X122275241Y-87785363D01*
X122075363Y-87985241D01*
X121918320Y-88220273D01*
X121810147Y-88481426D01*
X121755000Y-88758665D01*
X121755000Y-89041335D01*
X121810147Y-89318574D01*
X121918320Y-89579727D01*
X122075363Y-89814759D01*
X122275241Y-90014637D01*
X122405000Y-90101339D01*
X122405001Y-91114841D01*
X118598190Y-94921653D01*
X118568236Y-94946236D01*
X118470138Y-95065768D01*
X118397246Y-95202141D01*
X118352359Y-95350114D01*
X118341000Y-95465440D01*
X118341000Y-95465447D01*
X118337203Y-95504000D01*
X118341000Y-95542553D01*
X118341000Y-95678862D01*
X118335482Y-95677188D01*
X118211000Y-95664928D01*
X117909250Y-95668000D01*
X117750500Y-95826750D01*
X117750500Y-96901000D01*
X117770500Y-96901000D01*
X117770500Y-97155000D01*
X117750500Y-97155000D01*
X117750500Y-98229250D01*
X117909250Y-98388000D01*
X118211000Y-98391072D01*
X118335482Y-98378812D01*
X118341001Y-98377138D01*
X118341001Y-99496841D01*
X117562072Y-100275770D01*
X117562072Y-98468000D01*
X117549812Y-98343518D01*
X117513502Y-98223820D01*
X117496500Y-98192012D01*
X117496500Y-97155000D01*
X117476500Y-97155000D01*
X117476500Y-96901000D01*
X117496500Y-96901000D01*
X117496500Y-95826750D01*
X117337750Y-95668000D01*
X117036000Y-95664928D01*
X116911518Y-95677188D01*
X116791820Y-95713498D01*
X116681506Y-95772463D01*
X116584815Y-95851815D01*
X116519342Y-95931594D01*
X116513962Y-95925038D01*
X116379386Y-95814595D01*
X116225850Y-95732528D01*
X116059254Y-95681992D01*
X115886000Y-95664928D01*
X115211000Y-95664928D01*
X115037746Y-95681992D01*
X114871150Y-95732528D01*
X114717614Y-95814595D01*
X114583038Y-95925038D01*
X114472595Y-96059614D01*
X114390528Y-96213150D01*
X114339992Y-96379746D01*
X114322928Y-96553000D01*
X114322928Y-97503000D01*
X114339992Y-97676254D01*
X114390528Y-97842850D01*
X114425190Y-97907699D01*
X114369506Y-97937463D01*
X114272815Y-98016815D01*
X114193463Y-98113506D01*
X114134498Y-98223820D01*
X114098188Y-98343518D01*
X114085928Y-98468000D01*
X114085928Y-98843046D01*
X114073898Y-98849476D01*
X113942946Y-98956946D01*
X113916016Y-98989760D01*
X113181777Y-99724000D01*
X113056595Y-99724000D01*
X112925608Y-99564392D01*
X112707101Y-99385068D01*
X112574142Y-99314000D01*
X112707101Y-99242932D01*
X112925608Y-99063608D01*
X113104932Y-98845101D01*
X113238182Y-98595808D01*
X113320236Y-98325309D01*
X113347943Y-98044000D01*
X113320236Y-97762691D01*
X113238182Y-97492192D01*
X113104932Y-97242899D01*
X112925608Y-97024392D01*
X112707101Y-96845068D01*
X112574142Y-96774000D01*
X112707101Y-96702932D01*
X112925608Y-96523608D01*
X113104932Y-96305101D01*
X113238182Y-96055808D01*
X113320236Y-95785309D01*
X113347943Y-95504000D01*
X113320236Y-95222691D01*
X113238182Y-94952192D01*
X113104932Y-94702899D01*
X112925608Y-94484392D01*
X112707101Y-94305068D01*
X112574142Y-94234000D01*
X112707101Y-94162932D01*
X112925608Y-93983608D01*
X113104932Y-93765101D01*
X113238182Y-93515808D01*
X113320236Y-93245309D01*
X113347943Y-92964000D01*
X113320236Y-92682691D01*
X113238182Y-92412192D01*
X113104932Y-92162899D01*
X112925608Y-91944392D01*
X112707101Y-91765068D01*
X112574142Y-91694000D01*
X112707101Y-91622932D01*
X112925608Y-91443608D01*
X113104932Y-91225101D01*
X113238182Y-90975808D01*
X113320236Y-90705309D01*
X113347943Y-90424000D01*
X113320236Y-90142691D01*
X113238182Y-89872192D01*
X113104932Y-89622899D01*
X112925608Y-89404392D01*
X112707101Y-89225068D01*
X112574142Y-89154000D01*
X112707101Y-89082932D01*
X112925608Y-88903608D01*
X113104932Y-88685101D01*
X113238182Y-88435808D01*
X113320236Y-88165309D01*
X113347943Y-87884000D01*
X113320236Y-87602691D01*
X113238182Y-87332192D01*
X113104932Y-87082899D01*
X112925608Y-86864392D01*
X112707101Y-86685068D01*
X112574142Y-86614000D01*
X112707101Y-86542932D01*
X112925608Y-86363608D01*
X113104932Y-86145101D01*
X113238182Y-85895808D01*
X113320236Y-85625309D01*
X113347943Y-85344000D01*
X113320236Y-85062691D01*
X113238182Y-84792192D01*
X113104932Y-84542899D01*
X112925608Y-84324392D01*
X112707101Y-84145068D01*
X112574142Y-84074000D01*
X112707101Y-84002932D01*
X112814198Y-83915039D01*
X113778096Y-83915039D01*
X113795633Y-83997818D01*
X113906285Y-84257646D01*
X114065500Y-84490895D01*
X114267161Y-84688601D01*
X114503517Y-84843166D01*
X114765486Y-84948650D01*
X115043000Y-85001000D01*
X115443000Y-85001000D01*
X115443000Y-83693000D01*
X115697000Y-83693000D01*
X115697000Y-85001000D01*
X116097000Y-85001000D01*
X116374514Y-84948650D01*
X116636483Y-84843166D01*
X116872839Y-84688601D01*
X117074500Y-84490895D01*
X117233715Y-84257646D01*
X117344367Y-83997818D01*
X117361904Y-83915039D01*
X117239915Y-83693000D01*
X115697000Y-83693000D01*
X115443000Y-83693000D01*
X113900085Y-83693000D01*
X113778096Y-83915039D01*
X112814198Y-83915039D01*
X112925608Y-83823608D01*
X113104932Y-83605101D01*
X113238182Y-83355808D01*
X113320236Y-83085309D01*
X113347943Y-82804000D01*
X113320236Y-82522691D01*
X113238182Y-82252192D01*
X113104932Y-82002899D01*
X112925608Y-81784392D01*
X112707101Y-81605068D01*
X112574142Y-81534000D01*
X112707101Y-81462932D01*
X112814198Y-81375039D01*
X113778096Y-81375039D01*
X113795633Y-81457818D01*
X113906285Y-81717646D01*
X114065500Y-81950895D01*
X114267161Y-82148601D01*
X114492559Y-82296000D01*
X114267161Y-82443399D01*
X114065500Y-82641105D01*
X113906285Y-82874354D01*
X113795633Y-83134182D01*
X113778096Y-83216961D01*
X113900085Y-83439000D01*
X115443000Y-83439000D01*
X115443000Y-81153000D01*
X115697000Y-81153000D01*
X115697000Y-83439000D01*
X117239915Y-83439000D01*
X117361904Y-83216961D01*
X117344367Y-83134182D01*
X117233715Y-82874354D01*
X117074500Y-82641105D01*
X116872839Y-82443399D01*
X116647441Y-82296000D01*
X116872839Y-82148601D01*
X117074500Y-81950895D01*
X117233715Y-81717646D01*
X117344367Y-81457818D01*
X117361904Y-81375039D01*
X117239915Y-81153000D01*
X115697000Y-81153000D01*
X115443000Y-81153000D01*
X113900085Y-81153000D01*
X113778096Y-81375039D01*
X112814198Y-81375039D01*
X112925608Y-81283608D01*
X113104932Y-81065101D01*
X113238182Y-80815808D01*
X113320236Y-80545309D01*
X113347943Y-80264000D01*
X113320236Y-79982691D01*
X113238182Y-79712192D01*
X113104932Y-79462899D01*
X112925608Y-79244392D01*
X112707101Y-79065068D01*
X112457808Y-78931818D01*
X112187309Y-78849764D01*
X112037806Y-78835039D01*
X113778096Y-78835039D01*
X113795633Y-78917818D01*
X113906285Y-79177646D01*
X114065500Y-79410895D01*
X114267161Y-79608601D01*
X114492559Y-79756000D01*
X114267161Y-79903399D01*
X114065500Y-80101105D01*
X113906285Y-80334354D01*
X113795633Y-80594182D01*
X113778096Y-80676961D01*
X113900085Y-80899000D01*
X115443000Y-80899000D01*
X115443000Y-78613000D01*
X115697000Y-78613000D01*
X115697000Y-80899000D01*
X117239915Y-80899000D01*
X117361904Y-80676961D01*
X117344367Y-80594182D01*
X117233715Y-80334354D01*
X117074500Y-80101105D01*
X116872839Y-79903399D01*
X116647441Y-79756000D01*
X116872839Y-79608601D01*
X117074500Y-79410895D01*
X117233715Y-79177646D01*
X117344367Y-78917818D01*
X117361904Y-78835039D01*
X117239915Y-78613000D01*
X115697000Y-78613000D01*
X115443000Y-78613000D01*
X113900085Y-78613000D01*
X113778096Y-78835039D01*
X112037806Y-78835039D01*
X111976492Y-78829000D01*
X111035508Y-78829000D01*
X110824691Y-78849764D01*
X110554192Y-78931818D01*
X110304899Y-79065068D01*
X110086392Y-79244392D01*
X109907068Y-79462899D01*
X109773818Y-79712192D01*
X109691764Y-79982691D01*
X109664057Y-80264000D01*
X109691764Y-80545309D01*
X109773818Y-80815808D01*
X109907068Y-81065101D01*
X110086392Y-81283608D01*
X110304899Y-81462932D01*
X110437858Y-81534000D01*
X110304899Y-81605068D01*
X110086392Y-81784392D01*
X109907068Y-82002899D01*
X109773818Y-82252192D01*
X109691764Y-82522691D01*
X109664057Y-82804000D01*
X109691764Y-83085309D01*
X109773818Y-83355808D01*
X109907068Y-83605101D01*
X110086392Y-83823608D01*
X110304899Y-84002932D01*
X110437858Y-84074000D01*
X110304899Y-84145068D01*
X110134360Y-84285026D01*
X110085054Y-84224946D01*
X110052242Y-84198018D01*
X108302000Y-82447777D01*
X108302000Y-79346000D01*
X109177761Y-79346000D01*
X109220000Y-79350160D01*
X109262239Y-79346000D01*
X109262246Y-79346000D01*
X109388589Y-79333556D01*
X109550700Y-79284381D01*
X109700102Y-79204524D01*
X109831054Y-79097054D01*
X109857988Y-79064235D01*
X110306230Y-78615992D01*
X110339054Y-78589054D01*
X110446524Y-78458102D01*
X110526381Y-78308700D01*
X110557931Y-78204691D01*
X110575556Y-78146591D01*
X110579946Y-78102016D01*
X110588000Y-78020246D01*
X110588000Y-78020240D01*
X110592160Y-77978001D01*
X110588000Y-77935762D01*
X110588000Y-77471495D01*
X110706505Y-77392312D01*
X110920312Y-77178505D01*
X110999495Y-77060000D01*
X111717761Y-77060000D01*
X111760000Y-77064160D01*
X111802239Y-77060000D01*
X111802246Y-77060000D01*
X111928589Y-77047556D01*
X112090700Y-76998381D01*
X112240102Y-76918524D01*
X112371054Y-76811054D01*
X112397988Y-76778235D01*
X113731928Y-75444296D01*
X113731928Y-76746000D01*
X113744188Y-76870482D01*
X113780498Y-76990180D01*
X113839463Y-77100494D01*
X113918815Y-77197185D01*
X114015506Y-77276537D01*
X114125820Y-77335502D01*
X114245518Y-77371812D01*
X114257387Y-77372981D01*
X114065500Y-77561105D01*
X113906285Y-77794354D01*
X113795633Y-78054182D01*
X113778096Y-78136961D01*
X113900085Y-78359000D01*
X115443000Y-78359000D01*
X115443000Y-78339000D01*
X115697000Y-78339000D01*
X115697000Y-78359000D01*
X117239915Y-78359000D01*
X117361904Y-78136961D01*
X117344367Y-78054182D01*
X117233715Y-77794354D01*
X117074500Y-77561105D01*
X116882613Y-77372981D01*
X116894482Y-77371812D01*
X117014180Y-77335502D01*
X117124494Y-77276537D01*
X117221185Y-77197185D01*
X117300537Y-77100494D01*
X117359502Y-76990180D01*
X117395812Y-76870482D01*
X117408072Y-76746000D01*
X117408072Y-75146000D01*
X117396450Y-75028000D01*
X119531777Y-75028000D01*
X121028017Y-76524241D01*
G37*
%TD.AperFunction*%
D29*
X82107988Y-70988698D02*
X81947047Y-71377244D01*
X81865000Y-71789721D01*
X81865000Y-72210279D01*
X81947047Y-72622756D01*
X82107988Y-73011302D01*
X82341637Y-73360983D01*
X82639017Y-73658363D01*
X82988698Y-73892012D01*
X83377244Y-74052953D01*
X83789721Y-74135000D01*
X84210279Y-74135000D01*
X84622756Y-74052953D01*
X85011302Y-73892012D01*
X85360983Y-73658363D01*
X85658363Y-73360983D01*
X85892012Y-73011302D01*
X86052953Y-72622756D01*
X86135000Y-72210279D01*
X86135000Y-71789721D01*
X86052953Y-71377244D01*
X85892012Y-70988698D01*
X85672383Y-70660000D01*
X95547427Y-70660000D01*
X95545518Y-70660188D01*
X95425820Y-70696498D01*
X95315506Y-70755463D01*
X95218815Y-70834815D01*
X95139463Y-70931506D01*
X95080498Y-71041820D01*
X95044188Y-71161518D01*
X95031928Y-71286000D01*
X95031928Y-72986000D01*
X95044188Y-73110482D01*
X95080498Y-73230180D01*
X95139463Y-73340494D01*
X95218815Y-73437185D01*
X95315506Y-73516537D01*
X95425820Y-73575502D01*
X95545518Y-73611812D01*
X95670000Y-73624072D01*
X96355704Y-73624072D01*
X95179765Y-74800012D01*
X95146946Y-74826946D01*
X95039476Y-74957899D01*
X94959619Y-75107301D01*
X94910444Y-75269412D01*
X94898000Y-75395755D01*
X94898000Y-75395761D01*
X94893840Y-75438000D01*
X94898000Y-75480239D01*
X94898001Y-78697751D01*
X94893840Y-78740000D01*
X94910444Y-78908589D01*
X94959620Y-79070700D01*
X95039477Y-79220102D01*
X95092230Y-79284381D01*
X95146947Y-79351054D01*
X95179760Y-79377983D01*
X96295927Y-80494150D01*
X96266000Y-80491203D01*
X96227447Y-80495000D01*
X96182711Y-80495000D01*
X96163774Y-80476063D01*
X95994256Y-80362795D01*
X95805898Y-80284774D01*
X95605939Y-80245000D01*
X95402061Y-80245000D01*
X95202102Y-80284774D01*
X95013744Y-80362795D01*
X94844226Y-80476063D01*
X94700063Y-80620226D01*
X94586795Y-80789744D01*
X94508774Y-80978102D01*
X94469000Y-81178061D01*
X94469000Y-81381939D01*
X94508774Y-81581898D01*
X94586795Y-81770256D01*
X94700063Y-81939774D01*
X94844226Y-82083937D01*
X95013744Y-82197205D01*
X95202102Y-82275226D01*
X95402061Y-82315000D01*
X95605939Y-82315000D01*
X95805898Y-82275226D01*
X95994256Y-82197205D01*
X96041488Y-82165645D01*
X96324637Y-82448794D01*
X96177762Y-82471035D01*
X95921168Y-82563723D01*
X95808137Y-82624140D01*
X95742612Y-82863007D01*
X96520000Y-83640395D01*
X96534143Y-83626253D01*
X96713748Y-83805858D01*
X96699605Y-83820000D01*
X97476993Y-84597388D01*
X97715860Y-84531863D01*
X97831760Y-84284884D01*
X97897250Y-84020040D01*
X97909812Y-83747508D01*
X97885810Y-83589000D01*
X98734843Y-83589000D01*
X99747658Y-84601815D01*
X99772236Y-84631764D01*
X99802184Y-84656342D01*
X99802187Y-84656345D01*
X99831559Y-84680450D01*
X99891767Y-84729862D01*
X100028140Y-84802754D01*
X100137738Y-84836000D01*
X100176112Y-84847641D01*
X100190490Y-84849057D01*
X100291439Y-84859000D01*
X100291446Y-84859000D01*
X100329999Y-84862797D01*
X100368552Y-84859000D01*
X102133552Y-84859000D01*
X102071764Y-85062691D01*
X102044057Y-85344000D01*
X102071764Y-85625309D01*
X102153818Y-85895808D01*
X102287068Y-86145101D01*
X102466392Y-86363608D01*
X102684899Y-86542932D01*
X102817858Y-86614000D01*
X102684899Y-86685068D01*
X102466392Y-86864392D01*
X102287068Y-87082899D01*
X102153818Y-87332192D01*
X102072072Y-87601676D01*
X102072072Y-87034000D01*
X102059812Y-86909518D01*
X102023502Y-86789820D01*
X101964537Y-86679506D01*
X101885185Y-86582815D01*
X101788494Y-86503463D01*
X101678180Y-86444498D01*
X101558482Y-86408188D01*
X101434000Y-86395928D01*
X99734000Y-86395928D01*
X99609518Y-86408188D01*
X99489820Y-86444498D01*
X99379506Y-86503463D01*
X99282815Y-86582815D01*
X99203463Y-86679506D01*
X99144498Y-86789820D01*
X99108188Y-86909518D01*
X99095928Y-87034000D01*
X99095928Y-88261914D01*
X98024188Y-89333655D01*
X97908072Y-89449771D01*
X97908072Y-88150000D01*
X97895812Y-88025518D01*
X97859502Y-87905820D01*
X97800537Y-87795506D01*
X97721185Y-87698815D01*
X97624494Y-87619463D01*
X97514180Y-87560498D01*
X97394482Y-87524188D01*
X97286517Y-87513555D01*
X97402886Y-87435799D01*
X97595799Y-87242886D01*
X97747371Y-87016043D01*
X97851775Y-86763989D01*
X97905000Y-86496411D01*
X97905000Y-86223589D01*
X97851775Y-85956011D01*
X97747371Y-85703957D01*
X97595799Y-85477114D01*
X97402886Y-85284201D01*
X97176043Y-85132629D01*
X97076721Y-85091489D01*
X97118832Y-85076277D01*
X97231863Y-85015860D01*
X97297388Y-84776993D01*
X96520000Y-83999605D01*
X95742612Y-84776993D01*
X95808137Y-85015860D01*
X95966477Y-85090164D01*
X95863957Y-85132629D01*
X95637114Y-85284201D01*
X95444201Y-85477114D01*
X95292629Y-85703957D01*
X95188225Y-85956011D01*
X95135000Y-86223589D01*
X95135000Y-86496411D01*
X95188225Y-86763989D01*
X95292629Y-87016043D01*
X95444201Y-87242886D01*
X95637114Y-87435799D01*
X95753483Y-87513555D01*
X95645518Y-87524188D01*
X95525820Y-87560498D01*
X95415506Y-87619463D01*
X95318815Y-87698815D01*
X95239463Y-87795506D01*
X95180498Y-87905820D01*
X95144188Y-88025518D01*
X95142762Y-88040000D01*
X91990238Y-88040000D01*
X91947999Y-88035840D01*
X91905760Y-88040000D01*
X91905754Y-88040000D01*
X91810538Y-88049378D01*
X91779409Y-88052444D01*
X91703950Y-88075335D01*
X91617300Y-88101619D01*
X91467898Y-88181476D01*
X91336946Y-88288946D01*
X91310008Y-88321770D01*
X91083777Y-88548000D01*
X87986224Y-88548000D01*
X87566454Y-88128231D01*
X87689799Y-88004886D01*
X87841371Y-87778043D01*
X87945775Y-87525989D01*
X87999000Y-87258411D01*
X87999000Y-86985589D01*
X87945775Y-86718011D01*
X87841371Y-86465957D01*
X87689799Y-86239114D01*
X87496886Y-86046201D01*
X87270043Y-85894629D01*
X87017989Y-85790225D01*
X86886149Y-85764000D01*
X88427928Y-85764000D01*
X88427928Y-87464000D01*
X88440188Y-87588482D01*
X88476498Y-87708180D01*
X88535463Y-87818494D01*
X88614815Y-87915185D01*
X88711506Y-87994537D01*
X88821820Y-88053502D01*
X88941518Y-88089812D01*
X89066000Y-88102072D01*
X90766000Y-88102072D01*
X90890482Y-88089812D01*
X91010180Y-88053502D01*
X91120494Y-87994537D01*
X91217185Y-87915185D01*
X91296537Y-87818494D01*
X91355502Y-87708180D01*
X91391812Y-87588482D01*
X91404072Y-87464000D01*
X91404072Y-85764000D01*
X91391812Y-85639518D01*
X91355502Y-85519820D01*
X91296537Y-85409506D01*
X91217185Y-85312815D01*
X91120494Y-85233463D01*
X91010180Y-85174498D01*
X90929534Y-85150034D01*
X91013588Y-85074269D01*
X91187641Y-84840920D01*
X91312825Y-84578099D01*
X91357476Y-84430890D01*
X91236155Y-84201000D01*
X90043000Y-84201000D01*
X90043000Y-84221000D01*
X89789000Y-84221000D01*
X89789000Y-84201000D01*
X88595845Y-84201000D01*
X88474524Y-84430890D01*
X88519175Y-84578099D01*
X88644359Y-84840920D01*
X88818412Y-85074269D01*
X88902466Y-85150034D01*
X88821820Y-85174498D01*
X88711506Y-85233463D01*
X88614815Y-85312815D01*
X88535463Y-85409506D01*
X88476498Y-85519820D01*
X88440188Y-85639518D01*
X88427928Y-85764000D01*
X86886149Y-85764000D01*
X86750411Y-85737000D01*
X86617081Y-85737000D01*
X86650381Y-85674700D01*
X86699556Y-85512589D01*
X86712000Y-85386246D01*
X86712000Y-85386239D01*
X86716160Y-85344000D01*
X86712000Y-85301761D01*
X86712000Y-84824033D01*
X86957998Y-84659663D01*
X87199663Y-84417998D01*
X87389537Y-84133831D01*
X87520325Y-83818081D01*
X87587000Y-83482883D01*
X87587000Y-83141117D01*
X87520325Y-82805919D01*
X87389537Y-82490169D01*
X87199663Y-82206002D01*
X86957998Y-81964337D01*
X86848077Y-81890890D01*
X88474524Y-81890890D01*
X88519175Y-82038099D01*
X88644359Y-82300920D01*
X88818412Y-82534269D01*
X89034645Y-82729178D01*
X89160255Y-82804000D01*
X89034645Y-82878822D01*
X88818412Y-83073731D01*
X88644359Y-83307080D01*
X88519175Y-83569901D01*
X88474524Y-83717110D01*
X88595845Y-83947000D01*
X89789000Y-83947000D01*
X89789000Y-81661000D01*
X90043000Y-81661000D01*
X90043000Y-83947000D01*
X91236155Y-83947000D01*
X91264920Y-83892492D01*
X95130188Y-83892492D01*
X95171035Y-84162238D01*
X95263723Y-84418832D01*
X95324140Y-84531863D01*
X95563007Y-84597388D01*
X96340395Y-83820000D01*
X95563007Y-83042612D01*
X95324140Y-83108137D01*
X95208240Y-83355116D01*
X95142750Y-83619960D01*
X95130188Y-83892492D01*
X91264920Y-83892492D01*
X91357476Y-83717110D01*
X91312825Y-83569901D01*
X91187641Y-83307080D01*
X91013588Y-83073731D01*
X90797355Y-82878822D01*
X90671745Y-82804000D01*
X90797355Y-82729178D01*
X91013588Y-82534269D01*
X91187641Y-82300920D01*
X91312825Y-82038099D01*
X91357476Y-81890890D01*
X91236155Y-81661000D01*
X90043000Y-81661000D01*
X89789000Y-81661000D01*
X88595845Y-81661000D01*
X88474524Y-81890890D01*
X86848077Y-81890890D01*
X86673831Y-81774463D01*
X86358081Y-81643675D01*
X86022883Y-81577000D01*
X85681117Y-81577000D01*
X85345919Y-81643675D01*
X85030169Y-81774463D01*
X84929557Y-81841690D01*
X84863185Y-81760815D01*
X84766494Y-81681463D01*
X84656180Y-81622498D01*
X84536482Y-81586188D01*
X84412000Y-81573928D01*
X82212000Y-81573928D01*
X82087518Y-81586188D01*
X81967820Y-81622498D01*
X81857506Y-81681463D01*
X81760815Y-81760815D01*
X81681463Y-81857506D01*
X81622498Y-81967820D01*
X81586188Y-82087518D01*
X81573928Y-82212000D01*
X81573928Y-84412000D01*
X81586188Y-84536482D01*
X81622498Y-84656180D01*
X81681463Y-84766494D01*
X81760815Y-84863185D01*
X81857506Y-84942537D01*
X81967820Y-85001502D01*
X82087518Y-85037812D01*
X82212000Y-85050072D01*
X82452000Y-85050072D01*
X82452001Y-85843504D01*
X82373542Y-85801567D01*
X82206852Y-85751002D01*
X82033500Y-85733928D01*
X81034500Y-85733928D01*
X80861148Y-85751002D01*
X80694458Y-85801567D01*
X80660000Y-85819985D01*
X80660000Y-79096891D01*
X81108519Y-79096891D01*
X81205843Y-79371252D01*
X81354822Y-79621355D01*
X81549731Y-79837588D01*
X81783080Y-80011641D01*
X82045901Y-80136825D01*
X82193110Y-80181476D01*
X82423000Y-80060155D01*
X82423000Y-78867000D01*
X81229186Y-78867000D01*
X81108519Y-79096891D01*
X80660000Y-79096891D01*
X80660000Y-78383109D01*
X81108519Y-78383109D01*
X81229186Y-78613000D01*
X82423000Y-78613000D01*
X82423000Y-77419845D01*
X82677000Y-77419845D01*
X82677000Y-78613000D01*
X82697000Y-78613000D01*
X82697000Y-78867000D01*
X82677000Y-78867000D01*
X82677000Y-80060155D01*
X82906890Y-80181476D01*
X83054099Y-80136825D01*
X83316920Y-80011641D01*
X83550269Y-79837588D01*
X83626034Y-79753534D01*
X83650498Y-79834180D01*
X83709463Y-79944494D01*
X83788815Y-80041185D01*
X83885506Y-80120537D01*
X83995820Y-80179502D01*
X84115518Y-80215812D01*
X84240000Y-80228072D01*
X85940000Y-80228072D01*
X86064482Y-80215812D01*
X86184180Y-80179502D01*
X86294494Y-80120537D01*
X86391185Y-80041185D01*
X86470537Y-79944494D01*
X86529502Y-79834180D01*
X86565812Y-79714482D01*
X86578072Y-79590000D01*
X86578072Y-78847740D01*
X88431000Y-78847740D01*
X88431000Y-79140260D01*
X88488068Y-79427158D01*
X88600010Y-79697411D01*
X88762525Y-79940632D01*
X88969368Y-80147475D01*
X89151534Y-80269195D01*
X89034645Y-80338822D01*
X88818412Y-80533731D01*
X88644359Y-80767080D01*
X88519175Y-81029901D01*
X88474524Y-81177110D01*
X88595845Y-81407000D01*
X89789000Y-81407000D01*
X89789000Y-81387000D01*
X90043000Y-81387000D01*
X90043000Y-81407000D01*
X91236155Y-81407000D01*
X91357476Y-81177110D01*
X91312825Y-81029901D01*
X91187641Y-80767080D01*
X91013588Y-80533731D01*
X90797355Y-80338822D01*
X90680466Y-80269195D01*
X90862632Y-80147475D01*
X91069475Y-79940632D01*
X91231990Y-79697411D01*
X91343932Y-79427158D01*
X91401000Y-79140260D01*
X91401000Y-78847740D01*
X91343932Y-78560842D01*
X91231990Y-78290589D01*
X91069475Y-78047368D01*
X90862632Y-77840525D01*
X90619411Y-77678010D01*
X90349158Y-77566068D01*
X90062260Y-77509000D01*
X89769740Y-77509000D01*
X89482842Y-77566068D01*
X89212589Y-77678010D01*
X88969368Y-77840525D01*
X88762525Y-78047368D01*
X88600010Y-78290589D01*
X88488068Y-78560842D01*
X88431000Y-78847740D01*
X86578072Y-78847740D01*
X86578072Y-77890000D01*
X86565812Y-77765518D01*
X86529502Y-77645820D01*
X86470537Y-77535506D01*
X86391185Y-77438815D01*
X86294494Y-77359463D01*
X86184180Y-77300498D01*
X86064482Y-77264188D01*
X85940000Y-77251928D01*
X84240000Y-77251928D01*
X84115518Y-77264188D01*
X83995820Y-77300498D01*
X83885506Y-77359463D01*
X83788815Y-77438815D01*
X83709463Y-77535506D01*
X83650498Y-77645820D01*
X83626034Y-77726466D01*
X83550269Y-77642412D01*
X83316920Y-77468359D01*
X83054099Y-77343175D01*
X82906890Y-77298524D01*
X82677000Y-77419845D01*
X82423000Y-77419845D01*
X82193110Y-77298524D01*
X82045901Y-77343175D01*
X81783080Y-77468359D01*
X81549731Y-77642412D01*
X81354822Y-77858645D01*
X81205843Y-78108748D01*
X81108519Y-78383109D01*
X80660000Y-78383109D01*
X80660000Y-70660000D01*
X82327617Y-70660000D01*
X82107988Y-70988698D01*
%TA.AperFunction,Conductor*%
D30*
G36*
X82107988Y-70988698D02*
G01*
X81947047Y-71377244D01*
X81865000Y-71789721D01*
X81865000Y-72210279D01*
X81947047Y-72622756D01*
X82107988Y-73011302D01*
X82341637Y-73360983D01*
X82639017Y-73658363D01*
X82988698Y-73892012D01*
X83377244Y-74052953D01*
X83789721Y-74135000D01*
X84210279Y-74135000D01*
X84622756Y-74052953D01*
X85011302Y-73892012D01*
X85360983Y-73658363D01*
X85658363Y-73360983D01*
X85892012Y-73011302D01*
X86052953Y-72622756D01*
X86135000Y-72210279D01*
X86135000Y-71789721D01*
X86052953Y-71377244D01*
X85892012Y-70988698D01*
X85672383Y-70660000D01*
X95547427Y-70660000D01*
X95545518Y-70660188D01*
X95425820Y-70696498D01*
X95315506Y-70755463D01*
X95218815Y-70834815D01*
X95139463Y-70931506D01*
X95080498Y-71041820D01*
X95044188Y-71161518D01*
X95031928Y-71286000D01*
X95031928Y-72986000D01*
X95044188Y-73110482D01*
X95080498Y-73230180D01*
X95139463Y-73340494D01*
X95218815Y-73437185D01*
X95315506Y-73516537D01*
X95425820Y-73575502D01*
X95545518Y-73611812D01*
X95670000Y-73624072D01*
X96355704Y-73624072D01*
X95179765Y-74800012D01*
X95146946Y-74826946D01*
X95039476Y-74957899D01*
X94959619Y-75107301D01*
X94910444Y-75269412D01*
X94898000Y-75395755D01*
X94898000Y-75395761D01*
X94893840Y-75438000D01*
X94898000Y-75480239D01*
X94898001Y-78697751D01*
X94893840Y-78740000D01*
X94910444Y-78908589D01*
X94959620Y-79070700D01*
X95039477Y-79220102D01*
X95092230Y-79284381D01*
X95146947Y-79351054D01*
X95179760Y-79377983D01*
X96295927Y-80494150D01*
X96266000Y-80491203D01*
X96227447Y-80495000D01*
X96182711Y-80495000D01*
X96163774Y-80476063D01*
X95994256Y-80362795D01*
X95805898Y-80284774D01*
X95605939Y-80245000D01*
X95402061Y-80245000D01*
X95202102Y-80284774D01*
X95013744Y-80362795D01*
X94844226Y-80476063D01*
X94700063Y-80620226D01*
X94586795Y-80789744D01*
X94508774Y-80978102D01*
X94469000Y-81178061D01*
X94469000Y-81381939D01*
X94508774Y-81581898D01*
X94586795Y-81770256D01*
X94700063Y-81939774D01*
X94844226Y-82083937D01*
X95013744Y-82197205D01*
X95202102Y-82275226D01*
X95402061Y-82315000D01*
X95605939Y-82315000D01*
X95805898Y-82275226D01*
X95994256Y-82197205D01*
X96041488Y-82165645D01*
X96324637Y-82448794D01*
X96177762Y-82471035D01*
X95921168Y-82563723D01*
X95808137Y-82624140D01*
X95742612Y-82863007D01*
X96520000Y-83640395D01*
X96534143Y-83626253D01*
X96713748Y-83805858D01*
X96699605Y-83820000D01*
X97476993Y-84597388D01*
X97715860Y-84531863D01*
X97831760Y-84284884D01*
X97897250Y-84020040D01*
X97909812Y-83747508D01*
X97885810Y-83589000D01*
X98734843Y-83589000D01*
X99747658Y-84601815D01*
X99772236Y-84631764D01*
X99802184Y-84656342D01*
X99802187Y-84656345D01*
X99831559Y-84680450D01*
X99891767Y-84729862D01*
X100028140Y-84802754D01*
X100137738Y-84836000D01*
X100176112Y-84847641D01*
X100190490Y-84849057D01*
X100291439Y-84859000D01*
X100291446Y-84859000D01*
X100329999Y-84862797D01*
X100368552Y-84859000D01*
X102133552Y-84859000D01*
X102071764Y-85062691D01*
X102044057Y-85344000D01*
X102071764Y-85625309D01*
X102153818Y-85895808D01*
X102287068Y-86145101D01*
X102466392Y-86363608D01*
X102684899Y-86542932D01*
X102817858Y-86614000D01*
X102684899Y-86685068D01*
X102466392Y-86864392D01*
X102287068Y-87082899D01*
X102153818Y-87332192D01*
X102072072Y-87601676D01*
X102072072Y-87034000D01*
X102059812Y-86909518D01*
X102023502Y-86789820D01*
X101964537Y-86679506D01*
X101885185Y-86582815D01*
X101788494Y-86503463D01*
X101678180Y-86444498D01*
X101558482Y-86408188D01*
X101434000Y-86395928D01*
X99734000Y-86395928D01*
X99609518Y-86408188D01*
X99489820Y-86444498D01*
X99379506Y-86503463D01*
X99282815Y-86582815D01*
X99203463Y-86679506D01*
X99144498Y-86789820D01*
X99108188Y-86909518D01*
X99095928Y-87034000D01*
X99095928Y-88261914D01*
X98024188Y-89333655D01*
X97908072Y-89449771D01*
X97908072Y-88150000D01*
X97895812Y-88025518D01*
X97859502Y-87905820D01*
X97800537Y-87795506D01*
X97721185Y-87698815D01*
X97624494Y-87619463D01*
X97514180Y-87560498D01*
X97394482Y-87524188D01*
X97286517Y-87513555D01*
X97402886Y-87435799D01*
X97595799Y-87242886D01*
X97747371Y-87016043D01*
X97851775Y-86763989D01*
X97905000Y-86496411D01*
X97905000Y-86223589D01*
X97851775Y-85956011D01*
X97747371Y-85703957D01*
X97595799Y-85477114D01*
X97402886Y-85284201D01*
X97176043Y-85132629D01*
X97076721Y-85091489D01*
X97118832Y-85076277D01*
X97231863Y-85015860D01*
X97297388Y-84776993D01*
X96520000Y-83999605D01*
X95742612Y-84776993D01*
X95808137Y-85015860D01*
X95966477Y-85090164D01*
X95863957Y-85132629D01*
X95637114Y-85284201D01*
X95444201Y-85477114D01*
X95292629Y-85703957D01*
X95188225Y-85956011D01*
X95135000Y-86223589D01*
X95135000Y-86496411D01*
X95188225Y-86763989D01*
X95292629Y-87016043D01*
X95444201Y-87242886D01*
X95637114Y-87435799D01*
X95753483Y-87513555D01*
X95645518Y-87524188D01*
X95525820Y-87560498D01*
X95415506Y-87619463D01*
X95318815Y-87698815D01*
X95239463Y-87795506D01*
X95180498Y-87905820D01*
X95144188Y-88025518D01*
X95142762Y-88040000D01*
X91990238Y-88040000D01*
X91947999Y-88035840D01*
X91905760Y-88040000D01*
X91905754Y-88040000D01*
X91810538Y-88049378D01*
X91779409Y-88052444D01*
X91703950Y-88075335D01*
X91617300Y-88101619D01*
X91467898Y-88181476D01*
X91336946Y-88288946D01*
X91310008Y-88321770D01*
X91083777Y-88548000D01*
X87986224Y-88548000D01*
X87566454Y-88128231D01*
X87689799Y-88004886D01*
X87841371Y-87778043D01*
X87945775Y-87525989D01*
X87999000Y-87258411D01*
X87999000Y-86985589D01*
X87945775Y-86718011D01*
X87841371Y-86465957D01*
X87689799Y-86239114D01*
X87496886Y-86046201D01*
X87270043Y-85894629D01*
X87017989Y-85790225D01*
X86886149Y-85764000D01*
X88427928Y-85764000D01*
X88427928Y-87464000D01*
X88440188Y-87588482D01*
X88476498Y-87708180D01*
X88535463Y-87818494D01*
X88614815Y-87915185D01*
X88711506Y-87994537D01*
X88821820Y-88053502D01*
X88941518Y-88089812D01*
X89066000Y-88102072D01*
X90766000Y-88102072D01*
X90890482Y-88089812D01*
X91010180Y-88053502D01*
X91120494Y-87994537D01*
X91217185Y-87915185D01*
X91296537Y-87818494D01*
X91355502Y-87708180D01*
X91391812Y-87588482D01*
X91404072Y-87464000D01*
X91404072Y-85764000D01*
X91391812Y-85639518D01*
X91355502Y-85519820D01*
X91296537Y-85409506D01*
X91217185Y-85312815D01*
X91120494Y-85233463D01*
X91010180Y-85174498D01*
X90929534Y-85150034D01*
X91013588Y-85074269D01*
X91187641Y-84840920D01*
X91312825Y-84578099D01*
X91357476Y-84430890D01*
X91236155Y-84201000D01*
X90043000Y-84201000D01*
X90043000Y-84221000D01*
X89789000Y-84221000D01*
X89789000Y-84201000D01*
X88595845Y-84201000D01*
X88474524Y-84430890D01*
X88519175Y-84578099D01*
X88644359Y-84840920D01*
X88818412Y-85074269D01*
X88902466Y-85150034D01*
X88821820Y-85174498D01*
X88711506Y-85233463D01*
X88614815Y-85312815D01*
X88535463Y-85409506D01*
X88476498Y-85519820D01*
X88440188Y-85639518D01*
X88427928Y-85764000D01*
X86886149Y-85764000D01*
X86750411Y-85737000D01*
X86617081Y-85737000D01*
X86650381Y-85674700D01*
X86699556Y-85512589D01*
X86712000Y-85386246D01*
X86712000Y-85386239D01*
X86716160Y-85344000D01*
X86712000Y-85301761D01*
X86712000Y-84824033D01*
X86957998Y-84659663D01*
X87199663Y-84417998D01*
X87389537Y-84133831D01*
X87520325Y-83818081D01*
X87587000Y-83482883D01*
X87587000Y-83141117D01*
X87520325Y-82805919D01*
X87389537Y-82490169D01*
X87199663Y-82206002D01*
X86957998Y-81964337D01*
X86848077Y-81890890D01*
X88474524Y-81890890D01*
X88519175Y-82038099D01*
X88644359Y-82300920D01*
X88818412Y-82534269D01*
X89034645Y-82729178D01*
X89160255Y-82804000D01*
X89034645Y-82878822D01*
X88818412Y-83073731D01*
X88644359Y-83307080D01*
X88519175Y-83569901D01*
X88474524Y-83717110D01*
X88595845Y-83947000D01*
X89789000Y-83947000D01*
X89789000Y-81661000D01*
X90043000Y-81661000D01*
X90043000Y-83947000D01*
X91236155Y-83947000D01*
X91264920Y-83892492D01*
X95130188Y-83892492D01*
X95171035Y-84162238D01*
X95263723Y-84418832D01*
X95324140Y-84531863D01*
X95563007Y-84597388D01*
X96340395Y-83820000D01*
X95563007Y-83042612D01*
X95324140Y-83108137D01*
X95208240Y-83355116D01*
X95142750Y-83619960D01*
X95130188Y-83892492D01*
X91264920Y-83892492D01*
X91357476Y-83717110D01*
X91312825Y-83569901D01*
X91187641Y-83307080D01*
X91013588Y-83073731D01*
X90797355Y-82878822D01*
X90671745Y-82804000D01*
X90797355Y-82729178D01*
X91013588Y-82534269D01*
X91187641Y-82300920D01*
X91312825Y-82038099D01*
X91357476Y-81890890D01*
X91236155Y-81661000D01*
X90043000Y-81661000D01*
X89789000Y-81661000D01*
X88595845Y-81661000D01*
X88474524Y-81890890D01*
X86848077Y-81890890D01*
X86673831Y-81774463D01*
X86358081Y-81643675D01*
X86022883Y-81577000D01*
X85681117Y-81577000D01*
X85345919Y-81643675D01*
X85030169Y-81774463D01*
X84929557Y-81841690D01*
X84863185Y-81760815D01*
X84766494Y-81681463D01*
X84656180Y-81622498D01*
X84536482Y-81586188D01*
X84412000Y-81573928D01*
X82212000Y-81573928D01*
X82087518Y-81586188D01*
X81967820Y-81622498D01*
X81857506Y-81681463D01*
X81760815Y-81760815D01*
X81681463Y-81857506D01*
X81622498Y-81967820D01*
X81586188Y-82087518D01*
X81573928Y-82212000D01*
X81573928Y-84412000D01*
X81586188Y-84536482D01*
X81622498Y-84656180D01*
X81681463Y-84766494D01*
X81760815Y-84863185D01*
X81857506Y-84942537D01*
X81967820Y-85001502D01*
X82087518Y-85037812D01*
X82212000Y-85050072D01*
X82452000Y-85050072D01*
X82452001Y-85843504D01*
X82373542Y-85801567D01*
X82206852Y-85751002D01*
X82033500Y-85733928D01*
X81034500Y-85733928D01*
X80861148Y-85751002D01*
X80694458Y-85801567D01*
X80660000Y-85819985D01*
X80660000Y-79096891D01*
X81108519Y-79096891D01*
X81205843Y-79371252D01*
X81354822Y-79621355D01*
X81549731Y-79837588D01*
X81783080Y-80011641D01*
X82045901Y-80136825D01*
X82193110Y-80181476D01*
X82423000Y-80060155D01*
X82423000Y-78867000D01*
X81229186Y-78867000D01*
X81108519Y-79096891D01*
X80660000Y-79096891D01*
X80660000Y-78383109D01*
X81108519Y-78383109D01*
X81229186Y-78613000D01*
X82423000Y-78613000D01*
X82423000Y-77419845D01*
X82677000Y-77419845D01*
X82677000Y-78613000D01*
X82697000Y-78613000D01*
X82697000Y-78867000D01*
X82677000Y-78867000D01*
X82677000Y-80060155D01*
X82906890Y-80181476D01*
X83054099Y-80136825D01*
X83316920Y-80011641D01*
X83550269Y-79837588D01*
X83626034Y-79753534D01*
X83650498Y-79834180D01*
X83709463Y-79944494D01*
X83788815Y-80041185D01*
X83885506Y-80120537D01*
X83995820Y-80179502D01*
X84115518Y-80215812D01*
X84240000Y-80228072D01*
X85940000Y-80228072D01*
X86064482Y-80215812D01*
X86184180Y-80179502D01*
X86294494Y-80120537D01*
X86391185Y-80041185D01*
X86470537Y-79944494D01*
X86529502Y-79834180D01*
X86565812Y-79714482D01*
X86578072Y-79590000D01*
X86578072Y-78847740D01*
X88431000Y-78847740D01*
X88431000Y-79140260D01*
X88488068Y-79427158D01*
X88600010Y-79697411D01*
X88762525Y-79940632D01*
X88969368Y-80147475D01*
X89151534Y-80269195D01*
X89034645Y-80338822D01*
X88818412Y-80533731D01*
X88644359Y-80767080D01*
X88519175Y-81029901D01*
X88474524Y-81177110D01*
X88595845Y-81407000D01*
X89789000Y-81407000D01*
X89789000Y-81387000D01*
X90043000Y-81387000D01*
X90043000Y-81407000D01*
X91236155Y-81407000D01*
X91357476Y-81177110D01*
X91312825Y-81029901D01*
X91187641Y-80767080D01*
X91013588Y-80533731D01*
X90797355Y-80338822D01*
X90680466Y-80269195D01*
X90862632Y-80147475D01*
X91069475Y-79940632D01*
X91231990Y-79697411D01*
X91343932Y-79427158D01*
X91401000Y-79140260D01*
X91401000Y-78847740D01*
X91343932Y-78560842D01*
X91231990Y-78290589D01*
X91069475Y-78047368D01*
X90862632Y-77840525D01*
X90619411Y-77678010D01*
X90349158Y-77566068D01*
X90062260Y-77509000D01*
X89769740Y-77509000D01*
X89482842Y-77566068D01*
X89212589Y-77678010D01*
X88969368Y-77840525D01*
X88762525Y-78047368D01*
X88600010Y-78290589D01*
X88488068Y-78560842D01*
X88431000Y-78847740D01*
X86578072Y-78847740D01*
X86578072Y-77890000D01*
X86565812Y-77765518D01*
X86529502Y-77645820D01*
X86470537Y-77535506D01*
X86391185Y-77438815D01*
X86294494Y-77359463D01*
X86184180Y-77300498D01*
X86064482Y-77264188D01*
X85940000Y-77251928D01*
X84240000Y-77251928D01*
X84115518Y-77264188D01*
X83995820Y-77300498D01*
X83885506Y-77359463D01*
X83788815Y-77438815D01*
X83709463Y-77535506D01*
X83650498Y-77645820D01*
X83626034Y-77726466D01*
X83550269Y-77642412D01*
X83316920Y-77468359D01*
X83054099Y-77343175D01*
X82906890Y-77298524D01*
X82677000Y-77419845D01*
X82423000Y-77419845D01*
X82193110Y-77298524D01*
X82045901Y-77343175D01*
X81783080Y-77468359D01*
X81549731Y-77642412D01*
X81354822Y-77858645D01*
X81205843Y-78108748D01*
X81108519Y-78383109D01*
X80660000Y-78383109D01*
X80660000Y-70660000D01*
X82327617Y-70660000D01*
X82107988Y-70988698D01*
G37*
%TD.AperFunction*%
D29*
X101727000Y-72009000D02*
X101747000Y-72009000D01*
X101747000Y-72263000D01*
X101727000Y-72263000D01*
X101727000Y-73456155D01*
X101956890Y-73577476D01*
X102104099Y-73532825D01*
X102366920Y-73407641D01*
X102600269Y-73233588D01*
X102795178Y-73017355D01*
X102864805Y-72900466D01*
X102986525Y-73082632D01*
X103193368Y-73289475D01*
X103436589Y-73451990D01*
X103706842Y-73563932D01*
X103993740Y-73621000D01*
X104286260Y-73621000D01*
X104573158Y-73563932D01*
X104843411Y-73451990D01*
X105086632Y-73289475D01*
X105293475Y-73082632D01*
X105410000Y-72908240D01*
X105526525Y-73082632D01*
X105733368Y-73289475D01*
X105976589Y-73451990D01*
X106246842Y-73563932D01*
X106533740Y-73621000D01*
X106826260Y-73621000D01*
X107113158Y-73563932D01*
X107383411Y-73451990D01*
X107626632Y-73289475D01*
X107833475Y-73082632D01*
X107950000Y-72908240D01*
X108066525Y-73082632D01*
X108273368Y-73289475D01*
X108516589Y-73451990D01*
X108786842Y-73563932D01*
X109073740Y-73621000D01*
X109366260Y-73621000D01*
X109653158Y-73563932D01*
X109923411Y-73451990D01*
X110166632Y-73289475D01*
X110373475Y-73082632D01*
X110490000Y-72908240D01*
X110606525Y-73082632D01*
X110813368Y-73289475D01*
X111056589Y-73451990D01*
X111326842Y-73563932D01*
X111613740Y-73621000D01*
X111906260Y-73621000D01*
X112193158Y-73563932D01*
X112463411Y-73451990D01*
X112706632Y-73289475D01*
X112913475Y-73082632D01*
X113030000Y-72908240D01*
X113146525Y-73082632D01*
X113353368Y-73289475D01*
X113469561Y-73367113D01*
X113461300Y-73369619D01*
X113311898Y-73449476D01*
X113180946Y-73556946D01*
X113154017Y-73589759D01*
X111403777Y-75340000D01*
X110999495Y-75340000D01*
X110920312Y-75221495D01*
X110706505Y-75007688D01*
X110455095Y-74839701D01*
X110175743Y-74723989D01*
X109879184Y-74665000D01*
X109576816Y-74665000D01*
X109280257Y-74723989D01*
X109000905Y-74839701D01*
X108749495Y-75007688D01*
X108683056Y-75074127D01*
X108677502Y-75055820D01*
X108618537Y-74945506D01*
X108539185Y-74848815D01*
X108442494Y-74769463D01*
X108332180Y-74710498D01*
X108212482Y-74674188D01*
X108088000Y-74661928D01*
X106288000Y-74661928D01*
X106163518Y-74674188D01*
X106043820Y-74710498D01*
X105933506Y-74769463D01*
X105836815Y-74848815D01*
X105757463Y-74945506D01*
X105698498Y-75055820D01*
X105662188Y-75175518D01*
X105649928Y-75300000D01*
X105649928Y-75415000D01*
X102532711Y-75415000D01*
X102513774Y-75396063D01*
X102344256Y-75282795D01*
X102155898Y-75204774D01*
X101955939Y-75165000D01*
X101752061Y-75165000D01*
X101552102Y-75204774D01*
X101363744Y-75282795D01*
X101194226Y-75396063D01*
X101050063Y-75540226D01*
X100936795Y-75709744D01*
X100858774Y-75898102D01*
X100819000Y-76098061D01*
X100819000Y-76301939D01*
X100858774Y-76501898D01*
X100936795Y-76690256D01*
X101050063Y-76859774D01*
X101194226Y-77003937D01*
X101363744Y-77117205D01*
X101552102Y-77195226D01*
X101752061Y-77235000D01*
X101955939Y-77235000D01*
X102155898Y-77195226D01*
X102344256Y-77117205D01*
X102513774Y-77003937D01*
X102532711Y-76985000D01*
X105649928Y-76985000D01*
X105649928Y-77100000D01*
X105662188Y-77224482D01*
X105698498Y-77344180D01*
X105757463Y-77454494D01*
X105836815Y-77551185D01*
X105927978Y-77626000D01*
X102150238Y-77626000D01*
X102107999Y-77621840D01*
X102065760Y-77626000D01*
X102065754Y-77626000D01*
X101956558Y-77636755D01*
X101939410Y-77638444D01*
X101915095Y-77645820D01*
X101777300Y-77687619D01*
X101627898Y-77767476D01*
X101496946Y-77874946D01*
X101470017Y-77907760D01*
X100597849Y-78779928D01*
X99738000Y-78779928D01*
X99613518Y-78792188D01*
X99493820Y-78828498D01*
X99383506Y-78887463D01*
X99286815Y-78966815D01*
X99220443Y-79047690D01*
X99119831Y-78980463D01*
X98804081Y-78849675D01*
X98468883Y-78783000D01*
X98127117Y-78783000D01*
X97791919Y-78849675D01*
X97476169Y-78980463D01*
X97319422Y-79085198D01*
X96618000Y-78383777D01*
X96618000Y-75794223D01*
X97384224Y-75028000D01*
X98001761Y-75028000D01*
X98044000Y-75032160D01*
X98086239Y-75028000D01*
X98086246Y-75028000D01*
X98212589Y-75015556D01*
X98374700Y-74966381D01*
X98524102Y-74886524D01*
X98655054Y-74779054D01*
X98681988Y-74746235D01*
X99638240Y-73789984D01*
X99671054Y-73763054D01*
X99778524Y-73632102D01*
X99858381Y-73482700D01*
X99894207Y-73364595D01*
X100006632Y-73289475D01*
X100213475Y-73082632D01*
X100335195Y-72900466D01*
X100404822Y-73017355D01*
X100599731Y-73233588D01*
X100833080Y-73407641D01*
X101095901Y-73532825D01*
X101243110Y-73577476D01*
X101473000Y-73456155D01*
X101473000Y-72263000D01*
X101453000Y-72263000D01*
X101453000Y-72009000D01*
X101473000Y-72009000D01*
X101473000Y-71989000D01*
X101727000Y-71989000D01*
X101727000Y-72009000D01*
%TA.AperFunction,Conductor*%
D30*
G36*
X101727000Y-72009000D02*
G01*
X101747000Y-72009000D01*
X101747000Y-72263000D01*
X101727000Y-72263000D01*
X101727000Y-73456155D01*
X101956890Y-73577476D01*
X102104099Y-73532825D01*
X102366920Y-73407641D01*
X102600269Y-73233588D01*
X102795178Y-73017355D01*
X102864805Y-72900466D01*
X102986525Y-73082632D01*
X103193368Y-73289475D01*
X103436589Y-73451990D01*
X103706842Y-73563932D01*
X103993740Y-73621000D01*
X104286260Y-73621000D01*
X104573158Y-73563932D01*
X104843411Y-73451990D01*
X105086632Y-73289475D01*
X105293475Y-73082632D01*
X105410000Y-72908240D01*
X105526525Y-73082632D01*
X105733368Y-73289475D01*
X105976589Y-73451990D01*
X106246842Y-73563932D01*
X106533740Y-73621000D01*
X106826260Y-73621000D01*
X107113158Y-73563932D01*
X107383411Y-73451990D01*
X107626632Y-73289475D01*
X107833475Y-73082632D01*
X107950000Y-72908240D01*
X108066525Y-73082632D01*
X108273368Y-73289475D01*
X108516589Y-73451990D01*
X108786842Y-73563932D01*
X109073740Y-73621000D01*
X109366260Y-73621000D01*
X109653158Y-73563932D01*
X109923411Y-73451990D01*
X110166632Y-73289475D01*
X110373475Y-73082632D01*
X110490000Y-72908240D01*
X110606525Y-73082632D01*
X110813368Y-73289475D01*
X111056589Y-73451990D01*
X111326842Y-73563932D01*
X111613740Y-73621000D01*
X111906260Y-73621000D01*
X112193158Y-73563932D01*
X112463411Y-73451990D01*
X112706632Y-73289475D01*
X112913475Y-73082632D01*
X113030000Y-72908240D01*
X113146525Y-73082632D01*
X113353368Y-73289475D01*
X113469561Y-73367113D01*
X113461300Y-73369619D01*
X113311898Y-73449476D01*
X113180946Y-73556946D01*
X113154017Y-73589759D01*
X111403777Y-75340000D01*
X110999495Y-75340000D01*
X110920312Y-75221495D01*
X110706505Y-75007688D01*
X110455095Y-74839701D01*
X110175743Y-74723989D01*
X109879184Y-74665000D01*
X109576816Y-74665000D01*
X109280257Y-74723989D01*
X109000905Y-74839701D01*
X108749495Y-75007688D01*
X108683056Y-75074127D01*
X108677502Y-75055820D01*
X108618537Y-74945506D01*
X108539185Y-74848815D01*
X108442494Y-74769463D01*
X108332180Y-74710498D01*
X108212482Y-74674188D01*
X108088000Y-74661928D01*
X106288000Y-74661928D01*
X106163518Y-74674188D01*
X106043820Y-74710498D01*
X105933506Y-74769463D01*
X105836815Y-74848815D01*
X105757463Y-74945506D01*
X105698498Y-75055820D01*
X105662188Y-75175518D01*
X105649928Y-75300000D01*
X105649928Y-75415000D01*
X102532711Y-75415000D01*
X102513774Y-75396063D01*
X102344256Y-75282795D01*
X102155898Y-75204774D01*
X101955939Y-75165000D01*
X101752061Y-75165000D01*
X101552102Y-75204774D01*
X101363744Y-75282795D01*
X101194226Y-75396063D01*
X101050063Y-75540226D01*
X100936795Y-75709744D01*
X100858774Y-75898102D01*
X100819000Y-76098061D01*
X100819000Y-76301939D01*
X100858774Y-76501898D01*
X100936795Y-76690256D01*
X101050063Y-76859774D01*
X101194226Y-77003937D01*
X101363744Y-77117205D01*
X101552102Y-77195226D01*
X101752061Y-77235000D01*
X101955939Y-77235000D01*
X102155898Y-77195226D01*
X102344256Y-77117205D01*
X102513774Y-77003937D01*
X102532711Y-76985000D01*
X105649928Y-76985000D01*
X105649928Y-77100000D01*
X105662188Y-77224482D01*
X105698498Y-77344180D01*
X105757463Y-77454494D01*
X105836815Y-77551185D01*
X105927978Y-77626000D01*
X102150238Y-77626000D01*
X102107999Y-77621840D01*
X102065760Y-77626000D01*
X102065754Y-77626000D01*
X101956558Y-77636755D01*
X101939410Y-77638444D01*
X101915095Y-77645820D01*
X101777300Y-77687619D01*
X101627898Y-77767476D01*
X101496946Y-77874946D01*
X101470017Y-77907760D01*
X100597849Y-78779928D01*
X99738000Y-78779928D01*
X99613518Y-78792188D01*
X99493820Y-78828498D01*
X99383506Y-78887463D01*
X99286815Y-78966815D01*
X99220443Y-79047690D01*
X99119831Y-78980463D01*
X98804081Y-78849675D01*
X98468883Y-78783000D01*
X98127117Y-78783000D01*
X97791919Y-78849675D01*
X97476169Y-78980463D01*
X97319422Y-79085198D01*
X96618000Y-78383777D01*
X96618000Y-75794223D01*
X97384224Y-75028000D01*
X98001761Y-75028000D01*
X98044000Y-75032160D01*
X98086239Y-75028000D01*
X98086246Y-75028000D01*
X98212589Y-75015556D01*
X98374700Y-74966381D01*
X98524102Y-74886524D01*
X98655054Y-74779054D01*
X98681988Y-74746235D01*
X99638240Y-73789984D01*
X99671054Y-73763054D01*
X99778524Y-73632102D01*
X99858381Y-73482700D01*
X99894207Y-73364595D01*
X100006632Y-73289475D01*
X100213475Y-73082632D01*
X100335195Y-72900466D01*
X100404822Y-73017355D01*
X100599731Y-73233588D01*
X100833080Y-73407641D01*
X101095901Y-73532825D01*
X101243110Y-73577476D01*
X101473000Y-73456155D01*
X101473000Y-72263000D01*
X101453000Y-72263000D01*
X101453000Y-72009000D01*
X101473000Y-72009000D01*
X101473000Y-71989000D01*
X101727000Y-71989000D01*
X101727000Y-72009000D01*
G37*
%TD.AperFunction*%
D29*
X124340000Y-74719754D02*
X124141808Y-74613818D01*
X123871309Y-74531764D01*
X123660492Y-74511000D01*
X122719508Y-74511000D01*
X122508691Y-74531764D01*
X122238192Y-74613818D01*
X121988899Y-74747068D01*
X121821045Y-74884822D01*
X120525988Y-73589765D01*
X120499054Y-73556946D01*
X120368102Y-73449476D01*
X120218700Y-73369619D01*
X120056589Y-73320444D01*
X119930246Y-73308000D01*
X119930239Y-73308000D01*
X119888000Y-73303840D01*
X119845761Y-73308000D01*
X115218907Y-73308000D01*
X115246632Y-73289475D01*
X115453475Y-73082632D01*
X115615990Y-72839411D01*
X115727932Y-72569158D01*
X115785000Y-72282260D01*
X115785000Y-71989740D01*
X115727932Y-71702842D01*
X115615990Y-71432589D01*
X115453475Y-71189368D01*
X115246632Y-70982525D01*
X115003411Y-70820010D01*
X114733158Y-70708068D01*
X114491506Y-70660000D01*
X124340000Y-70660000D01*
X124340000Y-74719754D01*
%TA.AperFunction,Conductor*%
D30*
G36*
X124340000Y-74719754D02*
G01*
X124141808Y-74613818D01*
X123871309Y-74531764D01*
X123660492Y-74511000D01*
X122719508Y-74511000D01*
X122508691Y-74531764D01*
X122238192Y-74613818D01*
X121988899Y-74747068D01*
X121821045Y-74884822D01*
X120525988Y-73589765D01*
X120499054Y-73556946D01*
X120368102Y-73449476D01*
X120218700Y-73369619D01*
X120056589Y-73320444D01*
X119930246Y-73308000D01*
X119930239Y-73308000D01*
X119888000Y-73303840D01*
X119845761Y-73308000D01*
X115218907Y-73308000D01*
X115246632Y-73289475D01*
X115453475Y-73082632D01*
X115615990Y-72839411D01*
X115727932Y-72569158D01*
X115785000Y-72282260D01*
X115785000Y-71989740D01*
X115727932Y-71702842D01*
X115615990Y-71432589D01*
X115453475Y-71189368D01*
X115246632Y-70982525D01*
X115003411Y-70820010D01*
X114733158Y-70708068D01*
X114491506Y-70660000D01*
X124340000Y-70660000D01*
X124340000Y-74719754D01*
G37*
%TD.AperFunction*%
D29*
X101472998Y-70815844D02*
X101243110Y-70694524D01*
X101095901Y-70739175D01*
X100833080Y-70864359D01*
X100599731Y-71038412D01*
X100404822Y-71254645D01*
X100335195Y-71371534D01*
X100213475Y-71189368D01*
X100006632Y-70982525D01*
X99763411Y-70820010D01*
X99493158Y-70708068D01*
X99251506Y-70660000D01*
X101472998Y-70660000D01*
X101472998Y-70815844D01*
%TA.AperFunction,Conductor*%
D30*
G36*
X101472998Y-70815844D02*
G01*
X101243110Y-70694524D01*
X101095901Y-70739175D01*
X100833080Y-70864359D01*
X100599731Y-71038412D01*
X100404822Y-71254645D01*
X100335195Y-71371534D01*
X100213475Y-71189368D01*
X100006632Y-70982525D01*
X99763411Y-70820010D01*
X99493158Y-70708068D01*
X99251506Y-70660000D01*
X101472998Y-70660000D01*
X101472998Y-70815844D01*
G37*
%TD.AperFunction*%
%TD*%
M02*
