%TF.GenerationSoftware,KiCad,Pcbnew,(5.1.12)-1*%
%TF.CreationDate,2025-06-06T13:01:38+02:00*%
%TF.ProjectId,telecommande,74656c65-636f-46d6-9d61-6e64652e6b69,rev?*%
%TF.SameCoordinates,Original*%
%TF.FileFunction,Legend,Top*%
%TF.FilePolarity,Positive*%
%FSLAX46Y46*%
G04 Gerber Fmt 4.6, Leading zero omitted, Abs format (unit mm)*
G04 Created by KiCad (PCBNEW (5.1.12)-1) date 2025-06-06 13:01:38*
%MOMM*%
%LPD*%
G01*
G04 APERTURE LIST*
%ADD10C,0.200000*%
%ADD11C,0.150000*%
%ADD12C,0.300000*%
%ADD13C,0.120000*%
G04 APERTURE END LIST*
D10*
X94571428Y-87353714D02*
X95285714Y-86853714D01*
X94571428Y-86496571D02*
X96071428Y-86496571D01*
X96071428Y-87068000D01*
X96000000Y-87210857D01*
X95928571Y-87282285D01*
X95785714Y-87353714D01*
X95571428Y-87353714D01*
X95428571Y-87282285D01*
X95357142Y-87210857D01*
X95285714Y-87068000D01*
X95285714Y-86496571D01*
X94642857Y-88568000D02*
X94571428Y-88425142D01*
X94571428Y-88139428D01*
X94642857Y-87996571D01*
X94785714Y-87925142D01*
X95357142Y-87925142D01*
X95500000Y-87996571D01*
X95571428Y-88139428D01*
X95571428Y-88425142D01*
X95500000Y-88568000D01*
X95357142Y-88639428D01*
X95214285Y-88639428D01*
X95071428Y-87925142D01*
X96142857Y-88425142D02*
X95928571Y-88210857D01*
X94642857Y-89925142D02*
X94571428Y-89782285D01*
X94571428Y-89496571D01*
X94642857Y-89353714D01*
X94714285Y-89282285D01*
X94857142Y-89210857D01*
X95285714Y-89210857D01*
X95428571Y-89282285D01*
X95500000Y-89353714D01*
X95571428Y-89496571D01*
X95571428Y-89782285D01*
X95500000Y-89925142D01*
X94642857Y-91139428D02*
X94571428Y-90996571D01*
X94571428Y-90710857D01*
X94642857Y-90568000D01*
X94785714Y-90496571D01*
X95357142Y-90496571D01*
X95500000Y-90568000D01*
X95571428Y-90710857D01*
X95571428Y-90996571D01*
X95500000Y-91139428D01*
X95357142Y-91210857D01*
X95214285Y-91210857D01*
X95071428Y-90496571D01*
X95571428Y-91853714D02*
X94071428Y-91853714D01*
X95500000Y-91853714D02*
X95571428Y-91996571D01*
X95571428Y-92282285D01*
X95500000Y-92425142D01*
X95428571Y-92496571D01*
X95285714Y-92568000D01*
X94857142Y-92568000D01*
X94714285Y-92496571D01*
X94642857Y-92425142D01*
X94571428Y-92282285D01*
X94571428Y-91996571D01*
X94642857Y-91853714D01*
X95571428Y-92996571D02*
X95571428Y-93568000D01*
X96071428Y-93210857D02*
X94785714Y-93210857D01*
X94642857Y-93282285D01*
X94571428Y-93425142D01*
X94571428Y-93568000D01*
X94714285Y-94068000D02*
X94642857Y-94139428D01*
X94571428Y-94068000D01*
X94642857Y-93996571D01*
X94714285Y-94068000D01*
X94571428Y-94068000D01*
X95571428Y-95710857D02*
X95571428Y-96282285D01*
X96071428Y-95925142D02*
X94785714Y-95925142D01*
X94642857Y-95996571D01*
X94571428Y-96139428D01*
X94571428Y-96282285D01*
X94642857Y-97353714D02*
X94571428Y-97210857D01*
X94571428Y-96925142D01*
X94642857Y-96782285D01*
X94785714Y-96710857D01*
X95357142Y-96710857D01*
X95500000Y-96782285D01*
X95571428Y-96925142D01*
X95571428Y-97210857D01*
X95500000Y-97353714D01*
X95357142Y-97425142D01*
X95214285Y-97425142D01*
X95071428Y-96710857D01*
X96142857Y-97210857D02*
X95928571Y-96996571D01*
X94571428Y-98282285D02*
X94642857Y-98139428D01*
X94785714Y-98068000D01*
X96071428Y-98068000D01*
X94642857Y-99425142D02*
X94571428Y-99282285D01*
X94571428Y-98996571D01*
X94642857Y-98853714D01*
X94785714Y-98782285D01*
X95357142Y-98782285D01*
X95500000Y-98853714D01*
X95571428Y-98996571D01*
X95571428Y-99282285D01*
X95500000Y-99425142D01*
X95357142Y-99496571D01*
X95214285Y-99496571D01*
X95071428Y-98782285D01*
X96142857Y-99282285D02*
X95928571Y-99068000D01*
X94642857Y-100782285D02*
X94571428Y-100639428D01*
X94571428Y-100353714D01*
X94642857Y-100210857D01*
X94714285Y-100139428D01*
X94857142Y-100068000D01*
X95285714Y-100068000D01*
X95428571Y-100139428D01*
X95500000Y-100210857D01*
X95571428Y-100353714D01*
X95571428Y-100639428D01*
X95500000Y-100782285D01*
X94571428Y-101639428D02*
X94642857Y-101496571D01*
X94714285Y-101425142D01*
X94857142Y-101353714D01*
X95285714Y-101353714D01*
X95428571Y-101425142D01*
X95500000Y-101496571D01*
X95571428Y-101639428D01*
X95571428Y-101853714D01*
X95500000Y-101996571D01*
X95428571Y-102068000D01*
X95285714Y-102139428D01*
X94857142Y-102139428D01*
X94714285Y-102068000D01*
X94642857Y-101996571D01*
X94571428Y-101853714D01*
X94571428Y-101639428D01*
X94571428Y-102782285D02*
X95571428Y-102782285D01*
X95428571Y-102782285D02*
X95500000Y-102853714D01*
X95571428Y-102996571D01*
X95571428Y-103210857D01*
X95500000Y-103353714D01*
X95357142Y-103425142D01*
X94571428Y-103425142D01*
X95357142Y-103425142D02*
X95500000Y-103496571D01*
X95571428Y-103639428D01*
X95571428Y-103853714D01*
X95500000Y-103996571D01*
X95357142Y-104068000D01*
X94571428Y-104068000D01*
X94571428Y-104782285D02*
X95571428Y-104782285D01*
X95428571Y-104782285D02*
X95500000Y-104853714D01*
X95571428Y-104996571D01*
X95571428Y-105210857D01*
X95500000Y-105353714D01*
X95357142Y-105425142D01*
X94571428Y-105425142D01*
X95357142Y-105425142D02*
X95500000Y-105496571D01*
X95571428Y-105639428D01*
X95571428Y-105853714D01*
X95500000Y-105996571D01*
X95357142Y-106068000D01*
X94571428Y-106068000D01*
X94571428Y-107425142D02*
X95357142Y-107425142D01*
X95500000Y-107353714D01*
X95571428Y-107210857D01*
X95571428Y-106925142D01*
X95500000Y-106782285D01*
X94642857Y-107425142D02*
X94571428Y-107282285D01*
X94571428Y-106925142D01*
X94642857Y-106782285D01*
X94785714Y-106710857D01*
X94928571Y-106710857D01*
X95071428Y-106782285D01*
X95142857Y-106925142D01*
X95142857Y-107282285D01*
X95214285Y-107425142D01*
X95571428Y-108139428D02*
X94571428Y-108139428D01*
X95428571Y-108139428D02*
X95500000Y-108210857D01*
X95571428Y-108353714D01*
X95571428Y-108568000D01*
X95500000Y-108710857D01*
X95357142Y-108782285D01*
X94571428Y-108782285D01*
X94571428Y-110139428D02*
X96071428Y-110139428D01*
X94642857Y-110139428D02*
X94571428Y-109996571D01*
X94571428Y-109710857D01*
X94642857Y-109568000D01*
X94714285Y-109496571D01*
X94857142Y-109425142D01*
X95285714Y-109425142D01*
X95428571Y-109496571D01*
X95500000Y-109568000D01*
X95571428Y-109710857D01*
X95571428Y-109996571D01*
X95500000Y-110139428D01*
X94642857Y-111425142D02*
X94571428Y-111282285D01*
X94571428Y-110996571D01*
X94642857Y-110853714D01*
X94785714Y-110782285D01*
X95357142Y-110782285D01*
X95500000Y-110853714D01*
X95571428Y-110996571D01*
X95571428Y-111282285D01*
X95500000Y-111425142D01*
X95357142Y-111496571D01*
X95214285Y-111496571D01*
X95071428Y-110782285D01*
X94642857Y-112068000D02*
X94571428Y-112210857D01*
X94571428Y-112496571D01*
X94642857Y-112639428D01*
X94785714Y-112710857D01*
X94857142Y-112710857D01*
X95000000Y-112639428D01*
X95071428Y-112496571D01*
X95071428Y-112282285D01*
X95142857Y-112139428D01*
X95285714Y-112068000D01*
X95357142Y-112068000D01*
X95500000Y-112139428D01*
X95571428Y-112282285D01*
X95571428Y-112496571D01*
X95500000Y-112639428D01*
D11*
X94075428Y-78336857D02*
X94475428Y-79536857D01*
X94875428Y-78336857D01*
X95789714Y-79479714D02*
X95675428Y-79536857D01*
X95446857Y-79536857D01*
X95332571Y-79479714D01*
X95275428Y-79422571D01*
X95218285Y-79308285D01*
X95218285Y-78965428D01*
X95275428Y-78851142D01*
X95332571Y-78794000D01*
X95446857Y-78736857D01*
X95675428Y-78736857D01*
X95789714Y-78794000D01*
X96818285Y-79479714D02*
X96704000Y-79536857D01*
X96475428Y-79536857D01*
X96361142Y-79479714D01*
X96304000Y-79422571D01*
X96246857Y-79308285D01*
X96246857Y-78965428D01*
X96304000Y-78851142D01*
X96361142Y-78794000D01*
X96475428Y-78736857D01*
X96704000Y-78736857D01*
X96818285Y-78794000D01*
X92189761Y-86298190D02*
X92737380Y-85914857D01*
X92189761Y-85641047D02*
X93339761Y-85641047D01*
X93339761Y-86079142D01*
X93285000Y-86188666D01*
X93230238Y-86243428D01*
X93120714Y-86298190D01*
X92956428Y-86298190D01*
X92846904Y-86243428D01*
X92792142Y-86188666D01*
X92737380Y-86079142D01*
X92737380Y-85641047D01*
X92244523Y-87229142D02*
X92189761Y-87119619D01*
X92189761Y-86900571D01*
X92244523Y-86791047D01*
X92354047Y-86736285D01*
X92792142Y-86736285D01*
X92901666Y-86791047D01*
X92956428Y-86900571D01*
X92956428Y-87119619D01*
X92901666Y-87229142D01*
X92792142Y-87283904D01*
X92682619Y-87283904D01*
X92573095Y-86736285D01*
X93394523Y-87119619D02*
X93230238Y-86955333D01*
X92244523Y-88269619D02*
X92189761Y-88160095D01*
X92189761Y-87941047D01*
X92244523Y-87831523D01*
X92299285Y-87776761D01*
X92408809Y-87722000D01*
X92737380Y-87722000D01*
X92846904Y-87776761D01*
X92901666Y-87831523D01*
X92956428Y-87941047D01*
X92956428Y-88160095D01*
X92901666Y-88269619D01*
X92189761Y-90295809D02*
X92737380Y-89912476D01*
X92189761Y-89638666D02*
X93339761Y-89638666D01*
X93339761Y-90076761D01*
X93285000Y-90186285D01*
X93230238Y-90241047D01*
X93120714Y-90295809D01*
X92956428Y-90295809D01*
X92846904Y-90241047D01*
X92792142Y-90186285D01*
X92737380Y-90076761D01*
X92737380Y-89638666D01*
X92792142Y-91172000D02*
X92792142Y-90788666D01*
X92189761Y-90788666D02*
X93339761Y-90788666D01*
X93339761Y-91336285D01*
X92189761Y-91774380D02*
X93339761Y-91774380D01*
X92518333Y-92157714D01*
X93339761Y-92541047D01*
X92189761Y-92541047D01*
X93230238Y-93033904D02*
X93285000Y-93088666D01*
X93339761Y-93198190D01*
X93339761Y-93472000D01*
X93285000Y-93581523D01*
X93230238Y-93636285D01*
X93120714Y-93691047D01*
X93011190Y-93691047D01*
X92846904Y-93636285D01*
X92189761Y-92979142D01*
X92189761Y-93691047D01*
X92189761Y-94786285D02*
X92189761Y-94129142D01*
X92189761Y-94457714D02*
X93339761Y-94457714D01*
X93175476Y-94348190D01*
X93065952Y-94238666D01*
X93011190Y-94129142D01*
X93339761Y-95498190D02*
X93339761Y-95607714D01*
X93285000Y-95717238D01*
X93230238Y-95772000D01*
X93120714Y-95826761D01*
X92901666Y-95881523D01*
X92627857Y-95881523D01*
X92408809Y-95826761D01*
X92299285Y-95772000D01*
X92244523Y-95717238D01*
X92189761Y-95607714D01*
X92189761Y-95498190D01*
X92244523Y-95388666D01*
X92299285Y-95333904D01*
X92408809Y-95279142D01*
X92627857Y-95224380D01*
X92901666Y-95224380D01*
X93120714Y-95279142D01*
X93230238Y-95333904D01*
X93285000Y-95388666D01*
X93339761Y-95498190D01*
X92189761Y-96922000D02*
X92189761Y-96374380D01*
X93339761Y-96374380D01*
X92299285Y-97962476D02*
X92244523Y-97907714D01*
X92189761Y-97743428D01*
X92189761Y-97633904D01*
X92244523Y-97469619D01*
X92354047Y-97360095D01*
X92463571Y-97305333D01*
X92682619Y-97250571D01*
X92846904Y-97250571D01*
X93065952Y-97305333D01*
X93175476Y-97360095D01*
X93285000Y-97469619D01*
X93339761Y-97633904D01*
X93339761Y-97743428D01*
X93285000Y-97907714D01*
X93230238Y-97962476D01*
X92792142Y-98838666D02*
X92792142Y-98455333D01*
X92189761Y-98455333D02*
X93339761Y-98455333D01*
X93339761Y-99002952D01*
X92627857Y-99441047D02*
X92627857Y-100317238D01*
X92518333Y-100810095D02*
X92518333Y-101357714D01*
X92189761Y-100700571D02*
X93339761Y-101083904D01*
X92189761Y-101467238D01*
X118713428Y-115674857D02*
X119113428Y-116874857D01*
X119513428Y-115674857D01*
X120427714Y-116817714D02*
X120313428Y-116874857D01*
X120084857Y-116874857D01*
X119970571Y-116817714D01*
X119913428Y-116760571D01*
X119856285Y-116646285D01*
X119856285Y-116303428D01*
X119913428Y-116189142D01*
X119970571Y-116132000D01*
X120084857Y-116074857D01*
X120313428Y-116074857D01*
X120427714Y-116132000D01*
X121456285Y-116817714D02*
X121342000Y-116874857D01*
X121113428Y-116874857D01*
X120999142Y-116817714D01*
X120942000Y-116760571D01*
X120884857Y-116646285D01*
X120884857Y-116303428D01*
X120942000Y-116189142D01*
X120999142Y-116132000D01*
X121113428Y-116074857D01*
X121342000Y-116074857D01*
X121456285Y-116132000D01*
X121008857Y-101380857D02*
X120608857Y-100809428D01*
X120323142Y-101380857D02*
X120323142Y-100180857D01*
X120780285Y-100180857D01*
X120894571Y-100238000D01*
X120951714Y-100295142D01*
X121008857Y-100409428D01*
X121008857Y-100580857D01*
X120951714Y-100695142D01*
X120894571Y-100752285D01*
X120780285Y-100809428D01*
X120323142Y-100809428D01*
X121351714Y-100180857D02*
X122037428Y-100180857D01*
X121694571Y-101380857D02*
X121694571Y-100180857D01*
X122380285Y-101323714D02*
X122551714Y-101380857D01*
X122837428Y-101380857D01*
X122951714Y-101323714D01*
X123008857Y-101266571D01*
X123066000Y-101152285D01*
X123066000Y-101038000D01*
X123008857Y-100923714D01*
X122951714Y-100866571D01*
X122837428Y-100809428D01*
X122608857Y-100752285D01*
X122494571Y-100695142D01*
X122437428Y-100638000D01*
X122380285Y-100523714D01*
X122380285Y-100409428D01*
X122437428Y-100295142D01*
X122494571Y-100238000D01*
X122608857Y-100180857D01*
X122894571Y-100180857D01*
X123066000Y-100238000D01*
X120897857Y-78264000D02*
X120955000Y-78321142D01*
X121012142Y-78435428D01*
X121012142Y-78721142D01*
X120955000Y-78835428D01*
X120897857Y-78892571D01*
X120783571Y-78949714D01*
X120669285Y-78949714D01*
X120497857Y-78892571D01*
X119812142Y-78206857D01*
X119812142Y-78949714D01*
X120612142Y-79978285D02*
X119812142Y-79978285D01*
X121069285Y-79692571D02*
X120212142Y-79406857D01*
X120212142Y-80149714D01*
X119812142Y-81178285D02*
X119812142Y-80606857D01*
X121012142Y-80606857D01*
X119926428Y-82264000D02*
X119869285Y-82206857D01*
X119812142Y-82035428D01*
X119812142Y-81921142D01*
X119869285Y-81749714D01*
X119983571Y-81635428D01*
X120097857Y-81578285D01*
X120326428Y-81521142D01*
X120497857Y-81521142D01*
X120726428Y-81578285D01*
X120840714Y-81635428D01*
X120955000Y-81749714D01*
X121012142Y-81921142D01*
X121012142Y-82035428D01*
X120955000Y-82206857D01*
X120897857Y-82264000D01*
X117862142Y-78892571D02*
X117862142Y-78206857D01*
X117862142Y-78549714D02*
X119062142Y-78549714D01*
X118890714Y-78435428D01*
X118776428Y-78321142D01*
X118719285Y-78206857D01*
X119062142Y-79635428D02*
X119062142Y-79749714D01*
X119005000Y-79864000D01*
X118947857Y-79921142D01*
X118833571Y-79978285D01*
X118605000Y-80035428D01*
X118319285Y-80035428D01*
X118090714Y-79978285D01*
X117976428Y-79921142D01*
X117919285Y-79864000D01*
X117862142Y-79749714D01*
X117862142Y-79635428D01*
X117919285Y-79521142D01*
X117976428Y-79464000D01*
X118090714Y-79406857D01*
X118319285Y-79349714D01*
X118605000Y-79349714D01*
X118833571Y-79406857D01*
X118947857Y-79464000D01*
X119005000Y-79521142D01*
X119062142Y-79635428D01*
X118947857Y-80492571D02*
X119005000Y-80549714D01*
X119062142Y-80664000D01*
X119062142Y-80949714D01*
X119005000Y-81064000D01*
X118947857Y-81121142D01*
X118833571Y-81178285D01*
X118719285Y-81178285D01*
X118547857Y-81121142D01*
X117862142Y-80435428D01*
X117862142Y-81178285D01*
X119062142Y-82206857D02*
X119062142Y-81978285D01*
X119005000Y-81864000D01*
X118947857Y-81806857D01*
X118776428Y-81692571D01*
X118547857Y-81635428D01*
X118090714Y-81635428D01*
X117976428Y-81692571D01*
X117919285Y-81749714D01*
X117862142Y-81864000D01*
X117862142Y-82092571D01*
X117919285Y-82206857D01*
X117976428Y-82264000D01*
X118090714Y-82321142D01*
X118376428Y-82321142D01*
X118490714Y-82264000D01*
X118547857Y-82206857D01*
X118605000Y-82092571D01*
X118605000Y-81864000D01*
X118547857Y-81749714D01*
X118490714Y-81692571D01*
X118376428Y-81635428D01*
X106899142Y-82700000D02*
X108099142Y-82700000D01*
X108099142Y-83157142D01*
X108042000Y-83271428D01*
X107984857Y-83328571D01*
X107870571Y-83385714D01*
X107699142Y-83385714D01*
X107584857Y-83328571D01*
X107527714Y-83271428D01*
X107470571Y-83157142D01*
X107470571Y-82700000D01*
X106899142Y-83900000D02*
X108099142Y-83900000D01*
X107013428Y-85157142D02*
X106956285Y-85100000D01*
X106899142Y-84928571D01*
X106899142Y-84814285D01*
X106956285Y-84642857D01*
X107070571Y-84528571D01*
X107184857Y-84471428D01*
X107413428Y-84414285D01*
X107584857Y-84414285D01*
X107813428Y-84471428D01*
X107927714Y-84528571D01*
X108042000Y-84642857D01*
X108099142Y-84814285D01*
X108099142Y-84928571D01*
X108042000Y-85100000D01*
X107984857Y-85157142D01*
X106899142Y-87214285D02*
X106899142Y-86528571D01*
X106899142Y-86871428D02*
X108099142Y-86871428D01*
X107927714Y-86757142D01*
X107813428Y-86642857D01*
X107756285Y-86528571D01*
X107584857Y-87900000D02*
X107642000Y-87785714D01*
X107699142Y-87728571D01*
X107813428Y-87671428D01*
X107870571Y-87671428D01*
X107984857Y-87728571D01*
X108042000Y-87785714D01*
X108099142Y-87900000D01*
X108099142Y-88128571D01*
X108042000Y-88242857D01*
X107984857Y-88300000D01*
X107870571Y-88357142D01*
X107813428Y-88357142D01*
X107699142Y-88300000D01*
X107642000Y-88242857D01*
X107584857Y-88128571D01*
X107584857Y-87900000D01*
X107527714Y-87785714D01*
X107470571Y-87728571D01*
X107356285Y-87671428D01*
X107127714Y-87671428D01*
X107013428Y-87728571D01*
X106956285Y-87785714D01*
X106899142Y-87900000D01*
X106899142Y-88128571D01*
X106956285Y-88242857D01*
X107013428Y-88300000D01*
X107127714Y-88357142D01*
X107356285Y-88357142D01*
X107470571Y-88300000D01*
X107527714Y-88242857D01*
X107584857Y-88128571D01*
X107527714Y-89271428D02*
X107527714Y-88871428D01*
X106899142Y-88871428D02*
X108099142Y-88871428D01*
X108099142Y-89442857D01*
X107984857Y-89842857D02*
X108042000Y-89900000D01*
X108099142Y-90014285D01*
X108099142Y-90300000D01*
X108042000Y-90414285D01*
X107984857Y-90471428D01*
X107870571Y-90528571D01*
X107756285Y-90528571D01*
X107584857Y-90471428D01*
X106899142Y-89785714D01*
X106899142Y-90528571D01*
X108099142Y-91557142D02*
X108099142Y-91328571D01*
X108042000Y-91214285D01*
X107984857Y-91157142D01*
X107813428Y-91042857D01*
X107584857Y-90985714D01*
X107127714Y-90985714D01*
X107013428Y-91042857D01*
X106956285Y-91100000D01*
X106899142Y-91214285D01*
X106899142Y-91442857D01*
X106956285Y-91557142D01*
X107013428Y-91614285D01*
X107127714Y-91671428D01*
X107413428Y-91671428D01*
X107527714Y-91614285D01*
X107584857Y-91557142D01*
X107642000Y-91442857D01*
X107642000Y-91214285D01*
X107584857Y-91100000D01*
X107527714Y-91042857D01*
X107413428Y-90985714D01*
X106899142Y-92185714D02*
X108099142Y-92185714D01*
X106899142Y-92871428D02*
X107584857Y-92357142D01*
X108099142Y-92871428D02*
X107413428Y-92185714D01*
X108099142Y-93271428D02*
X108099142Y-94014285D01*
X107642000Y-93614285D01*
X107642000Y-93785714D01*
X107584857Y-93900000D01*
X107527714Y-93957142D01*
X107413428Y-94014285D01*
X107127714Y-94014285D01*
X107013428Y-93957142D01*
X106956285Y-93900000D01*
X106899142Y-93785714D01*
X106899142Y-93442857D01*
X106956285Y-93328571D01*
X107013428Y-93271428D01*
X108099142Y-94757142D02*
X108099142Y-94871428D01*
X108042000Y-94985714D01*
X107984857Y-95042857D01*
X107870571Y-95100000D01*
X107642000Y-95157142D01*
X107356285Y-95157142D01*
X107127714Y-95100000D01*
X107013428Y-95042857D01*
X106956285Y-94985714D01*
X106899142Y-94871428D01*
X106899142Y-94757142D01*
X106956285Y-94642857D01*
X107013428Y-94585714D01*
X107127714Y-94528571D01*
X107356285Y-94471428D01*
X107642000Y-94471428D01*
X107870571Y-94528571D01*
X107984857Y-94585714D01*
X108042000Y-94642857D01*
X108099142Y-94757142D01*
X88487428Y-108562857D02*
X88887428Y-109762857D01*
X89287428Y-108562857D01*
X90201714Y-109705714D02*
X90087428Y-109762857D01*
X89858857Y-109762857D01*
X89744571Y-109705714D01*
X89687428Y-109648571D01*
X89630285Y-109534285D01*
X89630285Y-109191428D01*
X89687428Y-109077142D01*
X89744571Y-109020000D01*
X89858857Y-108962857D01*
X90087428Y-108962857D01*
X90201714Y-109020000D01*
X91230285Y-109705714D02*
X91116000Y-109762857D01*
X90887428Y-109762857D01*
X90773142Y-109705714D01*
X90716000Y-109648571D01*
X90658857Y-109534285D01*
X90658857Y-109191428D01*
X90716000Y-109077142D01*
X90773142Y-109020000D01*
X90887428Y-108962857D01*
X91116000Y-108962857D01*
X91230285Y-109020000D01*
X88084000Y-81127428D02*
X88084000Y-80556000D01*
X88426857Y-81241714D02*
X87226857Y-80841714D01*
X88426857Y-80441714D01*
X88426857Y-80041714D02*
X87226857Y-80041714D01*
X88426857Y-79356000D01*
X87226857Y-79356000D01*
X87226857Y-78956000D02*
X87226857Y-78270285D01*
X88426857Y-78613142D02*
X87226857Y-78613142D01*
X81978571Y-76050857D02*
X82092857Y-76050857D01*
X82207142Y-76108000D01*
X82264285Y-76165142D01*
X82321428Y-76279428D01*
X82378571Y-76508000D01*
X82378571Y-76793714D01*
X82321428Y-77022285D01*
X82264285Y-77136571D01*
X82207142Y-77193714D01*
X82092857Y-77250857D01*
X81978571Y-77250857D01*
X81864285Y-77193714D01*
X81807142Y-77136571D01*
X81750000Y-77022285D01*
X81692857Y-76793714D01*
X81692857Y-76508000D01*
X81750000Y-76279428D01*
X81807142Y-76165142D01*
X81864285Y-76108000D01*
X81978571Y-76050857D01*
X82721428Y-76050857D02*
X83121428Y-77250857D01*
X83521428Y-76050857D01*
X84169428Y-76165142D02*
X84226571Y-76108000D01*
X84340857Y-76050857D01*
X84626571Y-76050857D01*
X84740857Y-76108000D01*
X84798000Y-76165142D01*
X84855142Y-76279428D01*
X84855142Y-76393714D01*
X84798000Y-76565142D01*
X84112285Y-77250857D01*
X84855142Y-77250857D01*
X85883714Y-76450857D02*
X85883714Y-77250857D01*
X85598000Y-75993714D02*
X85312285Y-76850857D01*
X86055142Y-76850857D01*
X86340857Y-76050857D02*
X86740857Y-77250857D01*
X87140857Y-76050857D01*
D12*
X124523428Y-100191142D02*
X124523428Y-100119714D01*
X124452000Y-100334000D02*
X124452000Y-100119714D01*
X124380571Y-100476857D02*
X124380571Y-100119714D01*
X124309142Y-100619714D02*
X124309142Y-100119714D01*
X124237714Y-100691142D02*
X124237714Y-100119714D01*
X124166285Y-100834000D02*
X124166285Y-100119714D01*
X124094857Y-100976857D02*
X124094857Y-100119714D01*
X124023428Y-101119714D02*
X124023428Y-100119714D01*
X123952000Y-101262571D02*
X123952000Y-100119714D01*
X123880571Y-101119714D02*
X123880571Y-100119714D01*
X123809142Y-100976857D02*
X123809142Y-100119714D01*
X123737714Y-100834000D02*
X123737714Y-100119714D01*
X123666285Y-100691142D02*
X123666285Y-100119714D01*
X123594857Y-100619714D02*
X123594857Y-100119714D01*
X123523428Y-100476857D02*
X123523428Y-100119714D01*
X123452000Y-100334000D02*
X123452000Y-100119714D01*
X123380571Y-100119714D02*
X123952000Y-101191142D01*
X124523428Y-100119714D01*
X123380571Y-100191142D02*
X123380571Y-100119714D01*
X123952000Y-101262571D02*
X123309142Y-100119714D01*
X124594857Y-100119714D01*
X123952000Y-101262571D01*
X95948571Y-75029142D02*
X95948571Y-75100571D01*
X96020000Y-74886285D02*
X96020000Y-75100571D01*
X96091428Y-74743428D02*
X96091428Y-75100571D01*
X96162857Y-74600571D02*
X96162857Y-75100571D01*
X96234285Y-74529142D02*
X96234285Y-75100571D01*
X96305714Y-74386285D02*
X96305714Y-75100571D01*
X96377142Y-74243428D02*
X96377142Y-75100571D01*
X96448571Y-74100571D02*
X96448571Y-75100571D01*
X96520000Y-73957714D02*
X96520000Y-75100571D01*
X96591428Y-74100571D02*
X96591428Y-75100571D01*
X96662857Y-74243428D02*
X96662857Y-75100571D01*
X96734285Y-74386285D02*
X96734285Y-75100571D01*
X96805714Y-74529142D02*
X96805714Y-75100571D01*
X96877142Y-74600571D02*
X96877142Y-75100571D01*
X96948571Y-74743428D02*
X96948571Y-75100571D01*
X97020000Y-74886285D02*
X97020000Y-75100571D01*
X97091428Y-75100571D02*
X96520000Y-74029142D01*
X95948571Y-75100571D01*
X97091428Y-75029142D02*
X97091428Y-75100571D01*
X96520000Y-73957714D02*
X97162857Y-75100571D01*
X95877142Y-75100571D01*
X96520000Y-73957714D01*
D11*
X121561142Y-111684000D02*
X120589714Y-111684000D01*
X120475428Y-111741142D01*
X120418285Y-111798285D01*
X120361142Y-111912571D01*
X120361142Y-112141142D01*
X120418285Y-112255428D01*
X120475428Y-112312571D01*
X120589714Y-112369714D01*
X121561142Y-112369714D01*
X120361142Y-113455428D02*
X120989714Y-113455428D01*
X121104000Y-113398285D01*
X121161142Y-113284000D01*
X121161142Y-113055428D01*
X121104000Y-112941142D01*
X120418285Y-113455428D02*
X120361142Y-113341142D01*
X120361142Y-113055428D01*
X120418285Y-112941142D01*
X120532571Y-112884000D01*
X120646857Y-112884000D01*
X120761142Y-112941142D01*
X120818285Y-113055428D01*
X120818285Y-113341142D01*
X120875428Y-113455428D01*
X120361142Y-114026857D02*
X121161142Y-114026857D01*
X120932571Y-114026857D02*
X121046857Y-114084000D01*
X121104000Y-114141142D01*
X121161142Y-114255428D01*
X121161142Y-114369714D01*
X121161142Y-114598285D02*
X121161142Y-115055428D01*
X121561142Y-114769714D02*
X120532571Y-114769714D01*
X120418285Y-114826857D01*
X120361142Y-114941142D01*
X120361142Y-115055428D01*
X89373142Y-92266285D02*
X89944571Y-91866285D01*
X89373142Y-91580571D02*
X90573142Y-91580571D01*
X90573142Y-92037714D01*
X90516000Y-92152000D01*
X90458857Y-92209142D01*
X90344571Y-92266285D01*
X90173142Y-92266285D01*
X90058857Y-92209142D01*
X90001714Y-92152000D01*
X89944571Y-92037714D01*
X89944571Y-91580571D01*
X89430285Y-93237714D02*
X89373142Y-93123428D01*
X89373142Y-92894857D01*
X89430285Y-92780571D01*
X89544571Y-92723428D01*
X90001714Y-92723428D01*
X90116000Y-92780571D01*
X90173142Y-92894857D01*
X90173142Y-93123428D01*
X90116000Y-93237714D01*
X90001714Y-93294857D01*
X89887428Y-93294857D01*
X89773142Y-92723428D01*
X90630285Y-93123428D02*
X90458857Y-92952000D01*
X89430285Y-94323428D02*
X89373142Y-94209142D01*
X89373142Y-93980571D01*
X89430285Y-93866285D01*
X89487428Y-93809142D01*
X89601714Y-93752000D01*
X89944571Y-93752000D01*
X90058857Y-93809142D01*
X90116000Y-93866285D01*
X90173142Y-93980571D01*
X90173142Y-94209142D01*
X90116000Y-94323428D01*
X89430285Y-95294857D02*
X89373142Y-95180571D01*
X89373142Y-94952000D01*
X89430285Y-94837714D01*
X89544571Y-94780571D01*
X90001714Y-94780571D01*
X90116000Y-94837714D01*
X90173142Y-94952000D01*
X90173142Y-95180571D01*
X90116000Y-95294857D01*
X90001714Y-95352000D01*
X89887428Y-95352000D01*
X89773142Y-94780571D01*
X90173142Y-95866285D02*
X88973142Y-95866285D01*
X90116000Y-95866285D02*
X90173142Y-95980571D01*
X90173142Y-96209142D01*
X90116000Y-96323428D01*
X90058857Y-96380571D01*
X89944571Y-96437714D01*
X89601714Y-96437714D01*
X89487428Y-96380571D01*
X89430285Y-96323428D01*
X89373142Y-96209142D01*
X89373142Y-95980571D01*
X89430285Y-95866285D01*
X90173142Y-96780571D02*
X90173142Y-97237714D01*
X90573142Y-96952000D02*
X89544571Y-96952000D01*
X89430285Y-97009142D01*
X89373142Y-97123428D01*
X89373142Y-97237714D01*
X89430285Y-98094857D02*
X89373142Y-97980571D01*
X89373142Y-97752000D01*
X89430285Y-97637714D01*
X89544571Y-97580571D01*
X90001714Y-97580571D01*
X90116000Y-97637714D01*
X90173142Y-97752000D01*
X90173142Y-97980571D01*
X90116000Y-98094857D01*
X90001714Y-98152000D01*
X89887428Y-98152000D01*
X89773142Y-97580571D01*
X90173142Y-99180571D02*
X89373142Y-99180571D01*
X90173142Y-98666285D02*
X89544571Y-98666285D01*
X89430285Y-98723428D01*
X89373142Y-98837714D01*
X89373142Y-99009142D01*
X89430285Y-99123428D01*
X89487428Y-99180571D01*
X89373142Y-99752000D02*
X90173142Y-99752000D01*
X89944571Y-99752000D02*
X90058857Y-99809142D01*
X90116000Y-99866285D01*
X90173142Y-99980571D01*
X90173142Y-100094857D01*
X89373142Y-102094857D02*
X89944571Y-101694857D01*
X89373142Y-101409142D02*
X90573142Y-101409142D01*
X90573142Y-101866285D01*
X90516000Y-101980571D01*
X90458857Y-102037714D01*
X90344571Y-102094857D01*
X90173142Y-102094857D01*
X90058857Y-102037714D01*
X90001714Y-101980571D01*
X89944571Y-101866285D01*
X89944571Y-101409142D01*
X90573142Y-102494857D02*
X89373142Y-103294857D01*
X90573142Y-103294857D02*
X89373142Y-102494857D01*
X90001714Y-104152000D02*
X89944571Y-104323428D01*
X89887428Y-104380571D01*
X89773142Y-104437714D01*
X89601714Y-104437714D01*
X89487428Y-104380571D01*
X89430285Y-104323428D01*
X89373142Y-104209142D01*
X89373142Y-103752000D01*
X90573142Y-103752000D01*
X90573142Y-104152000D01*
X90516000Y-104266285D01*
X90458857Y-104323428D01*
X90344571Y-104380571D01*
X90230285Y-104380571D01*
X90116000Y-104323428D01*
X90058857Y-104266285D01*
X90001714Y-104152000D01*
X90001714Y-103752000D01*
X90573142Y-105466285D02*
X90573142Y-105237714D01*
X90516000Y-105123428D01*
X90458857Y-105066285D01*
X90287428Y-104952000D01*
X90058857Y-104894857D01*
X89601714Y-104894857D01*
X89487428Y-104952000D01*
X89430285Y-105009142D01*
X89373142Y-105123428D01*
X89373142Y-105352000D01*
X89430285Y-105466285D01*
X89487428Y-105523428D01*
X89601714Y-105580571D01*
X89887428Y-105580571D01*
X90001714Y-105523428D01*
X90058857Y-105466285D01*
X90116000Y-105352000D01*
X90116000Y-105123428D01*
X90058857Y-105009142D01*
X90001714Y-104952000D01*
X89887428Y-104894857D01*
X87427142Y-71878857D02*
X87427142Y-73078857D01*
X87427142Y-71936000D02*
X87541428Y-71878857D01*
X87770000Y-71878857D01*
X87884285Y-71936000D01*
X87941428Y-71993142D01*
X87998571Y-72107428D01*
X87998571Y-72450285D01*
X87941428Y-72564571D01*
X87884285Y-72621714D01*
X87770000Y-72678857D01*
X87541428Y-72678857D01*
X87427142Y-72621714D01*
X88512857Y-72678857D02*
X88512857Y-71878857D01*
X88512857Y-71478857D02*
X88455714Y-71536000D01*
X88512857Y-71593142D01*
X88570000Y-71536000D01*
X88512857Y-71478857D01*
X88512857Y-71593142D01*
X89598571Y-72621714D02*
X89484285Y-72678857D01*
X89255714Y-72678857D01*
X89141428Y-72621714D01*
X89084285Y-72564571D01*
X89027142Y-72450285D01*
X89027142Y-72107428D01*
X89084285Y-71993142D01*
X89141428Y-71936000D01*
X89255714Y-71878857D01*
X89484285Y-71878857D01*
X89598571Y-71936000D01*
X90112857Y-72678857D02*
X90112857Y-71478857D01*
X90227142Y-72221714D02*
X90570000Y-72678857D01*
X90570000Y-71878857D02*
X90112857Y-72336000D01*
X91084285Y-72678857D02*
X91084285Y-71878857D01*
X91084285Y-71478857D02*
X91027142Y-71536000D01*
X91084285Y-71593142D01*
X91141428Y-71536000D01*
X91084285Y-71478857D01*
X91084285Y-71593142D01*
X91484285Y-71878857D02*
X91941428Y-71878857D01*
X91655714Y-71478857D02*
X91655714Y-72507428D01*
X91712857Y-72621714D01*
X91827142Y-72678857D01*
X91941428Y-72678857D01*
X92912857Y-71478857D02*
X92341428Y-71478857D01*
X92284285Y-72050285D01*
X92341428Y-71993142D01*
X92455714Y-71936000D01*
X92741428Y-71936000D01*
X92855714Y-71993142D01*
X92912857Y-72050285D01*
X92970000Y-72164571D01*
X92970000Y-72450285D01*
X92912857Y-72564571D01*
X92855714Y-72621714D01*
X92741428Y-72678857D01*
X92455714Y-72678857D01*
X92341428Y-72621714D01*
X92284285Y-72564571D01*
D13*
%TO.C,J2*%
X81220000Y-77410000D02*
X81220000Y-80070000D01*
X83820000Y-77410000D02*
X81220000Y-77410000D01*
X83820000Y-80070000D02*
X81220000Y-80070000D01*
X83820000Y-77410000D02*
X83820000Y-80070000D01*
X85090000Y-77410000D02*
X86420000Y-77410000D01*
X86420000Y-77410000D02*
X86420000Y-78740000D01*
%TO.C,D3*%
X93888000Y-76908000D02*
X93888000Y-73968000D01*
X93648000Y-76908000D02*
X93648000Y-73968000D01*
X93768000Y-76908000D02*
X93768000Y-73968000D01*
X89228000Y-73968000D02*
X89228000Y-74098000D01*
X94668000Y-73968000D02*
X89228000Y-73968000D01*
X94668000Y-74098000D02*
X94668000Y-73968000D01*
X89228000Y-76908000D02*
X89228000Y-76778000D01*
X94668000Y-76908000D02*
X89228000Y-76908000D01*
X94668000Y-76778000D02*
X94668000Y-76908000D01*
%TO.C,J10*%
X91246000Y-118110000D02*
X88586000Y-118110000D01*
X91246000Y-118110000D02*
X91246000Y-110430000D01*
X91246000Y-110430000D02*
X88586000Y-110430000D01*
X88586000Y-118110000D02*
X88586000Y-110430000D01*
X88586000Y-120710000D02*
X88586000Y-119380000D01*
X89916000Y-120710000D02*
X88586000Y-120710000D01*
%TO.C,J9*%
X93786000Y-82804000D02*
X91126000Y-82804000D01*
X93786000Y-82804000D02*
X93786000Y-77664000D01*
X93786000Y-77664000D02*
X91126000Y-77664000D01*
X91126000Y-82804000D02*
X91126000Y-77664000D01*
X91126000Y-85404000D02*
X91126000Y-84074000D01*
X92456000Y-85404000D02*
X91126000Y-85404000D01*
%TO.C,J4*%
X93786000Y-106426000D02*
X91126000Y-106426000D01*
X93786000Y-106426000D02*
X93786000Y-103826000D01*
X93786000Y-103826000D02*
X91126000Y-103826000D01*
X91126000Y-106426000D02*
X91126000Y-103826000D01*
X91126000Y-109026000D02*
X91126000Y-107696000D01*
X92456000Y-109026000D02*
X91126000Y-109026000D01*
%TO.C,J3*%
X91246000Y-85344000D02*
X88586000Y-85344000D01*
X91246000Y-85344000D02*
X91246000Y-77664000D01*
X91246000Y-77664000D02*
X88586000Y-77664000D01*
X88586000Y-85344000D02*
X88586000Y-77664000D01*
X88586000Y-87944000D02*
X88586000Y-86614000D01*
X89916000Y-87944000D02*
X88586000Y-87944000D01*
%TO.C,J1*%
X115630000Y-73466000D02*
X115630000Y-70806000D01*
X97790000Y-73466000D02*
X115630000Y-73466000D01*
X97790000Y-70806000D02*
X115630000Y-70806000D01*
X97790000Y-73466000D02*
X97790000Y-70806000D01*
X96520000Y-73466000D02*
X95190000Y-73466000D01*
X95190000Y-73466000D02*
X95190000Y-72136000D01*
%TO.C,R1*%
X99287064Y-76935000D02*
X98832936Y-76935000D01*
X99287064Y-75465000D02*
X98832936Y-75465000D01*
%TO.C,U3*%
X118380000Y-74616000D02*
X117130000Y-74616000D01*
X117130000Y-74616000D02*
X117130000Y-84896000D01*
X117130000Y-84896000D02*
X121630000Y-84896000D01*
X121630000Y-84896000D02*
X121630000Y-74616000D01*
X121630000Y-74616000D02*
X120380000Y-74616000D01*
X114130000Y-74556000D02*
X114130000Y-84956000D01*
X114130000Y-84956000D02*
X124630000Y-84956000D01*
X124630000Y-84956000D02*
X124630000Y-74556000D01*
X124630000Y-74556000D02*
X114130000Y-74556000D01*
X120380000Y-74616000D02*
G75*
G02*
X118380000Y-74616000I-1000000J0D01*
G01*
%TO.C,JP1*%
X122446000Y-72090000D02*
X122446000Y-72690000D01*
X118996000Y-71390000D02*
X121796000Y-71390000D01*
X118346000Y-72690000D02*
X118346000Y-72090000D01*
X121796000Y-73390000D02*
X118996000Y-73390000D01*
X122446000Y-72690000D02*
G75*
G02*
X121746000Y-73390000I-700000J0D01*
G01*
X121746000Y-71390000D02*
G75*
G02*
X122446000Y-72090000I0J-700000D01*
G01*
X118346000Y-72090000D02*
G75*
G02*
X119046000Y-71390000I700000J0D01*
G01*
X119046000Y-73390000D02*
G75*
G02*
X118346000Y-72690000I0J700000D01*
G01*
%TO.C,R2*%
X121820000Y-98044000D02*
X121750000Y-98044000D01*
X124560000Y-98044000D02*
G75*
G03*
X124560000Y-98044000I-1370000J0D01*
G01*
%TO.C,D5*%
X117574635Y-116332000D02*
G75*
G03*
X117574635Y-116332000I-1750635J0D01*
G01*
X115824000Y-118082635D02*
X115824000Y-118742000D01*
%TO.C,D1*%
X117294000Y-103198000D02*
X114354000Y-103198000D01*
X114354000Y-103198000D02*
X114354000Y-108638000D01*
X114354000Y-108638000D02*
X117294000Y-108638000D01*
X117294000Y-108638000D02*
X117294000Y-103198000D01*
X115824000Y-100908000D02*
X115824000Y-103198000D01*
X115824000Y-110928000D02*
X115824000Y-108638000D01*
X117294000Y-104098000D02*
X114354000Y-104098000D01*
X117294000Y-104218000D02*
X114354000Y-104218000D01*
X117294000Y-103978000D02*
X114354000Y-103978000D01*
%TO.C,R6*%
X119607064Y-109755000D02*
X119152936Y-109755000D01*
X119607064Y-111225000D02*
X119152936Y-111225000D01*
%TO.C,D7*%
X97864000Y-114862000D02*
X97864000Y-117802000D01*
X97864000Y-117802000D02*
X103304000Y-117802000D01*
X103304000Y-117802000D02*
X103304000Y-114862000D01*
X103304000Y-114862000D02*
X97864000Y-114862000D01*
X96844000Y-116332000D02*
X97864000Y-116332000D01*
X104324000Y-116332000D02*
X103304000Y-116332000D01*
X98764000Y-114862000D02*
X98764000Y-117802000D01*
X98884000Y-114862000D02*
X98884000Y-117802000D01*
X98644000Y-114862000D02*
X98644000Y-117802000D01*
%TO.C,Y1*%
X96789000Y-98385000D02*
X96789000Y-104635000D01*
X101839000Y-98385000D02*
X101839000Y-104635000D01*
X96789000Y-104635000D02*
G75*
G03*
X101839000Y-104635000I2525000J0D01*
G01*
X96789000Y-98385000D02*
G75*
G02*
X101839000Y-98385000I2525000J0D01*
G01*
%TO.C,U4*%
X102435000Y-117888000D02*
X102435000Y-119398000D01*
X98734000Y-117888000D02*
X98734000Y-119398000D01*
X95464000Y-119398000D02*
X105704000Y-119398000D01*
X105704000Y-117888000D02*
X105704000Y-122529000D01*
X95464000Y-117888000D02*
X95464000Y-122529000D01*
X95464000Y-122529000D02*
X105704000Y-122529000D01*
X95464000Y-117888000D02*
X105704000Y-117888000D01*
%TO.C,U2*%
X112946000Y-78874000D02*
X102446000Y-78874000D01*
X112946000Y-114674000D02*
X112946000Y-78874000D01*
X102446000Y-114674000D02*
X112946000Y-114674000D01*
X102446000Y-78874000D02*
X102446000Y-114674000D01*
X109946000Y-78934000D02*
X108696000Y-78934000D01*
X109946000Y-114614000D02*
X109946000Y-78934000D01*
X105446000Y-114614000D02*
X109946000Y-114614000D01*
X105446000Y-78934000D02*
X105446000Y-114614000D01*
X106696000Y-78934000D02*
X105446000Y-78934000D01*
X108696000Y-78934000D02*
G75*
G02*
X106696000Y-78934000I-1000000J0D01*
G01*
%TO.C,U1*%
X108436000Y-122500000D02*
X112036000Y-122500000D01*
X112560184Y-121772795D02*
G75*
G02*
X112036000Y-122500000I-2324184J1122795D01*
G01*
X112592400Y-119551193D02*
G75*
G03*
X110236000Y-118050000I-2356400J-1098807D01*
G01*
X107879600Y-119551193D02*
G75*
G02*
X110236000Y-118050000I2356400J-1098807D01*
G01*
X107911816Y-121772795D02*
G75*
G03*
X108436000Y-122500000I2324184J1122795D01*
G01*
%TO.C,SW1*%
X115556000Y-95778000D02*
X114556000Y-95778000D01*
X114556000Y-95778000D02*
X114556000Y-94778000D01*
X116556000Y-93778000D02*
X119156000Y-93778000D01*
X116556000Y-87578000D02*
X119156000Y-87578000D01*
X121106000Y-87678000D02*
X121106000Y-93678000D01*
X114606000Y-87778000D02*
X114606000Y-93578000D01*
%TO.C,R7*%
X119607064Y-107215000D02*
X119152936Y-107215000D01*
X119607064Y-108685000D02*
X119152936Y-108685000D01*
%TO.C,R4*%
X119607064Y-102135000D02*
X119152936Y-102135000D01*
X119607064Y-103605000D02*
X119152936Y-103605000D01*
%TO.C,R3*%
X123190000Y-87530000D02*
X123190000Y-87460000D01*
X124560000Y-88900000D02*
G75*
G03*
X124560000Y-88900000I-1370000J0D01*
G01*
%TO.C,Q1*%
X101164000Y-88414000D02*
X101164000Y-84814000D01*
X100436795Y-84289816D02*
G75*
G02*
X101164000Y-84814000I-1122795J-2324184D01*
G01*
X98215193Y-84257600D02*
G75*
G03*
X96714000Y-86614000I1098807J-2356400D01*
G01*
X98215193Y-88970400D02*
G75*
G02*
X96714000Y-86614000I1098807J2356400D01*
G01*
X100436795Y-88938184D02*
G75*
G03*
X101164000Y-88414000I-1122795J2324184D01*
G01*
%TO.C,K1*%
X83664000Y-87322000D02*
X84364000Y-86922000D01*
X84364000Y-87722000D02*
X84364000Y-86522000D01*
X84364000Y-86522000D02*
X83664000Y-86522000D01*
X83664000Y-86522000D02*
X83664000Y-87722000D01*
X83664000Y-87722000D02*
X84364000Y-87722000D01*
X79964000Y-87952000D02*
X79964000Y-85612000D01*
X79964000Y-85612000D02*
X82154000Y-85612000D01*
X87964000Y-85832000D02*
X80184000Y-85832000D01*
X87964000Y-101112000D02*
X80184000Y-101112000D01*
X80184000Y-85852000D02*
X80184000Y-101112000D01*
X87964000Y-85832000D02*
X87964000Y-101112000D01*
%TO.C,J8*%
X99060000Y-110430000D02*
X100390000Y-110430000D01*
X100390000Y-110430000D02*
X100390000Y-111760000D01*
X100390000Y-112970000D02*
X100390000Y-113090000D01*
X97730000Y-112970000D02*
X97730000Y-113090000D01*
X97730000Y-113090000D02*
X100390000Y-113090000D01*
%TO.C,J7*%
X87884000Y-112014000D02*
X87884000Y-101854000D01*
X80264000Y-112014000D02*
X87884000Y-112014000D01*
X80264000Y-101854000D02*
X80264000Y-112014000D01*
X87884000Y-101854000D02*
X80264000Y-101854000D01*
X86614000Y-101854000D02*
X86614000Y-112014000D01*
%TO.C,J6*%
X87884000Y-122428000D02*
X87884000Y-112268000D01*
X80264000Y-122428000D02*
X87884000Y-122428000D01*
X80264000Y-112268000D02*
X80264000Y-122428000D01*
X87884000Y-112268000D02*
X80264000Y-112268000D01*
X86614000Y-112268000D02*
X86614000Y-122428000D01*
%TO.C,J5*%
X123190000Y-101540000D02*
X124520000Y-101540000D01*
X124520000Y-101540000D02*
X124520000Y-102870000D01*
X124520000Y-104140000D02*
X124520000Y-116900000D01*
X121860000Y-116900000D02*
X124520000Y-116900000D01*
X121860000Y-104140000D02*
X121860000Y-116900000D01*
X121860000Y-104140000D02*
X124520000Y-104140000D01*
%TO.C,D6*%
X84600449Y-84479366D02*
G75*
G03*
X84540847Y-82212000I1251551J1167366D01*
G01*
%TO.C,D4*%
X106898000Y-77280000D02*
X106898000Y-77436000D01*
X106898000Y-74964000D02*
X106898000Y-75120000D01*
X109499130Y-77279837D02*
G75*
G02*
X107417039Y-77280000I-1041130J1079837D01*
G01*
X109499130Y-75120163D02*
G75*
G03*
X107417039Y-75120000I-1041130J-1079837D01*
G01*
X110130335Y-77278608D02*
G75*
G02*
X106898000Y-77435516I-1672335J1078608D01*
G01*
X110130335Y-75121392D02*
G75*
G03*
X106898000Y-74964484I-1672335J-1078608D01*
G01*
%TO.C,D2*%
X99416634Y-80028449D02*
G75*
G03*
X101684000Y-79968847I1167366J-1251551D01*
G01*
%TO.C,C3*%
X98331000Y-90964000D02*
X98956000Y-90964000D01*
X96116000Y-90964000D02*
X96741000Y-90964000D01*
X98331000Y-95004000D02*
X98956000Y-95004000D01*
X96116000Y-95004000D02*
X96741000Y-95004000D01*
X98956000Y-95004000D02*
X98956000Y-90964000D01*
X96116000Y-95004000D02*
X96116000Y-90964000D01*
%TO.C,C2*%
X101379000Y-90964000D02*
X102004000Y-90964000D01*
X99164000Y-90964000D02*
X99789000Y-90964000D01*
X101379000Y-95004000D02*
X102004000Y-95004000D01*
X99164000Y-95004000D02*
X99789000Y-95004000D01*
X102004000Y-95004000D02*
X102004000Y-90964000D01*
X99164000Y-95004000D02*
X99164000Y-90964000D01*
%TO.C,J2*%
D11*
X85518666Y-80224380D02*
X85518666Y-80938666D01*
X85471047Y-81081523D01*
X85375809Y-81176761D01*
X85232952Y-81224380D01*
X85137714Y-81224380D01*
X85947238Y-80319619D02*
X85994857Y-80272000D01*
X86090095Y-80224380D01*
X86328190Y-80224380D01*
X86423428Y-80272000D01*
X86471047Y-80319619D01*
X86518666Y-80414857D01*
X86518666Y-80510095D01*
X86471047Y-80652952D01*
X85899619Y-81224380D01*
X86518666Y-81224380D01*
%TO.C,D3*%
X87399904Y-74112380D02*
X87399904Y-73112380D01*
X87638000Y-73112380D01*
X87780857Y-73160000D01*
X87876095Y-73255238D01*
X87923714Y-73350476D01*
X87971333Y-73540952D01*
X87971333Y-73683809D01*
X87923714Y-73874285D01*
X87876095Y-73969523D01*
X87780857Y-74064761D01*
X87638000Y-74112380D01*
X87399904Y-74112380D01*
X88304666Y-73112380D02*
X88923714Y-73112380D01*
X88590380Y-73493333D01*
X88733238Y-73493333D01*
X88828476Y-73540952D01*
X88876095Y-73588571D01*
X88923714Y-73683809D01*
X88923714Y-73921904D01*
X88876095Y-74017142D01*
X88828476Y-74064761D01*
X88733238Y-74112380D01*
X88447523Y-74112380D01*
X88352285Y-74064761D01*
X88304666Y-74017142D01*
X95496095Y-77990380D02*
X95496095Y-76990380D01*
X96067523Y-77990380D02*
X95638952Y-77418952D01*
X96067523Y-76990380D02*
X95496095Y-77561809D01*
%TO.C,J10*%
X91646476Y-119594380D02*
X91646476Y-120308666D01*
X91598857Y-120451523D01*
X91503619Y-120546761D01*
X91360761Y-120594380D01*
X91265523Y-120594380D01*
X92646476Y-120594380D02*
X92075047Y-120594380D01*
X92360761Y-120594380D02*
X92360761Y-119594380D01*
X92265523Y-119737238D01*
X92170285Y-119832476D01*
X92075047Y-119880095D01*
X93265523Y-119594380D02*
X93360761Y-119594380D01*
X93456000Y-119642000D01*
X93503619Y-119689619D01*
X93551238Y-119784857D01*
X93598857Y-119975333D01*
X93598857Y-120213428D01*
X93551238Y-120403904D01*
X93503619Y-120499142D01*
X93456000Y-120546761D01*
X93360761Y-120594380D01*
X93265523Y-120594380D01*
X93170285Y-120546761D01*
X93122666Y-120499142D01*
X93075047Y-120403904D01*
X93027428Y-120213428D01*
X93027428Y-119975333D01*
X93075047Y-119784857D01*
X93122666Y-119689619D01*
X93170285Y-119642000D01*
X93265523Y-119594380D01*
%TO.C,J9*%
X94154666Y-83526380D02*
X94154666Y-84240666D01*
X94107047Y-84383523D01*
X94011809Y-84478761D01*
X93868952Y-84526380D01*
X93773714Y-84526380D01*
X94678476Y-84526380D02*
X94868952Y-84526380D01*
X94964190Y-84478761D01*
X95011809Y-84431142D01*
X95107047Y-84288285D01*
X95154666Y-84097809D01*
X95154666Y-83716857D01*
X95107047Y-83621619D01*
X95059428Y-83574000D01*
X94964190Y-83526380D01*
X94773714Y-83526380D01*
X94678476Y-83574000D01*
X94630857Y-83621619D01*
X94583238Y-83716857D01*
X94583238Y-83954952D01*
X94630857Y-84050190D01*
X94678476Y-84097809D01*
X94773714Y-84145428D01*
X94964190Y-84145428D01*
X95059428Y-84097809D01*
X95107047Y-84050190D01*
X95154666Y-83954952D01*
%TO.C,J4*%
X92884666Y-109180380D02*
X92884666Y-109894666D01*
X92837047Y-110037523D01*
X92741809Y-110132761D01*
X92598952Y-110180380D01*
X92503714Y-110180380D01*
X93789428Y-109513714D02*
X93789428Y-110180380D01*
X93551333Y-109132761D02*
X93313238Y-109847047D01*
X93932285Y-109847047D01*
%TO.C,J3*%
X89582666Y-88098380D02*
X89582666Y-88812666D01*
X89535047Y-88955523D01*
X89439809Y-89050761D01*
X89296952Y-89098380D01*
X89201714Y-89098380D01*
X89963619Y-88098380D02*
X90582666Y-88098380D01*
X90249333Y-88479333D01*
X90392190Y-88479333D01*
X90487428Y-88526952D01*
X90535047Y-88574571D01*
X90582666Y-88669809D01*
X90582666Y-88907904D01*
X90535047Y-89003142D01*
X90487428Y-89050761D01*
X90392190Y-89098380D01*
X90106476Y-89098380D01*
X90011238Y-89050761D01*
X89963619Y-89003142D01*
%TO.C,J1*%
X93642380Y-72469333D02*
X94356666Y-72469333D01*
X94499523Y-72516952D01*
X94594761Y-72612190D01*
X94642380Y-72755047D01*
X94642380Y-72850285D01*
X94642380Y-71469333D02*
X94642380Y-72040761D01*
X94642380Y-71755047D02*
X93642380Y-71755047D01*
X93785238Y-71850285D01*
X93880476Y-71945523D01*
X93928095Y-72040761D01*
%TO.C,R1*%
X98893333Y-75128380D02*
X98560000Y-74652190D01*
X98321904Y-75128380D02*
X98321904Y-74128380D01*
X98702857Y-74128380D01*
X98798095Y-74176000D01*
X98845714Y-74223619D01*
X98893333Y-74318857D01*
X98893333Y-74461714D01*
X98845714Y-74556952D01*
X98798095Y-74604571D01*
X98702857Y-74652190D01*
X98321904Y-74652190D01*
X99845714Y-75128380D02*
X99274285Y-75128380D01*
X99560000Y-75128380D02*
X99560000Y-74128380D01*
X99464761Y-74271238D01*
X99369523Y-74366476D01*
X99274285Y-74414095D01*
%TO.C,U3*%
X122936095Y-73366380D02*
X122936095Y-74175904D01*
X122983714Y-74271142D01*
X123031333Y-74318761D01*
X123126571Y-74366380D01*
X123317047Y-74366380D01*
X123412285Y-74318761D01*
X123459904Y-74271142D01*
X123507523Y-74175904D01*
X123507523Y-73366380D01*
X123888476Y-73366380D02*
X124507523Y-73366380D01*
X124174190Y-73747333D01*
X124317047Y-73747333D01*
X124412285Y-73794952D01*
X124459904Y-73842571D01*
X124507523Y-73937809D01*
X124507523Y-74175904D01*
X124459904Y-74271142D01*
X124412285Y-74318761D01*
X124317047Y-74366380D01*
X124031333Y-74366380D01*
X123936095Y-74318761D01*
X123888476Y-74271142D01*
%TO.C,JP1*%
X116514666Y-70318380D02*
X116514666Y-71032666D01*
X116467047Y-71175523D01*
X116371809Y-71270761D01*
X116228952Y-71318380D01*
X116133714Y-71318380D01*
X116990857Y-71318380D02*
X116990857Y-70318380D01*
X117371809Y-70318380D01*
X117467047Y-70366000D01*
X117514666Y-70413619D01*
X117562285Y-70508857D01*
X117562285Y-70651714D01*
X117514666Y-70746952D01*
X117467047Y-70794571D01*
X117371809Y-70842190D01*
X116990857Y-70842190D01*
X118514666Y-71318380D02*
X117943238Y-71318380D01*
X118228952Y-71318380D02*
X118228952Y-70318380D01*
X118133714Y-70461238D01*
X118038476Y-70556476D01*
X117943238Y-70604095D01*
X123281714Y-72080380D02*
X122710285Y-72080380D01*
X122996000Y-72080380D02*
X122996000Y-71080380D01*
X122900761Y-71223238D01*
X122805523Y-71318476D01*
X122710285Y-71366095D01*
X117462666Y-72604380D02*
X118081714Y-72604380D01*
X117748380Y-72985333D01*
X117891238Y-72985333D01*
X117986476Y-73032952D01*
X118034095Y-73080571D01*
X118081714Y-73175809D01*
X118081714Y-73413904D01*
X118034095Y-73509142D01*
X117986476Y-73556761D01*
X117891238Y-73604380D01*
X117605523Y-73604380D01*
X117510285Y-73556761D01*
X117462666Y-73509142D01*
%TO.C,R2*%
X122515333Y-96464380D02*
X122182000Y-95988190D01*
X121943904Y-96464380D02*
X121943904Y-95464380D01*
X122324857Y-95464380D01*
X122420095Y-95512000D01*
X122467714Y-95559619D01*
X122515333Y-95654857D01*
X122515333Y-95797714D01*
X122467714Y-95892952D01*
X122420095Y-95940571D01*
X122324857Y-95988190D01*
X121943904Y-95988190D01*
X122896285Y-95559619D02*
X122943904Y-95512000D01*
X123039142Y-95464380D01*
X123277238Y-95464380D01*
X123372476Y-95512000D01*
X123420095Y-95559619D01*
X123467714Y-95654857D01*
X123467714Y-95750095D01*
X123420095Y-95892952D01*
X122848666Y-96464380D01*
X123467714Y-96464380D01*
%TO.C,D5*%
X112291904Y-116530380D02*
X112291904Y-115530380D01*
X112530000Y-115530380D01*
X112672857Y-115578000D01*
X112768095Y-115673238D01*
X112815714Y-115768476D01*
X112863333Y-115958952D01*
X112863333Y-116101809D01*
X112815714Y-116292285D01*
X112768095Y-116387523D01*
X112672857Y-116482761D01*
X112530000Y-116530380D01*
X112291904Y-116530380D01*
X113768095Y-115530380D02*
X113291904Y-115530380D01*
X113244285Y-116006571D01*
X113291904Y-115958952D01*
X113387142Y-115911333D01*
X113625238Y-115911333D01*
X113720476Y-115958952D01*
X113768095Y-116006571D01*
X113815714Y-116101809D01*
X113815714Y-116339904D01*
X113768095Y-116435142D01*
X113720476Y-116482761D01*
X113625238Y-116530380D01*
X113387142Y-116530380D01*
X113291904Y-116482761D01*
X113244285Y-116435142D01*
X117109904Y-114720666D02*
X117586095Y-114720666D01*
X117014666Y-115006380D02*
X117348000Y-114006380D01*
X117681333Y-115006380D01*
%TO.C,D1*%
X117625904Y-99258380D02*
X117625904Y-98258380D01*
X117864000Y-98258380D01*
X118006857Y-98306000D01*
X118102095Y-98401238D01*
X118149714Y-98496476D01*
X118197333Y-98686952D01*
X118197333Y-98829809D01*
X118149714Y-99020285D01*
X118102095Y-99115523D01*
X118006857Y-99210761D01*
X117864000Y-99258380D01*
X117625904Y-99258380D01*
X119149714Y-99258380D02*
X118578285Y-99258380D01*
X118864000Y-99258380D02*
X118864000Y-98258380D01*
X118768761Y-98401238D01*
X118673523Y-98496476D01*
X118578285Y-98544095D01*
X117594095Y-100782380D02*
X117594095Y-99782380D01*
X118165523Y-100782380D02*
X117736952Y-100210952D01*
X118165523Y-99782380D02*
X117594095Y-100353809D01*
%TO.C,R6*%
X118451333Y-112720380D02*
X118118000Y-112244190D01*
X117879904Y-112720380D02*
X117879904Y-111720380D01*
X118260857Y-111720380D01*
X118356095Y-111768000D01*
X118403714Y-111815619D01*
X118451333Y-111910857D01*
X118451333Y-112053714D01*
X118403714Y-112148952D01*
X118356095Y-112196571D01*
X118260857Y-112244190D01*
X117879904Y-112244190D01*
X119308476Y-111720380D02*
X119118000Y-111720380D01*
X119022761Y-111768000D01*
X118975142Y-111815619D01*
X118879904Y-111958476D01*
X118832285Y-112148952D01*
X118832285Y-112529904D01*
X118879904Y-112625142D01*
X118927523Y-112672761D01*
X119022761Y-112720380D01*
X119213238Y-112720380D01*
X119308476Y-112672761D01*
X119356095Y-112625142D01*
X119403714Y-112529904D01*
X119403714Y-112291809D01*
X119356095Y-112196571D01*
X119308476Y-112148952D01*
X119213238Y-112101333D01*
X119022761Y-112101333D01*
X118927523Y-112148952D01*
X118879904Y-112196571D01*
X118832285Y-112291809D01*
%TO.C,D7*%
X99845904Y-114314380D02*
X99845904Y-113314380D01*
X100084000Y-113314380D01*
X100226857Y-113362000D01*
X100322095Y-113457238D01*
X100369714Y-113552476D01*
X100417333Y-113742952D01*
X100417333Y-113885809D01*
X100369714Y-114076285D01*
X100322095Y-114171523D01*
X100226857Y-114266761D01*
X100084000Y-114314380D01*
X99845904Y-114314380D01*
X100750666Y-113314380D02*
X101417333Y-113314380D01*
X100988761Y-114314380D01*
X94734095Y-119070380D02*
X94734095Y-118070380D01*
X95305523Y-119070380D02*
X94876952Y-118498952D01*
X95305523Y-118070380D02*
X94734095Y-118641809D01*
%TO.C,Y1*%
X101123809Y-107672190D02*
X101123809Y-108148380D01*
X100790476Y-107148380D02*
X101123809Y-107672190D01*
X101457142Y-107148380D01*
X102314285Y-108148380D02*
X101742857Y-108148380D01*
X102028571Y-108148380D02*
X102028571Y-107148380D01*
X101933333Y-107291238D01*
X101838095Y-107386476D01*
X101742857Y-107434095D01*
%TO.C,U4*%
X93472095Y-121372380D02*
X93472095Y-122181904D01*
X93519714Y-122277142D01*
X93567333Y-122324761D01*
X93662571Y-122372380D01*
X93853047Y-122372380D01*
X93948285Y-122324761D01*
X93995904Y-122277142D01*
X94043523Y-122181904D01*
X94043523Y-121372380D01*
X94948285Y-121705714D02*
X94948285Y-122372380D01*
X94710190Y-121324761D02*
X94472095Y-122039047D01*
X95091142Y-122039047D01*
%TO.C,U2*%
X103124095Y-77430380D02*
X103124095Y-78239904D01*
X103171714Y-78335142D01*
X103219333Y-78382761D01*
X103314571Y-78430380D01*
X103505047Y-78430380D01*
X103600285Y-78382761D01*
X103647904Y-78335142D01*
X103695523Y-78239904D01*
X103695523Y-77430380D01*
X104124095Y-77525619D02*
X104171714Y-77478000D01*
X104266952Y-77430380D01*
X104505047Y-77430380D01*
X104600285Y-77478000D01*
X104647904Y-77525619D01*
X104695523Y-77620857D01*
X104695523Y-77716095D01*
X104647904Y-77858952D01*
X104076476Y-78430380D01*
X104695523Y-78430380D01*
%TO.C,U1*%
X109474095Y-116542380D02*
X109474095Y-117351904D01*
X109521714Y-117447142D01*
X109569333Y-117494761D01*
X109664571Y-117542380D01*
X109855047Y-117542380D01*
X109950285Y-117494761D01*
X109997904Y-117447142D01*
X110045523Y-117351904D01*
X110045523Y-116542380D01*
X111045523Y-117542380D02*
X110474095Y-117542380D01*
X110759809Y-117542380D02*
X110759809Y-116542380D01*
X110664571Y-116685238D01*
X110569333Y-116780476D01*
X110474095Y-116828095D01*
%TO.C,SW1*%
X121348666Y-94892761D02*
X121491523Y-94940380D01*
X121729619Y-94940380D01*
X121824857Y-94892761D01*
X121872476Y-94845142D01*
X121920095Y-94749904D01*
X121920095Y-94654666D01*
X121872476Y-94559428D01*
X121824857Y-94511809D01*
X121729619Y-94464190D01*
X121539142Y-94416571D01*
X121443904Y-94368952D01*
X121396285Y-94321333D01*
X121348666Y-94226095D01*
X121348666Y-94130857D01*
X121396285Y-94035619D01*
X121443904Y-93988000D01*
X121539142Y-93940380D01*
X121777238Y-93940380D01*
X121920095Y-93988000D01*
X122253428Y-93940380D02*
X122491523Y-94940380D01*
X122682000Y-94226095D01*
X122872476Y-94940380D01*
X123110571Y-93940380D01*
X124015333Y-94940380D02*
X123443904Y-94940380D01*
X123729619Y-94940380D02*
X123729619Y-93940380D01*
X123634380Y-94083238D01*
X123539142Y-94178476D01*
X123443904Y-94226095D01*
%TO.C,R7*%
X119213333Y-106878380D02*
X118880000Y-106402190D01*
X118641904Y-106878380D02*
X118641904Y-105878380D01*
X119022857Y-105878380D01*
X119118095Y-105926000D01*
X119165714Y-105973619D01*
X119213333Y-106068857D01*
X119213333Y-106211714D01*
X119165714Y-106306952D01*
X119118095Y-106354571D01*
X119022857Y-106402190D01*
X118641904Y-106402190D01*
X119546666Y-105878380D02*
X120213333Y-105878380D01*
X119784761Y-106878380D01*
%TO.C,R4*%
X119213333Y-104592380D02*
X118880000Y-104116190D01*
X118641904Y-104592380D02*
X118641904Y-103592380D01*
X119022857Y-103592380D01*
X119118095Y-103640000D01*
X119165714Y-103687619D01*
X119213333Y-103782857D01*
X119213333Y-103925714D01*
X119165714Y-104020952D01*
X119118095Y-104068571D01*
X119022857Y-104116190D01*
X118641904Y-104116190D01*
X120070476Y-103925714D02*
X120070476Y-104592380D01*
X119832380Y-103544761D02*
X119594285Y-104259047D01*
X120213333Y-104259047D01*
%TO.C,R3*%
X123023333Y-91638380D02*
X122690000Y-91162190D01*
X122451904Y-91638380D02*
X122451904Y-90638380D01*
X122832857Y-90638380D01*
X122928095Y-90686000D01*
X122975714Y-90733619D01*
X123023333Y-90828857D01*
X123023333Y-90971714D01*
X122975714Y-91066952D01*
X122928095Y-91114571D01*
X122832857Y-91162190D01*
X122451904Y-91162190D01*
X123356666Y-90638380D02*
X123975714Y-90638380D01*
X123642380Y-91019333D01*
X123785238Y-91019333D01*
X123880476Y-91066952D01*
X123928095Y-91114571D01*
X123975714Y-91209809D01*
X123975714Y-91447904D01*
X123928095Y-91543142D01*
X123880476Y-91590761D01*
X123785238Y-91638380D01*
X123499523Y-91638380D01*
X123404285Y-91590761D01*
X123356666Y-91543142D01*
%TO.C,Q1*%
X96932761Y-84367619D02*
X96837523Y-84320000D01*
X96742285Y-84224761D01*
X96599428Y-84081904D01*
X96504190Y-84034285D01*
X96408952Y-84034285D01*
X96456571Y-84272380D02*
X96361333Y-84224761D01*
X96266095Y-84129523D01*
X96218476Y-83939047D01*
X96218476Y-83605714D01*
X96266095Y-83415238D01*
X96361333Y-83320000D01*
X96456571Y-83272380D01*
X96647047Y-83272380D01*
X96742285Y-83320000D01*
X96837523Y-83415238D01*
X96885142Y-83605714D01*
X96885142Y-83939047D01*
X96837523Y-84129523D01*
X96742285Y-84224761D01*
X96647047Y-84272380D01*
X96456571Y-84272380D01*
X97837523Y-84272380D02*
X97266095Y-84272380D01*
X97551809Y-84272380D02*
X97551809Y-83272380D01*
X97456571Y-83415238D01*
X97361333Y-83510476D01*
X97266095Y-83558095D01*
%TO.C,K1*%
X88415904Y-90876380D02*
X88415904Y-89876380D01*
X88987333Y-90876380D02*
X88558761Y-90304952D01*
X88987333Y-89876380D02*
X88415904Y-90447809D01*
X89939714Y-90876380D02*
X89368285Y-90876380D01*
X89654000Y-90876380D02*
X89654000Y-89876380D01*
X89558761Y-90019238D01*
X89463523Y-90114476D01*
X89368285Y-90162095D01*
%TO.C,J8*%
X99234666Y-108926380D02*
X99234666Y-109640666D01*
X99187047Y-109783523D01*
X99091809Y-109878761D01*
X98948952Y-109926380D01*
X98853714Y-109926380D01*
X99853714Y-109354952D02*
X99758476Y-109307333D01*
X99710857Y-109259714D01*
X99663238Y-109164476D01*
X99663238Y-109116857D01*
X99710857Y-109021619D01*
X99758476Y-108974000D01*
X99853714Y-108926380D01*
X100044190Y-108926380D01*
X100139428Y-108974000D01*
X100187047Y-109021619D01*
X100234666Y-109116857D01*
X100234666Y-109164476D01*
X100187047Y-109259714D01*
X100139428Y-109307333D01*
X100044190Y-109354952D01*
X99853714Y-109354952D01*
X99758476Y-109402571D01*
X99710857Y-109450190D01*
X99663238Y-109545428D01*
X99663238Y-109735904D01*
X99710857Y-109831142D01*
X99758476Y-109878761D01*
X99853714Y-109926380D01*
X100044190Y-109926380D01*
X100139428Y-109878761D01*
X100187047Y-109831142D01*
X100234666Y-109735904D01*
X100234666Y-109545428D01*
X100187047Y-109450190D01*
X100139428Y-109402571D01*
X100044190Y-109354952D01*
%TO.C,J7*%
X88566666Y-106640380D02*
X88566666Y-107354666D01*
X88519047Y-107497523D01*
X88423809Y-107592761D01*
X88280952Y-107640380D01*
X88185714Y-107640380D01*
X88947619Y-106640380D02*
X89614285Y-106640380D01*
X89185714Y-107640380D01*
%TO.C,J6*%
X88312666Y-121372380D02*
X88312666Y-122086666D01*
X88265047Y-122229523D01*
X88169809Y-122324761D01*
X88026952Y-122372380D01*
X87931714Y-122372380D01*
X89217428Y-121372380D02*
X89026952Y-121372380D01*
X88931714Y-121420000D01*
X88884095Y-121467619D01*
X88788857Y-121610476D01*
X88741238Y-121800952D01*
X88741238Y-122181904D01*
X88788857Y-122277142D01*
X88836476Y-122324761D01*
X88931714Y-122372380D01*
X89122190Y-122372380D01*
X89217428Y-122324761D01*
X89265047Y-122277142D01*
X89312666Y-122181904D01*
X89312666Y-121943809D01*
X89265047Y-121848571D01*
X89217428Y-121800952D01*
X89122190Y-121753333D01*
X88931714Y-121753333D01*
X88836476Y-121800952D01*
X88788857Y-121848571D01*
X88741238Y-121943809D01*
%TO.C,J5*%
X123618666Y-117054380D02*
X123618666Y-117768666D01*
X123571047Y-117911523D01*
X123475809Y-118006761D01*
X123332952Y-118054380D01*
X123237714Y-118054380D01*
X124571047Y-117054380D02*
X124094857Y-117054380D01*
X124047238Y-117530571D01*
X124094857Y-117482952D01*
X124190095Y-117435333D01*
X124428190Y-117435333D01*
X124523428Y-117482952D01*
X124571047Y-117530571D01*
X124618666Y-117625809D01*
X124618666Y-117863904D01*
X124571047Y-117959142D01*
X124523428Y-118006761D01*
X124428190Y-118054380D01*
X124190095Y-118054380D01*
X124094857Y-118006761D01*
X124047238Y-117959142D01*
%TO.C,D6*%
X82319904Y-81732380D02*
X82319904Y-80732380D01*
X82558000Y-80732380D01*
X82700857Y-80780000D01*
X82796095Y-80875238D01*
X82843714Y-80970476D01*
X82891333Y-81160952D01*
X82891333Y-81303809D01*
X82843714Y-81494285D01*
X82796095Y-81589523D01*
X82700857Y-81684761D01*
X82558000Y-81732380D01*
X82319904Y-81732380D01*
X83748476Y-80732380D02*
X83558000Y-80732380D01*
X83462761Y-80780000D01*
X83415142Y-80827619D01*
X83319904Y-80970476D01*
X83272285Y-81160952D01*
X83272285Y-81541904D01*
X83319904Y-81637142D01*
X83367523Y-81684761D01*
X83462761Y-81732380D01*
X83653238Y-81732380D01*
X83748476Y-81684761D01*
X83796095Y-81637142D01*
X83843714Y-81541904D01*
X83843714Y-81303809D01*
X83796095Y-81208571D01*
X83748476Y-81160952D01*
X83653238Y-81113333D01*
X83462761Y-81113333D01*
X83367523Y-81160952D01*
X83319904Y-81208571D01*
X83272285Y-81303809D01*
X80950095Y-83764380D02*
X80950095Y-82764380D01*
X81521523Y-83764380D02*
X81092952Y-83192952D01*
X81521523Y-82764380D02*
X80950095Y-83335809D01*
%TO.C,D4*%
X111021904Y-78430380D02*
X111021904Y-77430380D01*
X111260000Y-77430380D01*
X111402857Y-77478000D01*
X111498095Y-77573238D01*
X111545714Y-77668476D01*
X111593333Y-77858952D01*
X111593333Y-78001809D01*
X111545714Y-78192285D01*
X111498095Y-78287523D01*
X111402857Y-78382761D01*
X111260000Y-78430380D01*
X111021904Y-78430380D01*
X112450476Y-77763714D02*
X112450476Y-78430380D01*
X112212380Y-77382761D02*
X111974285Y-78097047D01*
X112593333Y-78097047D01*
%TO.C,D2*%
X97051904Y-81732380D02*
X97051904Y-80732380D01*
X97290000Y-80732380D01*
X97432857Y-80780000D01*
X97528095Y-80875238D01*
X97575714Y-80970476D01*
X97623333Y-81160952D01*
X97623333Y-81303809D01*
X97575714Y-81494285D01*
X97528095Y-81589523D01*
X97432857Y-81684761D01*
X97290000Y-81732380D01*
X97051904Y-81732380D01*
X98004285Y-80827619D02*
X98051904Y-80780000D01*
X98147142Y-80732380D01*
X98385238Y-80732380D01*
X98480476Y-80780000D01*
X98528095Y-80827619D01*
X98575714Y-80922857D01*
X98575714Y-81018095D01*
X98528095Y-81160952D01*
X97956666Y-81732380D01*
X98575714Y-81732380D01*
X98290095Y-79192380D02*
X98290095Y-78192380D01*
X98861523Y-79192380D02*
X98432952Y-78620952D01*
X98861523Y-78192380D02*
X98290095Y-78763809D01*
%TO.C,C3*%
X97877333Y-90527142D02*
X97829714Y-90574761D01*
X97686857Y-90622380D01*
X97591619Y-90622380D01*
X97448761Y-90574761D01*
X97353523Y-90479523D01*
X97305904Y-90384285D01*
X97258285Y-90193809D01*
X97258285Y-90050952D01*
X97305904Y-89860476D01*
X97353523Y-89765238D01*
X97448761Y-89670000D01*
X97591619Y-89622380D01*
X97686857Y-89622380D01*
X97829714Y-89670000D01*
X97877333Y-89717619D01*
X98210666Y-89622380D02*
X98829714Y-89622380D01*
X98496380Y-90003333D01*
X98639238Y-90003333D01*
X98734476Y-90050952D01*
X98782095Y-90098571D01*
X98829714Y-90193809D01*
X98829714Y-90431904D01*
X98782095Y-90527142D01*
X98734476Y-90574761D01*
X98639238Y-90622380D01*
X98353523Y-90622380D01*
X98258285Y-90574761D01*
X98210666Y-90527142D01*
%TO.C,C2*%
X100925333Y-90527142D02*
X100877714Y-90574761D01*
X100734857Y-90622380D01*
X100639619Y-90622380D01*
X100496761Y-90574761D01*
X100401523Y-90479523D01*
X100353904Y-90384285D01*
X100306285Y-90193809D01*
X100306285Y-90050952D01*
X100353904Y-89860476D01*
X100401523Y-89765238D01*
X100496761Y-89670000D01*
X100639619Y-89622380D01*
X100734857Y-89622380D01*
X100877714Y-89670000D01*
X100925333Y-89717619D01*
X101306285Y-89717619D02*
X101353904Y-89670000D01*
X101449142Y-89622380D01*
X101687238Y-89622380D01*
X101782476Y-89670000D01*
X101830095Y-89717619D01*
X101877714Y-89812857D01*
X101877714Y-89908095D01*
X101830095Y-90050952D01*
X101258666Y-90622380D01*
X101877714Y-90622380D01*
%TD*%
M02*
