%TF.GenerationSoftware,KiCad,Pcbnew,(5.1.12)-1*%
%TF.CreationDate,2025-05-30T10:09:50+02:00*%
%TF.ProjectId,telecommande,74656c65-636f-46d6-9d61-6e64652e6b69,rev?*%
%TF.SameCoordinates,Original*%
%TF.FileFunction,Copper,L1,Top*%
%TF.FilePolarity,Positive*%
%FSLAX46Y46*%
G04 Gerber Fmt 4.6, Leading zero omitted, Abs format (unit mm)*
G04 Created by KiCad (PCBNEW (5.1.12)-1) date 2025-05-30 10:09:50*
%MOMM*%
%LPD*%
G01*
G04 APERTURE LIST*
%TA.AperFunction,ComponentPad*%
%ADD10O,1.700000X1.700000*%
%TD*%
%TA.AperFunction,ComponentPad*%
%ADD11R,1.700000X1.700000*%
%TD*%
%TA.AperFunction,ComponentPad*%
%ADD12O,2.400000X1.600000*%
%TD*%
%TA.AperFunction,ComponentPad*%
%ADD13R,2.400000X1.600000*%
%TD*%
%TA.AperFunction,SMDPad,CuDef*%
%ADD14R,1.000000X1.500000*%
%TD*%
%TA.AperFunction,SMDPad,CuDef*%
%ADD15C,0.100000*%
%TD*%
%TA.AperFunction,ComponentPad*%
%ADD16O,1.600000X1.600000*%
%TD*%
%TA.AperFunction,ComponentPad*%
%ADD17C,1.600000*%
%TD*%
%TA.AperFunction,ComponentPad*%
%ADD18O,2.200000X2.200000*%
%TD*%
%TA.AperFunction,ComponentPad*%
%ADD19R,2.200000X2.200000*%
%TD*%
%TA.AperFunction,ComponentPad*%
%ADD20C,1.500000*%
%TD*%
%TA.AperFunction,ComponentPad*%
%ADD21O,1.905000X2.000000*%
%TD*%
%TA.AperFunction,ComponentPad*%
%ADD22R,1.905000X2.000000*%
%TD*%
%TA.AperFunction,ComponentPad*%
%ADD23R,1.500000X1.500000*%
%TD*%
%TA.AperFunction,SMDPad,CuDef*%
%ADD24R,1.400000X1.600000*%
%TD*%
%TA.AperFunction,ComponentPad*%
%ADD25C,3.000000*%
%TD*%
%TA.AperFunction,ComponentPad*%
%ADD26R,3.000000X3.000000*%
%TD*%
%TA.AperFunction,ComponentPad*%
%ADD27C,1.800000*%
%TD*%
%TA.AperFunction,ComponentPad*%
%ADD28R,1.800000X1.800000*%
%TD*%
%TA.AperFunction,ViaPad*%
%ADD29C,0.800000*%
%TD*%
%TA.AperFunction,Conductor*%
%ADD30C,0.450000*%
%TD*%
%TA.AperFunction,Conductor*%
%ADD31C,0.300000*%
%TD*%
%TA.AperFunction,Conductor*%
%ADD32C,0.254000*%
%TD*%
%TA.AperFunction,Conductor*%
%ADD33C,0.100000*%
%TD*%
G04 APERTURE END LIST*
D10*
%TO.P,J1,8*%
%TO.N,N/C*%
X114300000Y-72136000D03*
%TO.P,J1,7*%
X111760000Y-72136000D03*
%TO.P,J1,6*%
X109220000Y-72136000D03*
%TO.P,J1,5*%
%TO.N,/PGC*%
X106680000Y-72136000D03*
%TO.P,J1,4*%
%TO.N,/PGD*%
X104140000Y-72136000D03*
%TO.P,J1,3*%
%TO.N,GND*%
X101600000Y-72136000D03*
%TO.P,J1,2*%
%TO.N,/TVDD*%
X99060000Y-72136000D03*
D11*
%TO.P,J1,1*%
%TO.N,/MCLR*%
X96520000Y-72136000D03*
%TD*%
%TO.P,R1,2*%
%TO.N,/LED*%
%TA.AperFunction,SMDPad,CuDef*%
G36*
G01*
X98660000Y-76257999D02*
X98660000Y-77158001D01*
G75*
G02*
X98410001Y-77408000I-249999J0D01*
G01*
X97709999Y-77408000D01*
G75*
G02*
X97460000Y-77158001I0J249999D01*
G01*
X97460000Y-76257999D01*
G75*
G02*
X97709999Y-76008000I249999J0D01*
G01*
X98410001Y-76008000D01*
G75*
G02*
X98660000Y-76257999I0J-249999D01*
G01*
G37*
%TD.AperFunction*%
%TO.P,R1,1*%
%TO.N,Net-(D4-Pad1)*%
%TA.AperFunction,SMDPad,CuDef*%
G36*
G01*
X100660000Y-76257999D02*
X100660000Y-77158001D01*
G75*
G02*
X100410001Y-77408000I-249999J0D01*
G01*
X99709999Y-77408000D01*
G75*
G02*
X99460000Y-77158001I0J249999D01*
G01*
X99460000Y-76257999D01*
G75*
G02*
X99709999Y-76008000I249999J0D01*
G01*
X100410001Y-76008000D01*
G75*
G02*
X100660000Y-76257999I0J-249999D01*
G01*
G37*
%TD.AperFunction*%
%TD*%
D12*
%TO.P,U3,8*%
%TO.N,/VDD*%
X123190000Y-75946000D03*
%TO.P,U3,4*%
%TO.N,GND*%
X115570000Y-83566000D03*
%TO.P,U3,7*%
%TO.N,Net-(JP1-Pad2)*%
X123190000Y-78486000D03*
%TO.P,U3,3*%
%TO.N,GND*%
X115570000Y-81026000D03*
%TO.P,U3,6*%
%TO.N,Net-(R2-Pad2)*%
X123190000Y-81026000D03*
%TO.P,U3,2*%
%TO.N,GND*%
X115570000Y-78486000D03*
%TO.P,U3,5*%
%TO.N,Net-(R3-Pad2)*%
X123190000Y-83566000D03*
D13*
%TO.P,U3,1*%
%TO.N,N/C*%
X115570000Y-75946000D03*
%TD*%
D14*
%TO.P,JP1,2*%
%TO.N,Net-(JP1-Pad2)*%
X120396000Y-72390000D03*
%TA.AperFunction,SMDPad,CuDef*%
D15*
%TO.P,JP1,3*%
%TO.N,GND*%
G36*
X119096000Y-73139398D02*
G01*
X119071466Y-73139398D01*
X119022635Y-73134588D01*
X118974510Y-73125016D01*
X118927555Y-73110772D01*
X118882222Y-73091995D01*
X118838949Y-73068864D01*
X118798150Y-73041604D01*
X118760221Y-73010476D01*
X118725524Y-72975779D01*
X118694396Y-72937850D01*
X118667136Y-72897051D01*
X118644005Y-72853778D01*
X118625228Y-72808445D01*
X118610984Y-72761490D01*
X118601412Y-72713365D01*
X118596602Y-72664534D01*
X118596602Y-72640000D01*
X118596000Y-72640000D01*
X118596000Y-72140000D01*
X118596602Y-72140000D01*
X118596602Y-72115466D01*
X118601412Y-72066635D01*
X118610984Y-72018510D01*
X118625228Y-71971555D01*
X118644005Y-71926222D01*
X118667136Y-71882949D01*
X118694396Y-71842150D01*
X118725524Y-71804221D01*
X118760221Y-71769524D01*
X118798150Y-71738396D01*
X118838949Y-71711136D01*
X118882222Y-71688005D01*
X118927555Y-71669228D01*
X118974510Y-71654984D01*
X119022635Y-71645412D01*
X119071466Y-71640602D01*
X119096000Y-71640602D01*
X119096000Y-71640000D01*
X119646000Y-71640000D01*
X119646000Y-73140000D01*
X119096000Y-73140000D01*
X119096000Y-73139398D01*
G37*
%TD.AperFunction*%
%TA.AperFunction,SMDPad,CuDef*%
%TO.P,JP1,1*%
%TO.N,/VDD*%
G36*
X121146000Y-71640000D02*
G01*
X121696000Y-71640000D01*
X121696000Y-71640602D01*
X121720534Y-71640602D01*
X121769365Y-71645412D01*
X121817490Y-71654984D01*
X121864445Y-71669228D01*
X121909778Y-71688005D01*
X121953051Y-71711136D01*
X121993850Y-71738396D01*
X122031779Y-71769524D01*
X122066476Y-71804221D01*
X122097604Y-71842150D01*
X122124864Y-71882949D01*
X122147995Y-71926222D01*
X122166772Y-71971555D01*
X122181016Y-72018510D01*
X122190588Y-72066635D01*
X122195398Y-72115466D01*
X122195398Y-72140000D01*
X122196000Y-72140000D01*
X122196000Y-72640000D01*
X122195398Y-72640000D01*
X122195398Y-72664534D01*
X122190588Y-72713365D01*
X122181016Y-72761490D01*
X122166772Y-72808445D01*
X122147995Y-72853778D01*
X122124864Y-72897051D01*
X122097604Y-72937850D01*
X122066476Y-72975779D01*
X122031779Y-73010476D01*
X121993850Y-73041604D01*
X121953051Y-73068864D01*
X121909778Y-73091995D01*
X121864445Y-73110772D01*
X121817490Y-73125016D01*
X121769365Y-73134588D01*
X121720534Y-73139398D01*
X121696000Y-73139398D01*
X121696000Y-73140000D01*
X121146000Y-73140000D01*
X121146000Y-71640000D01*
G37*
%TD.AperFunction*%
%TD*%
D16*
%TO.P,R2,2*%
%TO.N,Net-(R2-Pad2)*%
X120650000Y-98044000D03*
D17*
%TO.P,R2,1*%
%TO.N,/SCL*%
X123190000Y-98044000D03*
%TD*%
D18*
%TO.P,D5,2*%
%TO.N,/VCC*%
X115824000Y-120142000D03*
D19*
%TO.P,D5,1*%
%TO.N,/12VR*%
X115824000Y-116332000D03*
%TD*%
D18*
%TO.P,D1,2*%
%TO.N,/VCC*%
X115824000Y-112268000D03*
D19*
%TO.P,D1,1*%
%TO.N,/VDD*%
X115824000Y-99568000D03*
%TD*%
%TO.P,R6,2*%
%TO.N,Net-(R6-Pad2)*%
%TA.AperFunction,SMDPad,CuDef*%
G36*
G01*
X118980000Y-110039999D02*
X118980000Y-110940001D01*
G75*
G02*
X118730001Y-111190000I-249999J0D01*
G01*
X118029999Y-111190000D01*
G75*
G02*
X117780000Y-110940001I0J249999D01*
G01*
X117780000Y-110039999D01*
G75*
G02*
X118029999Y-109790000I249999J0D01*
G01*
X118730001Y-109790000D01*
G75*
G02*
X118980000Y-110039999I0J-249999D01*
G01*
G37*
%TD.AperFunction*%
%TO.P,R6,1*%
%TO.N,/TX1*%
%TA.AperFunction,SMDPad,CuDef*%
G36*
G01*
X120980000Y-110039999D02*
X120980000Y-110940001D01*
G75*
G02*
X120730001Y-111190000I-249999J0D01*
G01*
X120029999Y-111190000D01*
G75*
G02*
X119780000Y-110940001I0J249999D01*
G01*
X119780000Y-110039999D01*
G75*
G02*
X120029999Y-109790000I249999J0D01*
G01*
X120730001Y-109790000D01*
G75*
G02*
X120980000Y-110039999I0J-249999D01*
G01*
G37*
%TD.AperFunction*%
%TD*%
D18*
%TO.P,D7,2*%
%TO.N,/12VR*%
X105664000Y-116332000D03*
D19*
%TO.P,D7,1*%
%TO.N,Net-(C8-Pad1)*%
X95504000Y-116332000D03*
%TD*%
D18*
%TO.P,D3,2*%
%TO.N,Net-(D3-Pad2)*%
X94742000Y-102870000D03*
D19*
%TO.P,D3,1*%
%TO.N,Net-(C8-Pad1)*%
X94742000Y-113030000D03*
%TD*%
D20*
%TO.P,Y1,2*%
%TO.N,Net-(C3-Pad1)*%
X99314000Y-103960000D03*
%TO.P,Y1,1*%
%TO.N,Net-(C2-Pad1)*%
X99314000Y-99060000D03*
%TD*%
D21*
%TO.P,U4,3*%
%TO.N,/12VR*%
X103124000Y-121158000D03*
%TO.P,U4,2*%
%TO.N,GND*%
X100584000Y-121158000D03*
D22*
%TO.P,U4,1*%
%TO.N,Net-(C8-Pad1)*%
X98044000Y-121158000D03*
%TD*%
D12*
%TO.P,U2,28*%
%TO.N,/PGD*%
X111506000Y-80264000D03*
%TO.P,U2,14*%
%TO.N,/SCL*%
X103886000Y-113284000D03*
%TO.P,U2,27*%
%TO.N,/PGC*%
X111506000Y-82804000D03*
%TO.P,U2,13*%
%TO.N,Net-(R5-Pad2)*%
X103886000Y-110744000D03*
%TO.P,U2,26*%
%TO.N,N/C*%
X111506000Y-85344000D03*
%TO.P,U2,12*%
%TO.N,Net-(R4-Pad2)*%
X103886000Y-108204000D03*
%TO.P,U2,25*%
%TO.N,/RX*%
X111506000Y-87884000D03*
%TO.P,U2,11*%
%TO.N,/LED*%
X103886000Y-105664000D03*
%TO.P,U2,24*%
%TO.N,N/C*%
X111506000Y-90424000D03*
%TO.P,U2,10*%
%TO.N,Net-(C3-Pad1)*%
X103886000Y-103124000D03*
%TO.P,U2,23*%
%TO.N,/Bp1*%
X111506000Y-92964000D03*
%TO.P,U2,9*%
%TO.N,Net-(C2-Pad1)*%
X103886000Y-100584000D03*
%TO.P,U2,22*%
%TO.N,N/C*%
X111506000Y-95504000D03*
%TO.P,U2,8*%
%TO.N,GND*%
X103886000Y-98044000D03*
%TO.P,U2,21*%
%TO.N,N/C*%
X111506000Y-98044000D03*
%TO.P,U2,7*%
%TO.N,/Rel1*%
X103886000Y-95504000D03*
%TO.P,U2,20*%
%TO.N,/VDD*%
X111506000Y-100584000D03*
%TO.P,U2,6*%
%TO.N,Net-(C5-Pad1)*%
X103886000Y-92964000D03*
%TO.P,U2,19*%
%TO.N,GND*%
X111506000Y-103124000D03*
%TO.P,U2,5*%
%TO.N,N/C*%
X103886000Y-90424000D03*
%TO.P,U2,18*%
%TO.N,Net-(R7-Pad2)*%
X111506000Y-105664000D03*
%TO.P,U2,4*%
%TO.N,N/C*%
X103886000Y-87884000D03*
%TO.P,U2,17*%
%TO.N,Net-(R6-Pad2)*%
X111506000Y-108204000D03*
%TO.P,U2,3*%
%TO.N,N/C*%
X103886000Y-85344000D03*
%TO.P,U2,16*%
X111506000Y-110744000D03*
%TO.P,U2,2*%
X103886000Y-82804000D03*
%TO.P,U2,15*%
%TO.N,/SDA*%
X111506000Y-113284000D03*
D13*
%TO.P,U2,1*%
%TO.N,/MCLR*%
X103886000Y-80264000D03*
%TD*%
D23*
%TO.P,U1,1*%
%TO.N,/VCC*%
X107696000Y-120650000D03*
D20*
%TO.P,U1,3*%
%TO.N,/12VR*%
X112776000Y-120650000D03*
%TO.P,U1,2*%
%TO.N,GND*%
X110236000Y-120650000D03*
%TD*%
D24*
%TO.P,SW1,3*%
%TO.N,GND*%
X120106000Y-94678000D03*
%TO.P,SW1,4*%
X120106000Y-86678000D03*
%TO.P,SW1,1*%
%TO.N,/Bp1*%
X115606000Y-94678000D03*
%TO.P,SW1,2*%
X115606000Y-86678000D03*
%TD*%
%TO.P,R7,2*%
%TO.N,Net-(R7-Pad2)*%
%TA.AperFunction,SMDPad,CuDef*%
G36*
G01*
X118980000Y-107499999D02*
X118980000Y-108400001D01*
G75*
G02*
X118730001Y-108650000I-249999J0D01*
G01*
X118029999Y-108650000D01*
G75*
G02*
X117780000Y-108400001I0J249999D01*
G01*
X117780000Y-107499999D01*
G75*
G02*
X118029999Y-107250000I249999J0D01*
G01*
X118730001Y-107250000D01*
G75*
G02*
X118980000Y-107499999I0J-249999D01*
G01*
G37*
%TD.AperFunction*%
%TO.P,R7,1*%
%TO.N,/RX1*%
%TA.AperFunction,SMDPad,CuDef*%
G36*
G01*
X120980000Y-107499999D02*
X120980000Y-108400001D01*
G75*
G02*
X120730001Y-108650000I-249999J0D01*
G01*
X120029999Y-108650000D01*
G75*
G02*
X119780000Y-108400001I0J249999D01*
G01*
X119780000Y-107499999D01*
G75*
G02*
X120029999Y-107250000I249999J0D01*
G01*
X120730001Y-107250000D01*
G75*
G02*
X120980000Y-107499999I0J-249999D01*
G01*
G37*
%TD.AperFunction*%
%TD*%
%TO.P,R4,2*%
%TO.N,Net-(R4-Pad2)*%
%TA.AperFunction,SMDPad,CuDef*%
G36*
G01*
X118980000Y-102419999D02*
X118980000Y-103320001D01*
G75*
G02*
X118730001Y-103570000I-249999J0D01*
G01*
X118029999Y-103570000D01*
G75*
G02*
X117780000Y-103320001I0J249999D01*
G01*
X117780000Y-102419999D01*
G75*
G02*
X118029999Y-102170000I249999J0D01*
G01*
X118730001Y-102170000D01*
G75*
G02*
X118980000Y-102419999I0J-249999D01*
G01*
G37*
%TD.AperFunction*%
%TO.P,R4,1*%
%TO.N,/RTS*%
%TA.AperFunction,SMDPad,CuDef*%
G36*
G01*
X120980000Y-102419999D02*
X120980000Y-103320001D01*
G75*
G02*
X120730001Y-103570000I-249999J0D01*
G01*
X120029999Y-103570000D01*
G75*
G02*
X119780000Y-103320001I0J249999D01*
G01*
X119780000Y-102419999D01*
G75*
G02*
X120029999Y-102170000I249999J0D01*
G01*
X120730001Y-102170000D01*
G75*
G02*
X120980000Y-102419999I0J-249999D01*
G01*
G37*
%TD.AperFunction*%
%TD*%
D16*
%TO.P,R3,2*%
%TO.N,Net-(R3-Pad2)*%
X123190000Y-86360000D03*
D17*
%TO.P,R3,1*%
%TO.N,/SDA*%
X123190000Y-88900000D03*
%TD*%
D23*
%TO.P,Q1,1*%
%TO.N,Net-(C7-Pad2)*%
X96520000Y-88900000D03*
D20*
%TO.P,Q1,3*%
%TO.N,GND*%
X96520000Y-83820000D03*
%TO.P,Q1,2*%
%TO.N,/Rel1*%
X96520000Y-86360000D03*
%TD*%
%TO.P,K1,12*%
%TO.N,Net-(C7-Pad2)*%
X86614000Y-87122000D03*
%TO.P,K1,10*%
%TO.N,N/C*%
X86614000Y-92202000D03*
%TO.P,K1,9*%
X86614000Y-94742000D03*
%TO.P,K1,8*%
X86614000Y-97282000D03*
%TO.P,K1,5*%
%TO.N,Net-(J7-Pad1)*%
X81534000Y-97282000D03*
%TO.P,K1,4*%
%TO.N,Net-(J7-Pad2)*%
X81534000Y-94742000D03*
%TO.P,K1,3*%
%TO.N,N/C*%
X81534000Y-92202000D03*
%TO.P,K1,1*%
%TO.N,/12VR*%
%TA.AperFunction,ComponentPad*%
G36*
G01*
X80784000Y-87621500D02*
X80784000Y-86622500D01*
G75*
G02*
X81034500Y-86372000I250500J0D01*
G01*
X82033500Y-86372000D01*
G75*
G02*
X82284000Y-86622500I0J-250500D01*
G01*
X82284000Y-87621500D01*
G75*
G02*
X82033500Y-87872000I-250500J0D01*
G01*
X81034500Y-87872000D01*
G75*
G02*
X80784000Y-87621500I0J250500D01*
G01*
G37*
%TD.AperFunction*%
%TD*%
D11*
%TO.P,J8,1*%
%TO.N,/RX*%
X100584000Y-87884000D03*
%TD*%
D25*
%TO.P,J7,2*%
%TO.N,Net-(J7-Pad2)*%
X84074000Y-104394000D03*
D26*
%TO.P,J7,1*%
%TO.N,Net-(J7-Pad1)*%
X84074000Y-109474000D03*
%TD*%
D25*
%TO.P,J6,2*%
%TO.N,/ANT*%
X84074000Y-114808000D03*
D26*
%TO.P,J6,1*%
%TO.N,GND*%
X84074000Y-119888000D03*
%TD*%
D10*
%TO.P,J5,6*%
%TO.N,N/C*%
X123190000Y-115570000D03*
%TO.P,J5,5*%
%TO.N,GND*%
X123190000Y-113030000D03*
%TO.P,J5,4*%
%TO.N,/TX1*%
X123190000Y-110490000D03*
%TO.P,J5,3*%
%TO.N,/RX1*%
X123190000Y-107950000D03*
%TO.P,J5,2*%
%TO.N,/CTS*%
X123190000Y-105410000D03*
D11*
%TO.P,J5,1*%
%TO.N,/RTS*%
X123190000Y-102870000D03*
%TD*%
D10*
%TO.P,J4,4*%
%TO.N,/VCC*%
X89916000Y-111760000D03*
%TO.P,J4,3*%
%TO.N,/RX*%
X89916000Y-114300000D03*
%TO.P,J4,2*%
X89916000Y-116840000D03*
D11*
%TO.P,J4,1*%
%TO.N,GND*%
X89916000Y-119380000D03*
%TD*%
D10*
%TO.P,J3,4*%
%TO.N,/ANT*%
X89916000Y-78994000D03*
%TO.P,J3,3*%
%TO.N,GND*%
X89916000Y-81534000D03*
%TO.P,J3,2*%
X89916000Y-84074000D03*
D11*
%TO.P,J3,1*%
%TO.N,/VCC*%
X89916000Y-86614000D03*
%TD*%
D10*
%TO.P,J2,2*%
%TO.N,GND*%
X82550000Y-78740000D03*
D11*
%TO.P,J2,1*%
%TO.N,Net-(D3-Pad2)*%
X85090000Y-78740000D03*
%TD*%
D18*
%TO.P,D6,2*%
%TO.N,Net-(C7-Pad2)*%
X85852000Y-83312000D03*
D19*
%TO.P,D6,1*%
%TO.N,/12VR*%
X83312000Y-83312000D03*
%TD*%
D27*
%TO.P,D4,2*%
%TO.N,/VDD*%
X109728000Y-76200000D03*
D28*
%TO.P,D4,1*%
%TO.N,Net-(D4-Pad1)*%
X107188000Y-76200000D03*
%TD*%
D18*
%TO.P,D2,2*%
%TO.N,/TVDD*%
X98298000Y-80518000D03*
D19*
%TO.P,D2,1*%
%TO.N,/VDD*%
X100838000Y-80518000D03*
%TD*%
D17*
%TO.P,C3,2*%
%TO.N,GND*%
X97536000Y-91734000D03*
%TO.P,C3,1*%
%TO.N,Net-(C3-Pad1)*%
X97536000Y-94234000D03*
%TD*%
%TO.P,C2,2*%
%TO.N,GND*%
X100584000Y-91734000D03*
%TO.P,C2,1*%
%TO.N,Net-(C2-Pad1)*%
X100584000Y-94234000D03*
%TD*%
D29*
%TO.N,GND*%
X120142000Y-92710000D03*
%TO.N,Net-(D4-Pad1)*%
X101854000Y-76200000D03*
%TO.N,/RX*%
X87630000Y-100330000D03*
%TO.N,/LED*%
X95504000Y-81280000D03*
%TO.N,Net-(R5-Pad2)*%
X115570000Y-109982000D03*
%TD*%
D30*
%TO.N,GND*%
X122174000Y-113030000D02*
X123190000Y-113030000D01*
X116840000Y-118364000D02*
X122174000Y-113030000D01*
X112522000Y-118364000D02*
X116840000Y-118364000D01*
X110236000Y-120650000D02*
X112522000Y-118364000D01*
X104394000Y-98044000D02*
X104902000Y-98044000D01*
X120142000Y-94642000D02*
X120106000Y-94678000D01*
X120142000Y-92710000D02*
X120142000Y-94642000D01*
X101600000Y-70612000D02*
X91694000Y-70612000D01*
X101600000Y-72136000D02*
X101600000Y-70612000D01*
X118364000Y-72390000D02*
X116586000Y-70612000D01*
X119096000Y-72390000D02*
X118364000Y-72390000D01*
X116586000Y-70612000D02*
X101600000Y-70612000D01*
%TO.N,/VCC*%
X89916000Y-111760000D02*
X89916000Y-86614000D01*
X107696000Y-120650000D02*
X106426000Y-120650000D01*
X106426000Y-120650000D02*
X101092000Y-115316000D01*
X101092000Y-113840998D02*
X97233002Y-109982000D01*
X101092000Y-115316000D02*
X101092000Y-113840998D01*
X91694000Y-109982000D02*
X89916000Y-111760000D01*
X97233002Y-109982000D02*
X91694000Y-109982000D01*
%TO.N,Net-(D3-Pad2)*%
X85090000Y-78740000D02*
X85090000Y-78486000D01*
X94742000Y-96266000D02*
X93218000Y-94742000D01*
X93218000Y-94742000D02*
X93218000Y-77978000D01*
X94742000Y-102870000D02*
X94742000Y-96266000D01*
X91186000Y-75946000D02*
X93218000Y-77978000D01*
X87630000Y-75946000D02*
X91186000Y-75946000D01*
X85090000Y-78486000D02*
X87630000Y-75946000D01*
D31*
%TO.N,Net-(D4-Pad1)*%
X101346000Y-76708000D02*
X101854000Y-76200000D01*
X100060000Y-76708000D02*
X101346000Y-76708000D01*
%TO.N,/PGC*%
X111506000Y-82804000D02*
X112522000Y-82804000D01*
X112522000Y-82804000D02*
X113538000Y-81788000D01*
X113538000Y-81788000D02*
X113538000Y-76962000D01*
X113538000Y-76962000D02*
X110744000Y-74168000D01*
X110744000Y-74168000D02*
X107696000Y-74168000D01*
X106680000Y-73152000D02*
X106680000Y-72136000D01*
X107696000Y-74168000D02*
X106680000Y-73152000D01*
%TO.N,/PGD*%
X104140000Y-76200000D02*
X104140000Y-72136000D01*
X108204000Y-80264000D02*
X104140000Y-76200000D01*
X111506000Y-80264000D02*
X108204000Y-80264000D01*
%TO.N,/MCLR*%
X96520000Y-73152000D02*
X97282000Y-73914000D01*
X97282000Y-73914000D02*
X102362000Y-73914000D01*
X102362000Y-73914000D02*
X103124000Y-74676000D01*
X96520000Y-72136000D02*
X96520000Y-73152000D01*
X103886000Y-79502000D02*
X103124000Y-78740000D01*
X103886000Y-80264000D02*
X103886000Y-79502000D01*
X103124000Y-74676000D02*
X103124000Y-78740000D01*
D30*
%TO.N,/ANT*%
X86614000Y-112268000D02*
X84074000Y-114808000D01*
X86614000Y-102616000D02*
X86614000Y-112268000D01*
X85852000Y-101854000D02*
X86614000Y-102616000D01*
X85852000Y-99822000D02*
X85852000Y-101854000D01*
X86360000Y-99314000D02*
X85852000Y-99822000D01*
X87122000Y-99314000D02*
X86360000Y-99314000D01*
X88646000Y-97790000D02*
X87122000Y-99314000D01*
X88646000Y-89662000D02*
X88646000Y-97790000D01*
X88138000Y-89154000D02*
X88646000Y-89662000D01*
X88138000Y-80772000D02*
X88138000Y-89154000D01*
X89916000Y-78994000D02*
X88138000Y-80772000D01*
D31*
%TO.N,/RX*%
X108204000Y-87884000D02*
X106934000Y-89154000D01*
X101854000Y-89154000D02*
X100584000Y-87884000D01*
X106934000Y-89154000D02*
X101854000Y-89154000D01*
X87630000Y-100330000D02*
X87630000Y-113284000D01*
X88646000Y-114300000D02*
X89916000Y-114300000D01*
X87630000Y-113284000D02*
X88646000Y-114300000D01*
X111506000Y-87884000D02*
X108204000Y-87884000D01*
%TO.N,/TX1*%
X120888000Y-110490000D02*
X123190000Y-110490000D01*
%TO.N,/RX1*%
X120888000Y-107950000D02*
X123190000Y-107950000D01*
%TO.N,/RTS*%
X120126000Y-102870000D02*
X123190000Y-102870000D01*
D30*
%TO.N,Net-(J7-Pad2)*%
X81534000Y-94742000D02*
X83820000Y-94742000D01*
X84074000Y-94996000D02*
X84074000Y-104394000D01*
X83820000Y-94742000D02*
X84074000Y-94996000D01*
%TO.N,Net-(J7-Pad1)*%
X84074000Y-109474000D02*
X83820000Y-109474000D01*
X81534000Y-107188000D02*
X81534000Y-97282000D01*
X83820000Y-109474000D02*
X81534000Y-107188000D01*
D31*
%TO.N,/Rel1*%
X103632000Y-95504000D02*
X104394000Y-95504000D01*
X94234000Y-93472000D02*
X97536000Y-96774000D01*
X94234000Y-87122000D02*
X94234000Y-93472000D01*
X94996000Y-86360000D02*
X94234000Y-87122000D01*
X96520000Y-86360000D02*
X94996000Y-86360000D01*
X103886000Y-95504000D02*
X103378000Y-95504000D01*
X102870000Y-95504000D02*
X101600000Y-96774000D01*
X103886000Y-95504000D02*
X102870000Y-95504000D01*
X97536000Y-96774000D02*
X101600000Y-96774000D01*
%TO.N,/LED*%
X95504000Y-78740000D02*
X95504000Y-81280000D01*
X98060000Y-76708000D02*
X96520000Y-76708000D01*
X95504000Y-77724000D02*
X95504000Y-78740000D01*
X96520000Y-76708000D02*
X95504000Y-77724000D01*
%TO.N,Net-(R2-Pad2)*%
X120650000Y-98044000D02*
X119380000Y-98044000D01*
X119380000Y-98044000D02*
X118110000Y-96774000D01*
X118110000Y-96774000D02*
X118110000Y-83312000D01*
X120396000Y-81026000D02*
X123190000Y-81026000D01*
X118110000Y-83312000D02*
X120396000Y-81026000D01*
%TO.N,/SDA*%
X112030000Y-113268000D02*
X112014000Y-113284000D01*
%TO.N,Net-(R4-Pad2)*%
X104648000Y-108204000D02*
X104394000Y-108204000D01*
X118126000Y-102870000D02*
X118110000Y-102870000D01*
X114300000Y-104394000D02*
X115824000Y-102870000D01*
X108458000Y-104394000D02*
X114300000Y-104394000D01*
X107696000Y-105156000D02*
X108458000Y-104394000D01*
X107696000Y-106934000D02*
X107696000Y-105156000D01*
X106426000Y-108204000D02*
X107696000Y-106934000D01*
X104394000Y-108204000D02*
X106426000Y-108204000D01*
X118380000Y-102870000D02*
X115824000Y-102870000D01*
%TO.N,Net-(R5-Pad2)*%
X107950000Y-110744000D02*
X104394000Y-110744000D01*
X109220000Y-112014000D02*
X107950000Y-110744000D01*
X109220000Y-112014000D02*
X113030000Y-112014000D01*
X113030000Y-112014000D02*
X115062000Y-109982000D01*
X115062000Y-109982000D02*
X115570000Y-109982000D01*
%TO.N,Net-(R6-Pad2)*%
X115570000Y-108204000D02*
X112014000Y-108204000D01*
X118380000Y-110490000D02*
X118110000Y-110490000D01*
X115824000Y-108204000D02*
X115570000Y-108204000D01*
X118110000Y-110490000D02*
X115824000Y-108204000D01*
%TO.N,Net-(R7-Pad2)*%
X118126000Y-107950000D02*
X116840000Y-107950000D01*
X116840000Y-107950000D02*
X115062000Y-106172000D01*
X115062000Y-106172000D02*
X114046000Y-106172000D01*
X113538000Y-105664000D02*
X112014000Y-105664000D01*
X114046000Y-106172000D02*
X113538000Y-105664000D01*
%TO.N,/Bp1*%
X115606000Y-93762000D02*
X115606000Y-94678000D01*
X115388000Y-92964000D02*
X115606000Y-93182000D01*
X111506000Y-92964000D02*
X115388000Y-92964000D01*
X115606000Y-93182000D02*
X115606000Y-94678000D01*
X115606000Y-86678000D02*
X115606000Y-93182000D01*
D30*
%TO.N,/VDD*%
X116332000Y-99568000D02*
X116078000Y-99568000D01*
X123190000Y-73184000D02*
X122396000Y-72390000D01*
X123190000Y-75946000D02*
X123190000Y-73184000D01*
X121696000Y-72390000D02*
X122396000Y-72390000D01*
D31*
%TO.N,Net-(JP1-Pad2)*%
X121412000Y-78486000D02*
X123190000Y-78486000D01*
X120396000Y-77470000D02*
X121412000Y-78486000D01*
X120396000Y-72390000D02*
X120396000Y-77470000D01*
%TD*%
D32*
%TO.N,GND*%
X82107988Y-70988698D02*
X81947047Y-71377244D01*
X81865000Y-71789721D01*
X81865000Y-72210279D01*
X81947047Y-72622756D01*
X82107988Y-73011302D01*
X82341637Y-73360983D01*
X82639017Y-73658363D01*
X82988698Y-73892012D01*
X83377244Y-74052953D01*
X83789721Y-74135000D01*
X84210279Y-74135000D01*
X84622756Y-74052953D01*
X85011302Y-73892012D01*
X85360983Y-73658363D01*
X85658363Y-73360983D01*
X85892012Y-73011302D01*
X86052953Y-72622756D01*
X86135000Y-72210279D01*
X86135000Y-71789721D01*
X86052953Y-71377244D01*
X85892012Y-70988698D01*
X85672383Y-70660000D01*
X95547427Y-70660000D01*
X95545518Y-70660188D01*
X95425820Y-70696498D01*
X95315506Y-70755463D01*
X95218815Y-70834815D01*
X95139463Y-70931506D01*
X95080498Y-71041820D01*
X95044188Y-71161518D01*
X95031928Y-71286000D01*
X95031928Y-72986000D01*
X95044188Y-73110482D01*
X95080498Y-73230180D01*
X95139463Y-73340494D01*
X95218815Y-73437185D01*
X95315506Y-73516537D01*
X95425820Y-73575502D01*
X95545518Y-73611812D01*
X95670000Y-73624072D01*
X95891910Y-73624072D01*
X95904690Y-73639644D01*
X95937655Y-73679812D01*
X95937659Y-73679816D01*
X95962237Y-73709764D01*
X95992185Y-73734342D01*
X96699653Y-74441810D01*
X96724236Y-74471764D01*
X96843767Y-74569862D01*
X96929082Y-74615463D01*
X96980140Y-74642754D01*
X97128113Y-74687642D01*
X97200949Y-74694815D01*
X97243439Y-74699000D01*
X97243444Y-74699000D01*
X97282000Y-74702797D01*
X97320556Y-74699000D01*
X102036843Y-74699000D01*
X102339000Y-75001157D01*
X102339000Y-75280618D01*
X102155898Y-75204774D01*
X101955939Y-75165000D01*
X101752061Y-75165000D01*
X101552102Y-75204774D01*
X101363744Y-75282795D01*
X101194226Y-75396063D01*
X101050063Y-75540226D01*
X101007020Y-75604645D01*
X100903387Y-75519595D01*
X100749851Y-75437528D01*
X100583255Y-75386992D01*
X100410001Y-75369928D01*
X99709999Y-75369928D01*
X99536745Y-75386992D01*
X99370149Y-75437528D01*
X99216613Y-75519595D01*
X99082038Y-75630038D01*
X99060000Y-75656891D01*
X99037962Y-75630038D01*
X98903387Y-75519595D01*
X98749851Y-75437528D01*
X98583255Y-75386992D01*
X98410001Y-75369928D01*
X97709999Y-75369928D01*
X97536745Y-75386992D01*
X97370149Y-75437528D01*
X97216613Y-75519595D01*
X97082038Y-75630038D01*
X96971595Y-75764613D01*
X96889528Y-75918149D01*
X96888056Y-75923000D01*
X96558555Y-75923000D01*
X96520000Y-75919203D01*
X96481444Y-75923000D01*
X96481439Y-75923000D01*
X96441026Y-75926980D01*
X96366113Y-75934358D01*
X96218140Y-75979246D01*
X96081767Y-76052138D01*
X96021559Y-76101550D01*
X95992187Y-76125655D01*
X95992184Y-76125658D01*
X95962236Y-76150236D01*
X95937657Y-76180185D01*
X94976190Y-77141653D01*
X94946236Y-77166236D01*
X94848138Y-77285768D01*
X94775246Y-77422141D01*
X94730359Y-77570114D01*
X94719000Y-77685440D01*
X94719000Y-77685447D01*
X94715203Y-77724000D01*
X94719000Y-77762553D01*
X94719001Y-78701431D01*
X94719000Y-78701440D01*
X94719001Y-80601288D01*
X94700063Y-80620226D01*
X94586795Y-80789744D01*
X94508774Y-80978102D01*
X94469000Y-81178061D01*
X94469000Y-81381939D01*
X94508774Y-81581898D01*
X94586795Y-81770256D01*
X94700063Y-81939774D01*
X94844226Y-82083937D01*
X95013744Y-82197205D01*
X95202102Y-82275226D01*
X95402061Y-82315000D01*
X95605939Y-82315000D01*
X95805898Y-82275226D01*
X95994256Y-82197205D01*
X96163774Y-82083937D01*
X96307937Y-81939774D01*
X96421205Y-81770256D01*
X96499226Y-81581898D01*
X96539000Y-81381939D01*
X96539000Y-81178061D01*
X96499226Y-80978102D01*
X96421205Y-80789744D01*
X96307937Y-80620226D01*
X96289000Y-80601289D01*
X96289000Y-78049157D01*
X96845158Y-77493000D01*
X96888056Y-77493000D01*
X96889528Y-77497851D01*
X96971595Y-77651387D01*
X97082038Y-77785962D01*
X97216613Y-77896405D01*
X97370149Y-77978472D01*
X97536745Y-78029008D01*
X97709999Y-78046072D01*
X98410001Y-78046072D01*
X98583255Y-78029008D01*
X98749851Y-77978472D01*
X98903387Y-77896405D01*
X99037962Y-77785962D01*
X99060000Y-77759109D01*
X99082038Y-77785962D01*
X99216613Y-77896405D01*
X99370149Y-77978472D01*
X99536745Y-78029008D01*
X99709999Y-78046072D01*
X100410001Y-78046072D01*
X100583255Y-78029008D01*
X100749851Y-77978472D01*
X100903387Y-77896405D01*
X101037962Y-77785962D01*
X101148405Y-77651387D01*
X101230472Y-77497851D01*
X101231944Y-77493000D01*
X101307447Y-77493000D01*
X101346000Y-77496797D01*
X101384553Y-77493000D01*
X101384561Y-77493000D01*
X101499887Y-77481641D01*
X101647860Y-77436754D01*
X101784233Y-77363862D01*
X101903764Y-77265764D01*
X101928347Y-77235810D01*
X101929157Y-77235000D01*
X101955939Y-77235000D01*
X102155898Y-77195226D01*
X102339001Y-77119382D01*
X102339001Y-78701437D01*
X102335203Y-78740000D01*
X102350359Y-78893886D01*
X102358059Y-78919270D01*
X102341825Y-78927947D01*
X102292494Y-78887463D01*
X102182180Y-78828498D01*
X102062482Y-78792188D01*
X101938000Y-78779928D01*
X99738000Y-78779928D01*
X99613518Y-78792188D01*
X99493820Y-78828498D01*
X99383506Y-78887463D01*
X99286815Y-78966815D01*
X99220443Y-79047690D01*
X99119831Y-78980463D01*
X98804081Y-78849675D01*
X98468883Y-78783000D01*
X98127117Y-78783000D01*
X97791919Y-78849675D01*
X97476169Y-78980463D01*
X97192002Y-79170337D01*
X96950337Y-79412002D01*
X96760463Y-79696169D01*
X96629675Y-80011919D01*
X96563000Y-80347117D01*
X96563000Y-80688883D01*
X96629675Y-81024081D01*
X96760463Y-81339831D01*
X96950337Y-81623998D01*
X97192002Y-81865663D01*
X97476169Y-82055537D01*
X97791919Y-82186325D01*
X98127117Y-82253000D01*
X98468883Y-82253000D01*
X98804081Y-82186325D01*
X99119831Y-82055537D01*
X99220443Y-81988310D01*
X99286815Y-82069185D01*
X99383506Y-82148537D01*
X99493820Y-82207502D01*
X99613518Y-82243812D01*
X99738000Y-82256072D01*
X101938000Y-82256072D01*
X102062482Y-82243812D01*
X102176839Y-82209122D01*
X102153818Y-82252192D01*
X102071764Y-82522691D01*
X102044057Y-82804000D01*
X102071764Y-83085309D01*
X102153818Y-83355808D01*
X102287068Y-83605101D01*
X102466392Y-83823608D01*
X102684899Y-84002932D01*
X102817858Y-84074000D01*
X102684899Y-84145068D01*
X102466392Y-84324392D01*
X102287068Y-84542899D01*
X102153818Y-84792192D01*
X102071764Y-85062691D01*
X102044057Y-85344000D01*
X102071764Y-85625309D01*
X102153818Y-85895808D01*
X102287068Y-86145101D01*
X102466392Y-86363608D01*
X102684899Y-86542932D01*
X102817858Y-86614000D01*
X102684899Y-86685068D01*
X102466392Y-86864392D01*
X102287068Y-87082899D01*
X102153818Y-87332192D01*
X102072072Y-87601676D01*
X102072072Y-87034000D01*
X102059812Y-86909518D01*
X102023502Y-86789820D01*
X101964537Y-86679506D01*
X101885185Y-86582815D01*
X101788494Y-86503463D01*
X101678180Y-86444498D01*
X101558482Y-86408188D01*
X101434000Y-86395928D01*
X99734000Y-86395928D01*
X99609518Y-86408188D01*
X99489820Y-86444498D01*
X99379506Y-86503463D01*
X99282815Y-86582815D01*
X99203463Y-86679506D01*
X99144498Y-86789820D01*
X99108188Y-86909518D01*
X99095928Y-87034000D01*
X99095928Y-88734000D01*
X99108188Y-88858482D01*
X99144498Y-88978180D01*
X99203463Y-89088494D01*
X99282815Y-89185185D01*
X99379506Y-89264537D01*
X99489820Y-89323502D01*
X99609518Y-89359812D01*
X99734000Y-89372072D01*
X100961914Y-89372072D01*
X101271658Y-89681815D01*
X101296236Y-89711764D01*
X101326184Y-89736342D01*
X101326187Y-89736345D01*
X101355559Y-89760450D01*
X101415767Y-89809862D01*
X101552140Y-89882754D01*
X101665672Y-89917194D01*
X101700112Y-89927641D01*
X101714490Y-89929057D01*
X101815439Y-89939000D01*
X101815446Y-89939000D01*
X101853999Y-89942797D01*
X101892552Y-89939000D01*
X102133552Y-89939000D01*
X102071764Y-90142691D01*
X102044057Y-90424000D01*
X102071764Y-90705309D01*
X102153818Y-90975808D01*
X102287068Y-91225101D01*
X102466392Y-91443608D01*
X102684899Y-91622932D01*
X102817858Y-91694000D01*
X102684899Y-91765068D01*
X102466392Y-91944392D01*
X102287068Y-92162899D01*
X102153818Y-92412192D01*
X102071764Y-92682691D01*
X102044057Y-92964000D01*
X102071764Y-93245309D01*
X102153818Y-93515808D01*
X102287068Y-93765101D01*
X102466392Y-93983608D01*
X102684899Y-94162932D01*
X102817858Y-94234000D01*
X102684899Y-94305068D01*
X102466392Y-94484392D01*
X102287068Y-94702899D01*
X102153818Y-94952192D01*
X102085094Y-95178749D01*
X101274843Y-95989000D01*
X97861158Y-95989000D01*
X97541158Y-95669000D01*
X97677335Y-95669000D01*
X97954574Y-95613853D01*
X98215727Y-95505680D01*
X98450759Y-95348637D01*
X98650637Y-95148759D01*
X98807680Y-94913727D01*
X98915853Y-94652574D01*
X98971000Y-94375335D01*
X98971000Y-94092665D01*
X99149000Y-94092665D01*
X99149000Y-94375335D01*
X99204147Y-94652574D01*
X99312320Y-94913727D01*
X99469363Y-95148759D01*
X99669241Y-95348637D01*
X99904273Y-95505680D01*
X100165426Y-95613853D01*
X100442665Y-95669000D01*
X100725335Y-95669000D01*
X101002574Y-95613853D01*
X101263727Y-95505680D01*
X101498759Y-95348637D01*
X101698637Y-95148759D01*
X101855680Y-94913727D01*
X101963853Y-94652574D01*
X102019000Y-94375335D01*
X102019000Y-94092665D01*
X101963853Y-93815426D01*
X101855680Y-93554273D01*
X101698637Y-93319241D01*
X101498759Y-93119363D01*
X101298131Y-92985308D01*
X101325514Y-92970671D01*
X101397097Y-92726702D01*
X100584000Y-91913605D01*
X99770903Y-92726702D01*
X99842486Y-92970671D01*
X99871341Y-92984324D01*
X99669241Y-93119363D01*
X99469363Y-93319241D01*
X99312320Y-93554273D01*
X99204147Y-93815426D01*
X99149000Y-94092665D01*
X98971000Y-94092665D01*
X98915853Y-93815426D01*
X98807680Y-93554273D01*
X98650637Y-93319241D01*
X98450759Y-93119363D01*
X98250131Y-92985308D01*
X98277514Y-92970671D01*
X98349097Y-92726702D01*
X97536000Y-91913605D01*
X96722903Y-92726702D01*
X96794486Y-92970671D01*
X96823341Y-92984324D01*
X96621241Y-93119363D01*
X96421363Y-93319241D01*
X96264320Y-93554273D01*
X96156147Y-93815426D01*
X96101000Y-94092665D01*
X96101000Y-94228843D01*
X95019000Y-93146843D01*
X95019000Y-91804512D01*
X96095783Y-91804512D01*
X96137213Y-92084130D01*
X96232397Y-92350292D01*
X96299329Y-92475514D01*
X96543298Y-92547097D01*
X97356395Y-91734000D01*
X97715605Y-91734000D01*
X98528702Y-92547097D01*
X98772671Y-92475514D01*
X98893571Y-92220004D01*
X98962300Y-91945816D01*
X98969265Y-91804512D01*
X99143783Y-91804512D01*
X99185213Y-92084130D01*
X99280397Y-92350292D01*
X99347329Y-92475514D01*
X99591298Y-92547097D01*
X100404395Y-91734000D01*
X100763605Y-91734000D01*
X101576702Y-92547097D01*
X101820671Y-92475514D01*
X101941571Y-92220004D01*
X102010300Y-91945816D01*
X102024217Y-91663488D01*
X101982787Y-91383870D01*
X101887603Y-91117708D01*
X101820671Y-90992486D01*
X101576702Y-90920903D01*
X100763605Y-91734000D01*
X100404395Y-91734000D01*
X99591298Y-90920903D01*
X99347329Y-90992486D01*
X99226429Y-91247996D01*
X99157700Y-91522184D01*
X99143783Y-91804512D01*
X98969265Y-91804512D01*
X98976217Y-91663488D01*
X98934787Y-91383870D01*
X98839603Y-91117708D01*
X98772671Y-90992486D01*
X98528702Y-90920903D01*
X97715605Y-91734000D01*
X97356395Y-91734000D01*
X96543298Y-90920903D01*
X96299329Y-90992486D01*
X96178429Y-91247996D01*
X96109700Y-91522184D01*
X96095783Y-91804512D01*
X95019000Y-91804512D01*
X95019000Y-90741298D01*
X96722903Y-90741298D01*
X97536000Y-91554395D01*
X98349097Y-90741298D01*
X99770903Y-90741298D01*
X100584000Y-91554395D01*
X101397097Y-90741298D01*
X101325514Y-90497329D01*
X101070004Y-90376429D01*
X100795816Y-90307700D01*
X100513488Y-90293783D01*
X100233870Y-90335213D01*
X99967708Y-90430397D01*
X99842486Y-90497329D01*
X99770903Y-90741298D01*
X98349097Y-90741298D01*
X98277514Y-90497329D01*
X98022004Y-90376429D01*
X97747816Y-90307700D01*
X97465488Y-90293783D01*
X97185870Y-90335213D01*
X96919708Y-90430397D01*
X96794486Y-90497329D01*
X96722903Y-90741298D01*
X95019000Y-90741298D01*
X95019000Y-87447157D01*
X95321157Y-87145000D01*
X95378796Y-87145000D01*
X95444201Y-87242886D01*
X95637114Y-87435799D01*
X95753483Y-87513555D01*
X95645518Y-87524188D01*
X95525820Y-87560498D01*
X95415506Y-87619463D01*
X95318815Y-87698815D01*
X95239463Y-87795506D01*
X95180498Y-87905820D01*
X95144188Y-88025518D01*
X95131928Y-88150000D01*
X95131928Y-89650000D01*
X95144188Y-89774482D01*
X95180498Y-89894180D01*
X95239463Y-90004494D01*
X95318815Y-90101185D01*
X95415506Y-90180537D01*
X95525820Y-90239502D01*
X95645518Y-90275812D01*
X95770000Y-90288072D01*
X97270000Y-90288072D01*
X97394482Y-90275812D01*
X97514180Y-90239502D01*
X97624494Y-90180537D01*
X97721185Y-90101185D01*
X97800537Y-90004494D01*
X97859502Y-89894180D01*
X97895812Y-89774482D01*
X97908072Y-89650000D01*
X97908072Y-88150000D01*
X97895812Y-88025518D01*
X97859502Y-87905820D01*
X97800537Y-87795506D01*
X97721185Y-87698815D01*
X97624494Y-87619463D01*
X97514180Y-87560498D01*
X97394482Y-87524188D01*
X97286517Y-87513555D01*
X97402886Y-87435799D01*
X97595799Y-87242886D01*
X97747371Y-87016043D01*
X97851775Y-86763989D01*
X97905000Y-86496411D01*
X97905000Y-86223589D01*
X97851775Y-85956011D01*
X97747371Y-85703957D01*
X97595799Y-85477114D01*
X97402886Y-85284201D01*
X97176043Y-85132629D01*
X97076721Y-85091489D01*
X97118832Y-85076277D01*
X97231863Y-85015860D01*
X97297388Y-84776993D01*
X96520000Y-83999605D01*
X95742612Y-84776993D01*
X95808137Y-85015860D01*
X95966477Y-85090164D01*
X95863957Y-85132629D01*
X95637114Y-85284201D01*
X95444201Y-85477114D01*
X95378796Y-85575000D01*
X95034556Y-85575000D01*
X94996000Y-85571203D01*
X94957444Y-85575000D01*
X94957439Y-85575000D01*
X94917026Y-85578980D01*
X94842113Y-85586358D01*
X94694140Y-85631246D01*
X94557767Y-85704138D01*
X94438236Y-85802236D01*
X94413653Y-85832190D01*
X94078000Y-86167843D01*
X94078000Y-83892492D01*
X95130188Y-83892492D01*
X95171035Y-84162238D01*
X95263723Y-84418832D01*
X95324140Y-84531863D01*
X95563007Y-84597388D01*
X96340395Y-83820000D01*
X96699605Y-83820000D01*
X97476993Y-84597388D01*
X97715860Y-84531863D01*
X97831760Y-84284884D01*
X97897250Y-84020040D01*
X97909812Y-83747508D01*
X97868965Y-83477762D01*
X97776277Y-83221168D01*
X97715860Y-83108137D01*
X97476993Y-83042612D01*
X96699605Y-83820000D01*
X96340395Y-83820000D01*
X95563007Y-83042612D01*
X95324140Y-83108137D01*
X95208240Y-83355116D01*
X95142750Y-83619960D01*
X95130188Y-83892492D01*
X94078000Y-83892492D01*
X94078000Y-82863007D01*
X95742612Y-82863007D01*
X96520000Y-83640395D01*
X97297388Y-82863007D01*
X97231863Y-82624140D01*
X96984884Y-82508240D01*
X96720040Y-82442750D01*
X96447508Y-82430188D01*
X96177762Y-82471035D01*
X95921168Y-82563723D01*
X95808137Y-82624140D01*
X95742612Y-82863007D01*
X94078000Y-82863007D01*
X94078000Y-78020239D01*
X94082160Y-77978000D01*
X94078000Y-77935761D01*
X94078000Y-77935754D01*
X94065556Y-77809411D01*
X94016381Y-77647300D01*
X93936524Y-77497898D01*
X93829054Y-77366946D01*
X93796241Y-77340017D01*
X91823988Y-75367765D01*
X91797054Y-75334946D01*
X91666102Y-75227476D01*
X91516700Y-75147619D01*
X91354589Y-75098444D01*
X91228246Y-75086000D01*
X91228239Y-75086000D01*
X91186000Y-75081840D01*
X91143761Y-75086000D01*
X87672238Y-75086000D01*
X87629999Y-75081840D01*
X87587760Y-75086000D01*
X87587754Y-75086000D01*
X87492538Y-75095378D01*
X87461409Y-75098444D01*
X87385950Y-75121335D01*
X87299300Y-75147619D01*
X87149898Y-75227476D01*
X87018946Y-75334946D01*
X86992012Y-75367765D01*
X85107849Y-77251928D01*
X84240000Y-77251928D01*
X84115518Y-77264188D01*
X83995820Y-77300498D01*
X83885506Y-77359463D01*
X83788815Y-77438815D01*
X83709463Y-77535506D01*
X83650498Y-77645820D01*
X83626034Y-77726466D01*
X83550269Y-77642412D01*
X83316920Y-77468359D01*
X83054099Y-77343175D01*
X82906890Y-77298524D01*
X82677000Y-77419845D01*
X82677000Y-78613000D01*
X82697000Y-78613000D01*
X82697000Y-78867000D01*
X82677000Y-78867000D01*
X82677000Y-80060155D01*
X82906890Y-80181476D01*
X83054099Y-80136825D01*
X83316920Y-80011641D01*
X83550269Y-79837588D01*
X83626034Y-79753534D01*
X83650498Y-79834180D01*
X83709463Y-79944494D01*
X83788815Y-80041185D01*
X83885506Y-80120537D01*
X83995820Y-80179502D01*
X84115518Y-80215812D01*
X84240000Y-80228072D01*
X85940000Y-80228072D01*
X86064482Y-80215812D01*
X86184180Y-80179502D01*
X86294494Y-80120537D01*
X86391185Y-80041185D01*
X86470537Y-79944494D01*
X86529502Y-79834180D01*
X86565812Y-79714482D01*
X86578072Y-79590000D01*
X86578072Y-78214151D01*
X87986223Y-76806000D01*
X90829777Y-76806000D01*
X92358001Y-78334225D01*
X92358000Y-94699761D01*
X92353840Y-94742000D01*
X92358000Y-94784239D01*
X92358000Y-94784245D01*
X92364293Y-94848138D01*
X92370444Y-94910589D01*
X92383064Y-94952192D01*
X92419619Y-95072699D01*
X92499476Y-95222101D01*
X92606946Y-95353054D01*
X92639765Y-95379988D01*
X93882001Y-96622224D01*
X93882000Y-101357967D01*
X93636002Y-101522337D01*
X93394337Y-101764002D01*
X93204463Y-102048169D01*
X93073675Y-102363919D01*
X93007000Y-102699117D01*
X93007000Y-103040883D01*
X93073675Y-103376081D01*
X93204463Y-103691831D01*
X93394337Y-103975998D01*
X93636002Y-104217663D01*
X93920169Y-104407537D01*
X94235919Y-104538325D01*
X94571117Y-104605000D01*
X94912883Y-104605000D01*
X95248081Y-104538325D01*
X95563831Y-104407537D01*
X95847998Y-104217663D01*
X96089663Y-103975998D01*
X96191499Y-103823589D01*
X97929000Y-103823589D01*
X97929000Y-104096411D01*
X97982225Y-104363989D01*
X98086629Y-104616043D01*
X98238201Y-104842886D01*
X98431114Y-105035799D01*
X98657957Y-105187371D01*
X98910011Y-105291775D01*
X99177589Y-105345000D01*
X99450411Y-105345000D01*
X99717989Y-105291775D01*
X99970043Y-105187371D01*
X100196886Y-105035799D01*
X100389799Y-104842886D01*
X100541371Y-104616043D01*
X100645775Y-104363989D01*
X100699000Y-104096411D01*
X100699000Y-103823589D01*
X100645775Y-103556011D01*
X100541371Y-103303957D01*
X100389799Y-103077114D01*
X100196886Y-102884201D01*
X99970043Y-102732629D01*
X99717989Y-102628225D01*
X99450411Y-102575000D01*
X99177589Y-102575000D01*
X98910011Y-102628225D01*
X98657957Y-102732629D01*
X98431114Y-102884201D01*
X98238201Y-103077114D01*
X98086629Y-103303957D01*
X97982225Y-103556011D01*
X97929000Y-103823589D01*
X96191499Y-103823589D01*
X96279537Y-103691831D01*
X96410325Y-103376081D01*
X96477000Y-103040883D01*
X96477000Y-102699117D01*
X96410325Y-102363919D01*
X96279537Y-102048169D01*
X96089663Y-101764002D01*
X95847998Y-101522337D01*
X95602000Y-101357967D01*
X95602000Y-98923589D01*
X97929000Y-98923589D01*
X97929000Y-99196411D01*
X97982225Y-99463989D01*
X98086629Y-99716043D01*
X98238201Y-99942886D01*
X98431114Y-100135799D01*
X98657957Y-100287371D01*
X98910011Y-100391775D01*
X99177589Y-100445000D01*
X99450411Y-100445000D01*
X99717989Y-100391775D01*
X99970043Y-100287371D01*
X100196886Y-100135799D01*
X100389799Y-99942886D01*
X100541371Y-99716043D01*
X100645775Y-99463989D01*
X100699000Y-99196411D01*
X100699000Y-98923589D01*
X100645775Y-98656011D01*
X100541371Y-98403957D01*
X100389799Y-98177114D01*
X100196886Y-97984201D01*
X99970043Y-97832629D01*
X99717989Y-97728225D01*
X99450411Y-97675000D01*
X99177589Y-97675000D01*
X98910011Y-97728225D01*
X98657957Y-97832629D01*
X98431114Y-97984201D01*
X98238201Y-98177114D01*
X98086629Y-98403957D01*
X97982225Y-98656011D01*
X97929000Y-98923589D01*
X95602000Y-98923589D01*
X95602000Y-96308238D01*
X95606160Y-96265999D01*
X95602000Y-96223760D01*
X95602000Y-96223754D01*
X95591598Y-96118139D01*
X95589556Y-96097409D01*
X95556670Y-95989000D01*
X95540381Y-95935300D01*
X95486686Y-95834843D01*
X96953658Y-97301816D01*
X96978236Y-97331764D01*
X97008184Y-97356342D01*
X97008187Y-97356345D01*
X97037559Y-97380450D01*
X97097767Y-97429862D01*
X97203237Y-97486236D01*
X97234140Y-97502754D01*
X97382112Y-97547641D01*
X97396490Y-97549057D01*
X97497439Y-97559000D01*
X97497446Y-97559000D01*
X97535999Y-97562797D01*
X97574552Y-97559000D01*
X101561447Y-97559000D01*
X101600000Y-97562797D01*
X101638553Y-97559000D01*
X101638561Y-97559000D01*
X101753887Y-97547641D01*
X101901860Y-97502754D01*
X102038233Y-97429862D01*
X102157764Y-97331764D01*
X102182347Y-97301810D01*
X102747672Y-96736485D01*
X102812741Y-96771265D01*
X102583161Y-96921399D01*
X102381500Y-97119105D01*
X102222285Y-97352354D01*
X102111633Y-97612182D01*
X102094096Y-97694961D01*
X102216085Y-97917000D01*
X103759000Y-97917000D01*
X103759000Y-97897000D01*
X104013000Y-97897000D01*
X104013000Y-97917000D01*
X105555915Y-97917000D01*
X105677904Y-97694961D01*
X105660367Y-97612182D01*
X105549715Y-97352354D01*
X105390500Y-97119105D01*
X105188839Y-96921399D01*
X104959259Y-96771265D01*
X105087101Y-96702932D01*
X105305608Y-96523608D01*
X105484932Y-96305101D01*
X105618182Y-96055808D01*
X105700236Y-95785309D01*
X105727943Y-95504000D01*
X105700236Y-95222691D01*
X105618182Y-94952192D01*
X105484932Y-94702899D01*
X105305608Y-94484392D01*
X105087101Y-94305068D01*
X104954142Y-94234000D01*
X105087101Y-94162932D01*
X105305608Y-93983608D01*
X105484932Y-93765101D01*
X105618182Y-93515808D01*
X105700236Y-93245309D01*
X105727943Y-92964000D01*
X105700236Y-92682691D01*
X105618182Y-92412192D01*
X105484932Y-92162899D01*
X105305608Y-91944392D01*
X105087101Y-91765068D01*
X104954142Y-91694000D01*
X105087101Y-91622932D01*
X105305608Y-91443608D01*
X105484932Y-91225101D01*
X105618182Y-90975808D01*
X105700236Y-90705309D01*
X105727943Y-90424000D01*
X105700236Y-90142691D01*
X105638448Y-89939000D01*
X106895447Y-89939000D01*
X106934000Y-89942797D01*
X106972553Y-89939000D01*
X106972561Y-89939000D01*
X107087887Y-89927641D01*
X107235860Y-89882754D01*
X107372233Y-89809862D01*
X107491764Y-89711764D01*
X107516347Y-89681810D01*
X108529158Y-88669000D01*
X109898462Y-88669000D01*
X109907068Y-88685101D01*
X110086392Y-88903608D01*
X110304899Y-89082932D01*
X110437858Y-89154000D01*
X110304899Y-89225068D01*
X110086392Y-89404392D01*
X109907068Y-89622899D01*
X109773818Y-89872192D01*
X109691764Y-90142691D01*
X109664057Y-90424000D01*
X109691764Y-90705309D01*
X109773818Y-90975808D01*
X109907068Y-91225101D01*
X110086392Y-91443608D01*
X110304899Y-91622932D01*
X110437858Y-91694000D01*
X110304899Y-91765068D01*
X110086392Y-91944392D01*
X109907068Y-92162899D01*
X109773818Y-92412192D01*
X109691764Y-92682691D01*
X109664057Y-92964000D01*
X109691764Y-93245309D01*
X109773818Y-93515808D01*
X109907068Y-93765101D01*
X110086392Y-93983608D01*
X110304899Y-94162932D01*
X110437858Y-94234000D01*
X110304899Y-94305068D01*
X110086392Y-94484392D01*
X109907068Y-94702899D01*
X109773818Y-94952192D01*
X109691764Y-95222691D01*
X109664057Y-95504000D01*
X109691764Y-95785309D01*
X109773818Y-96055808D01*
X109907068Y-96305101D01*
X110086392Y-96523608D01*
X110304899Y-96702932D01*
X110437858Y-96774000D01*
X110304899Y-96845068D01*
X110086392Y-97024392D01*
X109907068Y-97242899D01*
X109773818Y-97492192D01*
X109691764Y-97762691D01*
X109664057Y-98044000D01*
X109691764Y-98325309D01*
X109773818Y-98595808D01*
X109907068Y-98845101D01*
X110086392Y-99063608D01*
X110304899Y-99242932D01*
X110437858Y-99314000D01*
X110304899Y-99385068D01*
X110086392Y-99564392D01*
X109907068Y-99782899D01*
X109773818Y-100032192D01*
X109691764Y-100302691D01*
X109664057Y-100584000D01*
X109691764Y-100865309D01*
X109773818Y-101135808D01*
X109907068Y-101385101D01*
X110086392Y-101603608D01*
X110304899Y-101782932D01*
X110432741Y-101851265D01*
X110203161Y-102001399D01*
X110001500Y-102199105D01*
X109842285Y-102432354D01*
X109731633Y-102692182D01*
X109714096Y-102774961D01*
X109836085Y-102997000D01*
X111379000Y-102997000D01*
X111379000Y-102977000D01*
X111633000Y-102977000D01*
X111633000Y-102997000D01*
X113175915Y-102997000D01*
X113297904Y-102774961D01*
X113280367Y-102692182D01*
X113169715Y-102432354D01*
X113010500Y-102199105D01*
X112808839Y-102001399D01*
X112579259Y-101851265D01*
X112707101Y-101782932D01*
X112925608Y-101603608D01*
X113104932Y-101385101D01*
X113238182Y-101135808D01*
X113320236Y-100865309D01*
X113347943Y-100584000D01*
X113320236Y-100302691D01*
X113238182Y-100032192D01*
X113104932Y-99782899D01*
X112925608Y-99564392D01*
X112707101Y-99385068D01*
X112574142Y-99314000D01*
X112707101Y-99242932D01*
X112925608Y-99063608D01*
X113104932Y-98845101D01*
X113238182Y-98595808D01*
X113276951Y-98468000D01*
X114085928Y-98468000D01*
X114085928Y-100668000D01*
X114098188Y-100792482D01*
X114134498Y-100912180D01*
X114193463Y-101022494D01*
X114272815Y-101119185D01*
X114369506Y-101198537D01*
X114479820Y-101257502D01*
X114599518Y-101293812D01*
X114724000Y-101306072D01*
X116924000Y-101306072D01*
X117048482Y-101293812D01*
X117168180Y-101257502D01*
X117278494Y-101198537D01*
X117375185Y-101119185D01*
X117454537Y-101022494D01*
X117513502Y-100912180D01*
X117549812Y-100792482D01*
X117562072Y-100668000D01*
X117562072Y-98468000D01*
X117549812Y-98343518D01*
X117513502Y-98223820D01*
X117454537Y-98113506D01*
X117375185Y-98016815D01*
X117278494Y-97937463D01*
X117168180Y-97878498D01*
X117048482Y-97842188D01*
X116924000Y-97829928D01*
X114724000Y-97829928D01*
X114599518Y-97842188D01*
X114479820Y-97878498D01*
X114369506Y-97937463D01*
X114272815Y-98016815D01*
X114193463Y-98113506D01*
X114134498Y-98223820D01*
X114098188Y-98343518D01*
X114085928Y-98468000D01*
X113276951Y-98468000D01*
X113320236Y-98325309D01*
X113347943Y-98044000D01*
X113320236Y-97762691D01*
X113238182Y-97492192D01*
X113104932Y-97242899D01*
X112925608Y-97024392D01*
X112707101Y-96845068D01*
X112574142Y-96774000D01*
X112707101Y-96702932D01*
X112925608Y-96523608D01*
X113104932Y-96305101D01*
X113238182Y-96055808D01*
X113320236Y-95785309D01*
X113347943Y-95504000D01*
X113320236Y-95222691D01*
X113238182Y-94952192D01*
X113104932Y-94702899D01*
X112925608Y-94484392D01*
X112707101Y-94305068D01*
X112574142Y-94234000D01*
X112707101Y-94162932D01*
X112925608Y-93983608D01*
X113104932Y-93765101D01*
X113113538Y-93749000D01*
X114281559Y-93749000D01*
X114280188Y-93753518D01*
X114267928Y-93878000D01*
X114267928Y-95478000D01*
X114280188Y-95602482D01*
X114316498Y-95722180D01*
X114375463Y-95832494D01*
X114454815Y-95929185D01*
X114551506Y-96008537D01*
X114661820Y-96067502D01*
X114781518Y-96103812D01*
X114906000Y-96116072D01*
X116306000Y-96116072D01*
X116430482Y-96103812D01*
X116550180Y-96067502D01*
X116660494Y-96008537D01*
X116757185Y-95929185D01*
X116836537Y-95832494D01*
X116895502Y-95722180D01*
X116931812Y-95602482D01*
X116944072Y-95478000D01*
X116944072Y-93878000D01*
X116931812Y-93753518D01*
X116895502Y-93633820D01*
X116836537Y-93523506D01*
X116757185Y-93426815D01*
X116660494Y-93347463D01*
X116550180Y-93288498D01*
X116430482Y-93252188D01*
X116391000Y-93248299D01*
X116391000Y-93220556D01*
X116394797Y-93182000D01*
X116391000Y-93143440D01*
X116391000Y-88107701D01*
X116430482Y-88103812D01*
X116550180Y-88067502D01*
X116660494Y-88008537D01*
X116757185Y-87929185D01*
X116836537Y-87832494D01*
X116895502Y-87722180D01*
X116931812Y-87602482D01*
X116944072Y-87478000D01*
X116944072Y-85878000D01*
X116931812Y-85753518D01*
X116895502Y-85633820D01*
X116836537Y-85523506D01*
X116757185Y-85426815D01*
X116660494Y-85347463D01*
X116550180Y-85288498D01*
X116430482Y-85252188D01*
X116306000Y-85239928D01*
X114906000Y-85239928D01*
X114781518Y-85252188D01*
X114661820Y-85288498D01*
X114551506Y-85347463D01*
X114454815Y-85426815D01*
X114375463Y-85523506D01*
X114316498Y-85633820D01*
X114280188Y-85753518D01*
X114267928Y-85878000D01*
X114267928Y-87478000D01*
X114280188Y-87602482D01*
X114316498Y-87722180D01*
X114375463Y-87832494D01*
X114454815Y-87929185D01*
X114551506Y-88008537D01*
X114661820Y-88067502D01*
X114781518Y-88103812D01*
X114821000Y-88107701D01*
X114821001Y-92179000D01*
X113113538Y-92179000D01*
X113104932Y-92162899D01*
X112925608Y-91944392D01*
X112707101Y-91765068D01*
X112574142Y-91694000D01*
X112707101Y-91622932D01*
X112925608Y-91443608D01*
X113104932Y-91225101D01*
X113238182Y-90975808D01*
X113320236Y-90705309D01*
X113347943Y-90424000D01*
X113320236Y-90142691D01*
X113238182Y-89872192D01*
X113104932Y-89622899D01*
X112925608Y-89404392D01*
X112707101Y-89225068D01*
X112574142Y-89154000D01*
X112707101Y-89082932D01*
X112925608Y-88903608D01*
X113104932Y-88685101D01*
X113238182Y-88435808D01*
X113320236Y-88165309D01*
X113347943Y-87884000D01*
X113320236Y-87602691D01*
X113238182Y-87332192D01*
X113104932Y-87082899D01*
X112925608Y-86864392D01*
X112707101Y-86685068D01*
X112574142Y-86614000D01*
X112707101Y-86542932D01*
X112925608Y-86363608D01*
X113104932Y-86145101D01*
X113238182Y-85895808D01*
X113320236Y-85625309D01*
X113347943Y-85344000D01*
X113320236Y-85062691D01*
X113238182Y-84792192D01*
X113104932Y-84542899D01*
X112925608Y-84324392D01*
X112707101Y-84145068D01*
X112574142Y-84074000D01*
X112707101Y-84002932D01*
X112814198Y-83915039D01*
X113778096Y-83915039D01*
X113795633Y-83997818D01*
X113906285Y-84257646D01*
X114065500Y-84490895D01*
X114267161Y-84688601D01*
X114503517Y-84843166D01*
X114765486Y-84948650D01*
X115043000Y-85001000D01*
X115443000Y-85001000D01*
X115443000Y-83693000D01*
X113900085Y-83693000D01*
X113778096Y-83915039D01*
X112814198Y-83915039D01*
X112925608Y-83823608D01*
X113104932Y-83605101D01*
X113238182Y-83355808D01*
X113306907Y-83129251D01*
X114065817Y-82370341D01*
X114095764Y-82345764D01*
X114193862Y-82226233D01*
X114246292Y-82128142D01*
X114267161Y-82148601D01*
X114492559Y-82296000D01*
X114267161Y-82443399D01*
X114065500Y-82641105D01*
X113906285Y-82874354D01*
X113795633Y-83134182D01*
X113778096Y-83216961D01*
X113900085Y-83439000D01*
X115443000Y-83439000D01*
X115443000Y-81153000D01*
X115423000Y-81153000D01*
X115423000Y-80899000D01*
X115443000Y-80899000D01*
X115443000Y-78613000D01*
X115697000Y-78613000D01*
X115697000Y-80899000D01*
X117239915Y-80899000D01*
X117361904Y-80676961D01*
X117344367Y-80594182D01*
X117233715Y-80334354D01*
X117074500Y-80101105D01*
X116872839Y-79903399D01*
X116647441Y-79756000D01*
X116872839Y-79608601D01*
X117074500Y-79410895D01*
X117233715Y-79177646D01*
X117344367Y-78917818D01*
X117361904Y-78835039D01*
X117239915Y-78613000D01*
X115697000Y-78613000D01*
X115443000Y-78613000D01*
X115423000Y-78613000D01*
X115423000Y-78359000D01*
X115443000Y-78359000D01*
X115443000Y-78339000D01*
X115697000Y-78339000D01*
X115697000Y-78359000D01*
X117239915Y-78359000D01*
X117361904Y-78136961D01*
X117344367Y-78054182D01*
X117233715Y-77794354D01*
X117074500Y-77561105D01*
X116882613Y-77372981D01*
X116894482Y-77371812D01*
X117014180Y-77335502D01*
X117124494Y-77276537D01*
X117221185Y-77197185D01*
X117300537Y-77100494D01*
X117359502Y-76990180D01*
X117395812Y-76870482D01*
X117408072Y-76746000D01*
X117408072Y-75146000D01*
X117395812Y-75021518D01*
X117359502Y-74901820D01*
X117300537Y-74791506D01*
X117221185Y-74694815D01*
X117124494Y-74615463D01*
X117014180Y-74556498D01*
X116894482Y-74520188D01*
X116770000Y-74507928D01*
X114370000Y-74507928D01*
X114245518Y-74520188D01*
X114125820Y-74556498D01*
X114015506Y-74615463D01*
X113918815Y-74694815D01*
X113839463Y-74791506D01*
X113780498Y-74901820D01*
X113744188Y-75021518D01*
X113731928Y-75146000D01*
X113731928Y-76045771D01*
X111326347Y-73640190D01*
X111301764Y-73610236D01*
X111182233Y-73512138D01*
X111114858Y-73476126D01*
X111326842Y-73563932D01*
X111613740Y-73621000D01*
X111906260Y-73621000D01*
X112193158Y-73563932D01*
X112463411Y-73451990D01*
X112706632Y-73289475D01*
X112913475Y-73082632D01*
X113030000Y-72908240D01*
X113146525Y-73082632D01*
X113353368Y-73289475D01*
X113596589Y-73451990D01*
X113866842Y-73563932D01*
X114153740Y-73621000D01*
X114446260Y-73621000D01*
X114733158Y-73563932D01*
X115003411Y-73451990D01*
X115246632Y-73289475D01*
X115453475Y-73082632D01*
X115615990Y-72839411D01*
X115727932Y-72569158D01*
X115785000Y-72282260D01*
X115785000Y-71989740D01*
X115727932Y-71702842D01*
X115615990Y-71432589D01*
X115453475Y-71189368D01*
X115246632Y-70982525D01*
X115003411Y-70820010D01*
X114733158Y-70708068D01*
X114491506Y-70660000D01*
X124340000Y-70660000D01*
X124340000Y-74719754D01*
X124141808Y-74613818D01*
X124050000Y-74585969D01*
X124050000Y-73226246D01*
X124054161Y-73184000D01*
X124037556Y-73015410D01*
X123988381Y-72853299D01*
X123942387Y-72767252D01*
X123908524Y-72703898D01*
X123801054Y-72572946D01*
X123768240Y-72546016D01*
X123033988Y-71811764D01*
X123007054Y-71778946D01*
X122876102Y-71671476D01*
X122726700Y-71591619D01*
X122682715Y-71578276D01*
X122667498Y-71549808D01*
X122613042Y-71468309D01*
X122533690Y-71371618D01*
X122464382Y-71302310D01*
X122367691Y-71222958D01*
X122286192Y-71168502D01*
X122175875Y-71109536D01*
X122085319Y-71072027D01*
X121965623Y-71035718D01*
X121869490Y-71016596D01*
X121745009Y-71004336D01*
X121720450Y-71004336D01*
X121696000Y-71001928D01*
X121146000Y-71001928D01*
X121021518Y-71014188D01*
X121021000Y-71014345D01*
X121020482Y-71014188D01*
X120896000Y-71001928D01*
X119896000Y-71001928D01*
X119771518Y-71014188D01*
X119651820Y-71050498D01*
X119541506Y-71109463D01*
X119444815Y-71188815D01*
X119365463Y-71285506D01*
X119306498Y-71395820D01*
X119270188Y-71515518D01*
X119257928Y-71640000D01*
X119257928Y-73140000D01*
X119270188Y-73264482D01*
X119306498Y-73384180D01*
X119365463Y-73494494D01*
X119444815Y-73591185D01*
X119541506Y-73670537D01*
X119611000Y-73707683D01*
X119611001Y-77431437D01*
X119607203Y-77470000D01*
X119622359Y-77623886D01*
X119667246Y-77771859D01*
X119687318Y-77809411D01*
X119740139Y-77908233D01*
X119775403Y-77951202D01*
X119813655Y-77997812D01*
X119813659Y-77997816D01*
X119838237Y-78027764D01*
X119868185Y-78052342D01*
X120829657Y-79013815D01*
X120854236Y-79043764D01*
X120884184Y-79068342D01*
X120884187Y-79068345D01*
X120887057Y-79070700D01*
X120973767Y-79141862D01*
X121082799Y-79200140D01*
X121110140Y-79214754D01*
X121258113Y-79259642D01*
X121333026Y-79267020D01*
X121373439Y-79271000D01*
X121373444Y-79271000D01*
X121412000Y-79274797D01*
X121450555Y-79271000D01*
X121582462Y-79271000D01*
X121591068Y-79287101D01*
X121770392Y-79505608D01*
X121988899Y-79684932D01*
X122121858Y-79756000D01*
X121988899Y-79827068D01*
X121770392Y-80006392D01*
X121591068Y-80224899D01*
X121582462Y-80241000D01*
X120434552Y-80241000D01*
X120395999Y-80237203D01*
X120357446Y-80241000D01*
X120357439Y-80241000D01*
X120256490Y-80250943D01*
X120242112Y-80252359D01*
X120111770Y-80291898D01*
X120094140Y-80297246D01*
X119957767Y-80370138D01*
X119899587Y-80417886D01*
X119868187Y-80443655D01*
X119868184Y-80443658D01*
X119838236Y-80468236D01*
X119813658Y-80498184D01*
X117582185Y-82729658D01*
X117552237Y-82754236D01*
X117527659Y-82784184D01*
X117527655Y-82784188D01*
X117511396Y-82804000D01*
X117454139Y-82873767D01*
X117415177Y-82946660D01*
X117381246Y-83010141D01*
X117343930Y-83133156D01*
X117233715Y-82874354D01*
X117074500Y-82641105D01*
X116872839Y-82443399D01*
X116647441Y-82296000D01*
X116872839Y-82148601D01*
X117074500Y-81950895D01*
X117233715Y-81717646D01*
X117344367Y-81457818D01*
X117361904Y-81375039D01*
X117239915Y-81153000D01*
X115697000Y-81153000D01*
X115697000Y-83439000D01*
X115717000Y-83439000D01*
X115717000Y-83693000D01*
X115697000Y-83693000D01*
X115697000Y-85001000D01*
X116097000Y-85001000D01*
X116374514Y-84948650D01*
X116636483Y-84843166D01*
X116872839Y-84688601D01*
X117074500Y-84490895D01*
X117233715Y-84257646D01*
X117325001Y-84043292D01*
X117325000Y-96735447D01*
X117321203Y-96774000D01*
X117325000Y-96812553D01*
X117325000Y-96812560D01*
X117336359Y-96927886D01*
X117381246Y-97075859D01*
X117454138Y-97212232D01*
X117552236Y-97331764D01*
X117582188Y-97356345D01*
X118797658Y-98571815D01*
X118822236Y-98601764D01*
X118852184Y-98626342D01*
X118852187Y-98626345D01*
X118865848Y-98637556D01*
X118941767Y-98699862D01*
X119078140Y-98772754D01*
X119191672Y-98807194D01*
X119226112Y-98817641D01*
X119240490Y-98819057D01*
X119341439Y-98829000D01*
X119341446Y-98829000D01*
X119379999Y-98832797D01*
X119418552Y-98829000D01*
X119448661Y-98829000D01*
X119535363Y-98958759D01*
X119735241Y-99158637D01*
X119970273Y-99315680D01*
X120231426Y-99423853D01*
X120508665Y-99479000D01*
X120791335Y-99479000D01*
X121068574Y-99423853D01*
X121329727Y-99315680D01*
X121564759Y-99158637D01*
X121764637Y-98958759D01*
X121920000Y-98726241D01*
X122075363Y-98958759D01*
X122275241Y-99158637D01*
X122510273Y-99315680D01*
X122771426Y-99423853D01*
X123048665Y-99479000D01*
X123331335Y-99479000D01*
X123608574Y-99423853D01*
X123869727Y-99315680D01*
X124104759Y-99158637D01*
X124304637Y-98958759D01*
X124340001Y-98905834D01*
X124340001Y-101460335D01*
X124284180Y-101430498D01*
X124164482Y-101394188D01*
X124040000Y-101381928D01*
X122340000Y-101381928D01*
X122215518Y-101394188D01*
X122095820Y-101430498D01*
X121985506Y-101489463D01*
X121888815Y-101568815D01*
X121809463Y-101665506D01*
X121750498Y-101775820D01*
X121714188Y-101895518D01*
X121701928Y-102020000D01*
X121701928Y-102085000D01*
X121551944Y-102085000D01*
X121550472Y-102080149D01*
X121468405Y-101926613D01*
X121357962Y-101792038D01*
X121223387Y-101681595D01*
X121069851Y-101599528D01*
X120903255Y-101548992D01*
X120730001Y-101531928D01*
X120029999Y-101531928D01*
X119856745Y-101548992D01*
X119690149Y-101599528D01*
X119536613Y-101681595D01*
X119402038Y-101792038D01*
X119380000Y-101818891D01*
X119357962Y-101792038D01*
X119223387Y-101681595D01*
X119069851Y-101599528D01*
X118903255Y-101548992D01*
X118730001Y-101531928D01*
X118029999Y-101531928D01*
X117856745Y-101548992D01*
X117690149Y-101599528D01*
X117536613Y-101681595D01*
X117402038Y-101792038D01*
X117291595Y-101926613D01*
X117209528Y-102080149D01*
X117208056Y-102085000D01*
X115862552Y-102085000D01*
X115823999Y-102081203D01*
X115785446Y-102085000D01*
X115785439Y-102085000D01*
X115684490Y-102094943D01*
X115670112Y-102096359D01*
X115635672Y-102106806D01*
X115522140Y-102141246D01*
X115385767Y-102214138D01*
X115346036Y-102246745D01*
X115296187Y-102287655D01*
X115296184Y-102287658D01*
X115266236Y-102312236D01*
X115241658Y-102342184D01*
X113974843Y-103609000D01*
X113257719Y-103609000D01*
X113280367Y-103555818D01*
X113297904Y-103473039D01*
X113175915Y-103251000D01*
X111633000Y-103251000D01*
X111633000Y-103271000D01*
X111379000Y-103271000D01*
X111379000Y-103251000D01*
X109836085Y-103251000D01*
X109714096Y-103473039D01*
X109731633Y-103555818D01*
X109754281Y-103609000D01*
X108496556Y-103609000D01*
X108458000Y-103605203D01*
X108419444Y-103609000D01*
X108419439Y-103609000D01*
X108379026Y-103612980D01*
X108304113Y-103620358D01*
X108173925Y-103659851D01*
X108156140Y-103665246D01*
X108019767Y-103738138D01*
X107900236Y-103836236D01*
X107875655Y-103866188D01*
X107168185Y-104573658D01*
X107138237Y-104598236D01*
X107113659Y-104628184D01*
X107113655Y-104628188D01*
X107100357Y-104644392D01*
X107040139Y-104717767D01*
X107001177Y-104790660D01*
X106967246Y-104854141D01*
X106922359Y-105002114D01*
X106907203Y-105156000D01*
X106911001Y-105194562D01*
X106911000Y-106608842D01*
X106100843Y-107419000D01*
X105493538Y-107419000D01*
X105484932Y-107402899D01*
X105305608Y-107184392D01*
X105087101Y-107005068D01*
X104954142Y-106934000D01*
X105087101Y-106862932D01*
X105305608Y-106683608D01*
X105484932Y-106465101D01*
X105618182Y-106215808D01*
X105700236Y-105945309D01*
X105727943Y-105664000D01*
X105700236Y-105382691D01*
X105618182Y-105112192D01*
X105484932Y-104862899D01*
X105305608Y-104644392D01*
X105087101Y-104465068D01*
X104954142Y-104394000D01*
X105087101Y-104322932D01*
X105305608Y-104143608D01*
X105484932Y-103925101D01*
X105618182Y-103675808D01*
X105700236Y-103405309D01*
X105727943Y-103124000D01*
X105700236Y-102842691D01*
X105618182Y-102572192D01*
X105484932Y-102322899D01*
X105305608Y-102104392D01*
X105087101Y-101925068D01*
X104954142Y-101854000D01*
X105087101Y-101782932D01*
X105305608Y-101603608D01*
X105484932Y-101385101D01*
X105618182Y-101135808D01*
X105700236Y-100865309D01*
X105727943Y-100584000D01*
X105700236Y-100302691D01*
X105618182Y-100032192D01*
X105484932Y-99782899D01*
X105305608Y-99564392D01*
X105087101Y-99385068D01*
X104959259Y-99316735D01*
X105188839Y-99166601D01*
X105390500Y-98968895D01*
X105549715Y-98735646D01*
X105660367Y-98475818D01*
X105677904Y-98393039D01*
X105555915Y-98171000D01*
X104013000Y-98171000D01*
X104013000Y-98191000D01*
X103759000Y-98191000D01*
X103759000Y-98171000D01*
X102216085Y-98171000D01*
X102094096Y-98393039D01*
X102111633Y-98475818D01*
X102222285Y-98735646D01*
X102381500Y-98968895D01*
X102583161Y-99166601D01*
X102812741Y-99316735D01*
X102684899Y-99385068D01*
X102466392Y-99564392D01*
X102287068Y-99782899D01*
X102153818Y-100032192D01*
X102071764Y-100302691D01*
X102044057Y-100584000D01*
X102071764Y-100865309D01*
X102153818Y-101135808D01*
X102287068Y-101385101D01*
X102466392Y-101603608D01*
X102684899Y-101782932D01*
X102817858Y-101854000D01*
X102684899Y-101925068D01*
X102466392Y-102104392D01*
X102287068Y-102322899D01*
X102153818Y-102572192D01*
X102071764Y-102842691D01*
X102044057Y-103124000D01*
X102071764Y-103405309D01*
X102153818Y-103675808D01*
X102287068Y-103925101D01*
X102466392Y-104143608D01*
X102684899Y-104322932D01*
X102817858Y-104394000D01*
X102684899Y-104465068D01*
X102466392Y-104644392D01*
X102287068Y-104862899D01*
X102153818Y-105112192D01*
X102071764Y-105382691D01*
X102044057Y-105664000D01*
X102071764Y-105945309D01*
X102153818Y-106215808D01*
X102287068Y-106465101D01*
X102466392Y-106683608D01*
X102684899Y-106862932D01*
X102817858Y-106934000D01*
X102684899Y-107005068D01*
X102466392Y-107184392D01*
X102287068Y-107402899D01*
X102153818Y-107652192D01*
X102071764Y-107922691D01*
X102044057Y-108204000D01*
X102071764Y-108485309D01*
X102153818Y-108755808D01*
X102287068Y-109005101D01*
X102466392Y-109223608D01*
X102684899Y-109402932D01*
X102817858Y-109474000D01*
X102684899Y-109545068D01*
X102466392Y-109724392D01*
X102287068Y-109942899D01*
X102153818Y-110192192D01*
X102071764Y-110462691D01*
X102044057Y-110744000D01*
X102071764Y-111025309D01*
X102153818Y-111295808D01*
X102287068Y-111545101D01*
X102466392Y-111763608D01*
X102684899Y-111942932D01*
X102817858Y-112014000D01*
X102684899Y-112085068D01*
X102466392Y-112264392D01*
X102287068Y-112482899D01*
X102153818Y-112732192D01*
X102071764Y-113002691D01*
X102044057Y-113284000D01*
X102071764Y-113565309D01*
X102153818Y-113835808D01*
X102287068Y-114085101D01*
X102466392Y-114303608D01*
X102684899Y-114482932D01*
X102934192Y-114616182D01*
X103204691Y-114698236D01*
X103415508Y-114719000D01*
X104356492Y-114719000D01*
X104567309Y-114698236D01*
X104837808Y-114616182D01*
X105087101Y-114482932D01*
X105305608Y-114303608D01*
X105484932Y-114085101D01*
X105618182Y-113835808D01*
X105700236Y-113565309D01*
X105727943Y-113284000D01*
X105700236Y-113002691D01*
X105618182Y-112732192D01*
X105484932Y-112482899D01*
X105305608Y-112264392D01*
X105087101Y-112085068D01*
X104954142Y-112014000D01*
X105087101Y-111942932D01*
X105305608Y-111763608D01*
X105484932Y-111545101D01*
X105493538Y-111529000D01*
X107624843Y-111529000D01*
X108637658Y-112541815D01*
X108662236Y-112571764D01*
X108692184Y-112596342D01*
X108692187Y-112596345D01*
X108695057Y-112598700D01*
X108781767Y-112669862D01*
X108918140Y-112742754D01*
X109021412Y-112774081D01*
X109066112Y-112787641D01*
X109080490Y-112789057D01*
X109181439Y-112799000D01*
X109181446Y-112799000D01*
X109219999Y-112802797D01*
X109258552Y-112799000D01*
X109753552Y-112799000D01*
X109691764Y-113002691D01*
X109664057Y-113284000D01*
X109691764Y-113565309D01*
X109773818Y-113835808D01*
X109907068Y-114085101D01*
X110086392Y-114303608D01*
X110304899Y-114482932D01*
X110554192Y-114616182D01*
X110824691Y-114698236D01*
X111035508Y-114719000D01*
X111976492Y-114719000D01*
X112187309Y-114698236D01*
X112457808Y-114616182D01*
X112707101Y-114482932D01*
X112925608Y-114303608D01*
X113104932Y-114085101D01*
X113238182Y-113835808D01*
X113320236Y-113565309D01*
X113347943Y-113284000D01*
X113320236Y-113002691D01*
X113249010Y-112767886D01*
X113331860Y-112742754D01*
X113468233Y-112669862D01*
X113587764Y-112571764D01*
X113612347Y-112541810D01*
X114096936Y-112057222D01*
X114089000Y-112097117D01*
X114089000Y-112438883D01*
X114155675Y-112774081D01*
X114286463Y-113089831D01*
X114476337Y-113373998D01*
X114718002Y-113615663D01*
X115002169Y-113805537D01*
X115317919Y-113936325D01*
X115653117Y-114003000D01*
X115994883Y-114003000D01*
X116330081Y-113936325D01*
X116645831Y-113805537D01*
X116929998Y-113615663D01*
X117171663Y-113373998D01*
X117361537Y-113089831D01*
X117492325Y-112774081D01*
X117559000Y-112438883D01*
X117559000Y-112097117D01*
X117492325Y-111761919D01*
X117417108Y-111580330D01*
X117536613Y-111678405D01*
X117690149Y-111760472D01*
X117856745Y-111811008D01*
X118029999Y-111828072D01*
X118730001Y-111828072D01*
X118903255Y-111811008D01*
X119069851Y-111760472D01*
X119223387Y-111678405D01*
X119357962Y-111567962D01*
X119380000Y-111541109D01*
X119402038Y-111567962D01*
X119536613Y-111678405D01*
X119690149Y-111760472D01*
X119856745Y-111811008D01*
X120029999Y-111828072D01*
X120730001Y-111828072D01*
X120903255Y-111811008D01*
X121069851Y-111760472D01*
X121223387Y-111678405D01*
X121357962Y-111567962D01*
X121468405Y-111433387D01*
X121550472Y-111279851D01*
X121551944Y-111275000D01*
X121928526Y-111275000D01*
X122036525Y-111436632D01*
X122243368Y-111643475D01*
X122425534Y-111765195D01*
X122308645Y-111834822D01*
X122092412Y-112029731D01*
X121918359Y-112263080D01*
X121793175Y-112525901D01*
X121748524Y-112673110D01*
X121869845Y-112903000D01*
X123063000Y-112903000D01*
X123063000Y-112883000D01*
X123317000Y-112883000D01*
X123317000Y-112903000D01*
X123337000Y-112903000D01*
X123337000Y-113157000D01*
X123317000Y-113157000D01*
X123317000Y-113177000D01*
X123063000Y-113177000D01*
X123063000Y-113157000D01*
X121869845Y-113157000D01*
X121748524Y-113386890D01*
X121793175Y-113534099D01*
X121918359Y-113796920D01*
X122092412Y-114030269D01*
X122308645Y-114225178D01*
X122425534Y-114294805D01*
X122243368Y-114416525D01*
X122036525Y-114623368D01*
X121874010Y-114866589D01*
X121762068Y-115136842D01*
X121705000Y-115423740D01*
X121705000Y-115716260D01*
X121762068Y-116003158D01*
X121874010Y-116273411D01*
X122036525Y-116516632D01*
X122243368Y-116723475D01*
X122486589Y-116885990D01*
X122756842Y-116997932D01*
X123043740Y-117055000D01*
X123336260Y-117055000D01*
X123623158Y-116997932D01*
X123893411Y-116885990D01*
X124136632Y-116723475D01*
X124340001Y-116520106D01*
X124340001Y-122340000D01*
X122672383Y-122340000D01*
X122892012Y-122011302D01*
X123052953Y-121622756D01*
X123135000Y-121210279D01*
X123135000Y-120789721D01*
X123052953Y-120377244D01*
X122892012Y-119988698D01*
X122658363Y-119639017D01*
X122360983Y-119341637D01*
X122011302Y-119107988D01*
X121622756Y-118947047D01*
X121210279Y-118865000D01*
X120789721Y-118865000D01*
X120377244Y-118947047D01*
X119988698Y-119107988D01*
X119639017Y-119341637D01*
X119341637Y-119639017D01*
X119107988Y-119988698D01*
X118947047Y-120377244D01*
X118865000Y-120789721D01*
X118865000Y-121210279D01*
X118947047Y-121622756D01*
X119107988Y-122011302D01*
X119327617Y-122340000D01*
X104243998Y-122340000D01*
X104251963Y-122333463D01*
X104450345Y-122091734D01*
X104597755Y-121815948D01*
X104688530Y-121516703D01*
X104711500Y-121283485D01*
X104711500Y-121032514D01*
X104688530Y-120799296D01*
X104597755Y-120500051D01*
X104450345Y-120224265D01*
X104251963Y-119982537D01*
X104010234Y-119784155D01*
X103734448Y-119636745D01*
X103435203Y-119545970D01*
X103124000Y-119515319D01*
X102812796Y-119545970D01*
X102513551Y-119636745D01*
X102237765Y-119784155D01*
X101996037Y-119982537D01*
X101848838Y-120161900D01*
X101693437Y-119976685D01*
X101450923Y-119782031D01*
X101175094Y-119638429D01*
X100956980Y-119567437D01*
X100711000Y-119687406D01*
X100711000Y-121031000D01*
X100731000Y-121031000D01*
X100731000Y-121285000D01*
X100711000Y-121285000D01*
X100711000Y-121305000D01*
X100457000Y-121305000D01*
X100457000Y-121285000D01*
X100437000Y-121285000D01*
X100437000Y-121031000D01*
X100457000Y-121031000D01*
X100457000Y-119687406D01*
X100211020Y-119567437D01*
X99992906Y-119638429D01*
X99717077Y-119782031D01*
X99576059Y-119895219D01*
X99527037Y-119803506D01*
X99447685Y-119706815D01*
X99350994Y-119627463D01*
X99240680Y-119568498D01*
X99120982Y-119532188D01*
X98996500Y-119519928D01*
X97091500Y-119519928D01*
X96967018Y-119532188D01*
X96847320Y-119568498D01*
X96737006Y-119627463D01*
X96640315Y-119706815D01*
X96560963Y-119803506D01*
X96501998Y-119913820D01*
X96465688Y-120033518D01*
X96453428Y-120158000D01*
X96453428Y-122158000D01*
X96465688Y-122282482D01*
X96483136Y-122340000D01*
X80660000Y-122340000D01*
X80660000Y-121388000D01*
X81935928Y-121388000D01*
X81948188Y-121512482D01*
X81984498Y-121632180D01*
X82043463Y-121742494D01*
X82122815Y-121839185D01*
X82219506Y-121918537D01*
X82329820Y-121977502D01*
X82449518Y-122013812D01*
X82574000Y-122026072D01*
X83788250Y-122023000D01*
X83947000Y-121864250D01*
X83947000Y-120015000D01*
X84201000Y-120015000D01*
X84201000Y-121864250D01*
X84359750Y-122023000D01*
X85574000Y-122026072D01*
X85698482Y-122013812D01*
X85818180Y-121977502D01*
X85928494Y-121918537D01*
X86025185Y-121839185D01*
X86104537Y-121742494D01*
X86163502Y-121632180D01*
X86199812Y-121512482D01*
X86212072Y-121388000D01*
X86209143Y-120230000D01*
X88427928Y-120230000D01*
X88440188Y-120354482D01*
X88476498Y-120474180D01*
X88535463Y-120584494D01*
X88614815Y-120681185D01*
X88711506Y-120760537D01*
X88821820Y-120819502D01*
X88941518Y-120855812D01*
X89066000Y-120868072D01*
X89630250Y-120865000D01*
X89789000Y-120706250D01*
X89789000Y-119507000D01*
X90043000Y-119507000D01*
X90043000Y-120706250D01*
X90201750Y-120865000D01*
X90766000Y-120868072D01*
X90890482Y-120855812D01*
X91010180Y-120819502D01*
X91120494Y-120760537D01*
X91217185Y-120681185D01*
X91296537Y-120584494D01*
X91355502Y-120474180D01*
X91391812Y-120354482D01*
X91404072Y-120230000D01*
X91401000Y-119665750D01*
X91242250Y-119507000D01*
X90043000Y-119507000D01*
X89789000Y-119507000D01*
X88589750Y-119507000D01*
X88431000Y-119665750D01*
X88427928Y-120230000D01*
X86209143Y-120230000D01*
X86209000Y-120173750D01*
X86050250Y-120015000D01*
X84201000Y-120015000D01*
X83947000Y-120015000D01*
X82097750Y-120015000D01*
X81939000Y-120173750D01*
X81935928Y-121388000D01*
X80660000Y-121388000D01*
X80660000Y-118388000D01*
X81935928Y-118388000D01*
X81939000Y-119602250D01*
X82097750Y-119761000D01*
X83947000Y-119761000D01*
X83947000Y-117911750D01*
X84201000Y-117911750D01*
X84201000Y-119761000D01*
X86050250Y-119761000D01*
X86209000Y-119602250D01*
X86212072Y-118388000D01*
X86199812Y-118263518D01*
X86163502Y-118143820D01*
X86104537Y-118033506D01*
X86025185Y-117936815D01*
X85928494Y-117857463D01*
X85818180Y-117798498D01*
X85698482Y-117762188D01*
X85574000Y-117749928D01*
X84359750Y-117753000D01*
X84201000Y-117911750D01*
X83947000Y-117911750D01*
X83788250Y-117753000D01*
X82574000Y-117749928D01*
X82449518Y-117762188D01*
X82329820Y-117798498D01*
X82219506Y-117857463D01*
X82122815Y-117936815D01*
X82043463Y-118033506D01*
X81984498Y-118143820D01*
X81948188Y-118263518D01*
X81935928Y-118388000D01*
X80660000Y-118388000D01*
X80660000Y-98363736D01*
X80674001Y-98373092D01*
X80674000Y-107145761D01*
X80669840Y-107188000D01*
X80674000Y-107230239D01*
X80674000Y-107230245D01*
X80675610Y-107246589D01*
X80686444Y-107356589D01*
X80700492Y-107402899D01*
X80735619Y-107518699D01*
X80815476Y-107668101D01*
X80922946Y-107799054D01*
X80955765Y-107825988D01*
X81935928Y-108806151D01*
X81935928Y-110974000D01*
X81948188Y-111098482D01*
X81984498Y-111218180D01*
X82043463Y-111328494D01*
X82122815Y-111425185D01*
X82219506Y-111504537D01*
X82329820Y-111563502D01*
X82449518Y-111599812D01*
X82574000Y-111612072D01*
X85574000Y-111612072D01*
X85698482Y-111599812D01*
X85754001Y-111582971D01*
X85754001Y-111911776D01*
X84848058Y-112817719D01*
X84696756Y-112755047D01*
X84284279Y-112673000D01*
X83863721Y-112673000D01*
X83451244Y-112755047D01*
X83062698Y-112915988D01*
X82713017Y-113149637D01*
X82415637Y-113447017D01*
X82181988Y-113796698D01*
X82021047Y-114185244D01*
X81939000Y-114597721D01*
X81939000Y-115018279D01*
X82021047Y-115430756D01*
X82181988Y-115819302D01*
X82415637Y-116168983D01*
X82713017Y-116466363D01*
X83062698Y-116700012D01*
X83451244Y-116860953D01*
X83863721Y-116943000D01*
X84284279Y-116943000D01*
X84696756Y-116860953D01*
X85085302Y-116700012D01*
X85434983Y-116466363D01*
X85732363Y-116168983D01*
X85966012Y-115819302D01*
X86126953Y-115430756D01*
X86209000Y-115018279D01*
X86209000Y-114597721D01*
X86126953Y-114185244D01*
X86064281Y-114033942D01*
X86844151Y-113254072D01*
X86841203Y-113284000D01*
X86856359Y-113437886D01*
X86901246Y-113585859D01*
X86917177Y-113615663D01*
X86974139Y-113722233D01*
X87014690Y-113771644D01*
X87047655Y-113811812D01*
X87047659Y-113811816D01*
X87072237Y-113841764D01*
X87102185Y-113866342D01*
X88063657Y-114827815D01*
X88088236Y-114857764D01*
X88118184Y-114882342D01*
X88118187Y-114882345D01*
X88147559Y-114906450D01*
X88207767Y-114955862D01*
X88344140Y-115028754D01*
X88492113Y-115073642D01*
X88567026Y-115081020D01*
X88607439Y-115085000D01*
X88607444Y-115085000D01*
X88646000Y-115088797D01*
X88656380Y-115087775D01*
X88762525Y-115246632D01*
X88969368Y-115453475D01*
X89143760Y-115570000D01*
X88969368Y-115686525D01*
X88762525Y-115893368D01*
X88600010Y-116136589D01*
X88488068Y-116406842D01*
X88431000Y-116693740D01*
X88431000Y-116986260D01*
X88488068Y-117273158D01*
X88600010Y-117543411D01*
X88762525Y-117786632D01*
X88894380Y-117918487D01*
X88821820Y-117940498D01*
X88711506Y-117999463D01*
X88614815Y-118078815D01*
X88535463Y-118175506D01*
X88476498Y-118285820D01*
X88440188Y-118405518D01*
X88427928Y-118530000D01*
X88431000Y-119094250D01*
X88589750Y-119253000D01*
X89789000Y-119253000D01*
X89789000Y-119233000D01*
X90043000Y-119233000D01*
X90043000Y-119253000D01*
X91242250Y-119253000D01*
X91401000Y-119094250D01*
X91404072Y-118530000D01*
X91391812Y-118405518D01*
X91355502Y-118285820D01*
X91296537Y-118175506D01*
X91217185Y-118078815D01*
X91120494Y-117999463D01*
X91010180Y-117940498D01*
X90937620Y-117918487D01*
X91069475Y-117786632D01*
X91231990Y-117543411D01*
X91343932Y-117273158D01*
X91401000Y-116986260D01*
X91401000Y-116693740D01*
X91343932Y-116406842D01*
X91231990Y-116136589D01*
X91069475Y-115893368D01*
X90862632Y-115686525D01*
X90688240Y-115570000D01*
X90862632Y-115453475D01*
X91069475Y-115246632D01*
X91231990Y-115003411D01*
X91343932Y-114733158D01*
X91401000Y-114446260D01*
X91401000Y-114153740D01*
X91343932Y-113866842D01*
X91231990Y-113596589D01*
X91069475Y-113353368D01*
X90862632Y-113146525D01*
X90688240Y-113030000D01*
X90862632Y-112913475D01*
X91069475Y-112706632D01*
X91231990Y-112463411D01*
X91343932Y-112193158D01*
X91396277Y-111930000D01*
X93003928Y-111930000D01*
X93003928Y-114130000D01*
X93016188Y-114254482D01*
X93052498Y-114374180D01*
X93111463Y-114484494D01*
X93190815Y-114581185D01*
X93287506Y-114660537D01*
X93397820Y-114719502D01*
X93517518Y-114755812D01*
X93642000Y-114768072D01*
X93968342Y-114768072D01*
X93952815Y-114780815D01*
X93873463Y-114877506D01*
X93814498Y-114987820D01*
X93778188Y-115107518D01*
X93765928Y-115232000D01*
X93765928Y-117432000D01*
X93778188Y-117556482D01*
X93814498Y-117676180D01*
X93873463Y-117786494D01*
X93952815Y-117883185D01*
X94049506Y-117962537D01*
X94159820Y-118021502D01*
X94279518Y-118057812D01*
X94404000Y-118070072D01*
X96604000Y-118070072D01*
X96728482Y-118057812D01*
X96848180Y-118021502D01*
X96958494Y-117962537D01*
X97055185Y-117883185D01*
X97134537Y-117786494D01*
X97193502Y-117676180D01*
X97229812Y-117556482D01*
X97242072Y-117432000D01*
X97242072Y-115232000D01*
X97229812Y-115107518D01*
X97193502Y-114987820D01*
X97134537Y-114877506D01*
X97055185Y-114780815D01*
X96958494Y-114701463D01*
X96848180Y-114642498D01*
X96728482Y-114606188D01*
X96604000Y-114593928D01*
X96277658Y-114593928D01*
X96293185Y-114581185D01*
X96372537Y-114484494D01*
X96431502Y-114374180D01*
X96467812Y-114254482D01*
X96480072Y-114130000D01*
X96480072Y-111930000D01*
X96467812Y-111805518D01*
X96431502Y-111685820D01*
X96372537Y-111575506D01*
X96293185Y-111478815D01*
X96196494Y-111399463D01*
X96086180Y-111340498D01*
X95966482Y-111304188D01*
X95842000Y-111291928D01*
X93642000Y-111291928D01*
X93517518Y-111304188D01*
X93397820Y-111340498D01*
X93287506Y-111399463D01*
X93190815Y-111478815D01*
X93111463Y-111575506D01*
X93052498Y-111685820D01*
X93016188Y-111805518D01*
X93003928Y-111930000D01*
X91396277Y-111930000D01*
X91401000Y-111906260D01*
X91401000Y-111613740D01*
X91380673Y-111511550D01*
X92050224Y-110842000D01*
X96876779Y-110842000D01*
X100232001Y-114197223D01*
X100232000Y-115273761D01*
X100227840Y-115316000D01*
X100232000Y-115358239D01*
X100232000Y-115358245D01*
X100244444Y-115484588D01*
X100293619Y-115646699D01*
X100373476Y-115796101D01*
X100480946Y-115927054D01*
X100513765Y-115953988D01*
X105788017Y-121228241D01*
X105814946Y-121261054D01*
X105945898Y-121368524D01*
X106095300Y-121448381D01*
X106208235Y-121482639D01*
X106257410Y-121497556D01*
X106274558Y-121499245D01*
X106318125Y-121503536D01*
X106320188Y-121524482D01*
X106356498Y-121644180D01*
X106415463Y-121754494D01*
X106494815Y-121851185D01*
X106591506Y-121930537D01*
X106701820Y-121989502D01*
X106821518Y-122025812D01*
X106946000Y-122038072D01*
X108446000Y-122038072D01*
X108570482Y-122025812D01*
X108690180Y-121989502D01*
X108800494Y-121930537D01*
X108897185Y-121851185D01*
X108976537Y-121754494D01*
X109035502Y-121644180D01*
X109046782Y-121606993D01*
X109458612Y-121606993D01*
X109524137Y-121845860D01*
X109771116Y-121961760D01*
X110035960Y-122027250D01*
X110308492Y-122039812D01*
X110578238Y-121998965D01*
X110834832Y-121906277D01*
X110947863Y-121845860D01*
X111013388Y-121606993D01*
X110236000Y-120829605D01*
X109458612Y-121606993D01*
X109046782Y-121606993D01*
X109071812Y-121524482D01*
X109084072Y-121400000D01*
X109084072Y-121373914D01*
X109279007Y-121427388D01*
X110056395Y-120650000D01*
X110415605Y-120650000D01*
X111192993Y-121427388D01*
X111431860Y-121361863D01*
X111506164Y-121203523D01*
X111548629Y-121306043D01*
X111700201Y-121532886D01*
X111893114Y-121725799D01*
X112119957Y-121877371D01*
X112372011Y-121981775D01*
X112639589Y-122035000D01*
X112912411Y-122035000D01*
X113179989Y-121981775D01*
X113432043Y-121877371D01*
X113658886Y-121725799D01*
X113851799Y-121532886D01*
X114003371Y-121306043D01*
X114107775Y-121053989D01*
X114161000Y-120786411D01*
X114161000Y-120660937D01*
X114286463Y-120963831D01*
X114476337Y-121247998D01*
X114718002Y-121489663D01*
X115002169Y-121679537D01*
X115317919Y-121810325D01*
X115653117Y-121877000D01*
X115994883Y-121877000D01*
X116330081Y-121810325D01*
X116645831Y-121679537D01*
X116929998Y-121489663D01*
X117171663Y-121247998D01*
X117361537Y-120963831D01*
X117492325Y-120648081D01*
X117559000Y-120312883D01*
X117559000Y-119971117D01*
X117492325Y-119635919D01*
X117361537Y-119320169D01*
X117171663Y-119036002D01*
X116929998Y-118794337D01*
X116645831Y-118604463D01*
X116330081Y-118473675D01*
X115994883Y-118407000D01*
X115653117Y-118407000D01*
X115317919Y-118473675D01*
X115002169Y-118604463D01*
X114718002Y-118794337D01*
X114476337Y-119036002D01*
X114286463Y-119320169D01*
X114155675Y-119635919D01*
X114089000Y-119971117D01*
X114089000Y-120200684D01*
X114003371Y-119993957D01*
X113851799Y-119767114D01*
X113658886Y-119574201D01*
X113432043Y-119422629D01*
X113179989Y-119318225D01*
X112912411Y-119265000D01*
X112639589Y-119265000D01*
X112372011Y-119318225D01*
X112119957Y-119422629D01*
X111893114Y-119574201D01*
X111700201Y-119767114D01*
X111548629Y-119993957D01*
X111507489Y-120093279D01*
X111492277Y-120051168D01*
X111431860Y-119938137D01*
X111192993Y-119872612D01*
X110415605Y-120650000D01*
X110056395Y-120650000D01*
X109279007Y-119872612D01*
X109084072Y-119926086D01*
X109084072Y-119900000D01*
X109071812Y-119775518D01*
X109046783Y-119693007D01*
X109458612Y-119693007D01*
X110236000Y-120470395D01*
X111013388Y-119693007D01*
X110947863Y-119454140D01*
X110700884Y-119338240D01*
X110436040Y-119272750D01*
X110163508Y-119260188D01*
X109893762Y-119301035D01*
X109637168Y-119393723D01*
X109524137Y-119454140D01*
X109458612Y-119693007D01*
X109046783Y-119693007D01*
X109035502Y-119655820D01*
X108976537Y-119545506D01*
X108897185Y-119448815D01*
X108800494Y-119369463D01*
X108690180Y-119310498D01*
X108570482Y-119274188D01*
X108446000Y-119261928D01*
X106946000Y-119261928D01*
X106821518Y-119274188D01*
X106701820Y-119310498D01*
X106591506Y-119369463D01*
X106494815Y-119448815D01*
X106470575Y-119478351D01*
X104875614Y-117883390D01*
X105157919Y-118000325D01*
X105493117Y-118067000D01*
X105834883Y-118067000D01*
X106170081Y-118000325D01*
X106485831Y-117869537D01*
X106769998Y-117679663D01*
X107011663Y-117437998D01*
X107201537Y-117153831D01*
X107332325Y-116838081D01*
X107399000Y-116502883D01*
X107399000Y-116161117D01*
X107332325Y-115825919D01*
X107201537Y-115510169D01*
X107015671Y-115232000D01*
X114085928Y-115232000D01*
X114085928Y-117432000D01*
X114098188Y-117556482D01*
X114134498Y-117676180D01*
X114193463Y-117786494D01*
X114272815Y-117883185D01*
X114369506Y-117962537D01*
X114479820Y-118021502D01*
X114599518Y-118057812D01*
X114724000Y-118070072D01*
X116924000Y-118070072D01*
X117048482Y-118057812D01*
X117168180Y-118021502D01*
X117278494Y-117962537D01*
X117375185Y-117883185D01*
X117454537Y-117786494D01*
X117513502Y-117676180D01*
X117549812Y-117556482D01*
X117562072Y-117432000D01*
X117562072Y-115232000D01*
X117549812Y-115107518D01*
X117513502Y-114987820D01*
X117454537Y-114877506D01*
X117375185Y-114780815D01*
X117278494Y-114701463D01*
X117168180Y-114642498D01*
X117048482Y-114606188D01*
X116924000Y-114593928D01*
X114724000Y-114593928D01*
X114599518Y-114606188D01*
X114479820Y-114642498D01*
X114369506Y-114701463D01*
X114272815Y-114780815D01*
X114193463Y-114877506D01*
X114134498Y-114987820D01*
X114098188Y-115107518D01*
X114085928Y-115232000D01*
X107015671Y-115232000D01*
X107011663Y-115226002D01*
X106769998Y-114984337D01*
X106485831Y-114794463D01*
X106170081Y-114663675D01*
X105834883Y-114597000D01*
X105493117Y-114597000D01*
X105157919Y-114663675D01*
X104842169Y-114794463D01*
X104558002Y-114984337D01*
X104316337Y-115226002D01*
X104126463Y-115510169D01*
X103995675Y-115825919D01*
X103929000Y-116161117D01*
X103929000Y-116502883D01*
X103995675Y-116838081D01*
X104112610Y-117120386D01*
X101952000Y-114959777D01*
X101952000Y-113883236D01*
X101956160Y-113840997D01*
X101952000Y-113798758D01*
X101952000Y-113798752D01*
X101939556Y-113672409D01*
X101939556Y-113672407D01*
X101907068Y-113565309D01*
X101890381Y-113510298D01*
X101810524Y-113360896D01*
X101703054Y-113229944D01*
X101670241Y-113203015D01*
X97870990Y-109403765D01*
X97844056Y-109370946D01*
X97713104Y-109263476D01*
X97563702Y-109183619D01*
X97401591Y-109134444D01*
X97275248Y-109122000D01*
X97275241Y-109122000D01*
X97233002Y-109117840D01*
X97190763Y-109122000D01*
X91736246Y-109122000D01*
X91694000Y-109117839D01*
X91525410Y-109134444D01*
X91363299Y-109183619D01*
X91317015Y-109208359D01*
X91213898Y-109263476D01*
X91082946Y-109370946D01*
X91056017Y-109403759D01*
X90776000Y-109683776D01*
X90776000Y-88101087D01*
X90890482Y-88089812D01*
X91010180Y-88053502D01*
X91120494Y-87994537D01*
X91217185Y-87915185D01*
X91296537Y-87818494D01*
X91355502Y-87708180D01*
X91391812Y-87588482D01*
X91404072Y-87464000D01*
X91404072Y-85764000D01*
X91391812Y-85639518D01*
X91355502Y-85519820D01*
X91296537Y-85409506D01*
X91217185Y-85312815D01*
X91120494Y-85233463D01*
X91010180Y-85174498D01*
X90929534Y-85150034D01*
X91013588Y-85074269D01*
X91187641Y-84840920D01*
X91312825Y-84578099D01*
X91357476Y-84430890D01*
X91236155Y-84201000D01*
X90043000Y-84201000D01*
X90043000Y-84221000D01*
X89789000Y-84221000D01*
X89789000Y-84201000D01*
X89769000Y-84201000D01*
X89769000Y-83947000D01*
X89789000Y-83947000D01*
X89789000Y-81661000D01*
X90043000Y-81661000D01*
X90043000Y-83947000D01*
X91236155Y-83947000D01*
X91357476Y-83717110D01*
X91312825Y-83569901D01*
X91187641Y-83307080D01*
X91013588Y-83073731D01*
X90797355Y-82878822D01*
X90671745Y-82804000D01*
X90797355Y-82729178D01*
X91013588Y-82534269D01*
X91187641Y-82300920D01*
X91312825Y-82038099D01*
X91357476Y-81890890D01*
X91236155Y-81661000D01*
X90043000Y-81661000D01*
X89789000Y-81661000D01*
X89769000Y-81661000D01*
X89769000Y-81407000D01*
X89789000Y-81407000D01*
X89789000Y-81387000D01*
X90043000Y-81387000D01*
X90043000Y-81407000D01*
X91236155Y-81407000D01*
X91357476Y-81177110D01*
X91312825Y-81029901D01*
X91187641Y-80767080D01*
X91013588Y-80533731D01*
X90797355Y-80338822D01*
X90680466Y-80269195D01*
X90862632Y-80147475D01*
X91069475Y-79940632D01*
X91231990Y-79697411D01*
X91343932Y-79427158D01*
X91401000Y-79140260D01*
X91401000Y-78847740D01*
X91343932Y-78560842D01*
X91231990Y-78290589D01*
X91069475Y-78047368D01*
X90862632Y-77840525D01*
X90619411Y-77678010D01*
X90349158Y-77566068D01*
X90062260Y-77509000D01*
X89769740Y-77509000D01*
X89482842Y-77566068D01*
X89212589Y-77678010D01*
X88969368Y-77840525D01*
X88762525Y-78047368D01*
X88600010Y-78290589D01*
X88488068Y-78560842D01*
X88431000Y-78847740D01*
X88431000Y-79140260D01*
X88451327Y-79242450D01*
X87559765Y-80134012D01*
X87526946Y-80160946D01*
X87419476Y-80291899D01*
X87339619Y-80441301D01*
X87290444Y-80603412D01*
X87278000Y-80729755D01*
X87278000Y-80729761D01*
X87273840Y-80772000D01*
X87278000Y-80814239D01*
X87278000Y-82323242D01*
X87199663Y-82206002D01*
X86957998Y-81964337D01*
X86673831Y-81774463D01*
X86358081Y-81643675D01*
X86022883Y-81577000D01*
X85681117Y-81577000D01*
X85345919Y-81643675D01*
X85030169Y-81774463D01*
X84929557Y-81841690D01*
X84863185Y-81760815D01*
X84766494Y-81681463D01*
X84656180Y-81622498D01*
X84536482Y-81586188D01*
X84412000Y-81573928D01*
X82212000Y-81573928D01*
X82087518Y-81586188D01*
X81967820Y-81622498D01*
X81857506Y-81681463D01*
X81760815Y-81760815D01*
X81681463Y-81857506D01*
X81622498Y-81967820D01*
X81586188Y-82087518D01*
X81573928Y-82212000D01*
X81573928Y-84412000D01*
X81586188Y-84536482D01*
X81622498Y-84656180D01*
X81681463Y-84766494D01*
X81760815Y-84863185D01*
X81857506Y-84942537D01*
X81967820Y-85001502D01*
X82087518Y-85037812D01*
X82212000Y-85050072D01*
X84412000Y-85050072D01*
X84536482Y-85037812D01*
X84656180Y-85001502D01*
X84766494Y-84942537D01*
X84863185Y-84863185D01*
X84929557Y-84782310D01*
X85030169Y-84849537D01*
X85345919Y-84980325D01*
X85681117Y-85047000D01*
X86022883Y-85047000D01*
X86358081Y-84980325D01*
X86673831Y-84849537D01*
X86957998Y-84659663D01*
X87199663Y-84417998D01*
X87278000Y-84300758D01*
X87278001Y-85899946D01*
X87270043Y-85894629D01*
X87017989Y-85790225D01*
X86750411Y-85737000D01*
X86477589Y-85737000D01*
X86210011Y-85790225D01*
X85957957Y-85894629D01*
X85731114Y-86046201D01*
X85538201Y-86239114D01*
X85386629Y-86465957D01*
X85282225Y-86718011D01*
X85229000Y-86985589D01*
X85229000Y-87258411D01*
X85282225Y-87525989D01*
X85386629Y-87778043D01*
X85538201Y-88004886D01*
X85731114Y-88197799D01*
X85957957Y-88349371D01*
X86210011Y-88453775D01*
X86477589Y-88507000D01*
X86750411Y-88507000D01*
X87017989Y-88453775D01*
X87270043Y-88349371D01*
X87278001Y-88344054D01*
X87278001Y-89111751D01*
X87273840Y-89154000D01*
X87290444Y-89322589D01*
X87339620Y-89484700D01*
X87419477Y-89634102D01*
X87442372Y-89661999D01*
X87526947Y-89765054D01*
X87559761Y-89791984D01*
X87786000Y-90018223D01*
X87786000Y-91463089D01*
X87689799Y-91319114D01*
X87496886Y-91126201D01*
X87270043Y-90974629D01*
X87017989Y-90870225D01*
X86750411Y-90817000D01*
X86477589Y-90817000D01*
X86210011Y-90870225D01*
X85957957Y-90974629D01*
X85731114Y-91126201D01*
X85538201Y-91319114D01*
X85386629Y-91545957D01*
X85282225Y-91798011D01*
X85229000Y-92065589D01*
X85229000Y-92338411D01*
X85282225Y-92605989D01*
X85386629Y-92858043D01*
X85538201Y-93084886D01*
X85731114Y-93277799D01*
X85957957Y-93429371D01*
X86060873Y-93472000D01*
X85957957Y-93514629D01*
X85731114Y-93666201D01*
X85538201Y-93859114D01*
X85386629Y-94085957D01*
X85282225Y-94338011D01*
X85229000Y-94605589D01*
X85229000Y-94878411D01*
X85282225Y-95145989D01*
X85386629Y-95398043D01*
X85538201Y-95624886D01*
X85731114Y-95817799D01*
X85957957Y-95969371D01*
X86060873Y-96012000D01*
X85957957Y-96054629D01*
X85731114Y-96206201D01*
X85538201Y-96399114D01*
X85386629Y-96625957D01*
X85282225Y-96878011D01*
X85229000Y-97145589D01*
X85229000Y-97418411D01*
X85282225Y-97685989D01*
X85386629Y-97938043D01*
X85538201Y-98164886D01*
X85731114Y-98357799D01*
X85957957Y-98509371D01*
X86004737Y-98528748D01*
X85879898Y-98595476D01*
X85748946Y-98702946D01*
X85722008Y-98735770D01*
X85273765Y-99184012D01*
X85240946Y-99210946D01*
X85133476Y-99341899D01*
X85053619Y-99491301D01*
X85030353Y-99568000D01*
X85007087Y-99644700D01*
X85004444Y-99653412D01*
X84992000Y-99779755D01*
X84992000Y-99779761D01*
X84987840Y-99822000D01*
X84992000Y-99864239D01*
X84992001Y-101811752D01*
X84987840Y-101854000D01*
X85004444Y-102022589D01*
X85053620Y-102184700D01*
X85133477Y-102334102D01*
X85213631Y-102431769D01*
X85240947Y-102465054D01*
X85273760Y-102491983D01*
X85754000Y-102972224D01*
X85754000Y-103065399D01*
X85732363Y-103033017D01*
X85434983Y-102735637D01*
X85085302Y-102501988D01*
X84934000Y-102439317D01*
X84934000Y-95038238D01*
X84938160Y-94995999D01*
X84934000Y-94953760D01*
X84934000Y-94953754D01*
X84921556Y-94827411D01*
X84872381Y-94665300D01*
X84792524Y-94515898D01*
X84685054Y-94384946D01*
X84652236Y-94358013D01*
X84457988Y-94163765D01*
X84431054Y-94130946D01*
X84300102Y-94023476D01*
X84150700Y-93943619D01*
X83988589Y-93894444D01*
X83862246Y-93882000D01*
X83862239Y-93882000D01*
X83820000Y-93877840D01*
X83777761Y-93882000D01*
X82625091Y-93882000D01*
X82609799Y-93859114D01*
X82416886Y-93666201D01*
X82190043Y-93514629D01*
X82087127Y-93472000D01*
X82190043Y-93429371D01*
X82416886Y-93277799D01*
X82609799Y-93084886D01*
X82761371Y-92858043D01*
X82865775Y-92605989D01*
X82919000Y-92338411D01*
X82919000Y-92065589D01*
X82865775Y-91798011D01*
X82761371Y-91545957D01*
X82609799Y-91319114D01*
X82416886Y-91126201D01*
X82190043Y-90974629D01*
X81937989Y-90870225D01*
X81670411Y-90817000D01*
X81397589Y-90817000D01*
X81130011Y-90870225D01*
X80877957Y-90974629D01*
X80660000Y-91120264D01*
X80660000Y-88424015D01*
X80694458Y-88442433D01*
X80861148Y-88492998D01*
X81034500Y-88510072D01*
X82033500Y-88510072D01*
X82206852Y-88492998D01*
X82373542Y-88442433D01*
X82527164Y-88360321D01*
X82661815Y-88249815D01*
X82772321Y-88115164D01*
X82854433Y-87961542D01*
X82904998Y-87794852D01*
X82922072Y-87621500D01*
X82922072Y-86622500D01*
X82904998Y-86449148D01*
X82854433Y-86282458D01*
X82772321Y-86128836D01*
X82661815Y-85994185D01*
X82527164Y-85883679D01*
X82373542Y-85801567D01*
X82206852Y-85751002D01*
X82033500Y-85733928D01*
X81034500Y-85733928D01*
X80861148Y-85751002D01*
X80694458Y-85801567D01*
X80660000Y-85819985D01*
X80660000Y-79096891D01*
X81108519Y-79096891D01*
X81205843Y-79371252D01*
X81354822Y-79621355D01*
X81549731Y-79837588D01*
X81783080Y-80011641D01*
X82045901Y-80136825D01*
X82193110Y-80181476D01*
X82423000Y-80060155D01*
X82423000Y-78867000D01*
X81229186Y-78867000D01*
X81108519Y-79096891D01*
X80660000Y-79096891D01*
X80660000Y-78383109D01*
X81108519Y-78383109D01*
X81229186Y-78613000D01*
X82423000Y-78613000D01*
X82423000Y-77419845D01*
X82193110Y-77298524D01*
X82045901Y-77343175D01*
X81783080Y-77468359D01*
X81549731Y-77642412D01*
X81354822Y-77858645D01*
X81205843Y-78108748D01*
X81108519Y-78383109D01*
X80660000Y-78383109D01*
X80660000Y-70660000D01*
X82327617Y-70660000D01*
X82107988Y-70988698D01*
%TA.AperFunction,Conductor*%
D33*
G36*
X82107988Y-70988698D02*
G01*
X81947047Y-71377244D01*
X81865000Y-71789721D01*
X81865000Y-72210279D01*
X81947047Y-72622756D01*
X82107988Y-73011302D01*
X82341637Y-73360983D01*
X82639017Y-73658363D01*
X82988698Y-73892012D01*
X83377244Y-74052953D01*
X83789721Y-74135000D01*
X84210279Y-74135000D01*
X84622756Y-74052953D01*
X85011302Y-73892012D01*
X85360983Y-73658363D01*
X85658363Y-73360983D01*
X85892012Y-73011302D01*
X86052953Y-72622756D01*
X86135000Y-72210279D01*
X86135000Y-71789721D01*
X86052953Y-71377244D01*
X85892012Y-70988698D01*
X85672383Y-70660000D01*
X95547427Y-70660000D01*
X95545518Y-70660188D01*
X95425820Y-70696498D01*
X95315506Y-70755463D01*
X95218815Y-70834815D01*
X95139463Y-70931506D01*
X95080498Y-71041820D01*
X95044188Y-71161518D01*
X95031928Y-71286000D01*
X95031928Y-72986000D01*
X95044188Y-73110482D01*
X95080498Y-73230180D01*
X95139463Y-73340494D01*
X95218815Y-73437185D01*
X95315506Y-73516537D01*
X95425820Y-73575502D01*
X95545518Y-73611812D01*
X95670000Y-73624072D01*
X95891910Y-73624072D01*
X95904690Y-73639644D01*
X95937655Y-73679812D01*
X95937659Y-73679816D01*
X95962237Y-73709764D01*
X95992185Y-73734342D01*
X96699653Y-74441810D01*
X96724236Y-74471764D01*
X96843767Y-74569862D01*
X96929082Y-74615463D01*
X96980140Y-74642754D01*
X97128113Y-74687642D01*
X97200949Y-74694815D01*
X97243439Y-74699000D01*
X97243444Y-74699000D01*
X97282000Y-74702797D01*
X97320556Y-74699000D01*
X102036843Y-74699000D01*
X102339000Y-75001157D01*
X102339000Y-75280618D01*
X102155898Y-75204774D01*
X101955939Y-75165000D01*
X101752061Y-75165000D01*
X101552102Y-75204774D01*
X101363744Y-75282795D01*
X101194226Y-75396063D01*
X101050063Y-75540226D01*
X101007020Y-75604645D01*
X100903387Y-75519595D01*
X100749851Y-75437528D01*
X100583255Y-75386992D01*
X100410001Y-75369928D01*
X99709999Y-75369928D01*
X99536745Y-75386992D01*
X99370149Y-75437528D01*
X99216613Y-75519595D01*
X99082038Y-75630038D01*
X99060000Y-75656891D01*
X99037962Y-75630038D01*
X98903387Y-75519595D01*
X98749851Y-75437528D01*
X98583255Y-75386992D01*
X98410001Y-75369928D01*
X97709999Y-75369928D01*
X97536745Y-75386992D01*
X97370149Y-75437528D01*
X97216613Y-75519595D01*
X97082038Y-75630038D01*
X96971595Y-75764613D01*
X96889528Y-75918149D01*
X96888056Y-75923000D01*
X96558555Y-75923000D01*
X96520000Y-75919203D01*
X96481444Y-75923000D01*
X96481439Y-75923000D01*
X96441026Y-75926980D01*
X96366113Y-75934358D01*
X96218140Y-75979246D01*
X96081767Y-76052138D01*
X96021559Y-76101550D01*
X95992187Y-76125655D01*
X95992184Y-76125658D01*
X95962236Y-76150236D01*
X95937657Y-76180185D01*
X94976190Y-77141653D01*
X94946236Y-77166236D01*
X94848138Y-77285768D01*
X94775246Y-77422141D01*
X94730359Y-77570114D01*
X94719000Y-77685440D01*
X94719000Y-77685447D01*
X94715203Y-77724000D01*
X94719000Y-77762553D01*
X94719001Y-78701431D01*
X94719000Y-78701440D01*
X94719001Y-80601288D01*
X94700063Y-80620226D01*
X94586795Y-80789744D01*
X94508774Y-80978102D01*
X94469000Y-81178061D01*
X94469000Y-81381939D01*
X94508774Y-81581898D01*
X94586795Y-81770256D01*
X94700063Y-81939774D01*
X94844226Y-82083937D01*
X95013744Y-82197205D01*
X95202102Y-82275226D01*
X95402061Y-82315000D01*
X95605939Y-82315000D01*
X95805898Y-82275226D01*
X95994256Y-82197205D01*
X96163774Y-82083937D01*
X96307937Y-81939774D01*
X96421205Y-81770256D01*
X96499226Y-81581898D01*
X96539000Y-81381939D01*
X96539000Y-81178061D01*
X96499226Y-80978102D01*
X96421205Y-80789744D01*
X96307937Y-80620226D01*
X96289000Y-80601289D01*
X96289000Y-78049157D01*
X96845158Y-77493000D01*
X96888056Y-77493000D01*
X96889528Y-77497851D01*
X96971595Y-77651387D01*
X97082038Y-77785962D01*
X97216613Y-77896405D01*
X97370149Y-77978472D01*
X97536745Y-78029008D01*
X97709999Y-78046072D01*
X98410001Y-78046072D01*
X98583255Y-78029008D01*
X98749851Y-77978472D01*
X98903387Y-77896405D01*
X99037962Y-77785962D01*
X99060000Y-77759109D01*
X99082038Y-77785962D01*
X99216613Y-77896405D01*
X99370149Y-77978472D01*
X99536745Y-78029008D01*
X99709999Y-78046072D01*
X100410001Y-78046072D01*
X100583255Y-78029008D01*
X100749851Y-77978472D01*
X100903387Y-77896405D01*
X101037962Y-77785962D01*
X101148405Y-77651387D01*
X101230472Y-77497851D01*
X101231944Y-77493000D01*
X101307447Y-77493000D01*
X101346000Y-77496797D01*
X101384553Y-77493000D01*
X101384561Y-77493000D01*
X101499887Y-77481641D01*
X101647860Y-77436754D01*
X101784233Y-77363862D01*
X101903764Y-77265764D01*
X101928347Y-77235810D01*
X101929157Y-77235000D01*
X101955939Y-77235000D01*
X102155898Y-77195226D01*
X102339001Y-77119382D01*
X102339001Y-78701437D01*
X102335203Y-78740000D01*
X102350359Y-78893886D01*
X102358059Y-78919270D01*
X102341825Y-78927947D01*
X102292494Y-78887463D01*
X102182180Y-78828498D01*
X102062482Y-78792188D01*
X101938000Y-78779928D01*
X99738000Y-78779928D01*
X99613518Y-78792188D01*
X99493820Y-78828498D01*
X99383506Y-78887463D01*
X99286815Y-78966815D01*
X99220443Y-79047690D01*
X99119831Y-78980463D01*
X98804081Y-78849675D01*
X98468883Y-78783000D01*
X98127117Y-78783000D01*
X97791919Y-78849675D01*
X97476169Y-78980463D01*
X97192002Y-79170337D01*
X96950337Y-79412002D01*
X96760463Y-79696169D01*
X96629675Y-80011919D01*
X96563000Y-80347117D01*
X96563000Y-80688883D01*
X96629675Y-81024081D01*
X96760463Y-81339831D01*
X96950337Y-81623998D01*
X97192002Y-81865663D01*
X97476169Y-82055537D01*
X97791919Y-82186325D01*
X98127117Y-82253000D01*
X98468883Y-82253000D01*
X98804081Y-82186325D01*
X99119831Y-82055537D01*
X99220443Y-81988310D01*
X99286815Y-82069185D01*
X99383506Y-82148537D01*
X99493820Y-82207502D01*
X99613518Y-82243812D01*
X99738000Y-82256072D01*
X101938000Y-82256072D01*
X102062482Y-82243812D01*
X102176839Y-82209122D01*
X102153818Y-82252192D01*
X102071764Y-82522691D01*
X102044057Y-82804000D01*
X102071764Y-83085309D01*
X102153818Y-83355808D01*
X102287068Y-83605101D01*
X102466392Y-83823608D01*
X102684899Y-84002932D01*
X102817858Y-84074000D01*
X102684899Y-84145068D01*
X102466392Y-84324392D01*
X102287068Y-84542899D01*
X102153818Y-84792192D01*
X102071764Y-85062691D01*
X102044057Y-85344000D01*
X102071764Y-85625309D01*
X102153818Y-85895808D01*
X102287068Y-86145101D01*
X102466392Y-86363608D01*
X102684899Y-86542932D01*
X102817858Y-86614000D01*
X102684899Y-86685068D01*
X102466392Y-86864392D01*
X102287068Y-87082899D01*
X102153818Y-87332192D01*
X102072072Y-87601676D01*
X102072072Y-87034000D01*
X102059812Y-86909518D01*
X102023502Y-86789820D01*
X101964537Y-86679506D01*
X101885185Y-86582815D01*
X101788494Y-86503463D01*
X101678180Y-86444498D01*
X101558482Y-86408188D01*
X101434000Y-86395928D01*
X99734000Y-86395928D01*
X99609518Y-86408188D01*
X99489820Y-86444498D01*
X99379506Y-86503463D01*
X99282815Y-86582815D01*
X99203463Y-86679506D01*
X99144498Y-86789820D01*
X99108188Y-86909518D01*
X99095928Y-87034000D01*
X99095928Y-88734000D01*
X99108188Y-88858482D01*
X99144498Y-88978180D01*
X99203463Y-89088494D01*
X99282815Y-89185185D01*
X99379506Y-89264537D01*
X99489820Y-89323502D01*
X99609518Y-89359812D01*
X99734000Y-89372072D01*
X100961914Y-89372072D01*
X101271658Y-89681815D01*
X101296236Y-89711764D01*
X101326184Y-89736342D01*
X101326187Y-89736345D01*
X101355559Y-89760450D01*
X101415767Y-89809862D01*
X101552140Y-89882754D01*
X101665672Y-89917194D01*
X101700112Y-89927641D01*
X101714490Y-89929057D01*
X101815439Y-89939000D01*
X101815446Y-89939000D01*
X101853999Y-89942797D01*
X101892552Y-89939000D01*
X102133552Y-89939000D01*
X102071764Y-90142691D01*
X102044057Y-90424000D01*
X102071764Y-90705309D01*
X102153818Y-90975808D01*
X102287068Y-91225101D01*
X102466392Y-91443608D01*
X102684899Y-91622932D01*
X102817858Y-91694000D01*
X102684899Y-91765068D01*
X102466392Y-91944392D01*
X102287068Y-92162899D01*
X102153818Y-92412192D01*
X102071764Y-92682691D01*
X102044057Y-92964000D01*
X102071764Y-93245309D01*
X102153818Y-93515808D01*
X102287068Y-93765101D01*
X102466392Y-93983608D01*
X102684899Y-94162932D01*
X102817858Y-94234000D01*
X102684899Y-94305068D01*
X102466392Y-94484392D01*
X102287068Y-94702899D01*
X102153818Y-94952192D01*
X102085094Y-95178749D01*
X101274843Y-95989000D01*
X97861158Y-95989000D01*
X97541158Y-95669000D01*
X97677335Y-95669000D01*
X97954574Y-95613853D01*
X98215727Y-95505680D01*
X98450759Y-95348637D01*
X98650637Y-95148759D01*
X98807680Y-94913727D01*
X98915853Y-94652574D01*
X98971000Y-94375335D01*
X98971000Y-94092665D01*
X99149000Y-94092665D01*
X99149000Y-94375335D01*
X99204147Y-94652574D01*
X99312320Y-94913727D01*
X99469363Y-95148759D01*
X99669241Y-95348637D01*
X99904273Y-95505680D01*
X100165426Y-95613853D01*
X100442665Y-95669000D01*
X100725335Y-95669000D01*
X101002574Y-95613853D01*
X101263727Y-95505680D01*
X101498759Y-95348637D01*
X101698637Y-95148759D01*
X101855680Y-94913727D01*
X101963853Y-94652574D01*
X102019000Y-94375335D01*
X102019000Y-94092665D01*
X101963853Y-93815426D01*
X101855680Y-93554273D01*
X101698637Y-93319241D01*
X101498759Y-93119363D01*
X101298131Y-92985308D01*
X101325514Y-92970671D01*
X101397097Y-92726702D01*
X100584000Y-91913605D01*
X99770903Y-92726702D01*
X99842486Y-92970671D01*
X99871341Y-92984324D01*
X99669241Y-93119363D01*
X99469363Y-93319241D01*
X99312320Y-93554273D01*
X99204147Y-93815426D01*
X99149000Y-94092665D01*
X98971000Y-94092665D01*
X98915853Y-93815426D01*
X98807680Y-93554273D01*
X98650637Y-93319241D01*
X98450759Y-93119363D01*
X98250131Y-92985308D01*
X98277514Y-92970671D01*
X98349097Y-92726702D01*
X97536000Y-91913605D01*
X96722903Y-92726702D01*
X96794486Y-92970671D01*
X96823341Y-92984324D01*
X96621241Y-93119363D01*
X96421363Y-93319241D01*
X96264320Y-93554273D01*
X96156147Y-93815426D01*
X96101000Y-94092665D01*
X96101000Y-94228843D01*
X95019000Y-93146843D01*
X95019000Y-91804512D01*
X96095783Y-91804512D01*
X96137213Y-92084130D01*
X96232397Y-92350292D01*
X96299329Y-92475514D01*
X96543298Y-92547097D01*
X97356395Y-91734000D01*
X97715605Y-91734000D01*
X98528702Y-92547097D01*
X98772671Y-92475514D01*
X98893571Y-92220004D01*
X98962300Y-91945816D01*
X98969265Y-91804512D01*
X99143783Y-91804512D01*
X99185213Y-92084130D01*
X99280397Y-92350292D01*
X99347329Y-92475514D01*
X99591298Y-92547097D01*
X100404395Y-91734000D01*
X100763605Y-91734000D01*
X101576702Y-92547097D01*
X101820671Y-92475514D01*
X101941571Y-92220004D01*
X102010300Y-91945816D01*
X102024217Y-91663488D01*
X101982787Y-91383870D01*
X101887603Y-91117708D01*
X101820671Y-90992486D01*
X101576702Y-90920903D01*
X100763605Y-91734000D01*
X100404395Y-91734000D01*
X99591298Y-90920903D01*
X99347329Y-90992486D01*
X99226429Y-91247996D01*
X99157700Y-91522184D01*
X99143783Y-91804512D01*
X98969265Y-91804512D01*
X98976217Y-91663488D01*
X98934787Y-91383870D01*
X98839603Y-91117708D01*
X98772671Y-90992486D01*
X98528702Y-90920903D01*
X97715605Y-91734000D01*
X97356395Y-91734000D01*
X96543298Y-90920903D01*
X96299329Y-90992486D01*
X96178429Y-91247996D01*
X96109700Y-91522184D01*
X96095783Y-91804512D01*
X95019000Y-91804512D01*
X95019000Y-90741298D01*
X96722903Y-90741298D01*
X97536000Y-91554395D01*
X98349097Y-90741298D01*
X99770903Y-90741298D01*
X100584000Y-91554395D01*
X101397097Y-90741298D01*
X101325514Y-90497329D01*
X101070004Y-90376429D01*
X100795816Y-90307700D01*
X100513488Y-90293783D01*
X100233870Y-90335213D01*
X99967708Y-90430397D01*
X99842486Y-90497329D01*
X99770903Y-90741298D01*
X98349097Y-90741298D01*
X98277514Y-90497329D01*
X98022004Y-90376429D01*
X97747816Y-90307700D01*
X97465488Y-90293783D01*
X97185870Y-90335213D01*
X96919708Y-90430397D01*
X96794486Y-90497329D01*
X96722903Y-90741298D01*
X95019000Y-90741298D01*
X95019000Y-87447157D01*
X95321157Y-87145000D01*
X95378796Y-87145000D01*
X95444201Y-87242886D01*
X95637114Y-87435799D01*
X95753483Y-87513555D01*
X95645518Y-87524188D01*
X95525820Y-87560498D01*
X95415506Y-87619463D01*
X95318815Y-87698815D01*
X95239463Y-87795506D01*
X95180498Y-87905820D01*
X95144188Y-88025518D01*
X95131928Y-88150000D01*
X95131928Y-89650000D01*
X95144188Y-89774482D01*
X95180498Y-89894180D01*
X95239463Y-90004494D01*
X95318815Y-90101185D01*
X95415506Y-90180537D01*
X95525820Y-90239502D01*
X95645518Y-90275812D01*
X95770000Y-90288072D01*
X97270000Y-90288072D01*
X97394482Y-90275812D01*
X97514180Y-90239502D01*
X97624494Y-90180537D01*
X97721185Y-90101185D01*
X97800537Y-90004494D01*
X97859502Y-89894180D01*
X97895812Y-89774482D01*
X97908072Y-89650000D01*
X97908072Y-88150000D01*
X97895812Y-88025518D01*
X97859502Y-87905820D01*
X97800537Y-87795506D01*
X97721185Y-87698815D01*
X97624494Y-87619463D01*
X97514180Y-87560498D01*
X97394482Y-87524188D01*
X97286517Y-87513555D01*
X97402886Y-87435799D01*
X97595799Y-87242886D01*
X97747371Y-87016043D01*
X97851775Y-86763989D01*
X97905000Y-86496411D01*
X97905000Y-86223589D01*
X97851775Y-85956011D01*
X97747371Y-85703957D01*
X97595799Y-85477114D01*
X97402886Y-85284201D01*
X97176043Y-85132629D01*
X97076721Y-85091489D01*
X97118832Y-85076277D01*
X97231863Y-85015860D01*
X97297388Y-84776993D01*
X96520000Y-83999605D01*
X95742612Y-84776993D01*
X95808137Y-85015860D01*
X95966477Y-85090164D01*
X95863957Y-85132629D01*
X95637114Y-85284201D01*
X95444201Y-85477114D01*
X95378796Y-85575000D01*
X95034556Y-85575000D01*
X94996000Y-85571203D01*
X94957444Y-85575000D01*
X94957439Y-85575000D01*
X94917026Y-85578980D01*
X94842113Y-85586358D01*
X94694140Y-85631246D01*
X94557767Y-85704138D01*
X94438236Y-85802236D01*
X94413653Y-85832190D01*
X94078000Y-86167843D01*
X94078000Y-83892492D01*
X95130188Y-83892492D01*
X95171035Y-84162238D01*
X95263723Y-84418832D01*
X95324140Y-84531863D01*
X95563007Y-84597388D01*
X96340395Y-83820000D01*
X96699605Y-83820000D01*
X97476993Y-84597388D01*
X97715860Y-84531863D01*
X97831760Y-84284884D01*
X97897250Y-84020040D01*
X97909812Y-83747508D01*
X97868965Y-83477762D01*
X97776277Y-83221168D01*
X97715860Y-83108137D01*
X97476993Y-83042612D01*
X96699605Y-83820000D01*
X96340395Y-83820000D01*
X95563007Y-83042612D01*
X95324140Y-83108137D01*
X95208240Y-83355116D01*
X95142750Y-83619960D01*
X95130188Y-83892492D01*
X94078000Y-83892492D01*
X94078000Y-82863007D01*
X95742612Y-82863007D01*
X96520000Y-83640395D01*
X97297388Y-82863007D01*
X97231863Y-82624140D01*
X96984884Y-82508240D01*
X96720040Y-82442750D01*
X96447508Y-82430188D01*
X96177762Y-82471035D01*
X95921168Y-82563723D01*
X95808137Y-82624140D01*
X95742612Y-82863007D01*
X94078000Y-82863007D01*
X94078000Y-78020239D01*
X94082160Y-77978000D01*
X94078000Y-77935761D01*
X94078000Y-77935754D01*
X94065556Y-77809411D01*
X94016381Y-77647300D01*
X93936524Y-77497898D01*
X93829054Y-77366946D01*
X93796241Y-77340017D01*
X91823988Y-75367765D01*
X91797054Y-75334946D01*
X91666102Y-75227476D01*
X91516700Y-75147619D01*
X91354589Y-75098444D01*
X91228246Y-75086000D01*
X91228239Y-75086000D01*
X91186000Y-75081840D01*
X91143761Y-75086000D01*
X87672238Y-75086000D01*
X87629999Y-75081840D01*
X87587760Y-75086000D01*
X87587754Y-75086000D01*
X87492538Y-75095378D01*
X87461409Y-75098444D01*
X87385950Y-75121335D01*
X87299300Y-75147619D01*
X87149898Y-75227476D01*
X87018946Y-75334946D01*
X86992012Y-75367765D01*
X85107849Y-77251928D01*
X84240000Y-77251928D01*
X84115518Y-77264188D01*
X83995820Y-77300498D01*
X83885506Y-77359463D01*
X83788815Y-77438815D01*
X83709463Y-77535506D01*
X83650498Y-77645820D01*
X83626034Y-77726466D01*
X83550269Y-77642412D01*
X83316920Y-77468359D01*
X83054099Y-77343175D01*
X82906890Y-77298524D01*
X82677000Y-77419845D01*
X82677000Y-78613000D01*
X82697000Y-78613000D01*
X82697000Y-78867000D01*
X82677000Y-78867000D01*
X82677000Y-80060155D01*
X82906890Y-80181476D01*
X83054099Y-80136825D01*
X83316920Y-80011641D01*
X83550269Y-79837588D01*
X83626034Y-79753534D01*
X83650498Y-79834180D01*
X83709463Y-79944494D01*
X83788815Y-80041185D01*
X83885506Y-80120537D01*
X83995820Y-80179502D01*
X84115518Y-80215812D01*
X84240000Y-80228072D01*
X85940000Y-80228072D01*
X86064482Y-80215812D01*
X86184180Y-80179502D01*
X86294494Y-80120537D01*
X86391185Y-80041185D01*
X86470537Y-79944494D01*
X86529502Y-79834180D01*
X86565812Y-79714482D01*
X86578072Y-79590000D01*
X86578072Y-78214151D01*
X87986223Y-76806000D01*
X90829777Y-76806000D01*
X92358001Y-78334225D01*
X92358000Y-94699761D01*
X92353840Y-94742000D01*
X92358000Y-94784239D01*
X92358000Y-94784245D01*
X92364293Y-94848138D01*
X92370444Y-94910589D01*
X92383064Y-94952192D01*
X92419619Y-95072699D01*
X92499476Y-95222101D01*
X92606946Y-95353054D01*
X92639765Y-95379988D01*
X93882001Y-96622224D01*
X93882000Y-101357967D01*
X93636002Y-101522337D01*
X93394337Y-101764002D01*
X93204463Y-102048169D01*
X93073675Y-102363919D01*
X93007000Y-102699117D01*
X93007000Y-103040883D01*
X93073675Y-103376081D01*
X93204463Y-103691831D01*
X93394337Y-103975998D01*
X93636002Y-104217663D01*
X93920169Y-104407537D01*
X94235919Y-104538325D01*
X94571117Y-104605000D01*
X94912883Y-104605000D01*
X95248081Y-104538325D01*
X95563831Y-104407537D01*
X95847998Y-104217663D01*
X96089663Y-103975998D01*
X96191499Y-103823589D01*
X97929000Y-103823589D01*
X97929000Y-104096411D01*
X97982225Y-104363989D01*
X98086629Y-104616043D01*
X98238201Y-104842886D01*
X98431114Y-105035799D01*
X98657957Y-105187371D01*
X98910011Y-105291775D01*
X99177589Y-105345000D01*
X99450411Y-105345000D01*
X99717989Y-105291775D01*
X99970043Y-105187371D01*
X100196886Y-105035799D01*
X100389799Y-104842886D01*
X100541371Y-104616043D01*
X100645775Y-104363989D01*
X100699000Y-104096411D01*
X100699000Y-103823589D01*
X100645775Y-103556011D01*
X100541371Y-103303957D01*
X100389799Y-103077114D01*
X100196886Y-102884201D01*
X99970043Y-102732629D01*
X99717989Y-102628225D01*
X99450411Y-102575000D01*
X99177589Y-102575000D01*
X98910011Y-102628225D01*
X98657957Y-102732629D01*
X98431114Y-102884201D01*
X98238201Y-103077114D01*
X98086629Y-103303957D01*
X97982225Y-103556011D01*
X97929000Y-103823589D01*
X96191499Y-103823589D01*
X96279537Y-103691831D01*
X96410325Y-103376081D01*
X96477000Y-103040883D01*
X96477000Y-102699117D01*
X96410325Y-102363919D01*
X96279537Y-102048169D01*
X96089663Y-101764002D01*
X95847998Y-101522337D01*
X95602000Y-101357967D01*
X95602000Y-98923589D01*
X97929000Y-98923589D01*
X97929000Y-99196411D01*
X97982225Y-99463989D01*
X98086629Y-99716043D01*
X98238201Y-99942886D01*
X98431114Y-100135799D01*
X98657957Y-100287371D01*
X98910011Y-100391775D01*
X99177589Y-100445000D01*
X99450411Y-100445000D01*
X99717989Y-100391775D01*
X99970043Y-100287371D01*
X100196886Y-100135799D01*
X100389799Y-99942886D01*
X100541371Y-99716043D01*
X100645775Y-99463989D01*
X100699000Y-99196411D01*
X100699000Y-98923589D01*
X100645775Y-98656011D01*
X100541371Y-98403957D01*
X100389799Y-98177114D01*
X100196886Y-97984201D01*
X99970043Y-97832629D01*
X99717989Y-97728225D01*
X99450411Y-97675000D01*
X99177589Y-97675000D01*
X98910011Y-97728225D01*
X98657957Y-97832629D01*
X98431114Y-97984201D01*
X98238201Y-98177114D01*
X98086629Y-98403957D01*
X97982225Y-98656011D01*
X97929000Y-98923589D01*
X95602000Y-98923589D01*
X95602000Y-96308238D01*
X95606160Y-96265999D01*
X95602000Y-96223760D01*
X95602000Y-96223754D01*
X95591598Y-96118139D01*
X95589556Y-96097409D01*
X95556670Y-95989000D01*
X95540381Y-95935300D01*
X95486686Y-95834843D01*
X96953658Y-97301816D01*
X96978236Y-97331764D01*
X97008184Y-97356342D01*
X97008187Y-97356345D01*
X97037559Y-97380450D01*
X97097767Y-97429862D01*
X97203237Y-97486236D01*
X97234140Y-97502754D01*
X97382112Y-97547641D01*
X97396490Y-97549057D01*
X97497439Y-97559000D01*
X97497446Y-97559000D01*
X97535999Y-97562797D01*
X97574552Y-97559000D01*
X101561447Y-97559000D01*
X101600000Y-97562797D01*
X101638553Y-97559000D01*
X101638561Y-97559000D01*
X101753887Y-97547641D01*
X101901860Y-97502754D01*
X102038233Y-97429862D01*
X102157764Y-97331764D01*
X102182347Y-97301810D01*
X102747672Y-96736485D01*
X102812741Y-96771265D01*
X102583161Y-96921399D01*
X102381500Y-97119105D01*
X102222285Y-97352354D01*
X102111633Y-97612182D01*
X102094096Y-97694961D01*
X102216085Y-97917000D01*
X103759000Y-97917000D01*
X103759000Y-97897000D01*
X104013000Y-97897000D01*
X104013000Y-97917000D01*
X105555915Y-97917000D01*
X105677904Y-97694961D01*
X105660367Y-97612182D01*
X105549715Y-97352354D01*
X105390500Y-97119105D01*
X105188839Y-96921399D01*
X104959259Y-96771265D01*
X105087101Y-96702932D01*
X105305608Y-96523608D01*
X105484932Y-96305101D01*
X105618182Y-96055808D01*
X105700236Y-95785309D01*
X105727943Y-95504000D01*
X105700236Y-95222691D01*
X105618182Y-94952192D01*
X105484932Y-94702899D01*
X105305608Y-94484392D01*
X105087101Y-94305068D01*
X104954142Y-94234000D01*
X105087101Y-94162932D01*
X105305608Y-93983608D01*
X105484932Y-93765101D01*
X105618182Y-93515808D01*
X105700236Y-93245309D01*
X105727943Y-92964000D01*
X105700236Y-92682691D01*
X105618182Y-92412192D01*
X105484932Y-92162899D01*
X105305608Y-91944392D01*
X105087101Y-91765068D01*
X104954142Y-91694000D01*
X105087101Y-91622932D01*
X105305608Y-91443608D01*
X105484932Y-91225101D01*
X105618182Y-90975808D01*
X105700236Y-90705309D01*
X105727943Y-90424000D01*
X105700236Y-90142691D01*
X105638448Y-89939000D01*
X106895447Y-89939000D01*
X106934000Y-89942797D01*
X106972553Y-89939000D01*
X106972561Y-89939000D01*
X107087887Y-89927641D01*
X107235860Y-89882754D01*
X107372233Y-89809862D01*
X107491764Y-89711764D01*
X107516347Y-89681810D01*
X108529158Y-88669000D01*
X109898462Y-88669000D01*
X109907068Y-88685101D01*
X110086392Y-88903608D01*
X110304899Y-89082932D01*
X110437858Y-89154000D01*
X110304899Y-89225068D01*
X110086392Y-89404392D01*
X109907068Y-89622899D01*
X109773818Y-89872192D01*
X109691764Y-90142691D01*
X109664057Y-90424000D01*
X109691764Y-90705309D01*
X109773818Y-90975808D01*
X109907068Y-91225101D01*
X110086392Y-91443608D01*
X110304899Y-91622932D01*
X110437858Y-91694000D01*
X110304899Y-91765068D01*
X110086392Y-91944392D01*
X109907068Y-92162899D01*
X109773818Y-92412192D01*
X109691764Y-92682691D01*
X109664057Y-92964000D01*
X109691764Y-93245309D01*
X109773818Y-93515808D01*
X109907068Y-93765101D01*
X110086392Y-93983608D01*
X110304899Y-94162932D01*
X110437858Y-94234000D01*
X110304899Y-94305068D01*
X110086392Y-94484392D01*
X109907068Y-94702899D01*
X109773818Y-94952192D01*
X109691764Y-95222691D01*
X109664057Y-95504000D01*
X109691764Y-95785309D01*
X109773818Y-96055808D01*
X109907068Y-96305101D01*
X110086392Y-96523608D01*
X110304899Y-96702932D01*
X110437858Y-96774000D01*
X110304899Y-96845068D01*
X110086392Y-97024392D01*
X109907068Y-97242899D01*
X109773818Y-97492192D01*
X109691764Y-97762691D01*
X109664057Y-98044000D01*
X109691764Y-98325309D01*
X109773818Y-98595808D01*
X109907068Y-98845101D01*
X110086392Y-99063608D01*
X110304899Y-99242932D01*
X110437858Y-99314000D01*
X110304899Y-99385068D01*
X110086392Y-99564392D01*
X109907068Y-99782899D01*
X109773818Y-100032192D01*
X109691764Y-100302691D01*
X109664057Y-100584000D01*
X109691764Y-100865309D01*
X109773818Y-101135808D01*
X109907068Y-101385101D01*
X110086392Y-101603608D01*
X110304899Y-101782932D01*
X110432741Y-101851265D01*
X110203161Y-102001399D01*
X110001500Y-102199105D01*
X109842285Y-102432354D01*
X109731633Y-102692182D01*
X109714096Y-102774961D01*
X109836085Y-102997000D01*
X111379000Y-102997000D01*
X111379000Y-102977000D01*
X111633000Y-102977000D01*
X111633000Y-102997000D01*
X113175915Y-102997000D01*
X113297904Y-102774961D01*
X113280367Y-102692182D01*
X113169715Y-102432354D01*
X113010500Y-102199105D01*
X112808839Y-102001399D01*
X112579259Y-101851265D01*
X112707101Y-101782932D01*
X112925608Y-101603608D01*
X113104932Y-101385101D01*
X113238182Y-101135808D01*
X113320236Y-100865309D01*
X113347943Y-100584000D01*
X113320236Y-100302691D01*
X113238182Y-100032192D01*
X113104932Y-99782899D01*
X112925608Y-99564392D01*
X112707101Y-99385068D01*
X112574142Y-99314000D01*
X112707101Y-99242932D01*
X112925608Y-99063608D01*
X113104932Y-98845101D01*
X113238182Y-98595808D01*
X113276951Y-98468000D01*
X114085928Y-98468000D01*
X114085928Y-100668000D01*
X114098188Y-100792482D01*
X114134498Y-100912180D01*
X114193463Y-101022494D01*
X114272815Y-101119185D01*
X114369506Y-101198537D01*
X114479820Y-101257502D01*
X114599518Y-101293812D01*
X114724000Y-101306072D01*
X116924000Y-101306072D01*
X117048482Y-101293812D01*
X117168180Y-101257502D01*
X117278494Y-101198537D01*
X117375185Y-101119185D01*
X117454537Y-101022494D01*
X117513502Y-100912180D01*
X117549812Y-100792482D01*
X117562072Y-100668000D01*
X117562072Y-98468000D01*
X117549812Y-98343518D01*
X117513502Y-98223820D01*
X117454537Y-98113506D01*
X117375185Y-98016815D01*
X117278494Y-97937463D01*
X117168180Y-97878498D01*
X117048482Y-97842188D01*
X116924000Y-97829928D01*
X114724000Y-97829928D01*
X114599518Y-97842188D01*
X114479820Y-97878498D01*
X114369506Y-97937463D01*
X114272815Y-98016815D01*
X114193463Y-98113506D01*
X114134498Y-98223820D01*
X114098188Y-98343518D01*
X114085928Y-98468000D01*
X113276951Y-98468000D01*
X113320236Y-98325309D01*
X113347943Y-98044000D01*
X113320236Y-97762691D01*
X113238182Y-97492192D01*
X113104932Y-97242899D01*
X112925608Y-97024392D01*
X112707101Y-96845068D01*
X112574142Y-96774000D01*
X112707101Y-96702932D01*
X112925608Y-96523608D01*
X113104932Y-96305101D01*
X113238182Y-96055808D01*
X113320236Y-95785309D01*
X113347943Y-95504000D01*
X113320236Y-95222691D01*
X113238182Y-94952192D01*
X113104932Y-94702899D01*
X112925608Y-94484392D01*
X112707101Y-94305068D01*
X112574142Y-94234000D01*
X112707101Y-94162932D01*
X112925608Y-93983608D01*
X113104932Y-93765101D01*
X113113538Y-93749000D01*
X114281559Y-93749000D01*
X114280188Y-93753518D01*
X114267928Y-93878000D01*
X114267928Y-95478000D01*
X114280188Y-95602482D01*
X114316498Y-95722180D01*
X114375463Y-95832494D01*
X114454815Y-95929185D01*
X114551506Y-96008537D01*
X114661820Y-96067502D01*
X114781518Y-96103812D01*
X114906000Y-96116072D01*
X116306000Y-96116072D01*
X116430482Y-96103812D01*
X116550180Y-96067502D01*
X116660494Y-96008537D01*
X116757185Y-95929185D01*
X116836537Y-95832494D01*
X116895502Y-95722180D01*
X116931812Y-95602482D01*
X116944072Y-95478000D01*
X116944072Y-93878000D01*
X116931812Y-93753518D01*
X116895502Y-93633820D01*
X116836537Y-93523506D01*
X116757185Y-93426815D01*
X116660494Y-93347463D01*
X116550180Y-93288498D01*
X116430482Y-93252188D01*
X116391000Y-93248299D01*
X116391000Y-93220556D01*
X116394797Y-93182000D01*
X116391000Y-93143440D01*
X116391000Y-88107701D01*
X116430482Y-88103812D01*
X116550180Y-88067502D01*
X116660494Y-88008537D01*
X116757185Y-87929185D01*
X116836537Y-87832494D01*
X116895502Y-87722180D01*
X116931812Y-87602482D01*
X116944072Y-87478000D01*
X116944072Y-85878000D01*
X116931812Y-85753518D01*
X116895502Y-85633820D01*
X116836537Y-85523506D01*
X116757185Y-85426815D01*
X116660494Y-85347463D01*
X116550180Y-85288498D01*
X116430482Y-85252188D01*
X116306000Y-85239928D01*
X114906000Y-85239928D01*
X114781518Y-85252188D01*
X114661820Y-85288498D01*
X114551506Y-85347463D01*
X114454815Y-85426815D01*
X114375463Y-85523506D01*
X114316498Y-85633820D01*
X114280188Y-85753518D01*
X114267928Y-85878000D01*
X114267928Y-87478000D01*
X114280188Y-87602482D01*
X114316498Y-87722180D01*
X114375463Y-87832494D01*
X114454815Y-87929185D01*
X114551506Y-88008537D01*
X114661820Y-88067502D01*
X114781518Y-88103812D01*
X114821000Y-88107701D01*
X114821001Y-92179000D01*
X113113538Y-92179000D01*
X113104932Y-92162899D01*
X112925608Y-91944392D01*
X112707101Y-91765068D01*
X112574142Y-91694000D01*
X112707101Y-91622932D01*
X112925608Y-91443608D01*
X113104932Y-91225101D01*
X113238182Y-90975808D01*
X113320236Y-90705309D01*
X113347943Y-90424000D01*
X113320236Y-90142691D01*
X113238182Y-89872192D01*
X113104932Y-89622899D01*
X112925608Y-89404392D01*
X112707101Y-89225068D01*
X112574142Y-89154000D01*
X112707101Y-89082932D01*
X112925608Y-88903608D01*
X113104932Y-88685101D01*
X113238182Y-88435808D01*
X113320236Y-88165309D01*
X113347943Y-87884000D01*
X113320236Y-87602691D01*
X113238182Y-87332192D01*
X113104932Y-87082899D01*
X112925608Y-86864392D01*
X112707101Y-86685068D01*
X112574142Y-86614000D01*
X112707101Y-86542932D01*
X112925608Y-86363608D01*
X113104932Y-86145101D01*
X113238182Y-85895808D01*
X113320236Y-85625309D01*
X113347943Y-85344000D01*
X113320236Y-85062691D01*
X113238182Y-84792192D01*
X113104932Y-84542899D01*
X112925608Y-84324392D01*
X112707101Y-84145068D01*
X112574142Y-84074000D01*
X112707101Y-84002932D01*
X112814198Y-83915039D01*
X113778096Y-83915039D01*
X113795633Y-83997818D01*
X113906285Y-84257646D01*
X114065500Y-84490895D01*
X114267161Y-84688601D01*
X114503517Y-84843166D01*
X114765486Y-84948650D01*
X115043000Y-85001000D01*
X115443000Y-85001000D01*
X115443000Y-83693000D01*
X113900085Y-83693000D01*
X113778096Y-83915039D01*
X112814198Y-83915039D01*
X112925608Y-83823608D01*
X113104932Y-83605101D01*
X113238182Y-83355808D01*
X113306907Y-83129251D01*
X114065817Y-82370341D01*
X114095764Y-82345764D01*
X114193862Y-82226233D01*
X114246292Y-82128142D01*
X114267161Y-82148601D01*
X114492559Y-82296000D01*
X114267161Y-82443399D01*
X114065500Y-82641105D01*
X113906285Y-82874354D01*
X113795633Y-83134182D01*
X113778096Y-83216961D01*
X113900085Y-83439000D01*
X115443000Y-83439000D01*
X115443000Y-81153000D01*
X115423000Y-81153000D01*
X115423000Y-80899000D01*
X115443000Y-80899000D01*
X115443000Y-78613000D01*
X115697000Y-78613000D01*
X115697000Y-80899000D01*
X117239915Y-80899000D01*
X117361904Y-80676961D01*
X117344367Y-80594182D01*
X117233715Y-80334354D01*
X117074500Y-80101105D01*
X116872839Y-79903399D01*
X116647441Y-79756000D01*
X116872839Y-79608601D01*
X117074500Y-79410895D01*
X117233715Y-79177646D01*
X117344367Y-78917818D01*
X117361904Y-78835039D01*
X117239915Y-78613000D01*
X115697000Y-78613000D01*
X115443000Y-78613000D01*
X115423000Y-78613000D01*
X115423000Y-78359000D01*
X115443000Y-78359000D01*
X115443000Y-78339000D01*
X115697000Y-78339000D01*
X115697000Y-78359000D01*
X117239915Y-78359000D01*
X117361904Y-78136961D01*
X117344367Y-78054182D01*
X117233715Y-77794354D01*
X117074500Y-77561105D01*
X116882613Y-77372981D01*
X116894482Y-77371812D01*
X117014180Y-77335502D01*
X117124494Y-77276537D01*
X117221185Y-77197185D01*
X117300537Y-77100494D01*
X117359502Y-76990180D01*
X117395812Y-76870482D01*
X117408072Y-76746000D01*
X117408072Y-75146000D01*
X117395812Y-75021518D01*
X117359502Y-74901820D01*
X117300537Y-74791506D01*
X117221185Y-74694815D01*
X117124494Y-74615463D01*
X117014180Y-74556498D01*
X116894482Y-74520188D01*
X116770000Y-74507928D01*
X114370000Y-74507928D01*
X114245518Y-74520188D01*
X114125820Y-74556498D01*
X114015506Y-74615463D01*
X113918815Y-74694815D01*
X113839463Y-74791506D01*
X113780498Y-74901820D01*
X113744188Y-75021518D01*
X113731928Y-75146000D01*
X113731928Y-76045771D01*
X111326347Y-73640190D01*
X111301764Y-73610236D01*
X111182233Y-73512138D01*
X111114858Y-73476126D01*
X111326842Y-73563932D01*
X111613740Y-73621000D01*
X111906260Y-73621000D01*
X112193158Y-73563932D01*
X112463411Y-73451990D01*
X112706632Y-73289475D01*
X112913475Y-73082632D01*
X113030000Y-72908240D01*
X113146525Y-73082632D01*
X113353368Y-73289475D01*
X113596589Y-73451990D01*
X113866842Y-73563932D01*
X114153740Y-73621000D01*
X114446260Y-73621000D01*
X114733158Y-73563932D01*
X115003411Y-73451990D01*
X115246632Y-73289475D01*
X115453475Y-73082632D01*
X115615990Y-72839411D01*
X115727932Y-72569158D01*
X115785000Y-72282260D01*
X115785000Y-71989740D01*
X115727932Y-71702842D01*
X115615990Y-71432589D01*
X115453475Y-71189368D01*
X115246632Y-70982525D01*
X115003411Y-70820010D01*
X114733158Y-70708068D01*
X114491506Y-70660000D01*
X124340000Y-70660000D01*
X124340000Y-74719754D01*
X124141808Y-74613818D01*
X124050000Y-74585969D01*
X124050000Y-73226246D01*
X124054161Y-73184000D01*
X124037556Y-73015410D01*
X123988381Y-72853299D01*
X123942387Y-72767252D01*
X123908524Y-72703898D01*
X123801054Y-72572946D01*
X123768240Y-72546016D01*
X123033988Y-71811764D01*
X123007054Y-71778946D01*
X122876102Y-71671476D01*
X122726700Y-71591619D01*
X122682715Y-71578276D01*
X122667498Y-71549808D01*
X122613042Y-71468309D01*
X122533690Y-71371618D01*
X122464382Y-71302310D01*
X122367691Y-71222958D01*
X122286192Y-71168502D01*
X122175875Y-71109536D01*
X122085319Y-71072027D01*
X121965623Y-71035718D01*
X121869490Y-71016596D01*
X121745009Y-71004336D01*
X121720450Y-71004336D01*
X121696000Y-71001928D01*
X121146000Y-71001928D01*
X121021518Y-71014188D01*
X121021000Y-71014345D01*
X121020482Y-71014188D01*
X120896000Y-71001928D01*
X119896000Y-71001928D01*
X119771518Y-71014188D01*
X119651820Y-71050498D01*
X119541506Y-71109463D01*
X119444815Y-71188815D01*
X119365463Y-71285506D01*
X119306498Y-71395820D01*
X119270188Y-71515518D01*
X119257928Y-71640000D01*
X119257928Y-73140000D01*
X119270188Y-73264482D01*
X119306498Y-73384180D01*
X119365463Y-73494494D01*
X119444815Y-73591185D01*
X119541506Y-73670537D01*
X119611000Y-73707683D01*
X119611001Y-77431437D01*
X119607203Y-77470000D01*
X119622359Y-77623886D01*
X119667246Y-77771859D01*
X119687318Y-77809411D01*
X119740139Y-77908233D01*
X119775403Y-77951202D01*
X119813655Y-77997812D01*
X119813659Y-77997816D01*
X119838237Y-78027764D01*
X119868185Y-78052342D01*
X120829657Y-79013815D01*
X120854236Y-79043764D01*
X120884184Y-79068342D01*
X120884187Y-79068345D01*
X120887057Y-79070700D01*
X120973767Y-79141862D01*
X121082799Y-79200140D01*
X121110140Y-79214754D01*
X121258113Y-79259642D01*
X121333026Y-79267020D01*
X121373439Y-79271000D01*
X121373444Y-79271000D01*
X121412000Y-79274797D01*
X121450555Y-79271000D01*
X121582462Y-79271000D01*
X121591068Y-79287101D01*
X121770392Y-79505608D01*
X121988899Y-79684932D01*
X122121858Y-79756000D01*
X121988899Y-79827068D01*
X121770392Y-80006392D01*
X121591068Y-80224899D01*
X121582462Y-80241000D01*
X120434552Y-80241000D01*
X120395999Y-80237203D01*
X120357446Y-80241000D01*
X120357439Y-80241000D01*
X120256490Y-80250943D01*
X120242112Y-80252359D01*
X120111770Y-80291898D01*
X120094140Y-80297246D01*
X119957767Y-80370138D01*
X119899587Y-80417886D01*
X119868187Y-80443655D01*
X119868184Y-80443658D01*
X119838236Y-80468236D01*
X119813658Y-80498184D01*
X117582185Y-82729658D01*
X117552237Y-82754236D01*
X117527659Y-82784184D01*
X117527655Y-82784188D01*
X117511396Y-82804000D01*
X117454139Y-82873767D01*
X117415177Y-82946660D01*
X117381246Y-83010141D01*
X117343930Y-83133156D01*
X117233715Y-82874354D01*
X117074500Y-82641105D01*
X116872839Y-82443399D01*
X116647441Y-82296000D01*
X116872839Y-82148601D01*
X117074500Y-81950895D01*
X117233715Y-81717646D01*
X117344367Y-81457818D01*
X117361904Y-81375039D01*
X117239915Y-81153000D01*
X115697000Y-81153000D01*
X115697000Y-83439000D01*
X115717000Y-83439000D01*
X115717000Y-83693000D01*
X115697000Y-83693000D01*
X115697000Y-85001000D01*
X116097000Y-85001000D01*
X116374514Y-84948650D01*
X116636483Y-84843166D01*
X116872839Y-84688601D01*
X117074500Y-84490895D01*
X117233715Y-84257646D01*
X117325001Y-84043292D01*
X117325000Y-96735447D01*
X117321203Y-96774000D01*
X117325000Y-96812553D01*
X117325000Y-96812560D01*
X117336359Y-96927886D01*
X117381246Y-97075859D01*
X117454138Y-97212232D01*
X117552236Y-97331764D01*
X117582188Y-97356345D01*
X118797658Y-98571815D01*
X118822236Y-98601764D01*
X118852184Y-98626342D01*
X118852187Y-98626345D01*
X118865848Y-98637556D01*
X118941767Y-98699862D01*
X119078140Y-98772754D01*
X119191672Y-98807194D01*
X119226112Y-98817641D01*
X119240490Y-98819057D01*
X119341439Y-98829000D01*
X119341446Y-98829000D01*
X119379999Y-98832797D01*
X119418552Y-98829000D01*
X119448661Y-98829000D01*
X119535363Y-98958759D01*
X119735241Y-99158637D01*
X119970273Y-99315680D01*
X120231426Y-99423853D01*
X120508665Y-99479000D01*
X120791335Y-99479000D01*
X121068574Y-99423853D01*
X121329727Y-99315680D01*
X121564759Y-99158637D01*
X121764637Y-98958759D01*
X121920000Y-98726241D01*
X122075363Y-98958759D01*
X122275241Y-99158637D01*
X122510273Y-99315680D01*
X122771426Y-99423853D01*
X123048665Y-99479000D01*
X123331335Y-99479000D01*
X123608574Y-99423853D01*
X123869727Y-99315680D01*
X124104759Y-99158637D01*
X124304637Y-98958759D01*
X124340001Y-98905834D01*
X124340001Y-101460335D01*
X124284180Y-101430498D01*
X124164482Y-101394188D01*
X124040000Y-101381928D01*
X122340000Y-101381928D01*
X122215518Y-101394188D01*
X122095820Y-101430498D01*
X121985506Y-101489463D01*
X121888815Y-101568815D01*
X121809463Y-101665506D01*
X121750498Y-101775820D01*
X121714188Y-101895518D01*
X121701928Y-102020000D01*
X121701928Y-102085000D01*
X121551944Y-102085000D01*
X121550472Y-102080149D01*
X121468405Y-101926613D01*
X121357962Y-101792038D01*
X121223387Y-101681595D01*
X121069851Y-101599528D01*
X120903255Y-101548992D01*
X120730001Y-101531928D01*
X120029999Y-101531928D01*
X119856745Y-101548992D01*
X119690149Y-101599528D01*
X119536613Y-101681595D01*
X119402038Y-101792038D01*
X119380000Y-101818891D01*
X119357962Y-101792038D01*
X119223387Y-101681595D01*
X119069851Y-101599528D01*
X118903255Y-101548992D01*
X118730001Y-101531928D01*
X118029999Y-101531928D01*
X117856745Y-101548992D01*
X117690149Y-101599528D01*
X117536613Y-101681595D01*
X117402038Y-101792038D01*
X117291595Y-101926613D01*
X117209528Y-102080149D01*
X117208056Y-102085000D01*
X115862552Y-102085000D01*
X115823999Y-102081203D01*
X115785446Y-102085000D01*
X115785439Y-102085000D01*
X115684490Y-102094943D01*
X115670112Y-102096359D01*
X115635672Y-102106806D01*
X115522140Y-102141246D01*
X115385767Y-102214138D01*
X115346036Y-102246745D01*
X115296187Y-102287655D01*
X115296184Y-102287658D01*
X115266236Y-102312236D01*
X115241658Y-102342184D01*
X113974843Y-103609000D01*
X113257719Y-103609000D01*
X113280367Y-103555818D01*
X113297904Y-103473039D01*
X113175915Y-103251000D01*
X111633000Y-103251000D01*
X111633000Y-103271000D01*
X111379000Y-103271000D01*
X111379000Y-103251000D01*
X109836085Y-103251000D01*
X109714096Y-103473039D01*
X109731633Y-103555818D01*
X109754281Y-103609000D01*
X108496556Y-103609000D01*
X108458000Y-103605203D01*
X108419444Y-103609000D01*
X108419439Y-103609000D01*
X108379026Y-103612980D01*
X108304113Y-103620358D01*
X108173925Y-103659851D01*
X108156140Y-103665246D01*
X108019767Y-103738138D01*
X107900236Y-103836236D01*
X107875655Y-103866188D01*
X107168185Y-104573658D01*
X107138237Y-104598236D01*
X107113659Y-104628184D01*
X107113655Y-104628188D01*
X107100357Y-104644392D01*
X107040139Y-104717767D01*
X107001177Y-104790660D01*
X106967246Y-104854141D01*
X106922359Y-105002114D01*
X106907203Y-105156000D01*
X106911001Y-105194562D01*
X106911000Y-106608842D01*
X106100843Y-107419000D01*
X105493538Y-107419000D01*
X105484932Y-107402899D01*
X105305608Y-107184392D01*
X105087101Y-107005068D01*
X104954142Y-106934000D01*
X105087101Y-106862932D01*
X105305608Y-106683608D01*
X105484932Y-106465101D01*
X105618182Y-106215808D01*
X105700236Y-105945309D01*
X105727943Y-105664000D01*
X105700236Y-105382691D01*
X105618182Y-105112192D01*
X105484932Y-104862899D01*
X105305608Y-104644392D01*
X105087101Y-104465068D01*
X104954142Y-104394000D01*
X105087101Y-104322932D01*
X105305608Y-104143608D01*
X105484932Y-103925101D01*
X105618182Y-103675808D01*
X105700236Y-103405309D01*
X105727943Y-103124000D01*
X105700236Y-102842691D01*
X105618182Y-102572192D01*
X105484932Y-102322899D01*
X105305608Y-102104392D01*
X105087101Y-101925068D01*
X104954142Y-101854000D01*
X105087101Y-101782932D01*
X105305608Y-101603608D01*
X105484932Y-101385101D01*
X105618182Y-101135808D01*
X105700236Y-100865309D01*
X105727943Y-100584000D01*
X105700236Y-100302691D01*
X105618182Y-100032192D01*
X105484932Y-99782899D01*
X105305608Y-99564392D01*
X105087101Y-99385068D01*
X104959259Y-99316735D01*
X105188839Y-99166601D01*
X105390500Y-98968895D01*
X105549715Y-98735646D01*
X105660367Y-98475818D01*
X105677904Y-98393039D01*
X105555915Y-98171000D01*
X104013000Y-98171000D01*
X104013000Y-98191000D01*
X103759000Y-98191000D01*
X103759000Y-98171000D01*
X102216085Y-98171000D01*
X102094096Y-98393039D01*
X102111633Y-98475818D01*
X102222285Y-98735646D01*
X102381500Y-98968895D01*
X102583161Y-99166601D01*
X102812741Y-99316735D01*
X102684899Y-99385068D01*
X102466392Y-99564392D01*
X102287068Y-99782899D01*
X102153818Y-100032192D01*
X102071764Y-100302691D01*
X102044057Y-100584000D01*
X102071764Y-100865309D01*
X102153818Y-101135808D01*
X102287068Y-101385101D01*
X102466392Y-101603608D01*
X102684899Y-101782932D01*
X102817858Y-101854000D01*
X102684899Y-101925068D01*
X102466392Y-102104392D01*
X102287068Y-102322899D01*
X102153818Y-102572192D01*
X102071764Y-102842691D01*
X102044057Y-103124000D01*
X102071764Y-103405309D01*
X102153818Y-103675808D01*
X102287068Y-103925101D01*
X102466392Y-104143608D01*
X102684899Y-104322932D01*
X102817858Y-104394000D01*
X102684899Y-104465068D01*
X102466392Y-104644392D01*
X102287068Y-104862899D01*
X102153818Y-105112192D01*
X102071764Y-105382691D01*
X102044057Y-105664000D01*
X102071764Y-105945309D01*
X102153818Y-106215808D01*
X102287068Y-106465101D01*
X102466392Y-106683608D01*
X102684899Y-106862932D01*
X102817858Y-106934000D01*
X102684899Y-107005068D01*
X102466392Y-107184392D01*
X102287068Y-107402899D01*
X102153818Y-107652192D01*
X102071764Y-107922691D01*
X102044057Y-108204000D01*
X102071764Y-108485309D01*
X102153818Y-108755808D01*
X102287068Y-109005101D01*
X102466392Y-109223608D01*
X102684899Y-109402932D01*
X102817858Y-109474000D01*
X102684899Y-109545068D01*
X102466392Y-109724392D01*
X102287068Y-109942899D01*
X102153818Y-110192192D01*
X102071764Y-110462691D01*
X102044057Y-110744000D01*
X102071764Y-111025309D01*
X102153818Y-111295808D01*
X102287068Y-111545101D01*
X102466392Y-111763608D01*
X102684899Y-111942932D01*
X102817858Y-112014000D01*
X102684899Y-112085068D01*
X102466392Y-112264392D01*
X102287068Y-112482899D01*
X102153818Y-112732192D01*
X102071764Y-113002691D01*
X102044057Y-113284000D01*
X102071764Y-113565309D01*
X102153818Y-113835808D01*
X102287068Y-114085101D01*
X102466392Y-114303608D01*
X102684899Y-114482932D01*
X102934192Y-114616182D01*
X103204691Y-114698236D01*
X103415508Y-114719000D01*
X104356492Y-114719000D01*
X104567309Y-114698236D01*
X104837808Y-114616182D01*
X105087101Y-114482932D01*
X105305608Y-114303608D01*
X105484932Y-114085101D01*
X105618182Y-113835808D01*
X105700236Y-113565309D01*
X105727943Y-113284000D01*
X105700236Y-113002691D01*
X105618182Y-112732192D01*
X105484932Y-112482899D01*
X105305608Y-112264392D01*
X105087101Y-112085068D01*
X104954142Y-112014000D01*
X105087101Y-111942932D01*
X105305608Y-111763608D01*
X105484932Y-111545101D01*
X105493538Y-111529000D01*
X107624843Y-111529000D01*
X108637658Y-112541815D01*
X108662236Y-112571764D01*
X108692184Y-112596342D01*
X108692187Y-112596345D01*
X108695057Y-112598700D01*
X108781767Y-112669862D01*
X108918140Y-112742754D01*
X109021412Y-112774081D01*
X109066112Y-112787641D01*
X109080490Y-112789057D01*
X109181439Y-112799000D01*
X109181446Y-112799000D01*
X109219999Y-112802797D01*
X109258552Y-112799000D01*
X109753552Y-112799000D01*
X109691764Y-113002691D01*
X109664057Y-113284000D01*
X109691764Y-113565309D01*
X109773818Y-113835808D01*
X109907068Y-114085101D01*
X110086392Y-114303608D01*
X110304899Y-114482932D01*
X110554192Y-114616182D01*
X110824691Y-114698236D01*
X111035508Y-114719000D01*
X111976492Y-114719000D01*
X112187309Y-114698236D01*
X112457808Y-114616182D01*
X112707101Y-114482932D01*
X112925608Y-114303608D01*
X113104932Y-114085101D01*
X113238182Y-113835808D01*
X113320236Y-113565309D01*
X113347943Y-113284000D01*
X113320236Y-113002691D01*
X113249010Y-112767886D01*
X113331860Y-112742754D01*
X113468233Y-112669862D01*
X113587764Y-112571764D01*
X113612347Y-112541810D01*
X114096936Y-112057222D01*
X114089000Y-112097117D01*
X114089000Y-112438883D01*
X114155675Y-112774081D01*
X114286463Y-113089831D01*
X114476337Y-113373998D01*
X114718002Y-113615663D01*
X115002169Y-113805537D01*
X115317919Y-113936325D01*
X115653117Y-114003000D01*
X115994883Y-114003000D01*
X116330081Y-113936325D01*
X116645831Y-113805537D01*
X116929998Y-113615663D01*
X117171663Y-113373998D01*
X117361537Y-113089831D01*
X117492325Y-112774081D01*
X117559000Y-112438883D01*
X117559000Y-112097117D01*
X117492325Y-111761919D01*
X117417108Y-111580330D01*
X117536613Y-111678405D01*
X117690149Y-111760472D01*
X117856745Y-111811008D01*
X118029999Y-111828072D01*
X118730001Y-111828072D01*
X118903255Y-111811008D01*
X119069851Y-111760472D01*
X119223387Y-111678405D01*
X119357962Y-111567962D01*
X119380000Y-111541109D01*
X119402038Y-111567962D01*
X119536613Y-111678405D01*
X119690149Y-111760472D01*
X119856745Y-111811008D01*
X120029999Y-111828072D01*
X120730001Y-111828072D01*
X120903255Y-111811008D01*
X121069851Y-111760472D01*
X121223387Y-111678405D01*
X121357962Y-111567962D01*
X121468405Y-111433387D01*
X121550472Y-111279851D01*
X121551944Y-111275000D01*
X121928526Y-111275000D01*
X122036525Y-111436632D01*
X122243368Y-111643475D01*
X122425534Y-111765195D01*
X122308645Y-111834822D01*
X122092412Y-112029731D01*
X121918359Y-112263080D01*
X121793175Y-112525901D01*
X121748524Y-112673110D01*
X121869845Y-112903000D01*
X123063000Y-112903000D01*
X123063000Y-112883000D01*
X123317000Y-112883000D01*
X123317000Y-112903000D01*
X123337000Y-112903000D01*
X123337000Y-113157000D01*
X123317000Y-113157000D01*
X123317000Y-113177000D01*
X123063000Y-113177000D01*
X123063000Y-113157000D01*
X121869845Y-113157000D01*
X121748524Y-113386890D01*
X121793175Y-113534099D01*
X121918359Y-113796920D01*
X122092412Y-114030269D01*
X122308645Y-114225178D01*
X122425534Y-114294805D01*
X122243368Y-114416525D01*
X122036525Y-114623368D01*
X121874010Y-114866589D01*
X121762068Y-115136842D01*
X121705000Y-115423740D01*
X121705000Y-115716260D01*
X121762068Y-116003158D01*
X121874010Y-116273411D01*
X122036525Y-116516632D01*
X122243368Y-116723475D01*
X122486589Y-116885990D01*
X122756842Y-116997932D01*
X123043740Y-117055000D01*
X123336260Y-117055000D01*
X123623158Y-116997932D01*
X123893411Y-116885990D01*
X124136632Y-116723475D01*
X124340001Y-116520106D01*
X124340001Y-122340000D01*
X122672383Y-122340000D01*
X122892012Y-122011302D01*
X123052953Y-121622756D01*
X123135000Y-121210279D01*
X123135000Y-120789721D01*
X123052953Y-120377244D01*
X122892012Y-119988698D01*
X122658363Y-119639017D01*
X122360983Y-119341637D01*
X122011302Y-119107988D01*
X121622756Y-118947047D01*
X121210279Y-118865000D01*
X120789721Y-118865000D01*
X120377244Y-118947047D01*
X119988698Y-119107988D01*
X119639017Y-119341637D01*
X119341637Y-119639017D01*
X119107988Y-119988698D01*
X118947047Y-120377244D01*
X118865000Y-120789721D01*
X118865000Y-121210279D01*
X118947047Y-121622756D01*
X119107988Y-122011302D01*
X119327617Y-122340000D01*
X104243998Y-122340000D01*
X104251963Y-122333463D01*
X104450345Y-122091734D01*
X104597755Y-121815948D01*
X104688530Y-121516703D01*
X104711500Y-121283485D01*
X104711500Y-121032514D01*
X104688530Y-120799296D01*
X104597755Y-120500051D01*
X104450345Y-120224265D01*
X104251963Y-119982537D01*
X104010234Y-119784155D01*
X103734448Y-119636745D01*
X103435203Y-119545970D01*
X103124000Y-119515319D01*
X102812796Y-119545970D01*
X102513551Y-119636745D01*
X102237765Y-119784155D01*
X101996037Y-119982537D01*
X101848838Y-120161900D01*
X101693437Y-119976685D01*
X101450923Y-119782031D01*
X101175094Y-119638429D01*
X100956980Y-119567437D01*
X100711000Y-119687406D01*
X100711000Y-121031000D01*
X100731000Y-121031000D01*
X100731000Y-121285000D01*
X100711000Y-121285000D01*
X100711000Y-121305000D01*
X100457000Y-121305000D01*
X100457000Y-121285000D01*
X100437000Y-121285000D01*
X100437000Y-121031000D01*
X100457000Y-121031000D01*
X100457000Y-119687406D01*
X100211020Y-119567437D01*
X99992906Y-119638429D01*
X99717077Y-119782031D01*
X99576059Y-119895219D01*
X99527037Y-119803506D01*
X99447685Y-119706815D01*
X99350994Y-119627463D01*
X99240680Y-119568498D01*
X99120982Y-119532188D01*
X98996500Y-119519928D01*
X97091500Y-119519928D01*
X96967018Y-119532188D01*
X96847320Y-119568498D01*
X96737006Y-119627463D01*
X96640315Y-119706815D01*
X96560963Y-119803506D01*
X96501998Y-119913820D01*
X96465688Y-120033518D01*
X96453428Y-120158000D01*
X96453428Y-122158000D01*
X96465688Y-122282482D01*
X96483136Y-122340000D01*
X80660000Y-122340000D01*
X80660000Y-121388000D01*
X81935928Y-121388000D01*
X81948188Y-121512482D01*
X81984498Y-121632180D01*
X82043463Y-121742494D01*
X82122815Y-121839185D01*
X82219506Y-121918537D01*
X82329820Y-121977502D01*
X82449518Y-122013812D01*
X82574000Y-122026072D01*
X83788250Y-122023000D01*
X83947000Y-121864250D01*
X83947000Y-120015000D01*
X84201000Y-120015000D01*
X84201000Y-121864250D01*
X84359750Y-122023000D01*
X85574000Y-122026072D01*
X85698482Y-122013812D01*
X85818180Y-121977502D01*
X85928494Y-121918537D01*
X86025185Y-121839185D01*
X86104537Y-121742494D01*
X86163502Y-121632180D01*
X86199812Y-121512482D01*
X86212072Y-121388000D01*
X86209143Y-120230000D01*
X88427928Y-120230000D01*
X88440188Y-120354482D01*
X88476498Y-120474180D01*
X88535463Y-120584494D01*
X88614815Y-120681185D01*
X88711506Y-120760537D01*
X88821820Y-120819502D01*
X88941518Y-120855812D01*
X89066000Y-120868072D01*
X89630250Y-120865000D01*
X89789000Y-120706250D01*
X89789000Y-119507000D01*
X90043000Y-119507000D01*
X90043000Y-120706250D01*
X90201750Y-120865000D01*
X90766000Y-120868072D01*
X90890482Y-120855812D01*
X91010180Y-120819502D01*
X91120494Y-120760537D01*
X91217185Y-120681185D01*
X91296537Y-120584494D01*
X91355502Y-120474180D01*
X91391812Y-120354482D01*
X91404072Y-120230000D01*
X91401000Y-119665750D01*
X91242250Y-119507000D01*
X90043000Y-119507000D01*
X89789000Y-119507000D01*
X88589750Y-119507000D01*
X88431000Y-119665750D01*
X88427928Y-120230000D01*
X86209143Y-120230000D01*
X86209000Y-120173750D01*
X86050250Y-120015000D01*
X84201000Y-120015000D01*
X83947000Y-120015000D01*
X82097750Y-120015000D01*
X81939000Y-120173750D01*
X81935928Y-121388000D01*
X80660000Y-121388000D01*
X80660000Y-118388000D01*
X81935928Y-118388000D01*
X81939000Y-119602250D01*
X82097750Y-119761000D01*
X83947000Y-119761000D01*
X83947000Y-117911750D01*
X84201000Y-117911750D01*
X84201000Y-119761000D01*
X86050250Y-119761000D01*
X86209000Y-119602250D01*
X86212072Y-118388000D01*
X86199812Y-118263518D01*
X86163502Y-118143820D01*
X86104537Y-118033506D01*
X86025185Y-117936815D01*
X85928494Y-117857463D01*
X85818180Y-117798498D01*
X85698482Y-117762188D01*
X85574000Y-117749928D01*
X84359750Y-117753000D01*
X84201000Y-117911750D01*
X83947000Y-117911750D01*
X83788250Y-117753000D01*
X82574000Y-117749928D01*
X82449518Y-117762188D01*
X82329820Y-117798498D01*
X82219506Y-117857463D01*
X82122815Y-117936815D01*
X82043463Y-118033506D01*
X81984498Y-118143820D01*
X81948188Y-118263518D01*
X81935928Y-118388000D01*
X80660000Y-118388000D01*
X80660000Y-98363736D01*
X80674001Y-98373092D01*
X80674000Y-107145761D01*
X80669840Y-107188000D01*
X80674000Y-107230239D01*
X80674000Y-107230245D01*
X80675610Y-107246589D01*
X80686444Y-107356589D01*
X80700492Y-107402899D01*
X80735619Y-107518699D01*
X80815476Y-107668101D01*
X80922946Y-107799054D01*
X80955765Y-107825988D01*
X81935928Y-108806151D01*
X81935928Y-110974000D01*
X81948188Y-111098482D01*
X81984498Y-111218180D01*
X82043463Y-111328494D01*
X82122815Y-111425185D01*
X82219506Y-111504537D01*
X82329820Y-111563502D01*
X82449518Y-111599812D01*
X82574000Y-111612072D01*
X85574000Y-111612072D01*
X85698482Y-111599812D01*
X85754001Y-111582971D01*
X85754001Y-111911776D01*
X84848058Y-112817719D01*
X84696756Y-112755047D01*
X84284279Y-112673000D01*
X83863721Y-112673000D01*
X83451244Y-112755047D01*
X83062698Y-112915988D01*
X82713017Y-113149637D01*
X82415637Y-113447017D01*
X82181988Y-113796698D01*
X82021047Y-114185244D01*
X81939000Y-114597721D01*
X81939000Y-115018279D01*
X82021047Y-115430756D01*
X82181988Y-115819302D01*
X82415637Y-116168983D01*
X82713017Y-116466363D01*
X83062698Y-116700012D01*
X83451244Y-116860953D01*
X83863721Y-116943000D01*
X84284279Y-116943000D01*
X84696756Y-116860953D01*
X85085302Y-116700012D01*
X85434983Y-116466363D01*
X85732363Y-116168983D01*
X85966012Y-115819302D01*
X86126953Y-115430756D01*
X86209000Y-115018279D01*
X86209000Y-114597721D01*
X86126953Y-114185244D01*
X86064281Y-114033942D01*
X86844151Y-113254072D01*
X86841203Y-113284000D01*
X86856359Y-113437886D01*
X86901246Y-113585859D01*
X86917177Y-113615663D01*
X86974139Y-113722233D01*
X87014690Y-113771644D01*
X87047655Y-113811812D01*
X87047659Y-113811816D01*
X87072237Y-113841764D01*
X87102185Y-113866342D01*
X88063657Y-114827815D01*
X88088236Y-114857764D01*
X88118184Y-114882342D01*
X88118187Y-114882345D01*
X88147559Y-114906450D01*
X88207767Y-114955862D01*
X88344140Y-115028754D01*
X88492113Y-115073642D01*
X88567026Y-115081020D01*
X88607439Y-115085000D01*
X88607444Y-115085000D01*
X88646000Y-115088797D01*
X88656380Y-115087775D01*
X88762525Y-115246632D01*
X88969368Y-115453475D01*
X89143760Y-115570000D01*
X88969368Y-115686525D01*
X88762525Y-115893368D01*
X88600010Y-116136589D01*
X88488068Y-116406842D01*
X88431000Y-116693740D01*
X88431000Y-116986260D01*
X88488068Y-117273158D01*
X88600010Y-117543411D01*
X88762525Y-117786632D01*
X88894380Y-117918487D01*
X88821820Y-117940498D01*
X88711506Y-117999463D01*
X88614815Y-118078815D01*
X88535463Y-118175506D01*
X88476498Y-118285820D01*
X88440188Y-118405518D01*
X88427928Y-118530000D01*
X88431000Y-119094250D01*
X88589750Y-119253000D01*
X89789000Y-119253000D01*
X89789000Y-119233000D01*
X90043000Y-119233000D01*
X90043000Y-119253000D01*
X91242250Y-119253000D01*
X91401000Y-119094250D01*
X91404072Y-118530000D01*
X91391812Y-118405518D01*
X91355502Y-118285820D01*
X91296537Y-118175506D01*
X91217185Y-118078815D01*
X91120494Y-117999463D01*
X91010180Y-117940498D01*
X90937620Y-117918487D01*
X91069475Y-117786632D01*
X91231990Y-117543411D01*
X91343932Y-117273158D01*
X91401000Y-116986260D01*
X91401000Y-116693740D01*
X91343932Y-116406842D01*
X91231990Y-116136589D01*
X91069475Y-115893368D01*
X90862632Y-115686525D01*
X90688240Y-115570000D01*
X90862632Y-115453475D01*
X91069475Y-115246632D01*
X91231990Y-115003411D01*
X91343932Y-114733158D01*
X91401000Y-114446260D01*
X91401000Y-114153740D01*
X91343932Y-113866842D01*
X91231990Y-113596589D01*
X91069475Y-113353368D01*
X90862632Y-113146525D01*
X90688240Y-113030000D01*
X90862632Y-112913475D01*
X91069475Y-112706632D01*
X91231990Y-112463411D01*
X91343932Y-112193158D01*
X91396277Y-111930000D01*
X93003928Y-111930000D01*
X93003928Y-114130000D01*
X93016188Y-114254482D01*
X93052498Y-114374180D01*
X93111463Y-114484494D01*
X93190815Y-114581185D01*
X93287506Y-114660537D01*
X93397820Y-114719502D01*
X93517518Y-114755812D01*
X93642000Y-114768072D01*
X93968342Y-114768072D01*
X93952815Y-114780815D01*
X93873463Y-114877506D01*
X93814498Y-114987820D01*
X93778188Y-115107518D01*
X93765928Y-115232000D01*
X93765928Y-117432000D01*
X93778188Y-117556482D01*
X93814498Y-117676180D01*
X93873463Y-117786494D01*
X93952815Y-117883185D01*
X94049506Y-117962537D01*
X94159820Y-118021502D01*
X94279518Y-118057812D01*
X94404000Y-118070072D01*
X96604000Y-118070072D01*
X96728482Y-118057812D01*
X96848180Y-118021502D01*
X96958494Y-117962537D01*
X97055185Y-117883185D01*
X97134537Y-117786494D01*
X97193502Y-117676180D01*
X97229812Y-117556482D01*
X97242072Y-117432000D01*
X97242072Y-115232000D01*
X97229812Y-115107518D01*
X97193502Y-114987820D01*
X97134537Y-114877506D01*
X97055185Y-114780815D01*
X96958494Y-114701463D01*
X96848180Y-114642498D01*
X96728482Y-114606188D01*
X96604000Y-114593928D01*
X96277658Y-114593928D01*
X96293185Y-114581185D01*
X96372537Y-114484494D01*
X96431502Y-114374180D01*
X96467812Y-114254482D01*
X96480072Y-114130000D01*
X96480072Y-111930000D01*
X96467812Y-111805518D01*
X96431502Y-111685820D01*
X96372537Y-111575506D01*
X96293185Y-111478815D01*
X96196494Y-111399463D01*
X96086180Y-111340498D01*
X95966482Y-111304188D01*
X95842000Y-111291928D01*
X93642000Y-111291928D01*
X93517518Y-111304188D01*
X93397820Y-111340498D01*
X93287506Y-111399463D01*
X93190815Y-111478815D01*
X93111463Y-111575506D01*
X93052498Y-111685820D01*
X93016188Y-111805518D01*
X93003928Y-111930000D01*
X91396277Y-111930000D01*
X91401000Y-111906260D01*
X91401000Y-111613740D01*
X91380673Y-111511550D01*
X92050224Y-110842000D01*
X96876779Y-110842000D01*
X100232001Y-114197223D01*
X100232000Y-115273761D01*
X100227840Y-115316000D01*
X100232000Y-115358239D01*
X100232000Y-115358245D01*
X100244444Y-115484588D01*
X100293619Y-115646699D01*
X100373476Y-115796101D01*
X100480946Y-115927054D01*
X100513765Y-115953988D01*
X105788017Y-121228241D01*
X105814946Y-121261054D01*
X105945898Y-121368524D01*
X106095300Y-121448381D01*
X106208235Y-121482639D01*
X106257410Y-121497556D01*
X106274558Y-121499245D01*
X106318125Y-121503536D01*
X106320188Y-121524482D01*
X106356498Y-121644180D01*
X106415463Y-121754494D01*
X106494815Y-121851185D01*
X106591506Y-121930537D01*
X106701820Y-121989502D01*
X106821518Y-122025812D01*
X106946000Y-122038072D01*
X108446000Y-122038072D01*
X108570482Y-122025812D01*
X108690180Y-121989502D01*
X108800494Y-121930537D01*
X108897185Y-121851185D01*
X108976537Y-121754494D01*
X109035502Y-121644180D01*
X109046782Y-121606993D01*
X109458612Y-121606993D01*
X109524137Y-121845860D01*
X109771116Y-121961760D01*
X110035960Y-122027250D01*
X110308492Y-122039812D01*
X110578238Y-121998965D01*
X110834832Y-121906277D01*
X110947863Y-121845860D01*
X111013388Y-121606993D01*
X110236000Y-120829605D01*
X109458612Y-121606993D01*
X109046782Y-121606993D01*
X109071812Y-121524482D01*
X109084072Y-121400000D01*
X109084072Y-121373914D01*
X109279007Y-121427388D01*
X110056395Y-120650000D01*
X110415605Y-120650000D01*
X111192993Y-121427388D01*
X111431860Y-121361863D01*
X111506164Y-121203523D01*
X111548629Y-121306043D01*
X111700201Y-121532886D01*
X111893114Y-121725799D01*
X112119957Y-121877371D01*
X112372011Y-121981775D01*
X112639589Y-122035000D01*
X112912411Y-122035000D01*
X113179989Y-121981775D01*
X113432043Y-121877371D01*
X113658886Y-121725799D01*
X113851799Y-121532886D01*
X114003371Y-121306043D01*
X114107775Y-121053989D01*
X114161000Y-120786411D01*
X114161000Y-120660937D01*
X114286463Y-120963831D01*
X114476337Y-121247998D01*
X114718002Y-121489663D01*
X115002169Y-121679537D01*
X115317919Y-121810325D01*
X115653117Y-121877000D01*
X115994883Y-121877000D01*
X116330081Y-121810325D01*
X116645831Y-121679537D01*
X116929998Y-121489663D01*
X117171663Y-121247998D01*
X117361537Y-120963831D01*
X117492325Y-120648081D01*
X117559000Y-120312883D01*
X117559000Y-119971117D01*
X117492325Y-119635919D01*
X117361537Y-119320169D01*
X117171663Y-119036002D01*
X116929998Y-118794337D01*
X116645831Y-118604463D01*
X116330081Y-118473675D01*
X115994883Y-118407000D01*
X115653117Y-118407000D01*
X115317919Y-118473675D01*
X115002169Y-118604463D01*
X114718002Y-118794337D01*
X114476337Y-119036002D01*
X114286463Y-119320169D01*
X114155675Y-119635919D01*
X114089000Y-119971117D01*
X114089000Y-120200684D01*
X114003371Y-119993957D01*
X113851799Y-119767114D01*
X113658886Y-119574201D01*
X113432043Y-119422629D01*
X113179989Y-119318225D01*
X112912411Y-119265000D01*
X112639589Y-119265000D01*
X112372011Y-119318225D01*
X112119957Y-119422629D01*
X111893114Y-119574201D01*
X111700201Y-119767114D01*
X111548629Y-119993957D01*
X111507489Y-120093279D01*
X111492277Y-120051168D01*
X111431860Y-119938137D01*
X111192993Y-119872612D01*
X110415605Y-120650000D01*
X110056395Y-120650000D01*
X109279007Y-119872612D01*
X109084072Y-119926086D01*
X109084072Y-119900000D01*
X109071812Y-119775518D01*
X109046783Y-119693007D01*
X109458612Y-119693007D01*
X110236000Y-120470395D01*
X111013388Y-119693007D01*
X110947863Y-119454140D01*
X110700884Y-119338240D01*
X110436040Y-119272750D01*
X110163508Y-119260188D01*
X109893762Y-119301035D01*
X109637168Y-119393723D01*
X109524137Y-119454140D01*
X109458612Y-119693007D01*
X109046783Y-119693007D01*
X109035502Y-119655820D01*
X108976537Y-119545506D01*
X108897185Y-119448815D01*
X108800494Y-119369463D01*
X108690180Y-119310498D01*
X108570482Y-119274188D01*
X108446000Y-119261928D01*
X106946000Y-119261928D01*
X106821518Y-119274188D01*
X106701820Y-119310498D01*
X106591506Y-119369463D01*
X106494815Y-119448815D01*
X106470575Y-119478351D01*
X104875614Y-117883390D01*
X105157919Y-118000325D01*
X105493117Y-118067000D01*
X105834883Y-118067000D01*
X106170081Y-118000325D01*
X106485831Y-117869537D01*
X106769998Y-117679663D01*
X107011663Y-117437998D01*
X107201537Y-117153831D01*
X107332325Y-116838081D01*
X107399000Y-116502883D01*
X107399000Y-116161117D01*
X107332325Y-115825919D01*
X107201537Y-115510169D01*
X107015671Y-115232000D01*
X114085928Y-115232000D01*
X114085928Y-117432000D01*
X114098188Y-117556482D01*
X114134498Y-117676180D01*
X114193463Y-117786494D01*
X114272815Y-117883185D01*
X114369506Y-117962537D01*
X114479820Y-118021502D01*
X114599518Y-118057812D01*
X114724000Y-118070072D01*
X116924000Y-118070072D01*
X117048482Y-118057812D01*
X117168180Y-118021502D01*
X117278494Y-117962537D01*
X117375185Y-117883185D01*
X117454537Y-117786494D01*
X117513502Y-117676180D01*
X117549812Y-117556482D01*
X117562072Y-117432000D01*
X117562072Y-115232000D01*
X117549812Y-115107518D01*
X117513502Y-114987820D01*
X117454537Y-114877506D01*
X117375185Y-114780815D01*
X117278494Y-114701463D01*
X117168180Y-114642498D01*
X117048482Y-114606188D01*
X116924000Y-114593928D01*
X114724000Y-114593928D01*
X114599518Y-114606188D01*
X114479820Y-114642498D01*
X114369506Y-114701463D01*
X114272815Y-114780815D01*
X114193463Y-114877506D01*
X114134498Y-114987820D01*
X114098188Y-115107518D01*
X114085928Y-115232000D01*
X107015671Y-115232000D01*
X107011663Y-115226002D01*
X106769998Y-114984337D01*
X106485831Y-114794463D01*
X106170081Y-114663675D01*
X105834883Y-114597000D01*
X105493117Y-114597000D01*
X105157919Y-114663675D01*
X104842169Y-114794463D01*
X104558002Y-114984337D01*
X104316337Y-115226002D01*
X104126463Y-115510169D01*
X103995675Y-115825919D01*
X103929000Y-116161117D01*
X103929000Y-116502883D01*
X103995675Y-116838081D01*
X104112610Y-117120386D01*
X101952000Y-114959777D01*
X101952000Y-113883236D01*
X101956160Y-113840997D01*
X101952000Y-113798758D01*
X101952000Y-113798752D01*
X101939556Y-113672409D01*
X101939556Y-113672407D01*
X101907068Y-113565309D01*
X101890381Y-113510298D01*
X101810524Y-113360896D01*
X101703054Y-113229944D01*
X101670241Y-113203015D01*
X97870990Y-109403765D01*
X97844056Y-109370946D01*
X97713104Y-109263476D01*
X97563702Y-109183619D01*
X97401591Y-109134444D01*
X97275248Y-109122000D01*
X97275241Y-109122000D01*
X97233002Y-109117840D01*
X97190763Y-109122000D01*
X91736246Y-109122000D01*
X91694000Y-109117839D01*
X91525410Y-109134444D01*
X91363299Y-109183619D01*
X91317015Y-109208359D01*
X91213898Y-109263476D01*
X91082946Y-109370946D01*
X91056017Y-109403759D01*
X90776000Y-109683776D01*
X90776000Y-88101087D01*
X90890482Y-88089812D01*
X91010180Y-88053502D01*
X91120494Y-87994537D01*
X91217185Y-87915185D01*
X91296537Y-87818494D01*
X91355502Y-87708180D01*
X91391812Y-87588482D01*
X91404072Y-87464000D01*
X91404072Y-85764000D01*
X91391812Y-85639518D01*
X91355502Y-85519820D01*
X91296537Y-85409506D01*
X91217185Y-85312815D01*
X91120494Y-85233463D01*
X91010180Y-85174498D01*
X90929534Y-85150034D01*
X91013588Y-85074269D01*
X91187641Y-84840920D01*
X91312825Y-84578099D01*
X91357476Y-84430890D01*
X91236155Y-84201000D01*
X90043000Y-84201000D01*
X90043000Y-84221000D01*
X89789000Y-84221000D01*
X89789000Y-84201000D01*
X89769000Y-84201000D01*
X89769000Y-83947000D01*
X89789000Y-83947000D01*
X89789000Y-81661000D01*
X90043000Y-81661000D01*
X90043000Y-83947000D01*
X91236155Y-83947000D01*
X91357476Y-83717110D01*
X91312825Y-83569901D01*
X91187641Y-83307080D01*
X91013588Y-83073731D01*
X90797355Y-82878822D01*
X90671745Y-82804000D01*
X90797355Y-82729178D01*
X91013588Y-82534269D01*
X91187641Y-82300920D01*
X91312825Y-82038099D01*
X91357476Y-81890890D01*
X91236155Y-81661000D01*
X90043000Y-81661000D01*
X89789000Y-81661000D01*
X89769000Y-81661000D01*
X89769000Y-81407000D01*
X89789000Y-81407000D01*
X89789000Y-81387000D01*
X90043000Y-81387000D01*
X90043000Y-81407000D01*
X91236155Y-81407000D01*
X91357476Y-81177110D01*
X91312825Y-81029901D01*
X91187641Y-80767080D01*
X91013588Y-80533731D01*
X90797355Y-80338822D01*
X90680466Y-80269195D01*
X90862632Y-80147475D01*
X91069475Y-79940632D01*
X91231990Y-79697411D01*
X91343932Y-79427158D01*
X91401000Y-79140260D01*
X91401000Y-78847740D01*
X91343932Y-78560842D01*
X91231990Y-78290589D01*
X91069475Y-78047368D01*
X90862632Y-77840525D01*
X90619411Y-77678010D01*
X90349158Y-77566068D01*
X90062260Y-77509000D01*
X89769740Y-77509000D01*
X89482842Y-77566068D01*
X89212589Y-77678010D01*
X88969368Y-77840525D01*
X88762525Y-78047368D01*
X88600010Y-78290589D01*
X88488068Y-78560842D01*
X88431000Y-78847740D01*
X88431000Y-79140260D01*
X88451327Y-79242450D01*
X87559765Y-80134012D01*
X87526946Y-80160946D01*
X87419476Y-80291899D01*
X87339619Y-80441301D01*
X87290444Y-80603412D01*
X87278000Y-80729755D01*
X87278000Y-80729761D01*
X87273840Y-80772000D01*
X87278000Y-80814239D01*
X87278000Y-82323242D01*
X87199663Y-82206002D01*
X86957998Y-81964337D01*
X86673831Y-81774463D01*
X86358081Y-81643675D01*
X86022883Y-81577000D01*
X85681117Y-81577000D01*
X85345919Y-81643675D01*
X85030169Y-81774463D01*
X84929557Y-81841690D01*
X84863185Y-81760815D01*
X84766494Y-81681463D01*
X84656180Y-81622498D01*
X84536482Y-81586188D01*
X84412000Y-81573928D01*
X82212000Y-81573928D01*
X82087518Y-81586188D01*
X81967820Y-81622498D01*
X81857506Y-81681463D01*
X81760815Y-81760815D01*
X81681463Y-81857506D01*
X81622498Y-81967820D01*
X81586188Y-82087518D01*
X81573928Y-82212000D01*
X81573928Y-84412000D01*
X81586188Y-84536482D01*
X81622498Y-84656180D01*
X81681463Y-84766494D01*
X81760815Y-84863185D01*
X81857506Y-84942537D01*
X81967820Y-85001502D01*
X82087518Y-85037812D01*
X82212000Y-85050072D01*
X84412000Y-85050072D01*
X84536482Y-85037812D01*
X84656180Y-85001502D01*
X84766494Y-84942537D01*
X84863185Y-84863185D01*
X84929557Y-84782310D01*
X85030169Y-84849537D01*
X85345919Y-84980325D01*
X85681117Y-85047000D01*
X86022883Y-85047000D01*
X86358081Y-84980325D01*
X86673831Y-84849537D01*
X86957998Y-84659663D01*
X87199663Y-84417998D01*
X87278000Y-84300758D01*
X87278001Y-85899946D01*
X87270043Y-85894629D01*
X87017989Y-85790225D01*
X86750411Y-85737000D01*
X86477589Y-85737000D01*
X86210011Y-85790225D01*
X85957957Y-85894629D01*
X85731114Y-86046201D01*
X85538201Y-86239114D01*
X85386629Y-86465957D01*
X85282225Y-86718011D01*
X85229000Y-86985589D01*
X85229000Y-87258411D01*
X85282225Y-87525989D01*
X85386629Y-87778043D01*
X85538201Y-88004886D01*
X85731114Y-88197799D01*
X85957957Y-88349371D01*
X86210011Y-88453775D01*
X86477589Y-88507000D01*
X86750411Y-88507000D01*
X87017989Y-88453775D01*
X87270043Y-88349371D01*
X87278001Y-88344054D01*
X87278001Y-89111751D01*
X87273840Y-89154000D01*
X87290444Y-89322589D01*
X87339620Y-89484700D01*
X87419477Y-89634102D01*
X87442372Y-89661999D01*
X87526947Y-89765054D01*
X87559761Y-89791984D01*
X87786000Y-90018223D01*
X87786000Y-91463089D01*
X87689799Y-91319114D01*
X87496886Y-91126201D01*
X87270043Y-90974629D01*
X87017989Y-90870225D01*
X86750411Y-90817000D01*
X86477589Y-90817000D01*
X86210011Y-90870225D01*
X85957957Y-90974629D01*
X85731114Y-91126201D01*
X85538201Y-91319114D01*
X85386629Y-91545957D01*
X85282225Y-91798011D01*
X85229000Y-92065589D01*
X85229000Y-92338411D01*
X85282225Y-92605989D01*
X85386629Y-92858043D01*
X85538201Y-93084886D01*
X85731114Y-93277799D01*
X85957957Y-93429371D01*
X86060873Y-93472000D01*
X85957957Y-93514629D01*
X85731114Y-93666201D01*
X85538201Y-93859114D01*
X85386629Y-94085957D01*
X85282225Y-94338011D01*
X85229000Y-94605589D01*
X85229000Y-94878411D01*
X85282225Y-95145989D01*
X85386629Y-95398043D01*
X85538201Y-95624886D01*
X85731114Y-95817799D01*
X85957957Y-95969371D01*
X86060873Y-96012000D01*
X85957957Y-96054629D01*
X85731114Y-96206201D01*
X85538201Y-96399114D01*
X85386629Y-96625957D01*
X85282225Y-96878011D01*
X85229000Y-97145589D01*
X85229000Y-97418411D01*
X85282225Y-97685989D01*
X85386629Y-97938043D01*
X85538201Y-98164886D01*
X85731114Y-98357799D01*
X85957957Y-98509371D01*
X86004737Y-98528748D01*
X85879898Y-98595476D01*
X85748946Y-98702946D01*
X85722008Y-98735770D01*
X85273765Y-99184012D01*
X85240946Y-99210946D01*
X85133476Y-99341899D01*
X85053619Y-99491301D01*
X85030353Y-99568000D01*
X85007087Y-99644700D01*
X85004444Y-99653412D01*
X84992000Y-99779755D01*
X84992000Y-99779761D01*
X84987840Y-99822000D01*
X84992000Y-99864239D01*
X84992001Y-101811752D01*
X84987840Y-101854000D01*
X85004444Y-102022589D01*
X85053620Y-102184700D01*
X85133477Y-102334102D01*
X85213631Y-102431769D01*
X85240947Y-102465054D01*
X85273760Y-102491983D01*
X85754000Y-102972224D01*
X85754000Y-103065399D01*
X85732363Y-103033017D01*
X85434983Y-102735637D01*
X85085302Y-102501988D01*
X84934000Y-102439317D01*
X84934000Y-95038238D01*
X84938160Y-94995999D01*
X84934000Y-94953760D01*
X84934000Y-94953754D01*
X84921556Y-94827411D01*
X84872381Y-94665300D01*
X84792524Y-94515898D01*
X84685054Y-94384946D01*
X84652236Y-94358013D01*
X84457988Y-94163765D01*
X84431054Y-94130946D01*
X84300102Y-94023476D01*
X84150700Y-93943619D01*
X83988589Y-93894444D01*
X83862246Y-93882000D01*
X83862239Y-93882000D01*
X83820000Y-93877840D01*
X83777761Y-93882000D01*
X82625091Y-93882000D01*
X82609799Y-93859114D01*
X82416886Y-93666201D01*
X82190043Y-93514629D01*
X82087127Y-93472000D01*
X82190043Y-93429371D01*
X82416886Y-93277799D01*
X82609799Y-93084886D01*
X82761371Y-92858043D01*
X82865775Y-92605989D01*
X82919000Y-92338411D01*
X82919000Y-92065589D01*
X82865775Y-91798011D01*
X82761371Y-91545957D01*
X82609799Y-91319114D01*
X82416886Y-91126201D01*
X82190043Y-90974629D01*
X81937989Y-90870225D01*
X81670411Y-90817000D01*
X81397589Y-90817000D01*
X81130011Y-90870225D01*
X80877957Y-90974629D01*
X80660000Y-91120264D01*
X80660000Y-88424015D01*
X80694458Y-88442433D01*
X80861148Y-88492998D01*
X81034500Y-88510072D01*
X82033500Y-88510072D01*
X82206852Y-88492998D01*
X82373542Y-88442433D01*
X82527164Y-88360321D01*
X82661815Y-88249815D01*
X82772321Y-88115164D01*
X82854433Y-87961542D01*
X82904998Y-87794852D01*
X82922072Y-87621500D01*
X82922072Y-86622500D01*
X82904998Y-86449148D01*
X82854433Y-86282458D01*
X82772321Y-86128836D01*
X82661815Y-85994185D01*
X82527164Y-85883679D01*
X82373542Y-85801567D01*
X82206852Y-85751002D01*
X82033500Y-85733928D01*
X81034500Y-85733928D01*
X80861148Y-85751002D01*
X80694458Y-85801567D01*
X80660000Y-85819985D01*
X80660000Y-79096891D01*
X81108519Y-79096891D01*
X81205843Y-79371252D01*
X81354822Y-79621355D01*
X81549731Y-79837588D01*
X81783080Y-80011641D01*
X82045901Y-80136825D01*
X82193110Y-80181476D01*
X82423000Y-80060155D01*
X82423000Y-78867000D01*
X81229186Y-78867000D01*
X81108519Y-79096891D01*
X80660000Y-79096891D01*
X80660000Y-78383109D01*
X81108519Y-78383109D01*
X81229186Y-78613000D01*
X82423000Y-78613000D01*
X82423000Y-77419845D01*
X82193110Y-77298524D01*
X82045901Y-77343175D01*
X81783080Y-77468359D01*
X81549731Y-77642412D01*
X81354822Y-77858645D01*
X81205843Y-78108748D01*
X81108519Y-78383109D01*
X80660000Y-78383109D01*
X80660000Y-70660000D01*
X82327617Y-70660000D01*
X82107988Y-70988698D01*
G37*
%TD.AperFunction*%
D32*
X121591068Y-81827101D02*
X121770392Y-82045608D01*
X121988899Y-82224932D01*
X122121858Y-82296000D01*
X121988899Y-82367068D01*
X121770392Y-82546392D01*
X121591068Y-82764899D01*
X121457818Y-83014192D01*
X121375764Y-83284691D01*
X121348057Y-83566000D01*
X121375764Y-83847309D01*
X121457818Y-84117808D01*
X121591068Y-84367101D01*
X121770392Y-84585608D01*
X121988899Y-84764932D01*
X122238192Y-84898182D01*
X122508691Y-84980236D01*
X122719508Y-85001000D01*
X122721082Y-85001000D01*
X122510273Y-85088320D01*
X122275241Y-85245363D01*
X122075363Y-85445241D01*
X121918320Y-85680273D01*
X121810147Y-85941426D01*
X121755000Y-86218665D01*
X121755000Y-86501335D01*
X121810147Y-86778574D01*
X121918320Y-87039727D01*
X122075363Y-87274759D01*
X122275241Y-87474637D01*
X122507759Y-87630000D01*
X122275241Y-87785363D01*
X122075363Y-87985241D01*
X121918320Y-88220273D01*
X121810147Y-88481426D01*
X121755000Y-88758665D01*
X121755000Y-89041335D01*
X121810147Y-89318574D01*
X121918320Y-89579727D01*
X122075363Y-89814759D01*
X122275241Y-90014637D01*
X122510273Y-90171680D01*
X122771426Y-90279853D01*
X123048665Y-90335000D01*
X123331335Y-90335000D01*
X123608574Y-90279853D01*
X123869727Y-90171680D01*
X124104759Y-90014637D01*
X124304637Y-89814759D01*
X124340000Y-89761834D01*
X124340001Y-97182166D01*
X124304637Y-97129241D01*
X124104759Y-96929363D01*
X123869727Y-96772320D01*
X123608574Y-96664147D01*
X123331335Y-96609000D01*
X123048665Y-96609000D01*
X122771426Y-96664147D01*
X122510273Y-96772320D01*
X122275241Y-96929363D01*
X122075363Y-97129241D01*
X121920000Y-97361759D01*
X121764637Y-97129241D01*
X121564759Y-96929363D01*
X121329727Y-96772320D01*
X121068574Y-96664147D01*
X120791335Y-96609000D01*
X120508665Y-96609000D01*
X120231426Y-96664147D01*
X119970273Y-96772320D01*
X119735241Y-96929363D01*
X119555381Y-97109223D01*
X118895000Y-96448843D01*
X118895000Y-95856300D01*
X118954815Y-95929185D01*
X119051506Y-96008537D01*
X119161820Y-96067502D01*
X119281518Y-96103812D01*
X119406000Y-96116072D01*
X119820250Y-96113000D01*
X119979000Y-95954250D01*
X119979000Y-94805000D01*
X120233000Y-94805000D01*
X120233000Y-95954250D01*
X120391750Y-96113000D01*
X120806000Y-96116072D01*
X120930482Y-96103812D01*
X121050180Y-96067502D01*
X121160494Y-96008537D01*
X121257185Y-95929185D01*
X121336537Y-95832494D01*
X121395502Y-95722180D01*
X121431812Y-95602482D01*
X121444072Y-95478000D01*
X121441000Y-94963750D01*
X121282250Y-94805000D01*
X120233000Y-94805000D01*
X119979000Y-94805000D01*
X119959000Y-94805000D01*
X119959000Y-94551000D01*
X119979000Y-94551000D01*
X119979000Y-93401750D01*
X120233000Y-93401750D01*
X120233000Y-94551000D01*
X121282250Y-94551000D01*
X121441000Y-94392250D01*
X121444072Y-93878000D01*
X121431812Y-93753518D01*
X121395502Y-93633820D01*
X121336537Y-93523506D01*
X121257185Y-93426815D01*
X121160494Y-93347463D01*
X121050180Y-93288498D01*
X120930482Y-93252188D01*
X120806000Y-93239928D01*
X120391750Y-93243000D01*
X120233000Y-93401750D01*
X119979000Y-93401750D01*
X119820250Y-93243000D01*
X119406000Y-93239928D01*
X119281518Y-93252188D01*
X119161820Y-93288498D01*
X119051506Y-93347463D01*
X118954815Y-93426815D01*
X118895000Y-93499700D01*
X118895000Y-87856300D01*
X118954815Y-87929185D01*
X119051506Y-88008537D01*
X119161820Y-88067502D01*
X119281518Y-88103812D01*
X119406000Y-88116072D01*
X119820250Y-88113000D01*
X119979000Y-87954250D01*
X119979000Y-86805000D01*
X120233000Y-86805000D01*
X120233000Y-87954250D01*
X120391750Y-88113000D01*
X120806000Y-88116072D01*
X120930482Y-88103812D01*
X121050180Y-88067502D01*
X121160494Y-88008537D01*
X121257185Y-87929185D01*
X121336537Y-87832494D01*
X121395502Y-87722180D01*
X121431812Y-87602482D01*
X121444072Y-87478000D01*
X121441000Y-86963750D01*
X121282250Y-86805000D01*
X120233000Y-86805000D01*
X119979000Y-86805000D01*
X119959000Y-86805000D01*
X119959000Y-86551000D01*
X119979000Y-86551000D01*
X119979000Y-85401750D01*
X120233000Y-85401750D01*
X120233000Y-86551000D01*
X121282250Y-86551000D01*
X121441000Y-86392250D01*
X121444072Y-85878000D01*
X121431812Y-85753518D01*
X121395502Y-85633820D01*
X121336537Y-85523506D01*
X121257185Y-85426815D01*
X121160494Y-85347463D01*
X121050180Y-85288498D01*
X120930482Y-85252188D01*
X120806000Y-85239928D01*
X120391750Y-85243000D01*
X120233000Y-85401750D01*
X119979000Y-85401750D01*
X119820250Y-85243000D01*
X119406000Y-85239928D01*
X119281518Y-85252188D01*
X119161820Y-85288498D01*
X119051506Y-85347463D01*
X118954815Y-85426815D01*
X118895000Y-85499700D01*
X118895000Y-83637157D01*
X120721158Y-81811000D01*
X121582462Y-81811000D01*
X121591068Y-81827101D01*
%TA.AperFunction,Conductor*%
D33*
G36*
X121591068Y-81827101D02*
G01*
X121770392Y-82045608D01*
X121988899Y-82224932D01*
X122121858Y-82296000D01*
X121988899Y-82367068D01*
X121770392Y-82546392D01*
X121591068Y-82764899D01*
X121457818Y-83014192D01*
X121375764Y-83284691D01*
X121348057Y-83566000D01*
X121375764Y-83847309D01*
X121457818Y-84117808D01*
X121591068Y-84367101D01*
X121770392Y-84585608D01*
X121988899Y-84764932D01*
X122238192Y-84898182D01*
X122508691Y-84980236D01*
X122719508Y-85001000D01*
X122721082Y-85001000D01*
X122510273Y-85088320D01*
X122275241Y-85245363D01*
X122075363Y-85445241D01*
X121918320Y-85680273D01*
X121810147Y-85941426D01*
X121755000Y-86218665D01*
X121755000Y-86501335D01*
X121810147Y-86778574D01*
X121918320Y-87039727D01*
X122075363Y-87274759D01*
X122275241Y-87474637D01*
X122507759Y-87630000D01*
X122275241Y-87785363D01*
X122075363Y-87985241D01*
X121918320Y-88220273D01*
X121810147Y-88481426D01*
X121755000Y-88758665D01*
X121755000Y-89041335D01*
X121810147Y-89318574D01*
X121918320Y-89579727D01*
X122075363Y-89814759D01*
X122275241Y-90014637D01*
X122510273Y-90171680D01*
X122771426Y-90279853D01*
X123048665Y-90335000D01*
X123331335Y-90335000D01*
X123608574Y-90279853D01*
X123869727Y-90171680D01*
X124104759Y-90014637D01*
X124304637Y-89814759D01*
X124340000Y-89761834D01*
X124340001Y-97182166D01*
X124304637Y-97129241D01*
X124104759Y-96929363D01*
X123869727Y-96772320D01*
X123608574Y-96664147D01*
X123331335Y-96609000D01*
X123048665Y-96609000D01*
X122771426Y-96664147D01*
X122510273Y-96772320D01*
X122275241Y-96929363D01*
X122075363Y-97129241D01*
X121920000Y-97361759D01*
X121764637Y-97129241D01*
X121564759Y-96929363D01*
X121329727Y-96772320D01*
X121068574Y-96664147D01*
X120791335Y-96609000D01*
X120508665Y-96609000D01*
X120231426Y-96664147D01*
X119970273Y-96772320D01*
X119735241Y-96929363D01*
X119555381Y-97109223D01*
X118895000Y-96448843D01*
X118895000Y-95856300D01*
X118954815Y-95929185D01*
X119051506Y-96008537D01*
X119161820Y-96067502D01*
X119281518Y-96103812D01*
X119406000Y-96116072D01*
X119820250Y-96113000D01*
X119979000Y-95954250D01*
X119979000Y-94805000D01*
X120233000Y-94805000D01*
X120233000Y-95954250D01*
X120391750Y-96113000D01*
X120806000Y-96116072D01*
X120930482Y-96103812D01*
X121050180Y-96067502D01*
X121160494Y-96008537D01*
X121257185Y-95929185D01*
X121336537Y-95832494D01*
X121395502Y-95722180D01*
X121431812Y-95602482D01*
X121444072Y-95478000D01*
X121441000Y-94963750D01*
X121282250Y-94805000D01*
X120233000Y-94805000D01*
X119979000Y-94805000D01*
X119959000Y-94805000D01*
X119959000Y-94551000D01*
X119979000Y-94551000D01*
X119979000Y-93401750D01*
X120233000Y-93401750D01*
X120233000Y-94551000D01*
X121282250Y-94551000D01*
X121441000Y-94392250D01*
X121444072Y-93878000D01*
X121431812Y-93753518D01*
X121395502Y-93633820D01*
X121336537Y-93523506D01*
X121257185Y-93426815D01*
X121160494Y-93347463D01*
X121050180Y-93288498D01*
X120930482Y-93252188D01*
X120806000Y-93239928D01*
X120391750Y-93243000D01*
X120233000Y-93401750D01*
X119979000Y-93401750D01*
X119820250Y-93243000D01*
X119406000Y-93239928D01*
X119281518Y-93252188D01*
X119161820Y-93288498D01*
X119051506Y-93347463D01*
X118954815Y-93426815D01*
X118895000Y-93499700D01*
X118895000Y-87856300D01*
X118954815Y-87929185D01*
X119051506Y-88008537D01*
X119161820Y-88067502D01*
X119281518Y-88103812D01*
X119406000Y-88116072D01*
X119820250Y-88113000D01*
X119979000Y-87954250D01*
X119979000Y-86805000D01*
X120233000Y-86805000D01*
X120233000Y-87954250D01*
X120391750Y-88113000D01*
X120806000Y-88116072D01*
X120930482Y-88103812D01*
X121050180Y-88067502D01*
X121160494Y-88008537D01*
X121257185Y-87929185D01*
X121336537Y-87832494D01*
X121395502Y-87722180D01*
X121431812Y-87602482D01*
X121444072Y-87478000D01*
X121441000Y-86963750D01*
X121282250Y-86805000D01*
X120233000Y-86805000D01*
X119979000Y-86805000D01*
X119959000Y-86805000D01*
X119959000Y-86551000D01*
X119979000Y-86551000D01*
X119979000Y-85401750D01*
X120233000Y-85401750D01*
X120233000Y-86551000D01*
X121282250Y-86551000D01*
X121441000Y-86392250D01*
X121444072Y-85878000D01*
X121431812Y-85753518D01*
X121395502Y-85633820D01*
X121336537Y-85523506D01*
X121257185Y-85426815D01*
X121160494Y-85347463D01*
X121050180Y-85288498D01*
X120930482Y-85252188D01*
X120806000Y-85239928D01*
X120391750Y-85243000D01*
X120233000Y-85401750D01*
X119979000Y-85401750D01*
X119820250Y-85243000D01*
X119406000Y-85239928D01*
X119281518Y-85252188D01*
X119161820Y-85288498D01*
X119051506Y-85347463D01*
X118954815Y-85426815D01*
X118895000Y-85499700D01*
X118895000Y-83637157D01*
X120721158Y-81811000D01*
X121582462Y-81811000D01*
X121591068Y-81827101D01*
G37*
%TD.AperFunction*%
D32*
X101727000Y-72009000D02*
X101747000Y-72009000D01*
X101747000Y-72263000D01*
X101727000Y-72263000D01*
X101727000Y-72283000D01*
X101473000Y-72283000D01*
X101473000Y-72263000D01*
X101453000Y-72263000D01*
X101453000Y-72009000D01*
X101473000Y-72009000D01*
X101473000Y-71989000D01*
X101727000Y-71989000D01*
X101727000Y-72009000D01*
%TA.AperFunction,Conductor*%
D33*
G36*
X101727000Y-72009000D02*
G01*
X101747000Y-72009000D01*
X101747000Y-72263000D01*
X101727000Y-72263000D01*
X101727000Y-72283000D01*
X101473000Y-72283000D01*
X101473000Y-72263000D01*
X101453000Y-72263000D01*
X101453000Y-72009000D01*
X101473000Y-72009000D01*
X101473000Y-71989000D01*
X101727000Y-71989000D01*
X101727000Y-72009000D01*
G37*
%TD.AperFunction*%
%TD*%
M02*
