M48
; DRILL file {KiCad (5.1.12)-1} date 06/06/25 13:01:45
; FORMAT={-:-/ absolute / inch / decimal}
; #@! TF.CreationDate,2025-06-06T13:01:45+02:00
; #@! TF.GenerationSoftware,Kicad,Pcbnew,(5.1.12)-1
; #@! TF.FileFunction,Plated,1,2,PTH
FMAT,2
INCH
T1C0.0157
T2C0.0315
T3C0.0354
T4C0.0394
T5C0.0433
T6C0.0598
%
G90
G05
T1
X3.36Y-3.53
X3.81Y-3.21
X3.86Y-3.24
X4.01Y-3.0
X4.55Y-4.33
X4.62Y-2.81
X4.73Y-3.65
T2
X3.21Y-3.43
X3.21Y-3.63
X3.21Y-3.73
X3.21Y-3.83
X3.41Y-3.43
X3.41Y-3.63
X3.41Y-3.73
X3.41Y-3.83
X3.84Y-3.6116
X3.84Y-3.71
X3.91Y-3.31
X3.91Y-3.41
X3.91Y-3.51
X3.91Y-3.9
X3.91Y-4.0929
X3.96Y-3.6116
X3.96Y-3.71
X4.09Y-3.16
X4.09Y-3.26
X4.09Y-3.36
X4.09Y-3.46
X4.09Y-3.56
X4.09Y-3.66
X4.09Y-3.76
X4.09Y-3.86
X4.09Y-3.96
X4.09Y-4.06
X4.09Y-4.16
X4.09Y-4.26
X4.09Y-4.36
X4.09Y-4.46
X4.24Y-4.75
X4.34Y-4.75
X4.39Y-3.16
X4.39Y-3.26
X4.39Y-3.36
X4.39Y-3.46
X4.39Y-3.56
X4.39Y-3.66
X4.39Y-3.76
X4.39Y-3.86
X4.39Y-3.96
X4.39Y-4.06
X4.39Y-4.16
X4.39Y-4.26
X4.39Y-4.36
X4.39Y-4.46
X4.44Y-4.75
X4.55Y-2.99
X4.55Y-3.09
X4.55Y-3.19
X4.55Y-3.29
X4.75Y-3.86
X4.85Y-2.99
X4.85Y-3.09
X4.85Y-3.19
X4.85Y-3.29
X4.85Y-3.4
X4.85Y-3.5
X4.85Y-3.86
T3
X4.22Y-3.0
X4.32Y-3.0
T4
X3.25Y-3.1
X3.35Y-3.1
X3.54Y-3.11
X3.54Y-3.21
X3.54Y-3.31
X3.54Y-3.41
X3.54Y-4.4
X3.54Y-4.5
X3.54Y-4.6
X3.54Y-4.7
X3.64Y-3.11
X3.64Y-3.21
X3.64Y-3.31
X3.64Y-4.14
X3.64Y-4.24
X3.8Y-2.84
X3.9Y-2.84
X3.9Y-4.4
X4.0Y-2.84
X4.1Y-2.84
X4.2Y-2.84
X4.3Y-2.84
X4.4Y-2.84
X4.5Y-2.84
X4.85Y-4.05
X4.85Y-4.15
X4.85Y-4.25
X4.85Y-4.35
X4.85Y-4.45
X4.85Y-4.55
T5
X3.28Y-3.28
X3.38Y-3.28
X3.47Y-2.97
X3.76Y-4.58
X3.77Y-2.97
X3.86Y-4.77
X3.96Y-3.1
X3.96Y-3.2
X3.96Y-4.77
X4.06Y-4.77
X4.16Y-4.58
X4.56Y-3.92
X4.56Y-4.42
X4.56Y-4.58
X4.56Y-4.73
T6
X3.31Y-4.11
X3.31Y-4.31
X3.31Y-4.52
X3.31Y-4.72
T0
M30
