%TF.GenerationSoftware,KiCad,Pcbnew,(5.1.12)-1*%
%TF.CreationDate,2025-05-30T10:09:50+02:00*%
%TF.ProjectId,telecommande,74656c65-636f-46d6-9d61-6e64652e6b69,rev?*%
%TF.SameCoordinates,Original*%
%TF.FileFunction,Legend,Top*%
%TF.FilePolarity,Positive*%
%FSLAX46Y46*%
G04 Gerber Fmt 4.6, Leading zero omitted, Abs format (unit mm)*
G04 Created by KiCad (PCBNEW (5.1.12)-1) date 2025-05-30 10:09:50*
%MOMM*%
%LPD*%
G01*
G04 APERTURE LIST*
%ADD10C,0.150000*%
%ADD11C,0.300000*%
%ADD12C,0.200000*%
%ADD13C,0.120000*%
G04 APERTURE END LIST*
D10*
X120897857Y-78264000D02*
X120955000Y-78321142D01*
X121012142Y-78435428D01*
X121012142Y-78721142D01*
X120955000Y-78835428D01*
X120897857Y-78892571D01*
X120783571Y-78949714D01*
X120669285Y-78949714D01*
X120497857Y-78892571D01*
X119812142Y-78206857D01*
X119812142Y-78949714D01*
X120612142Y-79978285D02*
X119812142Y-79978285D01*
X121069285Y-79692571D02*
X120212142Y-79406857D01*
X120212142Y-80149714D01*
X119812142Y-81178285D02*
X119812142Y-80606857D01*
X121012142Y-80606857D01*
X119926428Y-82264000D02*
X119869285Y-82206857D01*
X119812142Y-82035428D01*
X119812142Y-81921142D01*
X119869285Y-81749714D01*
X119983571Y-81635428D01*
X120097857Y-81578285D01*
X120326428Y-81521142D01*
X120497857Y-81521142D01*
X120726428Y-81578285D01*
X120840714Y-81635428D01*
X120955000Y-81749714D01*
X121012142Y-81921142D01*
X121012142Y-82035428D01*
X120955000Y-82206857D01*
X120897857Y-82264000D01*
X117862142Y-78892571D02*
X117862142Y-78206857D01*
X117862142Y-78549714D02*
X119062142Y-78549714D01*
X118890714Y-78435428D01*
X118776428Y-78321142D01*
X118719285Y-78206857D01*
X119062142Y-79635428D02*
X119062142Y-79749714D01*
X119005000Y-79864000D01*
X118947857Y-79921142D01*
X118833571Y-79978285D01*
X118605000Y-80035428D01*
X118319285Y-80035428D01*
X118090714Y-79978285D01*
X117976428Y-79921142D01*
X117919285Y-79864000D01*
X117862142Y-79749714D01*
X117862142Y-79635428D01*
X117919285Y-79521142D01*
X117976428Y-79464000D01*
X118090714Y-79406857D01*
X118319285Y-79349714D01*
X118605000Y-79349714D01*
X118833571Y-79406857D01*
X118947857Y-79464000D01*
X119005000Y-79521142D01*
X119062142Y-79635428D01*
X118947857Y-80492571D02*
X119005000Y-80549714D01*
X119062142Y-80664000D01*
X119062142Y-80949714D01*
X119005000Y-81064000D01*
X118947857Y-81121142D01*
X118833571Y-81178285D01*
X118719285Y-81178285D01*
X118547857Y-81121142D01*
X117862142Y-80435428D01*
X117862142Y-81178285D01*
X119062142Y-82206857D02*
X119062142Y-81978285D01*
X119005000Y-81864000D01*
X118947857Y-81806857D01*
X118776428Y-81692571D01*
X118547857Y-81635428D01*
X118090714Y-81635428D01*
X117976428Y-81692571D01*
X117919285Y-81749714D01*
X117862142Y-81864000D01*
X117862142Y-82092571D01*
X117919285Y-82206857D01*
X117976428Y-82264000D01*
X118090714Y-82321142D01*
X118376428Y-82321142D01*
X118490714Y-82264000D01*
X118547857Y-82206857D01*
X118605000Y-82092571D01*
X118605000Y-81864000D01*
X118547857Y-81749714D01*
X118490714Y-81692571D01*
X118376428Y-81635428D01*
X106899142Y-82700000D02*
X108099142Y-82700000D01*
X108099142Y-83157142D01*
X108042000Y-83271428D01*
X107984857Y-83328571D01*
X107870571Y-83385714D01*
X107699142Y-83385714D01*
X107584857Y-83328571D01*
X107527714Y-83271428D01*
X107470571Y-83157142D01*
X107470571Y-82700000D01*
X106899142Y-83900000D02*
X108099142Y-83900000D01*
X107013428Y-85157142D02*
X106956285Y-85100000D01*
X106899142Y-84928571D01*
X106899142Y-84814285D01*
X106956285Y-84642857D01*
X107070571Y-84528571D01*
X107184857Y-84471428D01*
X107413428Y-84414285D01*
X107584857Y-84414285D01*
X107813428Y-84471428D01*
X107927714Y-84528571D01*
X108042000Y-84642857D01*
X108099142Y-84814285D01*
X108099142Y-84928571D01*
X108042000Y-85100000D01*
X107984857Y-85157142D01*
X106899142Y-87214285D02*
X106899142Y-86528571D01*
X106899142Y-86871428D02*
X108099142Y-86871428D01*
X107927714Y-86757142D01*
X107813428Y-86642857D01*
X107756285Y-86528571D01*
X107584857Y-87900000D02*
X107642000Y-87785714D01*
X107699142Y-87728571D01*
X107813428Y-87671428D01*
X107870571Y-87671428D01*
X107984857Y-87728571D01*
X108042000Y-87785714D01*
X108099142Y-87900000D01*
X108099142Y-88128571D01*
X108042000Y-88242857D01*
X107984857Y-88300000D01*
X107870571Y-88357142D01*
X107813428Y-88357142D01*
X107699142Y-88300000D01*
X107642000Y-88242857D01*
X107584857Y-88128571D01*
X107584857Y-87900000D01*
X107527714Y-87785714D01*
X107470571Y-87728571D01*
X107356285Y-87671428D01*
X107127714Y-87671428D01*
X107013428Y-87728571D01*
X106956285Y-87785714D01*
X106899142Y-87900000D01*
X106899142Y-88128571D01*
X106956285Y-88242857D01*
X107013428Y-88300000D01*
X107127714Y-88357142D01*
X107356285Y-88357142D01*
X107470571Y-88300000D01*
X107527714Y-88242857D01*
X107584857Y-88128571D01*
X107527714Y-89271428D02*
X107527714Y-88871428D01*
X106899142Y-88871428D02*
X108099142Y-88871428D01*
X108099142Y-89442857D01*
X107984857Y-89842857D02*
X108042000Y-89900000D01*
X108099142Y-90014285D01*
X108099142Y-90300000D01*
X108042000Y-90414285D01*
X107984857Y-90471428D01*
X107870571Y-90528571D01*
X107756285Y-90528571D01*
X107584857Y-90471428D01*
X106899142Y-89785714D01*
X106899142Y-90528571D01*
X108099142Y-91557142D02*
X108099142Y-91328571D01*
X108042000Y-91214285D01*
X107984857Y-91157142D01*
X107813428Y-91042857D01*
X107584857Y-90985714D01*
X107127714Y-90985714D01*
X107013428Y-91042857D01*
X106956285Y-91100000D01*
X106899142Y-91214285D01*
X106899142Y-91442857D01*
X106956285Y-91557142D01*
X107013428Y-91614285D01*
X107127714Y-91671428D01*
X107413428Y-91671428D01*
X107527714Y-91614285D01*
X107584857Y-91557142D01*
X107642000Y-91442857D01*
X107642000Y-91214285D01*
X107584857Y-91100000D01*
X107527714Y-91042857D01*
X107413428Y-90985714D01*
X106899142Y-92185714D02*
X108099142Y-92185714D01*
X106899142Y-92871428D02*
X107584857Y-92357142D01*
X108099142Y-92871428D02*
X107413428Y-92185714D01*
X108099142Y-93271428D02*
X108099142Y-94014285D01*
X107642000Y-93614285D01*
X107642000Y-93785714D01*
X107584857Y-93900000D01*
X107527714Y-93957142D01*
X107413428Y-94014285D01*
X107127714Y-94014285D01*
X107013428Y-93957142D01*
X106956285Y-93900000D01*
X106899142Y-93785714D01*
X106899142Y-93442857D01*
X106956285Y-93328571D01*
X107013428Y-93271428D01*
X108099142Y-94757142D02*
X108099142Y-94871428D01*
X108042000Y-94985714D01*
X107984857Y-95042857D01*
X107870571Y-95100000D01*
X107642000Y-95157142D01*
X107356285Y-95157142D01*
X107127714Y-95100000D01*
X107013428Y-95042857D01*
X106956285Y-94985714D01*
X106899142Y-94871428D01*
X106899142Y-94757142D01*
X106956285Y-94642857D01*
X107013428Y-94585714D01*
X107127714Y-94528571D01*
X107356285Y-94471428D01*
X107642000Y-94471428D01*
X107870571Y-94528571D01*
X107984857Y-94585714D01*
X108042000Y-94642857D01*
X108099142Y-94757142D01*
X88487428Y-108562857D02*
X88887428Y-109762857D01*
X89287428Y-108562857D01*
X90201714Y-109705714D02*
X90087428Y-109762857D01*
X89858857Y-109762857D01*
X89744571Y-109705714D01*
X89687428Y-109648571D01*
X89630285Y-109534285D01*
X89630285Y-109191428D01*
X89687428Y-109077142D01*
X89744571Y-109020000D01*
X89858857Y-108962857D01*
X90087428Y-108962857D01*
X90201714Y-109020000D01*
X91230285Y-109705714D02*
X91116000Y-109762857D01*
X90887428Y-109762857D01*
X90773142Y-109705714D01*
X90716000Y-109648571D01*
X90658857Y-109534285D01*
X90658857Y-109191428D01*
X90716000Y-109077142D01*
X90773142Y-109020000D01*
X90887428Y-108962857D01*
X91116000Y-108962857D01*
X91230285Y-109020000D01*
X91592571Y-79194000D02*
X92164000Y-79194000D01*
X91478285Y-79536857D02*
X91878285Y-78336857D01*
X92278285Y-79536857D01*
X92678285Y-79536857D02*
X92678285Y-78336857D01*
X93364000Y-79536857D01*
X93364000Y-78336857D01*
X93764000Y-78336857D02*
X94449714Y-78336857D01*
X94106857Y-79536857D02*
X94106857Y-78336857D01*
X81978571Y-76050857D02*
X82092857Y-76050857D01*
X82207142Y-76108000D01*
X82264285Y-76165142D01*
X82321428Y-76279428D01*
X82378571Y-76508000D01*
X82378571Y-76793714D01*
X82321428Y-77022285D01*
X82264285Y-77136571D01*
X82207142Y-77193714D01*
X82092857Y-77250857D01*
X81978571Y-77250857D01*
X81864285Y-77193714D01*
X81807142Y-77136571D01*
X81750000Y-77022285D01*
X81692857Y-76793714D01*
X81692857Y-76508000D01*
X81750000Y-76279428D01*
X81807142Y-76165142D01*
X81864285Y-76108000D01*
X81978571Y-76050857D01*
X82721428Y-76050857D02*
X83121428Y-77250857D01*
X83521428Y-76050857D01*
X84169428Y-76165142D02*
X84226571Y-76108000D01*
X84340857Y-76050857D01*
X84626571Y-76050857D01*
X84740857Y-76108000D01*
X84798000Y-76165142D01*
X84855142Y-76279428D01*
X84855142Y-76393714D01*
X84798000Y-76565142D01*
X84112285Y-77250857D01*
X84855142Y-77250857D01*
X85883714Y-76450857D02*
X85883714Y-77250857D01*
X85598000Y-75993714D02*
X85312285Y-76850857D01*
X86055142Y-76850857D01*
X86340857Y-76050857D02*
X86740857Y-77250857D01*
X87140857Y-76050857D01*
D11*
X123690000Y-100159428D02*
X123190000Y-101659428D01*
X122690000Y-100159428D01*
X123690000Y-100159428D01*
X96020000Y-75100571D02*
X96520000Y-73600571D01*
X97020000Y-75100571D01*
X96020000Y-75100571D01*
D10*
X121561142Y-111684000D02*
X120589714Y-111684000D01*
X120475428Y-111741142D01*
X120418285Y-111798285D01*
X120361142Y-111912571D01*
X120361142Y-112141142D01*
X120418285Y-112255428D01*
X120475428Y-112312571D01*
X120589714Y-112369714D01*
X121561142Y-112369714D01*
X120361142Y-113455428D02*
X120989714Y-113455428D01*
X121104000Y-113398285D01*
X121161142Y-113284000D01*
X121161142Y-113055428D01*
X121104000Y-112941142D01*
X120418285Y-113455428D02*
X120361142Y-113341142D01*
X120361142Y-113055428D01*
X120418285Y-112941142D01*
X120532571Y-112884000D01*
X120646857Y-112884000D01*
X120761142Y-112941142D01*
X120818285Y-113055428D01*
X120818285Y-113341142D01*
X120875428Y-113455428D01*
X120361142Y-114026857D02*
X121161142Y-114026857D01*
X120932571Y-114026857D02*
X121046857Y-114084000D01*
X121104000Y-114141142D01*
X121161142Y-114255428D01*
X121161142Y-114369714D01*
X121161142Y-114598285D02*
X121161142Y-115055428D01*
X121561142Y-114769714D02*
X120532571Y-114769714D01*
X120418285Y-114826857D01*
X120361142Y-114941142D01*
X120361142Y-115055428D01*
X91659142Y-107252285D02*
X92230571Y-106852285D01*
X91659142Y-106566571D02*
X92859142Y-106566571D01*
X92859142Y-107023714D01*
X92802000Y-107138000D01*
X92744857Y-107195142D01*
X92630571Y-107252285D01*
X92459142Y-107252285D01*
X92344857Y-107195142D01*
X92287714Y-107138000D01*
X92230571Y-107023714D01*
X92230571Y-106566571D01*
X91716285Y-108223714D02*
X91659142Y-108109428D01*
X91659142Y-107880857D01*
X91716285Y-107766571D01*
X91830571Y-107709428D01*
X92287714Y-107709428D01*
X92402000Y-107766571D01*
X92459142Y-107880857D01*
X92459142Y-108109428D01*
X92402000Y-108223714D01*
X92287714Y-108280857D01*
X92173428Y-108280857D01*
X92059142Y-107709428D01*
X92916285Y-108109428D02*
X92744857Y-107938000D01*
X91716285Y-109309428D02*
X91659142Y-109195142D01*
X91659142Y-108966571D01*
X91716285Y-108852285D01*
X91773428Y-108795142D01*
X91887714Y-108738000D01*
X92230571Y-108738000D01*
X92344857Y-108795142D01*
X92402000Y-108852285D01*
X92459142Y-108966571D01*
X92459142Y-109195142D01*
X92402000Y-109309428D01*
X91716285Y-110280857D02*
X91659142Y-110166571D01*
X91659142Y-109938000D01*
X91716285Y-109823714D01*
X91830571Y-109766571D01*
X92287714Y-109766571D01*
X92402000Y-109823714D01*
X92459142Y-109938000D01*
X92459142Y-110166571D01*
X92402000Y-110280857D01*
X92287714Y-110338000D01*
X92173428Y-110338000D01*
X92059142Y-109766571D01*
X92459142Y-110852285D02*
X91259142Y-110852285D01*
X92402000Y-110852285D02*
X92459142Y-110966571D01*
X92459142Y-111195142D01*
X92402000Y-111309428D01*
X92344857Y-111366571D01*
X92230571Y-111423714D01*
X91887714Y-111423714D01*
X91773428Y-111366571D01*
X91716285Y-111309428D01*
X91659142Y-111195142D01*
X91659142Y-110966571D01*
X91716285Y-110852285D01*
X92459142Y-111766571D02*
X92459142Y-112223714D01*
X92859142Y-111938000D02*
X91830571Y-111938000D01*
X91716285Y-111995142D01*
X91659142Y-112109428D01*
X91659142Y-112223714D01*
X91716285Y-113080857D02*
X91659142Y-112966571D01*
X91659142Y-112738000D01*
X91716285Y-112623714D01*
X91830571Y-112566571D01*
X92287714Y-112566571D01*
X92402000Y-112623714D01*
X92459142Y-112738000D01*
X92459142Y-112966571D01*
X92402000Y-113080857D01*
X92287714Y-113138000D01*
X92173428Y-113138000D01*
X92059142Y-112566571D01*
X92459142Y-114166571D02*
X91659142Y-114166571D01*
X92459142Y-113652285D02*
X91830571Y-113652285D01*
X91716285Y-113709428D01*
X91659142Y-113823714D01*
X91659142Y-113995142D01*
X91716285Y-114109428D01*
X91773428Y-114166571D01*
X91659142Y-114738000D02*
X92459142Y-114738000D01*
X92230571Y-114738000D02*
X92344857Y-114795142D01*
X92402000Y-114852285D01*
X92459142Y-114966571D01*
X92459142Y-115080857D01*
X91659142Y-117080857D02*
X92230571Y-116680857D01*
X91659142Y-116395142D02*
X92859142Y-116395142D01*
X92859142Y-116852285D01*
X92802000Y-116966571D01*
X92744857Y-117023714D01*
X92630571Y-117080857D01*
X92459142Y-117080857D01*
X92344857Y-117023714D01*
X92287714Y-116966571D01*
X92230571Y-116852285D01*
X92230571Y-116395142D01*
X92859142Y-117480857D02*
X91659142Y-118280857D01*
X92859142Y-118280857D02*
X91659142Y-117480857D01*
X92287714Y-119138000D02*
X92230571Y-119309428D01*
X92173428Y-119366571D01*
X92059142Y-119423714D01*
X91887714Y-119423714D01*
X91773428Y-119366571D01*
X91716285Y-119309428D01*
X91659142Y-119195142D01*
X91659142Y-118738000D01*
X92859142Y-118738000D01*
X92859142Y-119138000D01*
X92802000Y-119252285D01*
X92744857Y-119309428D01*
X92630571Y-119366571D01*
X92516285Y-119366571D01*
X92402000Y-119309428D01*
X92344857Y-119252285D01*
X92287714Y-119138000D01*
X92287714Y-118738000D01*
X92859142Y-120452285D02*
X92859142Y-120223714D01*
X92802000Y-120109428D01*
X92744857Y-120052285D01*
X92573428Y-119938000D01*
X92344857Y-119880857D01*
X91887714Y-119880857D01*
X91773428Y-119938000D01*
X91716285Y-119995142D01*
X91659142Y-120109428D01*
X91659142Y-120338000D01*
X91716285Y-120452285D01*
X91773428Y-120509428D01*
X91887714Y-120566571D01*
X92173428Y-120566571D01*
X92287714Y-120509428D01*
X92344857Y-120452285D01*
X92402000Y-120338000D01*
X92402000Y-120109428D01*
X92344857Y-119995142D01*
X92287714Y-119938000D01*
X92173428Y-119880857D01*
X88697142Y-72894857D02*
X88697142Y-74094857D01*
X88697142Y-72952000D02*
X88811428Y-72894857D01*
X89040000Y-72894857D01*
X89154285Y-72952000D01*
X89211428Y-73009142D01*
X89268571Y-73123428D01*
X89268571Y-73466285D01*
X89211428Y-73580571D01*
X89154285Y-73637714D01*
X89040000Y-73694857D01*
X88811428Y-73694857D01*
X88697142Y-73637714D01*
X89782857Y-73694857D02*
X89782857Y-72894857D01*
X89782857Y-72494857D02*
X89725714Y-72552000D01*
X89782857Y-72609142D01*
X89840000Y-72552000D01*
X89782857Y-72494857D01*
X89782857Y-72609142D01*
X90868571Y-73637714D02*
X90754285Y-73694857D01*
X90525714Y-73694857D01*
X90411428Y-73637714D01*
X90354285Y-73580571D01*
X90297142Y-73466285D01*
X90297142Y-73123428D01*
X90354285Y-73009142D01*
X90411428Y-72952000D01*
X90525714Y-72894857D01*
X90754285Y-72894857D01*
X90868571Y-72952000D01*
X91382857Y-73694857D02*
X91382857Y-72494857D01*
X91497142Y-73237714D02*
X91840000Y-73694857D01*
X91840000Y-72894857D02*
X91382857Y-73352000D01*
X92354285Y-73694857D02*
X92354285Y-72894857D01*
X92354285Y-72494857D02*
X92297142Y-72552000D01*
X92354285Y-72609142D01*
X92411428Y-72552000D01*
X92354285Y-72494857D01*
X92354285Y-72609142D01*
X92754285Y-72894857D02*
X93211428Y-72894857D01*
X92925714Y-72494857D02*
X92925714Y-73523428D01*
X92982857Y-73637714D01*
X93097142Y-73694857D01*
X93211428Y-73694857D01*
X94182857Y-72494857D02*
X93611428Y-72494857D01*
X93554285Y-73066285D01*
X93611428Y-73009142D01*
X93725714Y-72952000D01*
X94011428Y-72952000D01*
X94125714Y-73009142D01*
X94182857Y-73066285D01*
X94240000Y-73180571D01*
X94240000Y-73466285D01*
X94182857Y-73580571D01*
X94125714Y-73637714D01*
X94011428Y-73694857D01*
X93725714Y-73694857D01*
X93611428Y-73637714D01*
X93554285Y-73580571D01*
D12*
X94466904Y-91833428D02*
X95766904Y-91833428D01*
X95766904Y-92142952D01*
X95705000Y-92328666D01*
X95581190Y-92452476D01*
X95457380Y-92514380D01*
X95209761Y-92576285D01*
X95024047Y-92576285D01*
X94776428Y-92514380D01*
X94652619Y-92452476D01*
X94528809Y-92328666D01*
X94466904Y-92142952D01*
X94466904Y-91833428D01*
X94528809Y-93628666D02*
X94466904Y-93504857D01*
X94466904Y-93257238D01*
X94528809Y-93133428D01*
X94652619Y-93071523D01*
X95147857Y-93071523D01*
X95271666Y-93133428D01*
X95333571Y-93257238D01*
X95333571Y-93504857D01*
X95271666Y-93628666D01*
X95147857Y-93690571D01*
X95024047Y-93690571D01*
X94900238Y-93071523D01*
X95828809Y-93504857D02*
X95643095Y-93319142D01*
X94528809Y-94804857D02*
X94466904Y-94681047D01*
X94466904Y-94433428D01*
X94528809Y-94309619D01*
X94590714Y-94247714D01*
X94714523Y-94185809D01*
X95085952Y-94185809D01*
X95209761Y-94247714D01*
X95271666Y-94309619D01*
X95333571Y-94433428D01*
X95333571Y-94681047D01*
X95271666Y-94804857D01*
X94466904Y-95547714D02*
X94528809Y-95423904D01*
X94590714Y-95362000D01*
X94714523Y-95300095D01*
X95085952Y-95300095D01*
X95209761Y-95362000D01*
X95271666Y-95423904D01*
X95333571Y-95547714D01*
X95333571Y-95733428D01*
X95271666Y-95857238D01*
X95209761Y-95919142D01*
X95085952Y-95981047D01*
X94714523Y-95981047D01*
X94590714Y-95919142D01*
X94528809Y-95857238D01*
X94466904Y-95733428D01*
X94466904Y-95547714D01*
X94466904Y-97095333D02*
X95766904Y-97095333D01*
X94528809Y-97095333D02*
X94466904Y-96971523D01*
X94466904Y-96723904D01*
X94528809Y-96600095D01*
X94590714Y-96538190D01*
X94714523Y-96476285D01*
X95085952Y-96476285D01*
X95209761Y-96538190D01*
X95271666Y-96600095D01*
X95333571Y-96723904D01*
X95333571Y-96971523D01*
X95271666Y-97095333D01*
X94528809Y-98209619D02*
X94466904Y-98085809D01*
X94466904Y-97838190D01*
X94528809Y-97714380D01*
X94652619Y-97652476D01*
X95147857Y-97652476D01*
X95271666Y-97714380D01*
X95333571Y-97838190D01*
X95333571Y-98085809D01*
X95271666Y-98209619D01*
X95147857Y-98271523D01*
X95024047Y-98271523D01*
X94900238Y-97652476D01*
X95333571Y-99385809D02*
X94466904Y-99385809D01*
X95333571Y-98828666D02*
X94652619Y-98828666D01*
X94528809Y-98890571D01*
X94466904Y-99014380D01*
X94466904Y-99200095D01*
X94528809Y-99323904D01*
X94590714Y-99385809D01*
X94466904Y-100004857D02*
X95333571Y-100004857D01*
X95085952Y-100004857D02*
X95209761Y-100066761D01*
X95271666Y-100128666D01*
X95333571Y-100252476D01*
X95333571Y-100376285D01*
X92316904Y-91895333D02*
X93616904Y-91895333D01*
X92316904Y-92638190D01*
X93616904Y-92638190D01*
X92316904Y-93257238D02*
X93183571Y-93257238D01*
X93616904Y-93257238D02*
X93555000Y-93195333D01*
X93493095Y-93257238D01*
X93555000Y-93319142D01*
X93616904Y-93257238D01*
X93493095Y-93257238D01*
X92378809Y-94433428D02*
X92316904Y-94309619D01*
X92316904Y-94062000D01*
X92378809Y-93938190D01*
X92440714Y-93876285D01*
X92564523Y-93814380D01*
X92935952Y-93814380D01*
X93059761Y-93876285D01*
X93121666Y-93938190D01*
X93183571Y-94062000D01*
X93183571Y-94309619D01*
X93121666Y-94433428D01*
X92378809Y-95485809D02*
X92316904Y-95362000D01*
X92316904Y-95114380D01*
X92378809Y-94990571D01*
X92502619Y-94928666D01*
X92997857Y-94928666D01*
X93121666Y-94990571D01*
X93183571Y-95114380D01*
X93183571Y-95362000D01*
X93121666Y-95485809D01*
X92997857Y-95547714D01*
X92874047Y-95547714D01*
X92750238Y-94928666D01*
X93183571Y-95919142D02*
X93183571Y-96414380D01*
X92316904Y-96104857D02*
X93431190Y-96104857D01*
X93555000Y-96166761D01*
X93616904Y-96290571D01*
X93616904Y-96414380D01*
X92316904Y-97033428D02*
X92378809Y-96909619D01*
X92502619Y-96847714D01*
X93616904Y-96847714D01*
X92316904Y-97714380D02*
X92378809Y-97590571D01*
X92440714Y-97528666D01*
X92564523Y-97466761D01*
X92935952Y-97466761D01*
X93059761Y-97528666D01*
X93121666Y-97590571D01*
X93183571Y-97714380D01*
X93183571Y-97900095D01*
X93121666Y-98023904D01*
X93059761Y-98085809D01*
X92935952Y-98147714D01*
X92564523Y-98147714D01*
X92440714Y-98085809D01*
X92378809Y-98023904D01*
X92316904Y-97900095D01*
X92316904Y-97714380D01*
X92316904Y-98704857D02*
X93183571Y-98704857D01*
X92935952Y-98704857D02*
X93059761Y-98766761D01*
X93121666Y-98828666D01*
X93183571Y-98952476D01*
X93183571Y-99076285D01*
X92378809Y-99447714D02*
X92316904Y-99633428D01*
X92316904Y-99942952D01*
X92378809Y-100066761D01*
X92440714Y-100128666D01*
X92564523Y-100190571D01*
X92688333Y-100190571D01*
X92812142Y-100128666D01*
X92874047Y-100066761D01*
X92935952Y-99942952D01*
X92997857Y-99695333D01*
X93059761Y-99571523D01*
X93121666Y-99509619D01*
X93245476Y-99447714D01*
X93369285Y-99447714D01*
X93493095Y-99509619D01*
X93555000Y-99571523D01*
X93616904Y-99695333D01*
X93616904Y-100004857D01*
X93555000Y-100190571D01*
D13*
%TO.C,J1*%
X95190000Y-73466000D02*
X95190000Y-72136000D01*
X96520000Y-73466000D02*
X95190000Y-73466000D01*
X97790000Y-73466000D02*
X97790000Y-70806000D01*
X97790000Y-70806000D02*
X115630000Y-70806000D01*
X97790000Y-73466000D02*
X115630000Y-73466000D01*
X115630000Y-73466000D02*
X115630000Y-70806000D01*
%TO.C,R1*%
X99287064Y-75973000D02*
X98832936Y-75973000D01*
X99287064Y-77443000D02*
X98832936Y-77443000D01*
%TO.C,U3*%
X124630000Y-74556000D02*
X114130000Y-74556000D01*
X124630000Y-84956000D02*
X124630000Y-74556000D01*
X114130000Y-84956000D02*
X124630000Y-84956000D01*
X114130000Y-74556000D02*
X114130000Y-84956000D01*
X121630000Y-74616000D02*
X120380000Y-74616000D01*
X121630000Y-84896000D02*
X121630000Y-74616000D01*
X117130000Y-84896000D02*
X121630000Y-84896000D01*
X117130000Y-74616000D02*
X117130000Y-84896000D01*
X118380000Y-74616000D02*
X117130000Y-74616000D01*
X120380000Y-74616000D02*
G75*
G02*
X118380000Y-74616000I-1000000J0D01*
G01*
%TO.C,JP1*%
X121796000Y-73390000D02*
X118996000Y-73390000D01*
X118346000Y-72690000D02*
X118346000Y-72090000D01*
X118996000Y-71390000D02*
X121796000Y-71390000D01*
X122446000Y-72090000D02*
X122446000Y-72690000D01*
X122446000Y-72690000D02*
G75*
G02*
X121746000Y-73390000I-700000J0D01*
G01*
X121746000Y-71390000D02*
G75*
G02*
X122446000Y-72090000I0J-700000D01*
G01*
X118346000Y-72090000D02*
G75*
G02*
X119046000Y-71390000I700000J0D01*
G01*
X119046000Y-73390000D02*
G75*
G02*
X118346000Y-72690000I0J700000D01*
G01*
%TO.C,R2*%
X124560000Y-98044000D02*
G75*
G03*
X124560000Y-98044000I-1370000J0D01*
G01*
X121820000Y-98044000D02*
X121750000Y-98044000D01*
%TO.C,D5*%
X115824000Y-118082635D02*
X115824000Y-118742000D01*
X117574635Y-116332000D02*
G75*
G03*
X117574635Y-116332000I-1750635J0D01*
G01*
%TO.C,D1*%
X117294000Y-103978000D02*
X114354000Y-103978000D01*
X117294000Y-104218000D02*
X114354000Y-104218000D01*
X117294000Y-104098000D02*
X114354000Y-104098000D01*
X115824000Y-110928000D02*
X115824000Y-108638000D01*
X115824000Y-100908000D02*
X115824000Y-103198000D01*
X117294000Y-108638000D02*
X117294000Y-103198000D01*
X114354000Y-108638000D02*
X117294000Y-108638000D01*
X114354000Y-103198000D02*
X114354000Y-108638000D01*
X117294000Y-103198000D02*
X114354000Y-103198000D01*
%TO.C,R6*%
X119607064Y-111225000D02*
X119152936Y-111225000D01*
X119607064Y-109755000D02*
X119152936Y-109755000D01*
%TO.C,D7*%
X98644000Y-114862000D02*
X98644000Y-117802000D01*
X98884000Y-114862000D02*
X98884000Y-117802000D01*
X98764000Y-114862000D02*
X98764000Y-117802000D01*
X104324000Y-116332000D02*
X103304000Y-116332000D01*
X96844000Y-116332000D02*
X97864000Y-116332000D01*
X103304000Y-114862000D02*
X97864000Y-114862000D01*
X103304000Y-117802000D02*
X103304000Y-114862000D01*
X97864000Y-117802000D02*
X103304000Y-117802000D01*
X97864000Y-114862000D02*
X97864000Y-117802000D01*
%TO.C,D3*%
X93272000Y-109890000D02*
X96212000Y-109890000D01*
X93272000Y-109650000D02*
X96212000Y-109650000D01*
X93272000Y-109770000D02*
X96212000Y-109770000D01*
X94742000Y-104210000D02*
X94742000Y-105230000D01*
X94742000Y-111690000D02*
X94742000Y-110670000D01*
X93272000Y-105230000D02*
X93272000Y-110670000D01*
X96212000Y-105230000D02*
X93272000Y-105230000D01*
X96212000Y-110670000D02*
X96212000Y-105230000D01*
X93272000Y-110670000D02*
X96212000Y-110670000D01*
%TO.C,Y1*%
X101839000Y-98385000D02*
X101839000Y-104635000D01*
X96789000Y-98385000D02*
X96789000Y-104635000D01*
X96789000Y-104635000D02*
G75*
G03*
X101839000Y-104635000I2525000J0D01*
G01*
X96789000Y-98385000D02*
G75*
G02*
X101839000Y-98385000I2525000J0D01*
G01*
%TO.C,U4*%
X95464000Y-117888000D02*
X105704000Y-117888000D01*
X95464000Y-122529000D02*
X105704000Y-122529000D01*
X95464000Y-117888000D02*
X95464000Y-122529000D01*
X105704000Y-117888000D02*
X105704000Y-122529000D01*
X95464000Y-119398000D02*
X105704000Y-119398000D01*
X98734000Y-117888000D02*
X98734000Y-119398000D01*
X102435000Y-117888000D02*
X102435000Y-119398000D01*
%TO.C,U2*%
X106696000Y-78934000D02*
X105446000Y-78934000D01*
X105446000Y-78934000D02*
X105446000Y-114614000D01*
X105446000Y-114614000D02*
X109946000Y-114614000D01*
X109946000Y-114614000D02*
X109946000Y-78934000D01*
X109946000Y-78934000D02*
X108696000Y-78934000D01*
X102446000Y-78874000D02*
X102446000Y-114674000D01*
X102446000Y-114674000D02*
X112946000Y-114674000D01*
X112946000Y-114674000D02*
X112946000Y-78874000D01*
X112946000Y-78874000D02*
X102446000Y-78874000D01*
X108696000Y-78934000D02*
G75*
G02*
X106696000Y-78934000I-1000000J0D01*
G01*
%TO.C,U1*%
X108436000Y-122500000D02*
X112036000Y-122500000D01*
X112560184Y-121772795D02*
G75*
G02*
X112036000Y-122500000I-2324184J1122795D01*
G01*
X112592400Y-119551193D02*
G75*
G03*
X110236000Y-118050000I-2356400J-1098807D01*
G01*
X107879600Y-119551193D02*
G75*
G02*
X110236000Y-118050000I2356400J-1098807D01*
G01*
X107911816Y-121772795D02*
G75*
G03*
X108436000Y-122500000I2324184J1122795D01*
G01*
%TO.C,SW1*%
X114606000Y-87778000D02*
X114606000Y-93578000D01*
X121106000Y-87678000D02*
X121106000Y-93678000D01*
X116556000Y-87578000D02*
X119156000Y-87578000D01*
X116556000Y-93778000D02*
X119156000Y-93778000D01*
X114556000Y-95778000D02*
X114556000Y-94778000D01*
X115556000Y-95778000D02*
X114556000Y-95778000D01*
%TO.C,R7*%
X119607064Y-108685000D02*
X119152936Y-108685000D01*
X119607064Y-107215000D02*
X119152936Y-107215000D01*
%TO.C,R4*%
X119607064Y-103605000D02*
X119152936Y-103605000D01*
X119607064Y-102135000D02*
X119152936Y-102135000D01*
%TO.C,R3*%
X124560000Y-88900000D02*
G75*
G03*
X124560000Y-88900000I-1370000J0D01*
G01*
X123190000Y-87530000D02*
X123190000Y-87460000D01*
%TO.C,Q1*%
X98370000Y-88160000D02*
X98370000Y-84560000D01*
X97642795Y-84035816D02*
G75*
G02*
X98370000Y-84560000I-1122795J-2324184D01*
G01*
X95421193Y-84003600D02*
G75*
G03*
X93920000Y-86360000I1098807J-2356400D01*
G01*
X95421193Y-88716400D02*
G75*
G02*
X93920000Y-86360000I1098807J2356400D01*
G01*
X97642795Y-88684184D02*
G75*
G03*
X98370000Y-88160000I-1122795J2324184D01*
G01*
%TO.C,K1*%
X87964000Y-85832000D02*
X87964000Y-101112000D01*
X80184000Y-85852000D02*
X80184000Y-101112000D01*
X87964000Y-101112000D02*
X80184000Y-101112000D01*
X87964000Y-85832000D02*
X80184000Y-85832000D01*
X79964000Y-85612000D02*
X82154000Y-85612000D01*
X79964000Y-87952000D02*
X79964000Y-85612000D01*
X83664000Y-87722000D02*
X84364000Y-87722000D01*
X83664000Y-86522000D02*
X83664000Y-87722000D01*
X84364000Y-86522000D02*
X83664000Y-86522000D01*
X84364000Y-87722000D02*
X84364000Y-86522000D01*
X83664000Y-87322000D02*
X84364000Y-86922000D01*
%TO.C,J8*%
X99254000Y-89214000D02*
X101914000Y-89214000D01*
X99254000Y-89094000D02*
X99254000Y-89214000D01*
X101914000Y-89094000D02*
X101914000Y-89214000D01*
X101914000Y-86554000D02*
X101914000Y-87884000D01*
X100584000Y-86554000D02*
X101914000Y-86554000D01*
%TO.C,J7*%
X86614000Y-101854000D02*
X86614000Y-112014000D01*
X87884000Y-101854000D02*
X80264000Y-101854000D01*
X80264000Y-101854000D02*
X80264000Y-112014000D01*
X80264000Y-112014000D02*
X87884000Y-112014000D01*
X87884000Y-112014000D02*
X87884000Y-101854000D01*
%TO.C,J6*%
X86614000Y-112268000D02*
X86614000Y-122428000D01*
X87884000Y-112268000D02*
X80264000Y-112268000D01*
X80264000Y-112268000D02*
X80264000Y-122428000D01*
X80264000Y-122428000D02*
X87884000Y-122428000D01*
X87884000Y-122428000D02*
X87884000Y-112268000D01*
%TO.C,J5*%
X121860000Y-104140000D02*
X124520000Y-104140000D01*
X121860000Y-104140000D02*
X121860000Y-116900000D01*
X121860000Y-116900000D02*
X124520000Y-116900000D01*
X124520000Y-104140000D02*
X124520000Y-116900000D01*
X124520000Y-101540000D02*
X124520000Y-102870000D01*
X123190000Y-101540000D02*
X124520000Y-101540000D01*
%TO.C,J4*%
X91246000Y-118110000D02*
X88586000Y-118110000D01*
X91246000Y-118110000D02*
X91246000Y-110430000D01*
X91246000Y-110430000D02*
X88586000Y-110430000D01*
X88586000Y-118110000D02*
X88586000Y-110430000D01*
X88586000Y-120710000D02*
X88586000Y-119380000D01*
X89916000Y-120710000D02*
X88586000Y-120710000D01*
%TO.C,J3*%
X91246000Y-85344000D02*
X88586000Y-85344000D01*
X91246000Y-85344000D02*
X91246000Y-77664000D01*
X91246000Y-77664000D02*
X88586000Y-77664000D01*
X88586000Y-85344000D02*
X88586000Y-77664000D01*
X88586000Y-87944000D02*
X88586000Y-86614000D01*
X89916000Y-87944000D02*
X88586000Y-87944000D01*
%TO.C,J2*%
X83820000Y-77410000D02*
X83820000Y-80070000D01*
X83820000Y-77410000D02*
X81220000Y-77410000D01*
X81220000Y-77410000D02*
X81220000Y-80070000D01*
X83820000Y-80070000D02*
X81220000Y-80070000D01*
X86420000Y-80070000D02*
X85090000Y-80070000D01*
X86420000Y-78740000D02*
X86420000Y-80070000D01*
%TO.C,D6*%
X84600449Y-84479366D02*
G75*
G03*
X84540847Y-82212000I1251551J1167366D01*
G01*
%TO.C,D4*%
X106898000Y-74964000D02*
X106898000Y-75120000D01*
X106898000Y-77280000D02*
X106898000Y-77436000D01*
X109499130Y-77279837D02*
G75*
G02*
X107417039Y-77280000I-1041130J1079837D01*
G01*
X109499130Y-75120163D02*
G75*
G03*
X107417039Y-75120000I-1041130J-1079837D01*
G01*
X110130335Y-77278608D02*
G75*
G02*
X106898000Y-77435516I-1672335J1078608D01*
G01*
X110130335Y-75121392D02*
G75*
G03*
X106898000Y-74964484I-1672335J-1078608D01*
G01*
%TO.C,D2*%
X99549551Y-79350634D02*
G75*
G03*
X99609153Y-81618000I-1251551J-1167366D01*
G01*
%TO.C,C3*%
X96116000Y-95004000D02*
X96116000Y-90964000D01*
X98956000Y-95004000D02*
X98956000Y-90964000D01*
X96116000Y-95004000D02*
X96741000Y-95004000D01*
X98331000Y-95004000D02*
X98956000Y-95004000D01*
X96116000Y-90964000D02*
X96741000Y-90964000D01*
X98331000Y-90964000D02*
X98956000Y-90964000D01*
%TO.C,C2*%
X99164000Y-95004000D02*
X99164000Y-90964000D01*
X102004000Y-95004000D02*
X102004000Y-90964000D01*
X99164000Y-95004000D02*
X99789000Y-95004000D01*
X101379000Y-95004000D02*
X102004000Y-95004000D01*
X99164000Y-90964000D02*
X99789000Y-90964000D01*
X101379000Y-90964000D02*
X102004000Y-90964000D01*
%TO.C,J1*%
D10*
X93642380Y-72469333D02*
X94356666Y-72469333D01*
X94499523Y-72516952D01*
X94594761Y-72612190D01*
X94642380Y-72755047D01*
X94642380Y-72850285D01*
X94642380Y-71469333D02*
X94642380Y-72040761D01*
X94642380Y-71755047D02*
X93642380Y-71755047D01*
X93785238Y-71850285D01*
X93880476Y-71945523D01*
X93928095Y-72040761D01*
%TO.C,R1*%
X98893333Y-75636380D02*
X98560000Y-75160190D01*
X98321904Y-75636380D02*
X98321904Y-74636380D01*
X98702857Y-74636380D01*
X98798095Y-74684000D01*
X98845714Y-74731619D01*
X98893333Y-74826857D01*
X98893333Y-74969714D01*
X98845714Y-75064952D01*
X98798095Y-75112571D01*
X98702857Y-75160190D01*
X98321904Y-75160190D01*
X99845714Y-75636380D02*
X99274285Y-75636380D01*
X99560000Y-75636380D02*
X99560000Y-74636380D01*
X99464761Y-74779238D01*
X99369523Y-74874476D01*
X99274285Y-74922095D01*
%TO.C,U3*%
X122936095Y-73366380D02*
X122936095Y-74175904D01*
X122983714Y-74271142D01*
X123031333Y-74318761D01*
X123126571Y-74366380D01*
X123317047Y-74366380D01*
X123412285Y-74318761D01*
X123459904Y-74271142D01*
X123507523Y-74175904D01*
X123507523Y-73366380D01*
X123888476Y-73366380D02*
X124507523Y-73366380D01*
X124174190Y-73747333D01*
X124317047Y-73747333D01*
X124412285Y-73794952D01*
X124459904Y-73842571D01*
X124507523Y-73937809D01*
X124507523Y-74175904D01*
X124459904Y-74271142D01*
X124412285Y-74318761D01*
X124317047Y-74366380D01*
X124031333Y-74366380D01*
X123936095Y-74318761D01*
X123888476Y-74271142D01*
%TO.C,JP1*%
X116514666Y-70318380D02*
X116514666Y-71032666D01*
X116467047Y-71175523D01*
X116371809Y-71270761D01*
X116228952Y-71318380D01*
X116133714Y-71318380D01*
X116990857Y-71318380D02*
X116990857Y-70318380D01*
X117371809Y-70318380D01*
X117467047Y-70366000D01*
X117514666Y-70413619D01*
X117562285Y-70508857D01*
X117562285Y-70651714D01*
X117514666Y-70746952D01*
X117467047Y-70794571D01*
X117371809Y-70842190D01*
X116990857Y-70842190D01*
X118514666Y-71318380D02*
X117943238Y-71318380D01*
X118228952Y-71318380D02*
X118228952Y-70318380D01*
X118133714Y-70461238D01*
X118038476Y-70556476D01*
X117943238Y-70604095D01*
X123281714Y-72080380D02*
X122710285Y-72080380D01*
X122996000Y-72080380D02*
X122996000Y-71080380D01*
X122900761Y-71223238D01*
X122805523Y-71318476D01*
X122710285Y-71366095D01*
X117462666Y-72604380D02*
X118081714Y-72604380D01*
X117748380Y-72985333D01*
X117891238Y-72985333D01*
X117986476Y-73032952D01*
X118034095Y-73080571D01*
X118081714Y-73175809D01*
X118081714Y-73413904D01*
X118034095Y-73509142D01*
X117986476Y-73556761D01*
X117891238Y-73604380D01*
X117605523Y-73604380D01*
X117510285Y-73556761D01*
X117462666Y-73509142D01*
%TO.C,R2*%
X120229333Y-100782380D02*
X119896000Y-100306190D01*
X119657904Y-100782380D02*
X119657904Y-99782380D01*
X120038857Y-99782380D01*
X120134095Y-99830000D01*
X120181714Y-99877619D01*
X120229333Y-99972857D01*
X120229333Y-100115714D01*
X120181714Y-100210952D01*
X120134095Y-100258571D01*
X120038857Y-100306190D01*
X119657904Y-100306190D01*
X120610285Y-99877619D02*
X120657904Y-99830000D01*
X120753142Y-99782380D01*
X120991238Y-99782380D01*
X121086476Y-99830000D01*
X121134095Y-99877619D01*
X121181714Y-99972857D01*
X121181714Y-100068095D01*
X121134095Y-100210952D01*
X120562666Y-100782380D01*
X121181714Y-100782380D01*
%TO.C,D5*%
X112291904Y-116530380D02*
X112291904Y-115530380D01*
X112530000Y-115530380D01*
X112672857Y-115578000D01*
X112768095Y-115673238D01*
X112815714Y-115768476D01*
X112863333Y-115958952D01*
X112863333Y-116101809D01*
X112815714Y-116292285D01*
X112768095Y-116387523D01*
X112672857Y-116482761D01*
X112530000Y-116530380D01*
X112291904Y-116530380D01*
X113768095Y-115530380D02*
X113291904Y-115530380D01*
X113244285Y-116006571D01*
X113291904Y-115958952D01*
X113387142Y-115911333D01*
X113625238Y-115911333D01*
X113720476Y-115958952D01*
X113768095Y-116006571D01*
X113815714Y-116101809D01*
X113815714Y-116339904D01*
X113768095Y-116435142D01*
X113720476Y-116482761D01*
X113625238Y-116530380D01*
X113387142Y-116530380D01*
X113291904Y-116482761D01*
X113244285Y-116435142D01*
X117109904Y-114720666D02*
X117586095Y-114720666D01*
X117014666Y-115006380D02*
X117348000Y-114006380D01*
X117681333Y-115006380D01*
%TO.C,D1*%
X117625904Y-99258380D02*
X117625904Y-98258380D01*
X117864000Y-98258380D01*
X118006857Y-98306000D01*
X118102095Y-98401238D01*
X118149714Y-98496476D01*
X118197333Y-98686952D01*
X118197333Y-98829809D01*
X118149714Y-99020285D01*
X118102095Y-99115523D01*
X118006857Y-99210761D01*
X117864000Y-99258380D01*
X117625904Y-99258380D01*
X119149714Y-99258380D02*
X118578285Y-99258380D01*
X118864000Y-99258380D02*
X118864000Y-98258380D01*
X118768761Y-98401238D01*
X118673523Y-98496476D01*
X118578285Y-98544095D01*
X117594095Y-100782380D02*
X117594095Y-99782380D01*
X118165523Y-100782380D02*
X117736952Y-100210952D01*
X118165523Y-99782380D02*
X117594095Y-100353809D01*
%TO.C,R6*%
X118451333Y-112720380D02*
X118118000Y-112244190D01*
X117879904Y-112720380D02*
X117879904Y-111720380D01*
X118260857Y-111720380D01*
X118356095Y-111768000D01*
X118403714Y-111815619D01*
X118451333Y-111910857D01*
X118451333Y-112053714D01*
X118403714Y-112148952D01*
X118356095Y-112196571D01*
X118260857Y-112244190D01*
X117879904Y-112244190D01*
X119308476Y-111720380D02*
X119118000Y-111720380D01*
X119022761Y-111768000D01*
X118975142Y-111815619D01*
X118879904Y-111958476D01*
X118832285Y-112148952D01*
X118832285Y-112529904D01*
X118879904Y-112625142D01*
X118927523Y-112672761D01*
X119022761Y-112720380D01*
X119213238Y-112720380D01*
X119308476Y-112672761D01*
X119356095Y-112625142D01*
X119403714Y-112529904D01*
X119403714Y-112291809D01*
X119356095Y-112196571D01*
X119308476Y-112148952D01*
X119213238Y-112101333D01*
X119022761Y-112101333D01*
X118927523Y-112148952D01*
X118879904Y-112196571D01*
X118832285Y-112291809D01*
%TO.C,D7*%
X99845904Y-114314380D02*
X99845904Y-113314380D01*
X100084000Y-113314380D01*
X100226857Y-113362000D01*
X100322095Y-113457238D01*
X100369714Y-113552476D01*
X100417333Y-113742952D01*
X100417333Y-113885809D01*
X100369714Y-114076285D01*
X100322095Y-114171523D01*
X100226857Y-114266761D01*
X100084000Y-114314380D01*
X99845904Y-114314380D01*
X100750666Y-113314380D02*
X101417333Y-113314380D01*
X100988761Y-114314380D01*
X96766095Y-115006380D02*
X96766095Y-114006380D01*
X97337523Y-115006380D02*
X96908952Y-114434952D01*
X97337523Y-114006380D02*
X96766095Y-114577809D01*
%TO.C,D3*%
X96543904Y-109418380D02*
X96543904Y-108418380D01*
X96782000Y-108418380D01*
X96924857Y-108466000D01*
X97020095Y-108561238D01*
X97067714Y-108656476D01*
X97115333Y-108846952D01*
X97115333Y-108989809D01*
X97067714Y-109180285D01*
X97020095Y-109275523D01*
X96924857Y-109370761D01*
X96782000Y-109418380D01*
X96543904Y-109418380D01*
X97448666Y-108418380D02*
X98067714Y-108418380D01*
X97734380Y-108799333D01*
X97877238Y-108799333D01*
X97972476Y-108846952D01*
X98020095Y-108894571D01*
X98067714Y-108989809D01*
X98067714Y-109227904D01*
X98020095Y-109323142D01*
X97972476Y-109370761D01*
X97877238Y-109418380D01*
X97591523Y-109418380D01*
X97496285Y-109370761D01*
X97448666Y-109323142D01*
X96258095Y-112974380D02*
X96258095Y-111974380D01*
X96829523Y-112974380D02*
X96400952Y-112402952D01*
X96829523Y-111974380D02*
X96258095Y-112545809D01*
%TO.C,Y1*%
X102815190Y-101986190D02*
X103291380Y-101986190D01*
X102291380Y-102319523D02*
X102815190Y-101986190D01*
X102291380Y-101652857D01*
X103291380Y-100795714D02*
X103291380Y-101367142D01*
X103291380Y-101081428D02*
X102291380Y-101081428D01*
X102434238Y-101176666D01*
X102529476Y-101271904D01*
X102577095Y-101367142D01*
%TO.C,U4*%
X93472095Y-121372380D02*
X93472095Y-122181904D01*
X93519714Y-122277142D01*
X93567333Y-122324761D01*
X93662571Y-122372380D01*
X93853047Y-122372380D01*
X93948285Y-122324761D01*
X93995904Y-122277142D01*
X94043523Y-122181904D01*
X94043523Y-121372380D01*
X94948285Y-121705714D02*
X94948285Y-122372380D01*
X94710190Y-121324761D02*
X94472095Y-122039047D01*
X95091142Y-122039047D01*
%TO.C,U2*%
X100584095Y-109434380D02*
X100584095Y-110243904D01*
X100631714Y-110339142D01*
X100679333Y-110386761D01*
X100774571Y-110434380D01*
X100965047Y-110434380D01*
X101060285Y-110386761D01*
X101107904Y-110339142D01*
X101155523Y-110243904D01*
X101155523Y-109434380D01*
X101584095Y-109529619D02*
X101631714Y-109482000D01*
X101726952Y-109434380D01*
X101965047Y-109434380D01*
X102060285Y-109482000D01*
X102107904Y-109529619D01*
X102155523Y-109624857D01*
X102155523Y-109720095D01*
X102107904Y-109862952D01*
X101536476Y-110434380D01*
X102155523Y-110434380D01*
%TO.C,U1*%
X109474095Y-116542380D02*
X109474095Y-117351904D01*
X109521714Y-117447142D01*
X109569333Y-117494761D01*
X109664571Y-117542380D01*
X109855047Y-117542380D01*
X109950285Y-117494761D01*
X109997904Y-117447142D01*
X110045523Y-117351904D01*
X110045523Y-116542380D01*
X111045523Y-117542380D02*
X110474095Y-117542380D01*
X110759809Y-117542380D02*
X110759809Y-116542380D01*
X110664571Y-116685238D01*
X110569333Y-116780476D01*
X110474095Y-116828095D01*
%TO.C,SW1*%
X121348666Y-94892761D02*
X121491523Y-94940380D01*
X121729619Y-94940380D01*
X121824857Y-94892761D01*
X121872476Y-94845142D01*
X121920095Y-94749904D01*
X121920095Y-94654666D01*
X121872476Y-94559428D01*
X121824857Y-94511809D01*
X121729619Y-94464190D01*
X121539142Y-94416571D01*
X121443904Y-94368952D01*
X121396285Y-94321333D01*
X121348666Y-94226095D01*
X121348666Y-94130857D01*
X121396285Y-94035619D01*
X121443904Y-93988000D01*
X121539142Y-93940380D01*
X121777238Y-93940380D01*
X121920095Y-93988000D01*
X122253428Y-93940380D02*
X122491523Y-94940380D01*
X122682000Y-94226095D01*
X122872476Y-94940380D01*
X123110571Y-93940380D01*
X124015333Y-94940380D02*
X123443904Y-94940380D01*
X123729619Y-94940380D02*
X123729619Y-93940380D01*
X123634380Y-94083238D01*
X123539142Y-94178476D01*
X123443904Y-94226095D01*
%TO.C,R7*%
X119213333Y-106878380D02*
X118880000Y-106402190D01*
X118641904Y-106878380D02*
X118641904Y-105878380D01*
X119022857Y-105878380D01*
X119118095Y-105926000D01*
X119165714Y-105973619D01*
X119213333Y-106068857D01*
X119213333Y-106211714D01*
X119165714Y-106306952D01*
X119118095Y-106354571D01*
X119022857Y-106402190D01*
X118641904Y-106402190D01*
X119546666Y-105878380D02*
X120213333Y-105878380D01*
X119784761Y-106878380D01*
%TO.C,R4*%
X119213333Y-104592380D02*
X118880000Y-104116190D01*
X118641904Y-104592380D02*
X118641904Y-103592380D01*
X119022857Y-103592380D01*
X119118095Y-103640000D01*
X119165714Y-103687619D01*
X119213333Y-103782857D01*
X119213333Y-103925714D01*
X119165714Y-104020952D01*
X119118095Y-104068571D01*
X119022857Y-104116190D01*
X118641904Y-104116190D01*
X120070476Y-103925714D02*
X120070476Y-104592380D01*
X119832380Y-103544761D02*
X119594285Y-104259047D01*
X120213333Y-104259047D01*
%TO.C,R3*%
X123023333Y-91638380D02*
X122690000Y-91162190D01*
X122451904Y-91638380D02*
X122451904Y-90638380D01*
X122832857Y-90638380D01*
X122928095Y-90686000D01*
X122975714Y-90733619D01*
X123023333Y-90828857D01*
X123023333Y-90971714D01*
X122975714Y-91066952D01*
X122928095Y-91114571D01*
X122832857Y-91162190D01*
X122451904Y-91162190D01*
X123356666Y-90638380D02*
X123975714Y-90638380D01*
X123642380Y-91019333D01*
X123785238Y-91019333D01*
X123880476Y-91066952D01*
X123928095Y-91114571D01*
X123975714Y-91209809D01*
X123975714Y-91447904D01*
X123928095Y-91543142D01*
X123880476Y-91590761D01*
X123785238Y-91638380D01*
X123499523Y-91638380D01*
X123404285Y-91590761D01*
X123356666Y-91543142D01*
%TO.C,Q1*%
X92864761Y-86907619D02*
X92769523Y-86860000D01*
X92674285Y-86764761D01*
X92531428Y-86621904D01*
X92436190Y-86574285D01*
X92340952Y-86574285D01*
X92388571Y-86812380D02*
X92293333Y-86764761D01*
X92198095Y-86669523D01*
X92150476Y-86479047D01*
X92150476Y-86145714D01*
X92198095Y-85955238D01*
X92293333Y-85860000D01*
X92388571Y-85812380D01*
X92579047Y-85812380D01*
X92674285Y-85860000D01*
X92769523Y-85955238D01*
X92817142Y-86145714D01*
X92817142Y-86479047D01*
X92769523Y-86669523D01*
X92674285Y-86764761D01*
X92579047Y-86812380D01*
X92388571Y-86812380D01*
X93769523Y-86812380D02*
X93198095Y-86812380D01*
X93483809Y-86812380D02*
X93483809Y-85812380D01*
X93388571Y-85955238D01*
X93293333Y-86050476D01*
X93198095Y-86098095D01*
%TO.C,K1*%
X88415904Y-91892380D02*
X88415904Y-90892380D01*
X88987333Y-91892380D02*
X88558761Y-91320952D01*
X88987333Y-90892380D02*
X88415904Y-91463809D01*
X89939714Y-91892380D02*
X89368285Y-91892380D01*
X89654000Y-91892380D02*
X89654000Y-90892380D01*
X89558761Y-91035238D01*
X89463523Y-91130476D01*
X89368285Y-91178095D01*
%TO.C,J8*%
X99996666Y-85050380D02*
X99996666Y-85764666D01*
X99949047Y-85907523D01*
X99853809Y-86002761D01*
X99710952Y-86050380D01*
X99615714Y-86050380D01*
X100615714Y-85478952D02*
X100520476Y-85431333D01*
X100472857Y-85383714D01*
X100425238Y-85288476D01*
X100425238Y-85240857D01*
X100472857Y-85145619D01*
X100520476Y-85098000D01*
X100615714Y-85050380D01*
X100806190Y-85050380D01*
X100901428Y-85098000D01*
X100949047Y-85145619D01*
X100996666Y-85240857D01*
X100996666Y-85288476D01*
X100949047Y-85383714D01*
X100901428Y-85431333D01*
X100806190Y-85478952D01*
X100615714Y-85478952D01*
X100520476Y-85526571D01*
X100472857Y-85574190D01*
X100425238Y-85669428D01*
X100425238Y-85859904D01*
X100472857Y-85955142D01*
X100520476Y-86002761D01*
X100615714Y-86050380D01*
X100806190Y-86050380D01*
X100901428Y-86002761D01*
X100949047Y-85955142D01*
X100996666Y-85859904D01*
X100996666Y-85669428D01*
X100949047Y-85574190D01*
X100901428Y-85526571D01*
X100806190Y-85478952D01*
%TO.C,J7*%
X88566666Y-101814380D02*
X88566666Y-102528666D01*
X88519047Y-102671523D01*
X88423809Y-102766761D01*
X88280952Y-102814380D01*
X88185714Y-102814380D01*
X88947619Y-101814380D02*
X89614285Y-101814380D01*
X89185714Y-102814380D01*
%TO.C,J6*%
X88312666Y-121372380D02*
X88312666Y-122086666D01*
X88265047Y-122229523D01*
X88169809Y-122324761D01*
X88026952Y-122372380D01*
X87931714Y-122372380D01*
X89217428Y-121372380D02*
X89026952Y-121372380D01*
X88931714Y-121420000D01*
X88884095Y-121467619D01*
X88788857Y-121610476D01*
X88741238Y-121800952D01*
X88741238Y-122181904D01*
X88788857Y-122277142D01*
X88836476Y-122324761D01*
X88931714Y-122372380D01*
X89122190Y-122372380D01*
X89217428Y-122324761D01*
X89265047Y-122277142D01*
X89312666Y-122181904D01*
X89312666Y-121943809D01*
X89265047Y-121848571D01*
X89217428Y-121800952D01*
X89122190Y-121753333D01*
X88931714Y-121753333D01*
X88836476Y-121800952D01*
X88788857Y-121848571D01*
X88741238Y-121943809D01*
%TO.C,J5*%
X120570666Y-115784380D02*
X120570666Y-116498666D01*
X120523047Y-116641523D01*
X120427809Y-116736761D01*
X120284952Y-116784380D01*
X120189714Y-116784380D01*
X121523047Y-115784380D02*
X121046857Y-115784380D01*
X120999238Y-116260571D01*
X121046857Y-116212952D01*
X121142095Y-116165333D01*
X121380190Y-116165333D01*
X121475428Y-116212952D01*
X121523047Y-116260571D01*
X121570666Y-116355809D01*
X121570666Y-116593904D01*
X121523047Y-116689142D01*
X121475428Y-116736761D01*
X121380190Y-116784380D01*
X121142095Y-116784380D01*
X121046857Y-116736761D01*
X120999238Y-116689142D01*
%TO.C,J4*%
X90598666Y-121372380D02*
X90598666Y-122086666D01*
X90551047Y-122229523D01*
X90455809Y-122324761D01*
X90312952Y-122372380D01*
X90217714Y-122372380D01*
X91503428Y-121705714D02*
X91503428Y-122372380D01*
X91265333Y-121324761D02*
X91027238Y-122039047D01*
X91646285Y-122039047D01*
%TO.C,J3*%
X89582666Y-88836380D02*
X89582666Y-89550666D01*
X89535047Y-89693523D01*
X89439809Y-89788761D01*
X89296952Y-89836380D01*
X89201714Y-89836380D01*
X89963619Y-88836380D02*
X90582666Y-88836380D01*
X90249333Y-89217333D01*
X90392190Y-89217333D01*
X90487428Y-89264952D01*
X90535047Y-89312571D01*
X90582666Y-89407809D01*
X90582666Y-89645904D01*
X90535047Y-89741142D01*
X90487428Y-89788761D01*
X90392190Y-89836380D01*
X90106476Y-89836380D01*
X90011238Y-89788761D01*
X89963619Y-89741142D01*
%TO.C,J2*%
X89074666Y-76160380D02*
X89074666Y-76874666D01*
X89027047Y-77017523D01*
X88931809Y-77112761D01*
X88788952Y-77160380D01*
X88693714Y-77160380D01*
X89503238Y-76255619D02*
X89550857Y-76208000D01*
X89646095Y-76160380D01*
X89884190Y-76160380D01*
X89979428Y-76208000D01*
X90027047Y-76255619D01*
X90074666Y-76350857D01*
X90074666Y-76446095D01*
X90027047Y-76588952D01*
X89455619Y-77160380D01*
X90074666Y-77160380D01*
%TO.C,D6*%
X82319904Y-81732380D02*
X82319904Y-80732380D01*
X82558000Y-80732380D01*
X82700857Y-80780000D01*
X82796095Y-80875238D01*
X82843714Y-80970476D01*
X82891333Y-81160952D01*
X82891333Y-81303809D01*
X82843714Y-81494285D01*
X82796095Y-81589523D01*
X82700857Y-81684761D01*
X82558000Y-81732380D01*
X82319904Y-81732380D01*
X83748476Y-80732380D02*
X83558000Y-80732380D01*
X83462761Y-80780000D01*
X83415142Y-80827619D01*
X83319904Y-80970476D01*
X83272285Y-81160952D01*
X83272285Y-81541904D01*
X83319904Y-81637142D01*
X83367523Y-81684761D01*
X83462761Y-81732380D01*
X83653238Y-81732380D01*
X83748476Y-81684761D01*
X83796095Y-81637142D01*
X83843714Y-81541904D01*
X83843714Y-81303809D01*
X83796095Y-81208571D01*
X83748476Y-81160952D01*
X83653238Y-81113333D01*
X83462761Y-81113333D01*
X83367523Y-81160952D01*
X83319904Y-81208571D01*
X83272285Y-81303809D01*
X80950095Y-83764380D02*
X80950095Y-82764380D01*
X81521523Y-83764380D02*
X81092952Y-83192952D01*
X81521523Y-82764380D02*
X80950095Y-83335809D01*
%TO.C,D4*%
X111021904Y-78430380D02*
X111021904Y-77430380D01*
X111260000Y-77430380D01*
X111402857Y-77478000D01*
X111498095Y-77573238D01*
X111545714Y-77668476D01*
X111593333Y-77858952D01*
X111593333Y-78001809D01*
X111545714Y-78192285D01*
X111498095Y-78287523D01*
X111402857Y-78382761D01*
X111260000Y-78430380D01*
X111021904Y-78430380D01*
X112450476Y-77763714D02*
X112450476Y-78430380D01*
X112212380Y-77382761D02*
X111974285Y-78097047D01*
X112593333Y-78097047D01*
%TO.C,D2*%
X100099904Y-83256380D02*
X100099904Y-82256380D01*
X100338000Y-82256380D01*
X100480857Y-82304000D01*
X100576095Y-82399238D01*
X100623714Y-82494476D01*
X100671333Y-82684952D01*
X100671333Y-82827809D01*
X100623714Y-83018285D01*
X100576095Y-83113523D01*
X100480857Y-83208761D01*
X100338000Y-83256380D01*
X100099904Y-83256380D01*
X101052285Y-82351619D02*
X101099904Y-82304000D01*
X101195142Y-82256380D01*
X101433238Y-82256380D01*
X101528476Y-82304000D01*
X101576095Y-82351619D01*
X101623714Y-82446857D01*
X101623714Y-82542095D01*
X101576095Y-82684952D01*
X101004666Y-83256380D01*
X101623714Y-83256380D01*
X102676095Y-80970380D02*
X102676095Y-79970380D01*
X103247523Y-80970380D02*
X102818952Y-80398952D01*
X103247523Y-79970380D02*
X102676095Y-80541809D01*
%TO.C,C3*%
X97877333Y-90527142D02*
X97829714Y-90574761D01*
X97686857Y-90622380D01*
X97591619Y-90622380D01*
X97448761Y-90574761D01*
X97353523Y-90479523D01*
X97305904Y-90384285D01*
X97258285Y-90193809D01*
X97258285Y-90050952D01*
X97305904Y-89860476D01*
X97353523Y-89765238D01*
X97448761Y-89670000D01*
X97591619Y-89622380D01*
X97686857Y-89622380D01*
X97829714Y-89670000D01*
X97877333Y-89717619D01*
X98210666Y-89622380D02*
X98829714Y-89622380D01*
X98496380Y-90003333D01*
X98639238Y-90003333D01*
X98734476Y-90050952D01*
X98782095Y-90098571D01*
X98829714Y-90193809D01*
X98829714Y-90431904D01*
X98782095Y-90527142D01*
X98734476Y-90574761D01*
X98639238Y-90622380D01*
X98353523Y-90622380D01*
X98258285Y-90574761D01*
X98210666Y-90527142D01*
%TO.C,C2*%
X100925333Y-90527142D02*
X100877714Y-90574761D01*
X100734857Y-90622380D01*
X100639619Y-90622380D01*
X100496761Y-90574761D01*
X100401523Y-90479523D01*
X100353904Y-90384285D01*
X100306285Y-90193809D01*
X100306285Y-90050952D01*
X100353904Y-89860476D01*
X100401523Y-89765238D01*
X100496761Y-89670000D01*
X100639619Y-89622380D01*
X100734857Y-89622380D01*
X100877714Y-89670000D01*
X100925333Y-89717619D01*
X101306285Y-89717619D02*
X101353904Y-89670000D01*
X101449142Y-89622380D01*
X101687238Y-89622380D01*
X101782476Y-89670000D01*
X101830095Y-89717619D01*
X101877714Y-89812857D01*
X101877714Y-89908095D01*
X101830095Y-90050952D01*
X101258666Y-90622380D01*
X101877714Y-90622380D01*
%TD*%
M02*
