%TF.GenerationSoftware,KiCad,Pcbnew,(5.1.12)-1*%
%TF.CreationDate,2025-05-30T10:09:50+02:00*%
%TF.ProjectId,telecommande,74656c65-636f-46d6-9d61-6e64652e6b69,rev?*%
%TF.SameCoordinates,Original*%
%TF.FileFunction,Legend,Bot*%
%TF.FilePolarity,Positive*%
%FSLAX46Y46*%
G04 Gerber Fmt 4.6, Leading zero omitted, Abs format (unit mm)*
G04 Created by KiCad (PCBNEW (5.1.12)-1) date 2025-05-30 10:09:50*
%MOMM*%
%LPD*%
G01*
G04 APERTURE LIST*
%ADD10C,0.120000*%
%ADD11C,0.150000*%
G04 APERTURE END LIST*
D10*
%TO.C,R5*%
X119607064Y-104929000D02*
X119152936Y-104929000D01*
X119607064Y-106399000D02*
X119152936Y-106399000D01*
%TO.C,R9*%
X108231000Y-106452936D02*
X108231000Y-106907064D01*
X109701000Y-106452936D02*
X109701000Y-106907064D01*
%TO.C,R8*%
X105691000Y-106452936D02*
X105691000Y-106907064D01*
X107161000Y-106452936D02*
X107161000Y-106907064D01*
%TO.C,C8*%
X98290748Y-119861000D02*
X98813252Y-119861000D01*
X98290748Y-118391000D02*
X98813252Y-118391000D01*
%TO.C,C7*%
X84066748Y-87857000D02*
X84589252Y-87857000D01*
X84066748Y-86387000D02*
X84589252Y-86387000D01*
%TO.C,C6*%
X116324748Y-97763000D02*
X116847252Y-97763000D01*
X116324748Y-96293000D02*
X116847252Y-96293000D01*
%TO.C,C5*%
X106199000Y-93718748D02*
X106199000Y-94241252D01*
X107669000Y-93718748D02*
X107669000Y-94241252D01*
%TO.C,C4*%
X108704748Y-119353000D02*
X109227252Y-119353000D01*
X108704748Y-117883000D02*
X109227252Y-117883000D01*
%TO.C,C1*%
X102115252Y-118391000D02*
X101592748Y-118391000D01*
X102115252Y-119861000D02*
X101592748Y-119861000D01*
%TO.C,R5*%
D11*
X119546666Y-104592380D02*
X119880000Y-104116190D01*
X120118095Y-104592380D02*
X120118095Y-103592380D01*
X119737142Y-103592380D01*
X119641904Y-103640000D01*
X119594285Y-103687619D01*
X119546666Y-103782857D01*
X119546666Y-103925714D01*
X119594285Y-104020952D01*
X119641904Y-104068571D01*
X119737142Y-104116190D01*
X120118095Y-104116190D01*
X118641904Y-103592380D02*
X119118095Y-103592380D01*
X119165714Y-104068571D01*
X119118095Y-104020952D01*
X119022857Y-103973333D01*
X118784761Y-103973333D01*
X118689523Y-104020952D01*
X118641904Y-104068571D01*
X118594285Y-104163809D01*
X118594285Y-104401904D01*
X118641904Y-104497142D01*
X118689523Y-104544761D01*
X118784761Y-104592380D01*
X119022857Y-104592380D01*
X119118095Y-104544761D01*
X119165714Y-104497142D01*
%TO.C,R9*%
X109132666Y-109672380D02*
X109466000Y-109196190D01*
X109704095Y-109672380D02*
X109704095Y-108672380D01*
X109323142Y-108672380D01*
X109227904Y-108720000D01*
X109180285Y-108767619D01*
X109132666Y-108862857D01*
X109132666Y-109005714D01*
X109180285Y-109100952D01*
X109227904Y-109148571D01*
X109323142Y-109196190D01*
X109704095Y-109196190D01*
X108656476Y-109672380D02*
X108466000Y-109672380D01*
X108370761Y-109624761D01*
X108323142Y-109577142D01*
X108227904Y-109434285D01*
X108180285Y-109243809D01*
X108180285Y-108862857D01*
X108227904Y-108767619D01*
X108275523Y-108720000D01*
X108370761Y-108672380D01*
X108561238Y-108672380D01*
X108656476Y-108720000D01*
X108704095Y-108767619D01*
X108751714Y-108862857D01*
X108751714Y-109100952D01*
X108704095Y-109196190D01*
X108656476Y-109243809D01*
X108561238Y-109291428D01*
X108370761Y-109291428D01*
X108275523Y-109243809D01*
X108227904Y-109196190D01*
X108180285Y-109100952D01*
%TO.C,R8*%
X106592666Y-109672380D02*
X106926000Y-109196190D01*
X107164095Y-109672380D02*
X107164095Y-108672380D01*
X106783142Y-108672380D01*
X106687904Y-108720000D01*
X106640285Y-108767619D01*
X106592666Y-108862857D01*
X106592666Y-109005714D01*
X106640285Y-109100952D01*
X106687904Y-109148571D01*
X106783142Y-109196190D01*
X107164095Y-109196190D01*
X106021238Y-109100952D02*
X106116476Y-109053333D01*
X106164095Y-109005714D01*
X106211714Y-108910476D01*
X106211714Y-108862857D01*
X106164095Y-108767619D01*
X106116476Y-108720000D01*
X106021238Y-108672380D01*
X105830761Y-108672380D01*
X105735523Y-108720000D01*
X105687904Y-108767619D01*
X105640285Y-108862857D01*
X105640285Y-108910476D01*
X105687904Y-109005714D01*
X105735523Y-109053333D01*
X105830761Y-109100952D01*
X106021238Y-109100952D01*
X106116476Y-109148571D01*
X106164095Y-109196190D01*
X106211714Y-109291428D01*
X106211714Y-109481904D01*
X106164095Y-109577142D01*
X106116476Y-109624761D01*
X106021238Y-109672380D01*
X105830761Y-109672380D01*
X105735523Y-109624761D01*
X105687904Y-109577142D01*
X105640285Y-109481904D01*
X105640285Y-109291428D01*
X105687904Y-109196190D01*
X105735523Y-109148571D01*
X105830761Y-109100952D01*
%TO.C,C8*%
X98718666Y-117705142D02*
X98766285Y-117752761D01*
X98909142Y-117800380D01*
X99004380Y-117800380D01*
X99147238Y-117752761D01*
X99242476Y-117657523D01*
X99290095Y-117562285D01*
X99337714Y-117371809D01*
X99337714Y-117228952D01*
X99290095Y-117038476D01*
X99242476Y-116943238D01*
X99147238Y-116848000D01*
X99004380Y-116800380D01*
X98909142Y-116800380D01*
X98766285Y-116848000D01*
X98718666Y-116895619D01*
X98147238Y-117228952D02*
X98242476Y-117181333D01*
X98290095Y-117133714D01*
X98337714Y-117038476D01*
X98337714Y-116990857D01*
X98290095Y-116895619D01*
X98242476Y-116848000D01*
X98147238Y-116800380D01*
X97956761Y-116800380D01*
X97861523Y-116848000D01*
X97813904Y-116895619D01*
X97766285Y-116990857D01*
X97766285Y-117038476D01*
X97813904Y-117133714D01*
X97861523Y-117181333D01*
X97956761Y-117228952D01*
X98147238Y-117228952D01*
X98242476Y-117276571D01*
X98290095Y-117324190D01*
X98337714Y-117419428D01*
X98337714Y-117609904D01*
X98290095Y-117705142D01*
X98242476Y-117752761D01*
X98147238Y-117800380D01*
X97956761Y-117800380D01*
X97861523Y-117752761D01*
X97813904Y-117705142D01*
X97766285Y-117609904D01*
X97766285Y-117419428D01*
X97813904Y-117324190D01*
X97861523Y-117276571D01*
X97956761Y-117228952D01*
%TO.C,C7*%
X84494666Y-89159142D02*
X84542285Y-89206761D01*
X84685142Y-89254380D01*
X84780380Y-89254380D01*
X84923238Y-89206761D01*
X85018476Y-89111523D01*
X85066095Y-89016285D01*
X85113714Y-88825809D01*
X85113714Y-88682952D01*
X85066095Y-88492476D01*
X85018476Y-88397238D01*
X84923238Y-88302000D01*
X84780380Y-88254380D01*
X84685142Y-88254380D01*
X84542285Y-88302000D01*
X84494666Y-88349619D01*
X84161333Y-88254380D02*
X83494666Y-88254380D01*
X83923238Y-89254380D01*
%TO.C,C6*%
X116752666Y-95861142D02*
X116800285Y-95908761D01*
X116943142Y-95956380D01*
X117038380Y-95956380D01*
X117181238Y-95908761D01*
X117276476Y-95813523D01*
X117324095Y-95718285D01*
X117371714Y-95527809D01*
X117371714Y-95384952D01*
X117324095Y-95194476D01*
X117276476Y-95099238D01*
X117181238Y-95004000D01*
X117038380Y-94956380D01*
X116943142Y-94956380D01*
X116800285Y-95004000D01*
X116752666Y-95051619D01*
X115895523Y-94956380D02*
X116086000Y-94956380D01*
X116181238Y-95004000D01*
X116228857Y-95051619D01*
X116324095Y-95194476D01*
X116371714Y-95384952D01*
X116371714Y-95765904D01*
X116324095Y-95861142D01*
X116276476Y-95908761D01*
X116181238Y-95956380D01*
X115990761Y-95956380D01*
X115895523Y-95908761D01*
X115847904Y-95861142D01*
X115800285Y-95765904D01*
X115800285Y-95527809D01*
X115847904Y-95432571D01*
X115895523Y-95384952D01*
X115990761Y-95337333D01*
X116181238Y-95337333D01*
X116276476Y-95384952D01*
X116324095Y-95432571D01*
X116371714Y-95527809D01*
%TO.C,C5*%
X107100666Y-97131142D02*
X107148285Y-97178761D01*
X107291142Y-97226380D01*
X107386380Y-97226380D01*
X107529238Y-97178761D01*
X107624476Y-97083523D01*
X107672095Y-96988285D01*
X107719714Y-96797809D01*
X107719714Y-96654952D01*
X107672095Y-96464476D01*
X107624476Y-96369238D01*
X107529238Y-96274000D01*
X107386380Y-96226380D01*
X107291142Y-96226380D01*
X107148285Y-96274000D01*
X107100666Y-96321619D01*
X106195904Y-96226380D02*
X106672095Y-96226380D01*
X106719714Y-96702571D01*
X106672095Y-96654952D01*
X106576857Y-96607333D01*
X106338761Y-96607333D01*
X106243523Y-96654952D01*
X106195904Y-96702571D01*
X106148285Y-96797809D01*
X106148285Y-97035904D01*
X106195904Y-97131142D01*
X106243523Y-97178761D01*
X106338761Y-97226380D01*
X106576857Y-97226380D01*
X106672095Y-97178761D01*
X106719714Y-97131142D01*
%TO.C,C4*%
X109132666Y-117451142D02*
X109180285Y-117498761D01*
X109323142Y-117546380D01*
X109418380Y-117546380D01*
X109561238Y-117498761D01*
X109656476Y-117403523D01*
X109704095Y-117308285D01*
X109751714Y-117117809D01*
X109751714Y-116974952D01*
X109704095Y-116784476D01*
X109656476Y-116689238D01*
X109561238Y-116594000D01*
X109418380Y-116546380D01*
X109323142Y-116546380D01*
X109180285Y-116594000D01*
X109132666Y-116641619D01*
X108275523Y-116879714D02*
X108275523Y-117546380D01*
X108513619Y-116498761D02*
X108751714Y-117213047D01*
X108132666Y-117213047D01*
%TO.C,C1*%
X102020666Y-117803142D02*
X102068285Y-117850761D01*
X102211142Y-117898380D01*
X102306380Y-117898380D01*
X102449238Y-117850761D01*
X102544476Y-117755523D01*
X102592095Y-117660285D01*
X102639714Y-117469809D01*
X102639714Y-117326952D01*
X102592095Y-117136476D01*
X102544476Y-117041238D01*
X102449238Y-116946000D01*
X102306380Y-116898380D01*
X102211142Y-116898380D01*
X102068285Y-116946000D01*
X102020666Y-116993619D01*
X101068285Y-117898380D02*
X101639714Y-117898380D01*
X101354000Y-117898380D02*
X101354000Y-116898380D01*
X101449238Y-117041238D01*
X101544476Y-117136476D01*
X101639714Y-117184095D01*
%TD*%
M02*
